<svg xmlns="http://www.w3.org/2000/svg" width="792" height="573" shape-rendering="geometricPrecision" text-rendering="geometricPrecision" image-rendering="optimizeQuality" fill-rule="evenodd" clip-rule="evenodd"><path fill="#dae6fe" d="M481.5-.5h60c40.503 3.881 78.837 15.381 115 34.5 56.837 32.258 83.837 81.258 81 147a806.518 806.518 0 00-.5 57.5c.77 19.676 8.437 36.009 23 49 18.333 28.65 25.333 59.983 21 94-3.196 35.476-16.363 66.476-39.5 93a1666.705 1666.705 0 01-39-10 191.573 191.573 0 0111.5-12c8.137-15.956 4.303-28.123-11.5-36.5-15.333-4.083-26.166 1.084-32.5 15.5a209.036 209.036 0 00-4.5 23 53.768 53.768 0 01-10-2 113.033 113.033 0 01-7.5-21c16.29-7.624 30.957-17.624 44-30 9.38-17.865 4.88-30.698-13.5-38.5-15.208-2.146-25.375 4.021-30.5 18.5a177.022 177.022 0 00-5 40 1348.538 1348.538 0 01-16.5-38.5 198.797 198.797 0 0028.5-29.5c6.18-11.52 4.346-21.353-5.5-29.5-15.42-6.039-25.587-1.206-30.5 14.5a183.227 183.227 0 001 30 2201.984 2201.984 0 00-15.5-34 89.736 89.736 0 0111.5-11 148.791 148.791 0 0013-16c5.685-14.966.685-23.966-15-27-12.376 2.385-17.876 9.885-16.5 22.5.153 6.908.653 13.742 1.5 20.5a459.844 459.844 0 00-15.5-31.5 123.609 123.609 0 0015.5-21.5c1.997-12.335-3.17-17.835-15.5-16.5-5.628 2.756-7.962 7.256-7 13.5a205.59 205.59 0 001.5 15 568.423 568.423 0 00-13.5-25 80.51 80.51 0 0015.5-22c.799-9.041-3.368-14.041-12.5-15-6.928 1.593-10.594 5.926-11 13 .71 4.694 1.21 9.361 1.5 14a97.85 97.85 0 00-13-19 231.83 231.83 0 00-7-25c-6.408-7.52-13.075-7.853-20-1-4.157 7.872-2.324 14.039 5.5 18.5a79.327 79.327 0 0019 8 188.38 188.38 0 0116 23.5l-1 1c-8.003-5.059-16.669-7.559-26-7.5-8.942 6.846-9.276 14.179-1 22a10.413 10.413 0 005 1.5c9.566-2.465 18.566-5.965 27-10.5a366.293 366.293 0 0114.5 27.5c-7.481-4.94-15.648-7.44-24.5-7.5-8.328 4.565-10.161 11.065-5.5 19.5 4.135 3.691 8.969 4.858 14.5 3.5a198.473 198.473 0 0017-8c1-.667 2-.667 3 0a325.21 325.21 0 0116.5 34.5c-11.461-7.49-23.961-11.657-37.5-12.5-11.48 5.452-14.646 13.952-9.5 25.5 4.649 6.999 11.149 9.499 19.5 7.5a138.587 138.587 0 0030.5-13.5 228.212 228.212 0 0119 41c-9.969-8.407-21.136-14.907-33.5-19.5-14.729-1.926-23.062 4.408-25 19 .695 12.362 7.195 19.195 19.5 20.5 14.811-2.27 28.811-6.937 42-14a1356.842 1356.842 0 0018.5 42l-1 1c-14.861-9.432-30.861-16.098-48-20-13.301 1.631-21.634 8.965-25 22-1.189.929-2.522 1.262-4 1a194.421 194.421 0 01-17-4c-1.226.02-2.226.353-3 1a1670.031 1670.031 0 00-39-10 118.86 118.86 0 01-9.5-9c-3.816-9.638-9.149-18.304-16-26-19.409-20.088-40.575-37.922-63.5-53.5L399 310.5a1257.2 1257.2 0 00-25.5-33c5.701-.527 9.534-3.527 11.5-9-2.673-18.142 3.493-32.308 18.5-42.5 16.038-7.94 30.205-18.44 42.5-31.5 12.45-19.784 14.783-40.784 7-63-5.167-11.998-13.334-21.331-24.5-28-14.22-10.472-30.22-16.972-48-19.5-36.593-4.882-70.593 2.118-102 21-4.77 3.534-5.27 7.701-1.5 12.5l13 22a25.14 25.14 0 004.5 4c2.874 3.427 6.541 4.594 11 3.5 22.978-15.162 47.978-19.995 75-14.5 5.076 2.773 8.243 7.107 9.5 13 3.342 14.144-1.158 24.977-13.5 32.5-17.153 8.812-32.32 20.312-45.5 34.5-11.786 16.843-15.119 35.177-10 55 1.777 2.29 3.944 3.957 6.5 5 2.897 2.278 6.23 3.778 10 4.5 8.994.5 17.994.666 27 .5a33.697 33.697 0 00-6.5 9 50.464 50.464 0 00-.5 10c-.968-2.107-1.302-4.441-1-7-8.673-.166-17.34 0-26 .5-6.16.829-10.66 3.996-13.5 9.5a66.398 66.398 0 001 22c5.938 6.27 13.105 10.437 21.5 12.5a248.73 248.73 0 0037-.5c10.935 12.211 17.268 26.544 19 43a42.252 42.252 0 01-4.5 18 69.365 69.365 0 01-15 13c-.383-.556-.883-.889-1.5-1a193.893 193.893 0 00-11.5-12 94.09 94.09 0 00-7-11 60.42 60.42 0 01-3.5-12.5 66.749 66.749 0 00.5-17.5c-3.656-7.431-7.656-7.764-12-1a61.653 61.653 0 00-5 14 540.203 540.203 0 000 32 808.487 808.487 0 01-11-30 92.054 92.054 0 011.5-27c-4.214-15.461-9.38-15.795-15.5-1-3.737 8.282-5.237 16.949-4.5 26 .065.438-.101.772-.5 1-10.461-11.265-14.794-24.598-13-40-1.306-5.289-4.139-9.456-8.5-12.5-2.135-.635-4.135-.301-6 1a19.15 19.15 0 00-3.5 8.5 103.367 103.367 0 001.5 30 126.4 126.4 0 01-8.5-10 210.577 210.577 0 00-13.5-20.5c-2.562-2.413-5.562-4.08-9-5-4.452-.86-7.952.64-10.5 4.5 1.613 16.512 6.28 32.179 14 47a418.541 418.541 0 0033 50 1054.223 1054.223 0 0071.5 62.5 177.373 177.373 0 0038 11 6765.212 6765.212 0 0166 9.5 768.145 768.145 0 0133 17 4591.553 4591.553 0 01-190.5 6 2526.039 2526.039 0 01-103.5-3c4.38-13.733-.62-19.9-15-18.5a145.987 145.987 0 00-17.5 10.5 461.554 461.554 0 014.5-21 107.049 107.049 0 0025 7c10.246-1.128 14.079-6.794 11.5-17-2.639-3.827-6.306-6.16-11-7-8.44 2.303-15.94 6.303-22.5 12 .823-7.019 2.656-14.019 5.5-21 7.78 3.641 15.947 4.808 24.5 3.5 5.494-4.465 6.328-9.632 2.5-15.5-4.705-3.756-9.538-3.923-14.5-.5a40.616 40.616 0 00-10.5 8.5c1.045-6.969 3.211-13.635 6.5-20 6.162 3.891 12.829 5.391 20 4.5 4.011-2.351 5.511-5.851 4.5-10.5-2.897-4.655-7.063-6.155-12.5-4.5a168.466 168.466 0 00-10.5 6.5c1.008-5.69 2.841-11.19 5.5-16.5 3.602.691 7.268 1.524 11 2.5 5.263-.204 7.429-2.871 6.5-8-4.71-5.134-9.543-5.134-14.5 0-.798-.457-1.131-1.124-1-2-.499-3.739-1.499-7.406-3-11-6.746-2.415-9.912-.081-9.5 7a45.055 45.055 0 009.5 10 356.934 356.934 0 00-5.5 14l-1-12c-5.004-7.342-10.337-7.676-16-1-.79 3.134-.457 6.134 1 9a76.57 76.57 0 0013.5 12 158.507 158.507 0 00-5.5 16l-1-13c-2.266-6.549-6.766-9.049-13.5-7.5-6.977 4.84-7.811 10.673-2.5 17.5a119.908 119.908 0 0014.5 11.5 683.496 683.496 0 00-6 17.5c-.992-8.147-3.659-15.647-8-22.5-8.021-4.49-14.521-2.99-19.5 4.5-.823 4.238-.156 8.238 2 12a288.76 288.76 0 0023.5 14.5l-5.5 18.5a68.984 68.984 0 00-7-22c-8.467-6.317-15.467-4.984-21 4-.865 4.739.302 8.906 3.5 12.5a304.556 304.556 0 0021 12.5 488.297 488.297 0 01-53-9c13.551-3.086 18.384-11.42 14.5-25-7.406-10.805-16.572-12.638-27.5-5.5a116.329 116.329 0 00-20 20.5c-.992.172-1.658-.162-2-1 1.74-11.52 3.408-23.187 5-35 13.22 5.009 26.886 6.843 41 5.5 9.068-3.854 12.902-10.688 11.5-20.5-6.076-13.137-15.576-16.303-28.5-9.5A148.727 148.727 0 0077 459.5a185.934 185.934 0 015-34c12.666 5.133 25.833 7.299 39.5 6.5 12.541-5.957 15.708-15.123 9.5-27.5-8.145-8.265-16.979-9.098-26.5-2.5A134.656 134.656 0 0083 419.5a123.855 123.855 0 015.5-32 101.883 101.883 0 0031 2.5c9.858-4.336 12.692-11.503 8.5-21.5-7.08-8.155-14.913-8.988-23.5-2.5L89 381.5c1.658-9.591 3.325-19.258 5-29a4.451 4.451 0 011.5-2c8.674 3.502 17.674 5.002 27 4.5 8.566-4.365 10.733-10.865 6.5-19.5-2.792-3.1-6.292-4.767-10.5-5-8.7 3.107-16.2 8.107-22.5 15a257.87 257.87 0 015.5-27 55.47 55.47 0 0014 2c9.614.812 13.114-3.522 10.5-13-2.707-3.535-6.207-4.702-10.5-3.5a71.583 71.583 0 00-11.5 8.5 67.501 67.501 0 016-22c6.925 3.532 14.092 4.365 21.5 2.5 6.269-7.642 4.602-12.808-5-15.5-6.052 1.871-11.218 5.204-15.5 10 1.305-6.91 3.638-13.576 7-20 5.956-3.622 10.956-8.289 15-14 .848-6.336-1.985-10.003-8.5-11-5.144 1.314-7.977 4.648-8.5 10 .794 10.604-1.206 20.604-6 30l-1-11c-3.142-5.492-7.642-6.992-13.5-4.5-3.303 3.795-3.803 7.962-1.5 12.5 3.912 4.583 8.412 8.417 13.5 11.5a254.653 254.653 0 00-5.5 18.5 83.717 83.717 0 00-2-14c-6.137-5.755-11.47-5.088-16 2-.706 2.471-.373 4.805 1 7 4.078 4.749 8.745 8.749 14 12a84.077 84.077 0 01-4.5 23c-1.12-5.68-2.287-11.347-3.5-17-7.667-10.667-15.333-10.667-23 0-.837 3.795-.504 7.461 1 11 6.465 7.472 14.298 12.805 23.5 16a1628.973 1628.973 0 01-4.5 25 662.786 662.786 0 01-5-19c-4.16-7.17-10.326-9.67-18.5-7.5-9.56 5.578-11.394 13.078-5.5 22.5A180.56 180.56 0 0085.5 389a347.266 347.266 0 00-4.5 27.5 192.481 192.481 0 00-10-25c-7.397-11.558-16.897-13.725-28.5-6.5-4.745 5.269-6.245 11.436-4.5 18.5a23.161 23.161 0 005.5 8.5 118.106 118.106 0 0036 13.5 4694.81 4694.81 0 00-4.5 32c-2.68-12.397-7.846-23.564-15.5-33.5-11.648-6.225-20.814-3.725-27.5 7.5-2.61 9.08-.11 16.247 7.5 21.5 10.748 5.749 22.081 9.582 34 11.5l-4 36c-40.966-19.721-60.966-52.554-60-98.5.931-34.463 9.431-66.963 25.5-97.5a129.306 129.306 0 005.5-37 2169.548 2169.548 0 01-5-86c-2.082-61.022 23.251-106.522 76-136.5 26.136-14.641 54.136-20.308 84-17 25.007 2.593 50.007 5.26 75 8 32.367 2.43 64.367.096 96-7a1044.066 1044.066 0 0060-19 469.576 469.576 0 0155-10.5z" opacity=".999"/><path fill="#fdfefe" d="M413.5 49.5c6.247-1.252 8.58 1.248 7 7.5a2926.268 2926.268 0 00-1.5 20.5c-2.209 2.206-4.709 2.54-7.5 1a85.374 85.374 0 01.5-27c.717-.544 1.217-1.21 1.5-2zm49 9c4.764-.41 7.264 1.59 7.5 6a694.992 694.992 0 00-17 31c-2.854 2.516-5.521 2.183-8-1-.667-1.667-.667-3.333 0-5 5.845-10.36 11.679-20.694 17.5-31z"/><path fill="#2c70d3" d="M428.5 103.5c20.788 20.988 26.288 45.654 16.5 74-4.996 9.994-11.83 18.494-20.5 25.5a258.076 258.076 0 01-26 16c-8.603 5.269-15.103 12.436-19.5 21.5a145.561 145.561 0 00-2 21c-.374 5.62-3.207 9.12-8.5 10.5a840.27 840.27 0 01-41 .5c-2.556-1.043-4.723-2.71-6.5-5-5.119-19.823-1.786-38.157 10-55 13.18-14.188 28.347-25.688 45.5-34.5 12.342-7.523 16.842-18.356 13.5-32.5-1.257-5.893-4.424-10.227-9.5-13-5.517-4.141-11.851-6.307-19-6.5-16.249-1.454-31.916.879-47 7a287.166 287.166 0 01-20 10.5 25.14 25.14 0 01-4.5-4l-13-22c-3.77-4.799-3.27-8.966 1.5-12.5 31.407-18.882 65.407-25.882 102-21 17.78 2.528 33.78 9.028 48 19.5z"/><path fill="#fdfefe" d="M517.5 95.5c7.497-.696 9.497 2.137 6 8.5L470 122.5c-3.994-1.329-5.327-3.996-4-8a6.978 6.978 0 013.5-2.5c16.12-5.519 32.12-11.019 48-16.5z"/><path fill="#2368bc" d="M428.5 103.5c11.166 6.669 19.333 16.002 24.5 28 7.783 22.216 5.45 43.216-7 63-12.295 13.06-26.462 23.56-42.5 31.5-15.007 10.192-21.173 24.358-18.5 42.5-1.966 5.473-5.799 8.473-11.5 9-2.922-2.534-5.922-2.534-9 0-9.006.166-18.006 0-27-.5-3.77-.722-7.103-2.222-10-4.5 13.671.167 27.337 0 41-.5 5.293-1.38 8.126-4.88 8.5-10.5.16-7.063.827-14.063 2-21 4.397-9.064 10.897-16.231 19.5-21.5a258.076 258.076 0 0026-16c8.67-7.006 15.504-15.506 20.5-25.5 9.788-28.346 4.288-53.012-16.5-74z"/><path fill="#2468bd" d="M380.5 132.5c-27.022-5.495-52.022-.662-75 14.5-4.459 1.094-8.126-.073-11-3.5a287.166 287.166 0 0020-10.5c15.084-6.121 30.751-8.454 47-7 7.149.193 13.483 2.359 19 6.5z"/><path fill="#fea189" d="M373.5 277.5a1257.2 1257.2 0 0125.5 33l16.5 16.5c22.925 15.578 44.091 33.412 63.5 53.5 6.851 7.696 12.184 16.362 16 26a118.86 118.86 0 009.5 9 96836.179 96836.179 0 00-47 88 6765.212 6765.212 0 00-66-9.5 177.373 177.373 0 01-38-11 1054.223 1054.223 0 01-71.5-62.5 418.541 418.541 0 01-33-50c-7.72-14.821-12.387-30.488-14-47 2.548-3.86 6.048-5.36 10.5-4.5 3.438.92 6.438 2.587 9 5a210.577 210.577 0 0113.5 20.5 126.4 126.4 0 008.5 10 129.182 129.182 0 0119.5 28l5.5 5.5a385.129 385.129 0 0031 15.5c11.095 10.6 23.761 12.767 38 6.5 2.044-.498 3.378-1.665 4-3.5.617.111 1.117.444 1.5 1a69.365 69.365 0 0015-13 42.252 42.252 0 004.5-18c-1.732-16.456-8.065-30.789-19-43a194.514 194.514 0 01-16.5-28 90.583 90.583 0 01-2.5-9c-.165-3.35.002-6.683.5-10a33.697 33.697 0 016.5-9c3.078-2.534 6.078-2.534 9 0z"/><path fill="#bbcff9" d="M655.5 452.5a4625.918 4625.918 0 01-92-24c1.478.262 2.811-.071 4-1 3.366-13.035 11.699-20.369 25-22 17.139 3.902 33.139 10.568 48 20l1-1a1356.842 1356.842 0 01-18.5-42c-13.189 7.063-27.189 11.73-42 14-12.305-1.305-18.805-8.138-19.5-20.5 1.938-14.592 10.271-20.926 25-19 12.364 4.593 23.531 11.093 33.5 19.5a228.212 228.212 0 00-19-41 138.587 138.587 0 01-30.5 13.5c-8.351 1.999-14.851-.501-19.5-7.5-5.146-11.548-1.98-20.048 9.5-25.5 13.539.843 26.039 5.01 37.5 12.5a325.21 325.21 0 00-16.5-34.5c-1-.667-2-.667-3 0a198.473 198.473 0 01-17 8c-5.531 1.358-10.365.191-14.5-3.5-4.661-8.435-2.828-14.935 5.5-19.5 8.852.06 17.019 2.56 24.5 7.5a366.293 366.293 0 00-14.5-27.5c-8.434 4.535-17.434 8.035-27 10.5a10.413 10.413 0 01-5-1.5c-8.276-7.821-7.942-15.154 1-22 9.331-.059 17.997 2.441 26 7.5l1-1a188.38 188.38 0 00-16-23.5 79.327 79.327 0 01-19-8c-7.824-4.461-9.657-10.628-5.5-18.5 6.925-6.853 13.592-6.52 20 1a231.83 231.83 0 017 25 97.85 97.85 0 0113 19c-.29-4.639-.79-9.306-1.5-14 .406-7.074 4.072-11.407 11-13 9.132.959 13.299 5.959 12.5 15a80.51 80.51 0 01-15.5 22 568.423 568.423 0 0113.5 25 205.59 205.59 0 01-1.5-15c-.962-6.244 1.372-10.744 7-13.5 12.33-1.335 17.497 4.165 15.5 16.5a123.609 123.609 0 01-15.5 21.5 459.844 459.844 0 0115.5 31.5 200.434 200.434 0 01-1.5-20.5c-1.376-12.615 4.124-20.115 16.5-22.5 15.685 3.034 20.685 12.034 15 27a148.791 148.791 0 01-13 16 89.736 89.736 0 00-11.5 11 2201.984 2201.984 0 0115.5 34 183.227 183.227 0 01-1-30c4.913-15.706 15.08-20.539 30.5-14.5 9.846 8.147 11.68 17.98 5.5 29.5a198.797 198.797 0 01-28.5 29.5 1348.538 1348.538 0 0016.5 38.5 177.022 177.022 0 015-40c5.125-14.479 15.292-20.646 30.5-18.5 18.38 7.802 22.88 20.635 13.5 38.5-13.043 12.376-27.71 22.376-44 30a113.033 113.033 0 007.5 21z"/><path fill="#2d6fd0" d="M357.5 296.5a90.583 90.583 0 002.5 9 194.514 194.514 0 0016.5 28 248.73 248.73 0 01-37 .5c-8.395-2.063-15.562-6.23-21.5-12.5a66.398 66.398 0 01-1-22c2.84-5.504 7.34-8.671 13.5-9.5 8.66-.5 17.327-.666 26-.5-.302 2.559.032 4.893 1 7z"/><path fill="#f68a79" d="M306.5 366.5a371.242 371.242 0 0126 37 385.129 385.129 0 01-31-15.5l-5.5-5.5a129.182 129.182 0 00-19.5-28 103.367 103.367 0 01-1.5-30 19.15 19.15 0 013.5-8.5c1.865-1.301 3.865-1.635 6-1 4.361 3.044 7.194 7.211 8.5 12.5-1.794 15.402 2.539 28.735 13 40 .399-.228.565-.562.5-1z"/><path fill="#e97161" d="M374.5 406.5c-.622 1.835-1.956 3.002-4 3.5-14.239 6.267-26.905 4.1-38-6.5a371.242 371.242 0 00-26-37c-.737-9.051.763-17.718 4.5-26 6.12-14.795 11.286-14.461 15.5 1a92.054 92.054 0 00-1.5 27 808.487 808.487 0 0011 30 540.203 540.203 0 010-32 61.653 61.653 0 015-14c4.344-6.764 8.344-6.431 12 1a66.749 66.749 0 01-.5 17.5 60.42 60.42 0 003.5 12.5 94.09 94.09 0 017 11 193.893 193.893 0 0111.5 12z"/><path fill="#bbcff9" d="M70.5 500.5h-1l4-36c-11.919-1.918-23.252-5.751-34-11.5-7.61-5.253-10.11-12.42-7.5-21.5 6.686-11.225 15.852-13.725 27.5-7.5 7.654 9.936 12.82 21.103 15.5 33.5a4694.81 4694.81 0 014.5-32 118.106 118.106 0 01-36-13.5 23.161 23.161 0 01-5.5-8.5c-1.745-7.064-.245-13.231 4.5-18.5 11.603-7.225 21.103-5.058 28.5 6.5a192.481 192.481 0 0110 25 347.266 347.266 0 014.5-27.5A180.56 180.56 0 0159 370.5c-5.894-9.422-4.06-16.922 5.5-22.5 8.174-2.17 14.34.33 18.5 7.5a662.786 662.786 0 005 19 1628.973 1628.973 0 004.5-25c-9.202-3.195-17.035-8.528-23.5-16-1.504-3.539-1.837-7.205-1-11 7.667-10.667 15.333-10.667 23 0 1.213 5.653 2.38 11.32 3.5 17a84.077 84.077 0 004.5-23c-5.255-3.251-9.922-7.251-14-12-1.373-2.195-1.706-4.529-1-7 4.53-7.088 9.863-7.755 16-2a83.717 83.717 0 012 14 254.653 254.653 0 015.5-18.5c-5.088-3.083-9.588-6.917-13.5-11.5-2.303-4.538-1.803-8.705 1.5-12.5 5.858-2.492 10.358-.992 13.5 4.5l1 11c4.794-9.396 6.794-19.396 6-30 .523-5.352 3.356-8.686 8.5-10 6.515.997 9.348 4.664 8.5 11-4.044 5.711-9.044 10.378-15 14-3.362 6.424-5.695 13.09-7 20 4.282-4.796 9.448-8.129 15.5-10 9.602 2.692 11.269 7.858 5 15.5-7.408 1.865-14.575 1.032-21.5-2.5a67.501 67.501 0 00-6 22 71.583 71.583 0 0111.5-8.5c4.293-1.202 7.793-.035 10.5 3.5 2.614 9.478-.886 13.812-10.5 13a55.47 55.47 0 01-14-2 258.102 258.102 0 00-5.5 27c6.3-6.893 13.8-11.893 22.5-15 4.208.233 7.708 1.9 10.5 5 4.233 8.635 2.066 15.135-6.5 19.5-9.326.502-18.326-.998-27-4.5a4.451 4.451 0 00-1.5 2c-1.675 9.742-3.342 19.409-5 29l15.5-15.5c8.587-6.488 16.42-5.655 23.5 2.5 4.192 9.997 1.358 17.164-8.5 21.5a101.883 101.883 0 01-31-2.5 123.855 123.855 0 00-5.5 32 134.656 134.656 0 0121.5-17.5c9.521-6.598 18.355-5.765 26.5 2.5 6.208 12.377 3.041 21.543-9.5 27.5-13.667.799-26.834-1.367-39.5-6.5a185.934 185.934 0 00-5 34A148.727 148.727 0 0199.5 441c12.924-6.803 22.424-3.637 28.5 9.5 1.402 9.812-2.432 16.646-11.5 20.5-14.114 1.343-27.78-.491-41-5.5a2211.054 2211.054 0 01-5 35z"/><path fill="#93b0e2" d="M194.5 416.5a54.483 54.483 0 014-11 120.678 120.678 0 01-8.5-10c-.621-6.378 2.212-8.878 8.5-7.5l2.5 2.5 1 8 4-8a36.15 36.15 0 013.5-14c3.54-2.856 6.706-2.523 9.5 1 .667 1.667.667 3.333 0 5a78.664 78.664 0 01-12 9l-4.5 9 1 1a33.902 33.902 0 006-3.5c5.682-.648 8.516 1.852 8.5 7.5-1.562 2.41-3.729 3.744-6.5 4a54.396 54.396 0 01-11-4 86.778 86.778 0 01-6 11z"/><path fill="#bacef9" d="M702.5 464.5a501.089 501.089 0 01-37-10 209.036 209.036 0 014.5-23c6.334-14.416 17.167-19.583 32.5-15.5 15.803 8.377 19.637 20.544 11.5 36.5a191.573 191.573 0 00-11.5 12z"/><path fill="#89b4fe" d="M504.5 415.5a1670.031 1670.031 0 0139 10 3087.004 3087.004 0 00-47 94 19.22 19.22 0 00-6 1 768.145 768.145 0 00-33-17 96836.179 96836.179 0 0147-88z"/><path fill="#1a1064" d="M518.5 424.5c4.714-.299 6.38 1.701 5 6-3.377 2.985-5.71 2.319-7-2 .252-1.573.918-2.906 2-4z"/><path fill="#110358" d="M563.5 428.5a4625.918 4625.918 0 0092 24 53.768 53.768 0 0010 2 501.089 501.089 0 0037 10 1666.705 1666.705 0 0039 10c-17.668 19.335-39.668 30.502-66 33.5a202.098 202.098 0 01-46.5 1.5 2503.535 2503.535 0 01-132.5 10 3087.004 3087.004 0 0147-94c.774-.647 1.774-.98 3-1a194.421 194.421 0 0017 4z"/><path fill="#90aee1" d="M194.5 416.5c-.131.876.202 1.543 1 2 4.957-5.134 9.79-5.134 14.5 0 .929 5.129-1.237 7.796-6.5 8a170.298 170.298 0 00-11-2.5c-2.659 5.31-4.492 10.81-5.5 16.5a168.466 168.466 0 0110.5-6.5c5.437-1.655 9.603-.155 12.5 4.5 1.011 4.649-.489 8.149-4.5 10.5-7.171.891-13.838-.609-20-4.5-3.289 6.365-5.455 13.031-6.5 20a40.616 40.616 0 0110.5-8.5c4.962-3.423 9.795-3.256 14.5.5 3.828 5.868 2.994 11.035-2.5 15.5-8.553 1.308-16.72.141-24.5-3.5-2.844 6.981-4.677 13.981-5.5 21 6.56-5.697 14.06-9.697 22.5-12 4.694.84 8.361 3.173 11 7 2.579 10.206-1.254 15.872-11.5 17a107.049 107.049 0 01-25-7 461.554 461.554 0 00-4.5 21 145.987 145.987 0 0117.5-10.5c14.38-1.4 19.38 4.767 15 18.5a2543.352 2543.352 0 01-38-3 304.556 304.556 0 01-21-12.5c-3.198-3.594-4.365-7.761-3.5-12.5 5.533-8.984 12.533-10.317 21-4a68.984 68.984 0 017 22l5.5-18.5a288.76 288.76 0 01-23.5-14.5c-2.156-3.762-2.823-7.762-2-12 4.979-7.49 11.479-8.99 19.5-4.5 4.341 6.853 7.008 14.353 8 22.5a683.496 683.496 0 016-17.5 119.908 119.908 0 01-14.5-11.5c-5.311-6.827-4.477-12.66 2.5-17.5 6.734-1.549 11.234.951 13.5 7.5l1 13a158.507 158.507 0 015.5-16 76.57 76.57 0 01-13.5-12c-1.457-2.866-1.79-5.866-1-9 5.663-6.676 10.996-6.342 16 1l1 12a356.934 356.934 0 015.5-14 45.055 45.055 0 01-9.5-10c-.412-7.081 2.754-9.415 9.5-7 1.501 3.594 2.501 7.261 3 11z"/><path fill="#bbcff9" d="M105.5 511.5c-11.58-1.752-22.58-5.085-33-10a116.329 116.329 0 0120-20.5c10.928-7.138 20.094-5.305 27.5 5.5 3.884 13.58-.949 21.914-14.5 25z"/></svg>