<svg width="168" height="187" fill="none" xmlns="http://www.w3.org/2000/svg"><rect x="48" y="48" width="96" height="89" rx="44.5" fill="#3F82D0"/><rect y="98" width="96" height="89" rx="30" fill="#01F0FF" fill-opacity=".92"/><rect x="24" width="48" height="44" rx="22" fill="#3F82D0"/><rect x="120" y="66" width="48" height="89" rx="24" fill="#01F0FF" fill-opacity=".92"/><path d="M91.32 133l-8.256-21.216H55.896L47.736 133H39l26.784-68.832h7.776L100.248 133H91.32zM72.792 83.368a94.116 94.116 0 01-.96-2.784c-.448-1.344-.896-2.72-1.344-4.128-.384-1.472-.704-2.592-.96-3.36-.32 1.28-.672 2.592-1.056 3.936a39.416 39.416 0 01-1.056 3.552 83.409 83.409 0 01-.864 2.784l-7.776 20.736h21.696l-7.68-20.736zm55.169-2.688c6.272 0 10.912 1.376 13.92 4.128 3.008 2.752 4.512 7.136 4.512 13.152V133h-6.144l-1.632-7.296h-.384c-1.472 1.856-3.008 3.424-4.608 4.704-1.536 1.216-3.328 2.112-5.376 2.688-1.984.576-4.416.864-7.296.864-3.072 0-5.856-.544-8.352-1.632-2.432-1.088-4.352-2.752-5.76-4.992-1.408-2.304-2.112-5.184-2.112-8.64 0-5.12 2.016-9.056 6.048-11.808 4.032-2.816 10.24-4.352 18.624-4.608l8.736-.288V98.92c0-4.288-.928-7.264-2.784-8.928-1.856-1.664-4.48-2.496-7.872-2.496-2.688 0-5.248.416-7.68 1.248a50.44 50.44 0 00-6.817 2.688l-2.591-6.336c2.24-1.216 4.896-2.24 7.968-3.072 3.072-.896 6.272-1.344 9.6-1.344zm2.496 27.456c-6.4.256-10.848 1.28-13.344 3.072-2.432 1.792-3.648 4.32-3.648 7.584 0 2.88.864 4.992 2.592 6.336 1.792 1.344 4.064 2.016 6.816 2.016 4.352 0 7.968-1.184 10.848-3.552 2.88-2.432 4.32-6.144 4.32-11.136v-4.608l-7.584.288z" fill="#fff"/></svg>