<svg width="600" height="265" fill="none" xmlns="http://www.w3.org/2000/svg"><g clip-path="url(#clip0_472_169)"><path d="M8.792 108.508l13.037-39.007 13.038-21.663 23.901-13L80.51 21.834h26.083l23.904 6.501 15.219 6.505 17.383 19.503 15.215 26.009 10.871 28.164v30.343l-10.871 26.008-15.212 25.998-21.737 10.835-17.383 12.999-17.386 4.334H87.042l-17.386-4.334-10.87-12.999-15.212-4.334-17.396-13.017-13.034-23.834-6.52-28.168 2.168-23.838z" fill="#fff" stroke="#000" stroke-width=".696"/><path d="M166.458 132.325c.914 1.094 2.287 1.595 3.36.893 1.941-1.296 2.248-.318 1.959 2.241 1.221-2.241 1.909-3.614 2.689-4.931.911-1.546 1.835-3.084 3.886-3.43a1.698 1.698 0 001.574-1.641c-.046-.893-.748-1.087-1.564-1.02-1.496.127.431-1.624-1.076-1.942-.692-.151.452-.508.748-.748 1.74-1.239 1.97-1.959 1.105-3.939-.24-.557.183-.815.459-1.154 1.874-2.16 2.989-4.475 1.941-7.404-.374-1.049.06-1.49.96-1.25 1.345.318 1.316-.459 1.306-1.345.385.113.741.325 1.016.615.282.288.482.646.579 1.037.258 1.211-.155 1.719-1.673 1.221 3.17 2.986 3.734 6.53 3.494 10.405-.162 2.488-.257 4.938-1.496 7.175-.48.876 1.105.999.547 2.16a4.548 4.548 0 01-3.734 2.566c.19 1.941 2.88 1.941 2.735 4.073-.085 1.193-1.14 1.751-1.391 2.76-2.647-.656-3.995 1.419-5.798 2.803a9.715 9.715 0 012.735.183c1.126.424 3.678-.48 2.612 2.46-.152.413.893 1.239 1.496 2.037-2.033.261-1.306 3.96-4.26 2.989-.116 1.285 1.257 1.447 1.246 2.421-.653.939-2.111 1.059-2.467 2.333-.106.328-.671.452-.152 1.048 1.419 1.624 1.172 2.421-.748 3.159-1.094.413-1.74 1.451-2.506 2.795-.353.646-1.5.819-2.315 1.222 2.527 1.538 2.47 9.031-.085 9.79-1.5.459-3.141.671-4.733 1.19 1.401.405 2.937.423 3.847 1.789-.169.988-.967.124-1.496.413-.748.392-1.497-.06-.692 1.341.752 1.225 1.719 3.459-1.564 2.99.156.917-2.237.077-1.129 1.969 1.024 1.779-.222 3.258-2.587 3.565-.296.049-.536.127-.586.3-.575 2.075-3.049 3.236-2.735 5.964-.854-.702-.286-1.623-.748-2.237-2.446 1.595-4.705 3.91-8.072 2.64-.519-.191-.643 0-.808.3-1.045 1.719-3.54 1.595-4.483 3.727-.459 1.027-.748-1.25-2.065-.431l-1.447 3.671c-2.41-2.04-3.42-1.963-5.424.381-.501-.452-.692-1.235-1.44-1.422l-.261.317c1.305 1.133.049 2.421-.498 2.238-2.072-.586-2.093 1.154-2.39 2.029-.808 2.439-3.85 3.505-3.811 6.378-2.171 0-2.841 2.315-4.599 2.989-.748.297-1.246-.201-1.67-.585-.931-.837-1.757-1.786-2.795-2.895-.402 2.182.261 4.334-.325 6.399-1.305.251-.808-1.535-1.835-1.584-.593.54-.056 3.423-2.11 1.058-1.987 2.986-3.043.452-4.405-.713-.837-.709-1.133-.353-1.885 2.295l-2.58-3.361-.914 3.823c-1.207-.812-1.602-2.132-2.361-3.533-.798 2.495-2.852 4.475-4.857 3.84-1.796-.554-4.666 2.612-5.28-1.373-1.34.289-1.284 2.76-2.611 1.969-1.87-1.115-5.633-.451-4.483-5.283l-3.102 3.977c-.614-.892-.056-2.392-1.073-2.594-1.016-.211-1.496 1.095-2.142 1.751a1.52 1.52 0 01-.883.519 1.467 1.467 0 01-1.006-.177c-.617-.257-.826-1.757-2.142-.342-.625.653-.452-1.327-1.084-1.867-1.026.049-.564 1.489-1.796 1.729-.625-2.103-.116-4.302-.247-6.713-1.567 1.363-2.442 3.918-4.285 3.477-.967-.223-3.868-.353-3.06-3.494-2.142 1.669-2.806 1.189-3.688-.897-1.793-4.274-5.859-6.512-9.445-9.106a1.324 1.324 0 00-.751-.3 6.113 6.113 0 01-5.683-3.727c-.893 4.101-2.87 1.758-4.588.971.155-1.239-1.172-.988-1.641-1.595-.97-2.238-3.734-2.478-4.984-4.476-.162-.268-.459-.3-.593 0-1.164 2.873-2.583.201-2.784-.24-.749-1.644-2.478-.988-3.629-2.047-3.282-3.028-4.983-7.147-7.94-10.348a1.469 1.469 0 01-.213-.614 1.518 1.518 0 01.089-.653c.653-1.489.748-2.566-1.229-2.989-.324-.075-.847-.72-.797-.989.586-2.65-1.42-5.266-.085-7.906.374-.751.519-1.567-.318-1.828-1.563-.497-1.965-2.132-3.282-2.929-2.594-1.585-3.688-5.061-2.87-8.118.057-.222.075-.459.114-.692-2.234 0-2.093-2.315-3.255-3.282-.882-.752-1.122-1.024-.172-1.722.345-.262.988-.558.748-.999-1.341-2.393 1.171-2.287 2.054-3.424-1.581.244-4.03-.61-3.706-1.313.752-1.489-.325-2.622-.17-3.917.286-2.393 2.687-1.253 2.948-2.76-3.064-.932-3.283-2.083-1.423-4.776.413-.557-.353-2.082-.847-3.053-.152-.3-.67-.751-.61-1.03.794-3.727-.3-7.465.536-11.188a21.31 21.31 0 016.201-10.878c-.97-.184-1.796-1.864-1.496-3.095 1.719.176 1.719.176 3.886-.953.519 1.023-.893 1.493-.7 2.54h4.448a28.98 28.98 0 00-7.472 5.599c-1.496 1.567-3.215 3.96-2.516 5.371 1.126 2.294-.748 3.364-.748 4.966 0 .653-1.229 2.75 1.4 1.885.474-.155.848 1.341.749 2.093-.318 2.181.413 3.727 2.036 5.227 1.133 1.076 1.222 2.986 1.257 4.553 0 .953-.124 2.125.752 2.365 3.635.953 2.1 4.062 2.089 5.897 0 4.44 1.835 7.744 6.328 9.205a.889.889 0 01.643.173c.177.14.297.341.335.565.374 2.7 1.987 2.788 4.101 2.001-3.102-1.048-3.515-1.885-1.228-3.847 1.641-1.419 1.373-2.887 1.341-4.476-.035-3.148-.074-3.225 3.254-3.564 1.903-.18 3.477-.593 4.186-2.669.268-.818 1.172-1.048 2.065-.712 1.68 3.882 4.87 6.677 7.92 9.254 1.496 1.217 4.235 1.447 6.872 1.786a6.327 6.327 0 013.832 1.912c.653 2.708 2.708-2.527 4.56-3.977a2.525 2.525 0 012.686-.155c.223.194.749.518.749.808-.929.413-3.36 7.041-3.318 8.206.074 1.803 0 3.61-1.673 4.831a.952.952 0 00-.297.286.809.809 0 00-.134.389c.297 3.37-2.41 3.656-4.57 4.157-1.853.431-3.043 1.25-3.685 3.025-.3.836-1.094 1.422-1.673 2.118-1.623 1.941-.847 4.514 1.634 4.81 1.66.201 1.9 1.059 1.941 2.326.085 3.025 1.18 5.764 2.365 8.492a5.564 5.564 0 001.941 2.237c1 .752 2.767.971 1.814 2.923-.151.296.223.797.52.875 2.237.614 2.47 2.852 3.592 4.352 1.257 1.652 2.824 3.522 5.45 2.237.557-.282.931-.077 1.5.163 3.109 1.405 5.978 3.459 9.857 2.237 1.497-.469 2.333 1.825 3.322 2.912 2.054 2.238 2.428 2.439 4.694.547.451-.374 1.27-1.189 1.422-.279.49 2.99 3.812 2.499 5.04 4.977 1.168-2.986 2.206-2.015 3.434-.459.971 1.228 2.181 1.49 3.42.085 1.341-1.49 2.781-1.987 4.281-.095.187.266.447.474.748.596a1.7 1.7 0 00.953.106c2.683-.953 5.979-.424 7.889-3.258.155-.222.289-.501.536-.596 3.995-1.44 5.319-5.224 7.295-8.386.084-.19.21-.359.367-.494.154-.134.338-.229.537-.276.198-.048.403-.054.603-.017.205.035.396.123.558.24.635.748.251 2.082 1.497 2.488a5.907 5.907 0 01-1.497-2.414c-.078-1.902 1.535-1.864 2.69-2.389 1.15-.519 2.668-.706 1.496-2.538a3.73 3.73 0 012.238-2.75c2.551-1.217 5.04-2.583 4.482-6.137a1.313 1.313 0 01.134-.911c.156-.279.414-.486.72-.579.078.02.153.049.222.089.057.046.075.151.113.218.597-1.92 2.047-3.487 2.249-5.562 0-.183 0-.469.084-.519 3.516-1.613.749-3.282.05-4.937a2.33 2.33 0 010-1.846c.217-.491.3-1.031.24-1.564a3.043 3.043 0 00-.565-1.482 3.725 3.725 0 011.122-4.888c.555-.396 1.603-.565 1.257-1.451-.353-.882-1.422-.459-2.178-.508-1.171-.134-1.99-1.26-3.247-1.183-1.105-.748-.113-2.029-.692-2.922-.536-1.39.078-2.668.413-3.978a10.155 10.155 0 013.812-1.863 12.069 12.069 0 005.404-1.161 12.115 12.115 0 004.313-3.459c1.066-1.249 2.467-2.132 3.282-3.727.519-.971 1.161-1.73.893-2.912a2.405 2.405 0 01.596-2.478c.297-.3.89-.712.431-1.076-1.691-1.316.173-2.114.353-3.152-.106-1.489 1.048-2.527 1.5-3.833a.804.804 0 01.671-.19c.162.797.748.635 1.334.624.931.749.518 1.864.596 2.753.24 3.29.748 3.893 4.26 3.826.925 0 1.617-.116 1.557 1.087" fill="#AEB0AC"/><path d="M172.468 78.448c-.452-.247-1.316-.49-1.341-.748-.212-3.882-3.364-4.341-6.078-5.026-1.422-.353-.222-.653-.3-.999-.151-.854-.317-1.885-1.546-2.153a28.364 28.364 0 01-2.929-.988c.752-.424 1.874-.452 1.5-1.662a1.824 1.824 0 00-.653-.981 1.892 1.892 0 00-1.122-.385 13.495 13.495 0 00-5.637.519c1.585-1.567 3.572-2.852.318-3.727a.524.524 0 01-.374-.329.543.543 0 01.084-.497c1.624-2.026.061-3.565-.917-5.033-.522-.752-1.165-.953.152-1.567.748-.346.247-1.589-.247-1.864-3.219-1.79-4.938-5.898-8.895-6.265-3.232-.317-6.575-2.498-9.981.297 1.401-4.253.932-8.086-2.41-10.595-2.986-2.238-6.653-3.727-10.85-2.99 1.74-2.16.876-3.042-3.836-4.2-.865.674.861 1.098.19 1.761-3.617-1.489-3.617-1.489-3.734.788-2.421-3.957-6.91-4.102-9.974-6.572 3.561.473 7.468-.586 10.818 3.43-.519-2.054-.805-3.13 1.27-2.294 3.883 1.585 7.899 2.824 11.884 4.207 1.073-.29 1.546.576 2.149 1.183a459.147 459.147 0 005.436 3.32c3.455 2.136 6.843 4.363 10.634 5.902.392.152 1.044.586 1.006.748-.643 2.884 1.8 2.834 3.363 3.53 1.564.677 2.982 1.34 3.138 3.3 0 .183.035.367.116.529.082.166.2.31.346.423.142.114.309.19.487.223.179.037.365.03.54-.021.221-.067.453-.086.681-.057a1.558 1.558 0 011.151.692c.132.191.223.407.268.635.261 2.92 2.824 4.398 3.964 6.741.568 1.144 1.824 1.405 2.919 1.963-1.268.804-2.916.748-3.83 2.39a9.106 9.106 0 016.798 2.24l.48.586c0 1.447-.039 2.813 1.659 3.583.797.346.691.596.24 2.237-.219.865 1.154.752.96 1.589-.826 0-1.613-.752-2.647-.184a15.332 15.332 0 015.124 4.235c.653.854.565 1.45-.286 2.02" fill="#ADB0AD"/><path d="M60.388 43.63a1.781 1.781 0 00-.699.636c-.176.27-.275.582-.286.903-.176 2.238-.127 2.266-2.41 2.535-.247.751.871 1.193.451 1.997-1.835-1.19-3.62-1.863-5.04.558a1.61 1.61 0 01-.603.713 1.743 1.743 0 01-.893.279c-1.902.074-2.583 1.104-1.97 2.89.269.748 0 1.539-.652 1.384-1.698-.413-2.245 1.92-4.108 1.422-1.172-.318-.28.988-.135 1.528.173.67.749 1.324.096 1.998-.653.67-1.084-.3-1.642-.346-.557-.05-1.27-.088-1.902-.116a2.188 2.188 0 00-2.294 1.164c-.487 1.094.575 1.564 1.172 2.16.328.297.67.565 1.027.816-1.613 1.489-3.484 1.722-5.375 1.923.2.883 1.422.921 1.429 1.959L32.4 69.148c1.496.893 3.05.508 4.299 1.977-4.818-.844-8.792-.18-10.924 4.574.653.24 1.959.039 2.88.875-.106.085-.201.258-.296.258-5.683 0-4.705-.47-6.953 5.372-.537 1.383-.748 2.862-2.033 3.882-.519.423-1.299 1.165-.452 2.315.72.932.43 2.238-.501 3.13-2.301-2.12-1.246-4.686-.593-6.963.536-1.863 1.793-3.53 2.802-5.227 1.01-1.701 2.69-2.99 1.641-5.223a1.266 1.266 0 01.452-1.193c3.187-1.327 3.283-4.63 4.532-7.14 1.15-2.294 3.226-3.505 5.174-4.85.893-.624 1.941-1.07 2.407-2.068.932-1.976 3.995-1.15 4.532-3.565l1.239.883c-.48-3.685 2.795-5.743 3.41-8.95.18-1.01 1.496-1.307 2.678-1.406 2.33-.18 4.701-.448 7.207-2.188h-3.416c1.835-1.539 3.991-1.422 6.218-1.528 1.613-.078 2.894-.222 3.65 1.49" fill="#AEB0AE"/><path d="M70.701 29.682c1.27.893 2.556.22 3.936.135-1.246.871-1.624 2.851-3.791 2.555-.748-.096-1.701.815-1.496 1.25.86 2.237-1.24 2.187-2.093 2.487-1.977.7-3.12 1.91-3.382 3.883-.247 1.966-1.4 2.516-3.06 2.64-1.5-1.059-2.858-2.287-5.234-3.163l2.584-.2h1.044c-.748-1.077.435-1.384.692-2.016 1.998-4.998 7.027-5.372 10.84-7.542l-.036-.029H70.7zm48.883 133.087v6.717c-2.072-1.807-4.483-.519-6.519-1.249a2.443 2.443 0 00-2.746.596c-.625.565-1.094.653-1.497-.106-.395-.748-.748-.49-1.21-.123a6.675 6.675 0 01-3.233 1.641 6.655 6.655 0 01-3.621-.318.767.767 0 00-.53-.007.74.74 0 00-.402.335c-2.132 2.556-4.214.385-6.258-.155-.317-.078-.402-1.083-.748-2.075-1.535 1.757-3.141 2.082-4.782.586-.487-.452-.861-.547-1.228.176-.297.582-.865.748-1.313.219a2.727 2.727 0 00-1.44-.971 2.667 2.667 0 00-1.73.106c-1.976.876-4.33-.787-6.279 1.624-.084-2.238-.748-4.006.893-5.418 2.277 1.151 2.44.988 3.064-3.423.692 1.094.593 2.943 2.072 2.693a4.212 4.212 0 002.908-1.635c.624-.875 2.237-.914 2.393-2.431.151-1.112-.1-2.354 1.023-3.6.25 2.35.156 4.475 1.126 6.416 1.373-.452.97-1.853 1.719-2.778 1.977 2.104 2.88 5.542 6.424 5.228 1.073-.096 2.675-.615 2.611-2.489.17.777.389 1.557.65 2.316.039.151.112.292.211.413a1.078 1.078 0 00.837.374c.152 0 .318-.046.448-.113 1.998-.883 5.781-.636 7.673.257 1.715.809 3.417.837 4.599-1.048 2.245 1.366 3.36-.074 4.327-1.814a.279.279 0 01.116-.071c.046-.007.085-.017.135-.007a.505.505 0 01.123.05.21.21 0 01.088.106" fill="#ADAFAD"/><path d="M119.065 109.479c-.152 2.019 2.17 4.2-.381 6.236l1.641-.808c-1.345 1.694-1.673 3.057.084 4.151-.652.653-.384 1.623-.652 2.237-.826 1.942-.615 3.163 1.341 4.296.896.518 1.069 2.438.674 3.536a3.134 3.134 0 00.374 1.881c2.411 2.884 4.023 6.494 7.623 8.301.816.353 1.68.586 2.573.671 1.67.282 3.438.551 2.679 3.057-.335 1.104 1.105.988 1.391 1.718-.403 1.222-1.419 1.539-2.541 1.656-1.567.211-3.159.624-4.543-.6.219-2.753-2.717-2.658-3.907-4.204a8.117 8.117 0 00-4.129-2.834c-2.294-.568-1.977-3.431-4.137-3.942-.353-.074.989-.106.847-1.384-.338-3.053-1.683-4.754-5.318-5.418 1.694-.67 2.943.653 3.54-.67.434-.971-.558-1.366-1.144-1.895-.381-.353-.212-.805-.152-1.267.374-3.258-.374-6.551 1.257-9.848.49-.998.797-2.834 1.27-4.274.297-.97.862-1.02 1.638-.653" fill="#AEB0AE"/><path d="M85.955 139.472c.031-.248.12-.485.258-.692.145-.205.336-.373.558-.491 1.553-1.306 4.07-.24 5.375-2.16.635 1.846 2.813.452 3.66 2.143l.392-2.69c.893.152 1.154-.642 1.634-1.104.575 1.143 1.63 1.602 2.763 2.015 1.13.413.625-1.123 1.497-1.024.183 1.151 0 2.072 1.881 2.686 1.885.618 3.169 3.23 3.459 5.746-1.154.078-1.719-2.238-3.141-.748-1.942-2.164-4.8-.223-7.024-1.49-.752-.434-1.75.855-2.594 1.087-1.27.346-1.5 3.343-3.66 1.44-.297-.268-.688.47-.748.893-.134.855-.173 1.719-.247 2.584-1.54-.297-1.2-1.719-1.977-2.795-.695 2.71-2.852 3.363-5.234 4.362.318-1.345 1.641-1.846 1.419-3.113-.91-.748-1.602.798-2.764.424 2.093-2.058 4.6-3.777 4.426-7.073" fill="#ADB0AD"/><path d="M119.026 106.73a5.984 5.984 0 013.342-1.486 3.24 3.24 0 01.999 2.075c-.748.882-1.535 1.669-1.623 2.929 0 .519-.375 1.211-.865 1.19-.748 0-.748-.816-.833-1.419-.088-.6.318-1.56-.914-1.489-.346-.586.596-1.25-.106-1.8z" fill="#B8ABB2"/><path d="M76.825 173.598c4.058 3.727 8.075 7.542 13.048 10.048.152.078.384.166.452.3.794 2.054 2.272 2.238 4.192 1.758a1.647 1.647 0 011.324.155 1.547 1.547 0 01.73 1.126c.318 1.531.654 3.423-.938 4.157-2.372 1.084-4.56 3.322-7.624 1.977-.893-.392-1.2.79-1.92.97-1.267.3-2.84 1.193-2.467-1.422-1.316-.113-3.091 3.035-3.917-.519a.432.432 0 00-.106-.067c-.036-.007-.074-.017-.124-.007-3.176 1.624-5.29-1.306-7.966-1.828-.24-.035-.519.134-.752.205-1.168-.752-1.545-2.99-3.811-2.002-.18.078-2.033-1.267-1.793-2.795 1.496-2.449-1.613-3.169-1.987-5.312 2.17 1.536 3.628 3.727 6.279 3.862 1.4.077 3.176 1.489 3.61-1.384.113-.748 1.497-1.641 2.39-1.084 1.044.699 2.093.382 3.12.593.748.156 2.3.502 2.011-.162-.631-1.422 1.55-2.756-.236-4.023a26.022 26.022 0 01-3.36-3.057c-.374-.374-1.094-.914-.124-1.489" fill="#B0AFAE"/><path d="M112.02 179.718c.47 1.422-.854 3.363 2.118 3.977 2.001.424-1.045 1.239-.671 2.238.078.095.251.346.29.339 2.364-1.317 5.174-.05 7.545-1.317a1.028 1.028 0 011.271.096c1.765 1.881 2.308.586 2.76-1.345.452 1.341-.095 2.834 1.345 3.448-1.221 3.47-4.8 3.678-7.363 5.273a3.46 3.46 0 01-1.567.166c-.748 0-1.496-1.422-2.188.625-.448 1.341-2.245 0-3.455-.925.056 1.126.317 2.728-1.341 1.991-2.852-1.26-6.05-.876-8.845-2.203-1.955-.931-1.401-2.7-1.497-4.263-.095-1.567.883-1.768 2.104-1.768 2.718 0 3.628-2.835 5.823-3.833 1.232-.547 2.393-1.702 3.639-2.538" fill="#AEB0AE"/><path d="M77.683 107.718c-.586 2.424 1.715 4.277 1.323 6.67.013.083.05.16.106.223a.423.423 0 00.19.141c3.177.317 2.506 2.71 2.411 4.803 1.133-.564 1.066-1.747 1.892-2.753.201 1.574.085 3.17-.318 4.694-.519 1.751-1.496 3.364-.97 5.471a2.33 2.33 0 01-1.056 2.686c-.301.176-.64.278-.988.3a2.47 2.47 0 00-1.987 2.986c.04.388-.07.777-.307 1.087a1.608 1.608 0 01-.953.603c-.843.117-2.167.625-.688 1.963.423.374.258.699-.837.893-3.571.596-5.548 3.053-7.4 5.869-1.095 1.645-2.987 1.115-4.706.865.184 1.489 1.366.882 1.942 1.316a2.717 2.717 0 01-.52 1.165c-.267.34-.614.61-1.009.787a2.674 2.674 0 01-2.474-.166 3.958 3.958 0 00-1.7-1.546c-1.056-2.421.702-6.12 3.253-6.437 4.059-.48 6.329-3.191 8.316-6.265 1.267-1.959 2.149-4.207 4.531-5.128.67-.261.487-.586.392-1.049-.162-.847-.508 0-.748-.084-.519-.099-1.2-.039-1.394-.6-.19-.554.377-.939.808-1.246.43-.318.798-.452 1.165-.681 2.011-1.345 2.071-1.751.247-3.247-1-.819-1.673-1.596-.798-2.99.748-1.189.116-2.612 0-3.776a7.543 7.543 0 01.748-3.805c.057-.074-.564-.219-.268 0a.234.234 0 00-.056.088c-.329 1.133-1.317 1.758-1.797.576-1.076-2.595-3.141-4.102-5.079-5.824a.902.902 0 01-.19-.748 14.37 14.37 0 018.908 3.134" fill="#B0B0AF"/><path d="M123.374 107.28a1.656 1.656 0 01-.999-2.075c1.606-.519 3.141-1.645 4.934-.646l-3.935 2.721z" fill="#AEB0AE"/><path d="M194.644 36.657c1.496 4.775.97 9.645 0 14.364-.452 2.234-2.584 4.33-1.987 6.713.748 2.99-1.285 3.66-2.69 5.372-1.881 2.238-3.656 4.158-6.529 4.899 0 .084.042.173.081.247.074.254.258.501-.155.752-2.143-2.333-5.04-2.99-8.047-3.477 2.41.988 2.057 4.045 4.034 5.273.077 0 .088.162.077.247-.155 3.261.173 4.482 1.966 7.67a.51.51 0 01.039.222c-.554.487-1.564-.547-1.853.48-.191.748.6.97 1.066 1.373 1.249 1.087 1.422 2.477 1.74 4.101.653 3.402 2.273 6.6 3.318 9.946.79 2.534 2.315 4.687 2.188 7.761-.071 1.786.875 4.814 3.275 6.176.24.128.494.233.748.3-2.167 4.14.106 7.052 2.884 10.444l-2.986-1.489c-.155 1.976.844 3.631 1.094 5.389-1.143.296-1.422-.988-2.393-.819-.43 1.624 1.165 2.612 1.5 4.017-1.126.575-1.765-.509-2.788-.48-.152 2.777.896 5.223 1.828 7.793.593 1.69 2.601 3.621-.155 5.294-.046 0 0 .162 0 .247-.297 3.536-1.758 7.013-.671 10.616.318 1.048-.328 1.066-.864 1.26-1.97.703-3.043 1.825-3.216 4.13-.194 2.611-2.248 4.574-3.466 6.811-.155.3-1.164-.797-1.697.396-.837 1.863-1.172 3.42 1.256 4.429-1.2 1.084-2.601.279-3.974 1.045 2.234 1.059-1.623 4.073 2.054 4.585-1.2 1.115-2.516.854-4.101 1.044 1.941 1.567 0 4.105 2.199 5.7a4.841 4.841 0 01-1.267.336c-2.686-.135-3.177 1.154-2.245 3.388.219.55.219 1.404-.413 1.193-2.841-.939-3.589 3.074-6.413 2.594-.519-.085-1.68 2.347-2.823 3.413-1.14 1.066 2.287 0 .653 1.306a13.418 13.418 0 01-2.312 1.383c-1.345.692 2.118.943.134 1.567-.882.173-1.775.247-2.679.219.597 2.238-2.919.124-2.372 2.266-.423-.988-1.602-.748-2.237-1.267-.424-.413-.516-.547-.928-.095-.752.893-1.021 2.989-2.986 1.355-.855 2.315-3.678 1.786-5.051 3.459l-.431-2.241c-.808 2.315-1.27 4.44-4.312 4.478-.113-.077.596-.847 0-1.489-.375.635-.749 1.193-1.017 1.758-1.027 1.969-1.736 2.237-3.6.787-.469-.353-.882-.487-1.023-.163-1.155 2.506-4.486 3.66-4.412 6.84.077 2.354-2.916 1.384-3.106 3.212-.184 1.641-.127 3.399-2.651 2.831-.501-.113-1.048.127-.999.646.353 3.832-2.985 3.017-4.637 3.035-1.412 0-2.785.48-3.89 1.362-1.831 1.317-3.684 2.527-6.046 2.626-.624 0-1.295.635-1.027-.798.117-.702-.864-.194-1.164.075-.861.836-1.61 1.761-2.301 2.527-2.104-1.342-4.532-1.296-6.96-1.045-1.172.113-2.429.402-3.4-.268-.423-.3-.151-1.349-1.295-.618-1.267.819-2.629.618-3.963-.247-2.238-1.444-4.666-2.672-6.921-4.105-1.553-.988-3.17-.596-4.744-.452a13.94 13.94 0 01-9.59-2.237c-1.87-1.211-3.416-1.673-4.676-3.96-.748-1.401-1.803-2.908-2.746-4.391a25.2 25.2 0 00-3.847-4.877c-.406-.375-.854-.791-1.22.045-.364.837-.919.932-1.105 0-.555-2.834-1.928-.892-2.81-.423-.752.395-1.193 1.271-2.132 2.287.798-2.986-1.21-3.889-3.282-4.888-1.288.875-1.5 2.728-2.238 4.39-.077-3.529-2.248-5.851-4.186-8.311-.931.653 0 1.394-.451 2.202-1.172-1.154-1.497-2.912-3.198-3.642l-.268 1.92c-.269-.18-.625-.286-.67-.47-.435-1.892-3.082-2.019-3.248-4.235-.095-1.384-2.33.106-2.742-1.846-.452-2.132-1.78.289-2.767-.049-.46-.643-.057-1.352-.124-2.026a6.534 6.534 0 00-.212-1.546c-2.516-.117-3.783-2.76-6.151-2.99-.67-.056-1.606.135-1.25-.681 1.535-3.529-.459-4.083-3.917-3.96 3.042-1.563.3-4.475 2.985-5.802-1.718-.424-2.985 0-4.164-1.006 2.84-.819.18-3.364 1.64-4.758-.747-.748-1.736-.19-2.526-.508-1.063-.423-3.05-.434-1.094-2.354.511-.501.752-1.624-.449-1.489-1.2.134-.875-1.405-1.817-1.317.557-2.432-1.401-2.421-2.841-2.929 1.25-1.779-2.39-2.164-1.14-3.96a.472.472 0 000-.23.43.43 0 00-.117-.201c-2.237-.999-1.496-3.582-2.763-5.072-.953-1.126.854-1.175.748-2.46-.297-3.363-1.758-6.494-1.641-9.886 0-1.164-2.238-.395-2.047-2.057.67-.519 1.539 1.443 2.075 0 .087-.189.124-.397.106-.604a1.334 1.334 0 00-1.165-1.26c-.381-.084-.805-.547-.219-.97 1.72-1.19 1.049-2.489-.151-3.343-1.377-.854-.491-2.506-2.171-3.554 3.925.318 2.69-2.537 3.36-4.073a3.629 3.629 0 000-1.923c-.882-2.488 1.496-4.525.748-6.936-.183-.596.078-.864.893-1.238 1.497-.653 1.719-2.556 1.63-4.045-.19-3.402 1.127-6.526 1.557-9.812a7.133 7.133 0 012.623-5.082c1.1-.893 1.39-3.784 2.428-5.63.219-.38.317-.953.642-1.171 2.39-1.642 1.341-4.476 2.41-6.629.453-.892-.317-1.489-1.365-1.316l-3.523.501a3.292 3.292 0 012.093-1.165c2.076-.38 3.967-2.985 3.84-3.504-.624-2.729 2.63-3.727 2.238-6.17-.134-.942-.865-.596-1.066-1.059-.826 1.024-2.54.424-2.87.752-1.976 2.083-3.387.078-4.81-.519a9.241 9.241 0 01-4.147-3.688c-2.237-3.381-2.841-7.465-5.27-10.705-.642-.854.269-1.785.248-2.784-.018-4.86-1.783-9.607-.91-14.517.133-.748-.114-1.623.246-2.393 1.567 0 1.75 1.25 1.645 2.242-.49 4.764 1.15 9.317 1.15 13.997a2.598 2.598 0 001.077 2.383c1.902 1.129 2.238 2.89 2.312 4.877 0 1.828.462 3.385 2.421 4.123a3.165 3.165 0 011.497 1.835 4.08 4.08 0 002.748 2.428 4.148 4.148 0 004.367-1.486c.999-1.193 2.407-1.49 3.483-2.237 2.037-1.433 4.973-1.271 6.353-3.727.452-.82 1.345-.752 2.125-1.01 1.959-.614 2.506-2.118 1.13-3.67-1.257-1.433-1.13-2.662.155-3.727 1.288-1.077 1.228-2.076.931-3.392-.289-1.327-.748-2.644-.49-4.024.25-1.387.854-2.27 2.199-2.425a2.618 2.618 0 012.802 1.684c1.567 3.254 1.588 3.176 5.234 2.478 2.686-.52 5.421-.156 8.139-.247.448-.03.897-.03 1.345 0 .748.07 1.853-.484 2.142.543.286 1.03-.787 1.55-1.606 1.857a18.263 18.263 0 01-5.23 1.249c-1.296.074-2.39.575-2.764 1.786-.646 2.019-2.036 3.678-2.594 5.619a5.093 5.093 0 01-2.803 3.363c-2.985 1.27-5.078 3.727-7.757 5.372a8.862 8.862 0 00-4.281 6.568c-.19 1.423-1.123 2.241-2.11 2.99-.643.5-1.66.92-1.497 1.764.487 2.993-1.72 4.807-2.88 7.073-.413.809-.854 1.589-1.27 2.393a8.166 8.166 0 00-.259 7.832c-.624 3.053-2.918 5.15-4.482 7.638 1.295 2.668 0 4.581-1.69 6.568-3.255 3.847-3.646 8.573-3.523 13.327.057 2.4-.05 4.87 1.084 7.165a1.985 1.985 0 01-.297 2.491c-1.165 1.211-.748 2.344.558 3.131 1.306.787.932 1.44 0 2.238-2.577 2.364-2.143 4.814 1.094 6.13 1.016.424.932.748.346 1.557-2.584 3.448-2.488 4.687.653 7.715.247.247.44.558.536.893.095.342.099.704.01 1.048a7.358 7.358 0 003.167 7.31c1.143.818 1.846 2.152 2.986 3.028a1.28 1.28 0 01.469 1.489c-1.218 2.323.261 4.61 0 6.907-.074.353-.035.727.116 1.066 2.891 4.362 4.186 9.625 7.804 13.507 1.959 2.083 4.638 3.057 6.77 4.853 3.733-1.154 5.018 2.075 7.065 3.939a4.501 4.501 0 001.853 1.641c1.228.646 2.418 1.384 3.512-.296.49-.749 1.01-.318 1.5.218 1.496 1.723 3.06 3.346 5.682 2.99.366.031.709.192.967.452 3.36 2.498 7.087 4.609 8.873 8.703.075.163.152.424.269.459 2.311.628 3.734 2.778 6.035 3.395 1.232.336 1.856-.893 2.612-1.644.451-.431.847-1.084 1.567-.749a1.414 1.414 0 01.71 1.642c-.703 3.19 1.563 3.614 3.733 4.256.876.251 1.67.748 2.541 0 1.049-.893 2.118-1.941 3.424-.296a.478.478 0 00.399.151.385.385 0 00.204-.084.632.632 0 00.142-.177c1.764-2.312 2.393-.748 3.314.819.642 1.105 2.495 1.923 3.254 1.489 2.88-1.623 5.612 0 8.4-.183a3.99 3.99 0 002.936-1.719c1.458-2.354 2.436-1.987 3.59.596.748-2.064 1.496-3.112 3.187-1.154.932 1.087 1.93-1.602 3.226-.247.875.893 1.881 1.765 3.342.854.593-.374 1.401-.328 1.977-.818.748-.653 1.316-.219 1.852.377.223-.617 0-1.221 0-1.828.113-1.235-.458-2.908.671-3.565 1.295-.748 1.835 1.02 2.651 1.73a2.811 2.811 0 002.11.663 2.91 2.91 0 001.087-.335c.336-.181.63-.43.865-.731 2.012-2.689 4.595-4.966 6.085-8.04.797-1.651 2.986-2.057 3.437-3.998 1.871.998 3.466-1.19 5.319-.431.494.201 1.2.392 1.458-.222 1.316-3.053 4.906-2.835 6.91-4.882.922-.931 1.97-.967 3.216-.854 1.892.184 3.487-.748 5.033-1.757.593-.374 1.094-.971 1.899-.922.268 0 .261.597.54.258 1.401-1.669 1.821-4.158 4.482-4.775.96-.219 1.105-1.43.805-2.344-.452-1.422-.113-2.237 1.422-2.527 1.535-.286 1.941-1.172 1.341-2.583-.593-1.412-.353-2.153 1.338-2.026-.078-.406-.374-.3-.558-.374-.748-.357-2.103-.106-2.015-1.327.074-1.077 1.235-1.105 2.139-1.271a5.322 5.322 0 002.354-1.023 5.37 5.37 0 001.581-2.019 5.338 5.338 0 00.445-2.527 5.324 5.324 0 00-.809-2.432c-.942-1.44-.624-1.959.223-3.131 1.044-1.422 1.563-3.134 3.734-3.391.872-.106 1.306-.971.706-1.906a1.767 1.767 0 01-.314-.678 1.848 1.848 0 01.787-1.976c.953-.752 1.5-1.426.914-2.732-.378-.847.536-1.133 1.2-1.49a2.844 2.844 0 001.623-3.324c-.349-1.596-.935-2.99-2.922-2.99a4.45 4.45 0 01-1.871-.346c-.423-.201-.893-.804-.413-.967 1.497-.557 1.342-3.123 3.512-2.76a2.071 2.071 0 001.588-.201 2.048 2.048 0 00.978-1.249c.547-1.317-.049-2.026-.882-2.824-1.2-1.133-1.645-2.16.353-2.986 1.288-.54 1.623-1.623 1.835-3.028.515-3.554 1.401-7.041 1.066-10.683a10.83 10.83 0 00-.837-3.957c-.748-1.567-2.59-2.866-1.27-4.998.137-.24-.515-.691-.851-.988a8.301 8.301 0 00-1.87-1.087c-1.606-.692-2.471-1.306-.212-2.46 1.101-.565 1.906-4.927 1.179-5.93-2.33-3.246-4.003-7.136-8.217-8.604-.642-.222-2.47-.519-.748-1.92.593-.494.074-.953-.166-1.405-.459-.854-1.073-1.553-.374-2.7.702-1.15-.621-1.757-1.267-2.315-1.497-1.221-.928-1.976.328-2.756.078-2.316-1.902-3.113-3.254-4.335-1.355-1.217-1.362-1.122 0-2.16.374-.289 0-2.442-.671-2.989-1.394-1.115-2.075-2.287-.723-3.882 4.013-.374 4.408-.893 3.978-5.15-.156-1.486-.636-3.282 1.602-3.67 2.012-.343 3.734 1.366 3.734 3.635a20.28 20.28 0 01-.176 2.16c-.046.596-.293 1.345.561 1.606a1.455 1.455 0 001.659-.67c1.323-2.28 3.254-2.058 5.453-1.66 3.783.696 4.778-.257 4.482-4.09a4.211 4.211 0 011.422-3.883c2.513-2.064 2.986-4.81 2.803-7.806a51.905 51.905 0 010-6.237c.056-1.048.077-2.238 1.641-2.276h.039zm-144.142 7.04c-3.462.29-6.967-.536-10.46.915-1.691.71-3.093-.646-3.42-2.538-.287-1.623-1.024-2.912-2.764-2.4-1.624.459-1.497 2.083-1.246 3.466.19 1.154.44 2.287.748 3.413.106.24.162.508.162.777a2.026 2.026 0 01-1.228 1.884c-1.327.748-2.852 2.047.046 2.986.558.194 1.25.67.752 1.433-.752 1.13.074 3.282-2.238 3.388-1.5.078-2.823.283-2.986 2.203 0 .289-.508.815-.653.748-1.88-.49-2.852 1.087-4.13 1.567-1.965.748-3.673.988-4.98 2.986-.93 1.433-2.985.751-4.598.924-2.17.22-2.919-.751-2.986-2.788a1.878 1.878 0 00-.988-1.49c-3.734-.804-3.035-3.822-3.187-6.338-.078-1.126-.318-1.941-1.401-2.315-1.825-.653-1.998-2.238-2.054-3.727-.184-4.836-1.5-9.58-.971-14.45a1.557 1.557 0 00-.988-1.49c1.362-7.369 5.23-13.672 8.612-20.145.352-.67 1.083-.653 1.457-.893 2.037-1.299 3.187-3.364 4.783-5.354.649.078.247 1.094.497 1.79 2.037-4.024 5.845-3.805 9.477-4.257a39.872 39.872 0 0120.57 2.717c.433.184.75.788 1.065-.24.318-1.016.692-.49.865.156.105.635.423 1.217.882 1.659.47.438 1.07.712 1.708.78 3.187.374 3.621 3.056 4.56 5.329.3 2.29-.536 4.02-2.686 4.906a1.638 1.638 0 00-1.2 1.821c.046 1.02.593 1.25 1.497 1.49 2.763.751 2.87 1.305 2.47 4.295-.317 2.333-.494 4.613-2.95 6.197 1.814.749 3.812-.998 4.8.816a8.398 8.398 0 011.048 5.371 1.247 1.247 0 01-.434.375c-.172.088-.364.13-.558.123a7.442 7.442 0 013.89 2.661c.48 1.105 1.076 2.287-1.094 1.606-1.384-1.807-3.4-1.154-5.175-1.21a9.882 9.882 0 00-4.482.854h-.032zm144.142-7.04c-1.229.635-.943 1.785-1.027 2.851-.297 3.346.451 6.678-.173 10.08a4.46 4.46 0 01-1.719 2.736c-1.737 1.489-2.679 3.035-2.238 5.555.54 2.986-1.066 4.37-4.108 3.995a9.649 9.649 0 01-2.379-.452c-1.553-.614-2.651-.345-3.275 1.271a2.646 2.646 0 01-.537.833 2.366 2.366 0 01-.815.558 2.604 2.604 0 01-.971.194 2.397 2.397 0 01-.97-.202c-1.161-.405-.487-1.768-.353-2.749.258-2.065.826-4.179-2.238-4.793-1.669-.339-1.941.374-1.87 1.67.046.79.134 1.567.257 2.347.625 3.804-.96 5.262-4.733 4.351-.49.046-.748-.26-.864-.653 0-2.738-.519-5.18-3.166-6.716-1.172-.692-1.401-2.047-1.567-3.335-.279-2.083-.586-4.094-2.792-5.224-1.066-.55-1.228-1.761-.748-2.894 1.006-2.238-.29-2.46-2.019-2.372a6.42 6.42 0 00-1.603.247c-3.695 1.116-3.695 1.116-5.604-2.21a2.313 2.313 0 00-1.341-1.273c-2.527-.6-2.767-2.425-2.796-4.574 0-1.892-.518-3.727-.557-5.669 0-.652-.247-1.422-.999-1.443-.911-.035-.748.858-.826 1.422-.056.636-.056 1.27 0 1.906 0 1.641-.289 3.17-2.294 3.427-1.758.223-3.565.336-4.186-1.92-.297-1.076-1.257-1.49-1.941-2.192-1.43-1.489-1.236-2.594.695-3.458 1.744-.749 2.824-2.422 4.557-3.283 1.048-.522.751-1.962.751-3.028 0-2.241.219-4.39 2.764-5.333.332-.15.598-.416.748-.748.671-1.384 1.182-2.99 3.064-3.113 3.053-.222 6.113-.752 9.176 0 .942.201 1.122.865.748 1.641-.96 2.065.177 2.132 1.719 1.885a4.627 4.627 0 012.39.296c.575.223 1.26.681 1.623-.212a1.461 1.461 0 00-.67-1.87 2.62 2.62 0 00-.752-.328c-3.12-1.049-3.568-1.645-3.388-4.401.194-2.986 1.5-4.603 4.245-5.093.89-.152 1.765-.375 2.669-.48 3.176-.403 3.589-.152 3.734 2.989.056 1.228.487 1.652 1.68 1.316.342-.105-.099 0 .257-.077 5.817-.875 7.804.748 7.977 6.572.893.183.893-.682 1.295-1.095 1.987-2.068 4.687-1.789 5.983.805a6.086 6.086 0 002.791 2.834 3.649 3.649 0 011.673 1.518c.385.67.537 1.45.441 2.21-.116 1.905-1.401 2.068-2.763 2.346-1.366.28-1.606 1.218-1.567 2.457.077 2.241.635 4.479.296 6.716 0 .353.558.05.194.096-.077 0-.077-.075-.077-.22a2.85 2.85 0 012.047-3.133c1.401-.452 2.629.077 3.734 1.01 1.496 1.248 1.542 3.229 2.485 4.736 0 .547-.078 1.087-.096 1.623l.029.05zm.084-1.645c-1.295-.046-1.246-1.218-1.496-1.977a5.814 5.814 0 00-1.592-2.46 2.79 2.79 0 00-3.416-.642c-1.144.614-1.875 1.747-1.01 3.187.353.614.491 1.317-.353 1.49a.974.974 0 01-.406-.05.85.85 0 01-.346-.201.963.963 0 01-.24-.318 1.128 1.128 0 01-.095-.391c.134-3.057-.459-6.043-.635-9.05-.078-1.444 1.295-2.019 2.689-2.125.749-.056 1.998.297 1.804-.953-.163-1.122.826-2.657-.893-3.36-2.015-.808-3.78-1.75-4.186-4.256a1.524 1.524 0 00-.833-1.038 1.48 1.48 0 00-.671-.134 1.577 1.577 0 00-.663.173c-.865.519-2.605-.328-2.584 1.641 0 1.49-1.122 1.567-2.11 1.21-.988-.352-.999-1.178-.519-2.237.787-1.73-.932-4.63-2.813-4.775-1.5-.113-2.986-.692-4.482.088-1.97 1.045-2.577.173-2.45-1.79.163-2.727-.43-3.207-3.215-2.752-4.687.748-6.353 2.477-5.982 6.367.116 1.345.127 2.834 2.354 2.237 1.129-.296 2.234.671 2.629 1.49.392.815 0 2.104-.289 3.095-.24.748-.872.247-1.306-.06a4.462 4.462 0 00-3.014-.97c-1.066.098-2.167 1.22-3.187-.22-1.017-1.45.914-1.94.97-3.017-2.859-1.154-5.777-.078-8.647-.296-1.768-.134-2.986.557-3.141 2.516-.049.565-.247 1.21-.798 1.296-3.511.557-2.986 3.285-2.986 5.6.05 1.942-.218 3.414-2.484 3.728-1.825.26-2.171 2.806-4.37 2.806-.497 0-.218 1.616.703 2.142a3.986 3.986 0 012.153 2.834c.43 1.825 2.234 1.048 3.494 1.066 1.256.021 1.496-.97 1.609-2.065.155-1.239-.748-2.622.127-3.632.459-.508-.646-2.054 1.024-1.552.932.264 2.142.448 2.036 1.775-.219 2.46.692 4.832.576 7.263-.075 1.49.077 2.563 1.941 2.86a2.613 2.613 0 012.41 2.554c.074 2.8 2.418 2.358 3.36 1.571 1.497-1.27 3.082-.519 4.539-.808 1.468-.279 2.478 1.048 1.44 2.46-1.496 2.075-.67 2.986 1.25 3.882 2.329 1.056 1.429 3.459 1.853 5.224a4.45 4.45 0 001.68 2.93c2.569 1.817 3.483 4.047 2.763 6.9-2.238-.117-4.098-1.642-6.385-1.787-1.023-.05-.833-.999-.218-1.595a3.613 3.613 0 012.311-1.144 19.468 19.468 0 01-5.347-6.437c-.212-.392-.19-1.045-.519-1.228-2.813-1.567-3.924-5.026-6.988-6.304a7.48 7.48 0 01-3.734-3.226c-1.422-2.297-4.426-2.866-6.72-4.228-3.311-1.963-6.731-3.727-9.713-6.254-.24-1.27-.512-2.481-2.171-1.21-3.861-.647-7.429-2.19-11.078-3.51-.547-.183-1.296-1.305-1.698.319-.194.748-1.126.557-1.624.162-2.802-2.238-6.172-1.613-9.352-1.92-1.899 0-3.791-.078-5.718.046-.459.752 1.15 1.433.074 2.047-.822.459-1.564-.057-2.234-.547-.54-.392-.748-1.786-1.814-.498-.156.19-.749.085-1.049-.078-4.326-2.237-8.611-.494-12.825.392-3.06.653-5.912 2.241-9.014 2.93-3.223.953-5.93 2.922-8.813 4.553-1.42.8-1.871 2.357-2.39 3.73-.392 1.094-.748 1.588-1.835.748.222-1.545-1.158-2.7-.844-4.429.194-1.055-1.14-1.486-2.467-1.045-.967.353-2.312 1.39-3.02-.282-.559-1.323.747-1.486 1.59-2.012.848-.522 2.178-6.441 1.766-7.217-.449-.922-2.111-1.289-4.183-.932-.547-.816.286-1.645-.05-2.556-.423-1.154-.317-2.075 1.497-2.237 2.393-.166 2.02-2.799 2.986-4.257 3.064.749 1.154 3.209 1.5 4.8.95 4.02 2.012 8.047 2.245 11.944 3.734 1.327 5.358-2.047 7.786-3.957 1.25-.97 3.734-.578 3.437-3.211 2.602 1.923 4.529-1.017 6.893-.95 3.791.117 7.296-1.43 10.97-2.036.97-.163 2.544.882 3.282.123 2.65-2.495 5.933 1.45 8.026-1.383a2.43 2.43 0 01.999-.43c1.5-.453 1.556 1.44 2.65 1.432.036 0 .135.67.749.748 4.002.325 8.036.625 12.017 1.172 2.594.353 5.365.537 7.433 2.439 1.497 1.345 3.159.222 4.751.819a27.18 27.18 0 006.72 1.295c.586.078 1.92.184 1.613-1.641-.279-1.673 1.143-3.286 1.623-5.026 1.006-3.727 4.483-6.476 4.387-10.768 0-.752 6.424-3.537 7.402-3.727 2.841-.55 5.643-1.154 8.467-1.74 2.58-.52 5.375-.134 7.764-1.701.749-.46 1.624.413 2.563.458 3.215.138 6.282.752 8.294 3.77 1.69 2.516 5.153 2.69 7.126 4.899 1.623 1.835 4.348 2.689 4.874 5.477 5.336 2.534 3.459 7.906 4.56 12.028.519 1.892 2.121 3.689 1.249 5.895l.007.02zM38.753 47.492c1.835.078 2.365 1.327 2.421 2.739.057 1.411-1.239 2.082-2.372 2.018-1.567-.06-2.237-1.489-2.364-2.862-.19-1.645 1.231-1.712 2.315-1.895zm2.439 146.312c1.048-.435 1.641.592 2.495.794.155 0 .752.388.155.695a3.005 3.005 0 01-1.02.113c-.706-.374-1.57-.582-1.63-1.602zM191.294 24.713c.298.023.578.153.787.367.212.212.325.498.336.798.049.698-.435.893-1.028.893-.787 0-1.496-.318-1.362-1.222.057-.547.593-.836 1.267-.836zm-61.352 7.052a4.635 4.635 0 01-2.17-1.183c.49-.593.564-1.976 1.429-1.69 1.295.423.565 1.863.748 2.855l-.007.018zM76.825 173.598a8.395 8.395 0 01-1.853-6.516 32.894 32.894 0 013.12-11.506c-.046 2.986-1.39 5.782-1.123 8.789.135 1.154-.508 2.294-.074 3.614 1.264-.3 2.612.095 3.734-.328 2.718-1.017 5.174.458 7.754.575 1.123.049 2.249.55 3.389 0 .893-.402 1.5.078 2.142.685 1.624 1.553 3.388 2.46 5.548.921a2.9 2.9 0 011.836-.297c1.957-.06 3.89-.45 5.717-1.154 2.114-.692 4.483-1.623 6.904-.97a8.754 8.754 0 001.602.317c3.159.279 3.177.297 3.41-2.855 0-.815.24-1.624.691-2.315a.822.822 0 01.403.021.781.781 0 01.346.201c2.064 4.419 1.341 8.838-2.016 12.201a55.962 55.962 0 01-5.781 4.927c-2.467 1.941-5.23 3.53-7.468 5.788a5.1 5.1 0 01-2.446 1.084 1.859 1.859 0 00-1.401 2.036 2.547 2.547 0 001.235 2.496c2.478 1.489 5.471.819 8.008 1.99 1.324-2.054 3.819 0 5.51-1.641.748-.706 2.647.134 4.069-.522 2.181-1.006 4.687-1.419 5.637-4.094.116-.297.596-.343.97-.389 4.779-1.365 8.841-3.557 10.306-8.83.657-2.315 1.606-4.553 1.906-7.207 2.351 2.237 2.178 4.256-.3 7.81-1.585 1.193 1.151 3.392-1.024 4.44l-2.414 3.191c-1.937.056-2.986 1.489-4.182 2.728-3.236 1.44-6.731 2.496-9.66 4.476-3.311 2.181-7.024 2.661-10.624 3.508-1.588.374-3.303.134-4.754 1.189a.596.596 0 01-.268.166.7.7 0 01-.318.035.873.873 0 01-.307-.084.75.75 0 01-.24-.212c-2.467-2.527-5.48-1.49-8.4-1.133-2.918.353-5.548-.212-8.329-.671-2.354-.377-4.782-.974-7.21-.868-4.483.194-7.645-2.4-11.002-4.676.114-.239.285-.445.498-.6 2.11-1.151 3.459 1.097 5.29 1.221 2.39.176 4.645 1.567 7.162.953.18-.05.374-.124.519-.05 3.674 2.086 7.055.329 10.46-.815a2.86 2.86 0 001.547-1.038 2.807 2.807 0 00.564-1.778c0-1.13-.593-2.238-1.694-1.959-2.41.596-3.494-1.19-5.117-2.238a61.266 61.266 0 01-10.726-8.608c-.622-.614-1.497-1.048-1.592-2.097l.046.089zm-37.236-38.573c.671-.989 1.123-2.019-.317-2.651-.586-.261-1.613.046-1.497-.97.078-.809 1.094-.788 1.72-1.105.239-.136.47-.287.69-.452-.892-.865-2.353-.48-3.063-1.645.653-.653 1.603.117 2.411-.296-.798-.893-2.181-1.211-2.037-2.661 2.093-.346 2.986 1.221 3.985 2.537 1.497 2.104 2.435 4.553 3.512 6.886a21.53 21.53 0 007.376 9.512c.745.565 1.85.882 1.9 2.104-1.536.585-3.093 1.327-4.003-.943-.078-.201-.964-.335-1.25-.152-1.68 1.049-2.315-.395-3.063-1.27-.999-1.19-2.898-2.937-3.886-3.265l-.519-.152c1.207-2.491-3.215-2.989-1.94-5.495h-.019v.018zm117.586-6.929c.247.138 1.049-.458.749.346-.353.925-1.536.752-2.369 1.211.297.858 1.13.685 1.67 1.02.893.547 1.161 1.295-.127 1.535-1.889.346-1.687 1.288-1.229 2.728.375 1.155-.635 2.27-.892 3.212-1.006 3.427-5.549 3.526-5.979 7.137-.156 1.171-.713 0-1.077.049-1.016.134-2.34-1.221-2.986 1.017-.18.67-2.435.6-3.734-.096-.038-.262.025-.53.177-.748 3.166-2.365 6.381-4.659 8.294-8.329a40.583 40.583 0 002.146-4.931c.211-.709.751-1.228.97-1.941.636-2.315 2.171-2.891 4.349-2.238l.038.028zm1.447-3.832c1.5-1.642 3.565-2.016 5.637-2.277.97-.123 2.093.106 2.153-1.383 1.168 1.432 1.228 2.392-1.02 2.354-2.012 0-3.734.893-5.499 1.757-.452-.077-1.256.847-1.271-.451zm-23.551 25.171l2.562-1.327c.671 1.221-1.045 2.443 0 3.671.272.653-.074.752-.593.646.085-1.02-.54-1.444-1.383-1.589-.999-.18-.749-.787-.558-1.39h-.028v-.011zm-76.942-1.27c1.133-.237 1.536.974 2.411 1.224.085 1.324-1.366 1.998-1.765 1.719a2.341 2.341 0 01-.875-1.376 2.414 2.414 0 01.219-1.613v.049l.01-.003zm-1.545 8.467c.469-1.567 1.718-2.238.892-3.424-.278-.409 0-1.15.297-1.189a2.567 2.567 0 011.701.512c.519.43-.385.653-.402.97-.05 1.447-1.26 1.835-2.489 3.131zm80.435-4.207l.596-.646c1.585.67-.353 1.99.519 2.795l.893 1.49c-1.835-.346-2.315-1.959-3.025-3.131-.458-.748.597-.424 1.01-.48v-.028h.007zm-79.603-48.872c-1.835 1.698-4.147 2.449-6.458 3.169.564-4.044 2.167-4.824 6.459-3.169zm-6.402 3.12c-.808 2.082-2.45 3.363-4.32 4.401-.752-1.27-1.366-2.188.575-3.381a7.015 7.015 0 013.742-1.02h.003zm98.965 7.743l-1.991-3.282c1.719 0 3.321 0 3.177 2.552-.074 1.299.752 2.241 2.364.914l-1.27 2.082-2.28-2.266zm-30.395 48.353a.774.774 0 01-.459-.077c-.223-1.652-.194-3.494-1.606-4.627-.748-.618-.519-1.221-.586-1.857 0-.152.318-.519.459-.508.935.078.896.942 1.2 1.535.137.223.282.434.455.625l1.006 4.909h-.219l-.24-.045-.01.045zm28.298-51.741c-1.313-.434-1.881-1.606-2.601-2.636 2.121-.374 3.064.455 2.601 2.636zm-102.282.494c1.13 1.087.988 1.493-1.066 2.76.826-.748-.988-2.488 1.045-2.756h.021v-.004zm19.535 74.132c1.084.914 1.737 2.76 3.734 1.624.424-.24.95-.134 1.045.684.184.854.452 1.68.798 2.478l-.837.124c-2.59-.643-5.566-.586-6.72-3.728-2.495.692-2.986-2.332-4.962-2.756a2.997 2.997 0 01-.97-2.855 4.776 4.776 0 00-.587-3.911 7.108 7.108 0 01-.564-5.876c1.641 4.129.953 9.596 6.201 12.134.459 1.341 1.91 1.39 2.841 2.142l.021-.06zm-9.744-40.839c1.764-.751 3.158 1.084 4.867.749.48.518 2.237.317 1.066 1.807-2.249-.184-4.08-1.423-5.933-2.538" fill="#020203"/><path d="M125.393 119.711c.095-3.862 4.126-5.478 12.074-4.899-4.108 2.439-9.483.152-12.074 4.899zm7.775 3.381c-1.779 1.846-5.347 2.188-7.048.547a3.303 3.303 0 01-.748.088c-.597-.049-1.296-.06-1.334-.914a.739.739 0 01.116-.346.836.836 0 01.258-.258c.596-.317.96.248 1.341.509.243.155.289.586.423.893l-.035.028.046-.035c1.271 0 2.545.105 3.784 0 2.237-.223 3.829-1.49 4.002-3.731.155-1.786.999-1.959 2.449-2.015-1.087 1.863-1.835 3.727-3.254 5.234zm18.028-1.2c0-.893-1.404-1.01-1.125-2.058a2.355 2.355 0 00-1.267-1.652c-.749-.518.518-.296.222-.67-.028-.48-.078-.971-.117-1.49-2.707-6.9-7.941-10.683-15.042-12.183a9.887 9.887 0 00-1.976.388c-1.536-1.175-3.092-.6-4.659-.222-1.744.448-2.894 1.757-4.183 2.869a6.572 6.572 0 00-1.969 2.693c-.748-.194-.554-2.125-1.966-1.059l-.078.953a42.64 42.64 0 00-.451 8.203c0 .864.748 1.718.296 2.76-.91 1.969-.342 3.727 1.126 5.149a4.246 4.246 0 011.285 2.584 14.607 14.607 0 002.823 7.118 14.615 14.615 0 006.046 4.694c2.287 1.024 4.543 1.32 4.878 4.317.049.452.748.748 1.2 1.048 1.987.459 3.512-.854 5.23-1.383 2.93-3.191 6.876-5.563 8.104-10.098a6.45 6.45 0 01.893-3.469c.48-2.429-.491-4.995.596-7.388h.085a.834.834 0 000-1.132l.049.028zm-79.552 1.182c-.491.882-1.271.748-2.055.519v.028h-.098c-1.592 1.641-5.03 1.288-6.911-.575-1.496-1.49-2.199-3.325-3.303-5.315.931.451 1.92-.074 2.354 1.143 1.64 4.659 2.188 4.998 7.15 4.719.237-.01.473-.01.71 0l.049-.049h.05c.056-1.095.748-1.49 1.715-1.384.338.071.518.565.338.914zm-12.798-8.283c2.015.345 3.995-.078 5.982 0 2.983.105 5.654 2.516 5.506 5.47-2.608-5.343-7.938-3.056-11.488-5.47zm15.466 11.364a30.906 30.906 0 003.099-2.237c1.764-1.624 1.5-2.238-.749-3.247-.219-.096-1.736-1.059-1.323-1.49 1.313-1.352 1.641-2.576-.162-4.397l1.87.988c-2.87-2.026.558-5.012-1.045-7.292-.713 1.066.173 2.46-1.5 3.159-.48-3.505-3.14-5.224-5.71-7.031a.164.164 0 01-.088.029c-.029 0-.057 0-.085-.011a.215.215 0 01-.078-.046l-.056-.078h-2.718a21.507 21.507 0 00-8.361 1.853 21.567 21.567 0 00-12.777 20.693c.191 1.98.491 3.953.893 5.901l.152.883c2.584 4.256 4.8 8.83 9.717 11.029 1.066.618 2.428.395 3.455 1.271a.846.846 0 001.26-.099.802.802 0 00.162-.441c-.346-.325-1.662-.318-.596-1.144.625-.469 1.341-.748.931-1.595-1.048-2.238 1.497-2.661 2.048-2.689 4.556-.269 7.147-3.389 9.088-6.713.586-.971 2.841-1.723 1.814-3.615 2.69-.257 3.17-2.738 4.578-4.475-1.391 0-2.429 1.306-3.812.816l-.007-.022z" fill="#020203"/><path d="M152.291 132.48a1.353 1.353 0 01-.403-.896c-.01-.336.106-.664.325-.918.452-2.541 3.685-5.929 6.141-6.424-1.994.579-4.817 6.343-6.063 8.21v.028zm-58.8-8.4c-.576-1.323-1.822-2.891.653-2.831 2.036.046 4.185-1.348 5.982.749a5.353 5.353 0 00-6.586 2.054l-.05.032v-.004zm58.637-7.387c.671 1.722 2.686 2.142 3.523 3.805.391.79 1.267-.046 1.899-.318a9.043 9.043 0 018.724.434c.473 1.094.088 1.853-1.083 1.846-2.407.008-4.76.712-6.777 2.026 0 0-4.136 4.062-6.141 6.438a2.255 2.255 0 01-1.941-2.242c-.078-1.524-.452-3.081-.29-4.609.03-.294.105-.583.223-.854-.29-3.057.575-.244-.039-1.345-.247-.953-1.496-3.48-1.736-4.401a4.603 4.603 0 01-.251-1.694c.095-.911.353-1.698 1.496-1.814 1.5.282 1.691 1.74 2.439 2.689l-.046.039zm-66.173 22.779a24.587 24.587 0 01-22.309 10.165 4.713 4.713 0 00-.219-.424c1.295-1.429 3.36-.219 4.74-1.362a16.95 16.95 0 012.354-.749c7.917-1.913 13.15-6.776 15.918-14.375.41-1.708.66-3.459.745-5.223 1.595-2.125 3.247-2.884 5.848-4.257 1.285.162-.05 1.92-.353 2.577-1.97 4.157-6.233 13.351-6.724 13.694v-.046zm55.306 6.476c0 .156-4.609 2.69-6.353 2.894-4.609.336-8.968 1.024-13.45-.684a44.581 44.581 0 01-5.531-2.986c-.97-.551-2.647-2.718-2.199-3.681 2.093 1.606 6.067 4.15 8.542 4.994a20.06 20.06 0 0011.463 0c1.765-.519 3.589-1.44 5.587-1.285.748.046 1.92-.24 1.92.748h.021zm-71.442 1.345c-1.341 2.047-4.532 1.719-6.173 2.344-.97-.057-4.779-.953-5.53-1.49l-3.858-1.881c-4.3-2.834-7.998-6.198-9.713-11.241.374-.47.967-4.581 1.687-3.996a21.33 21.33 0 002.248 6.043 18.018 18.018 0 007.295 7.341 26.515 26.515 0 006.018 2.689c2.428.918 6.29.375 8.026.18v.011zm22.666-23.329c-1.775 2.096-2.47 4.863-4.37 6.871-1.563-1.987-.67-4.341-.892-6.529-.084-.997-.052-2 .095-2.989.97-2.192.97-2.192 2.919-.389 1.048.696 1.249-.247 1.814-.794 1.306-1.239 2.47-1.556 4.782-1.835.106.078 4.059-.653 6.731 1.553 1.623 1.32 1.8 1.292 2.675-.046.953.413.865 1.221.854 2.036-.074 3.622-.247 7.271.942 10.783 0 .67 0 1.341-.921 1.341-.875-2.132-1.775-4.253-2.612-6.395a11.056 11.056 0 00-4.404-5.527c-3.438-1.419-5.577-.749-7.25 1.567a2.59 2.59 0 01-.374.346l.01.007zM45.67 133.79c-.113.67-.336 1.256-1.161 1.27-1.066-2.058-2.093-4.133-3.188-6.169a7.607 7.607 0 00-3.857-3.636c-1.585-1.687-4.447-.988-5.827-3.091a.59.59 0 00-.223-.078.484.484 0 00-.229.028c-.999 1.645-1.941.752-2.188-.296-.297-1.239.854-1.92 1.97-2.121a13.317 13.317 0 017.429.423c.518.212 1.065 1.045 1.658.371.597-.671 1.987-3.103 3.082-3.967 1.009-.682 1.5-.106 1.764.751a4.44 4.44 0 01.081 2.93c-1.7 4.228-.836 8.252.749 12.257a1.372 1.372 0 01-.078 1.289l.018.035v.004zm-.134-.865c-1.698-1.172-1.822-3.258-1.96-4.836-.218-2.551-2.367-8.354-.917-10.969.448-.815 1.285-1.016 1.881-2.813.823-.752 1.765-3.095 2.14-3.212 1.121-1.786 2.801-2.986 4.32-4.418l-.05.049c1.796-1.758 4.235-2.238 6.459-3.162a13.452 13.452 0 015.83-.989 52.22 52.22 0 017.38.491c-.201 1.401-.822 1.267-1.535 1.987-4.617.222-9.935.925-14.061 3.431-6.625 4.023-11.407 14.717-9.014 21.953.335.998.508 1.584-.473 2.488zm22.923-28.43l2.17-1.422c7.469 1.249 12.816 5.421 16.437 11.894 1.105 1.963 2.093 3.978 3.12 5.965-.748.617-2.45-.748-3.042 1.75a11.057 11.057 0 00-.882-3.882 22.471 22.471 0 00-8.856-10.574A21.355 21.355 0 0069 105.064a1.327 1.327 0 01-.586-.537l.046-.032zm80.093 12.816c-.423-2.534-2.707-5.764-4.733-7.666-2.89-2.707-4.186-4.85-8.869-5.294-.223-.219-2.249 0-3.159-.18-.921-.184-.748-1.144-.635-1.645a24.953 24.953 0 015.491 0c1.447.374 2.87.836 4.264 1.376a43.177 43.177 0 015.174 3.967 6.578 6.578 0 012.389 2.852s1.2 1.941 2.238 3.727c-1.126.05-2.075 2.242-2.238 2.894l.078-.031zm-40.867 15.547c-1.931-4.2-.614-8.753-1.419-13.059a39.525 39.525 0 015.901-9.625c.318-.374 2.947-2.852 3.622-2.315.67.536-1.988 2.788-2.528 3.363a20.593 20.593 0 00-5.576 16.62c.155 1.691.614 3.364.932 5.026a.52.52 0 01-.201.18.537.537 0 01-.537 0 .73.73 0 01-.194-.19zm26.689-29.93c-.875.166.795 1.271-.473 1.327-1.496.078-5.152.156-6.423.597-1.497.077-3.272.642-4.874.815a20.791 20.791 0 01-3.572 1.07c-1.218.748-2.686 1.958-3.907 2.657-.558-.893-1.496-.593-.748-1.083 3.935-2.796 9.896-5.45 14.686-5.746 1.228-.078 5.357-.424 5.34.374l-.029-.011zm-26.689 29.93h.932c.932 4.062 5.844 8.576 7.076 12.162-3.476-2.46-7.172-7.147-8.555-11.079l.547-1.083zm42.364-2.22c.049-1.786.077-3.583.162-5.372.039-.833-.374-1.881.893-2.238 0 1.864 0 3.727.077 5.601 0 .816-.374 1.913 1.028 2.058l.077 1.804a20.743 20.743 0 01-10.856 13.489l-2.238-.078c-.296-1.697 1.669-1.316 2.139-2.315.67-1.401 2.019-2.188 3.063-3.226a18.722 18.722 0 004.61-6.381c.44-1.081.806-2.19 1.094-3.321l-.049-.021zm1.154-7.589v-1.154c.833.117 1.602.625 2.541.375a1.884 1.884 0 01-2.534.748l-.007.031zm-9.449 19.772c-.123 1.313-2.237 1.941-2.59 3.053-1.913-.325-3.332 1.74-5.308 1.087.162-.346.487-.423.649-.748.671-.378 1.5-.501 2.171-.875 1.736 0 3.487-1.366 5.082-2.489l-.004-.028zm8.295-12.183c.105 1.27.049 2.46-1.084 3.324.335-1.115 1.055-1.785 1.084-3.324zm-32.93 129.466c1.807.077 3.593-.343 5.351.896 1.563 1.105 6.402-.752 7.997-4.129a1.65 1.65 0 01-.098-1.176c.105-.395.352-.73.691-.953 2.524-2.622 3.283-5.964 3.734-9.402.558-4.479-.374-8.859-1.023-13.249 2.859 5.647 2.742 11.604 1.493 17.562a25.208 25.208 0 01-3.868 8.636c-2.986 4.479-5.047 4.959-10.193 2.99-1.271-.484-2.94 0-4.091-1.193l.011.018h-.004zm-18.198-9.787c1.296-.05.847-1.462 1.497-1.913.491-.346.671-1.546 1.595-.893.699.49.152 1.016-.183 1.567a5.683 5.683 0 00-.431 1.69c-.625.152-1.422.247-1.606.865-1.006 3.159-3.166 2.16-4.906 1.151-1.736-1.01-2.81-.565-4.182.653a25.594 25.594 0 01-9.995 5.668c-.52.155-1.045.289-1.497-.173 1.899-1.941 4.567-2.555 6.833-3.883 1.26-.748 2.584-1.341 3.438-2.477 1.63-2.16 3.522-2.612 5.626-.971 2.103 1.634 2.996.367 3.811-1.284zm-19.708 8.608l1.497.162a14.322 14.322 0 01-9.84 1.959c-1.39-.184-2.93-.346-3.512-2.037.268 0 .593-.056.787.057 1.927 1.175 1.853-1.055 4.482-.787a9.68 9.68 0 012.496.413c.423.077.836.205 1.228.374l2.862-.141z" fill="#219A46"/><path d="M128.922 243.904a1.7 1.7 0 01-.785-3.198c.222-.117.467-.184.717-.196a1.735 1.735 0 011.501.754 1.7 1.7 0 01-1.429 2.643l-.004-.003zm-4.009-13.97a1.69 1.69 0 011.059-1.567 1.73 1.73 0 011.856.367 1.698 1.698 0 11-2.4 2.4 1.653 1.653 0 01-.515-1.2zm-1.288 28.882a1.643 1.643 0 01-.943-.29 1.71 1.71 0 011.585-3 1.74 1.74 0 011.066 1.571 1.685 1.685 0 01-.491 1.207 1.56 1.56 0 01-.554.377 1.821 1.821 0 01-.663.135zm-3.41-11.866a1.696 1.696 0 01-1.2-2.912 1.749 1.749 0 011.864-.364 1.755 1.755 0 01.921 2.238 1.684 1.684 0 01-1.574 1.066v-.028h-.011zm-2.59 8.001c-.338 0-.669-.097-.953-.279a1.738 1.738 0 01-.632-.759 1.621 1.621 0 01-.095-.977 1.698 1.698 0 012.322-1.25c.312.129.579.346.769.625.191.277.292.606.29.942a1.675 1.675 0 01-.494 1.211 1.726 1.726 0 01-1.211.508l.004-.021zm-6.801-15.276c-.337 0-.666-.104-.943-.296a1.706 1.706 0 01-.672-2.005 1.709 1.709 0 011.044-1.037 1.701 1.701 0 011.462.16c.216.133.4.314.538.528a1.722 1.722 0 01-.159 2.102 1.73 1.73 0 01-.61.436c-.21.083-.435.125-.66.123v-.011zm0 10.455a1.665 1.665 0 01-.943-.297 1.715 1.715 0 01-.672-2.005 1.709 1.709 0 011.044-1.037 1.701 1.701 0 011.462.16c.216.134.4.314.538.528.185.278.286.604.289.939a1.714 1.714 0 01-1.718 1.662v.05zm-7.278-9.6a1.696 1.696 0 01-1.638-1.293 1.694 1.694 0 01.853-1.905 1.707 1.707 0 011.448-.067c.311.13.577.347.766.625a1.646 1.646 0 01-.219 2.131 1.704 1.704 0 01-1.2.495v.017l-.01-.003zm0 9.081a1.69 1.69 0 01-1.165-.425 1.692 1.692 0 01.837-2.939 1.741 1.741 0 011.757.72 1.653 1.653 0 01-.219 2.136 1.686 1.686 0 01-1.2.49v.018h-.01zm14.947-15.025a1.695 1.695 0 011.322.622 1.712 1.712 0 01.352 1.418 1.705 1.705 0 01-1.601 1.361 1.737 1.737 0 01-1.502-.761 1.732 1.732 0 01-.163-1.606c.083-.209.209-.398.371-.554a1.67 1.67 0 011.221-.501v.021zm-23.915 5.965a1.694 1.694 0 01-.325-3.364 1.741 1.741 0 011.758.72c.189.278.288.607.285.943a1.718 1.718 0 01-1.715 1.662l-.003.039zm0 9.088a1.71 1.71 0 01-1.308-.627 1.7 1.7 0 01.523-2.57 1.699 1.699 0 011.449-.068c.31.129.578.346.769.625a1.648 1.648 0 01-.233 2.121 1.74 1.74 0 01-1.2.48v.039zm-8.157.519a1.643 1.643 0 01-.942-.29 1.707 1.707 0 011.585-3 1.744 1.744 0 011.065 1.571 1.71 1.71 0 01-1.719 1.641l.011.078zm-2.718-12.113a1.688 1.688 0 011.06-1.567 1.734 1.734 0 011.86.363 1.698 1.698 0 01.376 1.855 1.69 1.69 0 01-1.577 1.047 1.734 1.734 0 01-1.605-1.066 1.609 1.609 0 01-.113-.671v.039zm-5.23 16.966a1.693 1.693 0 01-1.73-1.529 1.695 1.695 0 011.402-1.835 1.74 1.74 0 011.757.72c.19.278.29.607.286.943a1.718 1.718 0 01-1.715 1.658v.043zm-3.399-9.706a1.688 1.688 0 011.059-1.567 1.73 1.73 0 011.856.367 1.696 1.696 0 01-.702 2.853 1.697 1.697 0 01-1.158-.075 1.718 1.718 0 01-1.066-1.606l.011.028zm-3.399-13.624a1.699 1.699 0 01-1.607-1.005 1.705 1.705 0 113.26-.742 1.705 1.705 0 01-1.67 1.701l.017.046zm-1.027 25.031a1.7 1.7 0 01-1.644-2.035 1.705 1.705 0 01.864-1.16 1.7 1.7 0 012.5 1.494 1.721 1.721 0 01-1.72 1.659v.042zm-2.87-12.759a1.696 1.696 0 01-1.729-1.529 1.696 1.696 0 011.402-1.834 1.732 1.732 0 011.757.72c.19.277.289.606.286.942a1.72 1.72 0 01-1.715 1.659v.042zm9.753-9.349a1.693 1.693 0 01.324 3.363 1.74 1.74 0 01-1.757-.72 1.648 1.648 0 01-.283-.942 1.692 1.692 0 011.027-1.613 1.96 1.96 0 01.65-.145l.039.057zm56.262-2.478c-.335-1.489-1.401-2.46-2.312-3.586-.557-.681-2.986-2.834-3.688-3.448a2.251 2.251 0 00-1.419-.392c-.904.193-1.785.479-2.629.854-5.799 2.238-11.397 4.821-16.236 8.81v.095c-1.553.953-2.841 1.595-4.058.501a9.135 9.135 0 00-7.843-.519c-1.546.749-3.871-.123-5.107-.48-.826-.451-10.147-5.869-10.588-6.42a6.889 6.889 0 00-1.588-1.076c-2.14-.688-4.27-1.419-6.42-2.065-.749-.24-1.67-.547-2.312.117-1.719 1.74-3.6 3.727-3.734 6.07a6.52 6.52 0 01-1.8 4.105c-.247 1.267-1.313 7.895-1.447 8.905-.353 2.689-.325 5.4.931 7.906.654 1.433 3.177 6.504 3.897 7.464.29.24.653.318.942.519 1.814 1.232 3.389 1.588 4.483-.921.268-.614 2.84.519 3.59.815a4.309 4.309 0 002.84-.152 16.34 16.34 0 011.634-.892c2.92-1.366 6.152-2.337 8.411-4.67 2.012-2.086 3.73-2.912 6.423-1.193 1.765 1.115.89.597 1.935 1.26 2.114-.3 2.986-.166 5.318-1.316.932-.459 1.451.077 2.171.469 4.108 2.238 7.564 5.524 12.011 7.165 1.341.54 2.887.137 4.129.628 4.345 1.719 7.525.671 9.501-3.431a2.43 2.43 0 01.904-2.565c2.763-2.316 3.416-5.64 3.646-8.877a33.306 33.306 0 00-1.536-13.729l-.049.049z" fill="#219A46"/><path d="M267.639 125.718V104.82c4.782 0 7.171-1.825 7.171-5.478 0-3.342-1.824-5.011-5.47-5.011-3.65 0-5.502 2.294-5.552 6.896v52.013h-23.7v-49.553c0-5.132.519-9.35 1.546-12.625a25.442 25.442 0 015.28-9.176 29.681 29.681 0 0110.5-7.465 32.284 32.284 0 0113.02-2.739c8.093 0 14.887 2.732 20.4 8.178 5.499 5.446 8.255 12.19 8.255 20.223 0 7.811-2.47 14.153-7.411 19.013-4.511 4.476-11.319 6.717-20.429 6.717l-3.61-.095zm70.175-12.424v20.989h-6.826v18.957h-23.71v-50.591c0-9.8 2.678-17.41 8.022-22.835 5.35-5.421 12.875-8.139 22.56-8.139 9.342 0 16.242 2.46 20.718 7.366 4.471 4.92 6.709 12.501 6.72 22.765v51.423h-23.711V103.38c0-3.117-.367-5.266-1.105-6.466-.741-1.2-2.054-1.807-3.963-1.807-3.706 0-5.552 2.757-5.552 8.28v9.918l6.847-.011zm40.221 39.935v-51.653c0-9.049 2.718-16.305 8.143-21.74 5.431-5.44 12.653-8.168 21.667-8.168 8.964 0 15.847 2.64 20.636 7.927 4.793 5.284 7.172 12.883 7.154 22.8v50.838h-23.703v-50.845c0-4.86-1.747-7.292-5.231-7.292-3.349 0-5.022 2.432-5.022 7.292v50.841h-23.644zm95.728-56.71v56.71h-23.71V73.652h30.882c13.546 0 24.152 3.077 31.814 9.204 9.099 7.349 13.659 17.323 13.659 29.909 0 12.046-3.886 21.882-11.654 29.495-7.775 7.616-17.799 11.421-30.067 11.432a182.78 182.78 0 01-7.062-.223v-23.382h3.808c13.807 0 20.707-5.774 20.707-17.312 0-10.849-6.787-16.267-20.368-16.267l-8.009.01zm92.676 16.775v20.989h-6.826v18.957h-23.7v-50.591c0-9.8 2.679-17.41 8.026-22.835 5.347-5.421 12.872-8.139 22.567-8.139 9.342 0 16.242 2.46 20.717 7.366 4.472 4.92 6.72 12.501 6.728 22.765v51.423h-23.69V103.38c0-3.117-.367-5.266-1.105-6.466-.737-1.2-2.054-1.807-3.956-1.807-3.706 0-5.548 2.757-5.548 8.28v9.918l6.787-.011zm-323.817 60.159v29.774h19.574v-3.364h-15.751v-10.545h14.647v-3.226h-14.647v-9.41h15.416v-3.229h-19.239zm25.585 29.781h3.918V186.3c0-2.46 0-5.065 1.401-7.186a6.717 6.717 0 015.749-2.929 6.638 6.638 0 015.778 2.929c1.447 2.238 1.362 4.976 1.362 7.147v17.012h3.918V186.48c0-2.94.123-6.868-2.552-9.999a11.098 11.098 0 00-8.516-3.635 10.937 10.937 0 00-8.478 3.614c-2.725 3.229-2.601 6.974-2.601 10.002l.021 16.772zm39.395-16.341v3.24h10.906v.469a11.017 11.017 0 01-1.835 6.505 8.418 8.418 0 01-3.139 2.637 8.394 8.394 0 01-4.012.839 8.022 8.022 0 01-4.069-.977 8.066 8.066 0 01-3.043-2.873c-1.747-2.693-2.047-5.965-2.047-8.435 0-2.238.251-5.824 2.047-8.513a8.296 8.296 0 013.053-2.845 8.196 8.196 0 014.059-.978 7.974 7.974 0 016.346 2.718 8.236 8.236 0 011.998 4.976h3.907a12.43 12.43 0 00-3.014-6.656 12.445 12.445 0 00-19.394.971 17.342 17.342 0 00-2.983 10.376c0 3.159.508 6.981 2.986 10.383a12.03 12.03 0 0010.221 5.224c5.414.049 8.517-2.591 10.271-5.224 2.132-3.285 2.506-7.185 2.506-10.249v-1.528l-14.764-.06zm21.159-13.44v29.774h17.04v-3.318H332.59v-26.456h-3.829zm21.54 0v29.774h3.928v-29.774h-3.928zm10.772 20.252c.01 1.51.346 2.989.988 4.351a10.325 10.325 0 002.746 3.519c2.389 1.864 5.231 2.344 7.871 2.344a13.342 13.342 0 007.327-1.864 7.973 7.973 0 003.617-6.688 7.275 7.275 0 00-.864-3.833 7.323 7.323 0 00-2.707-2.845c-1.698-1.094-3.886-1.736-6.816-2.495-3.06-.808-4.482-1.105-5.527-1.867a4.298 4.298 0 01-1.885-3.494 4.625 4.625 0 011.624-3.66 8.226 8.226 0 014.638-1.271 9.262 9.262 0 014.906 1.221c1.881 1.289 2.474 3.459 2.562 5.707h3.84a10.092 10.092 0 00-3.628-7.658 11.704 11.704 0 00-7.469-2.39c-3.734-.049-5.982 1.017-7.365 2.047a7.09 7.09 0 00-2.983 5.965 6.696 6.696 0 002.467 5.446c1.92 1.623 4.483 2.241 7.027 2.894 3.964 1.066 5.069 1.447 5.912 1.959a4.392 4.392 0 012.305 4.083 5.159 5.159 0 01-.547 2.365 5.157 5.157 0 01-1.585 1.842 8.674 8.674 0 01-4.811 1.271 8.223 8.223 0 01-5.403-1.645c-1.663-1.366-2.245-3.19-2.245-5.322h-3.995v.018zm28.99-20.242v29.771h3.84v-13.987h14.891v13.991h3.84v-29.775h-3.84v12.459h-14.908v-12.459h-3.823zm39.819 20.252a10.238 10.238 0 003.727 7.86c2.379 1.864 5.231 2.344 7.871 2.344 2.57.097 5.113-.55 7.323-1.864a7.991 7.991 0 003.622-6.688 7.276 7.276 0 00-.865-3.833 7.443 7.443 0 00-2.718-2.845c-1.697-1.094-3.868-1.736-6.794-2.495-3.063-.808-4.486-1.105-5.552-1.867a4.319 4.319 0 01-1.87-3.487 4.552 4.552 0 01.395-2.015 4.538 4.538 0 011.228-1.645 8.274 8.274 0 014.666-1.334 9.125 9.125 0 014.896 1.228c1.87 1.271 2.467 3.452 2.551 5.7h3.833a9.947 9.947 0 00-.97-4.228 9.974 9.974 0 00-2.662-3.431 11.673 11.673 0 00-7.468-2.393c-3.734-.035-5.979 1.027-7.362 2.058a7.091 7.091 0 00-2.986 5.965 6.734 6.734 0 002.467 5.446c1.92 1.623 4.482 2.241 7.027 2.894 3.957 1.066 5.068 1.45 5.922 1.958a4.395 4.395 0 012.305 4.084 5.132 5.132 0 01-2.121 4.207 8.682 8.682 0 01-4.811 1.271 8.192 8.192 0 01-5.393-1.652c-1.662-1.355-2.248-3.191-2.248-5.315l-4.013.077zm49.691-1.02a8.167 8.167 0 01-2.248 5.488 8.052 8.052 0 01-5.912 2.429 8.711 8.711 0 01-4.207-1.045 8.729 8.729 0 01-3.166-2.951c-1.497-2.287-2.008-5.523-2.008-8.28 0-4.641 1.277-7.168 2.008-8.301a8.611 8.611 0 017.373-4.045 7.632 7.632 0 015.979 2.545 8.5 8.5 0 012.047 5.323h3.953a11.657 11.657 0 00-12.007-11.047 12.29 12.29 0 00-10.313 5.223 19.38 19.38 0 00-3.021 10.376c0 3.682 1.044 7.275 3.021 10.377a12.3 12.3 0 0010.313 5.223 11.41 11.41 0 004.897-.862 11.407 11.407 0 004.067-2.861 13.41 13.41 0 003.237-7.465l-4.013-.127zm10.454-19.221v29.771h3.84v-13.987h14.947v13.987h3.829v-29.771h-3.829v12.459h-14.947v-12.459h-3.84zm29.001 14.891c0-5.227 1.535-8.718 3.406-11.012a12.342 12.342 0 016.856-4.243 12.348 12.348 0 0112.288 4.243c1.87 2.294 3.405 5.823 3.405 11.012 0 5.188-1.535 8.714-3.405 11.011a12.35 12.35 0 01-9.583 4.546 12.341 12.341 0 01-9.579-4.546c-1.92-2.318-3.455-5.834-3.455-11.022l.067.011zm4.003-.071c0 2.125.162 5.651 2.071 8.516a8.12 8.12 0 006.904 3.823 8.115 8.115 0 006.9-3.823c1.92-2.865 2.093-6.388 2.093-8.512 0-2.817-.392-5.919-2.093-8.475a8.123 8.123 0 00-6.9-3.825 8.198 8.198 0 00-3.946 1.02 8.2 8.2 0 00-2.958 2.805c-1.747 2.535-2.131 5.647-2.131 8.464l.06.011v-.004zm27.54.071c0-5.227 1.535-8.718 3.409-11.012a12.346 12.346 0 019.579-4.542 12.277 12.277 0 019.582 4.542c1.871 2.294 3.406 5.823 3.406 11.012 0 5.188-1.535 8.714-3.406 11.011a12.346 12.346 0 01-9.582 4.546 12.341 12.341 0 01-9.579-4.546c-1.92-2.318-3.448-5.834-3.448-11.022l.039.011zm4.002-.071c0 2.125.173 5.651 2.093 8.516a8.118 8.118 0 006.903 3.823 8.121 8.121 0 006.904-3.823c1.92-2.865 2.093-6.388 2.093-8.512 0-2.817-.395-5.919-2.093-8.475a8.126 8.126 0 00-6.904-3.825 8.126 8.126 0 00-6.903 3.822c-1.737 2.541-2.121 5.654-2.121 8.467l.028.011v-.004zm28.398-14.813v29.774H600v-3.317h-13.239v-26.485l-3.79.028z" fill="#000"/></g><defs><clipPath id="clip0_472_169"><path fill="#fff" d="M0 0h600v264.706H0z"/></clipPath></defs></svg>