<svg width="196" height="261" fill="none" xmlns="http://www.w3.org/2000/svg"><path d="M8.792 106.178l13.037-39.007 13.038-21.664 23.901-12.999L80.51 19.502h26.083l23.904 6.502 15.219 6.504 17.383 19.504 15.215 26.008 10.871 28.165v30.342l-10.871 26.008-15.212 25.998-21.737 10.835-17.383 12.999-17.386 4.334H87.042l-17.386-4.334-10.87-12.999-15.212-4.334-17.396-13.016-13.034-23.834-6.52-28.169 2.168-23.837z" fill="#fff" stroke="#000" stroke-width=".696"/><path d="M166.458 129.994c.914 1.094 2.287 1.595 3.36.893 1.941-1.295 2.248-.318 1.959 2.241 1.221-2.241 1.909-3.614 2.689-4.93.911-1.546 1.835-3.085 3.886-3.431a1.693 1.693 0 001.574-1.641c-.046-.893-.748-1.087-1.564-1.02-1.496.127.431-1.624-1.076-1.941-.692-.152.452-.509.748-.749 1.74-1.238 1.97-1.958 1.105-3.938-.24-.558.183-.816.459-1.155 1.874-2.16 2.989-4.475 1.941-7.404-.374-1.049.06-1.49.96-1.25 1.345.318 1.316-.459 1.306-1.344.385.113.741.324 1.016.614.282.288.482.646.579 1.037.258 1.211-.155 1.719-1.673 1.222 3.17 2.985 3.734 6.529 3.494 10.404-.162 2.488-.257 4.938-1.496 7.176-.48.875 1.105.998.547 2.16a4.545 4.545 0 01-3.734 2.565c.19 1.942 2.88 1.942 2.735 4.073-.085 1.193-1.14 1.751-1.391 2.76-2.647-.656-3.995 1.419-5.798 2.803a9.79 9.79 0 012.735.183c1.126.424 3.678-.48 2.612 2.46-.152.413.893 1.239 1.496 2.037-2.033.261-1.306 3.96-4.26 2.989-.116 1.285 1.257 1.447 1.246 2.421-.653.939-2.111 1.059-2.467 2.333-.106.328-.671.452-.152 1.049 1.419 1.623 1.172 2.421-.748 3.158-1.094.413-1.74 1.451-2.506 2.796-.353.646-1.5.818-2.315 1.221 2.527 1.539 2.47 9.032-.085 9.79-1.5.459-3.141.671-4.733 1.19 1.401.406 2.937.423 3.847 1.789-.169.988-.967.124-1.496.413-.748.392-1.497-.06-.692 1.341.752 1.225 1.719 3.459-1.564 2.99.156.917-2.237.077-1.129 1.969 1.024 1.779-.222 3.258-2.587 3.565-.296.049-.536.127-.586.3-.575 2.075-3.049 3.236-2.735 5.965-.854-.703-.286-1.624-.748-2.238-2.446 1.595-4.705 3.911-8.072 2.64-.519-.191-.643 0-.808.3-1.045 1.719-3.54 1.595-4.483 3.727-.459 1.027-.748-1.249-2.065-.431l-1.447 3.671c-2.41-2.04-3.42-1.962-5.424.381-.501-.452-.692-1.235-1.44-1.422l-.261.317c1.305 1.133.049 2.422-.498 2.238-2.072-.586-2.093 1.154-2.39 2.03-.808 2.438-3.85 3.504-3.811 6.377-2.171 0-2.841 2.315-4.599 2.99-.748.296-1.246-.202-1.67-.586-.931-.837-1.757-1.786-2.795-2.894-.402 2.181.261 4.334-.325 6.398-1.305.251-.808-1.535-1.835-1.584-.593.54-.056 3.423-2.11 1.059-1.987 2.985-3.043.451-4.405-.713-.837-.71-1.133-.353-1.885 2.294l-2.58-3.36-.914 3.822c-1.207-.812-1.602-2.132-2.361-3.533-.798 2.495-2.852 4.475-4.857 3.84-1.796-.554-4.666 2.612-5.28-1.373-1.34.29-1.284 2.76-2.611 1.97-1.87-1.116-5.633-.452-4.483-5.284l-3.102 3.978c-.614-.893-.056-2.393-1.073-2.594-1.016-.212-1.496 1.094-2.142 1.75a1.52 1.52 0 01-.883.519 1.472 1.472 0 01-1.006-.176c-.617-.258-.826-1.758-2.142-.343-.625.653-.452-1.327-1.084-1.867-1.026.05-.564 1.49-1.796 1.73-.625-2.104-.116-4.303-.247-6.713-1.567 1.362-2.442 3.917-4.285 3.476-.967-.222-3.868-.353-3.06-3.494-2.142 1.669-2.806 1.189-3.688-.897-1.793-4.274-5.859-6.511-9.445-9.105a1.324 1.324 0 00-.751-.3 6.122 6.122 0 01-5.683-3.728c-.893 4.102-2.87 1.758-4.588.971.155-1.239-1.172-.988-1.641-1.595-.97-2.238-3.734-2.478-4.984-4.476-.162-.268-.459-.3-.593 0-1.164 2.873-2.583.202-2.784-.239-.749-1.645-2.478-.989-3.629-2.048-3.282-3.028-4.983-7.147-7.94-10.348a1.469 1.469 0 01-.213-.614 1.52 1.52 0 01.089-.653c.653-1.489.748-2.566-1.229-2.989-.324-.074-.847-.72-.797-.988.586-2.651-1.42-5.266-.085-7.906.374-.752.519-1.567-.318-1.829-1.563-.497-1.965-2.131-3.282-2.929-2.594-1.585-3.688-5.061-2.87-8.118.057-.222.075-.459.114-.691-2.234 0-2.093-2.316-3.255-3.283-.882-.752-1.122-1.023-.172-1.722.345-.261.988-.558.748-.999-1.341-2.393 1.171-2.287 2.054-3.424-1.581.244-4.03-.61-3.706-1.312.752-1.49-.325-2.623-.17-3.918.286-2.393 2.687-1.253 2.948-2.76-3.064-.932-3.283-2.082-1.423-4.775.413-.558-.353-2.083-.847-3.053-.152-.3-.67-.752-.61-1.031.794-3.727-.3-7.465.536-11.188a21.31 21.31 0 016.201-10.878c-.97-.183-1.796-1.863-1.496-3.095 1.719.176 1.719.176 3.886-.953.519 1.023-.893 1.493-.7 2.541h4.448a28.976 28.976 0 00-7.472 5.598c-1.496 1.567-3.215 3.96-2.516 5.372 1.126 2.294-.748 3.363-.748 4.965 0 .653-1.229 2.75 1.4 1.885.474-.155.848 1.341.749 2.093-.318 2.181.413 3.727 2.036 5.227 1.133 1.077 1.222 2.986 1.257 4.553 0 .953-.124 2.125.752 2.365 3.635.953 2.1 4.062 2.089 5.897 0 4.44 1.835 7.744 6.328 9.205a.889.889 0 01.643.173.92.92 0 01.335.565c.374 2.7 1.987 2.788 4.101 2.001-3.102-1.048-3.515-1.885-1.228-3.847 1.641-1.419 1.373-2.887 1.341-4.475-.035-3.149-.074-3.226 3.254-3.565 1.903-.18 3.477-.593 4.186-2.668.268-.819 1.172-1.049 2.065-.713 1.68 3.882 4.87 6.677 7.92 9.254 1.496 1.217 4.235 1.447 6.872 1.786a6.328 6.328 0 013.832 1.913c.653 2.707 2.708-2.527 4.56-3.978a2.525 2.525 0 012.686-.155c.223.194.749.519.749.808-.929.413-3.36 7.041-3.318 8.206.074 1.803 0 3.61-1.673 4.832a.95.95 0 00-.297.285.809.809 0 00-.134.389c.297 3.37-2.41 3.656-4.57 4.157-1.853.431-3.043 1.25-3.685 3.025-.3.837-1.094 1.422-1.673 2.118-1.623 1.941-.847 4.514 1.634 4.81 1.66.202 1.9 1.059 1.941 2.326.085 3.025 1.18 5.764 2.365 8.492a5.573 5.573 0 001.941 2.238c1 .751 2.767.97 1.814 2.922-.151.296.223.798.52.875 2.237.614 2.47 2.852 3.592 4.352 1.257 1.652 2.824 3.522 5.45 2.238.557-.283.931-.078 1.5.162 3.109 1.405 5.978 3.459 9.857 2.238 1.497-.47 2.333 1.824 3.322 2.911 2.054 2.238 2.428 2.439 4.694.548.451-.375 1.27-1.19 1.422-.279.49 2.989 3.812 2.499 5.04 4.976 1.168-2.986 2.206-2.015 3.434-.459.971 1.229 2.181 1.49 3.42.085 1.341-1.489 2.781-1.987 4.281-.095.187.267.447.474.748.596.301.127.632.163.953.106 2.683-.953 5.979-.423 7.889-3.258.155-.222.289-.501.536-.596 3.995-1.44 5.319-5.224 7.295-8.386.084-.19.21-.359.367-.494.154-.134.338-.229.537-.275.198-.049.403-.055.603-.018.205.035.396.124.558.24.635.748.251 2.082 1.497 2.488a5.907 5.907 0 01-1.497-2.414c-.078-1.902 1.535-1.863 2.69-2.389 1.15-.519 2.668-.706 1.496-2.538a3.72 3.72 0 012.238-2.749c2.551-1.218 5.04-2.584 4.482-6.138a1.313 1.313 0 01.134-.911c.156-.278.414-.486.72-.578a.872.872 0 01.222.088c.057.046.075.152.113.219.597-1.92 2.047-3.487 2.249-5.563 0-.183 0-.469.084-.518 3.516-1.613.749-3.283.05-4.938a2.33 2.33 0 010-1.846c.217-.491.3-1.03.24-1.564a3.046 3.046 0 00-.565-1.482 3.723 3.723 0 011.122-4.888c.555-.395 1.603-.565 1.257-1.451-.353-.882-1.422-.459-2.178-.508-1.171-.134-1.99-1.26-3.247-1.182-1.105-.749-.113-2.03-.692-2.923-.536-1.39.078-2.668.413-3.977a10.142 10.142 0 013.812-1.864 12.069 12.069 0 005.404-1.161 12.094 12.094 0 004.313-3.459c1.066-1.249 2.467-2.132 3.282-3.727.519-.971 1.161-1.729.893-2.912a2.405 2.405 0 01.596-2.477c.297-.3.89-.713.431-1.077-1.691-1.316.173-2.114.353-3.152-.106-1.489 1.048-2.527 1.5-3.833a.79.79 0 01.318-.172.727.727 0 01.353-.018c.162.798.748.635 1.334.625.931.748.518 1.863.596 2.753.24 3.289.748 3.892 4.26 3.825.925 0 1.617-.116 1.557 1.087" fill="#AEB0AC"/><path d="M172.468 76.118c-.452-.247-1.316-.49-1.341-.748-.212-3.883-3.364-4.342-6.078-5.026-1.422-.353-.222-.653-.3-1-.151-.853-.317-1.884-1.546-2.152a28.34 28.34 0 01-2.929-.988c.752-.424 1.874-.452 1.5-1.663a1.824 1.824 0 00-.653-.98 1.891 1.891 0 00-1.122-.386 13.495 13.495 0 00-5.637.52c1.585-1.568 3.572-2.852.318-3.728a.522.522 0 01-.374-.328.543.543 0 01.084-.498c1.624-2.026.061-3.564-.917-5.033-.522-.751-1.165-.952.152-1.567.748-.345.247-1.588-.247-1.863-3.219-1.79-4.938-5.898-8.895-6.265-3.232-.317-6.575-2.499-9.981.297 1.401-4.253.932-8.086-2.41-10.596-2.986-2.237-6.653-3.727-10.85-2.99 1.74-2.16.876-3.041-3.836-4.2-.865.675.861 1.099.19 1.762-3.617-1.49-3.617-1.49-3.734.787-2.421-3.956-6.91-4.101-9.974-6.572 3.561.473 7.468-.585 10.818 3.431-.519-2.054-.805-3.13 1.27-2.294 3.883 1.584 7.899 2.823 11.884 4.207 1.073-.29 1.546.575 2.149 1.182a457.834 457.834 0 005.436 3.321c3.455 2.136 6.843 4.363 10.634 5.902.392.151 1.044.586 1.006.748-.643 2.883 1.8 2.834 3.363 3.53 1.564.677 2.982 1.34 3.138 3.3 0 .183.035.366.116.529.082.165.2.31.346.423.142.114.309.19.487.223.179.036.365.029.54-.022.221-.066.453-.086.681-.056a1.558 1.558 0 011.151.692c.132.19.223.407.268.635.261 2.919 2.824 4.398 3.964 6.741.568 1.144 1.824 1.405 2.919 1.962-1.268.805-2.916.749-3.83 2.39a9.106 9.106 0 016.798 2.241l.48.586c0 1.447-.039 2.813 1.659 3.582.797.346.691.597.24 2.238-.219.865 1.154.752.96 1.588-.826 0-1.613-.752-2.647-.183a15.331 15.331 0 015.124 4.235c.653.854.565 1.45-.286 2.019" fill="#ADB0AD"/><path d="M60.388 41.3a1.781 1.781 0 00-.699.635c-.176.27-.275.582-.286.904-.176 2.237-.127 2.266-2.41 2.534-.247.752.871 1.193.451 1.997-1.835-1.19-3.62-1.863-5.04.558a1.61 1.61 0 01-.603.713 1.743 1.743 0 01-.893.279c-1.902.074-2.583 1.105-1.97 2.89.269.749 0 1.54-.652 1.384-1.698-.413-2.245 1.92-4.108 1.422-1.172-.317-.28.989-.135 1.529.173.67.749 1.323.096 1.997-.653.67-1.084-.3-1.642-.346-.557-.05-1.27-.088-1.902-.116a2.188 2.188 0 00-2.294 1.164c-.487 1.095.575 1.564 1.172 2.16.328.297.67.565 1.027.816-1.613 1.49-3.484 1.722-5.375 1.923.2.883 1.422.922 1.429 1.96L32.4 66.816c1.496.893 3.05.509 4.299 1.977-4.818-.844-8.792-.18-10.924 4.574.653.24 1.959.039 2.88.875-.106.085-.201.258-.296.258-5.683 0-4.705-.47-6.953 5.372-.537 1.383-.748 2.862-2.033 3.882-.519.424-1.299 1.165-.452 2.315.72.932.43 2.238-.501 3.13-2.301-2.12-1.246-4.686-.593-6.963.536-1.863 1.793-3.529 2.802-5.227 1.01-1.7 2.69-2.99 1.641-5.223a1.266 1.266 0 01.452-1.193c3.187-1.327 3.283-4.63 4.532-7.14 1.15-2.294 3.226-3.505 5.174-4.85.893-.624 1.941-1.069 2.407-2.068.932-1.976 3.995-1.15 4.532-3.565l1.239.883c-.48-3.685 2.795-5.742 3.41-8.95.18-1.01 1.496-1.307 2.678-1.405 2.33-.18 4.701-.449 7.207-2.189h-3.416c1.835-1.538 3.991-1.422 6.218-1.528 1.613-.077 2.894-.222 3.65 1.49" fill="#AEB0AE"/><path d="M70.701 27.352c1.27.892 2.556.218 3.936.134-1.246.871-1.624 2.851-3.791 2.555-.748-.095-1.701.815-1.496 1.25.86 2.237-1.24 2.188-2.093 2.488-1.977.698-3.12 1.909-3.382 3.882-.247 1.966-1.4 2.516-3.06 2.64-1.5-1.059-2.858-2.287-5.234-3.162l2.584-.202h1.044c-.748-1.076.435-1.383.692-2.015 1.998-4.997 7.027-5.372 10.84-7.542l-.036-.028H70.7zm48.883 133.087v6.716c-2.072-1.807-4.483-.519-6.519-1.249a2.45 2.45 0 00-2.746.596c-.625.565-1.094.653-1.497-.106-.395-.748-.748-.49-1.21-.123a6.675 6.675 0 01-3.233 1.641 6.636 6.636 0 01-3.621-.318.773.773 0 00-.53-.007.737.737 0 00-.402.336c-2.132 2.555-4.214.384-6.258-.156-.317-.077-.402-1.083-.748-2.075-1.535 1.758-3.141 2.082-4.782.586-.487-.452-.861-.547-1.228.176-.297.583-.865.749-1.313.219a2.726 2.726 0 00-1.44-.97 2.66 2.66 0 00-1.73.105c-1.976.876-4.33-.787-6.279 1.624-.084-2.238-.748-4.006.893-5.418 2.277 1.151 2.44.989 3.064-3.423.692 1.094.593 2.943 2.072 2.693a4.212 4.212 0 002.908-1.634c.624-.876 2.237-.915 2.393-2.432.151-1.112-.1-2.354 1.023-3.6.25 2.35.156 4.475 1.126 6.416 1.373-.451.97-1.853 1.719-2.777 1.977 2.103 2.88 5.541 6.424 5.227 1.073-.096 2.675-.614 2.611-2.489.17.777.389 1.557.65 2.316.039.151.112.292.211.413a1.078 1.078 0 00.837.374c.152 0 .318-.046.448-.113 1.998-.882 5.781-.635 7.673.258 1.715.808 3.417.836 4.599-1.049 2.245 1.366 3.36-.074 4.327-1.814a.277.277 0 01.116-.07c.046-.007.085-.018.135-.007.043.01.084.027.123.049a.21.21 0 01.088.106" fill="#ADAFAD"/><path d="M119.065 107.148c-.152 2.019 2.17 4.2-.381 6.237l1.641-.808c-1.345 1.694-1.673 3.056.084 4.15-.652.653-.384 1.624-.652 2.238-.826 1.941-.615 3.162 1.341 4.295.896.519 1.069 2.439.674 3.537-.075.65.056 1.308.374 1.881 2.411 2.883 4.023 6.494 7.623 8.301.816.353 1.68.586 2.573.67 1.67.283 3.438.551 2.679 3.057-.335 1.105 1.105.988 1.391 1.719-.403 1.221-1.419 1.539-2.541 1.655-1.567.212-3.159.625-4.543-.6.219-2.753-2.717-2.658-3.907-4.203a8.113 8.113 0 00-4.129-2.835c-2.294-.568-1.977-3.43-4.137-3.942-.353-.074.989-.106.847-1.383-.338-3.053-1.683-4.755-5.318-5.418 1.694-.671 2.943.653 3.54-.671.434-.97-.558-1.366-1.144-1.895-.381-.353-.212-.805-.152-1.267.374-3.258-.374-6.551 1.257-9.847.49-.999.797-2.834 1.27-4.274.297-.971.862-1.02 1.638-.653" fill="#AEB0AE"/><path d="M85.955 137.141c.031-.247.12-.484.258-.692.145-.205.336-.373.558-.49 1.553-1.306 4.07-.24 5.375-2.16.635 1.846 2.813.451 3.66 2.142l.392-2.689c.893.151 1.154-.643 1.634-1.105.575 1.144 1.63 1.602 2.763 2.015 1.13.413.625-1.122 1.497-1.023.183 1.15 0 2.072 1.881 2.686 1.885.617 3.169 3.229 3.459 5.746-1.154.077-1.719-2.238-3.141-.749-1.942-2.163-4.8-.222-7.024-1.489-.752-.434-1.75.854-2.594 1.087-1.27.346-1.5 3.342-3.66 1.44-.297-.268-.688.469-.748.893-.134.854-.173 1.719-.247 2.583-1.54-.296-1.2-1.718-1.977-2.795-.695 2.711-2.852 3.364-5.234 4.362.318-1.344 1.641-1.845 1.419-3.112-.91-.749-1.602.797-2.764.423 2.093-2.058 4.6-3.776 4.426-7.073" fill="#ADB0AD"/><path d="M119.026 104.399a5.984 5.984 0 013.342-1.486c.576.547.931 1.285.999 2.075-.748.883-1.535 1.67-1.623 2.93 0 .519-.375 1.21-.865 1.189-.748 0-.748-.815-.833-1.419-.088-.6.318-1.56-.914-1.489-.346-.586.596-1.249-.106-1.8z" fill="#B8ABB2"/><path d="M76.825 171.267c4.058 3.727 8.075 7.542 13.048 10.048.152.078.384.166.452.3.794 2.054 2.272 2.238 4.192 1.758a1.639 1.639 0 011.324.155 1.55 1.55 0 01.73 1.126c.318 1.532.654 3.424-.938 4.158-2.372 1.083-4.56 3.321-7.624 1.976-.893-.392-1.2.791-1.92.971-1.267.3-2.84 1.193-2.467-1.423-1.316-.112-3.091 3.036-3.917-.518a.38.38 0 00-.106-.067c-.036-.007-.074-.018-.124-.007-3.176 1.623-5.29-1.306-7.966-1.829-.24-.035-.519.134-.752.205-1.168-.752-1.545-2.989-3.811-2.001-.18.077-2.033-1.267-1.793-2.795 1.496-2.45-1.613-3.17-1.987-5.312 2.17 1.535 3.628 3.727 6.279 3.861 1.4.078 3.176 1.489 3.61-1.384.113-.748 1.497-1.641 2.39-1.083 1.044.699 2.093.381 3.12.593.748.155 2.3.501 2.011-.163-.631-1.422 1.55-2.756-.236-4.023a26.087 26.087 0 01-3.36-3.056c-.374-.375-1.094-.915-.124-1.49" fill="#B0AFAE"/><path d="M112.02 177.387c.47 1.423-.854 3.364 2.118 3.978 2.001.424-1.045 1.239-.671 2.238.078.095.251.346.29.339 2.364-1.317 5.174-.05 7.545-1.317a1.033 1.033 0 011.271.095c1.765 1.882 2.308.586 2.76-1.344.452 1.341-.095 2.834 1.345 3.448-1.221 3.469-4.8 3.678-7.363 5.273a3.46 3.46 0 01-1.567.166c-.748 0-1.496-1.423-2.188.624-.448 1.342-2.245 0-3.455-.924.056 1.126.317 2.728-1.341 1.99-2.852-1.26-6.05-.875-8.845-2.202-1.955-.932-1.401-2.7-1.497-4.264-.095-1.567.883-1.768 2.104-1.768 2.718 0 3.628-2.834 5.823-3.833 1.232-.547 2.393-1.701 3.639-2.537" fill="#AEB0AE"/><path d="M77.683 105.387c-.586 2.425 1.715 4.278 1.323 6.671a.43.43 0 00.106.222.409.409 0 00.19.141c3.177.318 2.506 2.711 2.411 4.804 1.133-.565 1.066-1.747 1.892-2.753a12.3 12.3 0 01-.318 4.694c-.519 1.751-1.496 3.364-.97 5.471a2.33 2.33 0 01-1.056 2.686 2.25 2.25 0 01-.988.3 2.47 2.47 0 00-1.987 2.986c.04.388-.07.776-.307 1.087a1.613 1.613 0 01-.953.603c-.843.117-2.167.625-.688 1.962.423.375.258.699-.837.893-3.571.597-5.548 3.053-7.4 5.87-1.095 1.645-2.987 1.115-4.706.865.184 1.489 1.366.882 1.942 1.316a2.717 2.717 0 01-.52 1.165 2.705 2.705 0 01-1.009.787 2.687 2.687 0 01-2.474-.166 3.946 3.946 0 00-1.7-1.546c-1.056-2.421.702-6.12 3.253-6.438 4.059-.48 6.329-3.19 8.316-6.264 1.267-1.959 2.149-4.207 4.531-5.129.67-.261.487-.585.392-1.048-.162-.847-.508 0-.748-.085-.519-.098-1.2-.038-1.394-.6-.19-.554.377-.938.808-1.245.43-.318.798-.452 1.165-.682 2.011-1.344 2.071-1.75.247-3.247-1-.818-1.673-1.595-.798-2.989.748-1.189.116-2.612 0-3.777a7.541 7.541 0 01.748-3.804c.057-.074-.564-.219-.268 0a.226.226 0 00-.056.088c-.329 1.133-1.317 1.758-1.797.575-1.076-2.594-3.141-4.101-5.079-5.823a.909.909 0 01-.19-.748 14.365 14.365 0 018.908 3.134" fill="#B0B0AF"/><path d="M123.374 104.949a1.656 1.656 0 01-.999-2.075c1.606-.519 3.141-1.645 4.934-.646l-3.935 2.721z" fill="#AEB0AE"/><path d="M194.644 34.326c1.496 4.775.97 9.646 0 14.365-.452 2.234-2.584 4.33-1.987 6.713.748 2.989-1.285 3.66-2.69 5.371-1.881 2.238-3.656 4.158-6.529 4.9 0 .084.042.172.081.246.074.254.258.501-.155.752-2.143-2.333-5.04-2.99-8.047-3.477 2.41.989 2.057 4.045 4.034 5.273.077 0 .088.163.077.248-.155 3.26.173 4.482 1.966 7.669.032.07.039.141.039.222-.554.487-1.564-.547-1.853.48-.191.749.6.97 1.066 1.373 1.249 1.087 1.422 2.478 1.74 4.101.653 3.403 2.273 6.6 3.318 9.946.79 2.534 2.315 4.687 2.188 7.761-.071 1.786.875 4.815 3.275 6.177.24.127.494.233.748.3-2.167 4.14.106 7.052 2.884 10.443l-2.986-1.489c-.155 1.977.844 3.632 1.094 5.389-1.143.297-1.422-.988-2.393-.818-.43 1.623 1.165 2.611 1.5 4.016-1.126.575-1.765-.508-2.788-.48-.152 2.778.896 5.224 1.828 7.793.593 1.691 2.601 3.621-.155 5.294-.046 0 0 .163 0 .247-.297 3.537-1.758 7.013-.671 10.617.318 1.048-.328 1.066-.864 1.26-1.97.702-3.043 1.824-3.216 4.129-.194 2.612-2.248 4.574-3.466 6.812-.155.3-1.164-.798-1.697.395-.837 1.864-1.172 3.42 1.256 4.43-1.2 1.083-2.601.278-3.974 1.044 2.234 1.059-1.623 4.073 2.054 4.585-1.2 1.115-2.516.854-4.101 1.045 1.941 1.567 0 4.104 2.199 5.7a4.879 4.879 0 01-1.267.335c-2.686-.134-3.177 1.154-2.245 3.388.219.551.219 1.405-.413 1.193-2.841-.939-3.589 3.074-6.413 2.594-.519-.084-1.68 2.347-2.823 3.413-1.14 1.066 2.287 0 .653 1.306a13.423 13.423 0 01-2.312 1.384c-1.345.691 2.118.942.134 1.567-.882.173-1.775.247-2.679.218.597 2.238-2.919.124-2.372 2.266-.423-.988-1.602-.748-2.237-1.267-.424-.413-.516-.547-.928-.095-.752.893-1.021 2.989-2.986 1.355-.855 2.316-3.678 1.786-5.051 3.459l-.431-2.241c-.808 2.315-1.27 4.44-4.312 4.479-.113-.078.596-.847 0-1.49-.375.636-.749 1.193-1.017 1.758-1.027 1.969-1.736 2.238-3.6.787-.469-.353-.882-.487-1.023-.162-1.155 2.506-4.486 3.66-4.412 6.84.077 2.354-2.916 1.383-3.106 3.211-.184 1.642-.127 3.399-2.651 2.831-.501-.113-1.048.127-.999.646.353 3.833-2.985 3.018-4.637 3.035-1.412 0-2.785.48-3.89 1.363-1.831 1.316-3.684 2.527-6.046 2.625-.624 0-1.295.636-1.027-.797.117-.703-.864-.194-1.164.074-.861.836-1.61 1.761-2.301 2.527-2.104-1.341-4.532-1.295-6.96-1.045-1.172.113-2.429.403-3.4-.268-.423-.3-.151-1.348-1.295-.618-1.267.819-2.629.618-3.963-.247-2.238-1.443-4.666-2.671-6.921-4.104-1.553-.989-3.17-.597-4.744-.452a13.94 13.94 0 01-9.59-2.238c-1.87-1.21-3.416-1.673-4.676-3.96-.748-1.401-1.803-2.908-2.746-4.39a25.176 25.176 0 00-3.847-4.878c-.406-.374-.854-.791-1.22.046-.364.836-.919.932-1.105 0-.555-2.834-1.928-.893-2.81-.424-.752.396-1.193 1.271-2.132 2.287.798-2.985-1.21-3.889-3.282-4.888-1.288.875-1.5 2.728-2.238 4.391-.077-3.53-2.248-5.852-4.186-8.312-.931.653 0 1.394-.451 2.202-1.172-1.154-1.497-2.911-3.198-3.642l-.268 1.92c-.269-.18-.625-.286-.67-.469-.435-1.892-3.082-2.019-3.248-4.236-.095-1.383-2.33.106-2.742-1.846-.452-2.131-1.78.29-2.767-.049-.46-.642-.057-1.352-.124-2.026a6.534 6.534 0 00-.212-1.546c-2.516-.116-3.783-2.76-6.151-2.989-.67-.057-1.606.134-1.25-.681 1.535-3.53-.459-4.084-3.917-3.96 3.042-1.564.3-4.476 2.985-5.803-1.718-.423-2.985 0-4.164-1.006 2.84-.818.18-3.363 1.64-4.757-.747-.748-1.736-.191-2.526-.508-1.063-.424-3.05-.435-1.094-2.355.511-.501.752-1.623-.449-1.489-1.2.134-.875-1.405-1.817-1.316.557-2.432-1.401-2.422-2.841-2.93 1.25-1.779-2.39-2.163-1.14-3.96a.468.468 0 000-.229.424.424 0 00-.117-.201c-2.237-.999-1.496-3.583-2.763-5.072-.953-1.126.854-1.175.748-2.46-.297-3.364-1.758-6.494-1.641-9.886 0-1.165-2.238-.395-2.047-2.058.67-.519 1.539 1.444 2.075 0a1.19 1.19 0 00.106-.603 1.331 1.331 0 00-1.165-1.26c-.381-.085-.805-.547-.219-.971 1.72-1.189 1.049-2.488-.151-3.342-1.377-.854-.491-2.506-2.171-3.554 3.925.317 2.69-2.538 3.36-4.073a3.632 3.632 0 000-1.924c-.882-2.488 1.496-4.524.748-6.935-.183-.597.078-.865.893-1.239 1.497-.653 1.719-2.555 1.63-4.045-.19-3.402 1.127-6.525 1.557-9.811a7.133 7.133 0 012.623-5.083c1.1-.893 1.39-3.783 2.428-5.63.219-.38.317-.952.642-1.17 2.39-1.642 1.341-4.476 2.41-6.63.453-.892-.317-1.489-1.365-1.316l-3.523.502a3.292 3.292 0 012.093-1.165c2.076-.381 3.967-2.986 3.84-3.505-.624-2.728 2.63-3.727 2.238-6.17-.134-.942-.865-.596-1.066-1.058-.826 1.024-2.54.424-2.87.752-1.976 2.082-3.387.077-4.81-.52a9.241 9.241 0 01-4.147-3.687c-2.237-3.382-2.841-7.465-5.27-10.705-.642-.854.269-1.786.248-2.785-.018-4.86-1.783-9.607-.91-14.516.133-.748-.114-1.624.246-2.393 1.567 0 1.75 1.25 1.645 2.241-.49 4.765 1.15 9.318 1.15 13.998a2.597 2.597 0 001.077 2.382c1.902 1.13 2.238 2.89 2.312 4.878 0 1.828.462 3.384 2.421 4.122a3.165 3.165 0 011.497 1.835 4.08 4.08 0 002.748 2.429 4.146 4.146 0 004.367-1.486c.999-1.193 2.407-1.49 3.483-2.238 2.037-1.433 4.973-1.27 6.353-3.727.452-.819 1.345-.752 2.125-1.01 1.959-.614 2.506-2.117 1.13-3.67-1.257-1.433-1.13-2.661.155-3.727 1.288-1.077 1.228-2.075.931-3.392-.289-1.327-.748-2.643-.49-4.023.25-1.388.854-2.27 2.199-2.425a2.619 2.619 0 012.802 1.683c1.567 3.255 1.588 3.177 5.234 2.478 2.686-.519 5.421-.155 8.139-.247.448-.029.897-.029 1.345 0 .748.07 1.853-.483 2.142.544.286 1.03-.787 1.549-1.606 1.856a18.263 18.263 0 01-5.23 1.25c-1.296.074-2.39.575-2.764 1.785-.646 2.02-2.036 3.678-2.594 5.62a5.094 5.094 0 01-2.803 3.363c-2.985 1.27-5.078 3.727-7.757 5.371a8.861 8.861 0 00-4.281 6.569c-.19 1.422-1.123 2.24-2.11 2.99-.643.5-1.66.92-1.497 1.764.487 2.993-1.72 4.807-2.88 7.073-.413.808-.854 1.588-1.27 2.393a8.166 8.166 0 00-.259 7.831c-.624 3.053-2.918 5.15-4.482 7.638 1.295 2.668 0 4.581-1.69 6.568-3.255 3.847-3.646 8.573-3.523 13.327.057 2.4-.05 4.871 1.084 7.165a1.988 1.988 0 01-.297 2.492c-1.165 1.21-.748 2.343.558 3.13 1.306.787.932 1.44 0 2.238-2.577 2.365-2.143 4.814 1.094 6.131 1.016.423.932.748.346 1.556-2.584 3.448-2.488 4.687.653 7.715.247.247.44.558.536.893.095.343.099.704.01 1.049a7.36 7.36 0 003.167 7.309c1.143.819 1.846 2.153 2.986 3.028a1.283 1.283 0 01.469 1.49c-1.218 2.322.261 4.609 0 6.907-.074.353-.035.727.116 1.066 2.891 4.362 4.186 9.624 7.804 13.507 1.959 2.082 4.638 3.056 6.77 4.853 3.733-1.155 5.018 2.075 7.065 3.938a4.504 4.504 0 001.853 1.642c1.228.645 2.418 1.383 3.512-.297.49-.748 1.01-.318 1.5.219 1.496 1.722 3.06 3.346 5.682 2.989.366.032.709.192.967.452 3.36 2.499 7.087 4.609 8.873 8.704.075.162.152.423.269.458 2.311.629 3.734 2.778 6.035 3.396 1.232.335 1.856-.893 2.612-1.645.451-.431.847-1.084 1.567-.748a1.41 1.41 0 01.71 1.641c-.703 3.191 1.563 3.614 3.733 4.256.876.251 1.67.749 2.541 0 1.049-.893 2.118-1.941 3.424-.296a.487.487 0 00.399.152.387.387 0 00.205-.085.642.642 0 00.14-.176c1.765-2.312 2.394-.749 3.315.818.642 1.105 2.495 1.924 3.254 1.49 2.88-1.624 5.612 0 8.4-.184a3.971 3.971 0 002.936-1.719c1.458-2.354 2.436-1.987 3.59.597.748-2.065 1.496-3.113 3.187-1.154.932 1.087 1.93-1.603 3.226-.247.875.893 1.881 1.764 3.342.854.593-.374 1.401-.328 1.977-.819.748-.653 1.316-.219 1.852.378.223-.618 0-1.222 0-1.829.113-1.235-.458-2.908.671-3.564 1.295-.749 1.835 1.02 2.651 1.729a2.828 2.828 0 003.197.328c.336-.181.63-.43.865-.73 2.012-2.69 4.595-4.966 6.085-8.04.797-1.652 2.986-2.058 3.437-3.999 1.871.999 3.466-1.189 5.319-.431.494.202 1.2.392 1.458-.222 1.316-3.053 4.906-2.834 6.91-4.881.922-.932 1.97-.967 3.216-.854 1.892.183 3.487-.749 5.033-1.758.593-.374 1.094-.971 1.899-.921.268 0 .261.596.54.258 1.401-1.67 1.821-4.158 4.482-4.776.96-.219 1.105-1.429.805-2.343-.452-1.423-.113-2.238 1.422-2.527 1.535-.286 1.941-1.172 1.341-2.584-.593-1.412-.353-2.153 1.338-2.026-.078-.406-.374-.3-.558-.374-.748-.356-2.103-.106-2.015-1.327.074-1.076 1.235-1.105 2.139-1.271a5.322 5.322 0 002.354-1.023 5.354 5.354 0 001.581-2.019 5.336 5.336 0 00.445-2.527 5.328 5.328 0 00-.809-2.432c-.942-1.44-.624-1.959.223-3.13 1.044-1.423 1.563-3.134 3.734-3.392.872-.106 1.306-.971.706-1.906a1.76 1.76 0 01-.314-.678 1.848 1.848 0 01.787-1.976c.953-.752 1.5-1.426.914-2.732-.378-.847.536-1.133 1.2-1.489a2.85 2.85 0 001.623-3.325c-.349-1.595-.935-2.989-2.922-2.989a4.48 4.48 0 01-1.871-.346c-.423-.201-.893-.805-.413-.967 1.497-.558 1.342-3.124 3.512-2.76a2.09 2.09 0 001.588-.201c.238-.134.447-.313.615-.527a2.07 2.07 0 00.363-.723c.547-1.316-.049-2.026-.882-2.823-1.2-1.133-1.645-2.16.353-2.986 1.288-.54 1.623-1.624 1.835-3.028.515-3.555 1.401-7.042 1.066-10.684a10.82 10.82 0 00-.837-3.956c-.748-1.568-2.59-2.866-1.27-4.998.137-.24-.515-.692-.851-.988a8.227 8.227 0 00-1.87-1.087c-1.606-.692-2.471-1.306-.212-2.46 1.101-.565 1.906-4.928 1.179-5.93-2.33-3.247-4.003-7.136-8.217-8.605-.642-.222-2.47-.518-.748-1.92.593-.494.074-.953-.166-1.404-.459-.854-1.073-1.553-.374-2.7.702-1.15-.621-1.758-1.267-2.316-1.497-1.22-.928-1.976.328-2.756.078-2.315-1.902-3.113-3.254-4.334-1.355-1.218-1.362-1.123 0-2.16.374-.29 0-2.443-.671-2.99-1.394-1.115-2.075-2.287-.723-3.882 4.013-.374 4.408-.893 3.978-5.15-.156-1.485-.636-3.282 1.602-3.67 2.012-.342 3.734 1.366 3.734 3.635-.02.723-.079 1.444-.176 2.16-.046.597-.293 1.345.561 1.606a1.455 1.455 0 001.659-.67c1.323-2.28 3.254-2.058 5.453-1.66 3.783.696 4.778-.257 4.482-4.09a4.211 4.211 0 011.422-3.882c2.513-2.065 2.986-4.81 2.803-7.807a51.905 51.905 0 010-6.237c.056-1.048.077-2.237 1.641-2.276h.039zM50.502 41.367c-3.462.29-6.967-.536-10.46.914-1.691.71-3.093-.646-3.42-2.537-.287-1.624-1.024-2.912-2.764-2.4-1.624.458-1.497 2.082-1.246 3.465.19 1.155.44 2.288.748 3.413.106.24.162.509.162.777a2.026 2.026 0 01-1.228 1.885c-1.327.748-2.852 2.047.046 2.986.558.194 1.25.67.752 1.432-.752 1.13.074 3.283-2.238 3.389-1.5.077-2.823.282-2.986 2.202 0 .29-.508.815-.653.748-1.88-.49-2.852 1.087-4.13 1.567-1.965.748-3.673.989-4.98 2.986-.93 1.433-2.985.752-4.598.925-2.17.219-2.919-.752-2.986-2.788a1.879 1.879 0 00-.988-1.49c-3.734-.805-3.035-3.822-3.187-6.339-.078-1.126-.318-1.94-1.401-2.315-1.825-.653-1.998-2.237-2.054-3.727-.184-4.835-1.5-9.579-.971-14.45a1.557 1.557 0 00-.988-1.489c1.362-7.37 5.23-13.673 8.612-20.146.352-.67 1.083-.653 1.457-.893 2.037-1.298 3.187-3.363 4.783-5.354.649.078.247 1.094.497 1.79 2.037-4.024 5.845-3.805 9.477-4.257a39.872 39.872 0 0120.57 2.718c.433.183.75.787 1.065-.24.318-1.017.692-.49.865.155.105.635.423 1.218.882 1.659.47.439 1.07.713 1.708.78 3.187.374 3.621 3.056 4.56 5.33.3 2.29-.536 4.02-2.686 4.905a1.637 1.637 0 00-1.2 1.822c.046 1.02.593 1.249 1.497 1.489 2.763.752 2.87 1.306 2.47 4.295-.317 2.333-.494 4.613-2.95 6.198 1.814.748 3.812-.999 4.8.815a8.398 8.398 0 011.048 5.372 1.247 1.247 0 01-.434.374 1.126 1.126 0 01-.558.123 7.442 7.442 0 013.89 2.662c.48 1.104 1.076 2.287-1.094 1.606-1.384-1.807-3.4-1.154-5.175-1.211a9.882 9.882 0 00-4.482.854h-.032zm144.142-7.041c-1.229.635-.943 1.786-1.027 2.852-.297 3.346.451 6.677-.173 10.08a4.46 4.46 0 01-1.719 2.735c-1.737 1.49-2.679 3.035-2.238 5.555.54 2.986-1.066 4.37-4.108 3.996a9.649 9.649 0 01-2.379-.452c-1.553-.614-2.651-.346-3.275 1.27a2.648 2.648 0 01-.537.833 2.37 2.37 0 01-.815.558 2.604 2.604 0 01-.971.194 2.397 2.397 0 01-.97-.201c-1.161-.406-.487-1.768-.353-2.75.258-2.064.826-4.178-2.238-4.792-1.669-.34-1.941.374-1.87 1.669.046.79.134 1.567.257 2.347.625 3.805-.96 5.262-4.733 4.352-.49.046-.748-.261-.864-.653 0-2.739-.519-5.181-3.166-6.717-1.172-.691-1.401-2.047-1.567-3.335-.279-2.082-.586-4.094-2.792-5.223-1.066-.551-1.228-1.762-.748-2.895 1.006-2.237-.29-2.46-2.019-2.371a6.42 6.42 0 00-1.603.247c-3.695 1.115-3.695 1.115-5.604-2.21a2.312 2.312 0 00-1.341-1.274c-2.527-.6-2.767-2.424-2.796-4.574 0-1.892-.518-3.727-.557-5.668 0-.653-.247-1.422-.999-1.444-.911-.035-.748.858-.826 1.423-.056.635-.056 1.27 0 1.906 0 1.64-.289 3.169-2.294 3.427-1.758.222-3.565.335-4.186-1.92-.297-1.077-1.257-1.49-1.941-2.192-1.43-1.49-1.236-2.594.695-3.459 1.744-.748 2.824-2.421 4.557-3.282 1.048-.523.751-1.963.751-3.029 0-2.24.219-4.39 2.764-5.333.332-.15.598-.416.748-.748.671-1.383 1.182-2.99 3.064-3.113 3.053-.222 6.113-.751 9.176 0 .942.201 1.122.865.748 1.642-.96 2.064.177 2.131 1.719 1.884a4.627 4.627 0 012.39.297c.575.222 1.26.68 1.623-.212a1.462 1.462 0 00-.67-1.87 2.617 2.617 0 00-.752-.329c-3.12-1.048-3.568-1.645-3.388-4.401.194-2.986 1.5-4.602 4.245-5.093.89-.152 1.765-.374 2.669-.48 3.176-.402 3.589-.152 3.734 2.99.056 1.228.487 1.651 1.68 1.316.342-.106-.099 0 .257-.078 5.817-.875 7.804.748 7.977 6.572.893.184.893-.681 1.295-1.094 1.987-2.068 4.687-1.79 5.983.805a6.085 6.085 0 002.791 2.834 3.65 3.65 0 011.673 1.517c.385.671.537 1.451.441 2.21-.116 1.906-1.401 2.068-2.763 2.347-1.366.279-1.606 1.217-1.567 2.456.077 2.241.635 4.48.296 6.717 0 .353.558.05.194.095-.077 0-.077-.074-.077-.219a2.85 2.85 0 012.047-3.134c1.401-.452 2.629.078 3.734 1.01 1.496 1.249 1.542 3.229 2.485 4.736 0 .547-.078 1.087-.096 1.623l.029.05zm.084-1.645c-1.295-.046-1.246-1.217-1.496-1.976a5.813 5.813 0 00-1.592-2.46 2.789 2.789 0 00-3.416-.643c-1.144.614-1.875 1.747-1.01 3.188.353.614.491 1.316-.353 1.489a.974.974 0 01-.406-.05.85.85 0 01-.346-.2.962.962 0 01-.24-.318 1.129 1.129 0 01-.095-.392c.134-3.057-.459-6.043-.635-9.05-.078-1.443 1.295-2.018 2.689-2.124.749-.057 1.998.296 1.804-.953-.163-1.122.826-2.658-.893-3.36-2.015-.808-3.78-1.75-4.186-4.257a1.524 1.524 0 00-.833-1.037 1.48 1.48 0 00-.671-.134 1.577 1.577 0 00-.663.172c-.865.52-2.605-.328-2.584 1.642 0 1.49-1.122 1.567-2.11 1.21-.988-.353-.999-1.179-.519-2.237.787-1.73-.932-4.63-2.813-4.776-1.5-.113-2.986-.691-4.482.089-1.97 1.044-2.577.173-2.45-1.79.163-2.728-.43-3.208-3.215-2.753-4.687.748-6.353 2.478-5.982 6.367.116 1.345.127 2.834 2.354 2.238 1.129-.296 2.234.67 2.629 1.49.392.815 0 2.103-.289 3.095-.24.748-.872.247-1.306-.06a4.46 4.46 0 00-3.014-.97c-1.066.098-2.167 1.22-3.187-.22-1.017-1.45.914-1.94.97-3.017-2.859-1.155-5.777-.078-8.647-.297-1.768-.134-2.986.558-3.141 2.517-.049.564-.247 1.21-.798 1.295-3.511.558-2.986 3.286-2.986 5.601.05 1.941-.218 3.413-2.484 3.727-1.825.261-2.171 2.806-4.37 2.806-.497 0-.218 1.616.703 2.142a3.985 3.985 0 012.153 2.834c.43 1.825 2.234 1.049 3.494 1.066 1.256.021 1.496-.97 1.609-2.064.155-1.24-.748-2.623.127-3.632.459-.508-.646-2.054 1.024-1.553.932.265 2.142.448 2.036 1.775-.219 2.46.692 4.832.576 7.264-.075 1.49.077 2.562 1.941 2.859a2.613 2.613 0 012.41 2.555c.074 2.799 2.418 2.357 3.36 1.57 1.497-1.27 3.082-.518 4.539-.808 1.468-.279 2.478 1.049 1.44 2.46-1.496 2.076-.67 2.986 1.25 3.883 2.329 1.055 1.429 3.458 1.853 5.223a4.45 4.45 0 001.68 2.93c2.569 1.817 3.483 4.048 2.763 6.9-2.238-.117-4.098-1.642-6.385-1.786-1.023-.05-.833-1-.218-1.596a3.613 3.613 0 012.311-1.143 19.467 19.467 0 01-5.347-6.438c-.212-.392-.19-1.044-.519-1.228-2.813-1.567-3.924-5.026-6.988-6.304a7.48 7.48 0 01-3.734-3.225c-1.422-2.298-4.426-2.866-6.72-4.229-3.311-1.962-6.731-3.727-9.713-6.254-.24-1.27-.512-2.481-2.171-1.21-3.861-.646-7.429-2.189-11.078-3.509-.547-.183-1.296-1.306-1.698.318-.194.748-1.126.558-1.624.162-2.802-2.237-6.172-1.613-9.352-1.92-1.899 0-3.791-.077-5.718.046-.459.752 1.15 1.433.074 2.047-.822.46-1.564-.056-2.234-.547-.54-.391-.748-1.786-1.814-.497-.156.19-.749.084-1.049-.078-4.326-2.238-8.611-.494-12.825.392-3.06.653-5.912 2.24-9.014 2.93-3.223.952-5.93 2.922-8.813 4.552-1.42.801-1.871 2.358-2.39 3.73-.392 1.095-.748 1.589-1.835.749.222-1.546-1.158-2.7-.844-4.43.194-1.055-1.14-1.485-2.467-1.044-.967.353-2.312 1.39-3.02-.283-.559-1.323.747-1.485 1.59-2.011.848-.523 2.178-6.442 1.766-7.218-.449-.921-2.111-1.288-4.183-.932-.547-.815.286-1.645-.05-2.555-.423-1.154-.317-2.075 1.497-2.238 2.393-.166 2.02-2.798 2.986-4.256 3.064.748 1.154 3.208 1.5 4.8.95 4.02 2.012 8.047 2.245 11.943 3.734 1.327 5.358-2.047 7.786-3.956 1.25-.97 3.734-.579 3.437-3.212 2.602 1.924 4.529-1.016 6.893-.95 3.791.117 7.296-1.429 10.97-2.036.97-.162 2.544.883 3.282.124 2.65-2.495 5.933 1.45 8.026-1.384a2.43 2.43 0 01.999-.43c1.5-.452 1.556 1.44 2.65 1.433.036 0 .135.67.749.748 4.002.325 8.036.625 12.017 1.172 2.594.352 5.365.536 7.433 2.438 1.497 1.345 3.159.223 4.751.82a27.176 27.176 0 006.72 1.294c.586.078 1.92.184 1.613-1.64-.279-1.674 1.143-3.287 1.623-5.026 1.006-3.728 4.483-6.477 4.387-10.769 0-.752 6.424-3.536 7.402-3.727 2.841-.55 5.643-1.154 8.467-1.74 2.58-.519 5.375-.134 7.764-1.701.749-.459 1.624.413 2.563.459 3.215.137 6.282.752 8.294 3.77 1.69 2.516 5.153 2.689 7.126 4.898 1.623 1.835 4.348 2.69 4.874 5.478 5.336 2.534 3.459 7.906 4.56 12.028.519 1.892 2.121 3.688 1.249 5.894l.007.021zM38.753 45.161c1.835.078 2.365 1.327 2.421 2.74.057 1.41-1.239 2.081-2.372 2.018-1.567-.06-2.237-1.49-2.364-2.862-.19-1.645 1.231-1.712 2.315-1.896zm2.439 146.312c1.048-.434 1.641.593 2.495.794.155 0 .752.388.155.695a3.005 3.005 0 01-1.02.113c-.706-.374-1.57-.582-1.63-1.602zm150.102-169.09c.298.022.578.153.787.367.212.211.325.497.336.797.049.699-.435.893-1.028.893-.787 0-1.496-.318-1.362-1.221.057-.547.593-.837 1.267-.837zm-61.352 7.051a4.635 4.635 0 01-2.17-1.182c.49-.593.564-1.977 1.429-1.69 1.295.423.565 1.863.748 2.854l-.007.018zM76.825 171.267a8.38 8.38 0 01-1.853-6.515 32.882 32.882 0 013.12-11.506c-.046 2.986-1.39 5.781-1.123 8.788.135 1.154-.508 2.294-.074 3.614 1.264-.3 2.612.096 3.734-.328 2.718-1.016 5.174.459 7.754.575 1.123.05 2.249.551 3.389 0 .893-.402 1.5.078 2.142.685 1.624 1.553 3.388 2.46 5.548.921a2.906 2.906 0 011.836-.296c1.957-.06 3.89-.45 5.717-1.154 2.114-.692 4.483-1.624 6.904-.971a8.84 8.84 0 001.602.318c3.159.278 3.177.296 3.41-2.856 0-.815.24-1.623.691-2.315a.834.834 0 01.403.021.79.79 0 01.346.201c2.064 4.419 1.341 8.838-2.016 12.202a56.21 56.21 0 01-5.781 4.927c-2.467 1.941-5.23 3.529-7.468 5.788a5.098 5.098 0 01-2.446 1.083 1.863 1.863 0 00-1.401 2.037 2.545 2.545 0 001.235 2.495c2.478 1.49 5.471.819 8.008 1.991 1.324-2.054 3.819 0 5.51-1.641.748-.706 2.647.134 4.069-.523 2.181-1.006 4.687-1.419 5.637-4.094.116-.296.596-.342.97-.388 4.779-1.366 8.841-3.558 10.306-8.831.657-2.315 1.606-4.553 1.906-7.207 2.351 2.238 2.178 4.257-.3 7.811-1.585 1.193 1.151 3.392-1.024 4.44l-2.414 3.19c-1.937.057-2.986 1.49-4.182 2.729-3.236 1.44-6.731 2.495-9.66 4.475-3.311 2.181-7.024 2.661-10.624 3.508-1.588.374-3.303.134-4.754 1.19a.594.594 0 01-.268.165c-.102.036-.21.048-.318.036a.874.874 0 01-.307-.085.738.738 0 01-.24-.212c-2.467-2.527-5.48-1.489-8.4-1.133-2.918.353-5.548-.211-8.329-.67-2.354-.378-4.782-.974-7.21-.868-4.483.194-7.645-2.4-11.002-4.677a1.6 1.6 0 01.498-.6c2.11-1.151 3.459 1.098 5.29 1.221 2.39.177 4.645 1.567 7.162.953.18-.049.374-.123.519-.049 3.674 2.086 7.055.328 10.46-.816a2.852 2.852 0 001.547-1.037 2.81 2.81 0 00.564-1.779c0-1.129-.593-2.238-1.694-1.959-2.41.597-3.494-1.189-5.117-2.237a61.271 61.271 0 01-10.726-8.609c-.622-.614-1.497-1.048-1.592-2.096l.046.088zm-37.236-38.573c.671-.988 1.123-2.019-.317-2.65-.586-.262-1.613.045-1.497-.971.078-.808 1.094-.787 1.72-1.105.239-.136.47-.287.69-.451-.892-.865-2.353-.48-3.063-1.645.653-.653 1.603.116 2.411-.297-.798-.893-2.181-1.21-2.037-2.661 2.093-.346 2.986 1.221 3.985 2.538 1.497 2.103 2.435 4.553 3.512 6.886a21.527 21.527 0 007.376 9.511c.745.565 1.85.883 1.9 2.104-1.536.586-3.093 1.327-4.003-.942-.078-.202-.964-.336-1.25-.152-1.68 1.048-2.315-.395-3.063-1.271-.999-1.189-2.898-2.936-3.886-3.264l-.519-.152c1.207-2.492-3.215-2.99-1.94-5.495h-.019v.017zm117.586-6.928c.247.138 1.049-.459.749.346-.353.925-1.536.752-2.369 1.21.297.858 1.13.685 1.67 1.02.893.547 1.161 1.296-.127 1.536-1.889.346-1.687 1.288-1.229 2.728.375 1.154-.635 2.269-.892 3.212-1.006 3.427-5.549 3.526-5.979 7.136-.156 1.172-.713 0-1.077.05-1.016.134-2.34-1.222-2.986 1.016-.18.671-2.435.6-3.734-.095a1.044 1.044 0 01.177-.748c3.166-2.365 6.381-4.659 8.294-8.33a40.57 40.57 0 002.146-4.93c.211-.71.751-1.229.97-1.942.636-2.315 2.171-2.89 4.349-2.237l.038.028zm1.447-3.833c1.5-1.641 3.565-2.015 5.637-2.276.97-.124 2.093.105 2.153-1.384 1.168 1.433 1.228 2.393-1.02 2.354-2.012 0-3.734.893-5.499 1.758-.452-.078-1.256.847-1.271-.452zm-23.551 25.172l2.562-1.327c.671 1.221-1.045 2.442 0 3.67.272.653-.074.752-.593.646.085-1.02-.54-1.443-1.383-1.588-.999-.18-.749-.787-.558-1.391h-.028v-.01zm-76.942-1.271c1.133-.236 1.536.974 2.411 1.225.085 1.323-1.366 1.998-1.765 1.719a2.347 2.347 0 01-.875-1.377 2.414 2.414 0 01.219-1.613v.05l.01-.004zm-1.545 8.467c.469-1.567 1.718-2.237.892-3.423-.278-.41 0-1.151.297-1.19a2.573 2.573 0 011.701.512c.519.431-.385.653-.402.971-.05 1.447-1.26 1.835-2.489 3.13zm80.435-4.207l.596-.646c1.585.671-.353 1.991.519 2.796l.893 1.489c-1.835-.346-2.315-1.959-3.025-3.131-.458-.748.597-.423 1.01-.48v-.028h.007zm-79.603-48.872c-1.835 1.698-4.147 2.45-6.458 3.17.564-4.045 2.167-4.825 6.459-3.17zm-6.402 3.12c-.808 2.083-2.45 3.364-4.32 4.402-.752-1.271-1.366-2.189.575-3.382a7.024 7.024 0 013.742-1.02h.003zm98.965 7.744l-1.991-3.282c1.719 0 3.321 0 3.177 2.551-.074 1.299.752 2.242 2.364.914l-1.27 2.083-2.28-2.266zm-30.395 48.353a.782.782 0 01-.459-.078c-.223-1.652-.194-3.494-1.606-4.627-.748-.617-.519-1.221-.586-1.856 0-.152.318-.519.459-.509.935.078.896.943 1.2 1.536.137.222.282.434.455.624l1.006 4.91h-.219l-.24-.046-.01.046zm28.298-51.741c-1.313-.434-1.881-1.606-2.601-2.637 2.121-.374 3.064.456 2.601 2.637zm-102.282.494c1.13 1.087.988 1.493-1.066 2.76.826-.748-.988-2.488 1.045-2.757h.021v-.003zm19.535 74.132c1.084.914 1.737 2.76 3.734 1.623.424-.24.95-.134 1.045.685.184.854.452 1.68.798 2.477l-.837.124c-2.59-.642-5.566-.586-6.72-3.727-2.495.692-2.986-2.333-4.962-2.757a2.994 2.994 0 01-.97-2.855 4.775 4.775 0 00-.587-3.91 7.108 7.108 0 01-.564-5.877c1.641 4.13.953 9.597 6.201 12.134.459 1.341 1.91 1.391 2.841 2.143l.021-.06zm-9.744-40.839c1.764-.752 3.158 1.083 4.867.748.48.519 2.237.318 1.066 1.807-2.249-.183-4.08-1.422-5.933-2.538" fill="#020203"/><path d="M125.393 117.38c.095-3.861 4.126-5.478 12.074-4.899-4.108 2.439-9.483.152-12.074 4.899zm7.775 3.381c-1.779 1.846-5.347 2.188-7.048.547a3.304 3.304 0 01-.748.089c-.597-.05-1.296-.06-1.334-.915a.731.731 0 01.116-.345.836.836 0 01.258-.258c.596-.318.96.247 1.341.508.243.155.289.586.423.893l-.035.028.046-.035c1.271 0 2.545.106 3.784 0 2.237-.222 3.829-1.489 4.002-3.731.155-1.785.999-1.958 2.449-2.015-1.087 1.864-1.835 3.727-3.254 5.234zm18.028-1.2c0-.893-1.404-1.009-1.125-2.057a2.355 2.355 0 00-1.267-1.652c-.749-.519.518-.297.222-.671-.028-.48-.078-.97-.117-1.489-2.707-6.9-7.941-10.684-15.042-12.184a9.819 9.819 0 00-1.976.389c-1.536-1.176-3.092-.6-4.659-.223-1.744.448-2.894 1.758-4.183 2.87a6.566 6.566 0 00-1.969 2.693c-.748-.195-.554-2.125-1.966-1.059l-.078.953a42.634 42.634 0 00-.451 8.202c0 .865.748 1.719.296 2.76-.91 1.969-.342 3.727 1.126 5.149a4.25 4.25 0 011.285 2.584 14.61 14.61 0 002.823 7.119 14.623 14.623 0 006.046 4.694c2.287 1.023 4.543 1.32 4.878 4.316.049.452.748.749 1.2 1.049 1.987.458 3.512-.855 5.23-1.384 2.93-3.191 6.876-5.562 8.104-10.098a6.452 6.452 0 01.893-3.469c.48-2.428-.491-4.994.596-7.387h.085a.836.836 0 000-1.133l.049.028zm-79.552 1.183c-.491.882-1.271.748-2.055.518v.029h-.098c-1.592 1.641-5.03 1.288-6.911-.576-1.496-1.489-2.199-3.324-3.303-5.315.931.452 1.92-.074 2.354 1.144 1.64 4.658 2.188 4.997 7.15 4.718.237-.009.473-.009.71 0l.049-.049h.05c.056-1.094.748-1.489 1.715-1.384.338.071.518.565.338.915zm-12.798-8.284c2.015.346 3.995-.078 5.982 0 2.983.106 5.654 2.517 5.506 5.471-2.608-5.344-7.938-3.057-11.488-5.471zm15.466 11.365a31.075 31.075 0 003.099-2.238c1.764-1.623 1.5-2.238-.749-3.247-.219-.095-1.736-1.059-1.323-1.489 1.313-1.352 1.641-2.577-.162-4.398l1.87.988c-2.87-2.026.558-5.012-1.045-7.292-.713 1.066.173 2.46-1.5 3.159-.48-3.504-3.14-5.223-5.71-7.03a.155.155 0 01-.088.028c-.029 0-.057 0-.085-.011a.201.201 0 01-.078-.046l-.056-.077h-2.718a21.47 21.47 0 00-8.361 1.853 21.564 21.564 0 00-12.777 20.693c.191 1.98.491 3.953.893 5.901l.152.882c2.584 4.257 4.8 8.831 9.717 11.03 1.066.617 2.428.395 3.455 1.27a.846.846 0 001.26-.099.8.8 0 00.162-.441c-.346-.324-1.662-.317-.596-1.143.625-.47 1.341-.749.931-1.596-1.048-2.237 1.497-2.661 2.048-2.689 4.556-.268 7.147-3.388 9.088-6.713.586-.971 2.841-1.722 1.814-3.614 2.69-.258 3.17-2.739 4.578-4.475-1.391 0-2.429 1.306-3.812.815l-.007-.021z" fill="#020203"/><path d="M152.291 130.15a1.353 1.353 0 01-.403-.897c-.01-.336.106-.663.325-.918.452-2.541 3.685-5.929 6.141-6.423-1.994.579-4.817 6.342-6.063 8.209v.029zm-58.8-8.4c-.576-1.324-1.822-2.891.653-2.831 2.036.046 4.185-1.348 5.982.748a5.353 5.353 0 00-6.586 2.054l-.05.032v-.003zm58.637-7.388c.671 1.723 2.686 2.143 3.523 3.805.391.791 1.267-.046 1.899-.317a9.033 9.033 0 018.724.434c.473 1.094.088 1.853-1.083 1.846-2.407.007-4.76.711-6.777 2.025 0 0-4.136 4.063-6.141 6.438a2.25 2.25 0 01-1.941-2.241c-.078-1.525-.452-3.081-.29-4.61a2.88 2.88 0 01.223-.854c-.29-3.056.575-.243-.039-1.344-.247-.953-1.496-3.48-1.736-4.402a4.6 4.6 0 01-.251-1.694c.095-.91.353-1.697 1.496-1.814 1.5.283 1.691 1.74 2.439 2.69l-.046.038zm-66.173 22.779a24.579 24.579 0 01-22.309 10.165 4.851 4.851 0 00-.219-.424c1.295-1.429 3.36-.218 4.74-1.362.77-.307 1.553-.558 2.354-.748 7.917-1.913 13.15-6.777 15.918-14.375.41-1.709.66-3.459.745-5.224 1.595-2.125 3.247-2.883 5.848-4.256 1.285.162-.05 1.92-.353 2.576-1.97 4.158-6.233 13.352-6.724 13.694v-.046zm55.306 6.477c0 .155-4.609 2.689-6.353 2.894-4.609.335-8.968 1.023-13.45-.685a44.318 44.318 0 01-5.531-2.986c-.97-.55-2.647-2.717-2.199-3.681 2.093 1.606 6.067 4.151 8.542 4.994a20.06 20.06 0 0011.463 0c1.765-.519 3.589-1.44 5.587-1.284.748.045 1.92-.24 1.92.748h.021zm-71.442 1.344c-1.341 2.048-4.532 1.719-6.173 2.344-.97-.056-4.779-.953-5.53-1.489l-3.858-1.882c-4.3-2.834-7.998-6.197-9.713-11.241.374-.469.967-4.581 1.687-3.995a21.324 21.324 0 002.248 6.042 18.018 18.018 0 007.295 7.341 26.518 26.518 0 006.018 2.69c2.428.918 6.29.374 8.026.18v.01zm22.666-23.329c-1.775 2.097-2.47 4.864-4.37 6.872-1.563-1.987-.67-4.341-.892-6.53-.084-.996-.052-2 .095-2.989.97-2.192.97-2.192 2.919-.388 1.048.695 1.249-.247 1.814-.794 1.306-1.239 2.47-1.557 4.782-1.836.106.078 4.059-.653 6.731 1.553 1.623 1.32 1.8 1.292 2.675-.046.953.413.865 1.222.854 2.037-.074 3.621-.247 7.27.942 10.782 0 .671 0 1.341-.921 1.341-.875-2.131-1.775-4.253-2.612-6.395a11.06 11.06 0 00-4.404-5.527c-3.438-1.419-5.577-.748-7.25 1.567a2.481 2.481 0 01-.374.346l.01.007zm-46.814 9.826c-.113.671-.336 1.256-1.161 1.271-1.066-2.058-2.093-4.133-3.188-6.17a7.605 7.605 0 00-3.857-3.635c-1.585-1.687-4.447-.988-5.827-3.092a.608.608 0 00-.223-.078.485.485 0 00-.229.029c-.999 1.644-1.941.751-2.188-.297-.297-1.239.854-1.92 1.97-2.121a13.308 13.308 0 017.429.424c.518.211 1.065 1.044 1.658.37.597-.67 1.987-3.102 3.082-3.967 1.009-.681 1.5-.106 1.764.752.357.939.388 1.976.081 2.929-1.7 4.228-.836 8.252.749 12.258a1.368 1.368 0 01-.078 1.288l.018.035v.004zm-.134-.865c-1.698-1.172-1.822-3.257-1.96-4.835-.218-2.552-2.367-8.354-.917-10.969.448-.816 1.285-1.017 1.881-2.813.823-.752 1.765-3.096 2.14-3.212 1.121-1.786 2.801-2.986 4.32-4.419l-.05.049c1.796-1.757 4.235-2.237 6.459-3.162a13.437 13.437 0 015.83-.988 52.22 52.22 0 017.38.49c-.201 1.402-.822 1.267-1.535 1.987-4.617.223-9.935.925-14.061 3.431-6.625 4.024-11.407 14.718-9.014 21.953.335.999.508 1.585-.473 2.488zm22.923-28.429l2.17-1.423c7.469 1.25 12.816 5.422 16.437 11.895 1.105 1.962 2.093 3.977 3.12 5.964-.748.618-2.45-.748-3.042 1.751a11.052 11.052 0 00-.882-3.882 22.479 22.479 0 00-8.856-10.575A21.355 21.355 0 0069 102.733a1.33 1.33 0 01-.586-.536l.046-.032zm80.093 12.815c-.423-2.534-2.707-5.763-4.733-7.666-2.89-2.707-4.186-4.849-8.869-5.294-.223-.219-2.249 0-3.159-.18-.921-.183-.748-1.143-.635-1.645a25.014 25.014 0 015.491 0 38.65 38.65 0 014.264 1.377 42.97 42.97 0 015.174 3.967 6.578 6.578 0 012.389 2.852s1.2 1.941 2.238 3.727c-1.126.049-2.075 2.241-2.238 2.894l.078-.032zm-40.867 15.547c-1.931-4.2-.614-8.753-1.419-13.059a39.519 39.519 0 015.901-9.624c.318-.374 2.947-2.852 3.622-2.316.67.537-1.988 2.789-2.528 3.364a20.593 20.593 0 00-5.576 16.62c.155 1.69.614 3.363.932 5.026a.536.536 0 01-.201.18.508.508 0 01-.269.07.526.526 0 01-.268-.07.734.734 0 01-.194-.191zm26.689-29.929c-.875.166.795 1.27-.473 1.327-1.496.077-5.152.155-6.423.596-1.497.078-3.272.643-4.874.816-1.156.462-2.352.82-3.572 1.069-1.218.748-2.686 1.959-3.907 2.658-.558-.893-1.496-.593-.748-1.084 3.935-2.795 9.896-5.449 14.686-5.746 1.228-.077 5.357-.423 5.34.374l-.029-.01zm-26.689 29.929h.932c.932 4.063 5.844 8.577 7.076 12.163-3.476-2.46-7.172-7.148-8.555-11.079l.547-1.084zm42.364-2.22c.049-1.786.077-3.582.162-5.372.039-.833-.374-1.881.893-2.237 0 1.863 0 3.727.077 5.601 0 .815-.374 1.913 1.028 2.058l.077 1.803a20.735 20.735 0 01-3.954 7.931 20.735 20.735 0 01-6.902 5.559l-2.238-.078c-.296-1.698 1.669-1.317 2.139-2.315.67-1.402 2.019-2.189 3.063-3.226a18.742 18.742 0 004.61-6.381c.44-1.081.806-2.191 1.094-3.322l-.049-.021zm1.154-7.588v-1.154c.833.116 1.602.625 2.541.374a1.881 1.881 0 01-2.534.748l-.007.032zm-9.449 19.772c-.123 1.313-2.237 1.941-2.59 3.053-1.913-.325-3.332 1.74-5.308 1.087.162-.346.487-.424.649-.749.671-.377 1.5-.501 2.171-.875 1.736 0 3.487-1.366 5.082-2.488l-.004-.028zm8.295-12.184c.105 1.271.049 2.46-1.084 3.325.335-1.115 1.055-1.786 1.084-3.325zm-32.93 129.466c1.807.078 3.593-.342 5.351.896 1.563 1.105 6.402-.751 7.997-4.129a1.647 1.647 0 01-.098-1.175c.105-.395.352-.731.691-.953 2.524-2.622 3.283-5.965 3.734-9.402.558-4.479-.374-8.859-1.023-13.25 2.859 5.647 2.742 11.605 1.493 17.562a25.213 25.213 0 01-3.868 8.637c-2.986 4.479-5.047 4.959-10.193 2.989-1.271-.483-2.94 0-4.091-1.193l.011.018h-.004zm-18.198-9.787c1.296-.049.847-1.461 1.497-1.913.491-.346.671-1.546 1.595-.893.699.491.152 1.017-.183 1.567a5.682 5.682 0 00-.431 1.691c-.625.152-1.422.247-1.606.864-1.006 3.159-3.166 2.16-4.906 1.151-1.736-1.009-2.81-.565-4.182.653a25.582 25.582 0 01-9.995 5.668c-.52.156-1.045.29-1.497-.173 1.899-1.941 4.567-2.555 6.833-3.882 1.26-.748 2.584-1.341 3.438-2.478 1.63-2.16 3.522-2.611 5.626-.97 2.103 1.634 2.996.367 3.811-1.285zm-19.708 8.608l1.497.163a14.321 14.321 0 01-9.84 1.958c-1.39-.183-2.93-.345-3.512-2.036.268 0 .593-.057.787.056 1.927 1.176 1.853-1.055 4.482-.787.847.029 1.68.166 2.496.413.423.078.836.205 1.228.374l2.862-.141z" fill="#219A46"/><path d="M128.922 241.573a1.7 1.7 0 01-.785-3.197 1.7 1.7 0 011.449-.068c.311.129.579.347.769.625a1.7 1.7 0 01-1.429 2.643l-.004-.003zm-4.009-13.969a1.684 1.684 0 011.059-1.568 1.729 1.729 0 011.856.367 1.703 1.703 0 01.405 1.871 1.71 1.71 0 01-.934.934 1.705 1.705 0 01-1.32-.018 1.683 1.683 0 01-.551-.387 1.653 1.653 0 01-.515-1.199zm-1.288 28.881a1.643 1.643 0 01-.943-.29 1.71 1.71 0 01.371-3.006 1.715 1.715 0 011.214.006 1.74 1.74 0 011.066 1.571 1.696 1.696 0 01-.491 1.207 1.576 1.576 0 01-.554.378 1.82 1.82 0 01-.663.134zm-3.41-11.866a1.696 1.696 0 01-1.2-2.912 1.752 1.752 0 011.864-.363 1.75 1.75 0 01.921 2.237 1.683 1.683 0 01-1.574 1.066v-.028h-.011zm-2.59 8.001c-.338 0-.669-.097-.953-.279a1.738 1.738 0 01-.632-.759 1.62 1.62 0 01-.095-.977 1.698 1.698 0 012.322-1.25c.312.129.579.346.769.625.191.277.292.606.29.942a1.675 1.675 0 01-.494 1.211 1.726 1.726 0 01-1.211.508l.004-.021zm-6.801-15.275a1.665 1.665 0 01-.943-.297 1.715 1.715 0 01-.672-2.005 1.697 1.697 0 011.044-1.036 1.702 1.702 0 011.462.159c.216.134.4.314.538.528a1.722 1.722 0 01-.159 2.102 1.718 1.718 0 01-.61.436c-.21.084-.435.126-.66.123v-.01zm0 10.454a1.657 1.657 0 01-.943-.297 1.71 1.71 0 01-.268-2.641 1.702 1.702 0 012.102-.241c.216.134.4.314.538.528.185.279.286.605.289.939a1.714 1.714 0 01-1.718 1.662v.05zm-7.278-9.6a1.7 1.7 0 01-.785-3.197 1.694 1.694 0 011.448-.068c.311.13.577.347.766.625a1.646 1.646 0 01-.219 2.132 1.704 1.704 0 01-1.2.494v.017l-.01-.003zm0 9.081a1.694 1.694 0 01-.328-3.364 1.741 1.741 0 011.757.72 1.653 1.653 0 01-.219 2.136 1.677 1.677 0 01-1.2.49v.018h-.01zm14.947-15.025a1.71 1.71 0 011.322.622 1.71 1.71 0 01.352 1.418 1.705 1.705 0 01-1.601 1.361 1.737 1.737 0 01-1.502-.761 1.732 1.732 0 01-.163-1.606c.083-.208.209-.397.371-.554a1.67 1.67 0 011.221-.501v.021zm-23.915 5.965a1.698 1.698 0 01-1.726-1.531 1.693 1.693 0 011.4-1.833 1.741 1.741 0 011.759.72c.189.278.288.607.285.943a1.722 1.722 0 01-1.715 1.662l-.003.039zm0 9.088a1.697 1.697 0 11.664-3.264c.31.129.578.346.769.624a1.65 1.65 0 01-.233 2.121c-.324.309-.754.48-1.2.48v.039zm-8.157.519a1.65 1.65 0 01-.942-.289 1.71 1.71 0 011.585-3 1.735 1.735 0 011.065 1.57 1.705 1.705 0 01-1.719 1.641l.011.078zm-2.718-12.113a1.69 1.69 0 011.06-1.567 1.734 1.734 0 011.86.364 1.691 1.691 0 01-.252 2.618 1.693 1.693 0 01-.949.283 1.734 1.734 0 01-1.605-1.066 1.609 1.609 0 01-.113-.671v.039zm-5.23 16.966a1.696 1.696 0 01-1.73-1.529 1.696 1.696 0 011.402-1.835 1.744 1.744 0 011.758.72c.189.278.288.607.285.943a1.716 1.716 0 01-1.715 1.659v.042zm-3.399-9.706a1.69 1.69 0 011.059-1.567 1.73 1.73 0 011.856.367 1.698 1.698 0 01-1.86 2.778 1.716 1.716 0 01-1.066-1.606l.011.028zm-3.399-13.623a1.708 1.708 0 01-1.733-1.989 1.707 1.707 0 011.303-1.378 1.71 1.71 0 011.77.679c.195.276.303.603.312.941a1.704 1.704 0 01-1.67 1.701l.018.046zm-1.027 25.03a1.7 1.7 0 01-1.644-2.035 1.694 1.694 0 01.864-1.16 1.69 1.69 0 012.21.552c.19.277.29.606.29.942a1.721 1.721 0 01-1.72 1.659v.042zm-2.87-12.759a1.692 1.692 0 01-1.389-2.721c.26-.341.64-.57 1.062-.642a1.732 1.732 0 011.757.72c.19.278.289.606.286.942a1.72 1.72 0 01-1.715 1.659v.042zm9.753-9.349a1.693 1.693 0 01.324 3.363 1.732 1.732 0 01-.985-.099 1.73 1.73 0 01-.772-.621 1.646 1.646 0 01-.283-.942 1.695 1.695 0 011.027-1.613 1.96 1.96 0 01.65-.145l.039.057zm56.262-2.478c-.335-1.489-1.401-2.46-2.312-3.586-.557-.681-2.986-2.834-3.688-3.448a2.251 2.251 0 00-1.419-.392c-.904.193-1.785.48-2.629.854-5.799 2.238-11.397 4.822-16.236 8.81v.095c-1.553.953-2.841 1.595-4.058.501a9.12 9.12 0 00-7.843-.518c-1.546.748-3.871-.124-5.107-.48-.826-.452-10.147-5.87-10.588-6.42a6.861 6.861 0 00-1.588-1.077c-2.14-.688-4.27-1.419-6.42-2.065-.749-.24-1.67-.547-2.312.117-1.719 1.74-3.6 3.727-3.734 6.07a6.518 6.518 0 01-1.8 4.105c-.247 1.267-1.313 7.895-1.447 8.905-.353 2.689-.325 5.4.931 7.906.654 1.433 3.177 6.504 3.897 7.464.29.24.653.318.942.519 1.814 1.232 3.389 1.589 4.483-.921.268-.614 2.84.519 3.59.815a4.309 4.309 0 002.84-.151 16.15 16.15 0 011.634-.893c2.92-1.366 6.152-2.337 8.411-4.67 2.012-2.086 3.73-2.911 6.423-1.193 1.765 1.116.89.597 1.935 1.26 2.114-.3 2.986-.166 5.318-1.316.932-.459 1.451.078 2.171.469 4.108 2.238 7.564 5.524 12.011 7.165 1.341.54 2.887.138 4.129.628 4.345 1.719 7.525.671 9.501-3.43a2.434 2.434 0 01.904-2.566c2.763-2.316 3.416-5.64 3.646-8.877.453-4.633-.07-9.31-1.536-13.729l-.049.049z" fill="#219A46"/></svg>