<svg width="600" height="114" fill="none" xmlns="http://www.w3.org/2000/svg"><path d="M3.794 108V3.27h73.758v20.562H29.358v21.48h44.424v20.604H29.358v21.528h48.194V108H3.794zm159.194-70.518a18.316 18.316 0 00-2.582-5.676 16.416 16.416 0 00-4.182-4.242 18.02 18.02 0 00-5.685-2.61 25.358 25.358 0 00-7.03-.918c-5.127 0-9.57 1.224-13.321 3.678-3.721 2.46-6.594 6.036-8.63 10.74-2.031 4.674-3.043 10.35-3.043 17.028 0 6.72.982 12.444 2.946 17.184 1.957 4.74 4.8 8.352 8.521 10.842 3.715 2.484 8.23 3.732 13.533 3.732 4.679 0 8.643-.75 11.879-2.25 3.273-1.536 5.751-3.702 7.436-6.498 1.691-2.796 2.534-6.084 2.534-9.87l4.751.564h-25.721V50.73H190v13.86c0 9.372-2.012 17.4-6.042 24.078a40.038 40.038 0 01-16.528 15.396c-6.994 3.576-15.03 5.37-24.121 5.37-10.091 0-18.957-2.166-26.606-6.498-7.642-4.326-13.6-10.5-17.867-18.51-4.272-8.04-6.406-17.592-6.406-28.638 0-8.592 1.291-16.206 3.873-22.86 2.582-6.678 6.182-12.336 10.794-16.974a46.693 46.693 0 0116.121-10.536A54.05 54.05 0 01143 1.842c6.121 0 11.824.87 17.091 2.604 5.309 1.74 9.988 4.2 14.054 7.368a39.157 39.157 0 019.97 11.298c2.546 4.368 4.127 9.156 4.752 14.37h-25.879zM205.073 108V3.27h25.563v42.036h41.685V3.27h25.515V108h-25.515V65.916h-41.685V108h-25.563zm105.345-84.168V3.27h89.412v20.562h-32.078V108h-25.213V23.832h-32.121zM502.345 3.27V108h-21.697l-42.084-60.444h-.673V108h-25.57V3.27h22l41.637 60.342h.878V3.27h25.509zm47.588 89.592v-74.04h20.812v74.04h-20.812zm-27.018-26.694V45.51h74.794v20.658h-74.794z" fill="#1C1C1C"/></svg>