<svg xmlns="http://www.w3.org/2000/svg" width="100" height="100" shape-rendering="geometricPrecision" text-rendering="geometricPrecision" image-rendering="optimizeQuality" fill-rule="evenodd" clip-rule="evenodd"><path fill="#fd4c75" d="M58.5 13.5c13.905 3.571 22.905 12.238 27 26a35.167 35.167 0 01-8 2 148.623 148.623 0 00-4 19c-2.57 4.077-5.736 7.744-9.5 11-1.03-.336-1.53-1.003-1.5-2 .475-2.582-.192-4.582-2-6v-3a59.571 59.571 0 01-1-14 22.157 22.157 0 009.5-3c.956-4.425-.877-6.092-5.5-5a181.684 181.684 0 01-25 1c-2.466-1.134-5.133-1.3-8-.5-.88 1.356-1.213 2.856-1 4.5-.472-2.031-1.472-3.698-3-5 1.846-4.737 4.846-8.404 9-11 2.33-1.743 4.997-3.076 8-4 3.674-.733 7.34-1.4 11-2 2.669-2.011 4.002-4.678 4-8z" opacity=".973"/><path fill="#ff7f9c" d="M58.5 13.5c.002 3.322-1.331 5.989-4 8-3.66.6-7.326 1.267-11 2-3.003.924-5.67 2.257-8 4v-3a11.989 11.989 0 00-6 1c-3.95 3.571-6.617 7.904-8 13h5c-3.426 5.766-5.093 12.099-5 19a35.167 35.167 0 00-8 2c-3.203-15.583.797-28.75 12-39.5A54.265 54.265 0 0136 14.5a145.35 145.35 0 0122.5-1z" opacity=".999"/><path fill="#ffebef" d="M35.5 27.5c-4.154 2.596-7.154 6.263-9 11h-5c1.383-5.096 4.05-9.429 8-13a11.989 11.989 0 016-1v3z"/><path fill="#6dc4f5" d="M46.5 24.5c8.524-.155 10.858 3.512 7 11-7.622 2.542-10.79-.125-9.5-8 .698-1.19 1.531-2.19 2.5-3z"/><path fill="#fd4b73" d="M26.5 38.5c1.528 1.302 2.528 2.969 3 5a30.334 30.334 0 0010 3 59.571 59.571 0 01-1 14v3c-1.194.47-1.86 1.47-2 3 .02 1.226.353 2.226 1 3 1.694 1.938 3.694 2.27 6 1a32.386 32.386 0 004-10c.65-.304 1.316-.637 2-1 .557 1.832 1.557 3.165 3 4 .411 5.079 3.078 7.745 8 8-.676 1.442-2.343 2.442-5 3a53.304 53.304 0 00-14 3 35.167 35.167 0 01-2 8c-13.333-4-22-12.667-26-26a35.167 35.167 0 018-2c-.093-6.901 1.574-13.234 5-19z" opacity=".967"/><path fill="#69c7f8" d="M38.5 39.5c3.986.666 8.153.999 12.5 1 4.557-.008 8.724-.675 12.5-2 4.623-1.092 6.456.575 5.5 5a22.157 22.157 0 01-9.5 3c-.663 2.141-.997 4.475-1 7 .029 2.77.695 5.103 2 7v3a19.22 19.22 0 011 6c-.838.342-1.172 1.008-1 2-4.922-.255-7.589-2.921-8-8-1.443-.835-2.443-2.168-3-4-.684.363-1.35.696-2 1a32.386 32.386 0 01-4 10c-2.306 1.27-4.306.938-6-1a19.22 19.22 0 011-6v-3c1.305-1.897 1.971-4.23 2-7-.003-2.525-.337-4.859-1-7a30.334 30.334 0 01-10-3c-.213-1.644.12-3.144 1-4.5 2.867-.8 5.534-.634 8 .5z"/><path fill="#bc81ae" d="M63.5 38.5c-3.776 1.325-7.943 1.992-12.5 2-4.347-.001-8.514-.334-12.5-1a181.76 181.76 0 0025-1z"/><path fill="#db3f62" d="M85.5 39.5c3.203 15.583-.797 28.75-12 39.5A54.265 54.265 0 0163 84.5a157.417 157.417 0 01-23.5 1 35.167 35.167 0 002-8 53.304 53.304 0 0114-3c2.657-.558 4.324-1.558 5-3-.172-.992.162-1.658 1-2h1c-.03.997.47 1.664 1.5 2 3.764-3.256 6.93-6.923 9.5-11a148.71 148.71 0 014-19 35.167 35.167 0 008-2z" opacity=".977"/><path fill="#c07daa" d="M39.5 46.5c.663 2.141.997 4.475 1 7-.029 2.77-.695 5.103-2 7a59.571 59.571 0 001-14z"/><path fill="#c27ca8" d="M59.5 46.5a59.571 59.571 0 001 14c-1.305-1.897-1.971-4.23-2-7 .003-2.525.337-4.859 1-7z"/><path fill="#c180ab" d="M52.5 63.5c-1.443-.835-2.443-2.168-3-4-.684.363-1.35.696-2 1 .12-1.086.787-1.753 2-2 2.267.862 3.267 2.529 3 5z"/><path fill="#bf7fab" d="M38.5 63.5a19.242 19.242 0 00-1 6c-.647-.774-.98-1.774-1-3 .14-1.53.806-2.53 2-3z"/><path fill="#c27ca8" d="M60.5 63.5c1.808 1.418 2.475 3.418 2 6h-1a19.242 19.242 0 00-1-6z"/><path d="M71.5 99.5h-44a246.13 246.13 0 00-7-2c-1.267-1.87-1.267-3.704 0-5.5 19.333-3.333 38.667-3.333 58 0 1.267 1.796 1.267 3.63 0 5.5a246.13 246.13 0 00-7 2z" opacity=".235"/></svg>