<svg xmlns="http://www.w3.org/2000/svg" width="100" height="100" shape-rendering="geometricPrecision" text-rendering="geometricPrecision" image-rendering="optimizeQuality" fill-rule="evenodd" clip-rule="evenodd"><path fill="#fe4a73" d="M38.5 13.5a250.919 250.919 0 01-11.5 16c-5.642 10.57-8.476 21.903-8.5 34h-9c-.167-16.337 0-32.67.5-49a207.407 207.407 0 0128.5-1z" opacity=".95"/><path fill="#de829a" d="M52.5 13.5h3c-.01 1.517-.677 2.684-2 3.5-3.52 2.373-6.187 4.873-8 7.5-2.284.475-4.284 1.475-6 3 .639-2.26 1.806-4.26 3.5-6a113.562 113.562 0 009.5-8z"/><path fill="#caa7b6" d="M66.5 13.5h6a62.317 62.317 0 00-18 11 10.521 10.521 0 00-3 2.5c-1.566.765-2.9.598-4-.5a192.914 192.914 0 0119-13z"/><path fill="#c4b9c4" d="M72.5 13.5c5.526-.321 10.86.012 16 1-4.98.796-10.314 1.962-16 3.5a246.276 246.276 0 00-15 7.5 5.728 5.728 0 01-3-1 62.317 62.317 0 0118-11z"/><path fill="#f8577c" d="M38.5 13.5h5c-14.46 13.33-21.793 29.997-22 50h-3c.024-12.097 2.858-23.43 8.5-34a250.919 250.919 0 0011.5-16z"/><path fill="#bdc6cd" d="M88.5 14.5c.904.709 1.237 1.709 1 3a90.09 90.09 0 00-16 1.5c-3.218 2.776-6.885 4.776-11 6a30.139 30.139 0 00-3 3.5l-2-3a246.276 246.276 0 0115-7.5c5.686-1.538 11.02-2.704 16-3.5z"/><path fill="#d597aa" d="M55.5 13.5h11a192.914 192.914 0 00-19 13c-1-.333-1.667-1-2-2 1.813-2.627 4.48-5.127 8-7.5 1.323-.816 1.99-1.983 2-3.5z"/><path fill="#b3d6d8" d="M89.5 17.5v3a45.552 45.552 0 00-14 1.5 186.148 186.148 0 00-13 8c-.837 1.011-1.17 2.178-1 3.5 1.4.6 2.4 1.6 3 3v7c-2.014-.108-3.68.558-5 2 .194-2.412 1.527-3.412 4-3v-7h-3c-2.045-2.197-2.378-4.53-1-7a30.139 30.139 0 013-3.5c4.115-1.224 7.782-3.224 11-6a90.09 90.09 0 0116-1.5z"/><path fill="#e2e2e2" d="M45.5 24.5c.333 1 1 1.667 2 2 1.1 1.098 2.434 1.265 4 .5a10.521 10.521 0 013-2.5c.891.61 1.891.943 3 1l2 3c-1.378 2.47-1.045 4.803 1 7a56.143 56.143 0 01-4.5 9c-4.928 2.117-9.094 5.117-12.5 9a303.438 303.438 0 00-4-3c1.832-4.184.499-6.85-4-8-.961-1.765-1.295-3.765-1-6 1.122-1.447 2.622-2.447 4.5-3 .495-1.973.662-3.973.5-6 1.716-1.525 3.716-2.525 6-3z"/><path fill="#aee4e3" d="M89.5 20.5v3c-10.977-.79-20.31 2.544-28 10-.17-1.322.163-2.489 1-3.5a186.148 186.148 0 0113-8 45.552 45.552 0 0114-1.5z"/><path fill="#9cf6f4" d="M89.5 23.5v8a559.57 559.57 0 00-14 3.5 145.47 145.47 0 01-8.5 7.5 217.163 217.163 0 00-2.5-6c-.6-1.4-1.6-2.4-3-3 7.69-7.456 17.023-10.79 28-10z" opacity=".978"/><path fill="#cdd5d6" d="M60.5 35.5h3v7c-2.473-.412-3.806.588-4 3 .978 4.413-1.022 7.08-6 8-.462-1.38-1.462-2.047-3-2-5.453 2.775-7.12 7.109-5 13h-4c-.49-3.987.176-7.654 2-11 3.406-3.883 7.572-6.883 12.5-9a56.143 56.143 0 004.5-9z"/><path fill="#ec6e8c" d="M43.5 13.5h9a113.562 113.562 0 01-9.5 8c-1.694 1.74-2.861 3.74-3.5 6-2.984 1.487-5.15 3.82-6.5 7a101.689 101.689 0 00-6.5 29h-5c.207-20.003 7.54-36.67 22-50z"/><path fill="#2b67a4" d="M47.5 34.5c6.161.444 7.495 3.277 4 8.5-2.718 1.033-4.55.2-5.5-2.5-.748-2.34-.248-4.34 1.5-6z"/><path fill="#7ee4fb" d="M89.5 38.5v4c-13.116.78-20.449 7.78-22 21h-5c2.26-15.593 11.26-23.927 27-25z" opacity=".992"/><path fill="#6fd5f9" d="M89.5 42.5v8c-8.572.241-13.239 4.575-14 13h4v1h-18v-1h6c1.551-13.22 8.884-20.22 22-21z" opacity=".987"/><path fill="#d695a9" d="M34.5 36.5c-.295 2.235.039 4.235 1 6 .304.65.637 1.316 1 2a70.334 70.334 0 00-4 16c-.14 1.53-.806 2.53-2 3-.166-4.346.001-8.68.5-13 1.653-4.684 2.82-9.35 3.5-14z"/><path fill="#dd839b" d="M39.5 27.5a18.436 18.436 0 01-.5 6c-1.878.553-3.378 1.553-4.5 3-.68 4.65-1.847 9.316-3.5 14a84.938 84.938 0 00-.5 13c-1.291-.237-2.291.096-3 1h-18v-1h17a101.689 101.689 0 016.5-29c1.35-3.18 3.516-5.513 6.5-7z"/><path fill="#cba5b4" d="M35.5 42.5c4.499 1.15 5.832 3.816 4 8a40.588 40.588 0 00-2 14h-10c.709-.904 1.709-1.237 3-1 1.194-.47 1.86-1.47 2-3a70.334 70.334 0 014-16 44.358 44.358 0 01-1-2z"/><path fill="#8cedf6" d="M89.5 31.5v7c-15.74 1.073-24.74 9.407-27 25h-7a29.22 29.22 0 001-9c-1.291.237-2.291-.096-3-1 4.978-.92 6.978-3.587 6-8 1.32-1.442 2.986-2.108 5-2v-7a217.163 217.163 0 012.5 6c2.943-2.4 5.777-4.9 8.5-7.5a559.57 559.57 0 0114-3.5z"/><path fill="#bfbcc5" d="M39.5 50.5a303.438 303.438 0 014 3c-1.824 3.346-2.49 7.013-2 11h-4c-.15-4.8.516-9.467 2-14z"/><path fill="#5cc9fe" d="M89.5 50.5v5c-4.826.828-8.16 3.495-10 8h-4c.761-8.425 5.428-12.759 14-13z"/><path fill="#4cadf3" d="M89.5 55.5v9h-10v-1c1.84-4.505 5.174-7.172 10-8z" opacity=".916"/><path fill="#a9e4e2" d="M53.5 53.5h-3a44.834 44.834 0 00-1 10h12v1h-16c-2.12-5.891-.453-10.225 5-13 1.538-.047 2.538.62 3 2z"/><path fill="#9ff9f4" d="M53.5 53.5c.709.904 1.709 1.237 3 1a29.22 29.22 0 01-1 9h-6c-.04-3.38.293-6.714 1-10h3z"/><path fill="#9ba4ac" d="M9.5 64.5h39a45.428 45.428 0 01-8 8h-1c-9.672.166-19.34 0-29-.5-.935-2.38-1.268-4.88-1-7.5z" opacity=".989"/><path fill="#9199a0" d="M48.5 64.5h41c.268 2.62-.065 5.12-1 7.5-9.66.5-19.328.666-29 .5h-19a45.428 45.428 0 008-8z" opacity=".985"/><path fill="#545a60" d="M39.5 72.5h20v4h-20v-4z" opacity=".908"/><path fill="#646d74" d="M39.5 76.5h20c.841 1.88 1.175 3.88 1 6h-22c-.175-2.12.159-4.12 1-6z"/><path fill="#959ea6" d="M38.5 82.5h30v5h-38v-5h8z" opacity=".991"/></svg>