<svg xmlns="http://www.w3.org/2000/svg" width="100" height="100" shape-rendering="geometricPrecision" text-rendering="geometricPrecision" image-rendering="optimizeQuality" fill-rule="evenodd" clip-rule="evenodd"><path fill="#5e256c" d="M41.5.5c2.813.946 4.146 2.946 4 6h20v4c-7.34-.166-14.674 0-22 .5 2.471 2.33 2.138 4.497-1 6.5a38.434 38.434 0 01-7-5c-1.756-1.691-2.256-3.691-1.5-6a171.158 171.158 0 017.5-6z" opacity=".884"/><path fill="#5e256d" d="M55.5 14.5a436.778 436.778 0 0110 5c-.36 7.58-4.36 10.913-12 10-.273-1.951.393-3.451 2-4.5a242.43 242.43 0 00-22-.5v-5h20c.33-1.822.998-3.49 2-5z" opacity=".77"/><path fill="#652e70" d="M22.5 38.5c-1.548.321-2.215 1.321-2 3h-1c-1.886-2.6-4.552-3.6-8-3h-3a17.906 17.906 0 00-5 3c-.282-1.278-.949-2.278-2-3 .81-.969 1.81-1.802 3-2.5-3.84-4.52-4.84-9.687-3-15.5 7.565-8.122 14.898-7.955 22 .5 2.038 5.754 1.038 10.754-3 15 .88.708 1.547 1.542 2 2.5z" opacity=".887"/><path fill="#f5b699" d="M10.5 18.5l8 1a27.36 27.36 0 01.5 11c-1.64 2.423-3.973 3.423-7 3-7.48-1.332-9.314-5.332-5.5-12 1.3-1.194 2.632-2.194 4-3z"/><path fill="#692d6f" d="M98.5 39.5c-1.583-.066-3.25.267-5 1-2.416-1.468-5.082-2.135-8-2-3.096-.593-5.43.407-7 3a111.126 111.126 0 00-1 21v1c-.617-.11-1.117-.444-1.5-1-.59-8.236-.424-16.236.5-24 .453-.958 1.12-1.792 2-2.5-5.281-6.22-5.281-12.553 0-19 7.369-4.092 13.702-2.926 19 3.5 1.84 5.813.84 10.98-3 15.5a20.665 20.665 0 014 3.5z" opacity=".89"/><path fill="#f0b197" d="M83.5 18.5c8.727-.072 12.06 4.095 10 12.5-4.894 6.066-9.394 5.9-13.5-.5-1.255-4.762-.088-8.762 3.5-12z"/><path fill="#5d2870" d="M1.5 38.5c1.051.722 1.718 1.722 2 3a135.173 135.173 0 00-1 22h19c.325-7.52-.008-14.852-1-22-.215-1.679.452-2.679 2-3 1.35.983 2.35 2.316 3 4a157.123 157.123 0 011 25h-27v-26l2-3z" opacity=".796"/><path fill="#3390ef" d="M11.5 38.5c3.448-.6 6.114.4 8 3a19.22 19.22 0 011 6h-4c-.285 1.788.048 3.455 1 5 1.667-1.667 2.667-1.333 3 1-.333 2.333-1.333 2.667-3 1a9.864 9.864 0 00-1 6c.92 1.396-1.747 1.73-8 1-.33-6.7.003-13.367 1-20a7.467 7.467 0 002-3z"/><path fill="#5e286c" d="M46.5 30.5c3.719-.728 6.719.272 9 3 4.867.53 7.2 3.197 7 8 2.948-.277 5.78.056 8.5 1 .5 17.997.667 35.997.5 54a143.732 143.732 0 01-22 2 143.732 143.732 0 01-22-2c-.167-18.003 0-36.003.5-54 2.72-.944 5.553-1.277 8.5-1-.285-1.788.048-3.455 1-5 3.533-1.284 6.533-3.284 9-6z" opacity=".774"/><path fill="#867f8d" d="M41.5 38.5h16v3h-16v-3z"/><path fill="#fd4a73" d="M85.5 38.5c2.918-.135 5.584.532 8 2 .61.891.943 1.891 1 3v18h-12c-.166-6.01 0-12.01.5-18a64.953 64.953 0 012.5-5z"/><path fill="#5e256d" d="M76.5 38.5c-.924 7.764-1.09 15.764-.5 24 .383.556.883.89 1.5 1h19c.166-6.342 0-12.675-.5-19-.383-.556-.883-.89-1.5-1a5.728 5.728 0 00-1-3c1.75-.733 3.417-1.066 5-1-.172.992.162 1.658 1 2v26h-27c-.331-8.36.002-16.693 1-25 .65-1.684 1.65-3.017 3-4z" opacity=".747"/><path fill="#34acfa" d="M8.5 38.5h3a7.467 7.467 0 01-2 3 100.85 100.85 0 00-1 20h-4c-.166-6.01 0-12.01.5-18a24.02 24.02 0 003.5-5z"/><path fill="#486fc2" d="M8.5 38.5a24.02 24.02 0 01-3.5 5c-.5 5.99-.666 11.99-.5 18h4c6.253.73 8.92.396 8-1a9.864 9.864 0 011-6c1.667 1.667 2.667 1.333 3-1-.333-2.333-1.333-2.667-3-1-.952-1.545-1.285-3.212-1-5h4a19.242 19.242 0 00-1-6h1c.992 7.148 1.325 14.48 1 22h-19c-.264-7.39.07-14.723 1-22a17.906 17.906 0 015-3z"/><path fill="#5f82bd" d="M35.5 84.5v1c-.667-12.84-1.333-25.84-2-39-1 15.653-1.333 31.32-1 47-1.985-15.966-2.652-32.3-2-49h5v40z"/><path fill="#5fbdf1" d="M63.5 45.5h3v48h-34c-.333-15.68 0-31.347 1-47 .667 13.16 1.333 26.16 2 39 4.488.666 9.154 1 14 1 5.05-.007 9.718-.673 14-2v-39z"/><path fill="#5f6ba9" d="M63.5 45.5c1.419-.951 3.085-1.285 5-1 .652 16.7-.015 33.034-2 49v-48h-3z"/><path fill="#f46c9c" d="M85.5 38.5a64.953 64.953 0 00-2.5 5c-.5 5.99-.666 11.99-.5 18-1.419.951-3.085 1.285-5 1-.33-7.032.003-14.032 1-21 1.57-2.593 3.904-3.593 7-3z"/><path fill="#bc3b71" d="M94.5 43.5c.617.11 1.117.444 1.5 1 .5 6.325.666 12.658.5 19h-19v-1c1.915.285 3.581-.049 5-1h12v-18z"/><path fill="#75417d" d="M38.5 44.5v39h21a380.842 380.842 0 001-39 398.436 398.436 0 013 40c-4.282 1.327-8.95 1.993-14 2-4.846 0-9.512-.334-14-1v-1a398.436 398.436 0 013-40z"/><path fill="#fbdedf" d="M38.5 46.5h21c.475 2.582-.192 4.582-2 6h-16v3c-1.333 1.667-1.333 3.333 0 5v3c5.526.321 10.86-.012 16-1 1.086.12 1.753.787 2 2-.247 1.213-.914 1.88-2 2h-16v3h16c2.667 1 2.667 2 0 3h-16v3c5.81.99 11.81 1.323 18 1v7h-21v-37z"/><path fill="#76417e" d="M57.5 72.5v3h-16v-3h16z"/><path fill="#723c7a" d="M57.5 66.5v3h-16v-3h16z"/><path fill="#814d85" d="M41.5 60.5c5.77-.613 11.104.054 16 2-5.14.988-10.474 1.321-16 1v-3z"/><path fill="#814e86" d="M57.5 52.5v3h-16v-3h16z"/><path fill="#dab1c1" d="M38.5 44.5h22a380.842 380.842 0 01-1 39v-7c-6.19.323-12.19-.01-18-1h16v-3c2.667-1 2.667-2 0-3v-3c1.086-.12 1.753-.787 2-2-.247-1.213-.914-1.88-2-2-4.896-1.946-10.23-2.613-16-2-1.333-1.667-1.333-3.333 0-5h16v-3c1.808-1.418 2.475-3.418 2-6h-21v-2z"/></svg>