<svg width="100" height="100" fill="none" xmlns="http://www.w3.org/2000/svg"><path opacity=".94" fill-rule="evenodd" clip-rule="evenodd" d="M83.5 30.5c-1.311 4.183-1.311 8.516 0 13l2 2a105.628 105.628 0 010 29 264.732 264.732 0 01-7 15c-17.461.64-34.795 1.307-52 2-3.631.468-6.965-.199-10-2a36.874 36.874 0 01-1-12h-4v-35h15c4.184.666 8.518 1.333 13 2 1.333 1.333 1.333 2.667 0 4a43.123 43.123 0 01-13 1h-8v20h8c10.153.994 20.486 1.328 31 1v6c-10.514-.328-20.847.006-31 1h-4c.238 2.569 1.571 4.235 4 5 16.3 1.985 32.967 2.652 50 2v-8h-8v-6h12v-21h-33v-6h29v-10c-4.517-.666-9.183-1.333-14-2l-3-2c-.604-3.803-1.27-7.47-2-11v-4c-10.006-.166-20.006 0-30 .5a19.894 19.894 0 00-4 3.5 91.124 91.124 0 00-1 19h-7c-.605-9.86.062-19.527 2-29a300.626 300.626 0 0149 0 148.617 148.617 0 0014 15c.825.886 1.825 1.219 3 1v6zm-57 19v20h-8v-20h8zm0 28v5c-2.429-.765-3.762-2.431-4-5h4z" fill="#FC4D75"/><path opacity=".993" fill-rule="evenodd" clip-rule="evenodd" d="M57.5 17.5v1a43.123 43.123 0 001 13l3 1.5c4.989.5 9.989.666 15 .5v10h-29v6h33v21h-12v6h8v8c-17.033.652-33.7-.015-50-2v-5c10.153-.994 20.486-1.328 31-1v-6c-10.514.328-20.847-.006-31-1v-20a43.123 43.123 0 0013-1c1.333-1.333 1.333-2.667 0-4-4.482-.667-8.816-1.334-13-2v-25h31z" fill="#64C9FB"/><path fill-rule="evenodd" clip-rule="evenodd" d="M64.5 20.5c2.253 1.243 4.253 2.91 6 5a9.864 9.864 0 01-6 1v-6z" fill="#66C7F8"/><path fill-rule="evenodd" clip-rule="evenodd" d="M57.5 18.5c.73 3.53 1.396 7.197 2 11l3 2c4.816.667 9.483 1.334 14 2-5.011.166-10.011 0-15-.5l-3-1.5a43.123 43.123 0 01-1-13z" fill="#9C9ECC"/><path opacity=".919" fill-rule="evenodd" clip-rule="evenodd" d="M83.5 30.5c1.917.906 3.583 2.239 5 4 1 20.99 1.333 41.99 1 63h-63v-6c17.699.653 35.032-.014 52-2a264.732 264.732 0 007-15 105.628 105.628 0 000-29l-2-2c-1.311-4.484-1.311-8.817 0-13z" fill="#6AC7F9"/><path fill-rule="evenodd" clip-rule="evenodd" d="M37.5 55.5c-.982 3.462-1.315 7.129-1 11h-3c.315-3.871-.018-7.538-1-11h-4v-4h12v4h-3z" fill="#F75179"/><path fill-rule="evenodd" clip-rule="evenodd" d="M58.5 51.5h12v4h-4c-.982 3.462-1.315 7.129-1 11h-3v-11h-4v-4z" fill="#F75279"/><path fill-rule="evenodd" clip-rule="evenodd" d="M32.5 55.5c.982 3.462 1.315 7.129 1 11h3c-.315-3.871.018-7.538 1-11v13h-5v-13z" fill="#B487B4"/><path fill-rule="evenodd" clip-rule="evenodd" d="M58.5 51.5v4h4v11h3c-.315-3.871.018-7.538 1-11v13h-5v-12h-4c-.285-1.915.048-3.581 1-5z" fill="#B885B2"/><path fill-rule="evenodd" clip-rule="evenodd" d="M47.5 53.5c.12 1.086.787 1.753 2 2 1.213-.247 1.88-.914 2-2 .683-1.676 2.017-2.343 4-2-.73 2.78-1.396 5.613-2 8.5.604 2.887 1.27 5.72 2 8.5h-4v-4h-4v4h-4c.73-2.78 1.396-5.613 2-8.5-.604-2.887-1.27-5.72-2-8.5 1.983-.343 3.317.324 4 2z" fill="#EB5E85"/><path fill-rule="evenodd" clip-rule="evenodd" d="M47.5 53.5h4c-.12 1.086-.787 1.753-2 2-1.213-.247-1.88-.914-2-2z" fill="#B089B6"/><path fill-rule="evenodd" clip-rule="evenodd" d="M78.5 89.5c-16.968 1.986-34.301 2.653-52 2 17.205-.693 34.539-1.36 52-2z" fill="#C07EAA"/></svg>