<svg width="100" height="100" fill="none" xmlns="http://www.w3.org/2000/svg"><path opacity=".803" fill-rule="evenodd" clip-rule="evenodd" d="M63.5 24.5c.752 1.6 1.752 3.1 3 4.5a2.428 2.428 0 01-2 .5c-4.545-1.136-8.712-3.136-12.5-6-.399.228-.565.562-.5 1-1.796-2.4-4.13-4.067-7-5 .321-1.548 1.321-2.215 3-2V.5h4v17c2.465.965 4.965 1.965 7.5 3 1.975.965 3.475 2.299 4.5 4z" fill="#03AEE6"/><path opacity=".716" fill-rule="evenodd" clip-rule="evenodd" d="M44.5 19.5c2.87.933 5.204 2.6 7 5v16h-4v-16a51.593 51.593 0 00-10 4c.437-2.095-.563-3.762-3-5 2.994-1.978 6.327-3.311 10-4z" fill="#02BFE2"/><path opacity=".798" fill-rule="evenodd" clip-rule="evenodd" d="M63.5 24.5a114.212 114.212 0 0114 4.5c.935 2.38 1.268 4.88 1 7.5-.972 1.993-2.305 2.326-4 1v-1c-1.618-.951-2.951-2.284-4-4-1.027 1.291-2.027 1.291-3 0-1.4-.6-2.4-1.6-3-3a2.428 2.428 0 002-.5 18.702 18.702 0 01-3-4.5z" fill="#08A4E8"/><path opacity=".686" fill-rule="evenodd" clip-rule="evenodd" d="M34.5 23.5c2.437 1.238 3.437 2.905 3 5l-6 4c3.71 1.14 6.71 3.14 9 6-1.025.397-1.191 1.063-.5 2l1-1c2.165 1.98 3.665 4.313 4.5 7-7.251-3.784-14.251-7.117-21-10-1.208-.734-2.541-1.067-4-1-.395-2.544.271-4.711 2-6.5a116.02 116.02 0 0012-5.5z" fill="#00D0DC"/><path opacity=".633" fill-rule="evenodd" clip-rule="evenodd" d="M67.5 32.5c.973 1.291 1.973 1.291 3 0 1.049 1.716 2.382 3.049 4 4-3.958 1.209-7.625 2.876-11 5a21.628 21.628 0 01-4-5 66.29 66.29 0 018-4z" fill="#06B1E3"/><path opacity=".71" fill-rule="evenodd" clip-rule="evenodd" d="M59.5 36.5a21.628 21.628 0 004 5c-5.215 4.066-11.215 5.733-18 5-.836-2.687-2.336-5.02-4.5-7l-1 1c-.692-.937-.525-1.603.5-2a21.16 21.16 0 017 2c.597.639 1.43.972 2.5 1 3.409-1.399 6.575-3.065 9.5-5z" fill="#01CCE0"/><path opacity=".824" fill-rule="evenodd" clip-rule="evenodd" d="M78.5 36.5v19c-.802 1.452-1.302 3.118-1.5 5-.708-.88-1.542-1.547-2.5-2v-21c1.695 1.326 3.028.993 4-1z" fill="#01B8E4"/><path opacity=".672" fill-rule="evenodd" clip-rule="evenodd" d="M20.5 35.5c1.459-.067 2.792.266 4 1v25c-1.205-1.638-2.538-1.97-4-1v-25z" fill="#00AAC5"/><path opacity=".765" fill-rule="evenodd" clip-rule="evenodd" d="M62.5 55.5c1.234 2.907 3.234 5.24 6 7-1.291 1.027-1.291 2.027 0 3a202.118 202.118 0 01-14-7c-.952-1.545-1.285-3.212-1-5 3.252-.21 6.252.456 9 2z" fill="#0FD2E2"/><path opacity=".714" fill-rule="evenodd" clip-rule="evenodd" d="M62.5 55.5c3.885 1.86 7.719 3.86 11.5 6 .483-.948.65-1.948.5-3 .958.453 1.792 1.12 2.5 2 .198-1.882.698-3.548 1.5-5a32.437 32.437 0 00.5 8c2.421 2.197 5.255 3.53 8.5 4 .017 3.692 1.35 6.692 4 9a36.832 36.832 0 01-8-4c.438.065.772-.101 1-.5a12.134 12.134 0 00-4.5-3.5l-1-3-1 1c-2.516-4.88-5.349-5.214-8.5-1h-1c-1.291-.973-1.291-1.973 0-3-2.766-1.76-4.766-4.093-6-7z" fill="#0FC3E4"/><path opacity=".677" fill-rule="evenodd" clip-rule="evenodd" d="M33.5 63.5a14.76 14.76 0 01-4-5 53.21 53.21 0 009-4 13.117 13.117 0 017-1c.24 1.967-.094 3.8-1 5.5a5396.064 5396.064 0 01-11 4.5z" fill="#06B2C8"/><path opacity=".782" fill-rule="evenodd" clip-rule="evenodd" d="M47.5 47.5h4v27h-4v-27z" fill="#00C4D4"/><path opacity=".754" fill-rule="evenodd" clip-rule="evenodd" d="M29.5 58.5a14.76 14.76 0 004 5c-1.034 1.187-2.367 2.02-4 2.5l3 1.5c-.11.617-.444 1.117-1 1.5 2.582 1.338 3.249 3.171 2 5.5a35.256 35.256 0 00-12-4 807.966 807.966 0 01-5-4c.815-1.337 1.982-2.337 3.5-3 .483-.948.65-1.948.5-3 1.462-.97 2.795-.638 4 1a18.941 18.941 0 005-3z" fill="#0497BA"/><path opacity=".731" fill-rule="evenodd" clip-rule="evenodd" d="M83.5 72.5a21.216 21.216 0 00-7-2c-4.01 1.344-8.01 2.677-12 4l-3-4a80.173 80.173 0 018-5c3.151-4.214 5.984-3.88 8.5 1l1-1 1 3a12.134 12.134 0 014.5 3.5c-.228.399-.562.566-1 .5z" fill="#01CFDF"/><path opacity=".692" fill-rule="evenodd" clip-rule="evenodd" d="M32.5 67.5l10 5c-1.626 2.62-.96 4.454 2 5.5-.556.383-.89.883-1 1.5-3.642-1.154-6.976-2.821-10-5 1.249-2.329.582-4.162-2-5.5.556-.383.89-.883 1-1.5z" fill="#049EC0"/><path opacity=".708" fill-rule="evenodd" clip-rule="evenodd" d="M87.5 67.5a82.31 82.31 0 0011 5v6c-2.888.51-5.221-.156-7-2-2.65-2.308-3.983-5.308-4-9z" fill="#16BDE8"/><path opacity=".762" fill-rule="evenodd" clip-rule="evenodd" d="M16.5 66.5a807.966 807.966 0 005 4 99.296 99.296 0 00-14 7 13.117 13.117 0 01-7 1v-6a227.714 227.714 0 0016-6z" fill="#0B73A6"/><path opacity=".686" fill-rule="evenodd" clip-rule="evenodd" d="M42.5 72.5c2.142 2.162 4.809 3.162 8 3 1.22 1.782 1.886 3.782 2 6-.99 5.475-1.323 11.142-1 17h-4v-17c-1.7-.027-3.033-.694-4-2 .11-.617.444-1.117 1-1.5-2.96-1.046-3.626-2.88-2-5.5z" fill="#039EBF"/><path opacity=".564" fill-rule="evenodd" clip-rule="evenodd" d="M61.5 70.5l3 4a37.574 37.574 0 01-12 7c-.114-2.218-.78-4.218-2-6a134.96 134.96 0 0011-5z" fill="#01B8CC"/></svg>