<svg xmlns="http://www.w3.org/2000/svg" viewBox="0 0 100 100"><g stroke-width="2" fill="none"><path stroke="#803945" vector-effect="non-scaling-stroke" d="M47.75 9.21Q33.2 24.33 39.53 44.67q.53 1.73 1.68 3.31.46.63.6-.13c1.32-7.18 8.4-12.72 14.25-5.25"/><path stroke="#6f1801" vector-effect="non-scaling-stroke" d="M56.06 42.6l2.24 4.98a.46.46 0 00.85-.02q9.32-23.14-8.57-39.83-.4-.38-.9-.18-1.24.49-1.93 1.66"/><path stroke="#ef5146" vector-effect="non-scaling-stroke" d="M56.06 42.6q3.26-9.16.42-18.46"/><path stroke="#6f1801" vector-effect="non-scaling-stroke" d="M56.48 24.14q-.66-3.54-3.12-6.2"/><path stroke="#ef5146" vector-effect="non-scaling-stroke" d="M53.36 17.94q-1.25-5.35-5.61-8.73"/><path stroke="#803945" vector-effect="non-scaling-stroke" d="M53.36 17.94c-9.88-4.14-13.64 10.65-3.71 11.54q4.67.42 6.83-5.34"/><path stroke="#806f2b" vector-effect="non-scaling-stroke" d="M33.86 47l2.45-.32q.63-.09.43-.69-1.85-5.63-2.25-11.54a.49.49 0 00-.71-.41l-5.35 2.68q-.44.22-.5.71l-2.68 19.55q-.07.52.44.67c1.99.58 3.16.07 3.92-1.95q1.55-4.12 3.41-8.08.26-.54.84-.62m31.1-7.75l-1.82 6.98q-.15.58.45.52 2.3-.22 3.66 1.54"/><path stroke="#7f6701" vector-effect="non-scaling-stroke" d="M67.25 48.29l3.68 8.81q.22.52.77.55l2.4.14q.69.04.59-.64l-2.68-19.66q-.08-.63-.66-.9l-5.08-2.4q-.51-.24-.6.32l-.71 4.74"/><path stroke="#ffd62c" vector-effect="non-scaling-stroke" d="M67.25 48.29l1.2-.65q.41-.23.36-.7l-.84-7.16q-.05-.38-.42-.47-1.31-.31-2.59-.06"/><path stroke="#803c29" vector-effect="non-scaling-stroke" d="M48.94 42.32q-2.44 1.45-3.53 4.17-4.5 11.29 4.03 19.55.42.41.85.01 7.98-7.38 4.49-18.51-1.35-4.29-4.73-5.35-.58-.18-1.11.13"/><path stroke="#516780" vector-effect="non-scaling-stroke" d="M23.06 60.88q-1.35.01-1.18-1.33l1.46-12.09q.07-.63-.56-.63l-6.46-.03q-.62 0-.62.62l.08 39.61q0 .51.51.5 17.35-.35 34.63 1.24c2.07.19 3.37-1.28 5.58-1.28q13.57.03 27.16 0a.79.79 0 00.79-.8l-.19-39.29q-.01-.61-.61-.6l-6.63.11q-.56 0-.49.57l1.61 12.27a.95.94 85.6 01-.91 1.07l-7.31.15q-.71.01-.98-.65l-3.87-9.26q-.21-.52-.74-.71-3.47-1.29-4.27 2.23-1.06 4.71-2.46 9.38-.16.54.4.54h9.49q1.24 0 1.24 1.24l.02 19.8q0 .73-.73.73l-35.45.12a1.32 1.32 0 01-1.32-1.32V64.25A1.75 1.75 0 0133 62.5h8.99q.52 0 .36-.5c-1.08-3.41-1.65-13.2-6.69-11.76q-.52.14-.73.64l-3.89 9.33q-.26.63-.94.63l-7.04.04"/><path stroke="#537e80" vector-effect="non-scaling-stroke" d="M55.52 65.68a.83.83 0 00-.57.24l-4.53 4.51a.83.83 0 01-1.19-.02l-4.29-4.63a.83.83 0 00-.62-.27l-9.27.11a.83.83 0 00-.82.83l.06 13.97a.83.83 0 00.83.83h29.74a.83.83 0 00.83-.83l.04-14.08a.83.83 0 00-.85-.83l-9.36.17"/><path stroke="#707071" vector-effect="non-scaling-stroke" d="M56.28 91.11c-1.8 1.64-8.54.79-11.16.53-10.44-1.04-20.83-.92-31.31-.89q-.89 0-.62.84l.53 1.66q.15.5.68.5 34.91.01 69.83 0c1.61 0 2.57-.83 2.42-2.44q-.05-.56-.61-.56H57.22q-.53 0-.94.36"/><path stroke="#516780" vector-effect="non-scaling-stroke" d="M53.05 23.36a3.07 3.07 0 00-3.07-3.07 3.07 3.07 0 00-3.07 3.07 3.07 3.07 0 003.07 3.07 3.07 3.07 0 003.07-3.07"/><path stroke="#803c29" vector-effect="non-scaling-stroke" d="M51.69 46.83a1.74 1.74 0 00-1.74-1.74 1.74 1.74 0 00-1.74 1.74 1.74 1.74 0 001.74 1.74 1.74 1.74 0 001.74-1.74m-.198 5.517a.88.88 0 00-.882-.878l-1.24.002a.88.88 0 00-.878.882l.016 9.5a.88.88 0 00.882.878l1.24-.002a.88.88 0 00.878-.882l-.016-9.5"/><path stroke="#516780" vector-effect="non-scaling-stroke" d="M28.102 69.107a.43.43 0 00-.437-.424l-8.498.134a.43.43 0 00-.424.437l.035 2.2a.43.43 0 00.437.423l8.498-.134a.43.43 0 00.424-.437l-.035-2.2m53.138.144a.49.49 0 00-.49-.49h-8.38a.49.49 0 00-.49.49v2.26a.49.49 0 00.49.49h8.38a.49.49 0 00.49-.49v-2.26m-53.236 6.752a.98.98 0 00-.982-.978l-7.26.012a.98.98 0 00-.978.982l.012 7.26a.98.98 0 00.982.978l7.26-.012a.98.98 0 00.978-.982l-.012-7.26m53.269.004a.98.98 0 00-.977-.983l-7.4-.026a.98.98 0 00-.983.977l-.026 7.48a.98.98 0 00.977.983l7.4.026a.98.98 0 00.983-.977l.026-7.48"/><path stroke="#806f2b" vector-effect="non-scaling-stroke" d="M24.992 78.525a.46.46 0 00-.467-.453l-2.26.036a.46.46 0 00-.452.467l.035 2.24a.46.46 0 00.467.453l2.26-.036a.46.46 0 00.452-.467l-.035-2.24m53.242.649a1.04 1.04 0 00-.992-1.086l-1.158-.053a1.04 1.04 0 00-1.087.992l-.051 1.139a1.04 1.04 0 00.992 1.086l1.158.053a1.04 1.04 0 001.087-.992l.051-1.139"/></g><path d="M27.98 5.74l.37-1.98q.1-.55.65-.58l1.44-.08q.64-.04.72.6l.23 1.96q.09.75.83.62.8-.15 1.58.12 1.71.58.71 2.09-.89 1.35-2.47.99-.57-.13-.66.44l-.36 2.17q-.11.68-.8.62l-1.43-.12q-.67-.06-.57-.72.45-3.04-2.57-2.59-.71.11-.68-.61l.1-1.88q.03-.72.75-.65l1.43.15q.61.06.73-.55zm44.47.51h1.81q.76 0 .75.76l-.03 1.87q-.01.74-.71.49c-2.19-.76-2.56.8-2.52 2.51q.02.75-.73.74l-1.48-.02q-.71-.01-.67-.72.15-2.85-2.46-2.71-.75.04-.82-.71l-.13-1.24q-.06-.64.57-.75l2.13-.37q.59-.1.59-.69V3.63q0-.7.7-.65l1.97.13q.83.05.64.86l-.31 1.41q-.2.87.7.87zM24.16 42.26l1.05-6.84q.09-.55.58-.8l7.93-4q.44-.23.52-.71 2.54-15.8 14.65-26.29a1.67 1.66 45.1 012.18.01q11.98 10.43 14.61 26.09.13.73.8 1.05l7.15 3.39q.56.27.76.84 1.16 3.2 1.08 6.63a2.07 2.07 0 002.07 2.12h9.21a.75.75 0 01.75.75v42.13q0 .58.55.76l1.4.47a1.38 1.38 0 01.92 1.63l-1.57 6.64q-.1.44-.54.51-2.82.49-4.51.47-36.21-.58-67-.2-2.82.03-5.04-.29-.55-.08-.67-.62l-1.46-7.19q-.14-.72.57-.91l1.4-.37a1.31 1.29-7.6 00.97-1.25l.14-41.82a.69.69 0 01.69-.68l9.14-.08q1.44-.01 1.67-1.44zM47.75 9.21Q33.2 24.33 39.53 44.67q.53 1.73 1.68 3.31.46.63.6-.13c1.32-7.18 8.4-12.72 14.25-5.25l2.24 4.98a.46.46 0 00.85-.02q9.32-23.14-8.57-39.83-.4-.38-.9-.18-1.24.49-1.93 1.66zM33.86 47l2.45-.32q.63-.09.43-.69-1.85-5.63-2.25-11.54a.49.49 0 00-.71-.41l-5.35 2.68q-.44.22-.5.71l-2.68 19.55q-.07.52.44.67c1.99.58 3.16.07 3.92-1.95q1.55-4.12 3.41-8.08.26-.54.84-.62zm31.1-7.75l-1.82 6.98q-.15.58.45.52 2.3-.22 3.66 1.54l3.68 8.81q.22.52.77.55l2.4.14q.69.04.59-.64l-2.68-19.66q-.08-.63-.66-.9l-5.08-2.4q-.51-.24-.6.32l-.71 4.74zm-16.02 3.07q-2.44 1.45-3.53 4.17-4.5 11.29 4.03 19.55.42.41.85.01 7.98-7.38 4.49-18.51-1.35-4.29-4.73-5.35-.58-.18-1.11.13zM23.06 60.88q-1.35.01-1.18-1.33l1.46-12.09q.07-.63-.56-.63l-6.46-.03q-.62 0-.62.62l.08 39.61q0 .51.51.5 17.35-.35 34.63 1.24c2.07.19 3.37-1.28 5.58-1.28q13.57.03 27.16 0a.79.79 0 00.79-.8l-.19-39.29q-.01-.61-.61-.6l-6.63.11q-.56 0-.49.57l1.61 12.27a.95.94 85.6 01-.91 1.07l-7.31.15q-.71.01-.98-.65l-3.87-9.26q-.21-.52-.74-.71-3.47-1.29-4.27 2.23-1.06 4.71-2.46 9.38-.16.54.4.54h9.49q1.24 0 1.24 1.24l.02 19.8q0 .73-.73.73l-35.45.12a1.32 1.32 0 01-1.32-1.32V64.25A1.75 1.75 0 0133 62.5h8.99q.52 0 .36-.5c-1.08-3.41-1.65-13.2-6.69-11.76q-.52.14-.73.64l-3.89 9.33q-.26.63-.94.63l-7.04.04zm32.46 4.8a.83.83 0 00-.57.24l-4.53 4.51a.83.83 0 01-1.19-.02l-4.29-4.63a.83.83 0 00-.62-.27l-9.27.11a.83.83 0 00-.82.83l.06 13.97a.83.83 0 00.83.83h29.74a.83.83 0 00.83-.83l.04-14.08a.83.83 0 00-.85-.83l-9.36.17zm.76 25.43c-1.8 1.64-8.54.79-11.16.53-10.44-1.04-20.83-.92-31.31-.89q-.89 0-.62.84l.53 1.66q.15.5.68.5 34.91.01 69.83 0c1.61 0 2.57-.83 2.42-2.44q-.05-.56-.61-.56H57.22q-.53 0-.94.36z"/><path fill="#de3002" d="M56.06 42.6q3.26-9.16.42-18.46-.66-3.54-3.12-6.2-1.25-5.35-5.61-8.73.69-1.17 1.93-1.66.5-.2.9.18 17.89 16.69 8.57 39.83a.46.46 0 01-.85.02l-2.24-4.98z"/><path fill="#ff7289" d="M47.75 9.21q4.36 3.38 5.61 8.73c-9.88-4.14-13.64 10.65-3.71 11.54q4.67.42 6.83-5.34 2.84 9.3-.42 18.46c-5.85-7.47-12.93-1.93-14.25 5.25q-.14.76-.6.13-1.15-1.58-1.68-3.31-6.33-20.34 8.22-35.46z"/><path d="M19.52 18.8q-1.46.6-.82 1.85.3.58-.25.92-.95.6-2.06.21-.52-.19-.58-.74l-.15-1.54q-.07-.75-.83-.75h-1.26q-.55 0-.82-.48c-.62-1.12-.29-3.05 1.47-2.54q.56.16.95-.26.83-.9.54-2.16-.17-.72.57-.75l1.83-.06q.78-.03.64.74-.46 2.54 1.96 2.51a1.08 1.08 0 011.06.81q.67 2.6-1.72 2.18a.95.9-50 00-.53.06zm61.1-.05h-1.85q-.74 0-.7-.74l.1-1.81q.03-.59.62-.55l1.78.1q.68.04.68-.64v-1.99q0-.63.63-.63l2.26.03q.79.01.4.69-.62 1.07-.13 2.06.28.54.89.5l1.63-.12q.57-.04.57.53v1.94q0 .63-.62.63h-1.89q-.84 0-.73.83l.19 1.49q.08.65-.57.73l-1.91.24q-.72.08-.72-.64v-2.02q0-.63-.63-.63zm-27.26-.81q2.46 2.66 3.12 6.2-2.16 5.76-6.83 5.34c-9.93-.89-6.17-15.68 3.71-11.54zm-.31 5.42a3.07 3.07 0 00-3.07-3.07 3.07 3.07 0 00-3.07 3.07 3.07 3.07 0 003.07 3.07 3.07 3.07 0 003.07-3.07z"/><circle fill="#a2cdff" cx="49.98" cy="23.36" r="3.07"/><path fill="#ffde55" d="M33.02 47.62q-1.86 3.96-3.41 8.08c-.76 2.02-1.93 2.53-3.92 1.95q-.51-.15-.44-.67l2.68-19.55q.06-.49.5-.71l5.35-2.68a.49.49 0 01.71.41q.4 5.91 2.25 11.54.2.6-.43.69l-2.45.32q-.58.08-.84.62z"/><path fill="#fece02" d="M67.25 48.29l1.2-.65q.41-.23.36-.7l-.84-7.16q-.05-.38-.42-.47-1.31-.31-2.59-.06l.71-4.74q.09-.56.6-.32l5.08 2.4q.58.27.66.9l2.68 19.66q.1.68-.59.64l-2.4-.14q-.55-.03-.77-.55l-3.68-8.81z"/><path fill="#ffde55" d="M67.25 48.29q-1.36-1.76-3.66-1.54-.6.06-.45-.52l1.82-6.98q1.28-.25 2.59.06.37.09.42.47l.84 7.16q.05.47-.36.7l-1.2.65z"/><path fill="#ff7752" d="M50.05 42.19q3.38 1.06 4.73 5.35 3.49 11.13-4.49 18.51-.43.4-.85-.01-8.53-8.26-4.03-19.55 1.09-2.72 3.53-4.17.53-.31 1.11-.13zm1.64 4.64a1.74 1.74 0 00-1.74-1.74 1.74 1.74 0 00-1.74 1.74 1.74 1.74 0 001.74 1.74 1.74 1.74 0 001.74-1.74zm-.198 5.517a.88.88 0 00-.882-.878l-1.24.002a.88.88 0 00-.878.882l.016 9.5a.88.88 0 00.882.878l1.24-.002a.88.88 0 00.878-.882l-.016-9.5z"/><circle cx="49.95" cy="46.83" r="1.74"/><path fill="#a2cdff" d="M23.06 60.88l7.04-.04q.68 0 .94-.63l3.89-9.33q.21-.5.73-.64c5.04-1.44 5.61 8.35 6.69 11.76q.16.5-.36.5H33a1.75 1.75 0 00-1.75 1.75v18.82a1.32 1.32 0 001.32 1.32l35.45-.12q.73 0 .73-.73l-.02-19.8q0-1.24-1.24-1.24H58q-.56 0-.4-.54 1.4-4.67 2.46-9.38.8-3.52 4.27-2.23.53.19.74.71l3.87 9.26q.27.66.98.65l7.31-.15a.95.94 85.6 00.91-1.07l-1.61-12.27q-.07-.57.49-.57l6.63-.11q.6-.01.61.6l.19 39.29a.79.79 0 01-.79.8q-13.59.03-27.16 0c-2.21 0-3.51 1.47-5.58 1.28q-17.28-1.59-34.63-1.24-.51.01-.51-.5l-.08-39.61q0-.62.62-.62l6.46.03q.63 0 .56.63l-1.46 12.09q-.17 1.34 1.18 1.33zm5.042 8.227a.43.43 0 00-.437-.424l-8.498.134a.43.43 0 00-.424.437l.035 2.2a.43.43 0 00.437.423l8.498-.134a.43.43 0 00.424-.437l-.035-2.2zm53.138.143a.49.49 0 00-.49-.49h-8.38a.49.49 0 00-.49.49v2.26a.49.49 0 00.49.49h8.38a.49.49 0 00.49-.49v-2.26zm-53.236 6.752a.98.98 0 00-.982-.978l-7.26.012a.98.98 0 00-.978.982l.012 7.26a.98.98 0 00.982.978l7.26-.012a.98.98 0 00.978-.982l-.012-7.26zm53.269.004a.98.98 0 00-.977-.983l-7.4-.026a.98.98 0 00-.983.977l-.026 7.48a.98.98 0 00.977.983l7.4.026a.98.98 0 00.983-.977l.026-7.48z"/><rect x="-1.5" y="-5.63" transform="rotate(-.1 32740.882 -28619.332)" width="3" height="11.26" rx=".88"/><path fill="#a6fbff" d="M55.52 65.68l9.36-.17a.83.83 0 01.85.83l-.04 14.08a.83.83 0 01-.83.83H35.12a.83.83 0 01-.83-.83l-.06-13.97a.83.83 0 01.82-.83l9.27-.11a.83.83 0 01.62.27l4.29 4.63a.83.83 0 001.19.02l4.53-4.51a.83.83 0 01.57-.24z"/><rect x="-4.68" y="-1.53" transform="rotate(-.9 4485.792 -1457.066)" width="9.36" height="3.06" rx=".43"/><rect x="71.88" y="68.76" width="9.36" height="3.24" rx=".49"/><path d="M28.016 83.262a.98.98 0 01-.978.982l-7.26.012a.98.98 0 01-.982-.978l-.012-7.26a.98.98 0 01.978-.982l7.26-.012a.98.98 0 01.982.978l.012 7.26zm-3.024-4.737a.46.46 0 00-.467-.453l-2.26.036a.46.46 0 00-.452.467l.035 2.24a.46.46 0 00.467.453l2.26-.036a.46.46 0 00.452-.467l-.035-2.24zm56.255 4.961a.98.98 0 01-.984.977l-7.4-.026a.98.98 0 01-.976-.983l.026-7.48a.98.98 0 01.984-.977l7.4.026a.98.98 0 01.976.983l-.026 7.48zm-3.013-4.312a1.04 1.04 0 00-.992-1.086l-1.158-.053a1.04 1.04 0 00-1.087.992l-.051 1.139a1.04 1.04 0 00.992 1.086l1.158.053a1.04 1.04 0 001.087-.992l.051-1.139z"/><rect fill="#ffde55" x="-1.59" y="-1.58" transform="rotate(-.9 5083.555 -1451.098)" width="3.18" height="3.16" rx=".46"/><rect fill="#ffde55" x="-1.62" y="-1.61" transform="rotate(2.6 -1717.079 1727.347)" width="3.24" height="3.22" rx="1.04"/><path fill="#e0dfe1" d="M45.12 91.64c2.62.26 9.36 1.11 11.16-.53q.41-.36.94-.36h28.82q.56 0 .61.56c.15 1.61-.81 2.44-2.42 2.44q-34.92.01-69.83 0-.53 0-.68-.5l-.53-1.66q-.27-.84.62-.84c10.48-.03 20.87-.15 31.31.89z"/></svg>