<svg xmlns="http://www.w3.org/2000/svg" width="100" height="100" shape-rendering="geometricPrecision" text-rendering="geometricPrecision" image-rendering="optimizeQuality" fill-rule="evenodd" clip-rule="evenodd"><path fill="#a134d3" d="M99.5 69.5v10h-17a190.666 190.666 0 00-4-15h-20a74.617 74.617 0 01-5 14.5c-5.657.5-11.324.666-17 .5a58.735 58.735 0 012-15h5a322.2 322.2 0 006-28 94.077 94.077 0 008-23h22a1858.814 1858.814 0 0115 46c1.514 3.63 3.18 6.963 5 10zm-33-36a265.627 265.627 0 018 17 36.874 36.874 0 01-12 1 206.478 206.478 0 004-18z" opacity=".928"/><path fill="#861db6" d="M49.5 36.5a322.2 322.2 0 01-6 28h-5c.417-.722 1.084-1.222 2-1.5a97.271 97.271 0 01-4-7.5 81.872 81.872 0 00-18-1 36.328 36.328 0 01-4 11 57.124 57.124 0 01-15 1v-9a3225.303 3225.303 0 0017.5-45c.494-1.634.66-3.3.5-5 6.7-.33 13.366.003 20 1a18.941 18.941 0 013 5l6 19c.557 1.832 1.557 3.165 3 4zm-22-12a188.578 188.578 0 007 17.5 72.444 72.444 0 01-12 .5c.433-4.474 1.933-8.474 4.5-12 .495-1.973.662-3.973.5-6z" opacity=".943"/><path fill="#f3a400" d="M82.5 84.5h17v9h-31c-.11-.617-.444-1.117-1-1.5 5.34-2.003 10.34-4.503 15-7.5z" opacity=".959"/><path fill="#f9bd00" d="M82.5 84.5c-4.66 2.997-9.66 5.497-15 7.5.556.383.89.883 1 1.5h-32v-9h46z" opacity=".954"/></svg>