<svg xmlns="http://www.w3.org/2000/svg" width="100" height="100" shape-rendering="geometricPrecision" text-rendering="geometricPrecision" image-rendering="optimizeQuality" fill-rule="evenodd" clip-rule="evenodd"><path fill="#ff5077" d="M41.5 8.5c20.897-1.768 36.23 6.399 46 24.5 6.298 20.863 1.131 38.03-15.5 51.5-21.796 10.328-40.63 6.661-56.5-11-7.037-11.84-8.87-24.507-5.5-38 2.717-5.721 5.884-11.055 9.5-16 4.945-3.616 10.279-6.783 16-9.5 2.208-.19 4.208-.69 6-1.5z" opacity=".819"/><path fill="#ffa2b7" d="M60.5 16.5a111.86 111.86 0 00-19-1c2.135-1.533 4.635-2.2 7.5-2 4.255-.146 8.088.854 11.5 3z"/><path fill="#f8f4f9" d="M41.5 15.5a111.86 111.86 0 0119 1 48.334 48.334 0 0111 5.5c5.034 4.85 9.034 10.35 12 16.5v17c-.392 5.097-2.058 9.764-5 14a134.089 134.089 0 01-10 9.5 113.64 113.64 0 01-8 3.5c-7.277.93-14.61 1.264-22 1-6.15-2.966-11.65-6.966-16.5-12-3.502-4.825-5.668-10.158-6.5-16v-14c3.62-13.62 12.287-22.287 26-26z"/><path fill="#82baf7" d="M60.5 21.5a61.002 61.002 0 00-22 0c.291-1.15 1.124-1.816 2.5-2 5.497-1.304 10.997-1.304 16.5 0 1.53.14 2.53.806 3 2z"/><path fill="#3995f3" d="M60.5 21.5c3.13.1 5.796 1.266 8 3.5A163.936 163.936 0 0177 35.5c.483.948.65 1.948.5 3a40.588 40.588 0 012 14c-1.207 12.316-7.54 20.65-19 25-7.306 2.61-14.64 2.61-22 0-9.032-3.532-15.198-9.865-18.5-19-3.485-15.617 1.348-27.617 14.5-36a6.845 6.845 0 014-1 61.002 61.002 0 0122 0z"/><path fill="#e9f2fd" d="M63.5 33.5h5c-.988 4.523-3.488 8.19-7.5 11a28.83 28.83 0 01-1.5 4c-5.174 2.504-8.507 6.504-10 12h-3c-.157 2.318-1.324 3.984-3.5 5-1.3-1.207-2.8-1.874-4.5-2v-3c-4.74-1.142-7.407-4.142-8-9 3.788.944 6.955 2.944 9.5 6 1.162.687 2.328.853 3.5.5a353.424 353.424 0 0119-20.5 6.845 6.845 0 001-4z"/><path fill="#ffadbf" d="M15.5 41.5v14c-.617-.11-1.117-.444-1.5-1l-.5-5.5c-.2-2.865.467-5.365 2-7.5z"/><path fill="#a1cdf9" d="M77.5 38.5c1.617 1.09 2.45 2.756 2.5 5 .805 3.197.638 6.197-.5 9 .15-4.8-.516-9.467-2-14z"/><path fill="#ffa8bb" d="M83.5 38.5c1.84 5.076 2.34 10.41 1.5 16-.383.556-.883.89-1.5 1v-17z"/><path fill="#cae2fc" d="M38.5 77.5c7.36 2.61 14.694 2.61 22 0-1.237 1.597-2.904 2.763-5 3.5-4.041.826-8.041.66-12-.5-2.155-.501-3.822-1.501-5-3z"/><path fill="#ff95ad" d="M60.5 82.5c-.47 1.194-1.47 1.86-3 2-6.568 1.52-12.9 1.186-19-1 7.39.264 14.723-.07 22-1z"/></svg>