<svg xmlns="http://www.w3.org/2000/svg" width="100" height="100" shape-rendering="geometricPrecision" text-rendering="geometricPrecision" image-rendering="optimizeQuality" fill-rule="evenodd" clip-rule="evenodd"><path fill="#485c66" d="M87.5 32.5h-76c-.166-6.342 0-12.675.5-19l1.5-1.5c24-.667 48-.667 72 0l1.5 1.5c.5 6.325.666 12.658.5 19z" opacity=".997"/><path fill="#f9f9f9" d="M45.5 18.5h35c.268 2.62-.065 5.12-1 7.5-11 .667-22 .667-33 0-.935-2.38-1.268-4.88-1-7.5z"/><path fill="#f54b72" d="M19.5 18.5c6.504-.362 8.17 2.138 5 7.5-5.712.433-7.378-2.067-5-7.5z"/><path fill="#ebd3d4" d="M32.5 18.5c4.38-.114 6.547 1.886 6.5 6-3.89 3.152-6.724 2.485-8.5-2 .252-1.573.918-2.906 2-4z"/><path fill="#b6daf9" d="M11.5 32.5h76c.167 17.67 0 35.337-.5 53L85.5 87c-24 .667-48 .667-72 0L12 85.5c-.5-17.663-.667-35.33-.5-53z" opacity=".993"/><path fill="#3192f3" d="M18.5 41.5h31v37h-31v-37z"/><path fill="#3695f3" d="M55.5 41.5h25v4h-25v-4z"/><path fill="#3293f3" d="M55.5 49.5h25v4h-25v-4z"/><path fill="#3192f3" d="M80.5 58.5v3h-24v-3h24z"/><path fill="#70b4f6" d="M80.5 58.5h-24v3h24c-8.15.993-16.483 1.326-25 1v-5c8.517-.326 16.85.007 25 1z"/><path fill="#3695f3" d="M55.5 66.5h25v4h-25v-4z"/><path fill="#3293f3" d="M55.5 74.5h25v4h-25v-4z"/></svg>