<svg xmlns="http://www.w3.org/2000/svg" width="776" height="919" shape-rendering="geometricPrecision" text-rendering="geometricPrecision" image-rendering="optimizeQuality" fill-rule="evenodd" clip-rule="evenodd"><path fill="#343345" d="M342.5 278.5c.086-.996-.248-1.829-1-2.5 3.387-2.002 4.887-4.835 4.5-8.5-.739-1.074-1.739-1.741-3-2l-5 3-1.5-1a89.468 89.468 0 01-1.5-12c-.739-3.562-2.239-6.728-4.5-9.5a141.19 141.19 0 01-17.5-2.5 153.009 153.009 0 01-22.5 3.5c-1.833.5-3 1.667-3.5 3.5-.278-.916-.778-1.582-1.5-2-2.989-12.21.011-22.71 9-31.5 2.829-1.509 5.662-1.675 8.5-.5 12.478-8.811 23.812-7.478 34 4 1.707 2.409 2.54 5.075 2.5 8 13.955.625 20.622 7.958 20 22-.347 10.379-4.014 19.379-11 27a9.86 9.86 0 01-6 1z" opacity=".997"/><path fill="#fdb5b5" d="M342.5 278.5c-8.191 8.39-18.191 11.556-30 9.5-11.457-2.123-19.291-8.623-23.5-19.5a109.89 109.89 0 01-3.5-20c.722.418 1.222 1.084 1.5 2 .5-1.833 1.667-3 3.5-3.5a153.009 153.009 0 0022.5-3.5 141.19 141.19 0 0017.5 2.5c2.261 2.772 3.761 5.938 4.5 9.5a89.468 89.468 0 001.5 12l1.5 1 5-3c1.261.259 2.261.926 3 2 .387 3.665-1.113 6.498-4.5 8.5.752.671 1.086 1.504 1 2.5z" opacity=".975"/><path fill="#59576d" d="M528.5 274.5h-4v-4c.475-2.582-.192-4.582-2-6-.745-7.65-3.745-14.15-9-19.5-.667-.667-1.333-.667-2 0-4.086 6.568-9.753 8.235-17 5-4.427-2.685-6.26-6.518-5.5-11.5a11.532 11.532 0 014.5-3.5c5.489-.932 10.823-.432 16 1.5 3.687-34.196-1.646-66.863-16-98a207.982 207.982 0 01-10.5-16c-12.579-15.208-28.079-26.374-46.5-33.5-9.294-2.667-18.627-3.334-28-2 5.497 4.16 7.83 9.66 7 16.5a85.302 85.302 0 00-5.5 8 82.6 82.6 0 001.5-8c-.093-6.757-3.093-11.757-9-15-3.582 1.432-6.249 3.766-8 7-.997.03-1.664-.47-2-1.5a46.192 46.192 0 015-6.5c-.457-.797-1.124-1.13-2-1-7.208.458-13.875 2.625-20 6.5a7590.4 7590.4 0 01-116 91c-8.505 8.59-18.838 14.09-31 16.5-24.725 45.337-63.058 69.004-115 71a346.74 346.74 0 00-36-.5c-14.255.604-24.088 7.437-29.5 20.5-2.117 8.827.383 15.827 7.5 21-1.306.379-2.64.712-4 1 2.522.803 4.522 2.136 6 4-10.43-2.689-15.43-9.522-15-20.5-.005-4.813 1.161-9.313 3.5-13.5 10.31-12.976 23.977-18.976 41-18 60.252 7.952 105.752-13.882 136.5-65.5-6.927-1.212-12.76-4.379-17.5-9.5-4.218-8.733-3.051-16.566 3.5-23.5a1595.055 1595.055 0 01-8.5-50.5c-.789-3.591-.622-7.091.5-10.5a283.74 283.74 0 0154-8 9.457 9.457 0 011.5 2.5 938.404 938.404 0 0110 65c-.652 2.223-2.152 3.39-4.5 3.5l-31 5a136.748 136.748 0 011 20.5c10.818-3.57 20.151-9.403 28-17.5a3351.58 3351.58 0 00105-83c6.218-4.945 13.218-8.611 21-11a1434.81 1434.81 0 0140-1c24.161 5.17 43.994 17.337 59.5 36.5 18.204 25.61 27.871 54.276 29 86a190.196 190.196 0 01-.5 33 187.994 187.994 0 009.5 14c3.222 7.335 4.722 15.001 4.5 23zm-30-36a87.147 87.147 0 018 2c1.225 2.343.559 4.177-2 5.5-6.575 2.276-10.242.109-11-6.5 1.915.284 3.581-.049 5-1zm-289-65c1.545 1.872 3.545 2.872 6 3a109.837 109.837 0 0011-2c2.693 6.632 2.36 13.132-1 19.5-13.778-.276-19.112-7.109-16-20.5zm202-70c-.875 2.068-2.041 4.068-3.5 6-3.174-5.685-7.674-7.351-13.5-5-1.181-2.862-1.181-5.862 0-9 1.751-3.234 4.418-5.568 8-7 5.907 3.243 8.907 8.243 9 15z" opacity=".961"/><path fill="#5b5876" d="M394.5 104.5c5.826-2.351 10.326-.685 13.5 5 1.459-1.932 2.625-3.932 3.5-6a82.6 82.6 0 01-1.5 8 85.302 85.302 0 015.5-8c-.451 4.624-2.451 8.457-6 11.5a2252.237 2252.237 0 0123 58c-.434 2.316-1.434 4.316-3 6a165.771 165.771 0 01-29.5 12.5c-3.15-.478-5.484-2.145-7-5a2358.833 2358.833 0 00-25.5-63 41.653 41.653 0 002-6c.457-.798 1.124-1.131 2-1-1.409 1.805-1.909 3.805-1.5 6a818.027 818.027 0 0028.5 65.5c1.333.667 2.667.667 4 0a178.024 178.024 0 0027.5-12.5c.667-1.333.667-2.667 0-4a2377.229 2377.229 0 00-27-65c-2.401-1.102-4.901-1.269-7.5-.5a100.262 100.262 0 01-2 5.5 219.047 219.047 0 01-13 5.5c-2.436.124-4.769-.376-7-1.5 1.546-1.36 3.38-2.36 5.5-3 1.301 1.393 2.801 1.893 4.5 1.5a26.948 26.948 0 016-3.5c-2.631-1.505-2.297-2.171 1-2a60.931 60.931 0 01.5-11 176.05 176.05 0 002.5 8c.607-.124.94-.457 1-1z"/><path fill="#9594a2" d="M253.5 165.5c-9.232 3.523-18.898 4.69-29 3.5-.916-.278-1.582-.778-2-1.5 10.429 1.209 20.762.542 31-2z"/><path fill="#6c697e" d="M395.5 86.5c.876-.13 1.543.203 2 1a46.192 46.192 0 00-5 6.5c.336 1.03 1.003 1.53 2 1.5-1.181 3.138-1.181 6.138 0 9-.06.543-.393.876-1 1a176.05 176.05 0 01-2.5-8 60.931 60.931 0 00-.5 11c-3.297-.171-3.631.495-1 2a26.948 26.948 0 00-6 3.5c-1.699.393-3.199-.107-4.5-1.5-2.12.64-3.954 1.64-5.5 3l-2 1c-.876-.131-1.543.202-2 1a41.653 41.653 0 01-2 6c-1.568-3.756-.568-6.923 3-9.5a281.671 281.671 0 0017.5-7.5c-.342-7.815 2.158-14.482 7.5-20z" opacity=".655"/><path fill="#6b62fb" d="M371.5 116.5l2-1c2.231 1.124 4.564 1.624 7 1.5a219.047 219.047 0 0013-5.5c.73-1.841 1.397-3.675 2-5.5 2.599-.769 5.099-.602 7.5.5a2377.229 2377.229 0 0127 65c.667 1.333.667 2.667 0 4a178.024 178.024 0 01-27.5 12.5c-1.333.667-2.667.667-4 0a818.027 818.027 0 01-28.5-65.5c-.409-2.195.091-4.195 1.5-6z"/><path fill="#b2b1bc" d="M245.5 102.5a475.187 475.187 0 01-39 7c.111-.617.444-1.117 1-1.5a745.542 745.542 0 0138-5.5z"/><path fill="#f8f8fc" d="M253.5 165.5c-10.238 2.542-20.571 3.209-31 2-5.377-2.723-8.877-7.056-10.5-13a440.014 440.014 0 00-7.5-41c-.16-1.855.507-3.188 2-4a475.187 475.187 0 0039-7c2.952-1.523 5.452-.856 7.5 2 3.261 18.5 6.428 37 9.5 55.5-1.311 4.333-4.311 6.166-9 5.5z"/><path fill="#b5afff" d="M240.5 141.5c-2.405 1.268-5.072 1.935-8 2 2.338-1.54 5.005-2.206 8-2z"/><path fill="#7168ff" d="M232.5 143.5c2.928-.065 5.595-.732 8-2a45.558 45.558 0 0111-.5c2.75 3.012 2.417 5.679-1 8a489.609 489.609 0 01-31 4c-2.667-2.333-2.667-4.667 0-7a60.175 60.175 0 0113-2.5z"/><path fill="#c1bbff" d="M232.5 138.5c-4.934 1.883-9.934 2.216-15 1 4.993-.416 9.993-.749 15-1z"/><path fill="#b9b3ff" d="M250.5 134.5c-.111.617-.444 1.117-1 1.5-3.327.61-6.661 1.11-10 1.5 3.37-1.639 7.037-2.639 11-3z"/><path fill="#8e85ff" d="M240.5 128.5a318.024 318.024 0 01-24 5c1.181-1.567 2.847-2.401 5-2.5a103.803 103.803 0 0119-2.5z"/><path fill="#7067ff" d="M250.5 134.5c-3.963.361-7.63 1.361-11 3-2.45-.202-4.783.131-7 1-5.007.251-10.007.584-15 1-1.961-1.82-2.294-3.82-1-6a318.024 318.024 0 0024-5c2.804-1.138 5.804-1.305 9-.5 2.184 1.898 2.517 4.064 1 6.5z"/><path fill="#7268ff" d="M237.5 114.5c3.35-.165 6.683.002 10 .5 2.871 2.84 2.537 5.174-1 7a985.24 985.24 0 01-27.5 4.5c-4.937.73-6.604-1.27-5-6l1.5-1.5a839.196 839.196 0 0122-4.5z"/><path fill="#c4c4cd" d="M522.5 264.5c1.808 1.418 2.475 3.418 2 6-1.808-1.418-2.475-3.418-2-6z" opacity=".11"/><path fill="#e1e1e9" d="M524.5 271.5v3c-.342.838-1.008 1.172-2 1-.271-1.88.396-3.213 2-4z" opacity=".027"/><path fill="#6e65ff" d="M630.5 277.5c1.014 1.265 2.514 1.931 4.5 2 5.81.767 11.643 1.101 17.5 1 20.721 1.397 40.721 5.897 60 13.5 13.705 7.913 20.205 19.746 19.5 35.5-2.434 9.261-7.934 15.928-16.5 20-2.605.121-4.605 1.121-6 3-8.12 3.363-16.62 4.697-25.5 4a354.118 354.118 0 01-38.5-3.5 289.106 289.106 0 00-34 0 1213.795 1213.795 0 00-54 5.5 94.873 94.873 0 00-10 2 380.856 380.856 0 01-12 2.5 110.79 110.79 0 00-6 7.5c-6.933-1.748-13.6-1.081-20 2-2.08-3.586-4.746-6.753-8-9.5a168.421 168.421 0 01-22-15.5c-1.25-4.517-3.917-7.85-8-10-6.67-19.512-2.004-36.012 14-49.5 11.237-7.246 23.57-11.413 37-12.5.992.172 1.658-.162 2-1h4a620.327 620.327 0 01102 3z" opacity=".998"/><path fill="#8e83ff" d="M630.5 277.5c7.534.524 14.868 1.524 22 3-5.857.101-11.69-.233-17.5-1-1.986-.069-3.486-.735-4.5-2z" opacity=".786"/><path fill="#5c5a6f" d="M77.5 306.5a61.192 61.192 0 00-2.5-8c-.186 2.536-.686 4.869-1.5 7a24.939 24.939 0 00-.5-7 14.505 14.505 0 01-4-5 22.697 22.697 0 00-5-2c-1.03.336-1.53 1.003-1.5 2a5.575 5.575 0 01-3-1 111.488 111.488 0 01-2 5c-3.771-5.857-2.105-8.857 5-9 9.166.831 14.5 5.831 16 15-.02 1.226-.353 2.226-1 3z" opacity=".971"/><path fill="#e0e0e4" d="M73.5 305.5l-11-12c-.03-.997.47-1.664 1.5-2a22.697 22.697 0 015 2 14.505 14.505 0 004 5c.497 2.31.663 4.643.5 7z"/><path fill="#6b62fc" d="M340.5 297.5a100.133 100.133 0 00-7 21c-.722.418-1.222 1.084-1.5 2a91.743 91.743 0 00-1.5 15 657 657 0 004.5 86 1611.531 1611.531 0 0012.5 81.5 31.505 31.505 0 01-2 4.5 108.432 108.432 0 00-16.5 5 195.347 195.347 0 00-23.5-5v-1c-4.134-.985-8.468-1.318-13-1v-4a954.292 954.292 0 013-23c1.389-4.769 2.056-9.769 2-15 .888-2.554 1.221-5.221 1-8 1.636-3.71 2.302-7.71 2-12 4.898-36.79 7.898-73.79 9-111a143.826 143.826 0 00-2.5-21c-.139-2.945-1.306-5.279-3.5-7v-11a283.417 283.417 0 0134-.5c1.641 1.129 2.641 2.629 3 4.5z"/><path fill="#403e57" d="M340.5 297.5a12425.97 12425.97 0 0017 10.5c14.151 1.87 27.485 6.203 40 13 4.694 2.846 8.027 6.68 10 11.5-.543.06-.876.393-1 1l9 18c.457.798 1.124 1.131 2 1a675.385 675.385 0 0116 31 2578.852 2578.852 0 0055 17v3a84.636 84.636 0 00-2 17c.016 1.984-.984 2.984-3 3a3504.52 3504.52 0 01-73-7 772.848 772.848 0 01-19.5-27 5518.648 5518.648 0 01-1.5 105 48.716 48.716 0 01-9 3 39.238 39.238 0 004.5 11c.81 3.858.643 7.524-.5 11 .286-8.075-2.214-15.075-7.5-21-7.457 1.481-14.29 4.315-20.5 8.5-3.63 1.664-7.297 1.83-11 .5a31.505 31.505 0 002-4.5 1611.531 1611.531 0 01-12.5-81.5 657 657 0 01-4.5-86c1.451-5.459 2.451-11.126 3-17a100.133 100.133 0 017-21z" opacity=".999"/><path fill="#f7f7ff" d="M525.5 299.5c53.334-.167 106.668 0 160 .5 2.667 2 2.667 4 0 6-53.333.667-106.667.667-160 0-1.268-2.163-1.268-4.33 0-6.5z"/><path fill="#6860f1" d="M73.5 311.5a10.51 10.51 0 002.5 3 1060.23 1060.23 0 005.5 26c.27 4.95 1.27 9.617 3 14a80.32 80.32 0 014 19c.99 4.673-.676 8.006-5 10a1609.639 1609.639 0 01-18.5-84 157.595 157.595 0 008.5 12z"/><path fill="#413e58" d="M303.5 304.5c2.194 1.721 3.361 4.055 3.5 7a143.826 143.826 0 012.5 21 1083.615 1083.615 0 01-9 111c-1.636 3.71-2.302 7.71-2 12 .221 2.779-.112 5.446-1 8-1.389 4.769-2.056 9.769-2 15a954.292 954.292 0 00-3 23c-.951 1.419-1.284 3.085-1 5h14v1h-14v3h-24a98.432 98.432 0 00.5 14c2.379 1.706 3.212 3.706 2.5 6a208.311 208.311 0 01-4.5-5 112.97 112.97 0 01-.5-15h-25a3194.795 3194.795 0 006-42c1.676-.683 2.343-2.017 2-4a717.817 717.817 0 015-40l-1-4a23.65 23.65 0 01-3 3.5 1483.713 1483.713 0 01-70 5.5h-5v-2a1100.086 1100.086 0 00-2-19 839.239 839.239 0 0054-17.5 389.483 389.483 0 0015-28.5c3.312-3.271 5.645-7.271 7-12a161.904 161.904 0 018-15c2.087-1.085 3.42-2.751 4-5 9.797-6.777 20.464-11.943 32-15.5a162.014 162.014 0 0111-10.5z" opacity=".998"/><path fill="#84848d" d="M59.5 317.5h4c.463 2.982.796 5.982 1 9a121.841 121.841 0 00-5-9z" opacity=".094"/><path fill="#fafaff" d="M685.5 326.5a6563.627 6563.627 0 01-161-1v-5c54.001-.167 108.001 0 162 .5 1.48 2.235 1.147 4.068-1 5.5z"/><path fill="#5a53ba" d="M333.5 318.5c-.549 5.874-1.549 11.541-3 17a91.743 91.743 0 011.5-15c.278-.916.778-1.582 1.5-2z"/><path fill="#d9d7ff" d="M524.5 325.5a6563.627 6563.627 0 00161 1 4271.251 4271.251 0 01-160 .5c-.556-.383-.889-.883-1-1.5z"/><path fill="#ada7b5" d="M260.5 330.5c-.58 2.249-1.913 3.915-4 5 .58-2.249 1.913-3.915 4-5z" opacity=".196"/><path fill="#948aff" d="M471.5 337.5c4.083 2.15 6.75 5.483 8 10-3.626-2.595-6.292-5.928-8-10z" opacity=".612"/><path fill="#f3f1ff" d="M525.5 341.5c7.341-.166 14.674 0 22 .5 2.667 2 2.667 4 0 6a121.19 121.19 0 01-22 0c-1.268-2.163-1.268-4.33 0-6.5z"/><path fill="#b1b1b4" d="M66.5 337.5c2.002 4.333 3.002 9 3 14-1.49-4.442-2.49-9.109-3-14z" opacity=".118"/><path fill="#6c697d" d="M407.5 332.5a139.958 139.958 0 0110 20c-.876.131-1.543-.202-2-1l-9-18c.124-.607.457-.94 1-1z" opacity=".216"/><path fill="#a59aff" d="M715.5 349.5c-1.411 2.039-3.411 3.039-6 3 1.395-1.879 3.395-2.879 6-3z" opacity=".388"/><path fill="#5851b2" d="M81.5 340.5c1.73 4.383 2.73 9.05 3 14-1.73-4.383-2.73-9.05-3-14z"/><path fill="#878795" d="M248.5 350.5c-1.355 4.729-3.688 8.729-7 12 1.355-4.729 3.688-8.729 7-12z" opacity=".373"/><path fill="#47455d" d="M529.5 370.5c10.33 8.11 11.663 17.61 4 28.5-2.476 2.571-5.476 4.071-9 4.5a77.09 77.09 0 01-14-3c-8.955-8.927-9.288-18.26-1-28 6.4-3.081 13.067-3.748 20-2z" opacity=".998"/><path fill="#b9b9bd" d="M70.5 356.5c3.927 13.303 6.593 26.97 8 41a371.543 371.543 0 01-8-41z" opacity=".071"/><path fill="#403e55" d="M62.5 293.5l11 12c.814-2.131 1.314-4.464 1.5-7a61.192 61.192 0 012.5 8v1l-4 4a157.595 157.595 0 01-8.5-12 1609.639 1609.639 0 0018.5 84c4.324-1.994 5.99-5.327 5-10 .817 2.331 1.484 4.831 2 7.5.336 1.03 1.003 1.53 2 1.5a593.833 593.833 0 014 16.5c14.375.397 28.542.23 42.5-.5 4.26 1.668 8.76 2.501 13.5 2.5.944 2.719 1.277 5.552 1 8.5a15.418 15.418 0 01-1 7 73.133 73.133 0 01-17 1h-53c.475-2.582-.192-4.582-2-6a51.052 51.052 0 01-2-14c-1.407-14.03-4.073-27.697-8-41-.951-1.419-1.284-3.085-1-5 .002-5-.998-9.667-3-14a79.865 79.865 0 01-2-11 104.578 104.578 0 00-1-9h-6c-1.478-1.864-3.478-3.197-6-4a55.873 55.873 0 004-1c1.726.315 3.392.481 5 .5a103.465 103.465 0 01-3-15.5 112.33 112.33 0 002-5 5.575 5.575 0 003 1z" opacity=".996"/><path fill="#5d5a75" d="M77.5 307.5a7453.638 7453.638 0 0115 75c-.997.03-1.664-.47-2-1.5-.516-2.669-1.183-5.169-2-7.5a80.32 80.32 0 00-4-19c-.27-4.95-1.27-9.617-3-14a1060.23 1060.23 0 01-5.5-26 10.51 10.51 0 01-2.5-3l4-4z" opacity=".897"/><path fill="#e6e6e9" d="M526.5 379.5h4c-2.075 5.761-5.742 10.428-11 14-2.652-2.125-4.318-4.791-5-8a12.992 12.992 0 015.5 1 64.208 64.208 0 006.5-7z"/><path fill="#fcb5b6" d="M510.5 400.5a77.09 77.09 0 0014 3c-.111.617-.444 1.117-1 1.5 2.983 6.72 1.317 12.053-5 16a2394.386 2394.386 0 00-32-.5 84.636 84.636 0 012-17c4.648.666 9.314 1.332 14 2a1727.61 1727.61 0 018-5z" opacity=".932"/><path fill="#fcb6b6" d="M172.5 408.5c.721 6.323 1.388 12.656 2 19a1554.22 1554.22 0 00-32 .5c-4.097-1.922-6.43-5.088-7-9.5v-1a73.133 73.133 0 0017-1 15.418 15.418 0 001-7c1.474 1.637 3.308 2.637 5.5 3a152.043 152.043 0 0111.5-1.5c.566-.995 1.233-1.828 2-2.5z" opacity=".908"/><path fill="#71707f" d="M80.5 411.5c1.808 1.418 2.475 3.418 2 6h53v1c-18.003.167-36.003 0-54-.5-.923-2.041-1.256-4.208-1-6.5z" opacity=".47"/><path fill="#acaac5" d="M174.5 429.5h5c-.291 1.149-1.124 1.816-2.5 2-1.376-.184-2.209-.851-2.5-2z" opacity=".196"/><path fill="#4e498e" d="M300.5 443.5c.302 4.29-.364 8.29-2 12-.302-4.29.364-8.29 2-12z"/><path fill="#a0a0ad" d="M248.5 464.5c.343 1.983-.324 3.317-2 4-.343-1.983.324-3.317 2-4z" opacity=".059"/><path fill="#504c98" d="M297.5 463.5c.056 5.231-.611 10.231-2 15-.056-5.231.611-10.231 2-15z"/><path fill="#302f42" d="M384.5 519.5c.191 19.014-.142 38.014-1 57-1.324 3.607-1.991 7.607-2 12a91.576 91.576 0 001 13 439.384 439.384 0 01-3 31c-1.149.291-1.816 1.124-2 2.5.028 1.07.361 1.903 1 2.5v4c-2.347 1.107-2.68 2.774-1 5a77.1 77.1 0 01-1 13c-1.149.291-1.816 1.124-2 2.5.028 1.07.361 1.903 1 2.5v3c-1.808 1.418-2.475 3.418-2 6a975.772 975.772 0 01-7 63.5 220.533 220.533 0 016 19.5c-.862 2.267-2.529 3.267-5 3-1.208.734-2.541 1.067-4 1a220.12 220.12 0 00-2 26c-.342.838-1.008 1.172-2 1a384.383 384.383 0 00-24 2h-6v-6c1.265-3.954 1.265-7.954 0-12-.641-1.493-1.641-2.493-3-3a1361.184 1361.184 0 01-17-61c.215-1.679-.452-2.679-2-3a11260.972 11260.972 0 01-28.5-101 50.464 50.464 0 01-.5-10c.536-3.198-.131-5.865-2-8v-5c.647-.774.98-1.774 1-3-.14-1.53-.807-2.53-2-3v-6c1.321-4.757.655-9.423-2-14-.457-.798-1.124-1.131-2-1-1.526-3.271-2.192-6.771-2-10.5.223-4.184.557-8.351 1-12.5.712-2.294-.121-4.294-2.5-6a98.432 98.432 0 01-.5-14h24v-3h14a195.347 195.347 0 0123.5 5 108.432 108.432 0 0116.5-5c3.703 1.33 7.37 1.164 11-.5 6.21-4.185 13.043-7.019 20.5-8.5 5.286 5.925 7.786 12.925 7.5 21z" opacity=".999"/><path fill="#534db0" d="M292.5 501.5v4c4.532-.318 8.866.015 13 1h-14c-.284-1.915.049-3.581 1-5z"/><path fill="#5b596f" d="M557.5 358.5a7559.455 7559.455 0 0033 21.5c39.545 38.044 50.212 83.044 32 135 3.504 4.433 7.837 7.933 13 10.5 1.333 1.667 1.333 3.333 0 5-6.762-2.262-12.262-6.262-16.5-12-5.854 10.674-14.354 13.507-25.5 8.5-8.248-6.778-8.914-14.111-2-22 10.204-2.877 19.204-.71 27 6.5 4.225-8.847 6.725-18.18 7.5-28 1.985-20.755-1.015-40.755-9-60-8.194-15.539-18.694-29.373-31.5-41.5-9.337-6.001-18.67-12.001-28-18a55.622 55.622 0 00-10-3.5 94.873 94.873 0 0110-2zm38 150c8.065-.628 14.732 2.039 20 8-6.526 9.253-14.026 10.253-22.5 3-2.4-4.51-1.567-8.177 2.5-11z" opacity=".946"/><path fill="#71707c" d="M271.5 553.5c.876-.131 1.543.202 2 1 2.655 4.577 3.321 9.243 2 14-.881-4.998-2.214-9.998-4-15z" opacity=".094"/><path fill="#8a8994" d="M275.5 574.5c1.193.47 1.86 1.47 2 3-.02 1.226-.353 2.226-1 3-.961-1.765-1.295-3.765-1-6z" opacity=".349"/><path fill="#a1a1a8" d="M276.5 585.5c1.869 2.135 2.536 4.802 2 8-.617-.111-1.117-.444-1.5-1a24.935 24.935 0 01-.5-7z" opacity=".255"/><path fill="#1e1e2a" d="M323.5 579.5c1.33 6.298 1.997 12.965 2 20a3495.135 3495.135 0 013.5 150 898.545 898.545 0 01-11.5-90 2908.952 2908.952 0 006-80z"/><path fill="#6a6977" d="M383.5 576.5c.326 8.517-.007 16.85-1 25a91.576 91.576 0 01-1-13c.009-4.393.676-8.393 2-12z" opacity=".596"/><path fill="#888793" d="M379.5 632.5c.284 1.915-.049 3.581-1 5-.639-.597-.972-1.43-1-2.5.184-1.376.851-2.209 2-2.5z" opacity=".494"/><path fill="#94939e" d="M378.5 641.5c.284 1.915-.049 3.581-1 5-1.68-2.226-1.347-3.893 1-5z" opacity=".49"/><path fill="#90909b" d="M376.5 659.5c.284 1.915-.049 3.581-1 5-.639-.597-.972-1.43-1-2.5.184-1.376.851-2.209 2-2.5z" opacity=".506"/><path fill="#aaa9af" d="M375.5 667.5c.475 2.582-.192 4.582-2 6-.475-2.582.192-4.582 2-6z" opacity=".039"/><path fill="#b5b5bb" d="M307.5 704.5c1.548.321 2.215 1.321 2 3-1.406-.473-2.073-1.473-2-3z" opacity=".153"/><path fill="#f9b3b4" d="M367.5 759.5a346.635 346.635 0 0020 24c-2.608.106-4.608 1.272-6 3.5a62.38 62.38 0 01-17 3.5c.807-2.215-.193-3.549-3-4 .153-8.71.82-17.377 2-26 1.459.067 2.792-.266 4-1z" opacity=".949"/><path fill="#6c6b78" d="M326.5 768.5c1.359.507 2.359 1.507 3 3 1.265 4.046 1.265 8.046 0 12a94.222 94.222 0 00-3-15z" opacity=".584"/><path fill="#353346" d="M387.5 783.5c5.361 5.161 9.195 11.161 11.5 18a4185.669 4185.669 0 01-37.5 30 856.853 856.853 0 01-58 1c1.955-12.451 9.289-19.285 22-20.5a47.129 47.129 0 007-6c1.697-.384 3.363-.218 5 .5 4.879 4.075 10.545 6.409 17 7 .384-3.396 1.718-6.396 4-9 1.935-3.714 3.268-7.714 4-12 .247-1.213.914-1.88 2-2a62.38 62.38 0 0017-3.5c1.392-2.228 3.392-3.394 6-3.5z"/><path fill="#f9b3b4" d="M359.5 787.5c-1.23 2.731-1.896 5.731-2 9 .003 2.855.336 5.522 1 8-2.282 2.604-3.616 5.604-4 9-6.455-.591-12.121-2.925-17-7a84.636 84.636 0 01-2-17 384.383 384.383 0 0124-2z" opacity=".962"/><path fill="#c4c4c4" d="M361.5 831.5c73.831.999 147.831 1.333 222 1v4h-435v-4h155c19.409.32 38.743-.013 58-1z" opacity=".565"/></svg>