<svg xmlns="http://www.w3.org/2000/svg" fill="none" viewBox="0 0 1041 963"><g filter="url(#a)"><ellipse fill="#fff" fill-opacity=".3" cx="520.5" cy="481.5" rx="370.5" ry="331.5"/></g><path d="m536.285 194.491-2.91-.23a.461.461 0 0 0-.477.336.457.457 0 0 0 .237.534c27.467 13.733 49.437 33.336 65.91 58.81" stroke="#BDD2FC" stroke-width="2"/><path d="M599.045 253.94c.5 4.74-.38 10.52 6.49 10.63" stroke="#C89FBF" stroke-width="2"/><path d="M605.535 264.57c.153 1.567.817 3.084 1.99 4.55" stroke="#BDD2FC" stroke-width="2"/><path d="M607.525 269.121c-.86 12.58-3.57 25.45-5.78 37.9-.267 1.48-.42 3.47-.46 5.97" stroke="#A8C2FB" stroke-width="2"/><path d="M601.285 312.99c-3.487 1.04-6.557 3.087-9.21 6.14" stroke="#C89FBF" stroke-width="2"/><path d="M592.075 319.13a499.774 499.774 0 0 0-44.09-95.8c-.513-.86-1.007-.996-1.48-.41a.844.844 0 0 0-.08.92c17.62 32.647 31.847 66.524 42.68 101.63" stroke="#A8C2FB" stroke-width="2"/><path d="M589.105 325.47c-.247 7.28 1.603 13.984 5.55 20.11" stroke="#C89FBF" stroke-width="2"/><path d="M594.655 345.581c2.167 9.893 5.043 21.376 8.63 34.45 3.62 13.16 8.577 25.333 14.87 36.52.18.32.453.48.82.48h6.01c.467 0 .57-.194.31-.58a99.553 99.553 0 0 1-8.95-16.57.21.21 0 0 1 .38-.17 176.143 176.143 0 0 0 9.53 16.59c.573.873 1.487 1.116 2.74.73" stroke="#A8C2FB" stroke-width="2"/><path d="M628.995 417.03a3.99 3.99 0 0 0 .18 2.36c.107.28.31.42.61.42l66.8-.31c.413 0 .627-.203.64-.61l.06-2.15" stroke="#C89FBF" stroke-width="2"/><path d="M697.285 416.74c2.92.614 5.767.52 8.54-.28" stroke="#BDD2FC" stroke-width="2"/><path d="M705.825 416.46c1.273 3.427 3.857 5.7 7.75 6.82m.25 33.5c-34.43 45.55-73.16 85.98-115.82 123.34" stroke="#7183FC" stroke-width="2"/><path d="M598.005 580.121c-.333.406-.89.713-1.67.92" stroke="#6D7FF5" stroke-width="2"/><path d="M596.335 581.04c-.047-27.12-.067-54.236-.06-81.35 0-7.88-3.63-10.16-11.35-10.16h-44.83a.444.444 0 0 1-.35-.16.346.346 0 0 0-.21-.13" stroke="#C89FBF" stroke-width="2"/><path d="M539.535 489.24c-.067-21.026-.027-42.046.12-63.06.05-7.02 4.41-9.15 11.01-9.15 16.273.007 32.553.007 48.84 0a.201.201 0 0 0 .207-.225.205.205 0 0 0-.047-.105c-40.76-51.48-53.82-113.22-65.21-176.15-3.26-18.06-6.37-32.57-13.5-47.88" stroke="#BDD2FC" stroke-width="2"/><path d="M596.245 692.28c-33.73 31.27-70.83 56.39-113.98 72.78m114.07-184.019c-.527.8-1.523 1.816-2.99 3.05-54.407 45.866-113.08 84.513-176.02 115.94" stroke="#A36BBB" stroke-width="2"/><path d="M417.325 700.03c-1.35-1.39-.3-85.44-.31-94.65 0-6.66-.497-11.463-1.49-14.41-2.92-8.7-10.22-15.86-19.15-18.49-5.98-1.75-14.62-.79-21.63-1.2" stroke="#BF91BC" stroke-width="2"/><path d="M682.075 367.03c-2.12-.893-3.27-2.333-3.45-4.32-.41-4.48 4.63-4.18 7.16-5.47" stroke="#FE7D74" stroke-width="2"/><path d="M685.785 357.24c15.33-1.48 39.68-9.09 41.31-27.67 1.12-12.77-21.92-10.32-19.28 2.41.08.374.01.717-.21 1.03-2.213 3.08-5.063 3.76-8.55 2.04-.36-.173-.633-.086-.82.26a113.684 113.684 0 0 1-10.43 15.84" stroke="#F3BDC1" stroke-width="2"/><path d="M687.805 351.15c-.633.06-1.41.58-2.33 1.56-12.05 12.87-29.8 11.23-43.24 1.63-.66-.466-1.073-.32-1.24.44" stroke="#FE7D74" stroke-width="2"/><path d="M640.995 354.78c-.35-.86-.47-1.52-1.17-2.19-5.06-4.833-9.35-10.36-12.87-16.58" stroke="#DEADC0" stroke-width="2"/><path d="M626.955 336.01c-.693-.26-1.753-.236-3.18.07" stroke="#F3BDC1" stroke-width="2"/><path d="M623.775 336.08c-1.873-.433-3.343-1.616-4.41-3.55-.167-.3-.21-.62-.13-.96 2.72-11.41-17.62-14.04-18.89-4.79-1.95 14.05 12.57 23.32 24.65 26.75m2.79.96a71.013 71.013 0 0 0 14.01 3.02" stroke="#DEADC0" stroke-width="2"/><path d="M641.795 357.51c2.22.46 4.71.85 5.97 2.93 1.607 2.66.7 4.844-2.72 6.55" stroke="#FE7D74" stroke-width="2"/><path d="M645.045 366.99a76.597 76.597 0 0 1-15.51-2.17m-2.93-.699c-4.047-1.214-8.737-2.994-14.07-5.34-7.013-3.087-12.973-7.487-17.88-13.2" stroke="#DEADC0" stroke-width="2"/><path d="M771.665 358.8c-1.12 1.567-2.64 3.084-4.56 4.55-19.467 14.86-38.92 29.74-58.36 44.64-2.5 1.914-3.473 4.737-2.92 8.47" stroke="#9CA1FE" stroke-width="2"/><path d="M697.285 416.74c-.24-1.49.46-5.57-1.25-5.92" stroke="#F3BDC1" stroke-width="2"/><path d="M696.035 410.82c-4.727-2.593-9.47-5.15-14.23-7.67-3.52-1.87-8.38-1.18-12.21-.95a.33.33 0 0 1-.33-.44l12.81-34.73" stroke="#F3B0B1" stroke-width="2"/><path d="M682.075 367.031c20.01-1.24 53.95-11.23 55.64-36.16 1.23-18.04-17.63-22.36-30.8-16.1a.445.445 0 0 1-.46-.061.443.443 0 0 1-.15-.439l3.56-14.63M539.535 489.24a1.04 1.04 0 0 1-.75.31c-50.84-.013-101.68-.02-152.52-.02-6.47 0-11.5 1.89-11.49 9 .033 24.247.023 48.497-.03 72.75" stroke="#F3BDC1" stroke-width="2"/><path d="M366.765 571.32c-46.227-.046-92.47-.06-138.73-.04-.7 0-2.187.25-4.46.75" stroke="#BDD2FC" stroke-width="2"/><path d="M789.575 454.72c-2.66 2.4-5.357 3.377-8.09 2.93-4.34-.72-12.34-8.34-16.61-11.4" stroke="#9CA1FE" stroke-width="2"/><path d="m764.875 446.25-5.32-4.4c-.287-.233-.5-.176-.64.17a875.549 875.549 0 0 1-45.88 96.22" stroke="#6776FA" stroke-width="2"/><path d="M713.035 538.24a797.019 797.019 0 0 1-46.04 72.29" stroke="#7183FC" stroke-width="2"/><path d="M666.995 610.531c-1.79.36-3.82-3.42-4.62-4.77a.551.551 0 0 0-1.01.21l-.31 2.26c-.04.26-.19.39-.45.39-.587.013-1.05.336-1.39.97a.234.234 0 0 0-.01.2c.033.08.057.17.07.27a.57.57 0 0 1-.11.45c-.06.066-.12.13-.18.19-.12.12-.107.223.04.31l.28.16c.533.32.493.516-.12.59l-3.91.45a1.95 1.95 0 0 0-1.03.44l-1.64 1.33a1.095 1.095 0 0 0-.42.97l.22 3.4c.027.34.197.563.51.67l1.01.33c.213.073.347.22.4.44.307 1.353-.227 2.283-1.6 2.79a.88.88 0 0 1-.65-.01c-.773-.307-1.127-.894-1.06-1.76.02-.22-.08-.324-.3-.31l-1.35.05c-.333.013-.56.173-.68.48-.313.8-.877 1.406-1.69 1.82a.933.933 0 0 0-.53.77c-.16 1.293-.923 2.24-2.29 2.84-.273.12-.553.176-.84.17-1.66-.014-3.17.5-4.53 1.54-.287.226-.58.23-.88.01-.293-.214-.507-.187-.64.08-.333.713-.5.72-.5.02v-1.24c0-.34-.167-.5-.5-.48-1.247.06-1.667-.504-1.26-1.69.247-.714.1-.804-.44-.27l-.24.24c-.34.34-.43.21-.27-.39.133-.487.037-.934-.29-1.34-.42-.527-.657-.8-.71-.82l-1.89-.91c-.22-.1-.26-.25-.12-.45.087-.127.213-.11.38.05.327.32.557.263.69-.17a.85.85 0 0 0-.05-.61c-.08-.187-.213-.244-.4-.17-.447.173-.827.043-1.14-.39-.033-.047-.03-.077.01-.09.48-.15.17-.54-.15-.59-.1-.014-.117-.057-.05-.13l.24-.23c.233-.234.2-.417-.1-.55-.507-.22-.997-.134-1.47.26-.227.193-.237.116-.03-.23.06-.094.1-.2.12-.32.067-.38-.07-.477-.41-.29-.16.093-.35.1-.57.02-.273-.107-.27-.207.01-.3l.68-.21c.78-.247.777-.48-.01-.7a18.946 18.946 0 0 1-3.81-1.53c-.933-.5-.923-.577.03-.23.207.08.407.06.6-.06.273-.167.25-.244-.07-.23-1.347.04-2.17-.637-2.47-2.03a.824.824 0 0 0-.13-.32c-.173-.28-.31-.364-.41-.25-.093.1-.18.093-.26-.02-.453-.62-1.107-.967-1.96-1.04-.34-.034-.447-.21-.32-.53.067-.18.167-.234.3-.16.247.14.457.096.63-.13.24-.32.203-.644-.11-.97a.785.785 0 0 0-.59-.25h-2.54c-.833 0-.86-.15-.08-.45a9.703 9.703 0 0 1 2.69-.64c1.047-.107 1.047-.227 0-.36-.607-.08-1.247-.1-1.92-.06-1.42.093-1.52-.05-.3-.43.147-.047.293-.067.44-.06.387 0 .437-.13.15-.39l-.87-.8c-.08-.067-.083-.134-.01-.2l.54-.55c.293-.294.253-.354-.12-.18-.447.206-.803.25-1.07.13-.247-.114-.243-.217.01-.31l.94-.33c.687-.247.667-.37-.06-.37h-.93c-.16 0-.217-.08-.17-.24l.14-.41c.073-.214-.007-.327-.24-.34a3.878 3.878 0 0 0-.29-.01c-.38.006-.41-.094-.09-.3l1.09-.72c.02-.014.033-.007.04.02l.12.49c.113.453.203.45.27-.01l.05-.37c.013-.127-.043-.207-.17-.24l-4.81-1.19c-.093-.027-.127-.087-.1-.18.027-.094.067-.197.12-.31.093-.187.043-.244-.15-.17l-.5.21c-.2.08-.27.016-.21-.19l.79-2.76c.12-.427-.037-.674-.47-.74a2.738 2.738 0 0 1-.33-.08 1.18 1.18 0 0 0-.59-.03 5.14 5.14 0 0 1-2.6-.09c-.233-.074-.243-.17-.03-.29l.34-.21c.193-.114.187-.217-.02-.31l-1.39-.65c-.173-.08-.193-.19-.06-.33l.22-.22c.853-.847.763-.964-.27-.35l-.34.19c-.38.226-.507.126-.38-.3.32-1.09-1.53-3.41-2.63-1.57-.313.526-.44.486-.38-.12l.16-1.69c.027-.327-.123-.49-.45-.49h-.5c-.427 0-.55-.197-.37-.59.433-.94.403-1.474-.09-1.6-.333-.08-.52-.29-.56-.63l-.12-1.09c-.027-.174-.12-.22-.28-.14a4.335 4.335 0 0 0-.26.15c-.147.086-.233.116-.26.09a1.81 1.81 0 0 0-.2-.19c-.12-.12-.107-.224.04-.31l.33-.19c.073-.047.083-.104.03-.17l-3.54-4.74" stroke="#4C4FF8" stroke-width="2"/><path d="M713.825 456.78a518.18 518.18 0 0 0 19.19-26.18c.293-.433.193-.733-.3-.9l-19.14-6.42" stroke="#6776FA" stroke-width="2"/><path d="M541.785 194.49h-5.5" stroke="#989DF7" stroke-width="2"/><path d="M608.535 264.57c.2 1.694-.137 3.21-1.01 4.55m19.08 95.001a473.738 473.738 0 0 0 7.16 44.85" stroke="#D3DFFC" stroke-width="2"/><path d="m630.495 410.78-.98.6a.955.955 0 0 0-.48.84l-.04 4.81" stroke="#DEADC0" stroke-width="2"/><path d="M544.035 194.57c1.447 1.194 3.113 1.527 5 1" stroke="#989DF7" stroke-width="2"/><path d="M610.785 246.24c-5.88 1.08-10.68.12-11.74 7.7" stroke="#F3BDC1" stroke-width="2"/><path d="M612.825 285.03c1.147 9.56 2.98 18.98 5.5 28.26.1.374-.03.497-.39.37-5.473-1.893-11.023-2.116-16.65-.67" stroke="#DEADC0" stroke-width="2"/><path d="M608.535 264.57h-3" stroke="#F3BDC1" stroke-width="2"/><path d="M417.325 700.03a678.207 678.207 0 0 1-45 21.25" stroke="#6372F3" stroke-width="2"/><path d="M366.765 571.32c3.627 2.32 5.453 5.474 5.48 9.46.2 34.41-.94 82.8.08 140.5" stroke="#89A7F8" stroke-opacity=".996" stroke-width="2"/><path d="M372.325 721.28A855.56 855.56 0 0 1 237.215 768" stroke="#6D7FF5" stroke-width="2"/><path d="m714.175 680.73-89.25.04a2.612 2.612 0 0 0-2.61 2.6c-.053 11.447-.053 22.81 0 34.09.007.754.497 1.597 1.47 2.53" stroke="#C892AF" stroke-width="2"/><path d="m623.785 719.99-23.03.04a1.889 1.889 0 0 0-1.818 1.389 1.883 1.883 0 0 0-.042.811c.687 4.154 3.033 6.184 7.04 6.09" stroke="#6D7FF5" stroke-width="2"/><path d="M605.935 728.32c2.067 12.107 1.947 24.177-.36 36.21" stroke="#A8C2FB" stroke-width="2"/><path d="M605.575 764.53c-2.573.074-4.837.92-6.79 2.54" stroke="#6D7FF5" stroke-width="2"/><path d="M596.825 766.78c-.34-1.48-.51-2.98-.51-4.5 0-23.333-.023-46.666-.07-70" stroke="#C89FBF" stroke-width="2"/><path d="M596.245 692.28a563.693 563.693 0 0 0 70.75-81.75" stroke="#6D7FF5" stroke-width="2"/><path d="M511.285 766.991c-2.753-.22-6.837-.707-12.25-1.46-2.58-.36-5.163.043-7.75 1.21m-.5.079c-3.18.64-6.02.054-8.52-1.759m213.77-354.241-.2.3c-.1.154-.24.23-.42.23l-64.28.19a.547.547 0 0 1-.55-.37.897.897 0 0 1-.09-.39" stroke="#FE7D74" stroke-width="2"/><path d="m636.575 407.28 9.41-4.99c.327-.173.67-.26 1.03-.26h9.32c.46 0 .617-.216.47-.65l-11.76-34.39" stroke="#DEA0B0" stroke-width="2"/><path d="M709.865 299.64c-.953 1.794-2.26 1.7-3.92-.28-.18-.213-.2-.443-.06-.69l.87-1.53a.854.854 0 0 0-.03-.96 35.87 35.87 0 0 1-1.5-2.46c-.013-.026-.28-.27-.8-.73-.84-.746-1.883-.933-3.13-.56-.173.047-.26.16-.26.34v.31c-.007.314-.17.46-.49.44l-4.54-.31a.9.9 0 0 1-.72-.41c-1.24-1.77-3.65-1.17-5.48-1.51-.1-.013-.113-.056-.04-.13a27.2 27.2 0 0 0 .23-.21c.133-.113.113-.173-.06-.18l-6.78-.22c-.127-.006-.187-.073-.18-.2.007-.126 0-.253-.02-.38-.007-.04-.033-.063-.08-.07l-4.73-.5c-.087-.006-.123-.05-.11-.13a1.757 1.757 0 0 0 0-.37c-.02-.186-.12-.28-.3-.28l-4.7-.1a1.214 1.214 0 0 1-.89-.42c-.707-.806-1.603-.926-2.69-.36-.36.187-.57.077-.63-.33l-.05-.39c-.04-.286-.207-.436-.5-.45l-7.53-.22c-.413-.013-.423-.086-.03-.22.1-.033.21-.063.33-.09.907-.2.883-.35-.07-.45l-2.69-.29c-.187-.02-.287-.126-.3-.32-.013-.2-.147-.346-.4-.44a1.78 1.78 0 0 0-.95-.1c-.72.13-2.39-.31-2.42.61 0 .147-.043.16-.13.04a.64.64 0 0 1-.11-.35c-.007-.206-.11-.33-.31-.37l-5.58-1.05a4.105 4.105 0 0 1-1.12-.38c-1.153-.573-2.253-.42-3.3.46-1.2 1.007-1.287.984-.26-.07.153-.16.273-.276.36-.35.493-.426.437-.63-.17-.61l-2.92.1c-.38.014-.593-.17-.64-.55l-.04-.29c-.013-.093-.07-.143-.17-.15l-7.76-.09c-1.013-.013-1.367.464-1.06 1.43l.8 2.54a.68.68 0 0 1-.19.75c-1.81 1.75-4.78.52-5.54 2.67" stroke="#FE7D74" stroke-width="2"/><path d="M626.075 288.78c-.27-1.69-.36-6.68-1.83-7.58a.439.439 0 0 0-.442.001.435.435 0 0 0-.208.389l.18 4.38" stroke="#FE908A" stroke-width="2"/><path d="M623.775 285.971a48.77 48.77 0 0 0-9.88-.72c-.2.006-.393-.034-.58-.12a.954.954 0 0 0-.49-.1" stroke="#FE7D74" stroke-width="2"/><path d="M626.075 288.78c2.26 18.75 10.01 56.56 33.41 60.35a.905.905 0 0 1 .7.6c.31.95-.71 1.24-1.44 1.11-24.81-4.37-32.61-43.45-34.97-64.87" stroke="#FE9D9A" stroke-width="2"/><path d="m623.775 336.081 1.22 17.45m4.54 11.289a368.58 368.58 0 0 0 7.04 42.46" stroke="#D3DFFC" stroke-width="2"/><path d="M764.875 446.25c-.113 53.16-.137 106.33-.07 159.51 0 4.69.32 9.97.35 14.95.007.3.153.494.44.58.127.04.26.037.4-.01" stroke="#B4C4F9" stroke-width="2"/><path d="M765.125 680.081c-16.4.833-33.383 1.05-50.95.65" stroke="#BF84AC" stroke-width="2"/><path d="M714.175 680.73a5827.246 5827.246 0 0 1-.51-142.04c0-.213-.1-.343-.3-.39a2.138 2.138 0 0 0-.33-.06" stroke="#89A7F8" stroke-opacity=".996" stroke-width="2"/><path d="M645.285 228.24c-.213.094-.38.224-.5.39a.867.867 0 0 1-.59.37l-1.38.26c-.48.087-.58.327-.3.72a49.936 49.936 0 0 1 7.02 14.01m-38.75 2.25a329.044 329.044 0 0 0 1.71-33.71" stroke="#D3DFFC" stroke-width="2"/><path d="M667.595 242.07a72.517 72.517 0 0 1-18.06 1.92" stroke="#F3BDC1" stroke-width="2"/><path d="M785.075 719.7c0 .06-.03.14-.09.24a.552.552 0 0 1-.51.29l-76.69-.16" stroke="#A762B1" stroke-width="2"/><path d="m692.785 772.49 33.64-.15c.053 0 .057-.016.01-.05-.407-.313-.89-.386-1.45-.22-.353.107-.4.03-.14-.23l.24-.24c.073-.073.07-.14-.01-.2-2.83-2.2-5.31-2.42-8.94-1.92-3.59.49-10.9.51-12.69-3.4-.2-.446-.06-.626.42-.54.5.094.743-.09.73-.55 0-.173-.087-.26-.26-.26l-23.55-.16" stroke="#4C4FF8" stroke-width="2"/><path d="M680.785 764.57c31.82-.053 63.65-.06 95.49-.02 5.69 0 8.94-2.47 9.12-8.29.2-6.353.207-12.7.02-19.04-.17-5.66-4.35-8.78-9.89-8.82-17.92-.12-35.833-.173-53.74-.16" stroke="#8791FD" stroke-width="2"/><path d="M721.785 728.24c-1.79-.17-9.21.34-9.61-1.36a1.91 1.91 0 0 0-.41-.84 107.18 107.18 0 0 0-4.16-4.91c-.04-.053-.027-.09.04-.11.073-.026.12-.09.14-.19.033-.16-.03-.25-.19-.27l-.31-.04c-.613-.08-.607-.153.02-.22.22-.026.38-.103.48-.23" stroke="#4C4FF8" stroke-width="2"/><path d="M555.035 454.85c-.01-18.05 14.72-25 30.5-25.03 13.947-.02 27.893-.036 41.84-.05.333 0 .567-.156.7-.47l.2-.49a.735.735 0 0 0-.066-.683.73.73 0 0 0-.604-.327c-13.68-.046-27.293-.043-40.84.01-7.02.02-12.077.54-15.17 1.56-12.09 3.97-18.8 14.24-18.83 26.91-.013 7.687.003 15.424.05 23.21a1.458 1.458 0 0 0 .45 1.05c1.1 1.04 1.75-.19 1.75-1.07.02-8.206.027-16.413.02-24.62Z" stroke="#A8C2FB" stroke-width="2"/><path d="M385.245 329.531c-18.713-3.107-35.257 1.34-49.63 13.34" stroke="#989DF7" stroke-width="2"/><path d="M335.615 342.871c-16.4 15.79-8.65 35 4.1 49.54.213.246.313.536.3.87-.213 4.026.71 7.763 2.77 11.21" stroke="#F3D0D6" stroke-width="2"/><path d="M342.785 404.49c-2.013 2.147-2.167 4.327-.46 6.54" stroke="#989DF7" stroke-width="2"/><path d="M342.325 411.03a476.585 476.585 0 0 1-15.89 47.82.87.87 0 0 1-.69.58c-9.96 2.01-19.67 4.4-26.45 12.64a267.845 267.845 0 0 0-16.31 22.02.858.858 0 0 0-.05.9l.64 1.29m-4.29 4.29c-3.533-1.166-6.7-.61-9.5 1.67" stroke="#7C7BB6" stroke-width="2"/><path d="M269.785 502.24c-.893.66-1.23 1.67-1.01 3.03 1.807 11.034 5.873 20.87 12.2 29.51.96 1.307 2.067 1.774 3.32 1.4" stroke="#9CA1FE" stroke-width="2"/><path d="M284.295 536.18c3.1-8.66 4.15-20.34.49-28.94m4.54-4.71c.627.514 1.37.89 2.23 1.13.313.087.607.037.88-.15 14.207-9.826 28.41-19.676 42.61-29.55a31.854 31.854 0 0 0 6-5.41c9.167-10.666 18.35-21.333 27.55-32 .22-.26.5-.4.84-.42 12.947-.9 25.65-3.176 38.11-6.83 1.813-.533 4.17-1.64 7.07-3.32.32-.186.493-.096.52.27.81 10.06 8.33 18.54 15.86 24.56 6.58 5.267 12.71 9.117 18.39 11.55" stroke="#7C7BB6" stroke-width="2"/><path d="M449.385 462.36c2.227 1.027 4.277 2.43 6.15 4.21" stroke="#F3D0D6" stroke-width="2"/><path d="M455.535 466.57c.253 4.594 2.42 7.817 6.5 9.67" stroke="#7C7BB6" stroke-width="2"/><path d="M462.035 476.241c1.013.5 1.84.51 2.48.03 9.207-6.92 16.163-15.994 20.87-27.22.293-.7-.02-1.377-.94-2.03" stroke="#989DF7" stroke-width="2"/><path d="M484.445 447.02c-.473-.306-1.207-.303-2.2.011-8.85 2.74-15.59 5.8-22.17 12.5" stroke="#7C7BB6" stroke-width="2"/><path d="M460.075 459.53a15.617 15.617 0 0 0-5.29-3.79" stroke="#F3D0D6" stroke-width="2"/><path d="m454.785 455.741.44-1.46c.1-.327.06-.64-.12-.94a3796.697 3796.697 0 0 0-25.78-42.36c-2.653-4.294-6.603-6.064-11.85-5.31-10.827 1.56-23.057 3-36.69 4.32" stroke="#7C7BB6" stroke-width="2"/><path d="m380.785 409.99 29.49-42.36c.253-.366.5-.363.74.01 4.093 6.334 9.433 11.31 16.02 14.93" stroke="#989DF7" stroke-width="2"/><path d="M427.035 382.57c16.39 7 33.18-2.96 44.23-14.75a.87.87 0 0 1 .85-.27c11.93 2.3 15.16-9.85 7.88-17.17-.287-.286-.607-.326-.96-.12l-5.67 3.37c-.24.14-.463.114-.67-.08l-.97-.92c-.353-.34-.74-.376-1.16-.11-2.927 1.88-4.173 4.554-3.74 8.02.047.354-.08.624-.38.81-9.05 5.79-20.14 8.58-30.16 3.64" stroke="#F3D0D6" stroke-width="2"/><path d="M436.285 364.99c-8.62-5.66-13.51-14.99-15.64-25.03a.87.87 0 0 0-.6-.68l-18.26-6.29" stroke="#989DF7" stroke-width="2"/><path d="M402.785 325.82c4.21-.2 9.14-.99 8.86-6.56a54.95 54.95 0 0 0-4.61-19.44" stroke="#F3D0D6" stroke-width="2"/><path d="M407.035 299.82c10.5-4.6 2.34-16.66.37-14.04-.2.267-.45.327-.75.18l-.28-.13c-.367-.173-.687-.11-.96.19-6.37 6.92-21.84 3.12-22.81 14.99-.033.36-.227.507-.58.44-1.7-.326-2.93.12-3.69 1.34-2.03 3.3 1.61 8.26 4.19 10.18.36.267.38.56.06.88l-.67.67c-.267.267-.38.587-.34.96.24 2.65 7.06 4.07 9.21 4.09" stroke="#7C7BB6" stroke-width="2"/><path d="M407.035 299.82c-4.307 1.767-8.7 3.29-13.18 4.57-3.33.95-1.32 5.06-.24 7.35.12.26.107.51-.04.75l-.15.26c-.22.36-.443.364-.67.01l-2.14-3.4a1.051 1.051 0 0 0-.85-.51c-6.1-.43-1.38 6.4.95 7.98.28.187.493.43.64.73l.47.97" stroke="#875B8F" stroke-width="2"/><path d="M401.745 332.03c-.28.69-.6.86-1.32.58a726.315 726.315 0 0 0-13.72-5.31m16.08-1.48c-3.72-.446-6.913-1.94-9.58-4.48a1.165 1.165 0 0 1-.37-.84c-.027-.8-.363-1.456-1.01-1.97" stroke="#FE9D9A" stroke-width="2"/><path d="m401.785 332.99-.87 4.44a1.781 1.781 0 0 1-1.14 1.34c-6.233 2.287-11.55 1.13-15.95-3.47a1.7 1.7 0 0 1-.32-1.87l1.74-3.9m51.04 35.46c-4.607 5.04-7.69 10.9-9.25 17.58" stroke="#A37ED0" stroke-width="2"/><path d="M380.785 409.99c-13.07 6.18-25 4.56-38.46 1.04" stroke="#2C29B0" stroke-width="2"/><path d="m342.785 404.49 1.47 1.47c.247.254.537.32.87.2 2.8-1.04 7.57-3.74 8.18-6.86.59-3.02-3.59-5.78-5.77-7.48" stroke="#A37ED0" stroke-width="2"/><path d="M347.535 391.82a447.406 447.406 0 0 0 13.1-41.24.273.273 0 0 0-.068-.267.288.288 0 0 0-.125-.076.304.304 0 0 0-.147-.007c-4.953 1.174-9.373 3.37-13.26 6.59" stroke="#989DF7" stroke-width="2"/><path d="M347.035 356.821c-3.34-4.814-7.147-9.464-11.42-13.95" stroke="#A37ED0" stroke-width="2"/><path d="M347.035 356.82c-8.83 8.95-7.39 22.82-2.35 33.04.52 1.047 1.47 1.7 2.85 1.96" stroke="#F3D0D6" stroke-width="2"/><path d="m454.785 455.74-5.4 6.62m-160.06 40.17a27.537 27.537 0 0 1-5.75-6.25m1.21 10.96c-3.93 1.45-7.56-3.29-5.5-6.67" stroke="#875B8F" stroke-width="2"/><path d="M484.445 447.021c-4.907 11.766-12.377 21.506-22.41 29.22" stroke="#2C29B0" stroke-width="2"/><path d="M455.535 466.57c3.6.68 8.1-3.51 4.54-7.04" stroke="#875B8F" stroke-width="2"/><path d="M284.295 536.18c-7.927-10.053-12.763-21.366-14.51-33.94" stroke="#302DB7" stroke-width="2"/><path d="M702.295 250.475c-.006-.098-.171-.186-.486-.259-.314-.073-.773-.13-1.349-.166a28.465 28.465 0 0 0-2.008-.047 47.65 47.65 0 0 0-4.714.271c-.745.081-1.421.175-1.989.278-.568.102-1.017.211-1.322.32-.304.109-.457.215-.452.313.006.099.171.187.486.26.314.073.773.129 1.349.166.576.036 1.258.052 2.008.047a46.491 46.491 0 0 0 2.36-.079 47.528 47.528 0 0 0 2.354-.193 29.526 29.526 0 0 0 1.989-.277c.568-.103 1.017-.212 1.322-.32.304-.109.458-.216.452-.314Z" stroke="#F3BDC1" stroke-width="2"/><path d="M674.21 252.039a.896.896 0 0 0-.293-.615.896.896 0 0 0-.642-.227l-62.015 3.25a.886.886 0 0 0-.842.935l.002.04a.896.896 0 0 0 .293.615.888.888 0 0 0 .642.227l62.015-3.25a.89.89 0 0 0 .842-.935l-.002-.04Z" stroke="#FE9D9A" stroke-width="2"/><path d="M624.199 269.34a.809.809 0 0 0-.848-.771l-.2.009a.807.807 0 0 0-.77.847l.191 4.056a.821.821 0 0 0 .264.561.794.794 0 0 0 .583.21l.2-.01a.814.814 0 0 0 .561-.263.814.814 0 0 0 .21-.584l-.191-4.055Z" stroke="#FE908A" stroke-width="2"/><path d="M473.475 359.651c-.86-.294-1.437-.894-1.73-1.8-.18-.534-.433-.57-.76-.11-1.68 2.38 2.74 3.99 4.75 2.74.273-.174.36-.414.26-.72l-1.69-5.02c-.1-.294-.283-.364-.55-.21l-.23.14c-.313.186-.413.453-.3.8l1.08 3.36c.267.826-.01 1.1-.83.82Zm-85.68 180.969c-.04-12.78-3.65-29.72 11.83-35.52 2.26-.853 5.797-1.286 10.61-1.3 10.16-.033 20.343-.036 30.55-.01a1.279 1.279 0 0 0 1.05-.55c.56-.8.21-1.43-.72-1.44-9.947-.12-19.887-.22-29.82-.3-15.02-.11-25.92 6.09-25.79 22.54.047 5.534.05 11.07.01 16.61 0 .367.177.607.53.72l.52.16a.944.944 0 0 0 1.23-.91Zm-.013 13.002a1.083 1.083 0 0 0-1.078-1.082h-.08a1.088 1.088 0 0 0-.764.315 1.065 1.065 0 0 0-.318.763l-.014 7.84a1.092 1.092 0 0 0 .315.764 1.069 1.069 0 0 0 .763.318h.08a1.068 1.068 0 0 0 .765-.315 1.076 1.076 0 0 0 .317-.763l.014-7.84Z" stroke="#FE9D9A" stroke-width="2"/><path d="M233.535 604.95c-.03-14.05 10.29-22.15 23.74-22.16 13.147 0 26.293-.006 39.44-.02.253 0 .547-.143.88-.43.313-.266.263-.666-.15-1.2a.882.882 0 0 0-.302-.243.883.883 0 0 0-.378-.087 2948.675 2948.675 0 0 0-37.5.02c-5.227.04-9.187.54-11.88 1.5-9.02 3.21-14.97 10.72-15.47 20.47a306.179 306.179 0 0 0-.32 23.47c.007.294.097.554.27.78.433.58.877.594 1.33.04.22-.266.33-.573.33-.92.02-7.053.023-14.126.01-21.22Zm-.007 36.667a1.033 1.033 0 0 0-.639-.95 1.043 1.043 0 0 0-.394-.077l-.08.001a1.032 1.032 0 0 0-1.027 1.033l.034 9.6a1.018 1.018 0 0 0 .639.95c.125.051.259.077.394.077l.08-.001a1.03 1.03 0 0 0 1.027-1.033l-.034-9.6Z" stroke="#A8C2FB" stroke-width="2"/><path d="M766.815 686.83a1.63 1.63 0 0 0-1.63-1.63h-15.76c-.432 0-.847.172-1.152.478-.306.305-.478.72-.478 1.152v27.06a1.63 1.63 0 0 0 1.63 1.63h15.76a1.633 1.633 0 0 0 1.63-1.63v-27.06Zm-21.995-.848a.72.72 0 0 0-.724-.716l-5.68.029a.719.719 0 0 0-.716.724l.15 28.8a.724.724 0 0 0 .724.716l5.68-.03a.722.722 0 0 0 .716-.723l-.15-28.8Z" stroke="#FE7D74" stroke-width="2"/><path d="M781.025 735.871a.6.6 0 0 0-.6-.6h-169.44a.6.6 0 0 0-.6.6v.04a.599.599 0 0 0 .6.599h169.44a.6.6 0 0 0 .6-.599v-.04Zm.39 5.309a.77.77 0 0 0-.77-.77h-169.46c-.204 0-.4.081-.544.226a.767.767 0 0 0-.226.544v.04a.77.77 0 0 0 .77.77h169.46c.204 0 .4-.081.545-.225a.774.774 0 0 0 .225-.545v-.04Zm-.15 5.32a.722.722 0 0 0-.72-.72h-169.46a.72.72 0 0 0-.72.72v.06a.72.72 0 0 0 .72.72h169.46a.708.708 0 0 0 .509-.211.707.707 0 0 0 .211-.509v-.06Zm-.15 6.121v-1.26a.26.26 0 0 0-.26-.26h-.18c-45.188 0-88.524.059-120.477.164-31.952.105-49.903.247-49.903.396v.66c0 .073 4.407.146 12.969.214 8.563.068 21.113.13 36.934.182 15.821.052 34.604.093 55.275.121 20.672.028 42.827.043 65.202.043h.18a.26.26 0 0 0 .26-.26Zm.08 4.629a.75.75 0 0 0-.75-.75h-169.32a.751.751 0 0 0-.75.75v.041a.75.75 0 0 0 .75.75h169.32a.75.75 0 0 0 .75-.75v-.041Z" stroke="#D3DFFC" stroke-width="2"/><path d="m531.285 192.82 5 1.67-2.91-.23a.462.462 0 0 0-.454.646.461.461 0 0 0 .214.224c27.467 13.733 49.437 33.337 65.91 58.81.5 4.74-.38 10.52 6.49 10.63.153 1.567.817 3.083 1.99 4.55-.86 12.58-3.57 25.45-5.78 37.9-.267 1.48-.42 3.47-.46 5.97-3.487 1.04-6.557 3.087-9.21 6.14a499.746 499.746 0 0 0-44.09-95.8c-.513-.86-1.007-.997-1.48-.41a.844.844 0 0 0-.08.92c17.62 32.647 31.847 66.523 42.68 101.63-.247 7.28 1.603 13.983 5.55 20.11 2.167 9.893 5.043 21.377 8.63 34.45 3.62 13.16 8.577 25.333 14.87 36.52.18.32.453.48.82.48h6.01c.467 0 .57-.193.31-.58a99.514 99.514 0 0 1-8.95-16.57.209.209 0 0 1 .263-.26.21.21 0 0 1 .117.09 176.143 176.143 0 0 0 9.53 16.59c.573.873 1.487 1.117 2.74.73a3.99 3.99 0 0 0 .18 2.36c.107.28.31.42.61.42l66.8-.31c.413 0 .627-.203.64-.61l.06-2.15c2.92.613 5.767.52 8.54-.28 1.273 3.427 3.857 5.7 7.75 6.82l.25 33.5c-34.43 45.55-73.16 85.98-115.82 123.34-.333.407-.89.713-1.67.92-.047-27.12-.067-54.237-.06-81.35 0-7.88-3.63-10.16-11.35-10.16h-44.83a.444.444 0 0 1-.35-.16.341.341 0 0 0-.21-.13c-.067-21.027-.027-42.047.12-63.06.05-7.02 4.41-9.15 11.01-9.15 16.273.007 32.553.007 48.84 0a.201.201 0 0 0 .207-.225.205.205 0 0 0-.047-.105c-40.76-51.48-53.82-113.22-65.21-176.15-3.26-18.06-6.37-32.57-13.5-47.88 3.42-1.47 7.1-.1 10.33.15Zm23.75 262.03c-.01-18.05 14.72-25 30.5-25.03 13.947-.02 27.893-.037 41.84-.05.333 0 .567-.157.7-.47l.2-.49a.735.735 0 0 0-.066-.683.73.73 0 0 0-.604-.327c-13.68-.047-27.293-.043-40.84.01-7.02.02-12.077.54-15.17 1.56-12.09 3.97-18.8 14.24-18.83 26.91-.013 7.687.003 15.423.05 23.21a1.45 1.45 0 0 0 .45 1.05c1.1 1.04 1.75-.19 1.75-1.07.02-8.207.027-16.413.02-24.62Z" fill="#92B4FA" fill-opacity=".996"/><path d="M520.955 192.67c7.13 15.31 10.24 29.82 13.5 47.88 11.39 62.93 24.45 124.67 65.21 176.15a.198.198 0 0 1 .028.217.198.198 0 0 1-.188.113c-16.287.007-32.567.007-48.84 0-6.6 0-10.96 2.13-11.01 9.15a6193.327 6193.327 0 0 0-.12 63.06 1.04 1.04 0 0 1-.75.31c-50.84-.013-101.68-.02-152.52-.02-6.47 0-11.5 1.89-11.49 9 .033 24.247.023 48.497-.03 72.75l-7.98.04c-46.227-.047-92.47-.06-138.73-.04-.7 0-2.187.25-4.46.75-7.87-36.03-8.49-75.54-2.85-112.12 15.77-102.2 76.85-198.51 171.54-244.33 39.89-19.3 84.83-25.21 128.69-22.91Zm-130.17 126.9-4.08 7.73-1.46 2.23c-18.713-3.107-35.257 1.34-49.63 13.34-16.4 15.79-8.65 35 4.1 49.54.213.247.313.537.3.87-.213 4.027.71 7.763 2.77 11.21-2.013 2.147-2.167 4.327-.46 6.54a476.585 476.585 0 0 1-15.89 47.82.87.87 0 0 1-.69.58c-9.96 2.01-19.67 4.4-26.45 12.64a267.505 267.505 0 0 0-16.31 22.02.858.858 0 0 0-.05.9l.64 1.29-4.29 4.29c-3.533-1.167-6.7-.61-9.5 1.67-.893.66-1.23 1.67-1.01 3.03 1.807 11.033 5.873 20.87 12.2 29.51.96 1.307 2.067 1.773 3.32 1.4 3.1-8.66 4.15-20.34.49-28.94l4.54-4.71c.627.513 1.37.89 2.23 1.13.313.087.607.037.88-.15 14.207-9.827 28.41-19.677 42.61-29.55a31.888 31.888 0 0 0 6-5.41c9.167-10.667 18.35-21.333 27.55-32 .22-.26.5-.4.84-.42 12.947-.9 25.65-3.177 38.11-6.83 1.813-.533 4.17-1.64 7.07-3.32.32-.187.493-.097.52.27.81 10.06 8.33 18.54 15.86 24.56 6.58 5.267 12.71 9.117 18.39 11.55 2.227 1.027 4.277 2.43 6.15 4.21.253 4.593 2.42 7.817 6.5 9.67 1.013.5 1.84.51 2.48.03 9.207-6.92 16.163-15.993 20.87-27.22.293-.7-.02-1.377-.94-2.03-.473-.307-1.207-.303-2.2.01-8.85 2.74-15.59 5.8-22.17 12.5a15.604 15.604 0 0 0-5.29-3.79l.44-1.46c.1-.327.06-.64-.12-.94a3815.07 3815.07 0 0 0-25.78-42.36c-2.653-4.293-6.603-6.063-11.85-5.31-10.827 1.56-23.057 3-36.69 4.32l29.49-42.36c.253-.367.5-.363.74.01 4.093 6.333 9.433 11.31 16.02 14.93 16.39 7 33.18-2.96 44.23-14.75a.866.866 0 0 1 .85-.27c11.93 2.3 15.16-9.85 7.88-17.17-.287-.287-.607-.327-.96-.12l-5.67 3.37c-.24.14-.463.113-.67-.08l-.97-.92c-.353-.34-.74-.377-1.16-.11-2.927 1.88-4.173 4.553-3.74 8.02.047.353-.08.623-.38.81-9.05 5.79-20.14 8.58-30.16 3.64-8.62-5.66-13.51-14.99-15.64-25.03a.869.869 0 0 0-.6-.68l-18.26-6.29-.04-.96 1.04-6.21c4.21-.2 9.14-.99 8.86-6.56a54.95 54.95 0 0 0-4.61-19.44c10.5-4.6 2.34-16.66.37-14.04-.2.267-.45.327-.75.18l-.28-.13c-.367-.173-.687-.11-.96.19-6.37 6.92-21.84 3.12-22.81 14.99-.033.36-.227.507-.58.44-1.7-.327-2.93.12-3.69 1.34-2.03 3.3 1.61 8.26 4.19 10.18.36.267.38.56.06.88l-.67.67c-.267.267-.38.587-.34.96.24 2.65 7.06 4.07 9.21 4.09Z" fill="#E8EFFD"/><path d="M541.785 194.49h-5.5l-5-1.67c3.68-.526 7.18.03 10.5 1.67Z" fill="#484BF1"/><path d="M645.285 228.24c-.213.094-.38.224-.5.39a.867.867 0 0 1-.59.37l-1.38.26c-.48.087-.58.327-.3.72a49.936 49.936 0 0 1 7.02 14.01l-38.75 2.25a329.044 329.044 0 0 0 1.71-33.71c.1-2-1.55-27.17 6.56-17.02a246.315 246.315 0 0 1 17.04 24.16c2.39 3.85 4.58 7.39 9.19 8.57Z" fill="#BDCFFB"/><path d="M536.285 194.49h5.5l2.25.08c1.447 1.193 3.113 1.527 5 1l6.25.92c9.75 2.15 20.45 3.99 29.24 6.45 9.5 2.653 18.823 5.85 27.97 9.59a329.044 329.044 0 0 1-1.71 33.71c-5.88 1.08-10.68.12-11.74 7.7-16.473-25.473-38.443-45.077-65.91-58.81a.461.461 0 0 1 .24-.87l2.91.23Z" fill="#E8EFFD"/><path d="m550.785 195.49-1.75.08c-1.887.527-3.553.194-5-1 2.353-.38 4.603-.073 6.75.92Z" fill="#484BF1"/><path d="m549.035 195.57 1.75-.08c1.613-.093 3.113.24 4.5 1l-6.25-.92Z" fill="#7F99F5" fill-opacity=".996"/><path d="m592.075 319.13-2.97 6.34c-10.833-35.106-25.06-68.983-42.68-101.63a.844.844 0 0 1 .08-.92c.473-.586.967-.45 1.48.41a499.774 499.774 0 0 1 44.09 95.8Z" fill="#BDCFFB"/><path d="M645.285 228.24a88.552 88.552 0 0 1 17.73 9.63c1.58 1.11 2.95 2.8 4.58 4.2a72.517 72.517 0 0 1-18.06 1.92 49.936 49.936 0 0 0-7.02-14.01c-.28-.393-.18-.633.3-.72l1.38-.26a.867.867 0 0 0 .59-.37c.12-.166.287-.296.5-.39Z" fill="#E8EFFD"/><path d="m714.285 258.57-103.02 5.76-2.73.24h-3c-6.87-.11-5.99-5.89-6.49-10.63 1.06-7.58 5.86-6.62 11.74-7.7l38.75-2.25a72.517 72.517 0 0 0 18.06-1.92c2.92.434 6.757.524 11.51.27 13.653-.72 27.31-1.51 40.97-2.37 2.92-.186 4.88-.093 5.88.28 5.15 1.92 5.24 14.3.9 16.85-2.76 1.61-8.88 1.16-12.57 1.47Zm-11.99-8.095c-.006-.098-.171-.186-.486-.259-.314-.073-.773-.13-1.349-.166a28.465 28.465 0 0 0-2.008-.047 47.65 47.65 0 0 0-4.714.271c-.745.081-1.421.175-1.989.278-.568.102-1.017.211-1.322.32-.304.109-.458.215-.452.313.006.099.171.187.486.26.314.073.773.129 1.349.166.576.036 1.258.052 2.008.047a46.491 46.491 0 0 0 2.36-.079 47.528 47.528 0 0 0 2.354-.193 29.526 29.526 0 0 0 1.989-.277c.568-.103 1.017-.212 1.322-.32.304-.109.458-.216.452-.314Zm-28.085 1.564a.896.896 0 0 0-.293-.615.896.896 0 0 0-.642-.228l-62.015 3.251a.886.886 0 0 0-.842.935l.002.04a.887.887 0 0 0 .935.842l62.015-3.25a.89.89 0 0 0 .842-.935l-.002-.04Z" fill="#FE8A84"/><path d="M696.178 251.579c3.402-.196 6.141-.691 6.117-1.104-.024-.414-2.801-.59-6.203-.394-3.402.197-6.141.691-6.117 1.104.024.414 2.801.59 6.203.394Z" fill="#E8EFFD"/><path d="m673.275 251.197-62.015 3.25a.889.889 0 0 0-.842.935l.002.04a.89.89 0 0 0 .935.842l62.015-3.25a.89.89 0 0 0 .842-.935l-.002-.04a.889.889 0 0 0-.935-.842Z" fill="#FEB0AF"/><path d="m714.285 258.57-.74 20.12-3.68 20.95c-.953 1.794-2.26 1.7-3.92-.28-.18-.213-.2-.443-.06-.69l.87-1.53a.854.854 0 0 0-.03-.96 35.87 35.87 0 0 1-1.5-2.46c-.013-.026-.28-.27-.8-.73-.84-.746-1.883-.933-3.13-.56-.173.047-.26.16-.26.34v.31c-.007.314-.17.46-.49.44l-4.54-.31a.9.9 0 0 1-.72-.41c-1.24-1.77-3.65-1.17-5.48-1.51-.1-.013-.113-.056-.04-.13a27.2 27.2 0 0 0 .23-.21c.133-.113.113-.173-.06-.18l-6.78-.22c-.127-.006-.187-.073-.18-.2.007-.126 0-.253-.02-.38-.007-.04-.033-.063-.08-.07l-4.73-.5c-.087-.006-.123-.05-.11-.13a1.757 1.757 0 0 0 0-.37c-.02-.186-.12-.28-.3-.28l-4.7-.1a1.214 1.214 0 0 1-.89-.42c-.707-.806-1.603-.926-2.69-.36-.36.187-.57.077-.63-.33l-.05-.39c-.04-.286-.207-.436-.5-.45l-7.53-.22c-.413-.013-.423-.086-.03-.22.1-.033.21-.063.33-.09.907-.2.883-.35-.07-.45l-2.69-.29c-.187-.02-.287-.126-.3-.32-.013-.2-.147-.346-.4-.44a1.78 1.78 0 0 0-.95-.1c-.72.13-2.39-.31-2.42.61 0 .147-.043.16-.13.04a.64.64 0 0 1-.11-.35c-.007-.206-.11-.33-.31-.37l-5.58-1.05a4.105 4.105 0 0 1-1.12-.38c-1.153-.573-2.253-.42-3.3.46-1.2 1.007-1.287.984-.26-.07.153-.16.273-.276.36-.35.493-.426.437-.63-.17-.61l-2.92.1c-.38.014-.593-.17-.64-.55l-.04-.29c-.013-.093-.07-.143-.17-.15l-7.76-.09c-1.013-.013-1.367.464-1.06 1.43l.8 2.54a.68.68 0 0 1-.19.75c-1.81 1.75-4.78.52-5.54 2.67-.27-1.69-.36-6.68-1.83-7.58a.43.43 0 0 0-.65.39l.18 4.38a48.77 48.77 0 0 0-9.88-.72c-.2.007-.393-.033-.58-.12a.975.975 0 0 0-.49-.1l-1.56-20.7 103.02-5.76Zm-90.087 10.77a.794.794 0 0 0-.264-.561.794.794 0 0 0-.583-.21l-.2.009a.811.811 0 0 0-.771.847l.192 4.056a.821.821 0 0 0 .264.561.794.794 0 0 0 .583.21l.2-.01a.811.811 0 0 0 .771-.847l-.192-4.055Z" fill="#FE7064"/><path d="M605.535 264.57h3c.2 1.694-.137 3.21-1.01 4.55-1.173-1.466-1.837-2.983-1.99-4.55Z" fill="#E8EFFD"/><path d="m608.535 264.57 2.73-.24 1.56 20.7c1.147 9.56 2.98 18.98 5.5 28.26.1.373-.03.497-.39.37-5.473-1.893-11.023-2.117-16.65-.67.04-2.5.193-4.49.46-5.97 2.21-12.45 4.92-25.32 5.78-37.9.873-1.34 1.21-2.857 1.01-4.55Z" fill="#BDCFFB"/><path d="m623.351 268.569-.2.009a.81.81 0 0 0-.771.847l.192 4.056a.81.81 0 0 0 .847.771l.2-.01a.81.81 0 0 0 .771-.847l-.192-4.055a.81.81 0 0 0-.847-.771Z" fill="#FEB0AF"/><path d="M713.545 278.69c18.7 20.55 33.07 42.06 45.8 66.7 2.03 3.92 5.56 17.42 12.32 13.41-1.12 1.567-2.64 3.084-4.56 4.55-19.467 14.86-38.92 29.74-58.36 44.64-2.5 1.914-3.473 4.737-2.92 8.47-2.773.8-5.62.894-8.54.28-.24-1.49.46-5.57-1.25-5.92-4.727-2.593-9.47-5.15-14.23-7.67-3.52-1.87-8.38-1.18-12.21-.95a.331.331 0 0 1-.33-.44l12.81-34.73c20.01-1.24 53.95-11.23 55.64-36.16 1.23-18.04-17.63-22.36-30.8-16.1a.44.44 0 0 1-.61-.5l3.56-14.63 3.68-20.95Z" fill="#E8EFFD"/><path d="M626.075 288.78c2.26 18.75 10.01 56.56 33.41 60.35a.905.905 0 0 1 .7.6c.31.95-.71 1.24-1.44 1.11-24.81-4.37-32.61-43.45-34.97-64.87l-.18-4.38a.435.435 0 0 1 .208-.389.43.43 0 0 1 .442-.001c1.47.9 1.56 5.89 1.83 7.58Z" fill="#FEB0AF"/><path d="m709.865 299.64-3.56 14.63a.44.44 0 0 0 .61.5c13.17-6.26 32.03-1.94 30.8 16.1-1.69 24.93-35.63 34.92-55.64 36.16-2.12-.893-3.27-2.333-3.45-4.32-.41-4.48 4.63-4.18 7.16-5.47 15.33-1.48 39.68-9.09 41.31-27.67 1.12-12.77-21.92-10.32-19.28 2.41.08.374.01.717-.21 1.03-2.213 3.08-5.063 3.76-8.55 2.04-.36-.173-.633-.086-.82.26a113.684 113.684 0 0 1-10.43 15.84c-.633.06-1.41.58-2.33 1.56-12.05 12.87-29.8 11.23-43.24 1.63-.66-.466-1.073-.32-1.24.44-.35-.86-.47-1.52-1.17-2.19-5.06-4.833-9.35-10.36-12.87-16.58-.693-.26-1.753-.236-3.18.07-1.873-.433-3.343-1.616-4.41-3.55-.167-.3-.21-.62-.13-.96 2.72-11.41-17.62-14.04-18.89-4.79-1.95 14.05 12.57 23.32 24.65 26.75l2.79.96a71.013 71.013 0 0 0 14.01 3.02c2.22.46 4.71.85 5.97 2.93 1.607 2.66.7 4.844-2.72 6.55a76.597 76.597 0 0 1-15.51-2.17l-2.93-.7c-4.047-1.213-8.737-2.993-14.07-5.34-7.013-3.086-12.973-7.486-17.88-13.2-3.947-6.126-5.797-12.83-5.55-20.11l2.97-6.34c2.653-3.053 5.723-5.1 9.21-6.14 5.627-1.446 11.177-1.223 16.65.67.36.127.49.004.39-.37-2.52-9.28-4.353-18.7-5.5-28.26a.975.975 0 0 1 .49.1c.187.087.38.127.58.12 3.253-.1 6.547.14 9.88.72 2.36 21.42 10.16 60.5 34.97 64.87.73.13 1.75-.16 1.44-1.11a.909.909 0 0 0-.7-.6c-23.4-3.79-31.15-41.6-33.41-60.35.76-2.15 3.73-.92 5.54-2.67a.68.68 0 0 0 .19-.75l-.8-2.54c-.307-.966.047-1.443 1.06-1.43l7.76.09c.1.007.157.057.17.15l.04.29c.047.38.26.564.64.55l2.92-.1c.607-.02.663.184.17.61-.087.074-.207.19-.36.35-1.027 1.054-.94 1.077.26.07 1.047-.88 2.147-1.033 3.3-.46.353.18.727.307 1.12.38l5.58 1.05c.2.04.303.164.31.37a.64.64 0 0 0 .11.35c.087.12.13.107.13-.04.03-.92 1.7-.48 2.42-.61a1.78 1.78 0 0 1 .95.1c.253.094.387.24.4.44.013.194.113.3.3.32l2.69.29c.953.1.977.25.07.45-.12.027-.23.057-.33.09-.393.134-.383.207.03.22l7.53.22c.293.014.46.164.5.45l.05.39c.06.407.27.517.63.33 1.087-.566 1.983-.446 2.69.36.24.267.537.407.89.42l4.7.1c.18 0 .28.094.3.28.013.114.013.237 0 .37-.013.08.023.124.11.13l4.73.5c.047.007.073.03.08.07.02.127.027.254.02.38-.007.127.053.194.18.2l6.78.22c.173.007.193.067.06.18a27.2 27.2 0 0 1-.23.21c-.073.074-.06.117.04.13 1.83.34 4.24-.26 5.48 1.51a.9.9 0 0 0 .72.41l4.54.31c.32.02.483-.126.49-.44v-.31c0-.18.087-.293.26-.34 1.247-.373 2.29-.186 3.13.56.52.46.787.704.8.73.467.84.967 1.66 1.5 2.46a.854.854 0 0 1 .03.96l-.87 1.53c-.14.247-.12.477.06.69 1.66 1.98 2.967 2.074 3.92.28Z" fill="#FE8A84"/><path d="M407.035 299.82c-4.307 1.767-8.7 3.29-13.18 4.57-3.33.95-1.32 5.06-.24 7.35.12.26.107.51-.04.75l-.15.26c-.22.36-.443.364-.67.01l-2.14-3.4a1.051 1.051 0 0 0-.85-.51c-6.1-.43-1.38 6.4.95 7.98.28.187.493.43.64.73l.47.97-1.04 1.04c-2.15-.02-8.97-1.44-9.21-4.09-.04-.373.073-.693.34-.96l.67-.67c.32-.32.3-.613-.06-.88-2.58-1.92-6.22-6.88-4.19-10.18.76-1.22 1.99-1.666 3.69-1.34.353.067.547-.08.58-.44.97-11.87 16.44-8.07 22.81-14.99.273-.3.593-.363.96-.19l.28.13c.3.147.55.087.75-.18 1.97-2.62 10.13 9.44-.37 14.04Z" fill="#0F066F"/><path d="M407.035 299.82a54.95 54.95 0 0 1 4.61 19.44c.28 5.57-4.65 6.36-8.86 6.56-3.72-.446-6.913-1.94-9.58-4.48a1.165 1.165 0 0 1-.37-.84c-.027-.8-.363-1.456-1.01-1.97l-.47-.97c-.147-.3-.36-.543-.64-.73-2.33-1.58-7.05-8.41-.95-7.98.367.027.65.197.85.51l2.14 3.4c.227.354.45.35.67-.01l.15-.26c.147-.24.16-.49.04-.75-1.08-2.29-3.09-6.4.24-7.35 4.48-1.28 8.873-2.803 13.18-4.57Z" fill="#FEB0AF"/><path d="M391.825 318.53c.647.514.983 1.17 1.01 1.97.007.327.13.607.37.84 2.667 2.54 5.86 4.034 9.58 4.48l-1.04 6.21c-.28.69-.6.86-1.32.58a726.315 726.315 0 0 0-13.72-5.31l4.08-7.73 1.04-1.04Z" fill="#FE8A84"/><path d="m623.775 336.08 1.22 17.45c-12.08-3.43-26.6-12.7-24.65-26.75 1.27-9.25 21.61-6.62 18.89 4.79-.08.34-.037.66.13.96 1.067 1.934 2.537 3.117 4.41 3.55Z" fill="#BDCFFB"/><path d="m685.785 357.24 2.02-6.09a113.684 113.684 0 0 0 10.43-15.84c.187-.346.46-.433.82-.26 3.487 1.72 6.337 1.04 8.55-2.04.22-.313.29-.656.21-1.03-2.64-12.73 20.4-15.18 19.28-2.41-1.63 18.58-25.98 26.19-41.31 27.67Z" fill="#E8EFFD"/><path d="M386.705 327.3c4.6 1.727 9.173 3.497 13.72 5.31.72.28 1.04.11 1.32-.58l.04.96-.87 4.44a1.781 1.781 0 0 1-1.14 1.34c-6.233 2.287-11.55 1.13-15.95-3.47a1.7 1.7 0 0 1-.32-1.87l1.74-3.9 1.46-2.23Z" fill="#FEB0AF"/><path d="m385.245 329.53-1.74 3.9a1.699 1.699 0 0 0 .32 1.87c4.4 4.6 9.717 5.757 15.95 3.47a1.781 1.781 0 0 0 1.14-1.34l.87-4.44 18.26 6.29c.327.113.527.34.6.68 2.13 10.04 7.02 19.37 15.64 25.03-4.607 5.04-7.69 10.9-9.25 17.58-6.587-3.62-11.927-8.597-16.02-14.93-.24-.373-.487-.377-.74-.01l-29.49 42.36c-13.07 6.18-25 4.56-38.46 1.04-1.707-2.213-1.553-4.393.46-6.54l1.47 1.47c.247.253.537.32.87.2 2.8-1.04 7.57-3.74 8.18-6.86.59-3.02-3.59-5.78-5.77-7.48a447.503 447.503 0 0 0 13.1-41.24.263.263 0 0 0 .002-.142.269.269 0 0 0-.07-.125.293.293 0 0 0-.272-.083c-4.953 1.173-9.373 3.37-13.26 6.59-3.34-4.813-7.147-9.463-11.42-13.95 14.373-12 30.917-16.447 49.63-13.34Z" fill="#484BF1"/><path d="m626.955 336.01.83 18.48-2.79-.96-1.22-17.45c1.427-.306 2.487-.33 3.18-.07Z" fill="#E8EFFD"/><path d="M626.955 336.01c3.52 6.22 7.81 11.747 12.87 16.58.7.67.82 1.33 1.17 2.19l.8 2.73a71.013 71.013 0 0 1-14.01-3.02l-.83-18.48Z" fill="#BDCFFB"/><path d="M335.615 342.87c4.273 4.487 8.08 9.137 11.42 13.95-8.83 8.95-7.39 22.82-2.35 33.04.52 1.047 1.47 1.7 2.85 1.96 2.18 1.7 6.36 4.46 5.77 7.48-.61 3.12-5.38 5.82-8.18 6.86-.333.12-.623.053-.87-.2l-1.47-1.47c-2.06-3.447-2.983-7.183-2.77-11.21a1.213 1.213 0 0 0-.3-.87c-12.75-14.54-20.5-33.75-4.1-49.54Z" fill="#FEB0AF"/><path d="M594.655 345.58c4.907 5.713 10.867 10.113 17.88 13.2 5.333 2.347 10.023 4.127 14.07 5.34a473.635 473.635 0 0 0 7.16 44.85l-3.27 1.81-.98.6a.952.952 0 0 0-.48.84l-.04 4.81c-1.253.387-2.167.143-2.74-.73a176.143 176.143 0 0 1-9.53-16.59.21.21 0 0 0-.369.023.207.207 0 0 0-.011.147 99.514 99.514 0 0 0 8.95 16.57c.26.387.157.58-.31.58h-6.01a.881.881 0 0 1-.82-.48c-6.293-11.187-11.25-23.36-14.87-36.52-3.587-13.073-6.463-24.557-8.63-34.45Z" fill="#BDCFFB"/><path d="M347.535 391.82c-1.38-.26-2.33-.913-2.85-1.96-5.04-10.22-6.48-24.09 2.35-33.04 3.887-3.22 8.307-5.416 13.26-6.59.049-.01.1-.007.147.007a.288.288 0 0 1 .196.201.273.273 0 0 1-.003.142 447.406 447.406 0 0 1-13.1 41.24Z" fill="#E8EFFD"/><path d="M427.035 382.57c1.56-6.68 4.643-12.54 9.25-17.58 10.02 4.94 21.11 2.15 30.16-3.64.3-.186.427-.456.38-.81-.433-3.466.813-6.14 3.74-8.02.42-.266.807-.23 1.16.11l.97.92c.207.194.43.22.67.08l5.67-3.37c.353-.206.673-.166.96.12 7.28 7.32 4.05 19.47-7.88 17.17a.87.87 0 0 0-.85.27c-11.05 11.79-27.84 21.75-44.23 14.75Zm46.44-22.92c-.86-.293-1.437-.893-1.73-1.8-.18-.533-.433-.57-.76-.11-1.68 2.38 2.74 3.99 4.75 2.74.273-.173.36-.413.26-.72l-1.69-5.02c-.1-.293-.283-.363-.55-.21l-.23.14c-.313.187-.413.454-.3.8l1.08 3.36c.267.827-.01 1.1-.83.82Z" fill="#FEB0AF"/><path d="m687.805 351.15-2.02 6.09c-2.53 1.29-7.57.99-7.16 5.47.18 1.987 1.33 3.427 3.45 4.32l-12.81 34.73a.327.327 0 0 0 .047.309.331.331 0 0 0 .283.131c3.83-.23 8.69-.92 12.21.95 4.76 2.52 9.503 5.077 14.23 7.67l-.2.3c-.1.154-.24.23-.42.23l-64.28.19a.547.547 0 0 1-.55-.37.897.897 0 0 1-.09-.39l3.27-1.81 2.81-1.69 9.41-4.99c.327-.173.67-.26 1.03-.26h9.32c.46 0 .617-.216.47-.65l-11.76-34.39c3.42-1.706 4.327-3.89 2.72-6.55-1.26-2.08-3.75-2.47-5.97-2.93l-.8-2.73c.167-.76.58-.906 1.24-.44 13.44 9.6 31.19 11.24 43.24-1.63.92-.98 1.697-1.5 2.33-1.56Z" fill="#FE7064"/><path d="M789.575 454.72c-2.66 2.4-5.357 3.377-8.09 2.93-4.34-.72-12.34-8.34-16.61-11.4l-5.32-4.4c-.287-.233-.5-.176-.64.17a875.549 875.549 0 0 1-45.88 96.22 797.019 797.019 0 0 1-46.04 72.29c-1.79.36-3.82-3.42-4.62-4.77a.554.554 0 0 0-.578-.246.552.552 0 0 0-.432.456l-.31 2.26c-.04.26-.19.39-.45.39-.587.014-1.05.337-1.39.97a.234.234 0 0 0-.01.2c.033.08.057.17.07.27a.569.569 0 0 1-.11.45c-.06.067-.12.13-.18.19-.12.12-.107.223.04.31l.28.16c.533.32.493.517-.12.59l-3.91.45c-.387.047-.73.194-1.03.44l-1.64 1.33a1.097 1.097 0 0 0-.42.97l.22 3.4c.027.34.197.564.51.67l1.01.33c.213.074.347.22.4.44.307 1.354-.227 2.284-1.6 2.79a.875.875 0 0 1-.65-.01c-.773-.307-1.127-.893-1.06-1.76.02-.22-.08-.323-.3-.31l-1.35.05c-.333.014-.56.174-.68.48-.313.8-.877 1.407-1.69 1.82a.934.934 0 0 0-.53.77c-.16 1.294-.923 2.24-2.29 2.84-.273.12-.553.177-.84.17-1.66-.013-3.17.5-4.53 1.54-.287.227-.58.23-.88.01-.293-.213-.507-.187-.64.08-.333.713-.5.72-.5.02v-1.24c0-.34-.167-.5-.5-.48-1.247.06-1.667-.503-1.26-1.69.247-.713.1-.803-.44-.27l-.24.24c-.34.34-.43.21-.27-.39.133-.487.037-.933-.29-1.34-.42-.526-.657-.8-.71-.82l-1.89-.91c-.22-.1-.26-.25-.12-.45.087-.126.213-.11.38.05.327.32.557.264.69-.17a.85.85 0 0 0-.05-.61c-.08-.187-.213-.243-.4-.17-.447.174-.827.044-1.14-.39-.033-.046-.03-.076.01-.09.48-.15.17-.54-.15-.59-.1-.013-.117-.056-.05-.13l.24-.23c.233-.233.2-.416-.1-.55-.507-.22-.997-.133-1.47.26-.227.194-.237.117-.03-.23.06-.093.1-.2.12-.32.067-.38-.07-.476-.41-.29-.16.094-.35.1-.57.02-.273-.106-.27-.207.01-.3l.68-.21c.78-.246.777-.48-.01-.7a18.887 18.887 0 0 1-3.81-1.53c-.933-.5-.923-.576.03-.23.207.08.407.06.6-.06.273-.166.25-.243-.07-.23-1.347.04-2.17-.637-2.47-2.03a.83.83 0 0 0-.13-.32c-.173-.28-.31-.363-.41-.25-.093.1-.18.094-.26-.02-.453-.62-1.107-.967-1.96-1.04-.34-.033-.447-.21-.32-.53.067-.18.167-.233.3-.16.247.14.457.097.63-.13.24-.32.203-.643-.11-.97a.789.789 0 0 0-.59-.25h-2.54c-.833 0-.86-.15-.08-.45a9.739 9.739 0 0 1 2.69-.64c1.047-.106 1.047-.226 0-.36-.607-.08-1.247-.1-1.92-.06-1.42.094-1.52-.05-.3-.43.147-.046.293-.066.44-.06.387 0 .437-.13.15-.39l-.87-.8c-.08-.066-.083-.133-.01-.2l.54-.55c.293-.293.253-.353-.12-.18-.447.207-.803.25-1.07.13-.247-.113-.243-.216.01-.31l.94-.33c.687-.246.667-.37-.06-.37h-.93c-.16 0-.217-.08-.17-.24l.14-.41c.073-.213-.007-.326-.24-.34a4.5 4.5 0 0 0-.29-.01c-.38.007-.41-.093-.09-.3l1.09-.72c.02-.013.033-.006.04.02l.12.49c.113.454.203.45.27-.01l.05-.37c.013-.126-.043-.206-.17-.24l-4.81-1.19c-.093-.026-.127-.086-.1-.18.027-.093.067-.196.12-.31.093-.186.043-.243-.15-.17l-.5.21c-.2.08-.27.017-.21-.19l.79-2.76c.12-.426-.037-.673-.47-.74a2.562 2.562 0 0 1-.33-.08 1.18 1.18 0 0 0-.59-.03 5.118 5.118 0 0 1-2.6-.09c-.233-.073-.243-.17-.03-.29l.34-.21c.193-.113.187-.216-.02-.31l-1.39-.65c-.173-.08-.193-.19-.06-.33l.22-.22c.853-.846.763-.963-.27-.35l-.34.19c-.38.227-.507.127-.38-.3.32-1.09-1.53-3.41-2.63-1.57-.313.527-.44.487-.38-.12l.16-1.69c.027-.326-.123-.49-.45-.49h-.5c-.427 0-.55-.196-.37-.59.433-.94.403-1.473-.09-1.6-.333-.08-.52-.29-.56-.63l-.12-1.09c-.027-.173-.12-.22-.28-.14a5.78 5.78 0 0 0-.26.15c-.147.087-.233.117-.26.09a1.909 1.909 0 0 0-.2-.19c-.12-.12-.107-.223.04-.31l.33-.19c.073-.046.083-.103.03-.17l-3.54-4.74c42.66-37.36 81.39-77.79 115.82-123.34a518.18 518.18 0 0 0 19.19-26.18c.293-.433.193-.733-.3-.9l-19.14-6.42c-3.893-1.12-6.477-3.393-7.75-6.82-.553-3.733.42-6.556 2.92-8.47 19.44-14.9 38.893-29.78 58.36-44.64 1.92-1.466 3.44-2.983 4.56-4.55 3.66-2.33 9.08-6.34 12.96-6.58 10.61-.67 7.74 17.01 7.57 22.25-.867 26.774-1.74 53.524-2.62 80.25Z" fill="#5053FE"/><path d="m474.305 358.83-1.08-3.36c-.113-.347-.013-.613.3-.8l.23-.14c.267-.153.45-.083.55.21l1.69 5.02c.1.307.013.547-.26.72-2.01 1.25-6.43-.36-4.75-2.74.327-.46.58-.423.76.11.293.907.87 1.507 1.73 1.8.82.28 1.097.007.83-.82Z" fill="#FE8A84"/><path d="m626.605 364.12 2.93.7a368.616 368.616 0 0 0 7.04 42.46l-2.81 1.69a473.635 473.635 0 0 1-7.16-44.85Z" fill="#E8EFFD"/><path d="M629.535 364.82a76.597 76.597 0 0 0 15.51 2.17l11.76 34.39c.147.434-.01.65-.47.65h-9.32c-.36 0-.703.087-1.03.26l-9.41 4.99a368.58 368.58 0 0 1-7.04-42.46Z" fill="#BDCFFB"/><path d="m454.785 455.74-5.4 6.62c-5.68-2.433-11.81-6.283-18.39-11.55-7.53-6.02-15.05-14.5-15.86-24.56-.027-.367-.2-.457-.52-.27-2.9 1.68-5.257 2.787-7.07 3.32a179.251 179.251 0 0 1-38.11 6.83c-.34.02-.62.16-.84.42-9.2 10.667-18.383 21.333-27.55 32a31.888 31.888 0 0 1-6 5.41c-14.2 9.873-28.403 19.723-42.61 29.55a1.011 1.011 0 0 1-.88.15c-.86-.24-1.603-.617-2.23-1.13a27.558 27.558 0 0 1-5.75-6.25l-.64-1.29a.858.858 0 0 1 .05-.9 267.505 267.505 0 0 1 16.31-22.02c6.78-8.24 16.49-10.63 26.45-12.64a.87.87 0 0 0 .69-.58 476.585 476.585 0 0 0 15.89-47.82c13.46 3.52 25.39 5.14 38.46-1.04 13.633-1.32 25.863-2.76 36.69-4.32 5.247-.753 9.197 1.017 11.85 5.31a3815.07 3815.07 0 0 1 25.78 42.36c.18.3.22.613.12.94l-.44 1.46Z" fill="#0F066F"/><path d="M630.495 410.78c0 .134.03.264.09.39.1.247.283.37.55.37l64.28-.19c.18 0 .32-.076.42-.23l.2-.3c1.71.35 1.01 4.43 1.25 5.92l-.06 2.15c-.013.407-.227.61-.64.61l-66.8.31c-.3 0-.503-.14-.61-.42a3.99 3.99 0 0 1-.18-2.36l.04-4.81a.955.955 0 0 1 .48-.84l.98-.6Z" fill="#FE8A84"/><path d="m713.575 423.28 19.14 6.42c.493.167.593.467.3.9a518.18 518.18 0 0 1-19.19 26.18l-.25-33.5Z" fill="#7F99F5" fill-opacity=".996"/><path d="M555.035 454.85c.007 8.207 0 16.414-.02 24.62 0 .88-.65 2.11-1.75 1.07a1.458 1.458 0 0 1-.45-1.05c-.047-7.786-.063-15.523-.05-23.21.03-12.67 6.74-22.94 18.83-26.91 3.093-1.02 8.15-1.54 15.17-1.56 13.547-.053 27.16-.056 40.84-.01a.732.732 0 0 1 .67 1.01l-.2.49c-.133.314-.367.47-.7.47-13.947.014-27.893.03-41.84.05-15.78.03-30.51 6.98-30.5 25.03Z" fill="#BDCFFB"/><path d="M764.875 446.25c-.113 53.16-.137 106.33-.07 159.51 0 4.69.32 9.97.35 14.95.007.3.153.494.44.58.127.04.26.037.4-.01-.86 3.887-1.303 8.637-1.33 14.25-.073 19.054.08 33.904.46 44.55-16.4.834-33.383 1.05-50.95.65a5827.246 5827.246 0 0 1-.51-142.04c0-.213-.1-.343-.3-.39a2.138 2.138 0 0 0-.33-.06 875.549 875.549 0 0 0 45.88-96.22c.14-.346.353-.403.64-.17l5.32 4.4Z" fill="#7F99F5" fill-opacity=".996"/><path d="M764.875 446.25c4.27 3.06 12.27 10.68 16.61 11.4 2.733.447 5.43-.53 8.09-2.93.04 4.17.8 8.81.99 12.33 2.75 51.44-1.31 107.28-24.57 154.23a.632.632 0 0 1-.4.01c-.287-.086-.433-.28-.44-.58-.03-4.98-.35-10.26-.35-14.95-.067-53.18-.043-106.35.07-159.51Z" fill="#E8EFFD"/><path d="M484.445 447.02c-4.907 11.767-12.377 21.507-22.41 29.22-4.08-1.853-6.247-5.076-6.5-9.669 3.6.68 8.1-3.51 4.54-7.04 6.58-6.7 13.32-9.76 22.17-12.5.993-.314 1.727-.317 2.2-.011Z" fill="#0F066F"/><path d="M484.445 447.021c.92.653 1.233 1.33.94 2.03-4.707 11.226-11.663 20.3-20.87 27.22-.64.48-1.467.47-2.48-.03 10.033-7.714 17.503-17.454 22.41-29.22Z" fill="#484BF1"/><path d="M454.785 455.74a15.617 15.617 0 0 1 5.29 3.79c3.56 3.53-.94 7.72-4.54 7.04-1.873-1.78-3.923-3.183-6.15-4.21l5.4-6.62Z" fill="#FEB0AF"/><path d="M539.535 489.24c.08.014.15.057.21.13.093.107.21.16.35.16h44.83c7.72 0 11.35 2.28 11.35 10.16-.007 27.114.013 54.23.06 81.35-.527.8-1.523 1.817-2.99 3.05-54.407 45.867-113.08 84.514-176.02 115.94-1.35-1.39-.3-85.44-.31-94.65 0-6.66-.497-11.463-1.49-14.41-2.92-8.7-10.22-15.86-19.15-18.49-5.98-1.75-14.62-.79-21.63-1.2.053-24.253.063-48.503.03-72.75-.01-7.11 5.02-9 11.49-9 50.84 0 101.68.007 152.52.02.287 0 .537-.103.75-.31Zm-151.74 51.38c-.04-12.78-3.65-29.72 11.83-35.52 2.26-.853 5.797-1.286 10.61-1.3 10.16-.033 20.343-.036 30.55-.01a1.279 1.279 0 0 0 1.05-.55c.56-.8.21-1.43-.72-1.44-9.947-.12-19.887-.22-29.82-.3-15.02-.11-25.92 6.09-25.79 22.54.047 5.534.05 11.07.01 16.61 0 .367.177.607.53.72l.52.16a.929.929 0 0 0 .844-.139.953.953 0 0 0 .386-.771Zm-.013 13.002a1.083 1.083 0 0 0-1.078-1.082h-.08a1.088 1.088 0 0 0-.765.315 1.076 1.076 0 0 0-.317.763l-.014 7.84a1.088 1.088 0 0 0 .315.764 1.065 1.065 0 0 0 .763.318h.08a1.068 1.068 0 0 0 .765-.315 1.076 1.076 0 0 0 .317-.763l.014-7.84Z" fill="#FE8A84"/><path d="M283.575 496.28a27.537 27.537 0 0 0 5.75 6.25l-4.54 4.71c-3.93 1.45-7.56-3.29-5.5-6.67l4.29-4.29Z" fill="#FEB0AF"/><path d="M279.285 500.57c-2.06 3.38 1.57 8.12 5.5 6.67 3.66 8.6 2.61 20.28-.49 28.94-7.927-10.053-12.763-21.366-14.51-33.94 2.8-2.28 5.967-2.836 9.5-1.67Z" fill="#0F066F"/><path d="M399.625 505.1c-15.48 5.8-11.87 22.74-11.83 35.52a.964.964 0 0 1-.386.772.944.944 0 0 1-.844.138l-.52-.16c-.353-.113-.53-.353-.53-.72.04-5.54.037-11.076-.01-16.61-.13-16.45 10.77-22.65 25.79-22.54 9.933.08 19.873.18 29.82.3.93.01 1.28.64.72 1.44a1.279 1.279 0 0 1-1.05.55c-10.207-.026-20.39-.023-30.55.01-4.813.014-8.35.447-10.61 1.3Z" fill="#FEB0AF"/><path d="M269.785 502.24c1.747 12.574 6.583 23.887 14.51 33.94-1.253.374-2.36-.093-3.32-1.4-6.327-8.64-10.393-18.476-12.2-29.51-.22-1.36.117-2.37 1.01-3.03Z" fill="#5053FE"/><path d="M713.035 538.24c.087.007.197.027.33.06.2.047.3.177.3.39-.407 47.367-.237 94.714.51 142.04l-89.25.04a2.612 2.612 0 0 0-2.61 2.6c-.053 11.447-.053 22.81 0 34.09.007.754.497 1.597 1.47 2.53l-23.03.04a1.889 1.889 0 0 0-1.818 1.389 1.883 1.883 0 0 0-.042.811c.687 4.154 3.033 6.184 7.04 6.09 2.067 12.107 1.947 24.177-.36 36.21-2.573.074-4.837.92-6.79 2.54-.52-.546-1.173-.643-1.96-.29-.34-1.48-.51-2.98-.51-4.5 0-23.333-.023-46.666-.07-70a563.693 563.693 0 0 0 70.75-81.75 797.019 797.019 0 0 0 46.04-72.29Z" fill="#92B4FA" fill-opacity=".996"/><path d="M386.704 552.54h-.08a1.08 1.08 0 0 0-1.082 1.078l-.014 7.84a1.08 1.08 0 0 0 1.078 1.082h.08a1.08 1.08 0 0 0 1.082-1.078l.014-7.84a1.08 1.08 0 0 0-1.078-1.082Z" fill="#FEB0AF"/><path d="M366.765 571.32c3.627 2.32 5.453 5.474 5.48 9.46.2 34.41-.94 82.8.08 140.5A855.56 855.56 0 0 1 237.215 768c-4.313-.22-8.687-.456-13.12-.71-1.26-.07-3.45.23-3.46-1.7-.07-49.27.29-98.6-.31-147.87-.227-18.706-.113-32.086.34-40.14.067-1.213 1.037-3.063 2.91-5.55 2.273-.5 3.76-.75 4.46-.75 46.26-.02 92.503-.006 138.73.04Zm-133.23 33.63c-.03-14.05 10.29-22.15 23.74-22.16 13.147 0 26.293-.006 39.44-.02.253 0 .547-.143.88-.43.313-.266.263-.666-.15-1.2a.877.877 0 0 0-.68-.33 2948.675 2948.675 0 0 0-37.5.02c-5.227.04-9.187.54-11.88 1.5-9.02 3.21-14.97 10.72-15.47 20.47a306.179 306.179 0 0 0-.32 23.47c.007.294.097.554.27.781.433.58.877.593 1.33.039.22-.266.33-.573.33-.92.02-7.053.023-14.126.01-21.22Zm-.007 36.667a1.033 1.033 0 0 0-.639-.95 1.043 1.043 0 0 0-.394-.077l-.08.001a1.03 1.03 0 0 0-1.027 1.033l.034 9.6a1.018 1.018 0 0 0 .639.95c.125.051.259.077.394.077l.08-.001a1.03 1.03 0 0 0 1.027-1.033l-.034-9.6Z" fill="#92B4FA" fill-opacity=".996"/><path d="m366.765 571.32 7.98-.04c7.01.41 15.65-.55 21.63 1.2 8.93 2.63 16.23 9.79 19.15 18.49.993 2.947 1.49 7.75 1.49 14.41.01 9.21-1.04 93.26.31 94.65a678.207 678.207 0 0 1-45 21.25c-1.02-57.7.12-106.09-.08-140.5-.027-3.986-1.853-7.14-5.48-9.46Z" fill="#7F99F5" fill-opacity=".996"/><path d="m598.005 580.12 3.54 4.74c.053.067.043.123-.03.17l-.33.19c-.147.087-.16.19-.04.31.073.06.14.123.2.19.027.027.113-.003.26-.09a5.78 5.78 0 0 1 .26-.15c.16-.08.253-.033.28.14l.12 1.09c.04.34.227.55.56.63.493.127.523.66.09 1.6-.18.393-.057.59.37.59h.5c.327 0 .477.163.45.49l-.16 1.69c-.06.607.067.647.38.12 1.1-1.84 2.95.48 2.63 1.57-.127.427 0 .527.38.3l.34-.19c1.033-.613 1.123-.497.27.35l-.22.22c-.133.14-.113.25.06.33l1.39.65c.207.093.213.197.02.31l-.34.21c-.213.12-.203.217.03.29a5.14 5.14 0 0 0 2.6.09c.2-.04.397-.03.59.03.107.033.217.06.33.08.433.067.59.313.47.74l-.79 2.76c-.06.207.01.27.21.19l.5-.21c.193-.073.243-.017.15.17a2.158 2.158 0 0 0-.12.31c-.027.093.007.153.1.18l4.81 1.19c.127.033.183.113.17.24l-.05.37c-.067.46-.157.463-.27.01l-.12-.49c-.007-.027-.02-.033-.04-.02l-1.09.72c-.32.207-.29.307.09.3.1 0 .197.003.29.01.233.013.313.127.24.34l-.14.41c-.047.16.01.24.17.24h.93c.727 0 .747.123.06.37l-.94.33c-.253.093-.257.197-.01.31.267.12.623.077 1.07-.13.373-.173.413-.113.12.18l-.54.55c-.073.067-.07.133.01.2l.87.8c.287.26.237.39-.15.39a1.238 1.238 0 0 0-.44.06c-1.22.38-1.12.523.3.43.673-.04 1.313-.02 1.92.06 1.047.133 1.047.253 0 .36-.933.087-1.83.3-2.69.64-.78.3-.753.45.08.45h2.54c.233 0 .43.083.59.25.313.327.35.65.11.97-.173.227-.383.27-.63.13-.133-.073-.233-.02-.3.16-.127.32-.02.497.32.53.853.073 1.507.42 1.96 1.04.08.113.167.12.26.02.1-.113.237-.03.41.25.067.1.11.207.13.32.3 1.393 1.123 2.07 2.47 2.03.32-.013.343.063.07.23a.642.642 0 0 1-.6.06c-.953-.347-.963-.27-.03.23a18.946 18.946 0 0 0 3.81 1.53c.787.22.79.453.01.7l-.68.21c-.28.093-.283.193-.01.3.22.08.41.073.57-.02.34-.187.477-.09.41.29a.838.838 0 0 1-.12.32c-.207.347-.197.423.03.23.473-.393.963-.48 1.47-.26.3.133.333.317.1.55l-.24.23c-.067.073-.05.117.05.13.32.05.63.44.15.59-.04.013-.043.043-.01.09.313.433.693.563 1.14.39.187-.073.32-.017.4.17a.85.85 0 0 1 .05.61c-.133.433-.363.49-.69.17-.167-.16-.293-.177-.38-.05-.14.2-.1.35.12.45l1.89.91c.053.02.29.293.71.82.327.407.423.853.29 1.34-.16.6-.07.73.27.39l.24-.24c.54-.533.687-.443.44.27-.407 1.187.013 1.75 1.26 1.69.333-.02.5.14.5.48v1.24c0 .7.167.693.5-.02.133-.267.347-.293.64-.08.3.22.593.217.88-.01 1.36-1.04 2.87-1.553 4.53-1.54.287.007.567-.05.84-.17 1.367-.6 2.13-1.547 2.29-2.84a.934.934 0 0 1 .53-.77c.813-.413 1.377-1.02 1.69-1.82.12-.307.347-.467.68-.48l1.35-.05c.22-.013.32.09.3.31-.067.867.287 1.453 1.06 1.76.22.087.437.09.65.01 1.373-.507 1.907-1.437 1.6-2.79a.583.583 0 0 0-.4-.44l-1.01-.33c-.313-.107-.483-.33-.51-.67l-.22-3.4a1.096 1.096 0 0 1 .42-.97l1.64-1.33c.3-.247.643-.393 1.03-.44l3.91-.45c.613-.073.653-.27.12-.59l-.28-.16c-.147-.087-.16-.19-.04-.31.06-.06.12-.123.18-.19a.569.569 0 0 0 .11-.45c-.013-.1-.037-.19-.07-.27a.234.234 0 0 1 .01-.2c.34-.633.803-.957 1.39-.97.26 0 .41-.13.45-.39l.31-2.26a.554.554 0 0 1 .432-.456.55.55 0 0 1 .578.246c.8 1.35 2.83 5.13 4.62 4.77a563.693 563.693 0 0 1-70.75 81.75c-33.73 31.27-70.83 56.39-113.98 72.78l-6.23 2.43c-3.81.34-7.69 1.03-11.44 1.03-73.433.013-146.87.017-220.31.01-1.087 0-3.443-.177-7.07-.53a855.661 855.661 0 0 0 135.11-46.72 678.71 678.71 0 0 0 45-21.25c62.94-31.427 121.613-70.073 176.02-115.94 1.467-1.233 2.463-2.25 2.99-3.05.78-.207 1.337-.513 1.67-.92Z" fill="#484BF1"/><path d="M257.275 582.79c-13.45.01-23.77 8.11-23.74 22.16.013 7.094.01 14.167-.01 21.22 0 .347-.11.654-.33.92-.453.554-.897.54-1.33-.04a1.301 1.301 0 0 1-.27-.78c-.193-7.826-.087-15.65.32-23.47.5-9.75 6.45-17.26 15.47-20.47 2.693-.96 6.653-1.46 11.88-1.5 12.527-.086 25.027-.093 37.5-.02.131.001.26.03.378.087a.892.892 0 0 1 .302.243c.413.534.463.934.15 1.2-.333.287-.627.43-.88.43-13.147.014-26.293.02-39.44.02Z" fill="#BDCFFB"/><path d="M765.125 680.08c6.627-.473 12.86-.08 18.7 1.18a.824.824 0 0 1 .64.79l.61 37.65c0 .06-.03.14-.09.24a.554.554 0 0 1-.51.29l-76.69-.16-84-.08c-.973-.933-1.463-1.777-1.47-2.53-.053-11.28-.053-22.643 0-34.09a2.612 2.612 0 0 1 2.61-2.6l89.25-.04c17.567.4 34.55.183 50.95-.65Zm1.69 6.75a1.63 1.63 0 0 0-1.63-1.63h-15.76a1.631 1.631 0 0 0-1.63 1.63v27.06c0 .432.172.847.477 1.153.306.305.721.477 1.153.477h15.76c.432 0 .847-.172 1.153-.477.305-.306.477-.721.477-1.153v-27.06Zm-21.995-.848a.729.729 0 0 0-.214-.508.73.73 0 0 0-.51-.209l-5.68.03a.719.719 0 0 0-.716.724l.15 28.8a.724.724 0 0 0 .724.716l5.68-.03a.719.719 0 0 0 .716-.724l-.15-28.799Z" fill="#FE7064"/><path d="M765.185 685.2h-15.76c-.9 0-1.63.73-1.63 1.63v27.06c0 .9.73 1.63 1.63 1.63h15.76c.9 0 1.63-.73 1.63-1.63v-27.06c0-.9-.73-1.63-1.63-1.63Zm-21.089.066-5.68.03a.72.72 0 0 0-.716.723l.15 28.8a.72.72 0 0 0 .724.716l5.68-.03a.72.72 0 0 0 .716-.723l-.15-28.8a.72.72 0 0 0-.724-.716Zm-147.851 7.014c.047 23.334.07 46.667.07 70 0 1.52.17 3.02.51 4.5-.84.554-1.77.827-2.79.82-27.08-.23-54.18.59-81.25-.36l-1.5-.25c-2.753-.22-6.837-.706-12.25-1.46-2.58-.36-5.163.044-7.75 1.21l-.5.08c-3.18.64-6.02.054-8.52-1.76 43.15-16.39 80.25-41.51 113.98-72.78Z" fill="#FE8A84"/><path d="M785.075 719.7c4.273.034 7.67 1.314 10.19 3.84 3.88 3.88 4.99 8.82 5.04 14.69.093 8.827-.023 15.83-.35 21.01-.44 7.11-5.31 13.67-12.9 13.62-31.44-.213-62.863-.336-94.27-.37l33.64-.15c.053 0 .057-.016.01-.05-.407-.313-.89-.386-1.45-.22-.353.107-.4.03-.14-.23l.24-.24c.073-.073.07-.14-.01-.2-2.83-2.2-5.31-2.42-8.94-1.92-3.59.49-10.9.51-12.69-3.4-.2-.446-.06-.626.42-.54.5.094.743-.09.73-.55 0-.173-.087-.26-.26-.26l-23.55-.16c31.82-.053 63.65-.06 95.49-.02 5.69 0 8.94-2.47 9.12-8.29.2-6.353.207-12.7.02-19.04-.17-5.66-4.35-8.78-9.89-8.82-17.92-.12-35.833-.173-53.74-.16-1.79-.17-9.21.34-9.61-1.36a1.91 1.91 0 0 0-.41-.84 107.18 107.18 0 0 0-4.16-4.91c-.04-.053-.027-.09.04-.11.073-.026.12-.09.14-.19.033-.16-.03-.25-.19-.27l-.31-.04c-.613-.08-.607-.153.02-.22.22-.026.38-.103.48-.23l76.69.16a.552.552 0 0 0 .51-.29c.06-.1.09-.18.09-.24Z" fill="#5053FE"/><path d="m623.785 719.99 84 .08c-.1.127-.26.204-.48.23-.627.067-.633.14-.02.22l.31.04c.16.02.223.11.19.27-.02.1-.067.164-.14.19-.067.02-.08.057-.04.11a107.18 107.18 0 0 1 4.16 4.91c.207.247.343.527.41.84.4 1.7 7.82 1.19 9.61 1.36l-115.85.08c-4.007.094-6.353-1.936-7.04-6.09a1.883 1.883 0 0 1 .421-1.53 1.881 1.881 0 0 1 1.439-.67l23.03-.04Z" fill="#484BF1"/><path d="m605.935 728.32 115.85-.08c17.907-.013 35.82.04 53.74.16 5.54.04 9.72 3.16 9.89 8.82.187 6.34.18 12.687-.02 19.04-.18 5.82-3.43 8.29-9.12 8.29-31.84-.04-63.67-.033-95.49.02l-75.21-.04c2.307-12.033 2.427-24.103.36-36.21Zm175.09 7.55a.597.597 0 0 0-.6-.6h-169.44a.597.597 0 0 0-.6.6v.04a.601.601 0 0 0 .6.6h169.44a.6.6 0 0 0 .6-.6v-.04Zm.39 5.31a.77.77 0 0 0-.77-.77h-169.46c-.204 0-.4.081-.544.226a.767.767 0 0 0-.226.544v.04a.77.77 0 0 0 .77.77h169.46c.204 0 .4-.081.545-.225a.774.774 0 0 0 .225-.545v-.04Zm-.15 5.32a.722.722 0 0 0-.72-.72h-169.46a.72.72 0 0 0-.72.72v.06a.72.72 0 0 0 .72.72h169.46a.708.708 0 0 0 .509-.211.707.707 0 0 0 .211-.509v-.06Zm-.15 6.12v-1.26a.26.26 0 0 0-.26-.26h-.18c-45.188 0-88.524.059-120.477.164-31.952.105-49.903.248-49.903.396v.66c0 .074 4.407.147 12.969.215 8.563.067 21.113.129 36.934.181 15.821.052 34.604.093 55.275.122 20.672.028 42.827.042 65.202.042h.18a.26.26 0 0 0 .26-.26Zm.08 4.63a.749.749 0 0 0-.75-.75h-169.32a.749.749 0 0 0-.75.75v.04a.75.75 0 0 0 .75.75h169.32a.75.75 0 0 0 .75-.75v-.04Z" fill="#BDCFFB"/><path d="M780.425 735.271h-169.44a.6.6 0 0 0-.6.6v.04a.6.6 0 0 0 .6.599h169.44a.6.6 0 0 0 .6-.599v-.04a.6.6 0 0 0-.6-.6Zm.22 5.139h-169.46a.77.77 0 0 0-.77.77v.04c0 .425.345.77.77.77h169.46a.77.77 0 0 0 .77-.77v-.04a.77.77 0 0 0-.77-.77Zm-.1 5.37h-169.46a.72.72 0 0 0-.72.72v.06c0 .398.322.72.72.72h169.46a.72.72 0 0 0 .72-.72v-.06a.72.72 0 0 0-.72-.72Zm.57 6.84a.26.26 0 0 1-.26.26h-.18c-22.375 0-44.53-.014-65.202-.043-20.671-.028-39.454-.069-55.275-.121a8593.534 8593.534 0 0 1-36.934-.182c-8.562-.068-12.969-.14-12.969-.214v-.66c0-.148 17.951-.291 49.903-.396 31.953-.105 75.289-.164 120.477-.164h.18a.26.26 0 0 1 .26.26v1.26Zm-.67 3.88h-169.32a.75.75 0 0 0-.75.75v.04c0 .414.336.75.75.75h169.32a.75.75 0 0 0 .75-.75v-.04a.75.75 0 0 0-.75-.75Z" fill="#E8EFFD"/><path d="m605.575 764.53 75.21.04 23.55.16c.173 0 .26.087.26.26.013.46-.23.644-.73.55-.48-.086-.62.094-.42.54 1.79 3.91 9.1 3.89 12.69 3.4 3.63-.5 6.11-.28 8.94 1.92.08.06.083.127.01.2l-.24.24c-.26.26-.213.337.14.23.56-.166 1.043-.093 1.45.22.047.034.043.05-.01.05l-33.64.15c-30.087.147-60.17.067-90.25-.24-3.06-.03-3.48-2.69-3.75-5.18 1.953-1.62 4.217-2.466 6.79-2.54Z" fill="#484BF1"/><path d="M482.265 765.061c2.5 1.813 5.34 2.399 8.52 1.759l-8.25.671h-6.5l6.23-2.43Zm29.02 1.929-20-.25c2.587-1.166 5.17-1.57 7.75-1.21 5.413.753 9.497 1.24 12.25 1.46Z" fill="#FE7064"/><path d="m490.785 766.82.5-.08 20 .25 1.5.25-30.25.25 8.25-.67Z" fill="#484BF1"/><defs><filter id="a" width="1041" height="963" x="0" y="0" color-interpolation-filters="sRGB" filterUnits="userSpaceOnUse"><feFlood flood-opacity="0" result="BackgroundImageFix"/><feBlend in="SourceGraphic" in2="BackgroundImageFix" mode="normal" result="shape"/><feGaussianBlur result="effect1_foregroundBlur_411_3391" stdDeviation="75"/></filter></defs></svg>