<?xml version="1.0" encoding="UTF-8"?>
<!DOCTYPE svg PUBLIC "-//W3C//DTD SVG 1.1//EN" "http://www.w3.org/Graphics/SVG/1.1/DTD/svg11.dtd">
<svg xmlns="http://www.w3.org/2000/svg" version="1.1" width="792px" height="573px" style="shape-rendering:geometricPrecision; text-rendering:geometricPrecision; image-rendering:optimizeQuality; fill-rule:evenodd; clip-rule:evenodd" xmlns:xlink="http://www.w3.org/1999/xlink">
<g><path style="opacity:0.999" fill="#dae6fe" d="M 481.5,-0.5 C 501.5,-0.5 521.5,-0.5 541.5,-0.5C 582.003,3.38104 620.337,14.881 656.5,34C 713.337,66.2579 740.337,115.258 737.5,181C 736.65,200.163 736.483,219.33 737,238.5C 737.77,258.176 745.437,274.509 760,287.5C 778.333,316.15 785.333,347.483 781,381.5C 777.804,416.976 764.637,447.976 741.5,474.5C 728.446,471.32 715.446,467.987 702.5,464.5C 706.081,460.416 709.914,456.416 714,452.5C 722.137,436.544 718.303,424.377 702.5,416C 687.167,411.917 676.334,417.084 670,431.5C 668.068,439.092 666.568,446.759 665.5,454.5C 662.097,454.149 658.763,453.482 655.5,452.5C 652.281,445.672 649.781,438.672 648,431.5C 664.29,423.876 678.957,413.876 692,401.5C 701.38,383.635 696.88,370.802 678.5,363C 663.292,360.854 653.125,367.021 648,381.5C 644.811,394.634 643.145,407.968 643,421.5C 637.314,408.783 631.814,395.95 626.5,383C 637.014,374.153 646.514,364.319 655,353.5C 661.18,341.98 659.346,332.147 649.5,324C 634.08,317.961 623.913,322.794 619,338.5C 618.514,348.557 618.847,358.557 620,368.5C 614.93,357.125 609.764,345.791 604.5,334.5C 608.004,330.496 611.837,326.83 616,323.5C 620.712,318.457 625.045,313.123 629,307.5C 634.685,292.534 629.685,283.534 614,280.5C 601.624,282.885 596.124,290.385 597.5,303C 597.653,309.908 598.153,316.742 599,323.5C 594.21,312.753 589.043,302.253 583.5,292C 589.427,285.403 594.594,278.236 599,270.5C 600.997,258.165 595.83,252.665 583.5,254C 577.872,256.756 575.538,261.256 576.5,267.5C 576.823,272.582 577.323,277.582 578,282.5C 573.701,274.041 569.201,265.707 564.5,257.5C 570.896,251.043 576.063,243.71 580,235.5C 580.799,226.459 576.632,221.459 567.5,220.5C 560.572,222.093 556.906,226.426 556.5,233.5C 557.21,238.194 557.71,242.861 558,247.5C 554.408,240.646 550.075,234.313 545,228.5C 543.136,220.043 540.802,211.71 538,203.5C 531.592,195.98 524.925,195.647 518,202.5C 513.843,210.372 515.676,216.539 523.5,221C 529.488,224.494 535.821,227.161 542.5,229C 548.42,236.422 553.753,244.256 558.5,252.5C 558.167,252.833 557.833,253.167 557.5,253.5C 549.497,248.441 540.831,245.941 531.5,246C 522.558,252.846 522.224,260.179 530.5,268C 532.034,268.923 533.701,269.423 535.5,269.5C 545.066,267.035 554.066,263.535 562.5,259C 567.8,268.108 572.633,277.275 577,286.5C 569.519,281.56 561.352,279.06 552.5,279C 544.172,283.565 542.339,290.065 547,298.5C 551.135,302.191 555.969,303.358 561.5,302C 567.318,299.59 572.985,296.923 578.5,294C 579.5,293.333 580.5,293.333 581.5,294C 587.733,305.294 593.233,316.794 598,328.5C 586.539,321.01 574.039,316.843 560.5,316C 549.02,321.452 545.854,329.952 551,341.5C 555.649,348.499 562.149,350.999 570.5,349C 581.217,345.725 591.383,341.225 601,335.5C 608.714,348.591 615.048,362.258 620,376.5C 610.031,368.093 598.864,361.593 586.5,357C 571.771,355.074 563.438,361.408 561.5,376C 562.195,388.362 568.695,395.195 581,396.5C 595.811,394.23 609.811,389.563 623,382.5C 628.927,396.597 635.093,410.597 641.5,424.5C 641.167,424.833 640.833,425.167 640.5,425.5C 625.639,416.068 609.639,409.402 592.5,405.5C 579.199,407.131 570.866,414.465 567.5,427.5C 566.311,428.429 564.978,428.762 563.5,428.5C 557.773,427.421 552.106,426.088 546.5,424.5C 545.274,424.52 544.274,424.853 543.5,425.5C 530.541,422.01 517.541,418.677 504.5,415.5C 501.229,412.732 498.062,409.732 495,406.5C 491.184,396.862 485.851,388.196 479,380.5C 459.591,360.412 438.425,342.578 415.5,327C 410,321.5 404.5,316 399,310.5C 390.667,299.339 382.167,288.339 373.5,277.5C 379.201,276.973 383.034,273.973 385,268.5C 382.327,250.358 388.493,236.192 403.5,226C 419.538,218.06 433.705,207.56 446,194.5C 458.45,174.716 460.783,153.716 453,131.5C 447.833,119.502 439.666,110.169 428.5,103.5C 414.28,93.0275 398.28,86.5275 380.5,84C 343.907,79.1177 309.907,86.1177 278.5,105C 273.73,108.534 273.23,112.701 277,117.5C 281.333,124.833 285.667,132.167 290,139.5C 291.371,141.041 292.871,142.375 294.5,143.5C 297.374,146.927 301.041,148.094 305.5,147C 328.478,131.838 353.478,127.005 380.5,132.5C 385.576,135.273 388.743,139.607 390,145.5C 393.342,159.644 388.842,170.477 376.5,178C 359.347,186.812 344.18,198.312 331,212.5C 319.214,229.343 315.881,247.677 321,267.5C 322.777,269.79 324.944,271.457 327.5,272.5C 330.397,274.778 333.73,276.278 337.5,277C 346.494,277.5 355.494,277.666 364.5,277.5C 361.853,280.117 359.686,283.117 358,286.5C 357.502,289.817 357.335,293.15 357.5,296.5C 356.532,294.393 356.198,292.059 356.5,289.5C 347.827,289.334 339.16,289.5 330.5,290C 324.34,290.829 319.84,293.996 317,299.5C 316.11,306.914 316.443,314.247 318,321.5C 323.938,327.77 331.105,331.937 339.5,334C 351.859,334.752 364.193,334.585 376.5,333.5C 387.435,345.711 393.768,360.044 395.5,376.5C 395.334,382.832 393.834,388.832 391,394.5C 386.591,399.58 381.591,403.914 376,407.5C 375.617,406.944 375.117,406.611 374.5,406.5C 370.87,402.369 367.037,398.369 363,394.5C 360.916,390.664 358.583,386.997 356,383.5C 354.377,379.432 353.21,375.265 352.5,371C 353.435,365.182 353.602,359.349 353,353.5C 349.344,346.069 345.344,345.736 341,352.5C 338.77,356.962 337.103,361.628 336,366.5C 335.684,377.178 335.684,387.844 336,398.5C 332.133,388.566 328.467,378.566 325,368.5C 324.171,359.424 324.671,350.424 326.5,341.5C 322.286,326.039 317.12,325.705 311,340.5C 307.263,348.782 305.763,357.449 306.5,366.5C 306.565,366.938 306.399,367.272 306,367.5C 295.539,356.235 291.206,342.902 293,327.5C 291.694,322.211 288.861,318.044 284.5,315C 282.365,314.365 280.365,314.699 278.5,316C 276.646,318.543 275.479,321.376 275,324.5C 274.041,334.607 274.541,344.607 276.5,354.5C 273.531,351.358 270.698,348.025 268,344.5C 263.893,337.396 259.393,330.562 254.5,324C 251.938,321.587 248.938,319.92 245.5,319C 241.048,318.14 237.548,319.64 235,323.5C 236.613,340.012 241.28,355.679 249,370.5C 258.822,387.98 269.822,404.646 282,420.5C 304.945,442.451 328.778,463.285 353.5,483C 365.734,488.077 378.401,491.744 391.5,494C 413.522,497.059 435.522,500.226 457.5,503.5C 468.657,508.911 479.657,514.578 490.5,520.5C 427.044,523.818 363.544,525.818 300,526.5C 265.474,526.207 230.974,525.207 196.5,523.5C 200.88,509.767 195.88,503.6 181.5,505C 175.405,508.102 169.571,511.602 164,515.5C 165.323,508.531 166.823,501.531 168.5,494.5C 176.529,497.842 184.862,500.175 193.5,501.5C 203.746,500.372 207.579,494.706 205,484.5C 202.361,480.673 198.694,478.34 194,477.5C 185.56,479.803 178.06,483.803 171.5,489.5C 172.323,482.481 174.156,475.481 177,468.5C 184.78,472.141 192.947,473.308 201.5,472C 206.994,467.535 207.828,462.368 204,456.5C 199.295,452.744 194.462,452.577 189.5,456C 185.542,458.234 182.042,461.067 179,464.5C 180.045,457.531 182.211,450.865 185.5,444.5C 191.662,448.391 198.329,449.891 205.5,449C 209.511,446.649 211.011,443.149 210,438.5C 207.103,433.845 202.937,432.345 197.5,434C 193.916,436.041 190.416,438.208 187,440.5C 188.008,434.81 189.841,429.31 192.5,424C 196.102,424.691 199.768,425.524 203.5,426.5C 208.763,426.296 210.929,423.629 210,418.5C 205.29,413.366 200.457,413.366 195.5,418.5C 194.702,418.043 194.369,417.376 194.5,416.5C 194.001,412.761 193.001,409.094 191.5,405.5C 184.754,403.085 181.588,405.419 182,412.5C 184.647,416.314 187.813,419.647 191.5,422.5C 189.569,427.127 187.735,431.794 186,436.5C 185.667,432.5 185.333,428.5 185,424.5C 179.996,417.158 174.663,416.824 169,423.5C 168.21,426.634 168.543,429.634 170,432.5C 174.054,437.057 178.554,441.057 183.5,444.5C 181.381,449.737 179.548,455.071 178,460.5C 177.667,456.167 177.333,451.833 177,447.5C 174.734,440.951 170.234,438.451 163.5,440C 156.523,444.84 155.689,450.673 161,457.5C 165.546,461.714 170.379,465.547 175.5,469C 173.426,474.792 171.426,480.625 169.5,486.5C 168.508,478.353 165.841,470.853 161.5,464C 153.479,459.51 146.979,461.01 142,468.5C 141.177,472.738 141.844,476.738 144,480.5C 151.644,485.734 159.477,490.567 167.5,495C 165.667,501.167 163.833,507.333 162,513.5C 160.901,505.768 158.567,498.434 155,491.5C 146.533,485.183 139.533,486.516 134,495.5C 133.135,500.239 134.302,504.406 137.5,508C 144.474,512.532 151.474,516.698 158.5,520.5C 140.555,518.454 122.888,515.454 105.5,511.5C 119.051,508.414 123.884,500.08 120,486.5C 112.594,475.695 103.428,473.862 92.5,481C 84.9599,487.039 78.2932,493.873 72.5,501.5C 71.5084,501.672 70.8417,501.338 70.5,500.5C 72.2409,488.98 73.9076,477.313 75.5,465.5C 88.7195,470.509 102.386,472.343 116.5,471C 125.568,467.146 129.402,460.312 128,450.5C 121.924,437.363 112.424,434.197 99.5,441C 91.4181,446.411 83.9181,452.578 77,459.5C 77.6145,448.03 79.2812,436.696 82,425.5C 94.6662,430.633 107.833,432.799 121.5,432C 134.041,426.043 137.208,416.877 131,404.5C 122.855,396.235 114.021,395.402 104.5,402C 96.7532,407.076 89.5865,412.909 83,419.5C 83.4298,408.588 85.2632,397.921 88.5,387.5C 98.6934,389.919 109.027,390.752 119.5,390C 129.358,385.664 132.192,378.497 128,368.5C 120.92,360.345 113.087,359.512 104.5,366C 99.3333,371.167 94.1667,376.333 89,381.5C 90.6581,371.909 92.3248,362.242 94,352.5C 94.3076,351.692 94.8076,351.025 95.5,350.5C 104.174,354.002 113.174,355.502 122.5,355C 131.066,350.635 133.233,344.135 129,335.5C 126.208,332.4 122.708,330.733 118.5,330.5C 109.8,333.607 102.3,338.607 96,345.5C 97.3408,336.46 99.1741,327.46 101.5,318.5C 106.044,319.759 110.711,320.425 115.5,320.5C 125.114,321.312 128.614,316.978 126,307.5C 123.293,303.965 119.793,302.798 115.5,304C 111.385,306.448 107.552,309.281 104,312.5C 104.749,304.839 106.749,297.505 110,290.5C 116.925,294.032 124.092,294.865 131.5,293C 137.769,285.358 136.102,280.192 126.5,277.5C 120.448,279.371 115.282,282.704 111,287.5C 112.305,280.59 114.638,273.924 118,267.5C 123.956,263.878 128.956,259.211 133,253.5C 133.848,247.164 131.015,243.497 124.5,242.5C 119.356,243.814 116.523,247.148 116,252.5C 116.794,263.104 114.794,273.104 110,282.5C 109.667,278.833 109.333,275.167 109,271.5C 105.858,266.008 101.358,264.508 95.5,267C 92.1966,270.795 91.6966,274.962 94,279.5C 97.9123,284.083 102.412,287.917 107.5,291C 105.436,297.086 103.603,303.253 102,309.5C 101.727,304.771 101.061,300.104 100,295.5C 93.8633,289.745 88.53,290.412 84,297.5C 83.2937,299.971 83.627,302.305 85,304.5C 89.0779,309.249 93.7446,313.249 99,316.5C 98.5817,324.336 97.0817,332.003 94.5,339.5C 93.3792,333.82 92.2126,328.153 91,322.5C 83.3333,311.833 75.6667,311.833 68,322.5C 67.1628,326.295 67.4961,329.961 69,333.5C 75.4648,340.972 83.2982,346.305 92.5,349.5C 91.0678,357.829 89.5678,366.163 88,374.5C 86.2524,368.241 84.5858,361.907 83,355.5C 78.8406,348.33 72.6739,345.83 64.5,348C 54.9392,353.578 53.1058,361.078 59,370.5C 67.2995,377.472 76.1328,383.639 85.5,389C 83.6331,398.1 82.1331,407.267 81,416.5C 78.266,407.973 74.9327,399.639 71,391.5C 63.6034,379.942 54.1034,377.775 42.5,385C 37.7548,390.269 36.2548,396.436 38,403.5C 39.198,406.726 41.0314,409.559 43.5,412C 54.7697,418.469 66.7697,422.969 79.5,425.5C 77.9639,436.157 76.4639,446.824 75,457.5C 72.3203,445.103 67.1536,433.936 59.5,424C 47.8524,417.775 38.6857,420.275 32,431.5C 29.3909,440.58 31.8909,447.747 39.5,453C 50.2479,458.749 61.5812,462.582 73.5,464.5C 72.1656,476.508 70.8323,488.508 69.5,500.5C 28.5335,480.779 8.53352,447.946 9.5,402C 10.431,367.537 18.931,335.037 35,304.5C 38.6239,292.452 40.4572,280.119 40.5,267.5C 38.2639,238.862 36.5972,210.195 35.5,181.5C 33.4179,120.478 58.7512,74.9785 111.5,45C 137.636,30.359 165.636,24.6923 195.5,28C 220.507,30.5933 245.507,33.26 270.5,36C 302.867,38.4299 334.867,36.0965 366.5,29C 386.695,23.2683 406.695,16.935 426.5,10C 444.757,5.38072 463.09,1.88072 481.5,-0.5 Z"/></g>
<g><path style="opacity:1" fill="#fdfefe" d="M 413.5,49.5 C 419.747,48.2485 422.08,50.7485 420.5,57C 419.976,63.8316 419.476,70.6649 419,77.5C 416.791,79.7064 414.291,80.0398 411.5,78.5C 410.234,69.4785 410.401,60.4785 412,51.5C 412.717,50.9558 413.217,50.2891 413.5,49.5 Z"/></g>
<g><path style="opacity:1" fill="#fdfefe" d="M 462.5,58.5 C 467.264,58.0892 469.764,60.0892 470,64.5C 464.079,74.673 458.413,85.0063 453,95.5C 450.146,98.0164 447.479,97.6831 445,94.5C 444.333,92.8333 444.333,91.1667 445,89.5C 450.845,79.1394 456.679,68.806 462.5,58.5 Z"/></g>
<g><path style="opacity:1" fill="#2c70d3" d="M 428.5,103.5 C 449.288,124.488 454.788,149.154 445,177.5C 440.004,187.494 433.17,195.994 424.5,203C 416.168,208.835 407.501,214.168 398.5,219C 389.897,224.269 383.397,231.436 379,240.5C 377.827,247.437 377.16,254.437 377,261.5C 376.626,267.12 373.793,270.62 368.5,272C 354.837,272.5 341.171,272.667 327.5,272.5C 324.944,271.457 322.777,269.79 321,267.5C 315.881,247.677 319.214,229.343 331,212.5C 344.18,198.312 359.347,186.812 376.5,178C 388.842,170.477 393.342,159.644 390,145.5C 388.743,139.607 385.576,135.273 380.5,132.5C 374.983,128.359 368.649,126.193 361.5,126C 345.251,124.546 329.584,126.879 314.5,133C 307.937,136.78 301.271,140.28 294.5,143.5C 292.871,142.375 291.371,141.041 290,139.5C 285.667,132.167 281.333,124.833 277,117.5C 273.23,112.701 273.73,108.534 278.5,105C 309.907,86.1177 343.907,79.1177 380.5,84C 398.28,86.5275 414.28,93.0275 428.5,103.5 Z"/></g>
<g><path style="opacity:1" fill="#fdfefe" d="M 517.5,95.5 C 524.997,94.8038 526.997,97.6372 523.5,104C 505.656,110.17 487.822,116.337 470,122.5C 466.006,121.171 464.673,118.504 466,114.5C 466.903,113.299 468.069,112.465 469.5,112C 485.62,106.481 501.62,100.981 517.5,95.5 Z"/></g>
<g><path style="opacity:1" fill="#2368bc" d="M 428.5,103.5 C 439.666,110.169 447.833,119.502 453,131.5C 460.783,153.716 458.45,174.716 446,194.5C 433.705,207.56 419.538,218.06 403.5,226C 388.493,236.192 382.327,250.358 385,268.5C 383.034,273.973 379.201,276.973 373.5,277.5C 370.578,274.966 367.578,274.966 364.5,277.5C 355.494,277.666 346.494,277.5 337.5,277C 333.73,276.278 330.397,274.778 327.5,272.5C 341.171,272.667 354.837,272.5 368.5,272C 373.793,270.62 376.626,267.12 377,261.5C 377.16,254.437 377.827,247.437 379,240.5C 383.397,231.436 389.897,224.269 398.5,219C 407.501,214.168 416.168,208.835 424.5,203C 433.17,195.994 440.004,187.494 445,177.5C 454.788,149.154 449.288,124.488 428.5,103.5 Z"/></g>
<g><path style="opacity:1" fill="#2468bd" d="M 380.5,132.5 C 353.478,127.005 328.478,131.838 305.5,147C 301.041,148.094 297.374,146.927 294.5,143.5C 301.271,140.28 307.937,136.78 314.5,133C 329.584,126.879 345.251,124.546 361.5,126C 368.649,126.193 374.983,128.359 380.5,132.5 Z"/></g>
<g><path style="opacity:1" fill="#fea189" d="M 373.5,277.5 C 382.167,288.339 390.667,299.339 399,310.5C 404.5,316 410,321.5 415.5,327C 438.425,342.578 459.591,360.412 479,380.5C 485.851,388.196 491.184,396.862 495,406.5C 498.062,409.732 501.229,412.732 504.5,415.5C 488.805,444.85 473.138,474.184 457.5,503.5C 435.522,500.226 413.522,497.059 391.5,494C 378.401,491.744 365.734,488.077 353.5,483C 328.778,463.285 304.945,442.451 282,420.5C 269.822,404.646 258.822,387.98 249,370.5C 241.28,355.679 236.613,340.012 235,323.5C 237.548,319.64 241.048,318.14 245.5,319C 248.938,319.92 251.938,321.587 254.5,324C 259.393,330.562 263.893,337.396 268,344.5C 270.698,348.025 273.531,351.358 276.5,354.5C 284.234,362.965 290.734,372.299 296,382.5C 297.833,384.333 299.667,386.167 301.5,388C 311.639,393.651 321.973,398.818 332.5,403.5C 343.595,414.1 356.261,416.267 370.5,410C 372.544,409.502 373.878,408.335 374.5,406.5C 375.117,406.611 375.617,406.944 376,407.5C 381.591,403.914 386.591,399.58 391,394.5C 393.834,388.832 395.334,382.832 395.5,376.5C 393.768,360.044 387.435,345.711 376.5,333.5C 370.255,324.688 364.755,315.355 360,305.5C 359.007,302.526 358.174,299.526 357.5,296.5C 357.335,293.15 357.502,289.817 358,286.5C 359.686,283.117 361.853,280.117 364.5,277.5C 367.578,274.966 370.578,274.966 373.5,277.5 Z"/></g>
<g><path style="opacity:1" fill="#bbcff9" d="M 655.5,452.5 C 624.628,444.783 593.961,436.783 563.5,428.5C 564.978,428.762 566.311,428.429 567.5,427.5C 570.866,414.465 579.199,407.131 592.5,405.5C 609.639,409.402 625.639,416.068 640.5,425.5C 640.833,425.167 641.167,424.833 641.5,424.5C 635.093,410.597 628.927,396.597 623,382.5C 609.811,389.563 595.811,394.23 581,396.5C 568.695,395.195 562.195,388.362 561.5,376C 563.438,361.408 571.771,355.074 586.5,357C 598.864,361.593 610.031,368.093 620,376.5C 615.048,362.258 608.714,348.591 601,335.5C 591.383,341.225 581.217,345.725 570.5,349C 562.149,350.999 555.649,348.499 551,341.5C 545.854,329.952 549.02,321.452 560.5,316C 574.039,316.843 586.539,321.01 598,328.5C 593.233,316.794 587.733,305.294 581.5,294C 580.5,293.333 579.5,293.333 578.5,294C 572.985,296.923 567.318,299.59 561.5,302C 555.969,303.358 551.135,302.191 547,298.5C 542.339,290.065 544.172,283.565 552.5,279C 561.352,279.06 569.519,281.56 577,286.5C 572.633,277.275 567.8,268.108 562.5,259C 554.066,263.535 545.066,267.035 535.5,269.5C 533.701,269.423 532.034,268.923 530.5,268C 522.224,260.179 522.558,252.846 531.5,246C 540.831,245.941 549.497,248.441 557.5,253.5C 557.833,253.167 558.167,252.833 558.5,252.5C 553.753,244.256 548.42,236.422 542.5,229C 535.821,227.161 529.488,224.494 523.5,221C 515.676,216.539 513.843,210.372 518,202.5C 524.925,195.647 531.592,195.98 538,203.5C 540.802,211.71 543.136,220.043 545,228.5C 550.075,234.313 554.408,240.646 558,247.5C 557.71,242.861 557.21,238.194 556.5,233.5C 556.906,226.426 560.572,222.093 567.5,220.5C 576.632,221.459 580.799,226.459 580,235.5C 576.063,243.71 570.896,251.043 564.5,257.5C 569.201,265.707 573.701,274.041 578,282.5C 577.323,277.582 576.823,272.582 576.5,267.5C 575.538,261.256 577.872,256.756 583.5,254C 595.83,252.665 600.997,258.165 599,270.5C 594.594,278.236 589.427,285.403 583.5,292C 589.043,302.253 594.21,312.753 599,323.5C 598.153,316.742 597.653,309.908 597.5,303C 596.124,290.385 601.624,282.885 614,280.5C 629.685,283.534 634.685,292.534 629,307.5C 625.045,313.123 620.712,318.457 616,323.5C 611.837,326.83 608.004,330.496 604.5,334.5C 609.764,345.791 614.93,357.125 620,368.5C 618.847,358.557 618.514,348.557 619,338.5C 623.913,322.794 634.08,317.961 649.5,324C 659.346,332.147 661.18,341.98 655,353.5C 646.514,364.319 637.014,374.153 626.5,383C 631.814,395.95 637.314,408.783 643,421.5C 643.145,407.968 644.811,394.634 648,381.5C 653.125,367.021 663.292,360.854 678.5,363C 696.88,370.802 701.38,383.635 692,401.5C 678.957,413.876 664.29,423.876 648,431.5C 649.781,438.672 652.281,445.672 655.5,452.5 Z"/></g>
<g><path style="opacity:1" fill="#2d6fd0" d="M 357.5,296.5 C 358.174,299.526 359.007,302.526 360,305.5C 364.755,315.355 370.255,324.688 376.5,333.5C 364.193,334.585 351.859,334.752 339.5,334C 331.105,331.937 323.938,327.77 318,321.5C 316.443,314.247 316.11,306.914 317,299.5C 319.84,293.996 324.34,290.829 330.5,290C 339.16,289.5 347.827,289.334 356.5,289.5C 356.198,292.059 356.532,294.393 357.5,296.5 Z"/></g>
<g><path style="opacity:1" fill="#f68a79" d="M 306.5,366.5 C 315.891,378.265 324.557,390.599 332.5,403.5C 321.973,398.818 311.639,393.651 301.5,388C 299.667,386.167 297.833,384.333 296,382.5C 290.734,372.299 284.234,362.965 276.5,354.5C 274.541,344.607 274.041,334.607 275,324.5C 275.479,321.376 276.646,318.543 278.5,316C 280.365,314.699 282.365,314.365 284.5,315C 288.861,318.044 291.694,322.211 293,327.5C 291.206,342.902 295.539,356.235 306,367.5C 306.399,367.272 306.565,366.938 306.5,366.5 Z"/></g>
<g><path style="opacity:1" fill="#e97161" d="M 374.5,406.5 C 373.878,408.335 372.544,409.502 370.5,410C 356.261,416.267 343.595,414.1 332.5,403.5C 324.557,390.599 315.891,378.265 306.5,366.5C 305.763,357.449 307.263,348.782 311,340.5C 317.12,325.705 322.286,326.039 326.5,341.5C 324.671,350.424 324.171,359.424 325,368.5C 328.467,378.566 332.133,388.566 336,398.5C 335.684,387.844 335.684,377.178 336,366.5C 337.103,361.628 338.77,356.962 341,352.5C 345.344,345.736 349.344,346.069 353,353.5C 353.602,359.349 353.435,365.182 352.5,371C 353.21,375.265 354.377,379.432 356,383.5C 358.583,386.997 360.916,390.664 363,394.5C 367.037,398.369 370.87,402.369 374.5,406.5 Z"/></g>
<g><path style="opacity:1" fill="#bbcff9" d="M 70.5,500.5 C 70.1667,500.5 69.8333,500.5 69.5,500.5C 70.8323,488.508 72.1656,476.508 73.5,464.5C 61.5812,462.582 50.2479,458.749 39.5,453C 31.8909,447.747 29.3909,440.58 32,431.5C 38.6857,420.275 47.8524,417.775 59.5,424C 67.1536,433.936 72.3203,445.103 75,457.5C 76.4639,446.824 77.9639,436.157 79.5,425.5C 66.7697,422.969 54.7697,418.469 43.5,412C 41.0314,409.559 39.198,406.726 38,403.5C 36.2548,396.436 37.7548,390.269 42.5,385C 54.1034,377.775 63.6034,379.942 71,391.5C 74.9327,399.639 78.266,407.973 81,416.5C 82.1331,407.267 83.6331,398.1 85.5,389C 76.1328,383.639 67.2995,377.472 59,370.5C 53.1058,361.078 54.9392,353.578 64.5,348C 72.6739,345.83 78.8406,348.33 83,355.5C 84.5858,361.907 86.2524,368.241 88,374.5C 89.5678,366.163 91.0678,357.829 92.5,349.5C 83.2982,346.305 75.4648,340.972 69,333.5C 67.4961,329.961 67.1628,326.295 68,322.5C 75.6667,311.833 83.3333,311.833 91,322.5C 92.2126,328.153 93.3792,333.82 94.5,339.5C 97.0817,332.003 98.5817,324.336 99,316.5C 93.7446,313.249 89.0779,309.249 85,304.5C 83.627,302.305 83.2937,299.971 84,297.5C 88.53,290.412 93.8633,289.745 100,295.5C 101.061,300.104 101.727,304.771 102,309.5C 103.603,303.253 105.436,297.086 107.5,291C 102.412,287.917 97.9123,284.083 94,279.5C 91.6966,274.962 92.1966,270.795 95.5,267C 101.358,264.508 105.858,266.008 109,271.5C 109.333,275.167 109.667,278.833 110,282.5C 114.794,273.104 116.794,263.104 116,252.5C 116.523,247.148 119.356,243.814 124.5,242.5C 131.015,243.497 133.848,247.164 133,253.5C 128.956,259.211 123.956,263.878 118,267.5C 114.638,273.924 112.305,280.59 111,287.5C 115.282,282.704 120.448,279.371 126.5,277.5C 136.102,280.192 137.769,285.358 131.5,293C 124.092,294.865 116.925,294.032 110,290.5C 106.749,297.505 104.749,304.839 104,312.5C 107.552,309.281 111.385,306.448 115.5,304C 119.793,302.798 123.293,303.965 126,307.5C 128.614,316.978 125.114,321.312 115.5,320.5C 110.711,320.425 106.044,319.759 101.5,318.5C 99.1741,327.46 97.3408,336.46 96,345.5C 102.3,338.607 109.8,333.607 118.5,330.5C 122.708,330.733 126.208,332.4 129,335.5C 133.233,344.135 131.066,350.635 122.5,355C 113.174,355.502 104.174,354.002 95.5,350.5C 94.8076,351.025 94.3076,351.692 94,352.5C 92.3248,362.242 90.6581,371.909 89,381.5C 94.1667,376.333 99.3333,371.167 104.5,366C 113.087,359.512 120.92,360.345 128,368.5C 132.192,378.497 129.358,385.664 119.5,390C 109.027,390.752 98.6934,389.919 88.5,387.5C 85.2632,397.921 83.4298,408.588 83,419.5C 89.5865,412.909 96.7532,407.076 104.5,402C 114.021,395.402 122.855,396.235 131,404.5C 137.208,416.877 134.041,426.043 121.5,432C 107.833,432.799 94.6662,430.633 82,425.5C 79.2812,436.696 77.6145,448.03 77,459.5C 83.9181,452.578 91.4181,446.411 99.5,441C 112.424,434.197 121.924,437.363 128,450.5C 129.402,460.312 125.568,467.146 116.5,471C 102.386,472.343 88.7195,470.509 75.5,465.5C 73.9076,477.313 72.2409,488.98 70.5,500.5 Z"/></g>
<g><path style="opacity:1" fill="#93b0e2" d="M 194.5,416.5 C 195.429,412.716 196.762,409.049 198.5,405.5C 195.479,402.314 192.646,398.98 190,395.5C 189.379,389.122 192.212,386.622 198.5,388C 199.333,388.833 200.167,389.667 201,390.5C 201.333,393.167 201.667,395.833 202,398.5C 203.333,395.833 204.667,393.167 206,390.5C 206.229,385.584 207.396,380.918 209.5,376.5C 213.04,373.644 216.206,373.977 219,377.5C 219.667,379.167 219.667,380.833 219,382.5C 215.283,385.885 211.283,388.885 207,391.5C 205.5,394.5 204,397.5 202.5,400.5C 202.833,400.833 203.167,401.167 203.5,401.5C 205.63,400.533 207.63,399.366 209.5,398C 215.182,397.352 218.016,399.852 218,405.5C 216.438,407.91 214.271,409.244 211.5,409.5C 207.703,408.567 204.036,407.234 200.5,405.5C 198.74,409.357 196.74,413.024 194.5,416.5 Z"/></g>
<g><path style="opacity:1" fill="#bacef9" d="M 702.5,464.5 C 689.942,461.612 677.608,458.279 665.5,454.5C 666.568,446.759 668.068,439.092 670,431.5C 676.334,417.084 687.167,411.917 702.5,416C 718.303,424.377 722.137,436.544 714,452.5C 709.914,456.416 706.081,460.416 702.5,464.5 Z"/></g>
<g><path style="opacity:1" fill="#89b4fe" d="M 504.5,415.5 C 517.541,418.677 530.541,422.01 543.5,425.5C 527.339,456.488 511.673,487.821 496.5,519.5C 494.435,519.517 492.435,519.85 490.5,520.5C 479.657,514.578 468.657,508.911 457.5,503.5C 473.138,474.184 488.805,444.85 504.5,415.5 Z"/></g>
<g><path style="opacity:1" fill="#1a1064" d="M 518.5,424.5 C 523.214,424.201 524.88,426.201 523.5,430.5C 520.123,433.485 517.79,432.819 516.5,428.5C 516.752,426.927 517.418,425.594 518.5,424.5 Z"/></g>
<g><path style="opacity:1" fill="#110358" d="M 563.5,428.5 C 593.961,436.783 624.628,444.783 655.5,452.5C 658.763,453.482 662.097,454.149 665.5,454.5C 677.608,458.279 689.942,461.612 702.5,464.5C 715.446,467.987 728.446,471.32 741.5,474.5C 723.832,493.835 701.832,505.002 675.5,508C 660.028,510.291 644.528,510.791 629,509.5C 584.932,514.005 540.766,517.338 496.5,519.5C 511.673,487.821 527.339,456.488 543.5,425.5C 544.274,424.853 545.274,424.52 546.5,424.5C 552.106,426.088 557.773,427.421 563.5,428.5 Z"/></g>
<g><path style="opacity:1" fill="#90aee1" d="M 194.5,416.5 C 194.369,417.376 194.702,418.043 195.5,418.5C 200.457,413.366 205.29,413.366 210,418.5C 210.929,423.629 208.763,426.296 203.5,426.5C 199.768,425.524 196.102,424.691 192.5,424C 189.841,429.31 188.008,434.81 187,440.5C 190.416,438.208 193.916,436.041 197.5,434C 202.937,432.345 207.103,433.845 210,438.5C 211.011,443.149 209.511,446.649 205.5,449C 198.329,449.891 191.662,448.391 185.5,444.5C 182.211,450.865 180.045,457.531 179,464.5C 182.042,461.067 185.542,458.234 189.5,456C 194.462,452.577 199.295,452.744 204,456.5C 207.828,462.368 206.994,467.535 201.5,472C 192.947,473.308 184.78,472.141 177,468.5C 174.156,475.481 172.323,482.481 171.5,489.5C 178.06,483.803 185.56,479.803 194,477.5C 198.694,478.34 202.361,480.673 205,484.5C 207.579,494.706 203.746,500.372 193.5,501.5C 184.862,500.175 176.529,497.842 168.5,494.5C 166.823,501.531 165.323,508.531 164,515.5C 169.571,511.602 175.405,508.102 181.5,505C 195.88,503.6 200.88,509.767 196.5,523.5C 183.827,522.595 171.16,521.595 158.5,520.5C 151.474,516.698 144.474,512.532 137.5,508C 134.302,504.406 133.135,500.239 134,495.5C 139.533,486.516 146.533,485.183 155,491.5C 158.567,498.434 160.901,505.768 162,513.5C 163.833,507.333 165.667,501.167 167.5,495C 159.477,490.567 151.644,485.734 144,480.5C 141.844,476.738 141.177,472.738 142,468.5C 146.979,461.01 153.479,459.51 161.5,464C 165.841,470.853 168.508,478.353 169.5,486.5C 171.426,480.625 173.426,474.792 175.5,469C 170.379,465.547 165.546,461.714 161,457.5C 155.689,450.673 156.523,444.84 163.5,440C 170.234,438.451 174.734,440.951 177,447.5C 177.333,451.833 177.667,456.167 178,460.5C 179.548,455.071 181.381,449.737 183.5,444.5C 178.554,441.057 174.054,437.057 170,432.5C 168.543,429.634 168.21,426.634 169,423.5C 174.663,416.824 179.996,417.158 185,424.5C 185.333,428.5 185.667,432.5 186,436.5C 187.735,431.794 189.569,427.127 191.5,422.5C 187.813,419.647 184.647,416.314 182,412.5C 181.588,405.419 184.754,403.085 191.5,405.5C 193.001,409.094 194.001,412.761 194.5,416.5 Z"/></g>
<g><path style="opacity:1" fill="#bbcff9" d="M 105.5,511.5 C 93.9196,509.748 82.9196,506.415 72.5,501.5C 78.2932,493.873 84.9599,487.039 92.5,481C 103.428,473.862 112.594,475.695 120,486.5C 123.884,500.08 119.051,508.414 105.5,511.5 Z"/></g>
</svg>
