<svg xmlns="http://www.w3.org/2000/svg" fill="none" viewBox="0 0 812 782"><g filter="url(#a)"><ellipse fill="#fff" fill-opacity=".4" cx="406" cy="391" rx="306" ry="291"/></g><path d="M568.25 179.54c-.74.8-1.83 1.94-2.81 2.46-32.85 17.22-59.55 42-66.82 79.81" stroke="#BED3FD" stroke-width="2"/><path d="M498.62 261.81A280.773 280.773 0 0 0 474.71 245" stroke="#7F7DBE" stroke-width="2"/><path d="m474.71 245 6.22-10.55a.255.255 0 0 1 .159-.118.273.273 0 0 1 .201.028c14.55 8.17 22.99-13.23 24.95-23.37a4121.43 4121.43 0 0 0 2.76-14.45" stroke="#F4D2D9" stroke-width="2"/><path d="M509 196.54c8.43.26 16.11-1.89 16.14-12.06.02-7.93-2.42-20.95-13.37-18.63-10.3 2.19-19.06 5.45-30.18 2.27-12.8-3.65-17.57 7.37-14.04 17.72.113.347.013.617-.3.81-5.89 3.64-4.35 10.77.25 14.64" stroke="#7F7DBE" stroke-width="2"/><path d="M467.5 201.29c-.98 3.093-.357 5.727 1.87 7.9a.669.669 0 0 1 .03.93l-20.61 22.63" stroke="#F4D2D9" stroke-width="2"/><path d="M448.79 232.75a120.533 120.533 0 0 0-33.72-8.38c-3.96-.4-8.22-.16-11.23 2.87a482.825 482.825 0 0 0-31.49 34.89" stroke="#7F7DBE" stroke-width="2"/><path d="M372.35 262.13c-3.747-15.487-8.6-29.96-14.56-43.42-8.28-18.68-21.407-33.21-39.38-43.59" stroke="#BED3FD" stroke-width="2"/><path d="M500.79 264a420.39 420.39 0 0 1-18.37 18.92c-2.22 2.15-5.4 4.27-8.17 3.8-14.333-2.433-28.667-4.88-43-7.34-3.35-.57-6.36-.63-8.93 1.18-7.09 4.99-5 10.96-1.38 17.86 6.193 11.787 12.37 23.577 18.53 35.37 1.047 2.013 1.14 4.403.28 7.17" stroke="#89497F" stroke-width="2"/><path d="M439.75 340.96c-4.56-.107-9.127.19-13.7.89-.34.047-.547-.093-.62-.42-.46-2.06-1.72-3.283-3.78-3.67a1.2 1.2 0 0 0-1.29 1.72c1.34 2.64 1.986 5.51 1.94 8.61-.09 5.66 2.81 11.16 5.7 15.87" stroke="#895F98" stroke-width="2"/><path d="M428 363.96A186.86 186.86 0 0 0 417.71 384" stroke="#89497F" stroke-width="2"/><path d="M417.71 384a421.69 421.69 0 0 0-36.46 1.96" stroke="#2B27B0" stroke-width="2"/><path d="m377.53 362.05-.85-23.97a.943.943 0 0 0-.46-.8l-6.67-4.16" stroke="#535FBC" stroke-width="2"/><path d="M369.55 333.12c-2.34-2.013-5.163-3.92-8.47-5.72" stroke="#696EBC" stroke-width="2"/><path d="M509 196.54a58.615 58.615 0 0 1-15.2-4.56c-10.89-4.95-14.37 6.82-17.11 14.74-.17.47-.88 1.35-1.26 1.57a.776.776 0 0 1-.853-.028.776.776 0 0 1-.317-.792l1.07-5.58a1.01 1.01 0 0 0-.18-.8c-2.56-3.52-4.85-.57-7.65.2" stroke="#895F98" stroke-width="2"/><path d="M372.35 262.13c-7.72 9.607-14.49 19.98-20.31 31.12" stroke="#535FBC" stroke-width="2"/><path d="M352.04 293.25c-7.02-12.047-12.37-20.377-16.05-24.99-29.81-37.32-69.6-72-113.02-92.61a.806.806 0 0 0-.843.092.803.803 0 0 0-.287.798c.17.8 1.51 1.44 2.08 1.79 42.09 26.19 83.87 61 112.28 101.72 4.167 5.967 8.377 12.98 12.63 21.04" stroke="#A8C4FB" stroke-width="2"/><path d="M348.83 301.09c-1.48 5.76-1.95 12.64 2.24 16.84 2.62 2.62 5.957 5.777 10.01 9.47" stroke="#535FBC" stroke-width="2"/><path d="M361.08 327.4a308.594 308.594 0 0 1 15.29 56.06c.21 1.22.78 1.82 1.13 3m-1.25.25c-8.99-20.58-16.9-41.77-28.27-61.19-8.95-15.27-21.17-28.72-40.9-26.74-16.27 1.62-32.58 7.24-48.13 13.21" stroke="#A8C4FB" stroke-width="2"/><path d="M258.95 311.99c-12.234-9.967-21.644-21.45-28.23-34.45-3.547-7-6.117-11.84-7.71-14.52" stroke="#BED3FD" stroke-width="2"/><path d="M652.33 282.87c-.873 2.98-2.327 8.52-4.36 16.62-3.373 13.427-9.627 26.18-18.76 38.26" stroke="#BBD0FD" stroke-width="2"/><path d="M629.21 337.75c-16.42-.71-27.76-1.39-41.92.38" stroke="#A8C4FB" stroke-width="2"/><path d="M587.29 338.13c.16-7.89-6-9.52-11.75-12.38" stroke="#C89EBD" stroke-width="2"/><path d="M575.54 325.75c.067-3.133-.49-6.187-1.67-9.16-.12-.307-.32-.55-.6-.73-5.82-3.66-15.29-7.57-20.77-1.82" stroke="#C8B4D7" stroke-width="2"/><path d="M544.75 310.21c19.66-45.64 49.31-89.91 83.84-127.59a1.03 1.03 0 0 0 .23-1.01c-.37-1.18-1.62-.55-2.27.04-37.49 33.98-67.21 78.29-87.73 124.32" stroke="#A8C4FB" stroke-width="2"/><path d="M538.82 305.97a10.523 10.523 0 0 1-2.29-5.23 9166.211 9166.211 0 0 0-5.94-40.66c-.447-3.013-1.22-5.277-2.32-6.79-3.5-4.83-10.96-5.84-15.44-1.11A233.825 233.825 0 0 1 500.79 264" stroke="#C89EBD" stroke-width="2"/><path d="M474.71 245c-8.05 10.63-32.84-2.22-25.92-12.25" stroke="#895F98" stroke-width="2"/><path d="M552.5 314.04c4.23 3.88 12.87 7.42 8.12 14.82-.153.24-.356.297-.61.17a1319.71 1319.71 0 0 1-17.94-8.87c-8.53-4.3-14-8.21-15.33-17.4l-3.82-26.36c-.366-2.513-1.066-4.427-2.1-5.74-4.87-6.18-10.4-2-14.74 2.55a724.52 724.52 0 0 1-17.57 17.8c-1.26 1.24-6.06 3.8-5.43 5.41.133.347.377.46.73.34 2.327-.793 4.077-1.78 5.25-2.96a2419.113 2419.113 0 0 0 20.54-20.83c4.62-4.73 9.86-3.78 10.88 3.12 1.36 9.213 2.717 18.433 4.07 27.66 1.15 7.78 6.43 13.31 13.68 17a1376.476 1376.476 0 0 0 21.24 10.59c3.98 1.94 7.5 4.05 5.49 8.84-.467 1.12-1.406 2.037-2.82 2.75-8.486 4.293-17 8.527-25.54 12.7-8.54 4.17-11.3 11.39-12.81 21.13a1322.915 1322.915 0 0 0-3.5 24c-.56 4.07-5.56 6.68-8.96 3.4a612.717 612.717 0 0 1-15.61-15.57c-.313-.333-.593-.307-.84.08l-.63.99c-.2.32-.17.617.09.89 3.213 3.3 6.407 6.583 9.58 9.85 6 6.18 10.48 11.76 17.96 3.6" stroke="#FE9E9A" stroke-width="2"/><path d="m521.88 404 2.48 4.43c.16.28.093.483-.2.61-1.673.76-2.323 2.083-1.95 3.97.06.32.23.563.51.73 1.26.767 2.263.497 3.01-.81 1.207-2.113 2.803-3.213 4.79-3.3.327-.013.483-.183.47-.51a2.468 2.468 0 0 1 .06-.63c.073-.34.123-.337.15.01l.09 1.25" stroke="#FE8780" stroke-width="2"/><path d="M531.29 409.75c-.487 4.233-.88 7.013-1.18 8.34-1.84 8.13-11.46 11.54-17.55 5.32-9.713-9.927-19.393-19.79-29.04-29.59" stroke="#A76DC0" stroke-width="2"/><path d="M483.52 393.82c-5.7-7.38-14.37-4.41-22.77-2.61" stroke="#A065B2" stroke-width="2"/><path d="M460.75 391.21a1266.398 1266.398 0 0 0-26.91 4.51c-7.33 1.31-12.43 1.17-15.84-5.76" stroke="#A76DC0" stroke-width="2"/><path d="M418 389.96a13.352 13.352 0 0 1-.29-5.96" stroke="#A065B2" stroke-width="2"/><path d="M428 363.96c5.07 7.53 8.2-3.42 8.72-6.5a1.102 1.102 0 0 1 1.53-.83c1.52.673 2.54.187 3.06-1.46.273-.887.027-1.59-.74-2.11l-1.38-.93c-.493-.34-.457-.6.11-.78l.94-.29c.44-.14.667-.437.68-.89l.06-1.89c.007-.407-.187-.667-.58-.78l-1.83-.53c-.587-.167-.61-.39-.07-.67 2.273-1.2 2.69-2.98 1.25-5.34" stroke="#FE9E9A" stroke-width="2"/><path d="M418 389.96c-79.11 2.21-155.02 27.44-223.03 67.95-13.58 8.09-15.92 15.89-15.94 32.19-.04 37.647-.047 75.293-.02 112.94.01 6.97 4.86 7.68 8.56 12.06" stroke="#494BF1" stroke-width="2"/><path d="M369.62 387.43c-9.48-12.387-19.883-24.753-31.21-37.1-20.89-22.8-51.8-28.61-80.9-21.52a.226.226 0 0 0-.18.17c-.033.12-.067.233-.1.34-.1.327.017.467.35.42 27.33-3.39 55.86-.59 75.85 20.33 10.713 11.22 21.757 23.807 33.13 37.76" stroke="#D1DEFD" stroke-width="2"/><path d="M366.56 387.83a666.997 666.997 0 0 0-42.56 8.88" stroke="#808BEF" stroke-width="2"/><path d="M258.95 311.99a654.624 654.624 0 0 0-30.64 13.84c-3.42 1.66-3.17 4.88.26 6.4 15.35 6.82 35.77 18.4 45.11 32.85 11.74 18.15 29.03 28.17 50.05 30.56.367.04.527.243.48.61-.02.147-.09.3-.21.46" stroke="#D4E1FD" stroke-width="2"/><path d="M324 396.71c-48.49 13.02-94.34 33.1-137.79 59.52-6.087 3.693-10.203 9.34-12.35 16.94-.227.813-.44.81-.64-.01a9.07 9.07 0 0 1-.16-3.55c.027-.2-.023-.223-.15-.07l-.18.21c-.153.173-.227.143-.22-.09.02-.52-.183-.923-.61-1.21" stroke="#969AF1" stroke-width="2"/><path d="M670.46 355.25c-2.687 1.027-4.983 2.577-6.89 4.65-8.98 9.78-16.87 18.43-23.38 30.15-4.14 7.47-5.66 16.34-9.72 23.53-4.12 7.32-9.29 13.877-15.51 19.67" stroke="#D1DEFD" stroke-width="2"/><path d="M614.96 433.25a553.338 553.338 0 0 0-50.75-23" stroke="#808BEF" stroke-width="2"/><path d="M564.21 410.25c13.35-32.86 44.1-49.29 77.79-53.28.393-.047.643-.203.75-.47.153-.393.02-.58-.4-.56-29.17 1.06-58.87 14.07-74.78 39.37-1.72 2.733-4.09 7.213-7.11 13.44" stroke="#D1DEFD" stroke-width="2"/><path d="M540.96 402A162.26 162.26 0 0 1 552 361.79" stroke="#A8C4FB" stroke-width="2"/><path d="M668.99 341.53c-1.12.8-2.363 1.1-3.73.9-11.993-1.72-24.01-3.28-36.05-4.68" stroke="#D1DEFD" stroke-width="2"/><path d="M587.29 338.13c-.27 5.01-2.55 7.42-7.15 9.68A5491.535 5491.535 0 0 0 552 361.79" stroke="#DEADBE" stroke-width="2"/><path d="M552 361.79c-5.44 2.59-14.44 5.54-15.4 12.28a2224.99 2224.99 0 0 1-3.81 25.68" stroke="#C89EBD" stroke-width="2"/><path d="M575.54 325.75c-.413 4.92-2.96 7.937-7.64 9.05-.313.073-.433.27-.36.59 1.22 5.48-1.23 8.14-6.12 10.53a992.64 992.64 0 0 0-24.08 12.14c-7.33 3.82-9.84 9.49-11.02 17.79a940.175 940.175 0 0 1-4.44 28.15" stroke="#FE9E9A" stroke-width="2"/><path d="M544.75 310.21c-2.734-.913-4.71-2.327-5.93-4.24" stroke="#DEADBE" stroke-width="2"/><path d="M532.16 404.89a465.83 465.83 0 0 1 104.15 45.3c5.833 3.433 11.66 6.853 17.48 10.26 4.04 2.367 7.22 5.517 9.54 9.45.147.253.343.457.59.61l2.33 1.45" stroke="#494BF1" stroke-width="2"/><path d="M576.93 577.88c-43.253-15.62-87.9-24.03-133.94-25.23-71.5-1.85-141.92 13.68-207.79 41.08-.873.367-2.327 1.05-4.36 2.05" stroke="#9A9FFF" stroke-width="2"/><path d="M483.52 393.82c-5.3-.207-10.56-.717-15.78-1.53-1.99-.31-4.56.23-6.99-1.08" stroke="#494BF1" stroke-width="2"/><path d="M369.62 387.43c-1.513.567-2.533.7-3.06.4M658.71 459c-.307.073-.577.03-.81-.13a630.544 630.544 0 0 0-42.94-25.62m-50.75-23-3.75-1.5" stroke="#9297F1" stroke-width="2"/><path d="M518.47 192.11c-1.24 1.06-2.97 1.57-4.53 2.39-.993.52-.947.63.14.33 5.42-1.51 8.51-5.43 8.82-11.08.08-1.43.04-6.86-1.18-7.68-.293-.193-.387-.123-.28.21 1.61 5.27 1.6 11.97-2.97 15.83Z" stroke="#535FBC" stroke-width="2"/><path d="M442.68 381.65c-3.25.57-6.43-1.64-6.65-4.83-.08-1.187.403-2.767 1.45-4.74 3.873-7.32 7.713-14.667 11.52-22.04 4.38-8.5 4.83-14.77.36-23.7a849.54 849.54 0 0 0-12.11-23.29c-3.42-6.34.81-9.92 7.25-8.89a823 823 0 0 1 20.48 3.52c.48.087.726-.113.74-.6l.04-1.04c.013-.393-.177-.627-.57-.7-6.174-1.06-12.354-2.12-18.54-3.18-3.407-.58-5.734-.727-6.98-.44-4.97 1.15-7.4 6.78-4.89 11.48 3.22 6.01 7.4 14.83 12.55 24.06 5.21 9.33 2.77 15.84-2.35 25.49-3.12 5.88-6.22 11.77-9.3 17.67-1.254 2.4-1.937 4.243-2.05 5.53-.47 5.29 4.91 8.84 9.81 8.01 11.1-1.89 22.72-4.74 33.94-4.97.413-.007.646-.217.7-.63l.11-.87c.06-.493-.157-.74-.65-.74-11.27-.02-23.71 2.94-34.86 4.9Z" stroke="#FE9E9A" stroke-width="2"/><path d="M396.32 472.93c1.41 1.36 1.39 3.82 1.1 5.6a5214.565 5214.565 0 0 0-3.24 20.21c-.98 6.25 4.17 8.48 9.18 5.78 6.467-3.487 12.943-6.95 19.43-10.39 1.427-.753 2.66-.873 3.7-.36 6.727 3.313 13.45 6.627 20.17 9.94 5.48 2.71 9.72-.32 8.56-6.46-1.333-7.04-2.663-14.083-3.99-21.13-.37-1.98.15-3.82 1.48-5.16a2746.93 2746.93 0 0 0 15.21-15.49c4.61-4.74 2.11-9.29-4-10.08a6648.106 6648.106 0 0 0-19.35-2.47c-3.07-.39-4.62-.67-6.17-3.62a6982.723 6982.723 0 0 1-9.68-18.49c-3.25-6.25-8.31-5.47-11.17.63a2049.327 2049.327 0 0 1-9.22 19.41c-.64 1.33-2.4 2.35-3.84 2.6-6.72 1.167-13.447 2.3-20.18 3.4-2.367.387-3.987.913-4.86 1.58-2.21 1.71-2.81 5.78-.54 7.91a1078.04 1078.04 0 0 1 17.41 16.59Zm95.56 4.58c.88 1.66.66 2.96-.07 4.55-2.794 6.1-5.61 12.19-8.45 18.27-2.96 6.33-.59 11.02 6.86 9.34 6.493-1.46 12.99-2.903 19.49-4.33 2.54-.56 4.18-.52 6.04 1.17 5.166 4.72 10.323 9.453 15.47 14.2 3.53 3.26 9.67 4.21 10.34-2.15a852.749 852.749 0 0 0 2.01-22.13c.18-2.32 1.046-3.913 2.6-4.78a7315.055 7315.055 0 0 0 19.5-10.95c6.25-3.53 3.91-8.66-1.69-11.04a1182.133 1182.133 0 0 1-18.59-8.1c-2.07-.92-3.19-2.19-3.62-4.31a2335.623 2335.623 0 0 1-4.09-20.5c-.73-3.76-2.93-7.32-7.14-5.8-1.307.467-2.914 1.807-4.82 4.02a558.218 558.218 0 0 1-13.2 14.8c-1.22 1.32-2.87 1.863-4.95 1.63-6.974-.773-13.94-1.587-20.9-2.44-5.21-.64-9.67 3.37-6.42 8.52a310.75 310.75 0 0 1 11.63 20.03Zm-184.7 21.09a331.378 331.378 0 0 1 3.23 22.44c.72 6.6 5.98 7.64 10.49 3.2l14.68-14.44c2.2-2.17 3.51-2.35 6.43-1.82 6.56 1.2 13.133 2.413 19.72 3.64 5.81 1.08 9.97-2.31 7.02-8.26a2428.417 2428.417 0 0 0-10.07-20.01c-.54-1.06-.6-2.88-.15-3.8 1.753-3.547 5.497-10.403 11.23-20.57 3-5.33-1.74-8.94-6.87-8.17-4.29.66-23.15 4.74-25.73 2.05a3044.949 3044.949 0 0 1-15.03-15.84c-5.65-6.01-9.81-2.07-10.84 4.61-1.06 6.84-2.183 13.673-3.37 20.5-.21 1.22-1.72 2.78-2.82 3.3-4.11 1.94-21.62 9.05-23.13 12.36-2.2 4.82 1.32 6.76 5.37 8.79 3.53 1.77 19.25 8.69 19.84 12.02Zm-65.49 39.09a377.152 377.152 0 0 1 22.44 3.9c3.62.74 7.48-.12 7.88-4.19.44-4.49-8.64-19.48-11.02-24.21-.16-.327-.24-.67-.24-1.03v-2.01c0-.327.076-.637.23-.93 3.346-6.227 6.71-12.443 10.09-18.65 2.91-5.35 1.86-10.97-5.57-9.84l-21.26 3.2c-2.06.313-3.877-.343-5.45-1.97a1198.68 1198.68 0 0 1-13.64-14.35c-4.96-5.3-10.12-4.65-11.34 3.07a890.655 890.655 0 0 1-3.57 20.97c-.314 1.74-1.147 2.933-2.5 3.58a10595.77 10595.77 0 0 0-20.01 9.55c-6.22 2.97-4.91 8.2.66 11.02a1606.365 1606.365 0 0 1 17.84 9.21c1.99 1.04 3.47 2.35 3.75 4.49.94 7.293 1.91 14.587 2.91 21.88.47 3.37 2.32 5.85 5.83 5.43 6.53-.78 18.28-19.8 22.97-19.12Z" stroke="#A76DC0" stroke-width="2"/><path d="M586.79 507.74c.44 1.06.11 2.71-.49 3.67A1514.663 1514.663 0 0 1 573.76 531c-2.71 4.17.41 8.92 5.24 8.54 7.727-.613 15.457-1.18 23.19-1.7 1.16-.08 2.71.55 3.57 1.59 4.373 5.287 8.703 10.62 12.99 16 2.47 3.1 5.52 5.95 9.22 2.95 5.2-4.21 4.82-26.61 9.83-28.6a6208.026 6208.026 0 0 1 20.61-8.16 19.505 19.505 0 0 0 4.3-2.38c.293-.207.483-.483.57-.83.827-3.08-.2-5.54-3.08-7.38a868.563 868.563 0 0 0-18.08-11.24c-2.05-1.25-3.21-2.74-3.31-5.04-.327-7.187-.707-14.36-1.14-21.52-.42-7.04-5.81-7.62-10.6-3.52A1544.367 1544.367 0 0 1 611 483.24c-1.4 1.16-2.733 1.573-4 1.24a9995.509 9995.509 0 0 0-21.9-5.76c-6.52-1.7-8.87 3.08-6.58 8.71 2.747 6.78 5.503 13.55 8.27 20.31Z" stroke="#494BF1" stroke-width="2"/><path d="M447.68 492.01c1.37 7.49-12.36-1.01-14.29-1.92-.153-.067-.253-.02-.3.14a4.451 4.451 0 0 1-.09.26c-.1.287-.017.497.25.63 3.16 1.6 16.89 10.66 15.29-.02-1.01-6.69-5.11-18.01.16-23.39a905.904 905.904 0 0 0 10.8-11.21c3.33-3.52-.32-6.49-3.87-6.89-4.453-.5-8.9-1.077-13.34-1.73-8.27-1.21-11.36-11.46-14.6-17.81-2.16-4.26-6.24-4.76-8.41-.08a487.02 487.02 0 0 1-7.77 16.03c-.227.447-.12.553.32.32 4.57-2.45 7.05-18.98 12.43-18.33.299.034.585.142.833.315.247.173.449.405.587.675 3.04 6 7.62 18.11 14.63 19.7 2.273.52 7.647 1.237 16.12 2.15 2.04.22 2.963 1.46 2.77 3.72a1.42 1.42 0 0 1-.38.87c-5.89 6.33-15.57 12.72-13.87 21.81.92 4.927 1.83 9.847 2.73 14.76Zm-41.21 3.38c-2.24 1.26-5.13.36-4.73-2.64.83-6.2 4.11-19-.05-23.7-1.613-1.827-5.393-5.433-11.34-10.82-8.45-7.66 10.99-6.25 12.47-8.51a.347.347 0 0 0 .003-.385.352.352 0 0 0-.353-.155c-3.727.607-7.47 1.203-11.23 1.79-3.6.56-5.54 4.66-2.7 7.27 5.86 5.39 15.66 11.74 14.16 20.94-.727 4.44-1.42 8.887-2.08 13.34-.5 3.36 2.69 5.91 5.73 4.34 2.64-1.367 8.137-4.327 16.49-8.88.673-.367.627-.557-.14-.57-3.41-.04-12.87 6.08-16.23 7.98Zm120.82-52.35c1.63-1.82 4.65-1.92 5.21.72 1.08 5.1 2.153 10.197 3.22 15.29.826 3.927 2.78 6.55 5.86 7.87 4.833 2.073 9.64 4.21 14.42 6.41 2.71 1.24 2.49 4.1.19 5.36-5.85 3.22-17.95 8.01-18.64 15.32a869.979 869.979 0 0 1-1.58 15.51c-.95 8.55-11.41-3.64-13.36-5.34-.127-.107-.22-.08-.28.08-.04.113-.074.23-.1.35-.06.28.013.527.22.74 2.55 2.56 13.72 15.44 14.75 3.29.53-6.27.15-17.1 5.53-20.91 1.833-1.3 6.216-3.843 13.15-7.63 4.13-2.26 4.47-6.16-.16-8.23-7.87-3.52-17.33-5.03-19.37-14.82-.97-4.64-1.87-24.44-11.63-12.95-4.3 5.05-7.67 9.61-11.04 11.6-.154.087-.167.193-.04.32.066.06.14.133.22.22.18.193.383.22.61.08 4.59-2.8 9.16-9.21 12.82-13.28Zm-37.69 17.37c-1.83-3.18 1.59-4.59 4.16-4.22 4.013.593 7.546.977 10.6 1.15.253.02.393-.093.42-.34.1-.93-10.57-1.78-11.8-1.89-6.08-.56-5.28 4.54-3.13 8.18 2.52 4.25 9.64 13.92 7.61 18.66a496.447 496.447 0 0 1-6.46 14.38c-2.19 4.69.42 7.95 5.5 6.66a270.079 270.079 0 0 1 16.56-3.63c.48-.093.52-.28.12-.56-1.45-1-14.74 2.4-17.21 2.96-3.7.84-5.73-1.01-4.01-4.71 3.3-7.09 9.55-16.01 5.04-23.82l-7.4-12.82Zm-132.02-2.19c8.02-.98-2.43 14.27-3.58 16.16-5.24 8.63 2.17 18.07 6 25.93.14.293.193.6.16.92-.28 2.8-2.14 3.23-4.65 2.73a277.687 277.687 0 0 0-9.75-1.77c-.414-.067-.584.107-.51.52.16.87 9.41 2.37 10.73 2.61 3.21.58 6.62-2.32 5.18-5.25-3.05-6.23-10.69-17.27-7.08-23.73a346.753 346.753 0 0 0 7.07-13.27c4.67-9.23-13.5-4.59-16.57-4.08-4.02.66-8.45.55-11.05-2.27a595.459 595.459 0 0 0-10.16-10.74c-3.62-3.74-7.07-1.87-7.81 2.92a265.293 265.293 0 0 1-3.24 17.21.364.364 0 0 0 .223.408.345.345 0 0 0 .427-.148c2.56-4.39 3.04-13.79 3.84-19.03.081-.516.324-.992.693-1.359a2.421 2.421 0 0 1 1.357-.681c6.58-.99 11.63 17.24 24.64 14.99 4.68-.813 9.373-1.503 14.08-2.07Zm-64.57 20.51a.933.933 0 0 1 .52-.62l10.98-5.34c.233-.113.4-.287.5-.52l.19-.42a.323.323 0 0 0-.076-.351.319.319 0 0 0-.168-.083.313.313 0 0 0-.186.024c-3.05 1.42-20.47 7.28-10.28 12.82a806.626 806.626 0 0 0 11.83 6.3c7.88 4.12 7.12 12.55 8.25 21.84.74 6.06 4.9 6.01 8.66 2.26 3.42-3.413 7.15-7.093 11.19-11.04a.395.395 0 0 0-.069-.608.374.374 0 0 0-.221-.052c-1.93.17-11.01 10.04-12.92 11.96-1.97 1.97-4.9 1.29-5.32-1.58a1208.053 1208.053 0 0 1-2.16-15.57c-.95-7.29-12.77-11.49-18.72-14.46-2.11-1.06-2.62-2.35-2-4.56Zm-31.04 50.8c3.81 7.5-11.26 3.02-13.57 2.66-.2-.033-.353.04-.46.22l-.16.26c-.18.3-.097.487.25.56 3.333.72 6.683 1.357 10.05 1.91 4.64.76 6.8-2.55 4.81-6.52-3.07-6.12-9.77-15.4-6.33-22.32 1.28-2.573 3.583-6.887 6.91-12.94 2.53-4.59-1.09-6.69-5.33-6.1-4.553.64-9.107 1.253-13.66 1.84-7.61.99-13-6.86-18.91-13.42-2.85-3.15-6.89-1.67-7.57 2.32-.95 5.58-1.23 12.54-3.38 17.71a.318.318 0 0 0 .07.36l.25.24c.22.227.4.197.54-.09 2.24-4.61 2.75-12.73 3.56-17.92.71-4.61 3.95-3.67 6.38-1.05 5.25 5.66 11.3 14.36 19.83 13.06 4.38-.667 8.76-1.36 13.14-2.08 4.41-.72 5.73 1.75 3.73 5.51-3.66 6.9-10.47 15.32-6.52 23.19a5761.72 5761.72 0 0 0 6.37 12.6Zm-42.43 16.19c-2.11-1.93-2.84-13.41-3.34-16.67-1.41-9.41-11.56-12.21-18.85-15.86-8.19-4.12 7.64-9.59 10-10.68.18-.08.24-.217.18-.41a8.593 8.593 0 0 0-.08-.26c-.12-.327-.34-.42-.66-.28-4.03 1.79-20.68 7.13-8.78 13.32 4.54 2.36 15.06 6.42 16.52 11.37 1.026 3.48 1.866 9.05 2.52 16.71.4 4.61 4.68 5.39 7.73 2.3 4.04-4.1 8.223-8.09 12.55-11.97.42-.38.346-.593-.22-.64-2.03-.18-12.38 10.96-14.38 12.99a2.317 2.317 0 0 1-1.582.681 2.293 2.293 0 0 1-1.608-.601Z" stroke="#FE9E9A" stroke-width="2"/><path d="M568.25 179.54c-.74.8-1.83 1.94-2.81 2.46-32.85 17.22-59.55 42-66.82 79.81A280.773 280.773 0 0 0 474.71 245l6.22-10.55a.257.257 0 0 1 .159-.118.272.272 0 0 1 .201.028c14.55 8.17 22.99-13.23 24.95-23.37a4121.43 4121.43 0 0 0 2.76-14.45c8.43.26 16.11-1.89 16.14-12.06.02-7.93-2.42-20.95-13.37-18.63-10.3 2.19-19.06 5.45-30.18 2.27-12.8-3.65-17.57 7.37-14.04 17.72.113.347.013.617-.3.81-5.89 3.64-4.35 10.77.25 14.64-.98 3.093-.357 5.727 1.87 7.9a.669.669 0 0 1 .03.93l-20.61 22.63a120.533 120.533 0 0 0-33.72-8.38c-3.96-.4-8.22-.16-11.23 2.87a482.825 482.825 0 0 0-31.49 34.89c-3.747-15.487-8.6-29.96-14.56-43.42-8.28-18.68-21.407-33.21-39.38-43.59 4.507-3.587 10.433-7.067 17.78-10.44 28.61-13.15 58.97-22.37 89.54-23.17 42.61-1.11 84.46 9.38 121.79 28.21 2.62 1.32 8.613 4.5 17.98 9.54.447.24 1.363.333 2.75.28Z" fill="#EAF0FE"/><path d="M652.33 282.87c-.873 2.98-2.327 8.52-4.36 16.62-3.373 13.427-9.627 26.18-18.76 38.26-16.42-.71-27.76-1.39-41.92.38.16-7.89-6-9.52-11.75-12.38.067-3.133-.49-6.187-1.67-9.16-.12-.307-.32-.55-.6-.73-5.82-3.66-15.29-7.57-20.77-1.82l-7.75-3.83c19.66-45.64 49.31-89.91 83.84-127.59a1.03 1.03 0 0 0 .23-1.01c-.37-1.18-1.62-.55-2.27.04-37.49 33.98-67.21 78.29-87.73 124.32a10.523 10.523 0 0 1-2.29-5.23 9166.211 9166.211 0 0 0-5.94-40.66c-.447-3.013-1.22-5.277-2.32-6.79-3.5-4.83-10.96-5.84-15.44-1.11A233.825 233.825 0 0 1 500.79 264l-2.17-2.19c7.27-37.81 33.97-62.59 66.82-79.81.98-.52 2.07-1.66 2.81-2.46.293-.247.643-.343 1.05-.29.327.04.64-.01.94-.15a325.9 325.9 0 0 1 61.75-21.88c8.167-2 14.42-3.157 18.76-3.47 6-.44 6.84 4.1 6.45 9.06a1200.43 1200.43 0 0 0-3.62 86.22c-.06 11.34-.82 22.56-1.25 33.84ZM318.41 175.12c17.973 10.38 31.1 24.91 39.38 43.59 5.96 13.46 10.813 27.933 14.56 43.42-7.72 9.607-14.49 19.98-20.31 31.12-7.02-12.047-12.37-20.377-16.05-24.99-29.81-37.32-69.6-72-113.02-92.61a.806.806 0 0 0-.843.092.795.795 0 0 0-.287.798c.17.8 1.51 1.44 2.08 1.79 42.09 26.19 83.87 61 112.28 101.72 4.166 5.967 8.376 12.98 12.63 21.04-1.48 5.76-1.95 12.64 2.24 16.84 2.62 2.62 5.956 5.777 10.01 9.47a308.675 308.675 0 0 1 15.29 56.06c.21 1.22.78 1.82 1.13 3l-1.25.25c-8.99-20.58-16.9-41.77-28.27-61.19-8.95-15.27-21.17-28.72-40.9-26.74-16.27 1.62-32.58 7.24-48.13 13.21-12.234-9.967-21.644-21.45-28.23-34.45-3.547-7-6.117-11.84-7.71-14.52-.18-.72-.417-1.537-.71-2.45-10.1-31.49-19.77-63.01-30.74-94.22-2.97-8.48 4.79-9.57 10.5-9.78 33.72-1.2 63.93-.68 95.17 9.48a127.05 127.05 0 0 1 21.18 9.07Z" fill="#92B5FB" fill-opacity=".996"/><path d="M509 196.54a58.615 58.615 0 0 1-15.2-4.56c-10.89-4.95-14.37 6.82-17.11 14.74-.17.47-.88 1.35-1.26 1.57a.775.775 0 0 1-.853-.028.776.776 0 0 1-.317-.792l1.07-5.58a1.01 1.01 0 0 0-.18-.8c-2.56-3.52-4.85-.57-7.65.2-4.6-3.87-6.14-11-.25-14.64.313-.193.413-.463.3-.81-3.53-10.35 1.24-21.37 14.04-17.72 11.12 3.18 19.88-.08 30.18-2.27 10.95-2.32 13.39 10.7 13.37 18.63-.03 10.17-7.71 12.32-16.14 12.06Zm9.47-4.43c-1.24 1.06-2.97 1.57-4.53 2.39-.993.52-.947.63.14.33 5.42-1.51 8.51-5.43 8.82-11.08.08-1.43.04-6.86-1.18-7.68-.293-.193-.387-.123-.28.21 1.61 5.27 1.6 11.97-2.97 15.83Z" fill="#140A7D"/><path d="m352.04 293.25-3.21 7.84c-4.253-8.06-8.463-15.073-12.63-21.04-28.41-40.72-70.19-75.53-112.28-101.72-.57-.35-1.91-.99-2.08-1.79a.794.794 0 0 1 .287-.798.796.796 0 0 1 .843-.092c43.42 20.61 83.21 55.29 113.02 92.61 3.68 4.613 9.03 12.943 16.05 24.99Z" fill="#BED2FB"/><path d="M518.47 192.11c4.57-3.86 4.58-10.56 2.97-15.83-.107-.333-.013-.403.28-.21 1.22.82 1.26 6.25 1.18 7.68-.31 5.65-3.4 9.57-8.82 11.08-1.087.3-1.133.19-.14-.33 1.56-.82 3.29-1.33 4.53-2.39Z" fill="#92B5FB" fill-opacity=".996"/><path d="M544.75 310.21c-2.734-.913-4.71-2.327-5.93-4.24 20.52-46.03 50.24-90.34 87.73-124.32.65-.59 1.9-1.22 2.27-.04a1.03 1.03 0 0 1-.23 1.01c-34.53 37.68-64.18 81.95-83.84 127.59Z" fill="#BED2FB"/><path d="M509 196.54a4121.43 4121.43 0 0 1-2.76 14.45c-1.96 10.14-10.4 31.54-24.95 23.37a.273.273 0 0 0-.201-.028.257.257 0 0 0-.159.118L474.71 245c-8.05 10.63-32.84-2.22-25.92-12.25l20.61-22.63a.673.673 0 0 0-.03-.93c-2.227-2.173-2.85-4.807-1.87-7.9 2.8-.77 5.09-3.72 7.65-.2.173.24.233.507.18.8l-1.07 5.58a.776.776 0 0 0 .739.933.776.776 0 0 0 .431-.113c.38-.22 1.09-1.1 1.26-1.57 2.74-7.92 6.22-19.69 17.11-14.74a58.615 58.615 0 0 0 15.2 4.56Z" fill="#FEB4B3"/><path d="M448.79 232.75c-6.92 10.03 17.87 22.88 25.92 12.25a280.773 280.773 0 0 1 23.91 16.81l2.17 2.19a420.39 420.39 0 0 1-18.37 18.92c-2.22 2.15-5.4 4.27-8.17 3.8-14.333-2.433-28.667-4.88-43-7.34-3.35-.57-6.36-.63-8.93 1.18-7.09 4.99-5 10.96-1.38 17.86 6.193 11.787 12.37 23.577 18.53 35.37 1.047 2.013 1.14 4.403.28 7.17-4.56-.107-9.127.19-13.7.89-.34.047-.547-.093-.62-.42-.46-2.06-1.72-3.283-3.78-3.67a1.2 1.2 0 0 0-1.29 1.72c1.34 2.64 1.987 5.51 1.94 8.61-.09 5.66 2.81 11.16 5.7 15.87A186.86 186.86 0 0 0 417.71 384a421.69 421.69 0 0 0-36.46 1.96l-3.72-23.91-.85-23.97a.94.94 0 0 0-.46-.8l-6.67-4.16c-2.34-2.013-5.163-3.92-8.47-5.72-4.053-3.693-7.39-6.85-10.01-9.47-4.19-4.2-3.72-11.08-2.24-16.84l3.21-7.84c5.82-11.14 12.59-21.513 20.31-31.12a482.825 482.825 0 0 1 31.49-34.89c3.01-3.03 7.27-3.27 11.23-2.87a120.533 120.533 0 0 1 33.72 8.38Z" fill="#140A7D"/><path d="M538.82 305.97c1.22 1.913 3.197 3.327 5.93 4.24l7.75 3.83c4.23 3.88 12.87 7.42 8.12 14.82-.153.24-.357.297-.61.17a1319.71 1319.71 0 0 1-17.94-8.87c-8.53-4.3-14-8.21-15.33-17.4l-3.82-26.36c-.367-2.513-1.067-4.427-2.1-5.74-4.87-6.18-10.4-2-14.74 2.55a724.52 724.52 0 0 1-17.57 17.8c-1.26 1.24-6.06 3.8-5.43 5.41.133.347.377.46.73.34 2.327-.793 4.077-1.78 5.25-2.96a2419.113 2419.113 0 0 0 20.54-20.83c4.62-4.73 9.86-3.78 10.88 3.12 1.36 9.213 2.717 18.433 4.07 27.66 1.15 7.78 6.43 13.31 13.68 17a1371.989 1371.989 0 0 0 21.24 10.59c3.98 1.94 7.5 4.05 5.49 8.84-.467 1.12-1.407 2.037-2.82 2.75-8.487 4.293-17 8.527-25.54 12.7-8.54 4.17-11.3 11.39-12.81 21.13a1314.142 1314.142 0 0 0-3.5 24c-.56 4.07-5.56 6.68-8.96 3.4a612.717 612.717 0 0 1-15.61-15.57c-.313-.333-.593-.307-.84.08l-.63.99c-.2.32-.17.617.09.89 3.213 3.3 6.407 6.583 9.58 9.85 6 6.18 10.48 11.76 17.96 3.6l2.48 4.43c.16.28.093.483-.2.61-1.673.76-2.323 2.083-1.95 3.97.06.32.23.563.51.73 1.26.767 2.263.497 3.01-.81 1.207-2.113 2.803-3.213 4.79-3.3.327-.013.483-.183.47-.51a2.468 2.468 0 0 1 .06-.63c.073-.34.123-.337.15.01l.09 1.25c-.487 4.233-.88 7.013-1.18 8.34-1.84 8.13-11.46 11.54-17.55 5.32-9.713-9.927-19.393-19.79-29.04-29.59-5.7-7.38-14.37-4.41-22.77-2.61a1266.398 1266.398 0 0 0-26.91 4.51c-7.33 1.31-12.43 1.17-15.84-5.76a13.352 13.352 0 0 1-.29-5.96A186.86 186.86 0 0 1 428 363.96c5.07 7.53 8.2-3.42 8.72-6.5a1.102 1.102 0 0 1 1.53-.83c1.52.673 2.54.187 3.06-1.46.273-.887.027-1.59-.74-2.11l-1.38-.93c-.493-.34-.457-.6.11-.78l.94-.29c.44-.14.667-.437.68-.89l.06-1.89c.007-.407-.187-.667-.58-.78l-1.83-.53c-.587-.167-.61-.39-.07-.67 2.273-1.2 2.69-2.98 1.25-5.34.86-2.767.767-5.157-.28-7.17a16600.094 16600.094 0 0 0-18.53-35.37c-3.62-6.9-5.71-12.87 1.38-17.86 2.57-1.81 5.58-1.75 8.93-1.18 14.333 2.46 28.667 4.907 43 7.34 2.77.47 5.95-1.65 8.17-3.8A420.39 420.39 0 0 0 500.79 264a233.825 233.825 0 0 0 12.04-11.82c4.48-4.73 11.94-3.72 15.44 1.11 1.1 1.513 1.873 3.777 2.32 6.79a9166.211 9166.211 0 0 1 5.94 40.66 10.523 10.523 0 0 0 2.29 5.23Zm-96.14 75.68c-3.25.57-6.43-1.64-6.65-4.83-.08-1.187.403-2.767 1.45-4.74 3.873-7.32 7.713-14.667 11.52-22.04 4.38-8.5 4.83-14.77.36-23.7a846.761 846.761 0 0 0-12.11-23.29c-3.42-6.34.81-9.92 7.25-8.89a822.203 822.203 0 0 1 20.48 3.52c.48.087.727-.113.74-.6l.04-1.04c.013-.393-.177-.627-.57-.7-6.173-1.06-12.353-2.12-18.54-3.18-3.407-.58-5.733-.727-6.98-.44-4.97 1.15-7.4 6.78-4.89 11.48 3.22 6.01 7.4 14.83 12.55 24.06 5.21 9.33 2.77 15.84-2.35 25.49-3.12 5.88-6.22 11.77-9.3 17.67-1.253 2.4-1.937 4.243-2.05 5.53-.47 5.29 4.91 8.84 9.81 8.01 11.1-1.89 22.72-4.74 33.94-4.97.413-.007.647-.217.7-.63l.11-.87c.06-.493-.157-.74-.65-.74-11.27-.02-23.71 2.94-34.86 4.9Z" fill="#FE8780"/><path d="M223.01 263.02c1.593 2.68 4.163 7.52 7.71 14.52 6.587 13 15.997 24.483 28.23 34.45a654.624 654.624 0 0 0-30.64 13.84c-3.42 1.66-3.17 4.88.26 6.4 15.35 6.82 35.77 18.4 45.11 32.85 11.74 18.15 29.03 28.17 50.05 30.56.367.04.527.243.48.61-.02.147-.09.3-.21.46-48.49 13.02-94.34 33.1-137.79 59.52-6.087 3.693-10.203 9.34-12.35 16.94-.227.813-.44.81-.64-.01a9.07 9.07 0 0 1-.16-3.55c.027-.2-.023-.223-.15-.07l-.18.21c-.153.173-.227.143-.22-.09.02-.52-.183-.923-.61-1.21-.78-3.807-1.307-9.123-1.58-15.95-2.57-64.06 13.42-129.77 48.17-183.98 1.153-1.8 2.66-3.633 4.52-5.5Z" fill="#EAF0FE"/><path d="M552.5 314.04c5.48-5.75 14.95-1.84 20.77 1.82.28.18.48.423.6.73 1.18 2.973 1.737 6.027 1.67 9.16-.413 4.92-2.96 7.937-7.64 9.05-.313.073-.433.27-.36.59 1.22 5.48-1.23 8.14-6.12 10.53a994.473 994.473 0 0 0-24.08 12.14c-7.33 3.82-9.84 9.49-11.02 17.79a940.175 940.175 0 0 1-4.44 28.15c-7.48 8.16-11.96 2.58-17.96-3.6-3.173-3.267-6.367-6.55-9.58-9.85-.26-.273-.29-.57-.09-.89l.63-.99c.247-.387.527-.413.84-.08a612.717 612.717 0 0 0 15.61 15.57c3.4 3.28 8.4.67 8.96-3.4 1.094-8.013 2.26-16.013 3.5-24 1.51-9.74 4.27-16.96 12.81-21.13 8.54-4.173 17.054-8.407 25.54-12.7 1.414-.713 2.353-1.63 2.82-2.75 2.01-4.79-1.51-6.9-5.49-8.84a1376.476 1376.476 0 0 1-21.24-10.59c-7.25-3.69-12.53-9.22-13.68-17-1.353-9.227-2.71-18.447-4.07-27.66-1.02-6.9-6.26-7.85-10.88-3.12a2419.113 2419.113 0 0 1-20.54 20.83c-1.173 1.18-2.923 2.167-5.25 2.96-.353.12-.597.007-.73-.34-.63-1.61 4.17-4.17 5.43-5.41a724.52 724.52 0 0 0 17.57-17.8c4.34-4.55 9.87-8.73 14.74-2.55 1.034 1.313 1.734 3.227 2.1 5.74l3.82 26.36c1.33 9.19 6.8 13.1 15.33 17.4a1319.71 1319.71 0 0 0 17.94 8.87c.254.127.457.07.61-.17 4.75-7.4-3.89-10.94-8.12-14.82Z" fill="#FEB4B3"/><path d="M652.33 282.87c9.65 16.35 14.45 41.22 16.66 58.66-1.12.8-2.363 1.1-3.73.9-11.993-1.72-24.01-3.28-36.05-4.68 9.133-12.08 15.387-24.833 18.76-38.26 2.033-8.1 3.487-13.64 4.36-16.62Z" fill="#E3EAFE"/><path d="M436.03 376.82c.22 3.19 3.4 5.4 6.65 4.83 11.15-1.96 23.59-4.92 34.86-4.9.493 0 .71.247.65.74l-.11.87c-.054.413-.287.623-.7.63-11.22.23-22.84 3.08-33.94 4.97-4.9.83-10.28-2.72-9.81-8.01.113-1.287.796-3.13 2.05-5.53 3.08-5.9 6.18-11.79 9.3-17.67 5.12-9.65 7.56-16.16 2.35-25.49-5.15-9.23-9.33-18.05-12.55-24.06-2.51-4.7-.08-10.33 4.89-11.48 1.246-.287 3.573-.14 6.98.44 6.186 1.06 12.366 2.12 18.54 3.18.393.073.583.307.57.7l-.04 1.04c-.014.487-.26.687-.74.6a823 823 0 0 0-20.48-3.52c-6.44-1.03-10.67 2.55-7.25 8.89a849.54 849.54 0 0 1 12.11 23.29c4.47 8.93 4.02 15.2-.36 23.7a2482.557 2482.557 0 0 1-11.52 22.04c-1.047 1.973-1.53 3.553-1.45 4.74Z" fill="#FEB4B3"/><path d="m376.25 386.71-6.63.72c-9.48-12.387-19.883-24.753-31.21-37.1-20.89-22.8-51.8-28.61-80.9-21.52a.226.226 0 0 0-.18.17c-.033.12-.067.233-.1.34-.1.327.017.467.35.42 27.33-3.39 55.86-.59 75.85 20.33 10.713 11.22 21.757 23.807 33.13 37.76a666.997 666.997 0 0 0-42.56 8.88c.12-.16.19-.313.21-.46.047-.367-.113-.57-.48-.61-21.02-2.39-38.31-12.41-50.05-30.56-9.34-14.45-29.76-26.03-45.11-32.85-3.43-1.52-3.68-4.74-.26-6.4a654.624 654.624 0 0 1 30.64-13.84c15.55-5.97 31.86-11.59 48.13-13.21 19.73-1.98 31.95 11.47 40.9 26.74 11.37 19.42 19.28 40.61 28.27 61.19Z" fill="#BED2FB"/><path d="M575.54 325.75c5.75 2.86 11.91 4.49 11.75 12.38-.27 5.01-2.55 7.42-7.15 9.68A5491.535 5491.535 0 0 0 552 361.79c-5.44 2.59-14.44 5.54-15.4 12.28a2224.99 2224.99 0 0 1-3.81 25.68l-.63 5.14-.87 4.86-.09-1.25c-.027-.347-.077-.35-.15-.01a2.468 2.468 0 0 0-.06.63c.013.327-.143.497-.47.51-1.987.087-3.583 1.187-4.79 3.3-.747 1.307-1.75 1.577-3.01.81-.28-.167-.45-.41-.51-.73-.373-1.887.277-3.21 1.95-3.97.293-.127.36-.33.2-.61l-2.48-4.43c1.62-9.347 3.1-18.73 4.44-28.15 1.18-8.3 3.69-13.97 11.02-17.79a992.64 992.64 0 0 1 24.08-12.14c4.89-2.39 7.34-5.05 6.12-10.53-.073-.32.047-.517.36-.59 4.68-1.113 7.227-4.13 7.64-9.05Z" fill="#FE8780"/><path d="M369.62 387.43c-1.513.567-2.533.7-3.06.4-11.373-13.953-22.417-26.54-33.13-37.76-19.99-20.92-48.52-23.72-75.85-20.33-.333.047-.45-.093-.35-.42.033-.107.067-.22.1-.34a.226.226 0 0 1 .18-.17c29.1-7.09 60.01-1.28 80.9 21.52 11.327 12.347 21.73 24.713 31.21 37.1Z" fill="#E3EAFE"/><path d="M361.08 327.4c3.307 1.8 6.13 3.707 8.47 5.72l7.98 28.93 3.72 23.91-3.75.5c-.35-1.18-.92-1.78-1.13-3a308.594 308.594 0 0 0-15.29-56.06Z" fill="#BED2FB"/><path d="m369.55 333.12 6.67 4.16a.943.943 0 0 1 .46.8l.85 23.97-7.98-28.93Z" fill="#92B5FB" fill-opacity=".996"/><path d="M629.21 337.75c12.04 1.4 24.057 2.96 36.05 4.68 1.367.2 2.61-.1 3.73-.9a8.728 8.728 0 0 0 3.92 2.8c3.29 1.18 3.45 3.23 1.04 5.39-1.673 1.507-2.837 3.35-3.49 5.53-2.687 1.027-4.983 2.577-6.89 4.65-8.98 9.78-16.87 18.43-23.38 30.15-4.14 7.47-5.66 16.34-9.72 23.53-4.12 7.32-9.29 13.877-15.51 19.67a553.338 553.338 0 0 0-50.75-23c13.35-32.86 44.1-49.29 77.79-53.28.393-.047.643-.203.75-.47.153-.393.02-.58-.4-.56-29.17 1.06-58.87 14.07-74.78 39.37-1.72 2.733-4.09 7.213-7.11 13.44l-19.5-6.75A162.26 162.26 0 0 1 552 361.79a5491.535 5491.535 0 0 1 28.14-13.98c4.6-2.26 6.88-4.67 7.15-9.68 14.16-1.77 25.5-1.09 41.92-.38Z" fill="#BED2FB"/><path d="M439.75 340.96c1.44 2.36 1.023 4.14-1.25 5.34-.54.28-.517.503.07.67l1.83.53c.393.113.587.373.58.78l-.06 1.89c-.013.453-.24.75-.68.89l-.94.29c-.567.18-.604.44-.11.78l1.38.93c.767.52 1.013 1.223.74 2.11-.52 1.647-1.54 2.133-3.06 1.46a1.097 1.097 0 0 0-1.341.37 1.09 1.09 0 0 0-.189.46c-.52 3.08-3.65 14.03-8.72 6.5-2.89-4.71-5.79-10.21-5.7-15.87.046-3.1-.6-5.97-1.94-8.61a1.194 1.194 0 0 1 .111-1.26 1.204 1.204 0 0 1 1.179-.46c2.06.387 3.32 1.61 3.78 3.67.073.327.28.467.62.42 4.573-.7 9.14-.997 13.7-.89Z" fill="#FEB4B3"/><path d="M670.46 355.25c2.147 32.027-.64 63.573-8.36 94.64-.8 3.21-2.11 6.09-3.39 9.11-.307.073-.577.03-.81-.13a630.544 630.544 0 0 0-42.94-25.62c6.22-5.793 11.39-12.35 15.51-19.67 4.06-7.19 5.58-16.06 9.72-23.53 6.51-11.72 14.4-20.37 23.38-30.15 1.907-2.073 4.203-3.623 6.89-4.65Zm-106.25 55-3.75-1.5c3.02-6.227 5.39-10.707 7.11-13.44 15.91-25.3 45.61-38.31 74.78-39.37.42-.02.553.167.4.56-.107.267-.357.423-.75.47-33.69 3.99-64.44 20.42-77.79 53.28Z" fill="#E3EAFE"/><path d="M552 361.79A162.26 162.26 0 0 0 540.96 402l-8.17-2.25a2224.99 2224.99 0 0 0 3.81-25.68c.96-6.74 9.96-9.69 15.4-12.28Z" fill="#92B5FB" fill-opacity=".996"/><path d="M417.71 384c-.353 2-.257 3.987.29 5.96-79.11 2.21-155.02 27.44-223.03 67.95-13.58 8.09-15.92 15.89-15.94 32.19-.04 37.647-.047 75.293-.02 112.94.01 6.97 4.86 7.68 8.56 12.06-9.33 3-14.31-2.17-14.38-10.85-.32-39.42-.373-78.837-.16-118.25a18.916 18.916 0 0 0-.67-5.08c-.093-.32-.07-.637.07-.95.86-1.95-.38-8.98-.53-11.52.427.287.63.69.61 1.21-.007.233.067.263.22.09l.18-.21c.127-.153.177-.13.15.07a9.07 9.07 0 0 0 .16 3.55c.2.82.413.823.64.01 2.147-7.6 6.263-13.247 12.35-16.94 43.45-26.42 89.3-46.5 137.79-59.52a666.997 666.997 0 0 1 42.56-8.88c.527.3 1.547.167 3.06-.4l6.63-.72 1.25-.25 3.75-.5a421.69 421.69 0 0 1 36.46-1.96Zm65.81 9.82c-5.3-.207-10.56-.717-15.78-1.53-1.99-.31-4.56.23-6.99-1.08 8.4-1.8 17.07-4.77 22.77 2.61Z" fill="#4143E3"/><path d="M418 389.96c3.41 6.93 8.51 7.07 15.84 5.76 8.953-1.6 17.923-3.103 26.91-4.51 2.43 1.31 5 .77 6.99 1.08 5.22.813 10.48 1.323 15.78 1.53 9.647 9.8 19.327 19.663 29.04 29.59 6.09 6.22 15.71 2.81 17.55-5.32.3-1.327.693-4.107 1.18-8.34l.87-4.86a465.83 465.83 0 0 1 104.15 45.3c5.833 3.433 11.66 6.853 17.48 10.26 4.04 2.367 7.22 5.517 9.54 9.45.147.253.343.457.59.61l2.33 1.45c1.227 3.427 1.86 7.253 1.9 11.48.35 36.66 1.24 73.26 1.38 109.9.02 4.347-.447 7.55-1.4 9.61-3.74 8.09-13.95 9.76-21.54 5.54-20.713-11.527-41.347-21-61.9-28.42-1.067-.387-3.653-1.117-7.76-2.19-43.253-15.62-87.9-24.03-133.94-25.23-71.5-1.85-141.92 13.68-207.79 41.08-.873.367-2.327 1.05-4.36 2.05a339.405 339.405 0 0 0-43.27 19.32c-3.7-4.38-8.55-5.09-8.56-12.06-.027-37.647-.02-75.293.02-112.94.02-16.3 2.36-24.1 15.94-32.19 68.01-40.51 143.92-65.74 223.03-67.95Zm-21.68 82.97c1.41 1.36 1.39 3.82 1.1 5.6a5214.565 5214.565 0 0 0-3.24 20.21c-.98 6.25 4.17 8.48 9.18 5.78 6.467-3.487 12.943-6.95 19.43-10.39 1.427-.753 2.66-.873 3.7-.36 6.727 3.313 13.45 6.627 20.17 9.94 5.48 2.71 9.72-.32 8.56-6.46-1.333-7.04-2.663-14.083-3.99-21.13-.37-1.98.15-3.82 1.48-5.16a2746.93 2746.93 0 0 0 15.21-15.49c4.61-4.74 2.11-9.29-4-10.08a6648.106 6648.106 0 0 0-19.35-2.47c-3.07-.39-4.62-.67-6.17-3.62a6982.723 6982.723 0 0 1-9.68-18.49c-3.25-6.25-8.31-5.47-11.17.63a2049.327 2049.327 0 0 1-9.22 19.41c-.64 1.33-2.4 2.35-3.84 2.6-6.72 1.167-13.447 2.3-20.18 3.4-2.367.387-3.987.913-4.86 1.58-2.21 1.71-2.81 5.78-.54 7.91a1078.04 1078.04 0 0 1 17.41 16.59Zm95.56 4.58c.88 1.66.66 2.96-.07 4.55-2.793 6.1-5.61 12.19-8.45 18.27-2.96 6.33-.59 11.02 6.86 9.34 6.493-1.46 12.99-2.903 19.49-4.33 2.54-.56 4.18-.52 6.04 1.17a4398.8 4398.8 0 0 1 15.47 14.2c3.53 3.26 9.67 4.21 10.34-2.15a844.04 844.04 0 0 0 2.01-22.13c.18-2.32 1.047-3.913 2.6-4.78a7315.055 7315.055 0 0 0 19.5-10.95c6.25-3.53 3.91-8.66-1.69-11.04a1186.22 1186.22 0 0 1-18.59-8.1c-2.07-.92-3.19-2.19-3.62-4.31a2372.937 2372.937 0 0 1-4.09-20.5c-.73-3.76-2.93-7.32-7.14-5.8-1.307.467-2.913 1.807-4.82 4.02a554.693 554.693 0 0 1-13.2 14.8c-1.22 1.32-2.87 1.863-4.95 1.63-6.973-.773-13.94-1.587-20.9-2.44-5.21-.64-9.67 3.37-6.42 8.52a310.285 310.285 0 0 1 11.63 20.03Zm-184.7 21.09a331.378 331.378 0 0 1 3.23 22.44c.72 6.6 5.98 7.64 10.49 3.2l14.68-14.44c2.2-2.17 3.51-2.35 6.43-1.82 6.56 1.2 13.133 2.413 19.72 3.64 5.81 1.08 9.97-2.31 7.02-8.26a2428.417 2428.417 0 0 0-10.07-20.01c-.54-1.06-.6-2.88-.15-3.8 1.753-3.547 5.497-10.403 11.23-20.57 3-5.33-1.74-8.94-6.87-8.17-4.29.66-23.15 4.74-25.73 2.05a3044.949 3044.949 0 0 1-15.03-15.84c-5.65-6.01-9.81-2.07-10.84 4.61-1.06 6.84-2.183 13.673-3.37 20.5-.21 1.22-1.72 2.78-2.82 3.3-4.11 1.94-21.62 9.05-23.13 12.36-2.2 4.82 1.32 6.76 5.37 8.79 3.53 1.77 19.25 8.69 19.84 12.02Zm-65.49 39.09a377.152 377.152 0 0 1 22.44 3.9c3.62.74 7.48-.12 7.88-4.19.44-4.49-8.64-19.48-11.02-24.21-.16-.327-.24-.67-.24-1.03v-2.01c0-.327.077-.637.23-.93 3.347-6.227 6.71-12.443 10.09-18.65 2.91-5.35 1.86-10.97-5.57-9.84l-21.26 3.2c-2.06.313-3.877-.343-5.45-1.97-4.587-4.747-9.133-9.53-13.64-14.35-4.96-5.3-10.12-4.65-11.34 3.07a890.655 890.655 0 0 1-3.57 20.97c-.313 1.74-1.147 2.933-2.5 3.58a10595.77 10595.77 0 0 0-20.01 9.55c-6.22 2.97-4.91 8.2.66 11.02a1597.604 1597.604 0 0 1 17.84 9.21c1.99 1.04 3.47 2.35 3.75 4.49.94 7.293 1.91 14.587 2.91 21.88.47 3.37 2.32 5.85 5.83 5.43 6.53-.78 18.28-19.8 22.97-19.12Zm345.1-29.95c.44 1.06.11 2.71-.49 3.67A1514.663 1514.663 0 0 1 573.76 531c-2.71 4.17.41 8.92 5.24 8.54 7.727-.613 15.457-1.18 23.19-1.7 1.16-.08 2.71.55 3.57 1.59 4.373 5.287 8.703 10.62 12.99 16 2.47 3.1 5.52 5.95 9.22 2.95 5.2-4.21 4.82-26.61 9.83-28.6a6208.026 6208.026 0 0 1 20.61-8.16 19.483 19.483 0 0 0 4.3-2.38c.294-.207.484-.483.57-.83.827-3.08-.2-5.54-3.08-7.38a868.563 868.563 0 0 0-18.08-11.24c-2.05-1.25-3.21-2.74-3.31-5.04-.327-7.187-.707-14.36-1.14-21.52-.42-7.04-5.81-7.62-10.6-3.52A1544.367 1544.367 0 0 1 611 483.24c-1.4 1.16-2.733 1.573-4 1.24a9995.509 9995.509 0 0 0-21.9-5.76c-6.52-1.7-8.87 3.08-6.58 8.71 2.747 6.78 5.503 13.55 8.27 20.31Z" fill="#5053FF"/><path d="m532.79 399.75 8.17 2.25 19.5 6.75 3.75 1.5a553.338 553.338 0 0 1 50.75 23 630.3 630.3 0 0 1 42.94 25.62c.234.16.504.203.81.13l.07.63c.034.32.16.597.38.83a33.665 33.665 0 0 1 7.09 11.5l-2.33-1.45a1.724 1.724 0 0 1-.59-.61c-2.32-3.933-5.5-7.083-9.54-9.45a8643.954 8643.954 0 0 1-17.48-10.26 465.83 465.83 0 0 0-104.15-45.3l.63-5.14Z" fill="#4143E3"/><path d="M397.42 478.53c.29-1.78.31-4.24-1.1-5.6a1078.04 1078.04 0 0 0-17.41-16.59c-2.27-2.13-1.67-6.2.54-7.91.873-.667 2.493-1.193 4.86-1.58 6.733-1.1 13.46-2.233 20.18-3.4 1.44-.25 3.2-1.27 3.84-2.6 3.107-6.453 6.18-12.923 9.22-19.41 2.86-6.1 7.92-6.88 11.17-.63 3.22 6.173 6.447 12.337 9.68 18.49 1.55 2.95 3.1 3.23 6.17 3.62 6.447.813 12.897 1.637 19.35 2.47 6.11.79 8.61 5.34 4 10.08a2746.93 2746.93 0 0 1-15.21 15.49c-1.33 1.34-1.85 3.18-1.48 5.16 1.327 7.047 2.657 14.09 3.99 21.13 1.16 6.14-3.08 9.17-8.56 6.46a54468.67 54468.67 0 0 0-20.17-9.94c-1.04-.513-2.273-.393-3.7.36a3180.706 3180.706 0 0 0-19.43 10.39c-5.01 2.7-10.16.47-9.18-5.78 1.067-6.74 2.147-13.477 3.24-20.21Zm50.26 13.48c1.37 7.49-12.36-1.01-14.29-1.92-.153-.067-.253-.02-.3.14a4.451 4.451 0 0 1-.09.26c-.1.287-.017.497.25.63 3.16 1.6 16.89 10.66 15.29-.02-1.01-6.69-5.11-18.01.16-23.39a905.904 905.904 0 0 0 10.8-11.21c3.33-3.52-.32-6.49-3.87-6.89-4.453-.5-8.9-1.077-13.34-1.73-8.27-1.21-11.36-11.46-14.6-17.81-2.16-4.26-6.24-4.76-8.41-.08a487.02 487.02 0 0 1-7.77 16.03c-.227.447-.12.553.32.32 4.57-2.45 7.05-18.98 12.43-18.33.299.034.585.142.833.315.247.173.449.405.587.675 3.04 6 7.62 18.11 14.63 19.7 2.273.52 7.647 1.237 16.12 2.15 2.04.22 2.963 1.46 2.77 3.72a1.42 1.42 0 0 1-.38.87c-5.89 6.33-15.57 12.72-13.87 21.81.92 4.927 1.83 9.847 2.73 14.76Zm-41.21 3.38c-2.24 1.26-5.13.36-4.73-2.64.83-6.2 4.11-19-.05-23.7-1.613-1.827-5.393-5.433-11.34-10.82-8.45-7.66 10.99-6.25 12.47-8.51a.347.347 0 0 0 .003-.385.348.348 0 0 0-.353-.155c-3.727.607-7.47 1.203-11.23 1.79-3.6.56-5.54 4.66-2.7 7.27 5.86 5.39 15.66 11.74 14.16 20.94-.727 4.44-1.42 8.887-2.08 13.34-.5 3.36 2.69 5.91 5.73 4.34 2.64-1.367 8.137-4.327 16.49-8.88.673-.367.627-.557-.14-.57-3.41-.04-12.87 6.08-16.23 7.98Z" fill="#FE8780"/><path d="M433.39 490.09c1.93.91 15.66 9.41 14.29 1.92-.9-4.913-1.81-9.833-2.73-14.76-1.7-9.09 7.98-15.48 13.87-21.81a1.42 1.42 0 0 0 .38-.87c.193-2.26-.73-3.5-2.77-3.72-8.473-.913-13.847-1.63-16.12-2.15-7.01-1.59-11.59-13.7-14.63-19.7a1.856 1.856 0 0 0-.587-.675 1.813 1.813 0 0 0-.833-.315c-5.38-.65-7.86 15.88-12.43 18.33-.44.233-.547.127-.32-.32a487.02 487.02 0 0 0 7.77-16.03c2.17-4.68 6.25-4.18 8.41.08 3.24 6.35 6.33 16.6 14.6 17.81 4.44.653 8.887 1.23 13.34 1.73 3.55.4 7.2 3.37 3.87 6.89a905.904 905.904 0 0 1-10.8 11.21c-5.27 5.38-1.17 16.7-.16 23.39 1.6 10.68-12.13 1.62-15.29.02-.267-.133-.35-.343-.25-.63.033-.087.063-.173.09-.26.047-.16.147-.207.3-.14Z" fill="#FEB4B3"/><path d="M491.88 477.51a310.75 310.75 0 0 0-11.63-20.03c-3.25-5.15 1.21-9.16 6.42-8.52 6.96.853 13.926 1.667 20.9 2.44 2.08.233 3.73-.31 4.95-1.63a558.218 558.218 0 0 0 13.2-14.8c1.906-2.213 3.513-3.553 4.82-4.02 4.21-1.52 6.41 2.04 7.14 5.8 1.333 6.84 2.696 13.673 4.09 20.5.43 2.12 1.55 3.39 3.62 4.31 6.173 2.753 12.37 5.453 18.59 8.1 5.6 2.38 7.94 7.51 1.69 11.04a7315.055 7315.055 0 0 1-19.5 10.95c-1.554.867-2.42 2.46-2.6 4.78a852.749 852.749 0 0 1-2.01 22.13c-.67 6.36-6.81 5.41-10.34 2.15a4489.656 4489.656 0 0 0-15.47-14.2c-1.86-1.69-3.5-1.73-6.04-1.17-6.5 1.427-12.997 2.87-19.49 4.33-7.45 1.68-9.82-3.01-6.86-9.34 2.84-6.08 5.656-12.17 8.45-18.27.73-1.59.95-2.89.07-4.55Zm35.41-34.47c1.63-1.82 4.65-1.92 5.21.72 1.08 5.1 2.153 10.197 3.22 15.29.826 3.927 2.78 6.55 5.86 7.87 4.833 2.073 9.64 4.21 14.42 6.41 2.71 1.24 2.49 4.1.19 5.36-5.85 3.22-17.95 8.01-18.64 15.32a869.979 869.979 0 0 1-1.58 15.51c-.95 8.55-11.41-3.64-13.36-5.34-.127-.107-.22-.08-.28.08-.04.113-.074.23-.1.35-.06.28.013.527.22.74 2.55 2.56 13.72 15.44 14.75 3.29.53-6.27.15-17.1 5.53-20.91 1.833-1.3 6.216-3.843 13.15-7.63 4.13-2.26 4.47-6.16-.16-8.23-7.87-3.52-17.33-5.03-19.37-14.82-.97-4.64-1.87-24.44-11.63-12.95-4.3 5.05-7.67 9.61-11.04 11.6-.154.087-.167.193-.04.32.066.06.14.133.22.22.18.193.383.22.61.08 4.59-2.8 9.16-9.21 12.82-13.28Zm-37.69 17.37c-1.83-3.18 1.59-4.59 4.16-4.22 4.013.593 7.546.977 10.6 1.15.253.02.393-.093.42-.34.1-.93-10.57-1.78-11.8-1.89-6.08-.56-5.28 4.54-3.13 8.18 2.52 4.25 9.64 13.92 7.61 18.66a499.175 499.175 0 0 1-6.46 14.38c-2.19 4.69.42 7.95 5.5 6.66a269.753 269.753 0 0 1 16.56-3.63c.48-.093.52-.28.12-.56-1.45-1-14.74 2.4-17.21 2.96-3.7.84-5.73-1.01-4.01-4.71 3.3-7.09 9.55-16.01 5.04-23.82l-7.4-12.82ZM307.18 498.6c-.59-3.33-16.31-10.25-19.84-12.02-4.05-2.03-7.57-3.97-5.37-8.79 1.51-3.31 19.02-10.42 23.13-12.36 1.1-.52 2.61-2.08 2.82-3.3 1.187-6.827 2.31-13.66 3.37-20.5 1.03-6.68 5.19-10.62 10.84-4.61 4.993 5.3 10.003 10.58 15.03 15.84 2.58 2.69 21.44-1.39 25.73-2.05 5.13-.77 9.87 2.84 6.87 8.17-5.733 10.167-9.477 17.023-11.23 20.57-.45.92-.39 2.74.15 3.8a2428.417 2428.417 0 0 1 10.07 20.01c2.95 5.95-1.21 9.34-7.02 8.26-6.587-1.227-13.16-2.44-19.72-3.64-2.92-.53-4.23-.35-6.43 1.82l-14.68 14.44c-4.51 4.44-9.77 3.4-10.49-3.2a331.378 331.378 0 0 0-3.23-22.44Zm50.4-40.38c8.02-.98-2.43 14.27-3.58 16.16-5.24 8.63 2.17 18.07 6 25.93.14.293.193.6.16.92-.28 2.8-2.14 3.23-4.65 2.73a276.848 276.848 0 0 0-9.75-1.77c-.413-.067-.583.107-.51.52.16.87 9.41 2.37 10.73 2.61 3.21.58 6.62-2.32 5.18-5.25-3.05-6.23-10.69-17.27-7.08-23.73a346.753 346.753 0 0 0 7.07-13.27c4.67-9.23-13.5-4.59-16.57-4.08-4.02.66-8.45.55-11.05-2.27a591.944 591.944 0 0 0-10.16-10.74c-3.62-3.74-7.07-1.87-7.81 2.92a265.293 265.293 0 0 1-3.24 17.21.364.364 0 0 0 .223.408.345.345 0 0 0 .427-.148c2.56-4.39 3.04-13.79 3.84-19.03.081-.516.324-.992.693-1.359a2.421 2.421 0 0 1 1.357-.681c6.58-.99 11.63 17.24 24.64 14.99 4.68-.813 9.373-1.503 14.08-2.07Zm-64.57 20.51a.933.933 0 0 1 .52-.62l10.98-5.34c.233-.113.4-.287.5-.52l.19-.42a.323.323 0 0 0-.076-.351.319.319 0 0 0-.168-.083.313.313 0 0 0-.186.024c-3.05 1.42-20.47 7.28-10.28 12.82a811.766 811.766 0 0 0 11.83 6.3c7.88 4.12 7.12 12.55 8.25 21.84.74 6.06 4.9 6.01 8.66 2.26 3.42-3.413 7.15-7.093 11.19-11.04a.399.399 0 0 0 .081-.436.374.374 0 0 0-.371-.224c-1.93.17-11.01 10.04-12.92 11.96-1.97 1.97-4.9 1.29-5.32-1.58a1244.204 1244.204 0 0 1-2.16-15.57c-.95-7.29-12.77-11.49-18.72-14.46-2.11-1.06-2.62-2.35-2-4.56Z" fill="#FE8780"/><path d="M532.5 443.76c-.56-2.64-3.58-2.54-5.21-.72-3.66 4.07-8.23 10.48-12.82 13.28-.227.14-.43.113-.61-.08a3.246 3.246 0 0 0-.22-.22c-.127-.127-.113-.233.04-.32 3.37-1.99 6.74-6.55 11.04-11.6 9.76-11.49 10.66 8.31 11.63 12.95 2.04 9.79 11.5 11.3 19.37 14.82 4.63 2.07 4.29 5.97.16 8.23-6.933 3.787-11.317 6.33-13.15 7.63-5.38 3.81-5 14.64-5.53 20.91-1.03 12.15-12.2-.73-14.75-3.29a.774.774 0 0 1-.22-.74c.027-.12.06-.237.1-.35.06-.16.153-.187.28-.08 1.95 1.7 12.41 13.89 13.36 5.34.573-5.167 1.1-10.337 1.58-15.51.69-7.31 12.79-12.1 18.64-15.32 2.3-1.26 2.52-4.12-.19-5.36-4.78-2.2-9.587-4.337-14.42-6.41-3.08-1.32-5.033-3.943-5.86-7.87-1.067-5.093-2.14-10.19-3.22-15.29ZM354 474.38c1.15-1.89 11.6-17.14 3.58-16.16-4.707.567-9.4 1.257-14.08 2.07-13.01 2.25-18.06-15.98-24.64-14.99a2.421 2.421 0 0 0-1.357.681 2.453 2.453 0 0 0-.693 1.359c-.8 5.24-1.28 14.64-3.84 19.03a.345.345 0 0 1-.427.148.364.364 0 0 1-.223-.408 265.293 265.293 0 0 0 3.24-17.21c.74-4.79 4.19-6.66 7.81-2.92a595.459 595.459 0 0 1 10.16 10.74c2.6 2.82 7.03 2.93 11.05 2.27 3.07-.51 21.24-5.15 16.57 4.08a346.753 346.753 0 0 1-7.07 13.27c-3.61 6.46 4.03 17.5 7.08 23.73 1.44 2.93-1.97 5.83-5.18 5.25-1.32-.24-10.57-1.74-10.73-2.61-.074-.413.096-.587.51-.52 3.266.533 6.516 1.123 9.75 1.77 2.51.5 4.37.07 4.65-2.73.033-.32-.02-.627-.16-.92-3.83-7.86-11.24-17.3-6-25.93Zm47.74 18.37c-.4 3 2.49 3.9 4.73 2.64 3.36-1.9 12.82-8.02 16.23-7.98.767.013.813.203.14.57-8.353 4.553-13.85 7.513-16.49 8.88-3.04 1.57-6.23-.98-5.73-4.34.66-4.453 1.353-8.9 2.08-13.34 1.5-9.2-8.3-15.55-14.16-20.94-2.84-2.61-.9-6.71 2.7-7.27 3.76-.587 7.503-1.183 11.23-1.79a.352.352 0 0 1 .353.155.347.347 0 0 1-.003.385c-1.48 2.26-20.92.85-12.47 8.51 5.947 5.387 9.727 8.993 11.34 10.82 4.16 4.7.88 17.5.05 23.7Zm92.02-36.56c-2.57-.37-5.99 1.04-4.16 4.22l7.4 12.82c4.51 7.81-1.74 16.73-5.04 23.82-1.72 3.7.31 5.55 4.01 4.71 2.47-.56 15.76-3.96 17.21-2.96.4.28.36.467-.12.56a270.079 270.079 0 0 0-16.56 3.63c-5.08 1.29-7.69-1.97-5.5-6.66a496.447 496.447 0 0 0 6.46-14.38c2.03-4.74-5.09-14.41-7.61-18.66-2.15-3.64-2.95-8.74 3.13-8.18 1.23.11 11.9.96 11.8 1.89-.027.247-.167.36-.42.34-3.054-.173-6.587-.557-10.6-1.15Z" fill="#FEB4B3"/><path d="M241.69 537.69c-4.69-.68-16.44 18.34-22.97 19.12-3.51.42-5.36-2.06-5.83-5.43-1-7.293-1.97-14.587-2.91-21.88-.28-2.14-1.76-3.45-3.75-4.49a1606.365 1606.365 0 0 0-17.84-9.21c-5.57-2.82-6.88-8.05-.66-11.02a10595.77 10595.77 0 0 1 20.01-9.55c1.353-.647 2.186-1.84 2.5-3.58a890.655 890.655 0 0 0 3.57-20.97c1.22-7.72 6.38-8.37 11.34-3.07a1198.68 1198.68 0 0 0 13.64 14.35c1.573 1.627 3.39 2.283 5.45 1.97l21.26-3.2c7.43-1.13 8.48 4.49 5.57 9.84a3801.973 3801.973 0 0 0-10.09 18.65 1.97 1.97 0 0 0-.23.93v2.01c0 .36.08.703.24 1.03 2.38 4.73 11.46 19.72 11.02 24.21-.4 4.07-4.26 4.93-7.88 4.19a377.152 377.152 0 0 0-22.44-3.9Zm20.28-8.16c3.81 7.5-11.26 3.02-13.57 2.66-.2-.033-.354.04-.46.22l-.16.26c-.18.3-.097.487.25.56 3.333.72 6.683 1.357 10.05 1.91 4.64.76 6.8-2.55 4.81-6.52-3.07-6.12-9.77-15.4-6.33-22.32 1.28-2.573 3.583-6.887 6.91-12.94 2.53-4.59-1.09-6.69-5.33-6.1-4.554.64-9.107 1.253-13.66 1.84-7.61.99-13-6.86-18.91-13.42-2.85-3.15-6.89-1.67-7.57 2.32-.95 5.58-1.23 12.54-3.38 17.71a.316.316 0 0 0 .07.36l.25.24c.22.227.4.197.54-.09 2.24-4.61 2.75-12.73 3.56-17.92.71-4.61 3.95-3.67 6.38-1.05 5.25 5.66 11.3 14.36 19.83 13.06 4.38-.667 8.76-1.36 13.14-2.08 4.41-.72 5.73 1.75 3.73 5.51-3.66 6.9-10.47 15.32-6.52 23.19a5347.87 5347.87 0 0 0 6.37 12.6Zm-42.43 16.19c-2.11-1.93-2.84-13.41-3.34-16.67-1.41-9.41-11.56-12.21-18.85-15.86-8.19-4.12 7.64-9.59 10-10.68.18-.08.24-.217.18-.41a8.593 8.593 0 0 0-.08-.26c-.12-.327-.34-.42-.66-.28-4.03 1.79-20.68 7.13-8.78 13.32 4.54 2.36 15.06 6.42 16.52 11.37 1.026 3.48 1.866 9.05 2.52 16.71.4 4.61 4.68 5.39 7.73 2.3 4.04-4.1 8.223-8.09 12.55-11.97.42-.38.346-.593-.22-.64-2.03-.18-12.38 10.96-14.38 12.99a2.317 2.317 0 0 1-1.582.681 2.293 2.293 0 0 1-1.608-.601Z" fill="#FE8780"/><path d="M586.79 507.74c-2.767-6.76-5.523-13.53-8.27-20.31-2.29-5.63.06-10.41 6.58-8.71a9995.509 9995.509 0 0 1 21.9 5.76c1.267.333 2.6-.08 4-1.24a1544.367 1544.367 0 0 0 16.07-13.53c4.79-4.1 10.18-3.52 10.6 3.52.433 7.16.813 14.333 1.14 21.52.1 2.3 1.26 3.79 3.31 5.04 6.073 3.673 12.1 7.42 18.08 11.24 2.88 1.84 3.907 4.3 3.08 7.38a1.403 1.403 0 0 1-.57.83 19.505 19.505 0 0 1-4.3 2.38 6208.026 6208.026 0 0 0-20.61 8.16c-5.01 1.99-4.63 24.39-9.83 28.6-3.7 3-6.75.15-9.22-2.95a1129.193 1129.193 0 0 0-12.99-16c-.86-1.04-2.41-1.67-3.57-1.59-7.733.52-15.463 1.087-23.19 1.7-4.83.38-7.95-4.37-5.24-8.54a1514.663 1514.663 0 0 0 12.54-19.59c.6-.96.93-2.61.49-3.67Z" fill="#4143E3"/><path d="M293.01 478.73c-.62 2.21-.11 3.5 2 4.56 5.95 2.97 17.77 7.17 18.72 14.46.686 5.193 1.406 10.383 2.16 15.57.42 2.87 3.35 3.55 5.32 1.58 1.91-1.92 10.99-11.79 12.92-11.96a.374.374 0 0 1 .371.224.393.393 0 0 1-.081.436c-4.04 3.947-7.77 7.627-11.19 11.04-3.76 3.75-7.92 3.8-8.66-2.26-1.13-9.29-.37-17.72-8.25-21.84a806.626 806.626 0 0 1-11.83-6.3c-10.19-5.54 7.23-11.4 10.28-12.82a.313.313 0 0 1 .186-.024.319.319 0 0 1 .244.434l-.19.42c-.1.233-.267.407-.5.52l-10.98 5.34a.933.933 0 0 0-.52.62Zm-44.61 53.46c2.31.36 17.38 4.84 13.57-2.66a5761.72 5761.72 0 0 1-6.37-12.6c-3.95-7.87 2.86-16.29 6.52-23.19 2-3.76.68-6.23-3.73-5.51-4.38.72-8.76 1.413-13.14 2.08-8.53 1.3-14.58-7.4-19.83-13.06-2.43-2.62-5.67-3.56-6.38 1.05-.81 5.19-1.32 13.31-3.56 17.92-.14.287-.32.317-.54.09l-.25-.24a.318.318 0 0 1-.07-.36c2.15-5.17 2.43-12.13 3.38-17.71.68-3.99 4.72-5.47 7.57-2.32 5.91 6.56 11.3 14.41 18.91 13.42 4.553-.587 9.107-1.2 13.66-1.84 4.24-.59 7.86 1.51 5.33 6.1-3.327 6.053-5.63 10.367-6.91 12.94-3.44 6.92 3.26 16.2 6.33 22.32 1.99 3.97-.17 7.28-4.81 6.52a204.734 204.734 0 0 1-10.05-1.91c-.347-.073-.43-.26-.25-.56l.16-.26c.107-.18.26-.253.46-.22Zm-28.86 13.53a2.295 2.295 0 0 0 1.609.601 2.315 2.315 0 0 0 1.581-.681c2-2.03 12.35-13.17 14.38-12.99.567.047.64.26.22.64a281.23 281.23 0 0 0-12.55 11.97c-3.05 3.09-7.33 2.31-7.73-2.3-.653-7.66-1.493-13.23-2.52-16.71-1.46-4.95-11.98-9.01-16.52-11.37-11.9-6.19 4.75-11.53 8.78-13.32.32-.14.54-.047.66.28.027.08.054.167.08.26.06.193 0 .33-.18.41-2.36 1.09-18.19 6.56-10 10.68 7.29 3.65 17.44 6.45 18.85 15.86.5 3.26 1.23 14.74 3.34 16.67Z" fill="#FEB4B3"/><path d="M576.93 577.88c-1.68 2.053-3.01 3.41-3.99 4.07-8.79 5.91-18.37 12.8-26.52 17.71-42.23 25.49-93.44 41.17-142.99 44.7-15.69 1.11-32.62.64-48.42-.45-45.65-3.17-89.71-16.72-124.17-48.13 2.033-1 3.487-1.683 4.36-2.05 65.87-27.4 136.29-42.93 207.79-41.08 46.04 1.2 90.687 9.61 133.94 25.23Z" fill="#E3EAFE"/><defs><filter id="a" width="812" height="782" x="0" y="0" color-interpolation-filters="sRGB" filterUnits="userSpaceOnUse"><feFlood flood-opacity="0" result="BackgroundImageFix"/><feBlend in="SourceGraphic" in2="BackgroundImageFix" mode="normal" result="shape"/><feGaussianBlur result="effect1_foregroundBlur_433_296" stdDeviation="50"/></filter></defs></svg>