<svg width="168" height="187" viewBox="0 0 168 187" fill="none" xmlns="http://www.w3.org/2000/svg">
<rect x="48" y="48" width="96" height="89" rx="44.5" fill="#3F82D0"/>
<rect y="98" width="96" height="89" rx="30" fill="#01F0FF" fill-opacity="0.92"/>
<rect x="24" width="48" height="44" rx="22" fill="#3F82D0"/>
<rect x="120" y="66" width="48" height="89" rx="24" fill="#01F0FF" fill-opacity="0.92"/>
<path d="M91.32 133L83.064 111.784H55.896L47.736 133H39L65.784 64.168H73.56L100.248 133H91.32ZM72.792 83.368C72.6 82.856 72.28 81.928 71.832 80.584C71.384 79.24 70.936 77.864 70.488 76.456C70.104 74.984 69.784 73.864 69.528 73.096C69.208 74.376 68.856 75.688 68.472 77.032C68.152 78.312 67.8 79.496 67.416 80.584C67.096 81.672 66.808 82.6 66.552 83.368L58.776 104.104H80.472L72.792 83.368ZM127.961 80.68C134.233 80.68 138.873 82.056 141.881 84.808C144.889 87.56 146.393 91.944 146.393 97.96V133H140.249L138.617 125.704H138.233C136.761 127.56 135.225 129.128 133.625 130.408C132.089 131.624 130.297 132.52 128.249 133.096C126.265 133.672 123.833 133.96 120.953 133.96C117.881 133.96 115.097 133.416 112.601 132.328C110.169 131.24 108.249 129.576 106.841 127.336C105.433 125.032 104.729 122.152 104.729 118.696C104.729 113.576 106.745 109.64 110.777 106.888C114.809 104.072 121.017 102.536 129.401 102.28L138.137 101.992V98.92C138.137 94.632 137.209 91.656 135.353 89.992C133.497 88.328 130.873 87.496 127.481 87.496C124.793 87.496 122.233 87.912 119.801 88.744C117.369 89.512 115.097 90.408 112.984 91.432L110.393 85.096C112.633 83.88 115.289 82.856 118.361 82.024C121.433 81.128 124.633 80.68 127.961 80.68ZM130.457 108.136C124.057 108.392 119.609 109.416 117.113 111.208C114.681 113 113.465 115.528 113.465 118.792C113.465 121.672 114.329 123.784 116.057 125.128C117.849 126.472 120.121 127.144 122.873 127.144C127.225 127.144 130.841 125.96 133.721 123.592C136.601 121.16 138.041 117.448 138.041 112.456V107.848L130.457 108.136Z" fill="white"/>
</svg>
