<svg width="600" height="114" viewBox="0 0 600 114" fill="none" xmlns="http://www.w3.org/2000/svg">
<path d="M3.79395 108V3.27012H77.5515V23.8321H29.3576V45.3121H73.7818V65.9161H29.3576V87.4441H77.5515V108H3.79395ZM162.988 37.4821C162.459 35.4586 161.586 33.5391 160.406 31.8061C159.285 30.1517 157.868 28.7141 156.224 27.5641C154.499 26.3707 152.574 25.4872 150.539 24.9541C148.252 24.3206 145.885 24.0116 143.509 24.0361C138.382 24.0361 133.939 25.2601 130.188 27.7141C126.467 30.1741 123.594 33.7501 121.558 38.4541C119.527 43.1281 118.515 48.8041 118.515 55.4821C118.515 62.2021 119.497 67.9261 121.461 72.6661C123.418 77.4061 126.261 81.0181 129.982 83.5081C133.697 85.9921 138.212 87.2401 143.515 87.2401C148.194 87.2401 152.158 86.4901 155.394 84.9901C158.667 83.4541 161.145 81.2881 162.83 78.4921C164.521 75.6961 165.364 72.4081 165.364 68.6221L170.115 69.1861H144.394V50.7301H190V64.5901C190 73.9621 187.988 81.9901 183.958 88.6681C180.056 95.265 174.319 100.61 167.43 104.064C160.436 107.64 152.4 109.434 143.309 109.434C133.218 109.434 124.352 107.268 116.703 102.936C109.061 98.6101 103.103 92.4361 98.8364 84.4261C94.5636 76.3861 92.4303 66.8341 92.4303 55.7881C92.4303 47.1961 93.7212 39.5821 96.303 32.9281C98.8849 26.2501 102.485 20.5921 107.097 15.9541C111.669 11.3671 117.161 7.77823 123.218 5.41812C129.525 3.00058 136.237 1.78721 143 1.84212C149.121 1.84212 154.824 2.71212 160.091 4.44612C165.4 6.18612 170.079 8.64612 174.145 11.8141C178.175 14.9067 181.561 18.7435 184.115 23.1121C186.661 27.4801 188.242 32.2681 188.867 37.4821H162.988ZM205.073 108V3.27012H230.636V45.3061H272.321V3.27012H297.836V108H272.321V65.9161H230.636V108H205.073ZM310.418 23.8321V3.27012H399.83V23.8321H367.752V108H342.539V23.8321H310.418ZM502.345 3.27012V108H480.648L438.564 47.5561H437.891V108H412.321V3.27012H434.321L475.958 63.6121H476.836V3.27012H502.345ZM549.933 92.8621V18.8221H570.745V92.8621H549.933ZM522.915 66.1681V45.5101H597.709V66.1681H522.915Z" fill="#1C1C1C"/>
</svg>
