<svg width="196" height="261" viewBox="0 0 196 261" fill="none" xmlns="http://www.w3.org/2000/svg">
<path d="M8.79181 106.178L21.8295 67.1707L34.8671 45.5072L58.7683 32.5083L80.5094 19.5024H106.592L130.496 26.0036L145.715 32.5083L163.098 52.0119L178.313 78.0201L189.184 106.185V136.527L178.313 162.535L163.101 188.533L141.364 199.368L123.981 212.367L106.595 216.701H87.0424L69.6565 212.367L58.7859 199.368L43.5742 195.034L26.1777 182.018L13.1436 158.184L6.62476 130.015L8.79181 106.178Z" fill="white" stroke="black" stroke-width="0.696"/>
<path d="M166.458 129.994C167.372 131.088 168.745 131.589 169.818 130.887C171.759 129.592 172.066 130.569 171.777 133.128C172.998 130.887 173.686 129.514 174.466 128.198C175.377 126.652 176.301 125.113 178.352 124.767C178.771 124.737 179.164 124.552 179.454 124.249C179.745 123.946 179.913 123.546 179.926 123.126C179.88 122.233 179.178 122.039 178.362 122.106C176.866 122.233 178.793 120.482 177.286 120.165C176.594 120.013 177.738 119.656 178.034 119.416C179.774 118.178 180.004 117.458 179.139 115.478C178.899 114.92 179.322 114.662 179.598 114.323C181.472 112.163 182.587 109.848 181.539 106.919C181.165 105.87 181.599 105.429 182.499 105.669C183.844 105.987 183.815 105.21 183.805 104.325C184.19 104.438 184.546 104.649 184.821 104.939C185.103 105.227 185.303 105.585 185.4 105.976C185.658 107.187 185.245 107.695 183.727 107.198C186.897 110.183 187.461 113.727 187.221 117.602C187.059 120.09 186.964 122.54 185.725 124.778C185.245 125.653 186.83 125.776 186.272 126.938C185.928 127.655 185.403 128.269 184.748 128.719C184.092 129.17 183.33 129.44 182.538 129.503C182.728 131.445 185.418 131.445 185.273 133.576C185.188 134.769 184.133 135.327 183.882 136.336C181.235 135.68 179.887 137.755 178.084 139.139C178.994 139.072 179.919 139.132 180.819 139.322C181.945 139.746 184.497 138.842 183.431 141.782C183.279 142.195 184.324 143.021 184.927 143.819C182.894 144.08 183.621 147.779 180.667 146.808C180.551 148.093 181.924 148.255 181.913 149.229C181.26 150.168 179.802 150.288 179.446 151.562C179.34 151.89 178.775 152.014 179.294 152.611C180.713 154.234 180.466 155.032 178.546 155.769C177.452 156.182 176.806 157.22 176.04 158.565C175.687 159.211 174.54 159.383 173.725 159.786C176.252 161.325 176.195 168.818 173.64 169.576C172.14 170.035 170.499 170.247 168.907 170.766C170.308 171.172 171.844 171.189 172.754 172.555C172.585 173.543 171.787 172.679 171.258 172.968C170.51 173.36 169.761 172.908 170.566 174.309C171.318 175.534 172.285 177.768 169.002 177.299C169.158 178.216 166.765 177.376 167.873 179.268C168.897 181.047 167.651 182.526 165.286 182.833C164.99 182.882 164.75 182.96 164.7 183.133C164.125 185.208 161.651 186.369 161.965 189.098C161.111 188.395 161.679 187.474 161.217 186.86C158.771 188.455 156.512 190.771 153.145 189.5C152.626 189.309 152.502 189.5 152.337 189.8C151.292 191.519 148.797 191.395 147.854 193.527C147.395 194.554 147.106 192.278 145.789 193.096L144.342 196.767C141.932 194.727 140.922 194.805 138.918 197.148C138.417 196.696 138.226 195.913 137.478 195.726L137.217 196.043C138.522 197.176 137.266 198.465 136.719 198.281C134.647 197.695 134.626 199.435 134.329 200.311C133.521 202.749 130.479 203.815 130.518 206.688C128.347 206.688 127.677 209.003 125.919 209.678C125.171 209.974 124.673 209.476 124.249 209.092C123.318 208.255 122.492 207.306 121.454 206.198C121.052 208.379 121.715 210.532 121.129 212.596C119.824 212.847 120.321 211.061 119.294 211.012C118.701 211.552 119.238 214.435 117.184 212.071C115.197 215.056 114.141 212.522 112.779 211.358C111.942 210.648 111.646 211.005 110.894 213.652L108.314 210.292L107.4 214.114C106.193 213.302 105.798 211.982 105.039 210.581C104.241 213.076 102.187 215.056 100.182 214.421C98.3859 213.867 95.5165 217.033 94.9024 213.048C93.5612 213.338 93.6177 215.808 92.2906 215.018C90.4201 213.902 86.6577 214.566 87.8083 209.734L84.7059 213.712C84.0918 212.819 84.6495 211.319 83.633 211.118C82.6165 210.906 82.1365 212.212 81.4906 212.868C81.2655 213.138 80.9536 213.321 80.6083 213.387C80.2627 213.45 79.9058 213.388 79.6024 213.211C78.9848 212.953 78.7765 211.453 77.46 212.868C76.8353 213.521 77.0083 211.541 76.3765 211.001C75.3495 211.051 75.8118 212.491 74.58 212.731C73.9553 210.627 74.4636 208.428 74.333 206.018C72.7659 207.38 71.8906 209.935 70.0483 209.494C69.0812 209.272 66.18 209.141 66.9883 206C64.8459 207.669 64.1824 207.189 63.3 205.103C61.5071 200.829 57.4412 198.592 53.8553 195.998C53.6422 195.822 53.3793 195.717 53.1036 195.698C51.894 195.708 50.7086 195.359 49.6972 194.696C48.6857 194.032 47.8937 193.084 47.4212 191.97C46.5283 196.072 44.5518 193.728 42.833 192.941C42.9883 191.702 41.6612 191.953 41.1918 191.346C40.2212 189.108 37.4577 188.868 36.2083 186.87C36.0459 186.602 35.7494 186.57 35.6153 186.87C34.4506 189.743 33.0318 187.072 32.8306 186.631C32.0824 184.986 30.353 185.642 29.2024 184.583C25.92 181.555 24.2188 177.436 21.2612 174.235C21.1457 174.049 21.0734 173.839 21.0494 173.621C21.0307 173.4 21.0608 173.177 21.1377 172.968C21.7906 171.479 21.8859 170.402 19.9094 169.979C19.5847 169.905 19.0624 169.259 19.1118 168.991C19.6977 166.34 17.6929 163.725 19.0271 161.085C19.4012 160.333 19.5459 159.518 18.7094 159.256C17.1459 158.759 16.7435 157.125 15.4271 156.327C12.8329 154.742 11.7388 151.266 12.5576 148.209C12.6141 147.987 12.6318 147.75 12.6706 147.518C10.4365 147.518 10.5776 145.202 9.41647 144.235C8.53412 143.483 8.29412 143.212 9.24353 142.513C9.58941 142.252 10.2318 141.955 9.99177 141.514C8.65059 139.121 11.1635 139.227 12.0459 138.09C10.4647 138.334 8.01529 137.48 8.34 136.778C9.09176 135.288 8.01529 134.155 8.17059 132.86C8.45647 130.467 10.8565 131.607 11.1176 130.1C8.05412 129.168 7.83529 128.018 9.69529 125.325C10.1082 124.767 9.34235 123.242 8.84823 122.272C8.69647 121.972 8.17765 121.52 8.23765 121.241C9.03176 117.514 7.93765 113.776 8.77412 110.053C9.70531 105.888 11.8656 102.098 14.9753 99.1752C14.0047 98.9917 13.1788 97.3117 13.4788 96.0799C15.1977 96.2564 15.1977 96.2564 17.3647 95.127C17.8835 96.1505 16.4718 96.6199 16.6659 97.6681H21.1129C18.3363 99.1181 15.813 101.008 13.6412 103.266C12.1447 104.833 10.4259 107.226 11.1247 108.638C12.2506 110.932 10.3765 112.001 10.3765 113.603C10.3765 114.256 9.14823 116.353 11.7776 115.488C12.2506 115.333 12.6247 116.829 12.5259 117.581C12.2082 119.762 12.9388 121.308 14.5624 122.808C15.6953 123.885 15.7835 125.794 15.8188 127.361C15.8188 128.314 15.6953 129.486 16.5706 129.726C20.2059 130.679 18.6706 133.788 18.66 135.623C18.66 140.063 20.4953 143.367 24.9882 144.828C25.2177 144.8 25.4471 144.863 25.6306 145.001C25.8082 145.142 25.9276 145.343 25.9659 145.566C26.34 148.266 27.953 148.354 30.0671 147.567C26.9647 146.519 26.5518 145.682 28.8388 143.72C30.48 142.301 30.2118 140.833 30.18 139.245C30.1447 136.096 30.1059 136.019 33.4341 135.68C35.3365 135.5 36.9106 135.087 37.62 133.012C37.8883 132.193 38.7918 131.963 39.6847 132.299C41.3647 136.181 44.5553 138.976 47.6047 141.553C49.1012 142.77 51.84 143 54.4765 143.339C55.9377 143.512 57.2894 144.186 58.3094 145.252C58.9624 147.959 61.0165 142.725 62.8694 141.274C63.2572 140.998 63.715 140.837 64.19 140.81C64.6651 140.782 65.1383 140.889 65.5553 141.119C65.7777 141.313 66.3036 141.638 66.3036 141.927C65.3753 142.34 62.9436 148.968 62.9859 150.133C63.06 151.936 62.9859 153.743 61.313 154.965C61.1944 155.037 61.0931 155.135 61.0165 155.25C60.939 155.366 60.8928 155.5 60.8824 155.639C61.1789 159.009 58.4718 159.295 56.3118 159.796C54.4589 160.227 53.2694 161.046 52.6271 162.821C52.3271 163.658 51.533 164.243 50.9541 164.939C49.3306 166.88 50.1071 169.453 52.5883 169.749C54.2471 169.951 54.4871 170.808 54.5294 172.075C54.6141 175.1 55.7083 177.839 56.8942 180.567C57.3283 181.481 58.0024 182.247 58.8353 182.805C59.8342 183.556 61.6024 183.775 60.6494 185.727C60.4977 186.023 60.8718 186.525 61.1683 186.602C63.4059 187.216 63.6389 189.454 64.7612 190.954C66.0177 192.606 67.5847 194.476 70.2106 193.192C70.7683 192.909 71.1424 193.114 71.7106 193.354C74.82 194.759 77.6895 196.813 81.5683 195.592C83.0648 195.122 83.9012 197.416 84.8895 198.503C86.9436 200.741 87.3177 200.942 89.5836 199.051C90.0353 198.676 90.8542 197.861 91.0059 198.772C91.4965 201.761 94.8177 201.271 96.0459 203.748C97.2142 200.762 98.2518 201.733 99.4801 203.289C100.451 204.518 101.661 204.779 102.9 203.374C104.241 201.885 105.681 201.387 107.181 203.279C107.368 203.546 107.628 203.753 107.929 203.875C108.23 204.002 108.561 204.038 108.882 203.981C111.565 203.028 114.861 203.558 116.771 200.723C116.926 200.501 117.06 200.222 117.307 200.127C121.302 198.687 122.626 194.903 124.602 191.741C124.686 191.551 124.812 191.382 124.969 191.247C125.123 191.113 125.307 191.018 125.506 190.972C125.704 190.923 125.909 190.917 126.109 190.954C126.314 190.989 126.505 191.078 126.667 191.194C127.302 191.942 126.918 193.276 128.164 193.682C127.476 193.011 126.962 192.182 126.667 191.268C126.589 189.366 128.202 189.405 129.357 188.879C130.507 188.36 132.025 188.173 130.853 186.341C130.968 185.733 131.233 185.163 131.623 184.683C132.014 184.203 132.518 183.828 133.091 183.592C135.642 182.374 138.131 181.008 137.573 177.454C137.506 177.144 137.554 176.821 137.707 176.543C137.863 176.265 138.121 176.057 138.427 175.965C138.505 175.984 138.58 176.014 138.649 176.053C138.706 176.099 138.724 176.205 138.762 176.272C139.359 174.352 140.809 172.785 141.011 170.709C141.011 170.526 141.011 170.24 141.095 170.191C144.611 168.578 141.844 166.908 141.145 165.253C141.019 164.961 140.954 164.647 140.954 164.33C140.954 164.012 141.019 163.698 141.145 163.407C141.362 162.916 141.445 162.377 141.385 161.843C141.331 161.308 141.136 160.797 140.82 160.361C140.365 159.553 140.227 158.604 140.435 157.7C140.642 156.796 141.18 156.001 141.942 155.473C142.497 155.078 143.545 154.908 143.199 154.022C142.846 153.14 141.777 153.563 141.021 153.514C139.85 153.38 139.031 152.254 137.774 152.332C136.669 151.583 137.661 150.302 137.082 149.409C136.546 148.019 137.16 146.741 137.495 145.432C138.621 144.549 139.917 143.914 141.307 143.568C143.174 143.604 145.024 143.207 146.711 142.407C148.396 141.603 149.872 140.419 151.024 138.948C152.09 137.699 153.491 136.816 154.306 135.221C154.825 134.25 155.467 133.492 155.199 132.309C155.056 131.882 155.036 131.423 155.141 130.985C155.247 130.547 155.473 130.147 155.795 129.832C156.092 129.532 156.685 129.119 156.226 128.755C154.535 127.439 156.399 126.641 156.579 125.603C156.473 124.114 157.627 123.076 158.079 121.77C158.17 121.689 158.279 121.63 158.397 121.598C158.511 121.563 158.632 121.557 158.75 121.58C158.912 122.378 159.498 122.215 160.084 122.205C161.015 122.953 160.602 124.068 160.68 124.958C160.92 128.247 161.428 128.85 164.94 128.783C165.865 128.783 166.557 128.667 166.497 129.87" fill="#AEB0AC"/>
<path d="M172.468 76.1178C172.016 75.8708 171.152 75.6272 171.127 75.3696C170.915 71.4872 167.763 71.0284 165.049 70.3437C163.627 69.9908 164.827 69.6908 164.749 69.3449C164.598 68.4908 164.432 67.4602 163.203 67.1919C162.21 66.9162 161.232 66.5863 160.274 66.2037C161.026 65.7802 162.148 65.752 161.774 64.5414C161.671 64.151 161.441 63.8058 161.121 63.5602C160.798 63.3149 160.404 63.18 159.999 63.1755C158.104 62.948 156.183 63.1248 154.362 63.6943C155.947 62.1272 157.934 60.8425 154.68 59.9672C154.595 59.9479 154.516 59.9079 154.451 59.8508C154.385 59.7933 154.336 59.7205 154.306 59.639C154.278 59.5554 154.272 59.4664 154.286 59.3797C154.301 59.2929 154.337 59.2111 154.39 59.1414C156.014 57.1155 154.451 55.5767 153.473 54.1084C152.951 53.3567 152.308 53.1555 153.625 52.5414C154.373 52.1955 153.872 50.9531 153.378 50.6778C150.159 48.8884 148.44 44.7802 144.483 44.4131C141.251 44.0955 137.908 41.9143 134.502 44.7096C135.903 40.4567 135.434 36.6237 132.092 34.1143C129.106 31.8767 125.439 30.3872 121.242 31.1249C122.982 28.9649 122.118 28.0825 117.406 26.9249C116.541 27.599 118.267 28.0225 117.596 28.6861C113.979 27.1967 113.979 27.1967 113.862 29.4731C111.441 25.5167 106.952 25.372 103.888 22.9014C107.449 23.3743 111.356 22.3155 114.706 26.332C114.187 24.2778 113.901 23.2014 115.976 24.0378C119.859 25.6225 123.875 26.8614 127.86 28.2449C128.933 27.9555 129.406 28.8202 130.009 29.4272C131.823 30.5496 133.638 31.6649 135.445 32.7484C138.9 34.8837 142.288 37.1108 146.079 38.6496C146.471 38.8014 147.123 39.2355 147.085 39.3978C146.442 42.2814 148.885 42.232 150.448 42.9272C152.012 43.6049 153.43 44.2684 153.586 46.2272C153.586 46.4108 153.621 46.5943 153.702 46.7567C153.784 46.9222 153.902 47.0671 154.048 47.1802C154.19 47.2935 154.357 47.3699 154.535 47.4025C154.714 47.4393 154.9 47.432 155.075 47.3814C155.296 47.3147 155.528 47.2955 155.756 47.3249C155.988 47.3473 156.211 47.421 156.41 47.5407C156.609 47.6604 156.779 47.823 156.907 48.0167C157.039 48.2077 157.13 48.424 157.175 48.652C157.436 51.5708 159.999 53.0496 161.139 55.3931C161.707 56.5367 162.963 56.7978 164.058 57.3555C162.79 58.1602 161.142 58.1037 160.228 59.7449C161.454 59.6401 162.688 59.7847 163.856 60.1699C165.025 60.5551 166.103 61.1729 167.026 61.9861L167.506 62.5719C167.506 64.019 167.467 65.3849 169.165 66.1543C169.962 66.5002 169.856 66.7508 169.405 68.3919C169.186 69.2567 170.559 69.1437 170.365 69.9802C169.539 69.9802 168.752 69.2284 167.718 69.7967C169.712 70.8131 171.469 72.2672 172.842 74.0319C173.495 74.8861 173.407 75.4825 172.556 76.0508" fill="#ADB0AD"/>
<path d="M60.3881 41.2998C60.1023 41.4448 59.8608 41.6643 59.6893 41.9351C59.5134 42.2045 59.4145 42.517 59.4034 42.8386C59.2269 45.0762 59.2763 45.1045 56.9928 45.3727C56.7457 46.1245 57.8645 46.5656 57.4445 47.3703C55.6093 46.1809 53.8234 45.5068 52.4046 47.928C52.2785 48.2202 52.0684 48.4683 51.801 48.6409C51.5343 48.8135 51.2256 48.9099 50.9081 48.9198C49.0057 48.9939 48.3246 50.0245 48.9387 51.8103C49.2069 52.5586 48.9387 53.3492 48.2857 53.1939C46.5881 52.7809 46.041 55.1139 44.1775 54.6162C43.0057 54.2986 43.8987 55.6045 44.0434 56.1445C44.2163 56.8151 44.7916 57.468 44.1387 58.1421C43.4857 58.8127 43.0551 57.8421 42.4975 57.7962C41.9399 57.7468 41.2269 57.708 40.5951 57.6798C40.1388 57.6067 39.671 57.6801 39.2588 57.8893C38.8467 58.0986 38.5114 58.4329 38.301 58.8445C37.814 59.9386 38.8763 60.408 39.4728 61.0045C39.801 61.3009 40.1434 61.5692 40.4999 61.8198C38.8869 63.3092 37.0163 63.5421 35.1246 63.7433C35.3257 64.6256 36.5469 64.6645 36.554 65.7021L32.3999 66.8174C33.8963 67.7103 35.4493 67.3256 36.6987 68.7939C31.881 67.9503 27.9069 68.6139 25.7752 73.368C26.4281 73.608 27.734 73.4068 28.6552 74.2433C28.5493 74.328 28.454 74.5009 28.3587 74.5009C22.6763 74.5009 23.654 74.0315 21.4058 79.8727C20.8693 81.2562 20.6575 82.7351 19.3728 83.7551C18.854 84.1786 18.074 84.9198 18.921 86.0703C19.641 87.0021 19.3516 88.308 18.4199 89.2009C16.1187 87.0798 17.174 84.5139 17.8269 82.2374C18.3634 80.3739 19.6199 78.708 20.6293 77.0103C21.6387 75.3092 23.3187 74.0209 22.2705 71.7868C22.2335 71.5658 22.2559 71.3389 22.3353 71.1293C22.4146 70.9198 22.5482 70.735 22.7222 70.5939C25.9093 69.2668 26.0046 65.9633 27.254 63.4539C28.4046 61.1598 30.4799 59.9492 32.4281 58.6045C33.321 57.9798 34.3693 57.5351 34.8352 56.5362C35.7669 54.5598 38.8304 55.3856 39.3669 52.9715L40.6057 53.8539C40.1257 50.1692 43.401 48.1115 44.0151 44.9033C44.1951 43.8939 45.5116 43.5974 46.694 43.4986C49.0234 43.3186 51.3951 43.0503 53.901 41.3103H50.4846C52.3198 39.7715 54.4763 39.888 56.7034 39.7821C58.3163 39.7045 59.5975 39.5598 60.3528 41.2715" fill="#AEB0AE"/>
<path d="M70.7013 27.3516C71.9719 28.2445 73.2566 27.5704 74.6366 27.4857C73.3907 28.3574 73.0131 30.3374 70.846 30.041C70.0978 29.9457 69.1448 30.8563 69.3495 31.2904C70.2107 33.528 68.1107 33.4786 67.2566 33.7786C65.2801 34.4774 64.1366 35.688 63.8754 37.661C63.6284 39.6269 62.4742 40.1774 60.8154 40.301C59.3154 39.2422 57.9566 38.0139 55.5813 37.1386L58.1648 36.9374H59.2095C58.4613 35.861 59.6437 35.5539 59.9013 34.9222C61.8989 29.9245 66.9284 29.5504 70.7401 27.3798L70.7048 27.3516H70.7013ZM119.584 160.439V167.155C117.512 165.348 115.101 166.636 113.065 165.906C112.601 165.711 112.089 165.664 111.598 165.77C111.106 165.877 110.66 166.133 110.319 166.502C109.694 167.067 109.225 167.155 108.822 166.396C108.427 165.648 108.074 165.906 107.612 166.273C106.706 167.108 105.587 167.676 104.379 167.914C103.166 168.147 101.912 168.037 100.758 167.596C100.588 167.531 100.4 167.529 100.228 167.589C100.058 167.648 99.9143 167.767 99.826 167.925C97.6942 170.48 95.6119 168.309 93.5683 167.769C93.2507 167.692 93.166 166.686 92.8201 165.694C91.2848 167.452 89.6789 167.776 88.0378 166.28C87.5507 165.828 87.1766 165.733 86.8095 166.456C86.5131 167.039 85.9448 167.205 85.4966 166.675C85.1351 166.203 84.6295 165.863 84.0566 165.705C83.4844 165.546 82.8758 165.583 82.3272 165.81C80.3507 166.686 77.9966 165.023 76.0484 167.434C75.9637 165.196 75.3001 163.428 76.9413 162.016C79.2178 163.167 79.3801 163.005 80.0048 158.593C80.6966 159.687 80.5978 161.536 82.0766 161.286C82.6471 161.226 83.1993 161.05 83.6994 160.769C84.1995 160.488 84.6369 160.108 84.9848 159.652C85.6095 158.776 87.2225 158.737 87.3778 157.22C87.5295 156.108 87.2789 154.866 88.4013 153.62C88.6519 155.97 88.5566 158.095 89.5272 160.036C90.9001 159.585 90.4978 158.183 91.246 157.259C93.2225 159.362 94.126 162.8 97.6695 162.486C98.7425 162.39 100.345 161.872 100.281 159.997C100.451 160.774 100.67 161.554 100.931 162.313C100.97 162.464 101.043 162.605 101.142 162.726C101.245 162.846 101.374 162.942 101.519 163.007C101.663 163.072 101.82 163.103 101.979 163.1C102.131 163.1 102.297 163.054 102.427 162.987C104.425 162.105 108.208 162.352 110.1 163.245C111.815 164.053 113.517 164.081 114.699 162.196C116.944 163.562 118.059 162.122 119.026 160.382C119.058 160.35 119.098 160.325 119.142 160.312C119.188 160.305 119.227 160.294 119.277 160.305C119.32 160.315 119.361 160.332 119.4 160.354C119.439 160.382 119.471 160.41 119.488 160.46" fill="#ADAFAD"/>
<path d="M119.065 107.148C118.913 109.167 121.235 111.348 118.684 113.385L120.325 112.577C118.98 114.271 118.652 115.633 120.409 116.727C119.757 117.38 120.025 118.351 119.757 118.965C118.931 120.906 119.142 122.127 121.098 123.26C121.994 123.779 122.167 125.699 121.772 126.797C121.697 127.447 121.828 128.105 122.146 128.678C124.557 131.561 126.169 135.172 129.769 136.979C130.585 137.332 131.449 137.565 132.342 137.649C134.012 137.932 135.78 138.2 135.021 140.706C134.686 141.811 136.126 141.694 136.412 142.425C136.009 143.646 134.993 143.964 133.871 144.08C132.304 144.292 130.712 144.705 129.328 143.48C129.547 140.727 126.611 140.822 125.421 139.277C124.378 137.92 122.933 136.928 121.292 136.442C118.998 135.874 119.315 133.012 117.155 132.5C116.802 132.426 118.144 132.394 118.002 131.117C117.664 128.064 116.319 126.362 112.684 125.699C114.378 125.028 115.627 126.352 116.224 125.028C116.658 124.058 115.666 123.662 115.08 123.133C114.699 122.78 114.868 122.328 114.928 121.866C115.302 118.608 114.554 115.315 116.185 112.019C116.675 111.02 116.982 109.185 117.455 107.745C117.752 106.774 118.317 106.725 119.093 107.092" fill="#AEB0AE"/>
<path d="M85.9553 137.141C85.9861 136.894 86.0743 136.657 86.213 136.449C86.3579 136.244 86.5489 136.076 86.7706 135.959C88.3236 134.653 90.8401 135.719 92.1459 133.799C92.7812 135.645 94.9589 134.25 95.8059 135.941L96.1977 133.252C97.0906 133.403 97.3518 132.609 97.8318 132.147C98.4071 133.291 99.4624 133.749 100.595 134.162C101.725 134.575 101.22 133.04 102.092 133.139C102.275 134.289 102.092 135.211 103.973 135.825C105.858 136.442 107.142 139.054 107.432 141.571C106.278 141.648 105.713 139.333 104.291 140.822C102.349 138.659 99.4906 140.6 97.2671 139.333C96.5154 138.899 95.5165 140.187 94.673 140.42C93.4024 140.766 93.173 143.762 91.013 141.86C90.7165 141.592 90.3248 142.329 90.2648 142.753C90.1306 143.607 90.0918 144.472 90.0177 145.336C88.4789 145.04 88.8177 143.618 88.0412 142.541C87.3459 145.252 85.1895 145.905 82.8071 146.903C83.1248 145.559 84.4483 145.058 84.2259 143.791C83.3153 143.042 82.6236 144.588 81.4624 144.214C83.5553 142.156 86.0612 140.438 85.8883 137.141" fill="#ADB0AD"/>
<path d="M119.026 104.399C119.958 103.566 121.129 103.047 122.368 102.913C122.944 103.46 123.299 104.198 123.367 104.988C122.619 105.871 121.832 106.658 121.744 107.918C121.744 108.437 121.369 109.128 120.879 109.107C120.131 109.107 120.131 108.292 120.046 107.688C119.958 107.088 120.364 106.128 119.132 106.199C118.786 105.613 119.728 104.95 119.026 104.399Z" fill="#B8ABB2"/>
<path d="M76.8246 171.267C80.8834 174.994 84.8999 178.809 89.8728 181.315C90.0246 181.393 90.2575 181.481 90.3246 181.615C91.1187 183.669 92.5975 183.853 94.5175 183.373C94.7368 183.305 94.9678 183.284 95.1957 183.311C95.4236 183.338 95.6434 183.412 95.8411 183.528C96.0396 183.649 96.2084 183.813 96.3349 184.008C96.4614 184.203 96.5423 184.424 96.5716 184.654C96.8893 186.186 97.2246 188.078 95.6328 188.812C93.2611 189.895 91.0728 192.133 88.0093 190.788C87.1164 190.396 86.8093 191.579 86.0893 191.759C84.8222 192.059 83.2481 192.952 83.6222 190.336C82.3058 190.224 80.5305 193.372 79.7046 189.818C79.673 189.79 79.6373 189.767 79.5987 189.751C79.5634 189.744 79.5246 189.733 79.4752 189.744C76.2987 191.367 74.1846 188.438 71.5093 187.915C71.2693 187.88 70.9905 188.049 70.7575 188.12C69.5893 187.368 69.2117 185.131 66.9458 186.119C66.7658 186.196 64.9128 184.852 65.1528 183.324C66.6493 180.874 63.5399 180.154 63.1658 178.012C65.3364 179.547 66.794 181.739 69.4446 181.873C70.8458 181.951 72.6211 183.362 73.0552 180.489C73.1681 179.741 74.5516 178.848 75.4446 179.406C76.4893 180.105 77.5375 179.787 78.5646 179.999C79.3128 180.154 80.8658 180.5 80.5764 179.836C79.9446 178.414 82.1258 177.08 80.3399 175.813C79.133 174.894 78.0087 173.871 76.9799 172.757C76.6058 172.382 75.8858 171.842 76.8564 171.267" fill="#B0AFAE"/>
<path d="M112.02 177.387C112.49 178.81 111.166 180.751 114.138 181.365C116.139 181.789 113.093 182.604 113.467 183.603C113.545 183.698 113.718 183.949 113.757 183.942C116.121 182.625 118.931 183.892 121.302 182.625C121.494 182.496 121.724 182.436 121.954 182.453C122.185 182.47 122.403 182.564 122.573 182.72C124.338 184.602 124.881 183.306 125.333 181.376C125.785 182.717 125.238 184.21 126.678 184.824C125.457 188.293 121.878 188.502 119.315 190.097C118.813 190.272 118.276 190.329 117.748 190.263C117 190.263 116.252 188.84 115.56 190.887C115.112 192.229 113.315 190.887 112.105 189.963C112.161 191.089 112.422 192.691 110.764 191.953C107.912 190.693 104.714 191.078 101.919 189.751C99.9636 188.819 100.518 187.051 100.422 185.487C100.327 183.92 101.305 183.719 102.526 183.719C105.244 183.719 106.154 180.885 108.349 179.886C109.581 179.339 110.742 178.185 111.988 177.349" fill="#AEB0AE"/>
<path d="M77.6825 105.387C77.0966 107.812 79.3978 109.665 79.006 112.058C79.0189 112.141 79.0557 112.218 79.1119 112.28C79.1604 112.345 79.2266 112.394 79.3025 112.421C82.479 112.739 81.8084 115.132 81.7131 117.225C82.846 116.66 82.779 115.478 83.6049 114.472C83.806 116.046 83.6896 117.641 83.2872 119.166C82.7684 120.917 81.7907 122.53 82.3166 124.637C82.4682 125.138 82.4464 125.675 82.255 126.163C82.0635 126.65 81.7135 127.059 81.2613 127.323C80.9598 127.498 80.6214 127.601 80.2731 127.623C79.9424 127.68 79.6268 127.804 79.3456 127.987C79.0644 128.17 78.8235 128.409 78.6375 128.688C78.4516 128.968 78.3245 129.282 78.2641 129.612C78.2037 129.942 78.2111 130.281 78.286 130.609C78.3256 130.997 78.2158 131.385 77.979 131.696C77.7445 132.005 77.4061 132.219 77.026 132.299C76.1825 132.416 74.859 132.924 76.3378 134.261C76.7613 134.636 76.5955 134.96 75.5013 135.154C71.9296 135.751 69.9531 138.207 68.1002 141.024C67.006 142.669 65.1143 142.139 63.3955 141.889C63.579 143.378 64.7613 142.771 65.3366 143.205C65.2586 143.629 65.0808 144.028 64.8178 144.37C64.5495 144.709 64.2032 144.979 63.8084 145.157C63.4131 145.33 62.9817 145.406 62.551 145.377C62.1203 145.348 61.7029 145.216 61.3343 144.991C60.933 144.318 60.3409 143.78 59.6331 143.445C58.5778 141.024 60.3355 137.325 62.8872 137.007C66.946 136.527 69.2155 133.817 71.2025 130.743C72.4696 128.784 73.3519 126.536 75.7343 125.614C76.4049 125.353 76.2213 125.029 76.126 124.566C75.9637 123.719 75.6178 124.566 75.3778 124.481C74.859 124.383 74.1778 124.443 73.9837 123.881C73.7931 123.327 74.3613 122.943 74.7919 122.636C75.2225 122.318 75.5896 122.184 75.9566 121.954C77.9684 120.61 78.0284 120.204 76.2037 118.707C75.2049 117.889 74.5307 117.112 75.406 115.718C76.1543 114.529 75.5225 113.106 75.406 111.941C75.3196 110.63 75.5776 109.318 76.1543 108.137C76.2107 108.063 75.5896 107.918 75.886 108.137C75.8607 108.161 75.8413 108.192 75.8296 108.225C75.5013 109.358 74.5131 109.983 74.0331 108.8C72.9566 106.206 70.8919 104.699 68.9543 102.977C68.8694 102.874 68.8083 102.753 68.7754 102.624C68.7425 102.495 68.7385 102.36 68.7637 102.229C72.0014 102.24 75.1403 103.344 77.6719 105.363" fill="#B0B0AF"/>
<path d="M123.374 104.949C122.971 104.8 122.642 104.5 122.456 104.113C122.27 103.726 122.241 103.282 122.375 102.874C123.981 102.355 125.516 101.229 127.309 102.228L123.374 104.949Z" fill="#AEB0AE"/>
<path d="M194.644 34.3259C196.14 39.1012 195.614 43.9718 194.644 48.6906C194.192 50.9248 192.06 53.0212 192.657 55.4036C193.405 58.393 191.372 59.0636 189.967 60.7753C188.086 63.013 186.311 64.933 183.438 65.6742C183.438 65.7589 183.48 65.8471 183.519 65.9212C183.593 66.1753 183.777 66.4224 183.364 66.673C181.221 64.3401 178.324 63.6836 175.317 63.1965C177.727 64.1848 177.374 67.2412 179.351 68.4695C179.428 68.4695 179.439 68.6318 179.428 68.7165C179.273 71.9777 179.601 73.1989 181.394 76.3859C181.426 76.4565 181.433 76.5271 181.433 76.6083C180.879 77.0953 179.869 76.0612 179.58 77.0883C179.389 77.8365 180.18 78.0589 180.646 78.4612C181.895 79.5483 182.068 80.9389 182.386 82.5624C183.039 85.9648 184.659 89.1624 185.704 92.5083C186.494 95.0424 188.019 97.1953 187.892 100.269C187.821 102.055 188.767 105.084 191.167 106.446C191.407 106.573 191.661 106.679 191.915 106.746C189.748 110.886 192.021 113.798 194.799 117.189L191.813 115.7C191.658 117.677 192.657 119.332 192.907 121.089C191.764 121.386 191.485 120.101 190.514 120.271C190.084 121.894 191.679 122.882 192.014 124.287C190.888 124.862 190.249 123.779 189.226 123.807C189.074 126.585 190.122 129.031 191.054 131.6C191.647 133.291 193.655 135.221 190.899 136.894C190.853 136.894 190.899 137.057 190.899 137.141C190.602 140.678 189.141 144.154 190.228 147.758C190.546 148.806 189.9 148.824 189.364 149.018C187.394 149.72 186.321 150.842 186.148 153.147C185.954 155.759 183.9 157.721 182.682 159.959C182.527 160.259 181.518 159.161 180.985 160.354C180.148 162.218 179.813 163.774 182.241 164.784C181.041 165.867 179.64 165.062 178.267 165.828C180.501 166.887 176.644 169.901 180.321 170.413C179.121 171.528 177.805 171.267 176.22 171.458C178.161 173.025 176.22 175.562 178.419 177.158C178.014 177.326 177.587 177.439 177.152 177.493C174.466 177.359 173.975 178.647 174.907 180.881C175.126 181.432 175.126 182.286 174.494 182.074C171.653 181.135 170.905 185.148 168.081 184.668C167.562 184.584 166.401 187.015 165.258 188.081C164.118 189.147 167.545 188.081 165.911 189.387C165.189 189.925 164.414 190.388 163.599 190.771C162.254 191.462 165.717 191.713 163.733 192.338C162.851 192.511 161.958 192.585 161.054 192.556C161.651 194.794 158.135 192.68 158.682 194.822C158.259 193.834 157.08 194.074 156.445 193.555C156.021 193.142 155.929 193.008 155.517 193.46C154.765 194.353 154.496 196.449 152.531 194.815C151.676 197.131 148.853 196.601 147.48 198.274L147.049 196.033C146.241 198.348 145.779 200.473 142.737 200.512C142.624 200.434 143.333 199.665 142.737 199.022C142.362 199.658 141.988 200.215 141.72 200.78C140.693 202.749 139.984 203.018 138.12 201.567C137.651 201.214 137.238 201.08 137.097 201.405C135.942 203.911 132.611 205.065 132.685 208.245C132.762 210.599 129.769 209.628 129.579 211.456C129.395 213.098 129.452 214.855 126.928 214.287C126.427 214.174 125.88 214.414 125.929 214.933C126.282 218.766 122.944 217.951 121.292 217.968C119.88 217.968 118.507 218.448 117.402 219.331C115.571 220.647 113.718 221.858 111.356 221.956C110.732 221.956 110.061 222.592 110.329 221.159C110.446 220.456 109.465 220.965 109.165 221.233C108.304 222.069 107.555 222.994 106.864 223.76C104.76 222.419 102.332 222.465 99.9035 222.715C98.7318 222.828 97.4753 223.118 96.5047 222.447C96.0812 222.147 96.353 221.099 95.2094 221.829C93.9424 222.648 92.58 222.447 91.2459 221.582C89.0083 220.139 86.58 218.911 84.3247 217.478C82.7718 216.489 81.1553 216.881 79.5812 217.026C76.219 217.471 72.8096 216.676 69.9918 214.788C68.1212 213.578 66.5753 213.115 65.3153 210.828C64.5671 209.427 63.5118 207.92 62.5694 206.438C61.4932 204.659 60.2011 203.021 58.7224 201.56C58.3165 201.186 57.8682 200.769 57.5012 201.606C57.1377 202.442 56.5835 202.538 56.3965 201.606C55.8424 198.772 54.4694 200.713 53.5871 201.182C52.8353 201.578 52.3941 202.453 51.4553 203.469C52.253 200.484 50.2447 199.58 48.173 198.581C46.8847 199.456 46.673 201.309 45.9353 202.972C45.8577 199.442 43.6871 197.12 41.7494 194.66C40.8177 195.313 41.7494 196.054 41.2977 196.862C40.1259 195.708 39.8012 193.951 38.1 193.22L37.8318 195.14C37.5635 194.96 37.2071 194.854 37.1612 194.671C36.7271 192.779 34.08 192.652 33.9141 190.435C33.8188 189.052 31.5847 190.541 31.1718 188.589C30.72 186.458 29.3929 188.879 28.4047 188.54C27.9459 187.898 28.3482 187.188 28.2812 186.514C28.2726 185.992 28.2015 185.473 28.0694 184.968C25.5529 184.852 24.2859 182.208 21.9177 181.979C21.2471 181.922 20.3118 182.113 20.6682 181.298C22.2035 177.768 20.2094 177.214 16.7506 177.338C19.7929 175.774 17.0506 172.862 19.7365 171.535C18.0177 171.112 16.7506 171.535 15.5718 170.529C18.4129 169.711 15.7518 167.166 17.2129 165.772C16.4647 165.024 15.4765 165.581 14.6859 165.264C13.6235 164.84 11.6365 164.829 13.5918 162.909C14.1035 162.408 14.3435 161.286 13.1435 161.42C11.9435 161.554 12.2682 160.015 11.3259 160.104C11.8835 157.672 9.92471 157.682 8.48471 157.174C9.73412 155.395 6.0953 155.011 7.34471 153.214C7.36368 153.139 7.36368 153.06 7.34471 152.985C7.32523 152.908 7.28492 152.839 7.22824 152.784C4.99059 151.785 5.73177 149.201 4.46471 147.712C3.51177 146.586 5.31882 146.537 5.21294 145.252C4.91647 141.888 3.45529 138.758 3.57177 135.366C3.57177 134.201 1.33412 134.971 1.52471 133.308C2.19529 132.789 3.06353 134.752 3.6 133.308C3.68724 133.12 3.72374 132.912 3.70588 132.705C3.69163 132.391 3.5669 132.093 3.35376 131.862C3.14061 131.631 2.85278 131.484 2.54118 131.445C2.16 131.36 1.73647 130.898 2.32235 130.474C4.04118 129.285 3.37059 127.986 2.17059 127.132C0.794118 126.278 1.68 124.626 0 123.578C3.92471 123.895 2.68941 121.04 3.36 119.505C3.53294 118.869 3.53294 118.206 3.36 117.581C2.47765 115.093 4.85647 113.057 4.10824 110.646C3.92471 110.049 4.18588 109.781 5.00118 109.407C6.49765 108.754 6.72 106.852 6.63177 105.362C6.44118 101.96 7.75765 98.8365 8.18824 95.5506C8.25105 94.5684 8.51645 93.6098 8.96776 92.7351C9.41906 91.8605 10.0465 91.0887 10.8106 90.4683C11.9118 89.5753 12.2012 86.6848 13.2388 84.8389C13.4576 84.4577 13.5565 83.8859 13.8812 83.6671C16.2706 82.0259 15.2224 79.1918 16.2918 77.0389C16.7435 76.1459 15.9741 75.5495 14.9259 75.7224L11.4035 76.2236C11.9329 75.5883 12.6812 75.1648 13.4965 75.0589C15.5718 74.6777 17.4635 72.073 17.3365 71.5542C16.7118 68.8259 19.9659 67.8271 19.5741 65.3848C19.44 64.4424 18.7094 64.7883 18.5082 64.3259C17.6824 65.3495 15.9671 64.7495 15.6388 65.0777C13.6624 67.1601 12.2506 65.1553 10.8282 64.5589C9.09883 63.7824 7.65177 62.4942 6.68118 60.8706C4.44353 57.4895 3.84 53.4059 1.41177 50.1659C0.769412 49.3118 1.68 48.3801 1.65882 47.3812C1.64118 42.5212 -0.123529 37.7742 0.748235 32.8648C0.882353 32.1165 0.635294 31.2412 0.995294 30.4718C2.56235 30.4718 2.74588 31.7212 2.64 32.713C2.14941 37.4777 3.79059 42.0307 3.79059 46.7107C3.74341 47.1675 3.81819 47.6286 4.00729 48.0471C4.19639 48.4656 4.49306 48.8265 4.86706 49.093C6.76941 50.2224 7.10471 51.9836 7.17882 53.9706C7.17882 55.7989 7.64118 57.3554 9.6 58.093C10.32 58.4883 10.8565 59.1518 11.0965 59.9283C11.3647 60.5989 11.8165 61.1989 12.3918 61.6401C12.8242 61.9722 13.3179 62.2158 13.8447 62.3569C14.3714 62.498 14.9208 62.5339 15.4613 62.4624C16.0019 62.3909 16.5231 62.2136 16.9951 61.9404C17.467 61.6673 17.8805 61.3038 18.2118 60.8706C19.2106 59.6777 20.6188 59.3812 21.6953 58.633C23.7318 57.2001 26.6682 57.3624 28.0482 54.9059C28.5 54.0871 29.3929 54.1542 30.1729 53.8965C32.1318 53.2824 32.6788 51.7789 31.3024 50.2259C30.0459 48.793 30.1729 47.5648 31.4577 46.4989C32.7459 45.4224 32.6859 44.4236 32.3894 43.1071C32.1 41.7801 31.6412 40.4636 31.8988 39.0836C32.1494 37.6965 32.7529 36.8142 34.0977 36.6589C34.6865 36.5801 35.2846 36.7038 35.7938 37.0097C36.303 37.3156 36.6931 37.7856 36.9 38.3424C38.4671 41.5965 38.4882 41.5189 42.1341 40.8201C44.82 40.3012 47.5553 40.6648 50.273 40.573C50.7207 40.544 51.1699 40.544 51.6177 40.573C52.3659 40.6436 53.4706 40.0895 53.76 41.1165C54.0459 42.1471 52.973 42.6659 52.1541 42.973C50.4847 43.6436 48.72 44.0671 46.9235 44.2224C45.6282 44.2965 44.5341 44.7977 44.16 46.0083C43.5141 48.0271 42.1235 49.6859 41.5659 51.6271C41.3783 52.3609 41.0293 53.0435 40.5446 53.6254C40.0598 54.2072 39.4513 54.6736 38.7635 54.9906C35.7777 56.2612 33.6847 58.7177 31.0059 60.3624C29.8363 61.0555 28.8418 62.0084 28.0995 63.1474C27.3571 64.2863 26.8867 65.5808 26.7247 66.9306C26.5341 68.353 25.6024 69.1718 24.6141 69.9201C23.9718 70.4212 22.9553 70.8412 23.1177 71.6848C23.6047 74.6777 21.3988 76.4918 20.2377 78.7577C19.8247 79.5659 19.3835 80.3459 18.9671 81.1506C18.271 82.3298 17.8826 83.6651 17.8376 85.0336C17.7926 86.4021 18.0924 87.76 18.7094 88.9824C18.0847 92.0353 15.7906 94.1318 14.2271 96.62C15.5224 99.2883 14.2271 101.201 12.5365 103.188C9.28236 107.035 8.89059 111.761 9.01412 116.515C9.07059 118.915 8.96471 121.386 10.0976 123.68C10.3424 124.066 10.4465 124.525 10.3925 124.979C10.3385 125.433 10.1297 125.854 9.80118 126.172C8.63647 127.382 9.05294 128.515 10.3588 129.302C11.6647 130.089 11.2906 130.742 10.3588 131.54C7.78235 133.905 8.21647 136.354 11.4529 137.671C12.4694 138.094 12.3847 138.419 11.7988 139.227C9.2153 142.675 9.31059 143.914 12.4518 146.942C12.6988 147.189 12.8929 147.5 12.9882 147.835C13.083 148.178 13.0867 148.539 12.9988 148.884C12.7694 150.277 12.9459 151.708 13.5073 153.004C14.0686 154.3 14.9912 155.407 16.1647 156.193C17.3082 157.012 18.0106 158.346 19.1506 159.221C19.3821 159.383 19.5536 159.617 19.6385 159.886C19.7233 160.155 19.7169 160.445 19.62 160.711C18.4024 163.033 19.8812 165.32 19.62 167.618C19.5459 167.971 19.5847 168.345 19.7365 168.684C22.6271 173.046 23.9224 178.308 27.54 182.191C29.4988 184.273 32.1777 185.247 34.3094 187.044C38.0435 185.889 39.3282 189.119 41.3753 190.982C41.8271 191.692 42.4694 192.26 43.2282 192.624C44.4565 193.269 45.6459 194.007 46.74 192.327C47.2306 191.579 47.7494 192.009 48.24 192.546C49.7365 194.268 51.3 195.892 53.9224 195.535C54.288 195.567 54.6306 195.727 54.8894 195.987C58.2494 198.486 61.9765 200.596 63.7624 204.691C63.8365 204.853 63.9141 205.114 64.0306 205.149C66.3424 205.778 67.7647 207.927 70.0659 208.545C71.2977 208.88 71.9224 207.652 72.6777 206.9C73.1294 206.469 73.5247 205.816 74.2447 206.152C74.5342 206.301 74.763 206.547 74.8923 206.846C75.0216 207.145 75.0435 207.48 74.9541 207.793C74.2518 210.984 76.5177 211.407 78.6883 212.049C79.5635 212.3 80.3577 212.798 81.2294 212.049C82.2777 211.156 83.3471 210.108 84.653 211.753C84.7032 211.807 84.7654 211.849 84.8346 211.876C84.9038 211.902 84.9781 211.912 85.0518 211.905C85.1268 211.897 85.198 211.868 85.2565 211.82C85.3138 211.77 85.3617 211.71 85.3977 211.644C87.1624 209.332 87.7906 210.895 88.7118 212.462C89.3541 213.567 91.2071 214.386 91.9659 213.952C94.8459 212.328 97.5777 213.952 100.366 213.768C100.952 213.717 101.519 213.536 102.027 213.238C102.535 212.941 102.97 212.535 103.302 212.049C104.76 209.695 105.738 210.062 106.892 212.646C107.64 210.581 108.388 209.533 110.079 211.492C111.011 212.579 112.009 209.889 113.305 211.245C114.18 212.138 115.186 213.009 116.647 212.099C117.24 211.725 118.048 211.771 118.624 211.28C119.372 210.627 119.94 211.061 120.476 211.658C120.699 211.04 120.476 210.436 120.476 209.829C120.589 208.594 120.018 206.921 121.147 206.265C122.442 205.516 122.982 207.285 123.798 207.994C124.086 208.242 124.422 208.428 124.785 208.542C125.148 208.656 125.53 208.695 125.908 208.658C126.289 208.618 126.658 208.504 126.995 208.322C127.331 208.141 127.625 207.892 127.86 207.592C129.872 204.902 132.455 202.626 133.945 199.552C134.742 197.9 136.931 197.494 137.382 195.553C139.253 196.552 140.848 194.364 142.701 195.122C143.195 195.324 143.901 195.514 144.159 194.9C145.475 191.847 149.065 192.066 151.069 190.019C151.991 189.087 153.039 189.052 154.285 189.165C156.177 189.348 157.772 188.416 159.318 187.407C159.911 187.033 160.412 186.436 161.217 186.486C161.485 186.486 161.478 187.082 161.757 186.744C163.158 185.074 163.578 182.586 166.239 181.968C167.199 181.749 167.344 180.539 167.044 179.625C166.592 178.202 166.931 177.387 168.466 177.098C170.001 176.812 170.407 175.926 169.807 174.514C169.214 173.102 169.454 172.361 171.145 172.488C171.067 172.082 170.771 172.188 170.587 172.114C169.839 171.758 168.484 172.008 168.572 170.787C168.646 169.711 169.807 169.682 170.711 169.516C171.565 169.375 172.369 169.022 173.065 168.493C173.746 167.964 174.293 167.258 174.646 166.474C175.002 165.676 175.147 164.812 175.091 163.947C175.023 163.083 174.746 162.248 174.282 161.515C173.34 160.075 173.658 159.556 174.505 158.385C175.549 156.962 176.068 155.251 178.239 154.993C179.111 154.887 179.545 154.022 178.945 153.087C178.793 152.886 178.686 152.655 178.631 152.409C178.543 152.039 178.572 151.651 178.713 151.297C178.854 150.944 179.1 150.642 179.418 150.433C180.371 149.681 180.918 149.007 180.332 147.701C179.954 146.854 180.868 146.568 181.532 146.212C182.154 145.942 182.66 145.459 182.958 144.849C183.256 144.24 183.326 143.544 183.155 142.887C182.806 141.292 182.22 139.898 180.233 139.898C179.592 139.918 178.954 139.8 178.362 139.552C177.939 139.351 177.469 138.747 177.949 138.585C179.446 138.027 179.291 135.461 181.461 135.825C181.726 135.898 182.003 135.917 182.275 135.883C182.548 135.848 182.811 135.76 183.049 135.624C183.287 135.49 183.496 135.311 183.664 135.097C183.831 134.882 183.955 134.637 184.027 134.374C184.574 133.058 183.978 132.348 183.145 131.551C181.945 130.418 181.5 129.391 183.498 128.565C184.786 128.025 185.121 126.941 185.333 125.537C185.848 121.982 186.734 118.495 186.399 114.853C186.371 113.493 186.087 112.151 185.562 110.897C184.814 109.329 182.972 108.031 184.292 105.899C184.429 105.659 183.777 105.207 183.441 104.911C182.868 104.468 182.239 104.102 181.571 103.824C179.965 103.132 179.1 102.518 181.359 101.364C182.46 100.799 183.265 96.4365 182.538 95.4342C180.208 92.1871 178.535 88.2977 174.321 86.8295C173.679 86.6071 171.851 86.3106 173.573 84.9095C174.166 84.4153 173.647 83.9565 173.407 83.5048C172.948 82.6506 172.334 81.9518 173.033 80.8048C173.735 79.6542 172.412 79.0471 171.766 78.4895C170.269 77.2683 170.838 76.513 172.094 75.733C172.172 73.4177 170.192 72.6201 168.84 71.3989C167.485 70.1812 167.478 70.2765 168.84 69.2389C169.214 68.9495 168.84 66.7965 168.169 66.2495C166.775 65.1342 166.094 63.9624 167.446 62.3671C171.459 61.993 171.854 61.4742 171.424 57.2177C171.268 55.7318 170.788 53.9354 173.026 53.5471C175.038 53.2048 176.76 54.913 176.76 57.1824C176.74 57.905 176.681 58.6261 176.584 59.3424C176.538 59.9389 176.291 60.6871 177.145 60.9483C177.456 61.0374 177.789 61.0198 178.09 60.8983C178.39 60.7768 178.641 60.5584 178.804 60.2777C180.127 57.9977 182.058 58.2201 184.257 58.6189C188.04 59.3142 189.035 58.3612 188.739 54.5283C188.622 53.8135 188.691 53.0805 188.94 52.4003C189.189 51.7202 189.61 51.1159 190.161 50.6459C192.674 48.5812 193.147 45.8354 192.964 42.8389C192.839 40.7619 192.839 38.6794 192.964 36.6024C193.02 35.5542 193.041 34.3648 194.605 34.3259H194.644ZM50.5024 41.3671C47.04 41.6565 43.5353 40.8307 40.0412 42.2812C38.3506 42.9907 36.9494 41.6354 36.6212 39.7436C36.3353 38.1201 35.5977 36.8318 33.8577 37.3436C32.2341 37.8024 32.3612 39.4259 32.6118 40.8095C32.8024 41.9636 33.0529 43.0965 33.36 44.2224C33.4659 44.4624 33.5224 44.7306 33.5224 44.9989C33.5268 45.3992 33.4125 45.7919 33.1939 46.1274C32.9753 46.4628 32.6622 46.726 32.2941 46.8836C30.9671 47.6318 29.4424 48.9306 32.34 49.8695C32.8977 50.0636 33.5894 50.5401 33.0918 51.3024C32.34 52.4318 33.1659 54.5848 30.8541 54.6906C29.3541 54.7683 28.0306 54.973 27.8682 56.893C27.8682 57.1824 27.36 57.7083 27.2153 57.6412C25.3341 57.1506 24.3635 58.7283 23.0859 59.2083C21.12 59.9565 19.4118 60.1965 18.1059 62.1942C17.1741 63.6271 15.12 62.9459 13.5071 63.1189C11.3365 63.3377 10.5882 62.3671 10.5212 60.3306C10.4932 60.0198 10.3882 59.7209 10.2157 59.4608C10.0431 59.2007 9.80847 58.9878 9.53294 58.8412C5.79882 58.0365 6.49765 55.0189 6.34588 52.5024C6.26824 51.3765 6.02824 50.5612 4.94471 50.1871C3.12 49.5342 2.94706 47.9495 2.89059 46.4601C2.70706 41.6248 1.39059 36.8812 1.92 32.0107C1.92825 31.6909 1.83782 31.3764 1.661 31.1099C1.48418 30.8435 1.22955 30.6379 0.931765 30.5212C2.29412 23.1518 6.16235 16.8483 9.54353 10.3754C9.89647 9.70478 10.6271 9.72242 11.0012 9.48242C13.0377 8.1836 14.1882 6.11889 15.7835 4.12831C16.4329 4.20595 16.0306 5.22242 16.2812 5.91772C18.3177 1.89419 22.1259 2.11301 25.7577 1.66125C32.7338 0.73604 39.8306 1.67367 46.3271 4.3789C46.7612 4.56242 47.0788 5.16595 47.393 4.13889C47.7106 3.12242 48.0847 3.64831 48.2577 4.29419C48.3635 4.92948 48.6812 5.51184 49.14 5.95301C49.6094 6.39189 50.2092 6.66573 50.8482 6.73301C54.0353 7.10713 54.4694 9.78948 55.4082 12.0624C55.7082 14.353 54.8718 16.0824 52.7224 16.9683C52.3336 17.0715 51.9964 17.3142 51.7751 17.6501C51.5538 17.9859 51.4638 18.3915 51.5224 18.7895C51.5682 19.8095 52.1153 20.0389 53.0188 20.2789C55.7824 21.0307 55.8882 21.5848 55.4894 24.5742C55.1718 26.9071 54.9953 29.1871 52.5388 30.7718C54.353 31.5201 56.3506 29.773 57.3388 31.5871C58.2812 33.2107 58.6447 35.1024 58.3871 36.9589C58.2734 37.1156 58.1248 37.2437 57.953 37.333C57.7808 37.4214 57.5887 37.464 57.3953 37.4565C58.9412 37.8977 60.3141 38.833 61.2847 40.1177C61.7647 41.2224 62.3612 42.4048 60.1906 41.7236C58.8071 39.9165 56.7918 40.5695 55.0165 40.513C53.4762 40.4441 51.9412 40.7366 50.5341 41.3671H50.5059H50.5024ZM194.644 34.3259C193.415 34.9612 193.701 36.1118 193.617 37.1777C193.32 40.5236 194.068 43.8554 193.444 47.2577C193.232 48.3518 192.618 49.333 191.725 49.993C189.988 51.4824 189.046 53.0283 189.487 55.5483C190.027 58.5342 188.421 59.9177 185.379 59.5436C184.57 59.4935 183.771 59.3417 183 59.0918C181.447 58.4777 180.349 58.7459 179.725 60.3624C179.6 60.6713 179.418 60.9539 179.188 61.1954C178.959 61.4363 178.681 61.6263 178.373 61.753C178.065 61.8792 177.735 61.9451 177.402 61.9471C177.068 61.9483 176.738 61.8798 176.432 61.7459C175.271 61.3401 175.945 59.9777 176.079 58.9965C176.337 56.9318 176.905 54.8177 173.841 54.2036C172.172 53.8648 171.9 54.5777 171.971 55.873C172.017 56.6636 172.105 57.4401 172.228 58.2201C172.853 62.0248 171.268 63.4824 167.495 62.5718C167.005 62.6177 166.747 62.3106 166.631 61.9189C166.631 59.1801 166.112 56.7377 163.465 55.2024C162.293 54.5106 162.064 53.1554 161.898 51.8671C161.619 49.7848 161.312 47.773 159.106 46.6436C158.04 46.093 157.878 44.8824 158.358 43.7495C159.364 41.5118 158.068 41.2895 156.339 41.3777C155.796 41.392 155.258 41.475 154.736 41.6248C151.041 42.7401 151.041 42.7401 149.132 39.4154C149.008 39.122 148.825 38.8573 148.594 38.6381C148.364 38.4188 148.09 38.2496 147.791 38.1412C145.264 37.5412 145.024 35.7165 144.995 33.5671C144.995 31.6754 144.477 29.8401 144.438 27.8989C144.438 27.2459 144.191 26.4765 143.439 26.4554C142.528 26.4201 142.691 27.313 142.613 27.8777C142.557 28.513 142.557 29.1483 142.613 29.7836C142.613 31.4248 142.324 32.953 140.319 33.2107C138.561 33.433 136.754 33.5459 136.133 31.2907C135.836 30.2142 134.876 29.8012 134.192 29.0989C132.762 27.6095 132.956 26.5048 134.887 25.6401C136.631 24.8918 137.711 23.2189 139.444 22.3577C140.492 21.8354 140.195 20.3954 140.195 19.3295C140.195 17.0883 140.414 14.9389 142.959 13.9965C143.291 13.8463 143.557 13.5803 143.707 13.2483C144.378 11.8648 144.889 10.2589 146.771 10.1354C149.824 9.91301 152.884 9.3836 155.947 10.1354C156.889 10.3365 157.069 11.0001 156.695 11.7765C155.735 13.8412 156.872 13.9083 158.414 13.6612C159.223 13.5473 160.047 13.6496 160.804 13.9577C161.379 14.1801 162.064 14.6389 162.427 13.746C162.572 13.4071 162.583 13.026 162.459 12.6791C162.334 12.3322 162.084 12.0451 161.757 11.8754C161.525 11.727 161.271 11.6162 161.005 11.5471C157.885 10.4989 157.437 9.90242 157.617 7.14595C157.811 4.16007 159.117 2.5436 161.862 2.05301C162.752 1.90125 163.627 1.6789 164.531 1.57301C167.707 1.17066 168.12 1.42125 168.265 4.56242C168.321 5.79066 168.752 6.21419 169.945 5.87889C170.287 5.77301 169.846 5.87889 170.202 5.80125C176.019 4.92595 178.006 6.54948 178.179 12.373C179.072 12.5565 179.072 11.6918 179.474 11.2789C181.461 9.21066 184.161 9.48948 185.457 12.0836C186.042 13.3154 187.031 14.3142 188.248 14.9177C188.954 15.2354 189.537 15.7648 189.921 16.4354C190.306 17.106 190.458 17.886 190.362 18.6448C190.246 20.5507 188.961 20.713 187.599 20.9918C186.233 21.2707 185.993 22.2095 186.032 23.4483C186.109 25.6895 186.667 27.9271 186.328 30.1648C186.328 30.5177 186.886 30.2142 186.522 30.2601C186.445 30.2601 186.445 30.1859 186.445 30.0412C186.35 29.3597 186.505 28.6668 186.881 28.0907C187.257 27.5145 187.83 27.0941 188.492 26.9071C189.893 26.4554 191.121 26.9848 192.226 27.9165C193.722 29.1659 193.768 31.1459 194.711 32.653C194.711 33.2001 194.633 33.7401 194.615 34.2765L194.644 34.3259ZM194.728 32.6812C193.433 32.6354 193.482 31.4636 193.232 30.7048C192.92 29.7622 192.372 28.9153 191.64 28.2448C191.227 27.7666 190.665 27.4427 190.044 27.326C189.424 27.2093 188.782 27.3067 188.224 27.6024C187.08 28.2165 186.349 29.3495 187.214 30.7895C187.567 31.4036 187.705 32.1059 186.861 32.2789C186.724 32.2914 186.586 32.2746 186.455 32.2295C186.326 32.1913 186.207 32.1222 186.109 32.0283C186.008 31.9405 185.926 31.8323 185.869 31.7107C185.814 31.5869 185.782 31.4542 185.774 31.3189C185.908 28.2624 185.315 25.2765 185.139 22.2695C185.061 20.8259 186.434 20.2507 187.828 20.1448C188.577 20.0883 189.826 20.4412 189.632 19.1918C189.469 18.0695 190.458 16.5342 188.739 15.8318C186.724 15.0236 184.959 14.0812 184.553 11.5754C184.501 11.3508 184.4 11.1408 184.255 10.9611C184.111 10.7814 183.928 10.6367 183.72 10.5377C183.51 10.4412 183.28 10.3953 183.049 10.4036C182.818 10.4119 182.592 10.4709 182.386 10.5765C181.521 11.0954 179.781 10.2483 179.802 12.2177C179.802 13.7071 178.68 13.7848 177.692 13.4283C176.704 13.0754 176.693 12.2495 177.173 11.1907C177.96 9.46125 176.241 6.56007 174.36 6.41536C172.86 6.30242 171.374 5.7236 169.878 6.5036C167.908 7.54831 167.301 6.67654 167.428 4.71419C167.591 1.98595 166.998 1.50595 164.213 1.96125C159.526 2.70948 157.86 4.43889 158.231 8.32831C158.347 9.67301 158.358 11.1624 160.585 10.566C161.714 10.2695 162.819 11.2365 163.214 12.0554C163.606 12.8707 163.214 14.1589 162.925 15.1507C162.685 15.8989 162.053 15.3977 161.619 15.0907C160.767 14.4094 159.694 14.0641 158.605 14.1201C157.539 14.2189 156.438 15.3412 155.418 13.9012C154.401 12.4507 156.332 11.9601 156.388 10.8836C153.529 9.72948 150.611 10.806 147.741 10.5871C145.973 10.453 144.755 11.1448 144.6 13.1036C144.551 13.6683 144.353 14.3142 143.802 14.3989C140.291 14.9565 140.816 17.6848 140.816 20.0001C140.866 21.9412 140.598 23.413 138.332 23.7271C136.507 23.9883 136.161 26.533 133.962 26.533C133.465 26.533 133.744 28.1495 134.665 28.6754C135.219 28.9483 135.702 29.3465 136.076 29.8384C136.449 30.3303 136.703 30.9024 136.818 31.5095C137.248 33.3342 139.052 32.5577 140.312 32.5754C141.568 32.5965 141.808 31.6048 141.921 30.5107C142.076 29.2718 141.173 27.8883 142.048 26.8789C142.507 26.3707 141.402 24.8248 143.072 25.3259C144.004 25.5907 145.214 25.7742 145.108 27.1012C144.889 29.5612 145.8 31.933 145.684 34.3648C145.609 35.8542 145.761 36.9271 147.625 37.2236C148.272 37.2735 148.878 37.5629 149.324 38.0354C149.77 38.5079 150.023 39.1295 150.035 39.7789C150.109 42.5777 152.453 42.1365 153.395 41.3495C154.892 40.0789 156.477 40.8307 157.934 40.5412C159.402 40.2624 160.412 41.5895 159.374 43.0012C157.878 45.0765 158.704 45.9871 160.624 46.8836C162.953 47.9389 162.053 50.3424 162.477 52.1071C162.628 53.2612 163.232 54.3165 164.157 55.0365C166.726 56.8542 167.64 59.0848 166.92 61.9365C164.682 61.8201 162.822 60.2953 160.535 60.1506C159.512 60.1012 159.702 59.1518 160.317 58.5553C160.917 57.9024 161.746 57.4965 162.628 57.4118C160.4 55.6792 158.576 53.4825 157.281 50.9742C157.069 50.5824 157.091 49.9295 156.762 49.7459C153.949 48.1789 152.838 44.7201 149.774 43.4424C148.2 42.8203 146.884 41.6831 146.04 40.2165C144.618 37.9189 141.614 37.3507 139.32 35.9883C136.009 34.0259 132.589 32.2612 129.607 29.7342C129.367 28.4636 129.095 27.253 127.436 28.5236C123.575 27.8777 120.007 26.3354 116.358 25.0154C115.811 24.8318 115.062 23.7095 114.66 25.333C114.466 26.0812 113.534 25.8907 113.036 25.4954C110.234 23.2577 106.864 23.8824 103.684 23.5754C101.785 23.5754 99.893 23.4977 97.9659 23.6212C97.5071 24.373 99.1165 25.0542 98.04 25.6683C97.2177 26.1271 96.4765 25.6118 95.8059 25.1212C95.2659 24.7295 95.0577 23.3354 93.9918 24.6236C93.8365 24.8142 93.2435 24.7083 92.9435 24.5459C88.6165 22.3083 84.3318 24.0518 80.1177 24.9377C77.0577 25.5907 74.2059 27.1789 71.1035 27.8671C67.8812 28.8201 65.1741 30.7895 62.2906 32.4201C60.8718 33.2212 60.42 34.7777 59.9012 36.1507C59.5094 37.2448 59.153 37.7389 58.0659 36.8989C58.2882 35.353 56.9082 34.1989 57.2224 32.4695C57.4165 31.4142 56.0824 30.9836 54.7553 31.4248C53.7882 31.7777 52.4435 32.8154 51.7341 31.1424C51.1765 29.8189 52.4824 29.6565 53.3259 29.1307C54.173 28.6083 55.5035 22.6895 55.0906 21.913C54.6424 20.9918 52.98 20.6248 50.9082 20.9812C50.3612 20.166 51.1941 19.3365 50.8588 18.426C50.4353 17.2718 50.5412 16.3507 52.3553 16.1883C54.7482 16.0224 54.3741 13.3895 55.3412 11.9318C58.4047 12.6801 56.4953 15.1401 56.8412 16.7318C57.7906 20.7518 58.853 24.7789 59.0859 28.6754C62.82 30.0024 64.4435 26.6283 66.8718 24.7189C68.1212 23.7483 70.6059 24.1401 70.3094 21.5071C72.9106 23.4307 74.8377 20.4907 77.2024 20.5577C80.993 20.6742 84.4977 19.1283 88.1718 18.5212C89.1424 18.3589 90.7165 19.4036 91.4541 18.6448C94.1047 16.1495 97.3871 20.0954 99.48 17.2612C99.7762 17.0442 100.118 16.897 100.479 16.8307C101.979 16.3789 102.035 18.2707 103.129 18.2636C103.165 18.2636 103.264 18.9342 103.878 19.0118C107.88 19.3365 111.914 19.6365 115.895 20.1836C118.489 20.5365 121.26 20.7201 123.328 22.6224C124.825 23.9671 126.487 22.8448 128.079 23.4412C130.255 24.1543 132.513 24.5896 134.799 24.7365C135.385 24.8142 136.719 24.9201 136.412 23.0954C136.133 21.4224 137.555 19.8095 138.035 18.0695C139.041 14.3424 142.518 11.593 142.422 7.30125C142.422 6.54948 148.846 3.76478 149.824 3.57419C152.665 3.0236 155.467 2.42007 158.291 1.83419C160.871 1.31537 163.666 1.70007 166.055 0.133014C166.804 -0.32581 167.679 0.545955 168.618 0.591837C171.833 0.729484 174.9 1.3436 176.912 4.36125C178.602 6.87772 182.065 7.05066 184.038 9.26007C185.661 11.0954 188.386 11.9495 188.912 14.7377C194.248 17.2718 192.371 22.6436 193.472 26.7659C193.991 28.6577 195.593 30.4542 194.721 32.6601L194.728 32.6812ZM38.7529 45.1612C40.5882 45.2389 41.1177 46.4883 41.1741 47.9001C41.2306 49.3118 39.9353 49.9824 38.8024 49.9189C37.2353 49.8589 36.5647 48.4295 36.4377 47.0565C36.2471 45.4118 37.6694 45.3448 38.7529 45.1612ZM41.1918 191.473C42.24 191.039 42.833 192.066 43.6871 192.267C43.8424 192.267 44.4388 192.655 43.8424 192.962C43.5113 193.058 43.1663 193.096 42.8224 193.075C42.1165 192.701 41.2518 192.493 41.1918 191.473ZM191.294 22.3824C191.592 22.4052 191.872 22.5356 192.081 22.7495C192.293 22.9612 192.406 23.2471 192.417 23.5471C192.466 24.2459 191.982 24.4401 191.389 24.4401C190.602 24.4401 189.893 24.1224 190.027 23.2189C190.084 22.6718 190.62 22.3824 191.294 22.3824ZM129.942 29.4342C129.125 29.2437 128.375 28.8351 127.772 28.2518C128.262 27.6589 128.336 26.2754 129.201 26.5612C130.496 26.9848 129.766 28.4248 129.949 29.4165L129.942 29.4342ZM76.8247 171.267C76.0796 170.37 75.5299 169.327 75.2108 168.205C74.8918 167.083 74.8104 165.907 74.9718 164.752C75.3022 160.758 76.3595 156.859 78.0918 153.246C78.0459 156.232 76.7012 159.027 76.9694 162.034C77.1035 163.188 76.4612 164.328 76.8953 165.648C78.1588 165.348 79.5071 165.744 80.6294 165.32C83.3471 164.304 85.8035 165.779 88.3835 165.895C89.5059 165.945 90.6318 166.446 91.7718 165.895C92.6647 165.493 93.2718 165.973 93.9141 166.58C95.5377 168.133 97.3024 169.04 99.4624 167.501C100.025 167.204 100.67 167.1 101.298 167.205C103.255 167.145 105.188 166.755 107.015 166.051C109.129 165.359 111.498 164.427 113.919 165.08C114.438 165.235 114.978 165.341 115.521 165.398C118.68 165.676 118.698 165.694 118.931 162.542C118.931 161.727 119.171 160.919 119.622 160.227C119.756 160.201 119.894 160.208 120.025 160.248C120.159 160.284 120.272 160.354 120.371 160.449C122.435 164.868 121.712 169.287 118.355 172.651C116.541 174.415 114.611 176.074 112.574 177.578C110.107 179.519 107.344 181.107 105.106 183.366C104.4 183.938 103.553 184.315 102.66 184.449C102.218 184.558 101.83 184.826 101.572 185.201C101.314 185.577 101.202 186.034 101.259 186.486C101.2 186.977 101.285 187.475 101.504 187.918C101.724 188.361 102.068 188.731 102.494 188.981C104.972 190.471 107.965 189.8 110.502 190.972C111.826 188.918 114.321 190.972 116.012 189.331C116.76 188.625 118.659 189.465 120.081 188.808C122.262 187.802 124.768 187.389 125.718 184.714C125.834 184.418 126.314 184.372 126.688 184.326C131.467 182.96 135.529 180.768 136.994 175.495C137.651 173.18 138.6 170.942 138.9 168.288C141.251 170.526 141.078 172.545 138.6 176.099C137.015 177.292 139.751 179.491 137.576 180.539L135.162 183.729C133.225 183.786 132.176 185.219 130.98 186.458C127.744 187.898 124.249 188.953 121.32 190.933C118.009 193.114 114.296 193.594 110.696 194.441C109.108 194.815 107.393 194.575 105.942 195.631C105.869 195.709 105.777 195.766 105.674 195.796C105.572 195.832 105.464 195.844 105.356 195.832C105.25 195.823 105.146 195.794 105.049 195.747C104.955 195.695 104.873 195.623 104.809 195.535C102.342 193.008 99.3283 194.046 96.4094 194.402C93.4906 194.755 90.8612 194.191 88.08 193.732C85.7259 193.354 83.2977 192.758 80.8694 192.864C76.3871 193.058 73.2247 190.464 69.8682 188.187C69.9816 187.949 70.1526 187.743 70.3659 187.587C72.4765 186.436 73.8247 188.685 75.6565 188.808C78.0459 188.985 80.3012 190.375 82.8177 189.761C82.9977 189.712 83.1918 189.638 83.3365 189.712C87.0106 191.798 90.3918 190.04 93.7977 188.896C94.4143 188.733 94.9585 188.368 95.3435 187.859C95.729 187.348 95.9282 186.72 95.9083 186.08C95.9083 184.951 95.3153 183.842 94.2141 184.121C91.8035 184.718 90.72 182.932 89.0965 181.884C85.2094 179.426 81.6114 176.538 78.3706 173.275C77.7494 172.661 76.8741 172.227 76.7788 171.179L76.8247 171.267ZM39.5894 132.694C40.26 131.706 40.7118 130.675 39.2718 130.044C38.6859 129.782 37.6588 130.089 37.7753 129.073C37.8529 128.265 38.8694 128.286 39.4941 127.968C39.734 127.832 39.965 127.681 40.1859 127.517C39.2929 126.652 37.8318 127.037 37.1224 125.872C37.7753 125.219 38.7247 125.988 39.533 125.575C38.7353 124.682 37.3518 124.365 37.4965 122.914C39.5894 122.568 40.4824 124.135 41.4812 125.452C42.9777 127.555 43.9165 130.005 44.993 132.338C46.4976 136.145 49.0564 139.445 52.3694 141.849C53.1141 142.414 54.2188 142.732 54.2682 143.953C52.733 144.539 51.1765 145.28 50.2659 143.011C50.1882 142.809 49.3024 142.675 49.0165 142.859C47.3365 143.907 46.7012 142.464 45.953 141.588C44.9541 140.399 43.0553 138.652 42.0671 138.324L41.5482 138.172C42.7553 135.68 38.3329 135.182 39.6071 132.677H39.5894V132.694ZM157.175 125.766C157.422 125.904 158.224 125.307 157.924 126.112C157.571 127.037 156.388 126.864 155.555 127.322C155.852 128.18 156.685 128.007 157.225 128.342C158.118 128.889 158.386 129.638 157.098 129.878C155.209 130.224 155.411 131.166 155.869 132.606C156.244 133.76 155.234 134.875 154.977 135.818C153.971 139.245 149.428 139.344 148.998 142.954C148.842 144.126 148.285 142.954 147.921 143.004C146.905 143.138 145.581 141.782 144.935 144.02C144.755 144.691 142.5 144.62 141.201 143.925C141.163 143.662 141.226 143.394 141.378 143.177C144.544 140.812 147.759 138.518 149.672 134.847C150.494 133.252 151.214 131.607 151.818 129.917C152.029 129.207 152.569 128.688 152.788 127.975C153.424 125.66 154.959 125.085 157.137 125.738L157.175 125.766ZM158.622 121.933C160.122 120.292 162.187 119.918 164.259 119.657C165.229 119.533 166.352 119.762 166.412 118.273C167.58 119.706 167.64 120.666 165.392 120.627C163.38 120.627 161.658 121.52 159.893 122.385C159.441 122.307 158.637 123.232 158.622 121.933ZM135.071 147.105L137.633 145.778C138.304 146.999 136.588 148.22 137.633 149.448C137.905 150.101 137.559 150.2 137.04 150.094C137.125 149.074 136.5 148.651 135.657 148.506C134.658 148.326 134.908 147.719 135.099 147.115H135.071V147.105ZM58.1294 145.834C59.2624 145.598 59.6647 146.808 60.54 147.059C60.6247 148.382 59.1741 149.057 58.7753 148.778C58.3281 148.438 58.0175 147.95 57.9 147.401C57.784 146.854 57.8614 146.284 58.1188 145.788V145.838L58.1294 145.834ZM56.5835 154.301C57.053 152.734 58.3024 152.064 57.4765 150.878C57.1977 150.468 57.4765 149.727 57.773 149.688C58.3828 149.651 58.9858 149.833 59.4741 150.2C59.993 150.631 59.0894 150.853 59.0718 151.171C59.0224 152.618 57.8118 153.006 56.5835 154.301ZM137.019 150.094L137.615 149.448C139.2 150.119 137.262 151.439 138.134 152.244L139.027 153.733C137.192 153.387 136.712 151.774 136.002 150.602C135.544 149.854 136.599 150.179 137.012 150.122V150.094H137.019ZM57.4165 101.222C55.5812 102.92 53.2694 103.672 50.9577 104.392C51.5224 100.347 53.1247 99.5671 57.4165 101.222ZM51.0141 104.342C50.2059 106.425 48.5647 107.706 46.6941 108.744C45.9424 107.473 45.3282 106.555 47.2694 105.362C48.3958 104.678 49.6925 104.324 51.0106 104.342H51.0141ZM149.979 112.086L147.988 108.804C149.707 108.804 151.309 108.804 151.165 111.355C151.091 112.654 151.917 113.597 153.529 112.269L152.259 114.352L149.979 112.086ZM119.584 160.439C119.426 160.46 119.266 160.433 119.125 160.361C118.902 158.709 118.931 156.867 117.519 155.734C116.771 155.117 117 154.513 116.933 153.878C116.933 153.726 117.251 153.359 117.392 153.369C118.327 153.447 118.288 154.312 118.592 154.905C118.729 155.127 118.874 155.339 119.047 155.529L120.053 160.439H119.834L119.594 160.393L119.584 160.439ZM147.882 108.698C146.569 108.264 146.001 107.092 145.281 106.061C147.402 105.687 148.345 106.517 147.882 108.698ZM45.6 109.192C46.7294 110.279 46.5882 110.685 44.5341 111.952C45.36 111.204 43.5459 109.464 45.5788 109.195H45.6V109.192ZM65.1353 183.324C66.2188 184.238 66.8718 186.084 68.8694 184.947C69.293 184.707 69.8188 184.813 69.9141 185.632C70.0977 186.486 70.3659 187.312 70.7118 188.109L69.8753 188.233C67.2847 187.591 64.3094 187.647 63.1553 184.506C60.66 185.198 60.1694 182.173 58.193 181.749C57.7932 181.402 57.4928 180.954 57.3223 180.453C57.1518 179.951 57.1173 179.413 57.2224 178.894C57.4097 178.238 57.4543 177.55 57.3532 176.875C57.2522 176.201 57.0078 175.556 56.6365 174.984C56.1268 174.102 55.8126 173.121 55.7152 172.107C55.6178 171.093 55.7394 170.07 56.0718 169.107C57.713 173.237 57.0247 178.704 62.273 181.241C62.7318 182.582 64.1824 182.632 65.1141 183.384L65.1353 183.324ZM55.3906 142.485C57.1553 141.733 58.5494 143.568 60.2577 143.233C60.7377 143.752 62.4953 143.551 61.3235 145.04C59.0753 144.857 57.2435 143.618 55.3906 142.502" fill="#020203"/>
<path d="M125.393 117.38C125.488 113.519 129.519 111.902 137.467 112.481C133.359 114.92 127.984 112.633 125.393 117.38ZM133.168 120.761C131.389 122.607 127.821 122.949 126.12 121.308C125.875 121.366 125.624 121.396 125.372 121.397C124.775 121.347 124.076 121.337 124.038 120.482C124.047 120.359 124.087 120.24 124.154 120.137C124.22 120.033 124.308 119.945 124.412 119.879C125.008 119.561 125.372 120.126 125.753 120.387C125.996 120.542 126.042 120.973 126.176 121.28L126.141 121.308L126.187 121.273C127.458 121.273 128.732 121.379 129.971 121.273C132.208 121.051 133.8 119.784 133.973 117.542C134.128 115.757 134.972 115.584 136.422 115.527C135.335 117.391 134.587 119.254 133.168 120.761ZM151.196 119.561C151.196 118.668 149.792 118.552 150.071 117.504C150 117.15 149.849 116.817 149.629 116.531C149.409 116.244 149.127 116.012 148.804 115.852C148.055 115.333 149.322 115.555 149.026 115.181C148.998 114.701 148.948 114.211 148.909 113.692C146.202 106.792 140.968 103.008 133.867 101.508C133.196 101.568 132.533 101.702 131.891 101.897C130.355 100.721 128.799 101.297 127.232 101.674C125.488 102.122 124.338 103.432 123.049 104.544C122.172 105.257 121.494 106.184 121.08 107.237C120.332 107.042 120.526 105.112 119.114 106.178L119.036 107.131C118.622 109.844 118.471 112.591 118.585 115.333C118.585 116.198 119.333 117.052 118.881 118.093C117.971 120.062 118.539 121.82 120.007 123.242C120.727 123.924 121.175 124.845 121.292 125.826C121.583 128.408 122.558 130.865 124.115 132.945C125.678 135.019 127.765 136.639 130.161 137.639C132.448 138.662 134.704 138.959 135.039 141.955C135.088 142.407 135.787 142.704 136.239 143.004C138.226 143.462 139.751 142.149 141.469 141.62C144.399 138.429 148.345 136.058 149.573 131.522C149.537 130.305 149.847 129.102 150.466 128.053C150.946 125.625 149.975 123.059 151.062 120.666H151.147C151.288 120.511 151.369 120.313 151.369 120.101C151.371 119.89 151.291 119.687 151.147 119.533L151.196 119.561ZM71.6435 120.744C71.153 121.626 70.373 121.492 69.5894 121.262V121.291H69.4906C67.8988 122.932 64.4612 122.579 62.58 120.715C61.0836 119.226 60.3812 117.391 59.2765 115.4C60.2083 115.852 61.1965 115.326 61.6306 116.544C63.2718 121.202 63.8188 121.541 68.7812 121.262C69.0176 121.253 69.2542 121.253 69.4906 121.262L69.54 121.213H69.5894C69.6459 120.119 70.3377 119.724 71.3047 119.829C71.6435 119.9 71.8235 120.394 71.6435 120.744ZM58.8459 112.46C60.8612 112.806 62.8412 112.382 64.8283 112.46C67.8106 112.566 70.4824 114.977 70.3341 117.931C67.7259 112.587 62.3965 114.874 58.8459 112.46ZM74.3118 123.825C75.3898 123.143 76.4247 122.396 77.4106 121.587C79.1753 119.964 78.9106 119.349 76.6624 118.34C76.4435 118.245 74.9259 117.281 75.3388 116.851C76.6518 115.499 76.98 114.274 75.1765 112.453L77.0471 113.441C74.1777 111.415 77.6047 108.429 76.0024 106.149C75.2894 107.215 76.1753 108.609 74.5024 109.308C74.0224 105.804 71.3612 104.085 68.7918 102.278C68.7659 102.296 68.7351 102.306 68.7035 102.306C68.6753 102.306 68.6471 102.306 68.6188 102.295C68.59 102.286 68.5635 102.27 68.5412 102.249L68.4847 102.172H65.7671C62.8839 102.222 60.0404 102.852 57.4059 104.025C53.4418 105.788 50.1018 108.707 47.8224 112.398C45.543 116.09 44.4302 120.384 44.6294 124.718C44.82 126.698 45.12 128.671 45.5224 130.619L45.6741 131.501C48.2577 135.758 50.4741 140.332 55.3906 142.531C56.4565 143.148 57.8188 142.926 58.8459 143.801C58.9586 143.914 59.1024 143.99 59.2588 144.02C59.4156 144.053 59.5787 144.041 59.7288 143.985C59.8789 143.929 60.0097 143.831 60.1059 143.702C60.2029 143.575 60.2595 143.421 60.2683 143.261C59.9224 142.937 58.6059 142.944 59.6718 142.118C60.2965 141.648 61.013 141.369 60.6035 140.522C59.5553 138.285 62.1 137.861 62.6506 137.833C67.2071 137.565 69.7977 134.445 71.7388 131.12C72.3247 130.149 74.58 129.398 73.553 127.506C76.2424 127.248 76.7224 124.767 78.1306 123.031C76.74 123.031 75.7024 124.337 74.3188 123.846L74.3118 123.825Z" fill="#020203"/>
<path d="M152.291 130.15C152.049 129.912 151.905 129.592 151.888 129.253C151.878 128.917 151.994 128.59 152.213 128.335C152.665 125.794 155.898 122.406 158.354 121.912C156.36 122.491 153.537 128.254 152.291 130.121V130.15ZM93.4907 121.75C92.9154 120.426 91.6695 118.859 94.1436 118.919C96.1801 118.965 98.3295 117.571 100.126 119.667C98.9622 119.178 97.6632 119.116 96.4581 119.492C95.2531 119.868 94.2196 120.657 93.5401 121.721L93.4907 121.753V121.75ZM152.128 114.362C152.799 116.085 154.814 116.505 155.651 118.167C156.042 118.958 156.918 118.121 157.55 117.85C158.922 117.179 160.442 116.867 161.968 116.943C163.493 117.019 164.975 117.48 166.274 118.284C166.747 119.378 166.362 120.137 165.191 120.13C162.784 120.137 160.431 120.841 158.414 122.155C158.414 122.155 154.278 126.218 152.273 128.593C151.733 128.518 151.239 128.249 150.882 127.837C150.525 127.425 150.329 126.897 150.332 126.352C150.254 124.827 149.88 123.271 150.042 121.742C150.072 121.448 150.147 121.16 150.265 120.888C149.975 117.832 150.84 120.645 150.226 119.544C149.979 118.591 148.73 116.064 148.49 115.142C148.301 114.598 148.216 114.024 148.239 113.448C148.334 112.538 148.592 111.751 149.735 111.634C151.235 111.917 151.426 113.374 152.174 114.324L152.128 114.362ZM85.9554 137.141C83.4514 140.64 80.0732 143.419 76.1583 145.203C72.2434 146.987 67.9289 147.712 63.646 147.306C63.5801 147.161 63.5071 147.02 63.4272 146.882C64.7225 145.453 66.7872 146.664 68.1672 145.52C68.9366 145.213 69.7201 144.962 70.5213 144.772C78.4378 142.859 83.6719 137.995 86.4389 130.397C86.8483 128.688 87.0989 126.938 87.1836 125.173C88.7789 123.048 90.4307 122.29 93.0319 120.917C94.3166 121.079 92.9825 122.837 92.6789 123.493C90.7095 127.651 86.446 136.845 85.9554 137.187V137.141ZM141.261 143.618C141.261 143.773 136.652 146.307 134.908 146.512C130.299 146.847 125.94 147.535 121.458 145.827C119.546 144.964 117.698 143.966 115.927 142.841C114.957 142.291 113.28 140.124 113.728 139.16C115.821 140.766 119.795 143.311 122.27 144.154C126.009 145.269 129.993 145.269 133.733 144.154C135.498 143.635 137.322 142.714 139.32 142.87C140.068 142.915 141.24 142.63 141.24 143.618H141.261ZM69.8189 144.962C68.4777 147.01 65.2872 146.681 63.646 147.306C62.6754 147.25 58.8672 146.353 58.1154 145.817L54.2577 143.935C49.9589 141.101 46.2601 137.738 44.5448 132.694C44.9189 132.225 45.5119 128.113 46.2319 128.699C46.673 130.813 47.4248 132.85 48.4801 134.741C50.1418 137.849 52.6781 140.401 55.7754 142.082C57.6566 143.222 59.6824 144.13 61.793 144.772C64.2213 145.69 68.0824 145.146 69.8189 144.952V144.962ZM92.4848 121.633C90.7095 123.73 90.0142 126.497 88.1154 128.505C86.5519 126.518 87.4448 124.164 87.2225 121.975C87.1389 120.979 87.1709 119.975 87.3178 118.986C88.2883 116.794 88.2883 116.794 90.2366 118.598C91.2848 119.293 91.486 118.351 92.0507 117.804C93.3566 116.565 94.5213 116.247 96.8331 115.968C96.9389 116.046 100.892 115.315 103.564 117.521C105.187 118.841 105.364 118.813 106.239 117.475C107.192 117.888 107.104 118.697 107.093 119.512C107.019 123.133 106.846 126.782 108.035 130.294C108.035 130.965 108.035 131.635 107.114 131.635C106.239 129.504 105.339 127.382 104.502 125.24C103.678 122.966 102.131 121.024 100.098 119.713C96.6601 118.294 94.5213 118.965 92.8483 121.28C92.7356 121.408 92.6103 121.524 92.4742 121.626L92.4848 121.633ZM45.6707 131.459C45.5577 132.13 45.3354 132.715 44.5095 132.73C43.4436 130.672 42.4166 128.597 41.3224 126.56C40.5141 124.925 39.145 123.635 37.4648 122.925C35.8801 121.238 33.0177 121.937 31.6377 119.833C31.5694 119.793 31.4939 119.766 31.4154 119.755C31.3377 119.746 31.259 119.756 31.186 119.784C30.1871 121.428 29.2448 120.535 28.9977 119.487C28.7013 118.248 29.8518 117.567 30.9671 117.366C33.4335 116.798 36.0107 116.945 38.3966 117.79C38.9154 118.001 39.4624 118.834 40.0554 118.16C40.6519 117.49 42.0424 115.058 43.1366 114.193C44.146 113.512 44.6366 114.087 44.9013 114.945C45.2577 115.884 45.2895 116.921 44.9824 117.874C43.2813 122.102 44.146 126.126 45.7307 130.132C45.8246 130.336 45.8667 130.561 45.8531 130.786C45.8396 131.01 45.7709 131.228 45.653 131.42L45.6707 131.455V131.459ZM45.5366 130.594C43.8389 129.422 43.7154 127.337 43.5777 125.759C43.3589 123.207 41.2095 117.405 42.6601 114.79C43.1083 113.974 43.9448 113.773 44.5413 111.977C45.3636 111.225 46.306 108.881 46.6801 108.765C47.8024 106.979 49.4824 105.779 51.0001 104.346L50.9507 104.395C52.7472 102.638 55.186 102.158 57.4095 101.233C59.2556 100.475 61.2473 100.137 63.2401 100.245C65.7072 100.234 68.1742 100.397 70.6201 100.735C70.4189 102.137 69.7977 102.002 69.0848 102.722C64.4683 102.945 59.1495 103.647 55.0236 106.153C48.3989 110.177 43.6166 120.871 46.0095 128.106C46.3448 129.105 46.5177 129.691 45.5366 130.594ZM68.4601 102.165L70.6307 100.742C78.0989 101.992 83.446 106.164 87.0672 112.637C88.1719 114.599 89.1601 116.614 90.1872 118.601C89.4389 119.219 87.7378 117.853 87.1448 120.352C87.0881 119.015 86.7891 117.7 86.2625 116.47C84.4919 112.104 81.3942 108.405 77.4072 105.895C74.8607 104.257 71.995 103.179 69.0001 102.733C68.7546 102.618 68.5502 102.431 68.4142 102.197L68.4601 102.165ZM148.553 114.98C148.13 112.446 145.846 109.217 143.82 107.314C140.93 104.607 139.634 102.465 134.951 102.02C134.728 101.801 132.702 102.02 131.792 101.84C130.871 101.657 131.044 100.697 131.157 100.195C132.982 99.9935 134.823 99.9935 136.648 100.195C138.095 100.57 139.518 101.032 140.912 101.572C142.737 102.761 144.462 104.088 146.086 105.539C147.141 106.238 147.967 107.23 148.475 108.391C148.475 108.391 149.675 110.332 150.713 112.118C149.587 112.167 148.638 114.359 148.475 115.012L148.553 114.98ZM107.686 130.527C105.755 126.327 107.072 121.774 106.267 117.468C107.763 113.994 109.751 110.753 112.168 107.844C112.486 107.47 115.115 104.992 115.79 105.528C116.46 106.065 113.802 108.317 113.262 108.892C111.167 111.081 109.58 113.706 108.616 116.579C107.652 119.452 107.335 122.502 107.686 125.512C107.841 127.202 108.3 128.875 108.618 130.538C108.568 130.614 108.498 130.676 108.417 130.718C108.335 130.766 108.243 130.79 108.148 130.788C108.054 130.789 107.962 130.765 107.88 130.718C107.804 130.667 107.738 130.602 107.686 130.527ZM134.375 100.598C133.5 100.764 135.17 101.868 133.902 101.925C132.406 102.002 128.75 102.08 127.479 102.521C125.982 102.599 124.207 103.164 122.605 103.337C121.449 103.799 120.253 104.157 119.033 104.406C117.815 105.154 116.347 106.365 115.126 107.064C114.568 106.171 113.63 106.471 114.378 105.98C118.313 103.185 124.274 100.531 129.064 100.234C130.292 100.157 134.421 99.8107 134.404 100.608L134.375 100.598ZM107.686 130.527H108.618C109.55 134.59 114.462 139.104 115.694 142.69C112.218 140.23 108.522 135.542 107.139 131.611L107.686 130.527ZM150.05 128.307C150.099 126.521 150.127 124.725 150.212 122.935C150.251 122.102 149.838 121.054 151.105 120.698C151.105 122.561 151.105 124.425 151.182 126.299C151.182 127.114 150.808 128.212 152.21 128.357L152.287 130.16C151.556 133.058 150.207 135.763 148.333 138.091C146.46 140.42 144.105 142.316 141.431 143.65L139.193 143.572C138.897 141.874 140.862 142.255 141.332 141.257C142.002 139.855 143.351 139.068 144.395 138.031C146.366 136.254 147.938 134.079 149.005 131.65C149.445 130.569 149.811 129.459 150.099 128.328L150.05 128.307ZM151.204 120.719V119.565C152.037 119.681 152.806 120.19 153.745 119.939C153.505 120.371 153.105 120.692 152.631 120.831C152.157 120.971 151.647 120.92 151.211 120.687L151.204 120.719ZM141.755 140.491C141.632 141.804 139.518 142.432 139.165 143.544C137.252 143.219 135.833 145.284 133.857 144.631C134.019 144.285 134.344 144.207 134.506 143.882C135.177 143.505 136.006 143.381 136.677 143.007C138.413 143.007 140.164 141.641 141.759 140.519L141.755 140.491ZM150.05 128.307C150.155 129.578 150.099 130.767 148.966 131.632C149.301 130.517 150.021 129.846 150.05 128.307ZM117.12 257.773C118.927 257.851 120.713 257.431 122.471 258.669C124.034 259.774 128.873 257.918 130.468 254.54C130.292 254.174 130.256 253.755 130.37 253.365C130.475 252.97 130.722 252.634 131.061 252.412C133.585 249.79 134.344 246.447 134.795 243.01C135.353 238.531 134.421 234.151 133.772 229.76C136.631 235.407 136.514 241.365 135.265 247.322C134.532 250.42 133.22 253.35 131.397 255.959C128.411 260.438 126.35 260.918 121.204 258.948C119.933 258.465 118.264 258.948 117.113 257.755L117.124 257.773H117.12ZM98.9225 247.986C100.218 247.937 99.7695 246.525 100.419 246.073C100.91 245.727 101.09 244.527 102.014 245.18C102.713 245.671 102.166 246.197 101.831 246.747C101.601 247.285 101.456 247.855 101.4 248.438C100.775 248.59 99.9778 248.685 99.7942 249.302C98.7883 252.461 96.6283 251.462 94.8883 250.453C93.1519 249.444 92.0789 249.888 90.706 251.106C87.847 253.729 84.4291 255.667 80.7107 256.774C80.1919 256.93 79.666 257.064 79.2142 256.601C81.113 254.66 83.7813 254.046 86.0472 252.719C87.3072 251.971 88.6307 251.378 89.4848 250.241C91.1154 248.081 93.0072 247.63 95.1107 249.271C97.2142 250.905 98.1072 249.638 98.9225 247.986ZM79.2142 256.594L80.7107 256.757C77.7742 258.575 74.2796 259.27 70.8707 258.715C69.4801 258.532 67.9413 258.37 67.3589 256.679C67.6272 256.679 67.9519 256.622 68.146 256.735C70.073 257.911 69.9989 255.68 72.6283 255.948C73.4754 255.977 74.3083 256.114 75.1236 256.361C75.5472 256.439 75.9601 256.566 76.3519 256.735L79.2142 256.594Z" fill="#219A46"/>
<path d="M128.922 241.573C128.672 241.571 128.424 241.514 128.198 241.406C127.972 241.297 127.773 241.14 127.615 240.945C127.457 240.751 127.344 240.524 127.284 240.28C127.225 240.037 127.219 239.783 127.269 239.537C127.319 239.291 127.423 239.06 127.573 238.859C127.723 238.658 127.916 238.493 128.137 238.376C128.359 238.258 128.604 238.191 128.854 238.18C129.105 238.168 129.354 238.212 129.586 238.308C129.897 238.437 130.165 238.655 130.355 238.933C130.526 239.19 130.624 239.489 130.638 239.798C130.653 240.106 130.582 240.413 130.435 240.684C130.288 240.956 130.07 241.183 129.804 241.34C129.538 241.497 129.235 241.579 128.926 241.576L128.922 241.573ZM124.913 227.604C124.913 227.266 125.013 226.937 125.202 226.658C125.391 226.378 125.659 226.162 125.972 226.036C126.283 225.911 126.625 225.878 126.955 225.944C127.284 226.009 127.588 226.169 127.828 226.403C127.993 226.56 128.124 226.747 128.215 226.955C128.306 227.162 128.354 227.386 128.357 227.613C128.36 227.839 128.318 228.064 128.233 228.274C128.147 228.484 128.021 228.675 127.86 228.836C127.7 228.996 127.509 229.122 127.299 229.208C127.089 229.293 126.864 229.336 126.637 229.333C126.411 229.33 126.187 229.281 125.979 229.19C125.772 229.1 125.584 228.968 125.428 228.803C125.265 228.649 125.135 228.463 125.046 228.257C124.958 228.05 124.912 227.828 124.913 227.604ZM123.625 256.485C123.288 256.487 122.959 256.386 122.682 256.195C122.338 255.958 122.093 255.602 121.993 255.196C121.893 254.79 121.946 254.361 122.142 253.991C122.337 253.621 122.661 253.336 123.053 253.189C123.445 253.043 123.877 253.045 124.267 253.195C124.578 253.325 124.844 253.543 125.034 253.822C125.223 254.101 125.327 254.429 125.333 254.766C125.335 254.99 125.293 255.212 125.209 255.419C125.125 255.626 125 255.814 124.842 255.973C124.687 256.137 124.498 256.266 124.288 256.351C124.077 256.437 123.852 256.482 123.625 256.485ZM120.215 244.619C119.876 244.623 119.543 244.526 119.26 244.339C118.977 244.152 118.756 243.884 118.627 243.57C118.497 243.257 118.465 242.911 118.535 242.579C118.604 242.247 118.771 241.943 119.015 241.707C119.258 241.474 119.563 241.315 119.893 241.251C120.224 241.186 120.566 241.218 120.879 241.344C121.29 241.527 121.616 241.861 121.787 242.278C121.959 242.695 121.963 243.161 121.8 243.581C121.676 243.897 121.459 244.167 121.178 244.358C120.897 244.548 120.565 244.649 120.226 244.647V244.619H120.215ZM117.625 252.62C117.287 252.62 116.956 252.523 116.672 252.341C116.392 252.154 116.173 251.891 116.04 251.582C115.908 251.274 115.875 250.933 115.945 250.605C115.992 250.356 116.094 250.122 116.243 249.918C116.393 249.714 116.586 249.546 116.808 249.427C117.031 249.307 117.277 249.238 117.53 249.226C117.782 249.214 118.034 249.258 118.267 249.355C118.579 249.484 118.846 249.701 119.036 249.98C119.227 250.257 119.328 250.586 119.326 250.922C119.329 251.147 119.286 251.37 119.201 251.578C119.117 251.786 118.991 251.974 118.832 252.133C118.511 252.455 118.076 252.638 117.621 252.641L117.625 252.62ZM110.824 237.345C110.487 237.344 110.158 237.24 109.881 237.048C109.668 236.909 109.489 236.724 109.357 236.506C109.225 236.289 109.143 236.044 109.117 235.791C109.092 235.538 109.123 235.282 109.209 235.043C109.294 234.803 109.433 234.586 109.613 234.407C109.794 234.227 110.012 234.091 110.253 234.007C110.493 233.923 110.749 233.893 111.002 233.921C111.255 233.948 111.498 234.032 111.715 234.166C111.931 234.3 112.115 234.48 112.253 234.694C112.392 234.905 112.483 235.145 112.519 235.395C112.555 235.646 112.536 235.901 112.463 236.143C112.389 236.385 112.263 236.608 112.094 236.796C111.925 236.985 111.717 237.133 111.484 237.232C111.274 237.316 111.049 237.358 110.824 237.355V237.345ZM110.824 247.799C110.487 247.798 110.158 247.695 109.881 247.502C109.668 247.363 109.489 247.178 109.357 246.96C109.225 246.743 109.143 246.499 109.117 246.245C109.092 245.992 109.123 245.736 109.209 245.497C109.294 245.257 109.433 245.04 109.613 244.861C109.794 244.681 110.012 244.545 110.253 244.461C110.493 244.377 110.749 244.347 111.002 244.375C111.255 244.402 111.498 244.486 111.715 244.62C111.931 244.754 112.115 244.934 112.253 245.148C112.438 245.427 112.539 245.753 112.542 246.087C112.528 246.533 112.34 246.956 112.019 247.266C111.699 247.576 111.27 247.75 110.824 247.749V247.799ZM103.546 238.199C103.295 238.197 103.048 238.14 102.822 238.032C102.596 237.923 102.397 237.766 102.239 237.571C102.081 237.377 101.968 237.149 101.908 236.906C101.848 236.662 101.843 236.409 101.893 236.163C101.943 235.917 102.047 235.686 102.197 235.485C102.347 235.284 102.539 235.119 102.761 235.002C102.982 234.884 103.227 234.817 103.478 234.805C103.728 234.794 103.978 234.838 104.209 234.934C104.52 235.064 104.786 235.281 104.975 235.559C105.199 235.882 105.3 236.274 105.26 236.665C105.219 237.056 105.041 237.42 104.756 237.691C104.599 237.848 104.412 237.973 104.206 238.057C104 238.142 103.779 238.185 103.556 238.185V238.202L103.546 238.199ZM103.546 247.28C103.118 247.291 102.701 247.139 102.381 246.856C102.06 246.572 101.858 246.177 101.817 245.751C101.775 245.325 101.896 244.899 102.156 244.558C102.416 244.218 102.795 243.989 103.218 243.916C103.549 243.853 103.892 243.887 104.204 244.015C104.516 244.143 104.784 244.359 104.975 244.636C105.199 244.96 105.3 245.353 105.26 245.744C105.22 246.136 105.041 246.5 104.756 246.772C104.599 246.928 104.411 247.052 104.205 247.137C103.999 247.221 103.779 247.264 103.556 247.262V247.28H103.546ZM118.493 232.255C118.746 232.254 118.995 232.31 119.224 232.417C119.453 232.525 119.655 232.682 119.815 232.877C119.975 233.073 120.09 233.301 120.151 233.547C120.212 233.792 120.217 234.048 120.167 234.295C120.116 234.543 120.012 234.776 119.86 234.978C119.708 235.18 119.513 235.346 119.289 235.463C119.065 235.581 118.818 235.647 118.566 235.656C118.313 235.666 118.062 235.62 117.829 235.52C117.519 235.39 117.253 235.173 117.064 234.895C116.908 234.661 116.813 234.392 116.784 234.112C116.756 233.833 116.796 233.55 116.901 233.289C116.984 233.081 117.11 232.892 117.272 232.735C117.431 232.573 117.621 232.445 117.831 232.359C118.041 232.273 118.266 232.23 118.493 232.234V232.255ZM94.5776 238.22C94.1499 238.23 93.7343 238.077 93.4142 237.794C93.0942 237.51 92.8934 237.115 92.8523 236.689C92.8112 236.263 92.9328 235.838 93.1926 235.498C93.4524 235.158 93.8312 234.929 94.2529 234.856C94.5842 234.793 94.9268 234.827 95.2389 234.955C95.5511 235.083 95.8192 235.299 96.0106 235.576C96.1995 235.854 96.2992 236.183 96.2965 236.519C96.2818 236.964 96.0948 237.386 95.7748 237.697C95.4548 238.007 95.0268 238.18 94.5812 238.181L94.5776 238.22ZM94.5776 247.308C94.3269 247.307 94.0797 247.25 93.8537 247.141C93.6276 247.033 93.4284 246.875 93.2704 246.681C93.1124 246.486 92.9994 246.259 92.9396 246.015C92.8799 245.772 92.8747 245.518 92.9247 245.272C92.9746 245.027 93.0783 244.795 93.2284 244.594C93.3785 244.394 93.5712 244.228 93.7927 244.111C94.0142 243.993 94.2589 243.926 94.5094 243.915C94.7598 243.903 95.0097 243.947 95.2412 244.044C95.5529 244.173 95.8202 244.39 96.0106 244.668C96.2296 244.992 96.3264 245.383 96.2837 245.772C96.2411 246.16 96.0617 246.521 95.7776 246.789C95.4541 247.098 95.0244 247.269 94.5776 247.269V247.308ZM86.4212 247.827C86.0849 247.829 85.756 247.728 85.4788 247.538C85.1344 247.3 84.8892 246.945 84.7895 246.538C84.6899 246.132 84.7427 245.703 84.9381 245.333C85.1335 244.964 85.4578 244.678 85.8496 244.532C86.2413 244.385 86.6733 244.387 87.0635 244.538C87.3742 244.668 87.6403 244.886 87.8295 245.165C88.0187 245.444 88.1229 245.771 88.1294 246.108C88.112 246.551 87.9229 246.97 87.6022 247.277C87.2814 247.583 86.8541 247.753 86.4106 247.749L86.4212 247.827ZM83.7035 235.714C83.7033 235.377 83.804 235.048 83.9927 234.768C84.1814 234.489 84.4495 234.273 84.7624 234.147C85.0741 234.02 85.4162 233.987 85.7466 234.051C86.077 234.116 86.3813 234.276 86.6223 234.511C86.8626 234.747 87.0267 235.05 87.0939 235.38C87.161 235.711 87.128 236.054 86.9992 236.365C86.8703 236.677 86.6514 236.943 86.3705 237.129C86.0896 237.316 85.7595 237.414 85.4223 237.412C85.0791 237.413 84.7431 237.313 84.4572 237.123C84.1712 236.933 83.9482 236.663 83.8165 236.346C83.7314 236.133 83.6929 235.904 83.7035 235.675V235.714ZM78.4729 252.68C78.0448 252.691 77.6284 252.539 77.3076 252.256C76.9867 251.972 76.7853 251.577 76.7437 251.151C76.7021 250.725 76.8235 250.299 77.0834 249.958C77.3433 249.618 77.7225 249.389 78.1447 249.316C78.4759 249.253 78.8184 249.288 79.1304 249.415C79.4425 249.543 79.7107 249.759 79.9024 250.036C80.0915 250.314 80.1912 250.643 80.1882 250.979C80.1727 251.424 79.9853 251.845 79.6653 252.154C79.3454 252.464 78.918 252.637 78.4729 252.638V252.68ZM75.0741 242.974C75.0739 242.637 75.1746 242.308 75.3633 242.028C75.552 241.749 75.8201 241.533 76.1329 241.407C76.4446 241.281 76.7861 241.249 77.1158 241.314C77.4455 241.379 77.7491 241.539 77.9894 241.774C78.2768 242.051 78.4577 242.419 78.5004 242.816C78.5431 243.212 78.445 243.611 78.2231 243.942C78.0013 244.273 77.6699 244.516 77.2871 244.628C76.9043 244.739 76.4944 244.712 76.1294 244.552C75.8113 244.422 75.5396 244.199 75.3496 243.913C75.1595 243.626 75.0599 243.29 75.0635 242.946L75.0741 242.974ZM71.6753 229.351C71.3379 229.361 71.005 229.271 70.7189 229.092C70.4327 228.913 70.2061 228.653 70.0678 228.345C69.9295 228.037 69.8858 227.695 69.9421 227.362C69.9984 227.029 70.1523 226.721 70.3842 226.475C70.6161 226.23 70.9156 226.059 71.2447 225.984C71.5739 225.91 71.9178 225.934 72.233 226.055C72.5482 226.176 72.8204 226.387 73.0152 226.663C73.21 226.939 73.3185 227.266 73.3271 227.604C73.3262 228.049 73.1511 228.476 72.8391 228.794C72.5271 229.112 72.103 229.295 71.6576 229.305L71.6753 229.351ZM70.6482 254.381C70.3983 254.378 70.1521 254.32 69.9272 254.211C69.7022 254.102 69.5042 253.945 69.3471 253.75C69.19 253.556 69.0778 253.329 69.0185 253.087C68.9592 252.844 68.9542 252.591 69.0039 252.346C69.0537 252.101 69.1569 251.87 69.3062 251.67C69.4555 251.469 69.6472 251.304 69.8677 251.186C70.0882 251.069 70.3319 251.001 70.5815 250.988C70.8312 250.975 71.0805 251.018 71.3118 251.113C71.6221 251.243 71.8881 251.46 72.0777 251.738C72.2678 252.015 72.3688 252.344 72.3671 252.68C72.3515 253.125 72.1636 253.547 71.8429 253.857C71.5222 254.166 71.0939 254.339 70.6482 254.339V254.381ZM67.7788 241.622C67.3507 241.633 66.9343 241.482 66.6135 241.198C66.2926 240.914 66.0911 240.52 66.0495 240.093C66.008 239.667 66.1293 239.241 66.3893 238.901C66.6492 238.56 67.0284 238.331 67.4506 238.259C67.7818 238.195 68.1245 238.229 68.4366 238.357C68.7487 238.485 69.0169 238.701 69.2082 238.979C69.3971 239.257 69.4969 239.585 69.4941 239.921C69.4786 240.366 69.2911 240.787 68.9712 241.097C68.6513 241.406 68.2239 241.579 67.7788 241.58V241.622ZM77.5306 232.273C77.9583 232.263 78.374 232.415 78.694 232.699C79.0141 232.983 79.2148 233.378 79.2559 233.804C79.297 234.23 79.1755 234.655 78.9157 234.995C78.6559 235.335 78.277 235.564 77.8553 235.636C77.5241 235.7 77.1816 235.665 76.8696 235.537C76.5575 235.41 76.2893 235.194 76.0977 234.916C75.9098 234.638 75.8113 234.31 75.8153 233.974C75.8042 233.633 75.8963 233.297 76.0795 233.009C76.2628 232.721 76.5286 232.495 76.8424 232.361C77.0489 232.276 77.2686 232.227 77.4918 232.216L77.5306 232.273ZM133.793 229.795C133.458 228.306 132.392 227.335 131.481 226.209C130.924 225.528 128.495 223.375 127.793 222.761C127.377 222.475 126.878 222.337 126.374 222.369C125.47 222.562 124.589 222.849 123.745 223.223C117.946 225.461 112.348 228.045 107.509 232.033V232.128C105.956 233.081 104.668 233.723 103.451 232.629C102.265 231.964 100.945 231.572 99.5881 231.483C98.2313 231.393 96.8715 231.607 95.6082 232.111C94.0624 232.859 91.7365 231.987 90.5012 231.631C89.6753 231.179 80.3541 225.761 79.9129 225.211C79.4364 224.779 78.9018 224.417 78.3247 224.134C76.1859 223.446 74.0541 222.715 71.9047 222.069C71.1565 221.829 70.2353 221.522 69.5929 222.186C67.8741 223.926 65.9929 225.913 65.8588 228.256C65.7628 229.794 65.1251 231.249 64.0588 232.361C63.8118 233.628 62.7459 240.256 62.6118 241.266C62.2588 243.955 62.2871 246.666 63.5435 249.172C64.1965 250.605 66.72 255.676 67.44 256.636C67.7294 256.876 68.0929 256.954 68.3824 257.155C70.1965 258.387 71.7706 258.744 72.8647 256.234C73.1329 255.62 75.7059 256.753 76.4541 257.049C77.3965 257.318 78.3953 257.272 79.2953 256.898C79.8225 256.569 80.3681 256.271 80.9294 256.005C83.8482 254.639 87.0812 253.668 89.34 251.335C91.3518 249.249 93.0706 248.424 95.7635 250.142C97.5282 251.258 96.6529 250.739 97.6976 251.402C99.8118 251.102 100.684 251.236 103.016 250.086C103.948 249.627 104.467 250.164 105.187 250.555C109.295 252.793 112.751 256.079 117.198 257.72C118.539 258.26 120.085 257.858 121.327 258.348C125.672 260.067 128.852 259.019 130.828 254.918C130.706 254.449 130.727 253.954 130.888 253.497C131.049 253.04 131.343 252.641 131.732 252.352C134.495 250.036 135.148 246.712 135.378 243.475C135.831 238.842 135.308 234.165 133.842 229.746L133.793 229.795Z" fill="#219A46"/>
</svg>
