<svg width="600" height="265" viewBox="0 0 600 265" fill="none" xmlns="http://www.w3.org/2000/svg">
<g clip-path="url(#clip0_472_169)">
<path d="M8.79181 108.508L21.8295 69.5013L34.8671 47.8377L58.7683 34.8389L80.5094 21.833H106.592L130.496 28.3342L145.715 34.8389L163.098 54.3424L178.313 80.3507L189.184 108.515V138.858L178.313 164.866L163.101 190.864L141.364 201.699L123.981 214.698L106.595 219.032H87.0424L69.6565 214.698L58.7859 201.699L43.5742 197.365L26.1777 184.348L13.1436 160.514L6.62476 132.346L8.79181 108.508Z" fill="white" stroke="black" stroke-width="0.696"/>
<path d="M166.458 132.325C167.372 133.419 168.745 133.92 169.818 133.218C171.759 131.922 172.066 132.9 171.777 135.459C172.998 133.218 173.686 131.845 174.466 130.528C175.377 128.982 176.301 127.444 178.352 127.098C178.771 127.067 179.164 126.883 179.454 126.58C179.745 126.277 179.913 125.876 179.926 125.457C179.88 124.564 179.178 124.37 178.362 124.437C176.866 124.564 178.793 122.813 177.286 122.495C176.594 122.344 177.738 121.987 178.034 121.747C179.774 120.508 180.004 119.788 179.139 117.808C178.899 117.251 179.322 116.993 179.598 116.654C181.472 114.494 182.587 112.179 181.539 109.25C181.165 108.201 181.599 107.76 182.499 108C183.844 108.318 183.815 107.541 183.805 106.655C184.19 106.768 184.546 106.98 184.821 107.27C185.103 107.558 185.303 107.916 185.4 108.307C185.658 109.518 185.245 110.026 183.727 109.528C186.897 112.514 187.461 116.058 187.221 119.933C187.059 122.421 186.964 124.871 185.725 127.108C185.245 127.984 186.83 128.107 186.272 129.268C185.928 129.985 185.403 130.6 184.748 131.05C184.092 131.5 183.33 131.771 182.538 131.834C182.728 133.775 185.418 133.775 185.273 135.907C185.188 137.1 184.133 137.658 183.882 138.667C181.235 138.011 179.887 140.086 178.084 141.47C178.994 141.402 179.919 141.462 180.819 141.653C181.945 142.077 184.497 141.173 183.431 144.113C183.279 144.526 184.324 145.352 184.927 146.15C182.894 146.411 183.621 150.11 180.667 149.139C180.551 150.424 181.924 150.586 181.913 151.56C181.26 152.499 179.802 152.619 179.446 153.893C179.34 154.221 178.775 154.345 179.294 154.941C180.713 156.565 180.466 157.362 178.546 158.1C177.452 158.513 176.806 159.551 176.04 160.895C175.687 161.541 174.54 161.714 173.725 162.117C176.252 163.655 176.195 171.148 173.64 171.907C172.14 172.366 170.499 172.578 168.907 173.097C170.308 173.502 171.844 173.52 172.754 174.886C172.585 175.874 171.787 175.01 171.258 175.299C170.51 175.691 169.761 175.239 170.566 176.64C171.318 177.865 172.285 180.099 169.002 179.63C169.158 180.547 166.765 179.707 167.873 181.599C168.897 183.378 167.651 184.857 165.286 185.164C164.99 185.213 164.75 185.291 164.7 185.464C164.125 187.539 161.651 188.7 161.965 191.428C161.111 190.726 161.679 189.805 161.217 189.191C158.771 190.786 156.512 193.101 153.145 191.831C152.626 191.64 152.502 191.831 152.337 192.131C151.292 193.85 148.797 193.726 147.854 195.858C147.395 196.885 147.106 194.608 145.789 195.427L144.342 199.098C141.932 197.058 140.922 197.135 138.918 199.479C138.417 199.027 138.226 198.244 137.478 198.057L137.217 198.374C138.522 199.507 137.266 200.795 136.719 200.612C134.647 200.026 134.626 201.766 134.329 202.641C133.521 205.08 130.479 206.146 130.518 209.019C128.347 209.019 127.677 211.334 125.919 212.008C125.171 212.305 124.673 211.807 124.249 211.423C123.318 210.586 122.492 209.637 121.454 208.528C121.052 210.71 121.715 212.862 121.129 214.927C119.824 215.178 120.321 213.392 119.294 213.343C118.701 213.883 119.238 216.766 117.184 214.401C115.197 217.387 114.141 214.853 112.779 213.688C111.942 212.979 111.646 213.335 110.894 215.983L108.314 212.622L107.4 216.445C106.193 215.633 105.798 214.313 105.039 212.912C104.241 215.407 102.187 217.387 100.182 216.752C98.3859 216.198 95.5165 219.364 94.9024 215.379C93.5612 215.668 93.6177 218.139 92.2906 217.348C90.4201 216.233 86.6577 216.897 87.8083 212.065L84.7059 216.042C84.0918 215.15 84.6495 213.65 83.633 213.448C82.6165 213.237 82.1365 214.543 81.4906 215.199C81.2655 215.469 80.9536 215.652 80.6083 215.718C80.2627 215.781 79.9058 215.719 79.6024 215.541C78.9848 215.284 78.7765 213.784 77.46 215.199C76.8353 215.852 77.0083 213.872 76.3765 213.332C75.3495 213.381 75.8118 214.821 74.58 215.061C73.9553 212.958 74.4636 210.759 74.333 208.348C72.7659 209.711 71.8906 212.266 70.0483 211.825C69.0812 211.602 66.18 211.472 66.9883 208.331C64.8459 210 64.1824 209.52 63.3 207.434C61.5071 203.16 57.4412 200.922 53.8553 198.328C53.6422 198.152 53.3793 198.047 53.1036 198.028C51.894 198.039 50.7086 197.69 49.6972 197.027C48.6857 196.363 47.8937 195.415 47.4212 194.301C46.5283 198.402 44.5518 196.059 42.833 195.272C42.9883 194.033 41.6612 194.284 41.1918 193.677C40.2212 191.439 37.4577 191.199 36.2083 189.201C36.0459 188.933 35.7494 188.901 35.6153 189.201C34.4506 192.074 33.0318 189.402 32.8306 188.961C32.0824 187.317 30.353 187.973 29.2024 186.914C25.92 183.886 24.2188 179.767 21.2612 176.566C21.1457 176.38 21.0734 176.17 21.0494 175.952C21.0307 175.73 21.0608 175.508 21.1377 175.299C21.7906 173.81 21.8859 172.733 19.9094 172.31C19.5847 172.235 19.0624 171.59 19.1118 171.321C19.6977 168.671 17.6929 166.055 19.0271 163.415C19.4012 162.664 19.5459 161.848 18.7094 161.587C17.1459 161.09 16.7435 159.455 15.4271 158.658C12.8329 157.073 11.7388 153.597 12.5576 150.54C12.6141 150.318 12.6318 150.081 12.6706 149.848C10.4365 149.848 10.5776 147.533 9.41647 146.566C8.53412 145.814 8.29412 145.542 9.24353 144.844C9.58941 144.582 10.2318 144.286 9.99177 143.845C8.65059 141.452 11.1635 141.558 12.0459 140.421C10.4647 140.665 8.01529 139.811 8.34 139.108C9.09176 137.619 8.01529 136.486 8.17059 135.191C8.45647 132.798 10.8565 133.938 11.1176 132.431C8.05412 131.499 7.83529 130.348 9.69529 127.655C10.1082 127.098 9.34235 125.573 8.84823 124.602C8.69647 124.302 8.17765 123.851 8.23765 123.572C9.03176 119.845 7.93765 116.107 8.77412 112.384C9.70531 108.219 11.8656 104.429 14.9753 101.506C14.0047 101.322 13.1788 99.6425 13.4788 98.4107C15.1977 98.5872 15.1977 98.5872 17.3647 97.4578C17.8835 98.4813 16.4718 98.9507 16.6659 99.9989H21.1129C18.3363 101.449 15.813 103.339 13.6412 105.597C12.1447 107.164 10.4259 109.557 11.1247 110.968C12.2506 113.262 10.3765 114.332 10.3765 115.934C10.3765 116.587 9.14823 118.684 11.7776 117.819C12.2506 117.664 12.6247 119.16 12.5259 119.912C12.2082 122.093 12.9388 123.639 14.5624 125.139C15.6953 126.215 15.7835 128.125 15.8188 129.692C15.8188 130.645 15.6953 131.817 16.5706 132.057C20.2059 133.01 18.6706 136.119 18.66 137.954C18.66 142.394 20.4953 145.698 24.9882 147.159C25.2177 147.131 25.4471 147.194 25.6306 147.332C25.8082 147.472 25.9276 147.673 25.9659 147.897C26.34 150.597 27.953 150.685 30.0671 149.898C26.9647 148.85 26.5518 148.013 28.8388 146.051C30.48 144.632 30.2118 143.164 30.18 141.575C30.1447 138.427 30.1059 138.35 33.4341 138.011C35.3365 137.831 36.9106 137.418 37.62 135.342C37.8883 134.524 38.7918 134.294 39.6847 134.63C41.3647 138.512 44.5553 141.307 47.6047 143.884C49.1012 145.101 51.84 145.331 54.4765 145.67C55.9377 145.842 57.2894 146.517 58.3094 147.582C58.9624 150.29 61.0165 145.055 62.8694 143.605C63.2572 143.329 63.715 143.168 64.19 143.141C64.6651 143.113 65.1383 143.22 65.5553 143.45C65.7777 143.644 66.3036 143.968 66.3036 144.258C65.3753 144.671 62.9436 151.299 62.9859 152.464C63.06 154.267 62.9859 156.074 61.313 157.295C61.1944 157.368 61.0931 157.465 61.0165 157.581C60.939 157.697 60.8928 157.831 60.8824 157.97C61.1789 161.34 58.4718 161.626 56.3118 162.127C54.4589 162.558 53.2694 163.377 52.6271 165.152C52.3271 165.988 51.533 166.574 50.9541 167.27C49.3306 169.211 50.1071 171.784 52.5883 172.08C54.2471 172.281 54.4871 173.139 54.5294 174.406C54.6141 177.431 55.7083 180.17 56.8942 182.898C57.3283 183.812 58.0024 184.578 58.8353 185.135C59.8342 185.887 61.6024 186.106 60.6494 188.058C60.4977 188.354 60.8718 188.855 61.1683 188.933C63.4059 189.547 63.6389 191.785 64.7612 193.285C66.0177 194.937 67.5847 196.807 70.2106 195.522C70.7683 195.24 71.1424 195.445 71.7106 195.685C74.82 197.09 77.6895 199.144 81.5683 197.922C83.0648 197.453 83.9012 199.747 84.8895 200.834C86.9436 203.072 87.3177 203.273 89.5836 201.381C90.0353 201.007 90.8542 200.192 91.0059 201.102C91.4965 204.092 94.8177 203.601 96.0459 206.079C97.2142 203.093 98.2518 204.064 99.4801 205.62C100.451 206.848 101.661 207.11 102.9 205.705C104.241 204.215 105.681 203.718 107.181 205.61C107.368 205.876 107.628 206.084 107.929 206.206C108.23 206.332 108.561 206.369 108.882 206.312C111.565 205.359 114.861 205.888 116.771 203.054C116.926 202.832 117.06 202.553 117.307 202.458C121.302 201.018 122.626 197.234 124.602 194.072C124.686 193.882 124.812 193.713 124.969 193.578C125.123 193.444 125.307 193.349 125.506 193.302C125.704 193.254 125.909 193.248 126.109 193.285C126.314 193.32 126.505 193.408 126.667 193.525C127.302 194.273 126.918 195.607 128.164 196.013C127.476 195.342 126.962 194.513 126.667 193.599C126.589 191.697 128.202 191.735 129.357 191.21C130.507 190.691 132.025 190.504 130.853 188.672C130.968 188.064 131.233 187.494 131.623 187.014C132.014 186.533 132.518 186.158 133.091 185.922C135.642 184.705 138.131 183.339 137.573 179.785C137.506 179.475 137.554 179.152 137.707 178.874C137.863 178.595 138.121 178.388 138.427 178.295C138.505 178.315 138.58 178.344 138.649 178.384C138.706 178.43 138.724 178.535 138.762 178.602C139.359 176.682 140.809 175.115 141.011 173.04C141.011 172.857 141.011 172.571 141.095 172.521C144.611 170.908 141.844 169.239 141.145 167.584C141.019 167.292 140.954 166.978 140.954 166.661C140.954 166.343 141.019 166.029 141.145 165.738C141.362 165.247 141.445 164.707 141.385 164.174C141.331 163.639 141.136 163.127 140.82 162.692C140.365 161.884 140.227 160.935 140.435 160.03C140.642 159.126 141.18 158.332 141.942 157.804C142.497 157.408 143.545 157.239 143.199 156.353C142.846 155.471 141.777 155.894 141.021 155.845C139.85 155.711 139.031 154.585 137.774 154.662C136.669 153.914 137.661 152.633 137.082 151.74C136.546 150.35 137.16 149.072 137.495 147.762C138.621 146.88 139.917 146.245 141.307 145.899C143.174 145.935 145.024 145.538 146.711 144.738C148.396 143.933 149.872 142.749 151.024 141.279C152.09 140.03 153.491 139.147 154.306 137.552C154.825 136.581 155.467 135.822 155.199 134.64C155.056 134.213 155.036 133.754 155.141 133.316C155.247 132.877 155.473 132.478 155.795 132.162C156.092 131.862 156.685 131.45 156.226 131.086C154.535 129.77 156.399 128.972 156.579 127.934C156.473 126.445 157.627 125.407 158.079 124.101C158.17 124.02 158.279 123.961 158.397 123.928C158.511 123.894 158.632 123.888 158.75 123.911C158.912 124.708 159.498 124.546 160.084 124.535C161.015 125.284 160.602 126.399 160.68 127.288C160.92 130.578 161.428 131.181 164.94 131.114C165.865 131.114 166.557 130.998 166.497 132.201" fill="#AEB0AC"/>
<path d="M172.468 78.4482C172.016 78.2011 171.152 77.9576 171.127 77.6999C170.915 73.8176 167.763 73.3587 165.049 72.674C163.627 72.3211 164.827 72.0211 164.749 71.6752C164.598 70.8211 164.432 69.7905 163.203 69.5223C162.21 69.2465 161.232 68.9166 160.274 68.534C161.026 68.1105 162.148 68.0823 161.774 66.8717C161.671 66.4813 161.441 66.1362 161.121 65.8905C160.798 65.6452 160.404 65.5104 159.999 65.5058C158.104 65.2783 156.183 65.4551 154.362 66.0246C155.947 64.4576 157.934 63.1729 154.68 62.2976C154.595 62.2782 154.516 62.2382 154.451 62.1811C154.385 62.1236 154.336 62.0509 154.306 61.9693C154.278 61.8858 154.272 61.7967 154.286 61.71C154.301 61.6233 154.337 61.5415 154.39 61.4717C156.014 59.4458 154.451 57.907 153.473 56.4387C152.951 55.687 152.308 55.4858 153.625 54.8717C154.373 54.5258 153.872 53.2835 153.378 53.0082C150.159 51.2187 148.44 47.1105 144.483 46.7435C141.251 46.4258 137.908 44.2446 134.502 47.0399C135.903 42.787 135.434 38.954 132.092 36.4446C129.106 34.207 125.439 32.7176 121.242 33.4552C122.982 31.2952 122.118 30.4129 117.406 29.2552C116.541 29.9293 118.267 30.3529 117.596 31.0164C113.979 29.527 113.979 29.527 113.862 31.8035C111.441 27.847 106.952 27.7023 103.888 25.2317C107.449 25.7046 111.356 24.6458 114.706 28.6623C114.187 26.6082 113.901 25.5317 115.976 26.3682C119.859 27.9529 123.875 29.1917 127.86 30.5752C128.933 30.2858 129.406 31.1505 130.009 31.7576C131.823 32.8799 133.638 33.9952 135.445 35.0787C138.9 37.214 142.288 39.4411 146.079 40.9799C146.471 41.1317 147.123 41.5658 147.085 41.7282C146.442 44.6117 148.885 44.5623 150.448 45.2576C152.012 45.9352 153.43 46.5987 153.586 48.5576C153.586 48.7411 153.621 48.9246 153.702 49.087C153.784 49.2526 153.902 49.3974 154.048 49.5105C154.19 49.6238 154.357 49.7002 154.535 49.7329C154.714 49.7696 154.9 49.7623 155.075 49.7117C155.296 49.6451 155.528 49.6258 155.756 49.6552C155.988 49.6776 156.211 49.7513 156.41 49.871C156.609 49.9907 156.779 50.1533 156.907 50.347C157.039 50.5381 157.13 50.7543 157.175 50.9823C157.436 53.9011 159.999 55.3799 161.139 57.7234C161.707 58.867 162.963 59.1282 164.058 59.6858C162.79 60.4905 161.142 60.434 160.228 62.0752C161.454 61.9704 162.688 62.115 163.856 62.5002C165.025 62.8854 166.103 63.5032 167.026 64.3164L167.506 64.9023C167.506 66.3493 167.467 67.7152 169.165 68.4846C169.962 68.8305 169.856 69.0811 169.405 70.7223C169.186 71.587 170.559 71.474 170.365 72.3105C169.539 72.3105 168.752 71.5587 167.718 72.127C169.712 73.1435 171.469 74.5976 172.842 76.3623C173.495 77.2164 173.407 77.8129 172.556 78.3811" fill="#ADB0AD"/>
<path d="M60.3881 43.6306C60.1023 43.7756 59.8608 43.9951 59.6893 44.2659C59.5134 44.5353 59.4145 44.8478 59.4034 45.1694C59.2269 47.407 59.2763 47.4353 56.9928 47.7035C56.7457 48.4553 57.8645 48.8965 57.4445 49.7012C55.6093 48.5117 53.8234 47.8376 52.4046 50.2588C52.2785 50.551 52.0684 50.7992 51.801 50.9717C51.5343 51.1443 51.2256 51.2407 50.9081 51.2506C49.0057 51.3247 48.3246 52.3553 48.9387 54.1412C49.2069 54.8894 48.9387 55.68 48.2857 55.5247C46.5881 55.1117 46.041 57.4447 44.1775 56.947C43.0057 56.6294 43.8987 57.9353 44.0434 58.4753C44.2163 59.1459 44.7916 59.7988 44.1387 60.4729C43.4857 61.1435 43.0551 60.1729 42.4975 60.127C41.9399 60.0776 41.2269 60.0388 40.5951 60.0106C40.1388 59.9375 39.671 60.0109 39.2588 60.2201C38.8467 60.4294 38.5114 60.7637 38.301 61.1753C37.814 62.2694 38.8763 62.7388 39.4728 63.3353C39.801 63.6317 40.1434 63.9 40.4999 64.1506C38.8869 65.64 37.0163 65.8729 35.1246 66.0741C35.3257 66.9565 36.5469 66.9953 36.554 68.0329L32.3999 69.1482C33.8963 70.0412 35.4493 69.6565 36.6987 71.1247C31.881 70.2812 27.9069 70.9447 25.7752 75.6988C26.4281 75.9388 27.734 75.7376 28.6552 76.5741C28.5493 76.6588 28.454 76.8317 28.3587 76.8317C22.6763 76.8317 23.654 76.3623 21.4058 82.2035C20.8693 83.587 20.6575 85.0659 19.3728 86.0859C18.854 86.5094 18.074 87.2506 18.921 88.4012C19.641 89.3329 19.3516 90.6388 18.4199 91.5317C16.1187 89.4106 17.174 86.8447 17.8269 84.5682C18.3634 82.7047 19.6199 81.0388 20.6293 79.3412C21.6387 77.64 23.3187 76.3517 22.2705 74.1176C22.2335 73.8966 22.2559 73.6697 22.3353 73.4602C22.4146 73.2506 22.5482 73.0658 22.7222 72.9247C25.9093 71.5976 26.0046 68.2941 27.254 65.7847C28.4046 63.4906 30.4799 62.28 32.4281 60.9353C33.321 60.3106 34.3693 59.8659 34.8352 58.867C35.7669 56.8906 38.8304 57.7165 39.3669 55.3023L40.6057 56.1847C40.1257 52.5 43.401 50.4423 44.0151 47.2341C44.1951 46.2247 45.5116 45.9282 46.694 45.8294C49.0234 45.6494 51.3951 45.3812 53.901 43.6412H50.4846C52.3198 42.1023 54.4763 42.2188 56.7034 42.1129C58.3163 42.0353 59.5975 41.8906 60.3528 43.6023" fill="#AEB0AE"/>
<path d="M70.7013 29.6824C71.9719 30.5753 73.2566 29.9012 74.6366 29.8165C73.3907 30.6883 73.0131 32.6683 70.846 32.3718C70.0978 32.2765 69.1448 33.1871 69.3495 33.6212C70.2107 35.8588 68.1107 35.8094 67.2566 36.1094C65.2801 36.8083 64.1366 38.0188 63.8754 39.9918C63.6284 41.9577 62.4742 42.5083 60.8154 42.6318C59.3154 41.573 57.9566 40.3447 55.5813 39.4694L58.1648 39.2683H59.2095C58.4613 38.1918 59.6437 37.8847 59.9013 37.253C61.8989 32.2553 66.9284 31.8812 70.7401 29.7106L70.7048 29.6824H70.7013ZM119.584 162.769V169.486C117.512 167.679 115.101 168.967 113.065 168.237C112.601 168.042 112.089 167.994 111.598 168.101C111.106 168.208 110.66 168.463 110.319 168.833C109.694 169.398 109.225 169.486 108.822 168.727C108.427 167.979 108.074 168.237 107.612 168.604C106.706 169.439 105.587 170.007 104.379 170.245C103.166 170.477 101.912 170.367 100.758 169.927C100.588 169.862 100.4 169.859 100.228 169.92C100.058 169.979 99.9143 170.098 99.826 170.255C97.6942 172.811 95.6119 170.64 93.5683 170.1C93.2507 170.022 93.166 169.017 92.8201 168.025C91.2848 169.782 89.6789 170.107 88.0378 168.611C87.5507 168.159 87.1766 168.064 86.8095 168.787C86.5131 169.369 85.9448 169.535 85.4966 169.006C85.1351 168.534 84.6295 168.193 84.0566 168.035C83.4844 167.877 82.8758 167.914 82.3272 168.141C80.3507 169.017 77.9966 167.354 76.0484 169.765C75.9637 167.527 75.3001 165.759 76.9413 164.347C79.2178 165.498 79.3801 165.335 80.0048 160.924C80.6966 162.018 80.5978 163.867 82.0766 163.617C82.6471 163.557 83.1993 163.381 83.6994 163.1C84.1995 162.819 84.6369 162.439 84.9848 161.982C85.6095 161.107 87.2225 161.068 87.3778 159.551C87.5295 158.439 87.2789 157.197 88.4013 155.951C88.6519 158.301 88.5566 160.426 89.5272 162.367C90.9001 161.915 90.4978 160.514 91.246 159.589C93.2225 161.693 94.126 165.131 97.6695 164.817C98.7425 164.721 100.345 164.202 100.281 162.328C100.451 163.105 100.67 163.885 100.931 164.644C100.97 164.795 101.043 164.936 101.142 165.057C101.245 165.177 101.374 165.273 101.519 165.338C101.663 165.402 101.82 165.434 101.979 165.431C102.131 165.431 102.297 165.385 102.427 165.318C104.425 164.435 108.208 164.682 110.1 165.575C111.815 166.384 113.517 166.412 114.699 164.527C116.944 165.893 118.059 164.453 119.026 162.713C119.058 162.68 119.098 162.656 119.142 162.642C119.188 162.635 119.227 162.625 119.277 162.635C119.32 162.646 119.361 162.663 119.4 162.685C119.439 162.713 119.471 162.741 119.488 162.791" fill="#ADAFAD"/>
<path d="M119.065 109.479C118.913 111.498 121.235 113.679 118.684 115.715L120.325 114.907C118.98 116.601 118.652 117.964 120.409 119.058C119.757 119.711 120.025 120.681 119.757 121.295C118.931 123.237 119.142 124.458 121.098 125.591C121.994 126.109 122.167 128.029 121.772 129.127C121.697 129.778 121.828 130.436 122.146 131.008C124.557 133.892 126.169 137.502 129.769 139.309C130.585 139.662 131.449 139.895 132.342 139.98C134.012 140.262 135.78 140.531 135.021 143.037C134.686 144.141 136.126 144.025 136.412 144.755C136.009 145.977 134.993 146.294 133.871 146.411C132.304 146.622 130.712 147.035 129.328 145.811C129.547 143.058 126.611 143.153 125.421 141.607C124.378 140.251 122.933 139.259 121.292 138.773C118.998 138.205 119.315 135.342 117.155 134.831C116.802 134.757 118.144 134.725 118.002 133.447C117.664 130.394 116.319 128.693 112.684 128.029C114.378 127.359 115.627 128.682 116.224 127.359C116.658 126.388 115.666 125.993 115.08 125.464C114.699 125.111 114.868 124.659 114.928 124.197C115.302 120.939 114.554 117.646 116.185 114.349C116.675 113.351 116.982 111.515 117.455 110.075C117.752 109.105 118.317 109.055 119.093 109.422" fill="#AEB0AE"/>
<path d="M85.9553 139.472C85.9861 139.224 86.0743 138.987 86.213 138.78C86.3579 138.575 86.5489 138.407 86.7706 138.289C88.3236 136.983 90.8401 138.049 92.1459 136.129C92.7812 137.975 94.9589 136.581 95.8059 138.272L96.1977 135.582C97.0906 135.734 97.3518 134.94 97.8318 134.478C98.4071 135.621 99.4624 136.08 100.595 136.493C101.725 136.906 101.22 135.37 102.092 135.469C102.275 136.62 102.092 137.541 103.973 138.155C105.858 138.773 107.142 141.385 107.432 143.901C106.278 143.979 105.713 141.663 104.291 143.153C102.349 140.989 99.4906 142.93 97.2671 141.663C96.5154 141.229 95.5165 142.518 94.673 142.75C93.4024 143.096 93.173 146.093 91.013 144.19C90.7165 143.922 90.3248 144.66 90.2648 145.083C90.1306 145.938 90.0918 146.802 90.0177 147.667C88.4789 147.37 88.8177 145.948 88.0412 144.872C87.3459 147.582 85.1895 148.235 82.8071 149.234C83.1248 147.889 84.4483 147.388 84.2259 146.121C83.3153 145.373 82.6236 146.919 81.4624 146.545C83.5553 144.487 86.0612 142.768 85.8883 139.472" fill="#ADB0AD"/>
<path d="M119.026 106.73C119.958 105.897 121.129 105.378 122.368 105.244C122.944 105.79 123.299 106.528 123.367 107.319C122.619 108.201 121.832 108.988 121.744 110.248C121.744 110.767 121.369 111.459 120.879 111.438C120.131 111.438 120.131 110.622 120.046 110.019C119.958 109.419 120.364 108.459 119.132 108.53C118.786 107.944 119.728 107.28 119.026 106.73Z" fill="#B8ABB2"/>
<path d="M76.8246 173.598C80.8834 177.325 84.8999 181.14 89.8728 183.646C90.0246 183.724 90.2575 183.812 90.3246 183.946C91.1187 186 92.5975 186.184 94.5175 185.704C94.7368 185.636 94.9678 185.615 95.1957 185.641C95.4236 185.668 95.6434 185.742 95.8411 185.859C96.0396 185.98 96.2084 186.143 96.3349 186.338C96.4614 186.533 96.5423 186.754 96.5716 186.985C96.8893 188.516 97.2246 190.408 95.6328 191.142C93.2611 192.226 91.0728 194.464 88.0093 193.119C87.1164 192.727 86.8093 193.909 86.0893 194.089C84.8222 194.389 83.2481 195.282 83.6222 192.667C82.3058 192.554 80.5305 195.702 79.7046 192.148C79.673 192.121 79.6373 192.098 79.5987 192.081C79.5634 192.074 79.5246 192.064 79.4752 192.074C76.2987 193.698 74.1846 190.768 71.5093 190.246C71.2693 190.211 70.9905 190.38 70.7575 190.451C69.5893 189.699 69.2117 187.461 66.9458 188.449C66.7658 188.527 64.9128 187.182 65.1528 185.654C66.6493 183.205 63.5399 182.485 63.1658 180.342C65.3364 181.878 66.794 184.069 69.4446 184.204C70.8458 184.281 72.6211 185.693 73.0552 182.82C73.1681 182.072 74.5516 181.179 75.4446 181.736C76.4893 182.435 77.5375 182.118 78.5646 182.329C79.3128 182.485 80.8658 182.831 80.5764 182.167C79.9446 180.745 82.1258 179.411 80.3399 178.144C79.133 177.225 78.0087 176.202 76.9799 175.087C76.6058 174.713 75.8858 174.173 76.8564 173.598" fill="#B0AFAE"/>
<path d="M112.02 179.718C112.49 181.14 111.166 183.081 114.138 183.695C116.139 184.119 113.093 184.934 113.467 185.933C113.545 186.028 113.718 186.279 113.757 186.272C116.121 184.955 118.931 186.222 121.302 184.955C121.494 184.827 121.724 184.766 121.954 184.783C122.185 184.8 122.403 184.895 122.573 185.051C124.338 186.932 124.881 185.637 125.333 183.706C125.785 185.047 125.238 186.54 126.678 187.154C125.457 190.624 121.878 190.832 119.315 192.427C118.813 192.602 118.276 192.659 117.748 192.593C117 192.593 116.252 191.171 115.56 193.218C115.112 194.559 113.315 193.218 112.105 192.293C112.161 193.419 112.422 195.021 110.764 194.284C107.912 193.024 104.714 193.408 101.919 192.081C99.9636 191.15 100.518 189.381 100.422 187.818C100.327 186.251 101.305 186.05 102.526 186.05C105.244 186.05 106.154 183.215 108.349 182.217C109.581 181.67 110.742 180.515 111.988 179.679" fill="#AEB0AE"/>
<path d="M77.6825 107.718C77.0966 110.142 79.3978 111.995 79.006 114.388C79.0189 114.471 79.0557 114.548 79.1119 114.611C79.1604 114.675 79.2266 114.724 79.3025 114.752C82.479 115.069 81.8084 117.462 81.7131 119.555C82.846 118.991 82.779 117.808 83.6049 116.802C83.806 118.376 83.6896 119.972 83.2872 121.496C82.7684 123.247 81.7907 124.86 82.3166 126.967C82.4682 127.468 82.4464 128.006 82.255 128.493C82.0635 128.98 81.7135 129.389 81.2613 129.653C80.9598 129.829 80.6214 129.931 80.2731 129.953C79.9424 130.01 79.6268 130.134 79.3456 130.317C79.0644 130.501 78.8235 130.739 78.6375 131.019C78.4516 131.298 78.3245 131.612 78.2641 131.943C78.2037 132.273 78.2111 132.612 78.286 132.939C78.3256 133.327 78.2158 133.716 77.979 134.026C77.7445 134.335 77.4061 134.55 77.026 134.629C76.1825 134.746 74.859 135.254 76.3378 136.592C76.7613 136.966 76.5955 137.291 75.5013 137.485C71.9296 138.081 69.9531 140.538 68.1002 143.354C67.006 144.999 65.1143 144.469 63.3955 144.219C63.579 145.708 64.7613 145.101 65.3366 145.535C65.2586 145.959 65.0808 146.358 64.8178 146.7C64.5495 147.04 64.2032 147.31 63.8084 147.487C63.4131 147.661 62.9817 147.736 62.551 147.707C62.1203 147.678 61.7029 147.546 61.3343 147.321C60.933 146.649 60.3409 146.111 59.6331 145.775C58.5778 143.354 60.3355 139.655 62.8872 139.338C66.946 138.858 69.2155 136.147 71.2025 133.073C72.4696 131.114 73.3519 128.866 75.7343 127.945C76.4049 127.684 76.2213 127.359 76.126 126.896C75.9637 126.049 75.6178 126.896 75.3778 126.812C74.859 126.713 74.1778 126.773 73.9837 126.212C73.7931 125.658 74.3613 125.273 74.7919 124.966C75.2225 124.648 75.5896 124.514 75.9566 124.285C77.9684 122.94 78.0284 122.534 76.2037 121.038C75.2049 120.219 74.5307 119.442 75.406 118.048C76.1543 116.859 75.5225 115.436 75.406 114.272C75.3196 112.96 75.5776 111.648 76.1543 110.467C76.2107 110.393 75.5896 110.248 75.886 110.467C75.8607 110.492 75.8413 110.522 75.8296 110.555C75.5013 111.688 74.5131 112.313 74.0331 111.131C72.9566 108.536 70.8919 107.029 68.9543 105.307C68.8694 105.204 68.8083 105.084 68.7754 104.954C68.7425 104.825 68.7385 104.69 68.7637 104.559C72.0014 104.57 75.1403 105.675 77.6719 107.693" fill="#B0B0AF"/>
<path d="M123.374 107.28C122.971 107.131 122.642 106.831 122.456 106.444C122.27 106.057 122.241 105.613 122.375 105.205C123.981 104.686 125.516 103.56 127.309 104.559L123.374 107.28Z" fill="#AEB0AE"/>
<path d="M194.644 36.6565C196.14 41.4318 195.614 46.3024 194.644 51.0212C194.192 53.2553 192.06 55.3518 192.657 57.7342C193.405 60.7236 191.372 61.3942 189.967 63.1059C188.086 65.3436 186.311 67.2636 183.438 68.0047C183.438 68.0894 183.48 68.1777 183.519 68.2518C183.593 68.5059 183.777 68.753 183.364 69.0036C181.221 66.6706 178.324 66.0142 175.317 65.5271C177.727 66.5153 177.374 69.5718 179.351 70.8C179.428 70.8 179.439 70.9624 179.428 71.0471C179.273 74.3083 179.601 75.5294 181.394 78.7165C181.426 78.7871 181.433 78.8577 181.433 78.9389C180.879 79.4259 179.869 78.3918 179.58 79.4189C179.389 80.1671 180.18 80.3894 180.646 80.7918C181.895 81.8789 182.068 83.2694 182.386 84.893C183.039 88.2953 184.659 91.493 185.704 94.8389C186.494 97.373 188.019 99.5259 187.892 102.6C187.821 104.386 188.767 107.414 191.167 108.776C191.407 108.904 191.661 109.009 191.915 109.076C189.748 113.216 192.021 116.128 194.799 119.52L191.813 118.031C191.658 120.007 192.657 121.662 192.907 123.42C191.764 123.716 191.485 122.432 190.514 122.601C190.084 124.225 191.679 125.213 192.014 126.618C190.888 127.193 190.249 126.109 189.226 126.138C189.074 128.915 190.122 131.361 191.054 133.931C191.647 135.621 193.655 137.552 190.899 139.225C190.853 139.225 190.899 139.387 190.899 139.472C190.602 143.008 189.141 146.485 190.228 150.088C190.546 151.136 189.9 151.154 189.364 151.348C187.394 152.051 186.321 153.173 186.148 155.478C185.954 158.089 183.9 160.052 182.682 162.289C182.527 162.589 181.518 161.492 180.985 162.685C180.148 164.548 179.813 166.105 182.241 167.114C181.041 168.198 179.64 167.393 178.267 168.159C180.501 169.218 176.644 172.232 180.321 172.744C179.121 173.859 177.805 173.598 176.22 173.788C178.161 175.355 176.22 177.893 178.419 179.488C178.014 179.657 177.587 179.77 177.152 179.824C174.466 179.689 173.975 180.978 174.907 183.212C175.126 183.762 175.126 184.616 174.494 184.405C171.653 183.466 170.905 187.479 168.081 186.999C167.562 186.914 166.401 189.346 165.258 190.412C164.118 191.478 167.545 190.412 165.911 191.718C165.189 192.255 164.414 192.719 163.599 193.101C162.254 193.793 165.717 194.044 163.733 194.668C162.851 194.841 161.958 194.915 161.054 194.887C161.651 197.125 158.135 195.011 158.682 197.153C158.259 196.165 157.08 196.405 156.445 195.886C156.021 195.473 155.929 195.339 155.517 195.791C154.765 196.684 154.496 198.78 152.531 197.146C151.676 199.461 148.853 198.932 147.48 200.605L147.049 198.364C146.241 200.679 145.779 202.804 142.737 202.842C142.624 202.765 143.333 201.995 142.737 201.353C142.362 201.988 141.988 202.546 141.72 203.111C140.693 205.08 139.984 205.348 138.12 203.898C137.651 203.545 137.238 203.411 137.097 203.735C135.942 206.241 132.611 207.395 132.685 210.575C132.762 212.929 129.769 211.959 129.579 213.787C129.395 215.428 129.452 217.186 126.928 216.618C126.427 216.505 125.88 216.745 125.929 217.264C126.282 221.096 122.944 220.281 121.292 220.299C119.88 220.299 118.507 220.779 117.402 221.661C115.571 222.978 113.718 224.188 111.356 224.287C110.732 224.287 110.061 224.922 110.329 223.489C110.446 222.787 109.465 223.295 109.165 223.564C108.304 224.4 107.555 225.325 106.864 226.091C104.76 224.749 102.332 224.795 99.9035 225.046C98.7318 225.159 97.4753 225.448 96.5047 224.778C96.0812 224.478 96.353 223.429 95.2094 224.16C93.9424 224.979 92.58 224.778 91.2459 223.913C89.0083 222.469 86.58 221.241 84.3247 219.808C82.7718 218.82 81.1553 219.212 79.5812 219.356C76.219 219.802 72.8096 219.006 69.9918 217.119C68.1212 215.908 66.5753 215.446 65.3153 213.159C64.5671 211.758 63.5118 210.251 62.5694 208.768C61.4932 206.99 60.2011 205.352 58.7224 203.891C58.3165 203.516 57.8682 203.1 57.5012 203.936C57.1377 204.773 56.5835 204.868 56.3965 203.936C55.8424 201.102 54.4694 203.044 53.5871 203.513C52.8353 203.908 52.3941 204.784 51.4553 205.8C52.253 202.814 50.2447 201.911 48.173 200.912C46.8847 201.787 46.673 203.64 45.9353 205.302C45.8577 201.773 43.6871 199.451 41.7494 196.991C40.8177 197.644 41.7494 198.385 41.2977 199.193C40.1259 198.039 39.8012 196.281 38.1 195.551L37.8318 197.471C37.5635 197.291 37.2071 197.185 37.1612 197.001C36.7271 195.109 34.08 194.982 33.9141 192.766C33.8188 191.382 31.5847 192.872 31.1718 190.92C30.72 188.788 29.3929 191.209 28.4047 190.871C27.9459 190.228 28.3482 189.519 28.2812 188.845C28.2726 188.323 28.2015 187.804 28.0694 187.299C25.5529 187.182 24.2859 184.539 21.9177 184.309C21.2471 184.253 20.3118 184.444 20.6682 183.628C22.2035 180.099 20.2094 179.545 16.7506 179.668C19.7929 178.105 17.0506 175.193 19.7365 173.866C18.0177 173.442 16.7506 173.866 15.5718 172.86C18.4129 172.041 15.7518 169.496 17.2129 168.102C16.4647 167.354 15.4765 167.912 14.6859 167.594C13.6235 167.171 11.6365 167.16 13.5918 165.24C14.1035 164.739 14.3435 163.616 13.1435 163.751C11.9435 163.885 12.2682 162.346 11.3259 162.434C11.8835 160.002 9.92471 160.013 8.48471 159.505C9.73412 157.726 6.0953 157.341 7.34471 155.545C7.36368 155.469 7.36368 155.391 7.34471 155.315C7.32523 155.239 7.28492 155.169 7.22824 155.114C4.99059 154.115 5.73177 151.532 4.46471 150.042C3.51177 148.916 5.31882 148.867 5.21294 147.582C4.91647 144.219 3.45529 141.088 3.57177 137.696C3.57177 136.532 1.33412 137.301 1.52471 135.639C2.19529 135.12 3.06353 137.082 3.6 135.639C3.68724 135.45 3.72374 135.242 3.70588 135.035C3.69163 134.722 3.5669 134.423 3.35376 134.192C3.14061 133.962 2.85278 133.814 2.54118 133.775C2.16 133.691 1.73647 133.228 2.32235 132.805C4.04118 131.615 3.37059 130.316 2.17059 129.462C0.794118 128.608 1.68 126.956 0 125.908C3.92471 126.226 2.68941 123.371 3.36 121.835C3.53294 121.2 3.53294 120.536 3.36 119.912C2.47765 117.424 4.85647 115.387 4.10824 112.976C3.92471 112.38 4.18588 112.112 5.00118 111.738C6.49765 111.085 6.72 109.182 6.63177 107.693C6.44118 104.291 7.75765 101.167 8.18824 97.8812C8.25105 96.899 8.51645 95.9404 8.96776 95.0657C9.41906 94.191 10.0465 93.4192 10.8106 92.7988C11.9118 91.9059 12.2012 89.0153 13.2388 87.1694C13.4576 86.7883 13.5565 86.2165 13.8812 85.9977C16.2706 84.3565 15.2224 81.5224 16.2918 79.3694C16.7435 78.4765 15.9741 77.88 14.9259 78.053L11.4035 78.5541C11.9329 77.9189 12.6812 77.4953 13.4965 77.3894C15.5718 77.0083 17.4635 74.4036 17.3365 73.8847C16.7118 71.1565 19.9659 70.1577 19.5741 67.7153C19.44 66.773 18.7094 67.1189 18.5082 66.6565C17.6824 67.68 15.9671 67.08 15.6388 67.4083C13.6624 69.4906 12.2506 67.4859 10.8282 66.8894C9.09883 66.113 7.65177 64.8247 6.68118 63.2012C4.44353 59.82 3.84 55.7365 1.41177 52.4965C0.769412 51.6424 1.68 50.7106 1.65882 49.7118C1.64118 44.8518 -0.123529 40.1047 0.748235 35.1953C0.882353 34.4471 0.635294 33.5718 0.995294 32.8024C2.56235 32.8024 2.74588 34.0518 2.64 35.0436C2.14941 39.8083 3.79059 44.3612 3.79059 49.0412C3.74341 49.498 3.81819 49.9592 4.00729 50.3777C4.19639 50.7962 4.49306 51.1571 4.86706 51.4236C6.76941 52.553 7.10471 54.3142 7.17882 56.3012C7.17882 58.1294 7.64118 59.6859 9.6 60.4236C10.32 60.8189 10.8565 61.4824 11.0965 62.2589C11.3647 62.9294 11.8165 63.5294 12.3918 63.9706C12.8242 64.3028 13.3179 64.5464 13.8447 64.6875C14.3714 64.8286 14.9208 64.8644 15.4613 64.793C16.0019 64.7215 16.5231 64.5441 16.9951 64.271C17.467 63.9979 17.8805 63.6343 18.2118 63.2012C19.2106 62.0083 20.6188 61.7118 21.6953 60.9636C23.7318 59.5306 26.6682 59.693 28.0482 57.2365C28.5 56.4177 29.3929 56.4847 30.1729 56.2271C32.1318 55.613 32.6788 54.1094 31.3024 52.5565C30.0459 51.1236 30.1729 49.8953 31.4577 48.8295C32.7459 47.753 32.6859 46.7542 32.3894 45.4377C32.1 44.1106 31.6412 42.7942 31.8988 41.4142C32.1494 40.0271 32.7529 39.1447 34.0977 38.9895C34.6865 38.9106 35.2846 39.0343 35.7938 39.3402C36.303 39.6462 36.6931 40.1161 36.9 40.673C38.4671 43.9271 38.4882 43.8495 42.1341 43.1506C44.82 42.6318 47.5553 42.9953 50.273 42.9036C50.7207 42.8746 51.1699 42.8746 51.6177 42.9036C52.3659 42.9742 53.4706 42.42 53.76 43.4471C54.0459 44.4777 52.973 44.9965 52.1541 45.3036C50.4847 45.9742 48.72 46.3977 46.9235 46.553C45.6282 46.6271 44.5341 47.1283 44.16 48.3389C43.5141 50.3577 42.1235 52.0165 41.5659 53.9577C41.3783 54.6914 41.0293 55.3741 40.5446 55.9559C40.0598 56.5378 39.4513 57.0042 38.7635 57.3212C35.7777 58.5918 33.6847 61.0483 31.0059 62.693C29.8363 63.3861 28.8418 64.339 28.0995 65.4779C27.3571 66.6169 26.8867 67.9114 26.7247 69.2612C26.5341 70.6836 25.6024 71.5024 24.6141 72.2506C23.9718 72.7518 22.9553 73.1718 23.1177 74.0153C23.6047 77.0083 21.3988 78.8224 20.2377 81.0883C19.8247 81.8965 19.3835 82.6765 18.9671 83.4812C18.271 84.6604 17.8826 85.9956 17.8376 87.3642C17.7926 88.7327 18.0924 90.0906 18.7094 91.313C18.0847 94.3659 15.7906 96.4624 14.2271 98.9506C15.5224 101.619 14.2271 103.532 12.5365 105.519C9.28236 109.366 8.89059 114.092 9.01412 118.846C9.07059 121.246 8.96471 123.716 10.0976 126.011C10.3424 126.397 10.4465 126.855 10.3925 127.309C10.3385 127.763 10.1297 128.185 9.80118 128.502C8.63647 129.713 9.05294 130.846 10.3588 131.633C11.6647 132.42 11.2906 133.073 10.3588 133.871C7.78235 136.235 8.21647 138.685 11.4529 140.001C12.4694 140.425 12.3847 140.749 11.7988 141.558C9.2153 145.006 9.31059 146.245 12.4518 149.273C12.6988 149.52 12.8929 149.831 12.9882 150.166C13.083 150.508 13.0867 150.87 12.9988 151.214C12.7694 152.608 12.9459 154.038 13.5073 155.334C14.0686 156.63 14.9912 157.738 16.1647 158.524C17.3082 159.342 18.0106 160.676 19.1506 161.552C19.3821 161.714 19.5536 161.947 19.6385 162.217C19.7233 162.486 19.7169 162.776 19.62 163.041C18.4024 165.364 19.8812 167.651 19.62 169.948C19.5459 170.301 19.5847 170.675 19.7365 171.014C22.6271 175.376 23.9224 180.639 27.54 184.521C29.4988 186.604 32.1777 187.578 34.3094 189.374C38.0435 188.22 39.3282 191.449 41.3753 193.313C41.8271 194.022 42.4694 194.591 43.2282 194.954C44.4565 195.6 45.6459 196.338 46.74 194.658C47.2306 193.909 47.7494 194.34 48.24 194.876C49.7365 196.599 51.3 198.222 53.9224 197.866C54.288 197.897 54.6306 198.058 54.8894 198.318C58.2494 200.816 61.9765 202.927 63.7624 207.021C63.8365 207.184 63.9141 207.445 64.0306 207.48C66.3424 208.108 67.7647 210.258 70.0659 210.875C71.2977 211.211 71.9224 209.982 72.6777 209.231C73.1294 208.8 73.5247 208.147 74.2447 208.482C74.5342 208.632 74.763 208.877 74.8923 209.176C75.0216 209.475 75.0435 209.81 74.9541 210.124C74.2518 213.314 76.5177 213.738 78.6883 214.38C79.5635 214.631 80.3577 215.128 81.2294 214.38C82.2777 213.487 83.3471 212.439 84.653 214.084C84.7032 214.138 84.7654 214.18 84.8346 214.206C84.9038 214.232 84.9781 214.242 85.0518 214.235C85.1268 214.228 85.198 214.198 85.2565 214.151C85.3138 214.101 85.3617 214.041 85.3977 213.974C87.1624 211.662 87.7906 213.226 88.7118 214.793C89.3541 215.898 91.2071 216.716 91.9659 216.282C94.8459 214.659 97.5777 216.282 100.366 216.099C100.952 216.047 101.519 215.866 102.027 215.569C102.535 215.272 102.97 214.866 103.302 214.38C104.76 212.026 105.738 212.393 106.892 214.976C107.64 212.912 108.388 211.864 110.079 213.822C111.011 214.909 112.009 212.22 113.305 213.575C114.18 214.468 115.186 215.34 116.647 214.429C117.24 214.055 118.048 214.101 118.624 213.611C119.372 212.958 119.94 213.392 120.476 213.988C120.699 213.371 120.476 212.767 120.476 212.16C120.589 210.925 120.018 209.252 121.147 208.595C122.442 207.847 122.982 209.615 123.798 210.325C124.086 210.572 124.422 210.759 124.785 210.873C125.148 210.987 125.53 211.026 125.908 210.988C126.289 210.949 126.658 210.835 126.995 210.653C127.331 210.472 127.625 210.223 127.86 209.922C129.872 207.233 132.455 204.956 133.945 201.882C134.742 200.231 136.931 199.825 137.382 197.884C139.253 198.882 140.848 196.694 142.701 197.453C143.195 197.654 143.901 197.845 144.159 197.231C145.475 194.178 149.065 194.396 151.069 192.349C151.991 191.418 153.039 191.382 154.285 191.495C156.177 191.679 157.772 190.747 159.318 189.738C159.911 189.364 160.412 188.767 161.217 188.816C161.485 188.816 161.478 189.413 161.757 189.074C163.158 187.405 163.578 184.916 166.239 184.299C167.199 184.08 167.344 182.869 167.044 181.955C166.592 180.533 166.931 179.718 168.466 179.428C170.001 179.142 170.407 178.256 169.807 176.845C169.214 175.433 169.454 174.692 171.145 174.819C171.067 174.413 170.771 174.519 170.587 174.445C169.839 174.088 168.484 174.339 168.572 173.118C168.646 172.041 169.807 172.013 170.711 171.847C171.565 171.706 172.369 171.353 173.065 170.824C173.746 170.294 174.293 169.588 174.646 168.805C175.002 168.007 175.147 167.142 175.091 166.278C175.023 165.413 174.746 164.579 174.282 163.846C173.34 162.406 173.658 161.887 174.505 160.715C175.549 159.293 176.068 157.581 178.239 157.324C179.111 157.218 179.545 156.353 178.945 155.418C178.793 155.216 178.686 154.986 178.631 154.74C178.543 154.37 178.572 153.981 178.713 153.628C178.854 153.274 179.1 152.973 179.418 152.764C180.371 152.012 180.918 151.338 180.332 150.032C179.954 149.185 180.868 148.899 181.532 148.542C182.154 148.273 182.66 147.79 182.958 147.18C183.256 146.57 183.326 145.874 183.155 145.218C182.806 143.622 182.22 142.228 180.233 142.228C179.592 142.249 178.954 142.131 178.362 141.882C177.939 141.681 177.469 141.078 177.949 140.915C179.446 140.358 179.291 137.792 181.461 138.155C181.726 138.228 182.003 138.248 182.275 138.213C182.548 138.179 182.811 138.091 183.049 137.954C183.287 137.821 183.496 137.642 183.664 137.427C183.831 137.213 183.955 136.967 184.027 136.705C184.574 135.388 183.978 134.679 183.145 133.881C181.945 132.748 181.5 131.721 183.498 130.895C184.786 130.355 185.121 129.272 185.333 127.867C185.848 124.313 186.734 120.826 186.399 117.184C186.371 115.824 186.087 114.482 185.562 113.227C184.814 111.66 182.972 110.361 184.292 108.229C184.429 107.989 183.777 107.538 183.441 107.241C182.868 106.799 182.239 106.433 181.571 106.154C179.965 105.462 179.1 104.848 181.359 103.694C182.46 103.129 183.265 98.7671 182.538 97.7647C180.208 94.5177 178.535 90.6283 174.321 89.16C173.679 88.9377 171.851 88.6412 173.573 87.24C174.166 86.7459 173.647 86.2871 173.407 85.8353C172.948 84.9812 172.334 84.2824 173.033 83.1353C173.735 81.9847 172.412 81.3777 171.766 80.82C170.269 79.5989 170.838 78.8436 172.094 78.0636C172.172 75.7483 170.192 74.9506 168.84 73.7294C167.485 72.5118 167.478 72.6071 168.84 71.5694C169.214 71.28 168.84 69.1271 168.169 68.58C166.775 67.4647 166.094 66.293 167.446 64.6977C171.459 64.3236 171.854 63.8047 171.424 59.5483C171.268 58.0624 170.788 56.2659 173.026 55.8777C175.038 55.5353 176.76 57.2436 176.76 59.513C176.74 60.2356 176.681 60.9566 176.584 61.673C176.538 62.2695 176.291 63.0177 177.145 63.2789C177.456 63.368 177.789 63.3504 178.09 63.2289C178.39 63.1074 178.641 62.889 178.804 62.6083C180.127 60.3283 182.058 60.5506 184.257 60.9494C188.04 61.6447 189.035 60.6918 188.739 56.8589C188.622 56.144 188.691 55.4111 188.94 54.7309C189.189 54.0507 189.61 53.4464 190.161 52.9765C192.674 50.9118 193.147 48.1659 192.964 45.1695C192.839 43.0925 192.839 41.0099 192.964 38.933C193.02 37.8847 193.041 36.6953 194.605 36.6565H194.644ZM50.5024 43.6977C47.04 43.9871 43.5353 43.1612 40.0412 44.6118C38.3506 45.3212 36.9494 43.9659 36.6212 42.0742C36.3353 40.4506 35.5977 39.1624 33.8577 39.6742C32.2341 40.133 32.3612 41.7565 32.6118 43.14C32.8024 44.2942 33.0529 45.4271 33.36 46.553C33.4659 46.793 33.5224 47.0612 33.5224 47.3295C33.5268 47.7298 33.4125 48.1225 33.1939 48.458C32.9753 48.7934 32.6622 49.0565 32.2941 49.2142C30.9671 49.9624 29.4424 51.2612 32.34 52.2C32.8977 52.3942 33.5894 52.8706 33.0918 53.633C32.34 54.7624 33.1659 56.9153 30.8541 57.0212C29.3541 57.0989 28.0306 57.3036 27.8682 59.2236C27.8682 59.513 27.36 60.0389 27.2153 59.9718C25.3341 59.4812 24.3635 61.0589 23.0859 61.5389C21.12 62.2871 19.4118 62.5271 18.1059 64.5247C17.1741 65.9577 15.12 65.2765 13.5071 65.4494C11.3365 65.6683 10.5882 64.6977 10.5212 62.6612C10.4932 62.3504 10.3882 62.0514 10.2157 61.7914C10.0431 61.5313 9.80847 61.3184 9.53294 61.1718C5.79882 60.3671 6.49765 57.3494 6.34588 54.833C6.26824 53.7071 6.02824 52.8918 4.94471 52.5177C3.12 51.8647 2.94706 50.28 2.89059 48.7906C2.70706 43.9553 1.39059 39.2118 1.92 34.3412C1.92825 34.0215 1.83782 33.707 1.661 33.4405C1.48418 33.174 1.22955 32.9685 0.931765 32.8518C2.29412 25.4824 6.16235 19.1789 9.54353 12.7059C9.89647 12.0353 10.6271 12.053 11.0012 11.813C13.0377 10.5142 14.1882 8.44946 15.7835 6.45887C16.4329 6.53652 16.0306 7.55299 16.2812 8.24828C18.3177 4.22476 22.1259 4.44358 25.7577 3.99182C32.7338 3.06661 39.8306 4.00423 46.3271 6.70946C46.7612 6.89299 47.0788 7.49652 47.393 6.46946C47.7106 5.45299 48.0847 5.97887 48.2577 6.62476C48.3635 7.26005 48.6812 7.8424 49.14 8.28358C49.6094 8.72246 50.2092 8.9963 50.8482 9.06358C54.0353 9.4377 54.4694 12.12 55.4082 14.393C55.7082 16.6836 54.8718 18.413 52.7224 19.2989C52.3336 19.4021 51.9964 19.6448 51.7751 19.9806C51.5538 20.3165 51.4638 20.7221 51.5224 21.12C51.5682 22.14 52.1153 22.3695 53.0188 22.6095C55.7824 23.3612 55.8882 23.9153 55.4894 26.9048C55.1718 29.2377 54.9953 31.5177 52.5388 33.1024C54.353 33.8506 56.3506 32.1036 57.3388 33.9177C58.2812 35.5412 58.6447 37.433 58.3871 39.2895C58.2734 39.4462 58.1248 39.5743 57.953 39.6636C57.7808 39.752 57.5887 39.7945 57.3953 39.7871C58.9412 40.2283 60.3141 41.1636 61.2847 42.4483C61.7647 43.553 62.3612 44.7353 60.1906 44.0542C58.8071 42.2471 56.7918 42.9 55.0165 42.8436C53.4762 42.7747 51.9412 43.0672 50.5341 43.6977H50.5059H50.5024ZM194.644 36.6565C193.415 37.2918 193.701 38.4424 193.617 39.5083C193.32 42.8542 194.068 46.1859 193.444 49.5883C193.232 50.6824 192.618 51.6636 191.725 52.3236C189.988 53.813 189.046 55.3589 189.487 57.8789C190.027 60.8647 188.421 62.2483 185.379 61.8742C184.57 61.8241 183.771 61.6723 183 61.4224C181.447 60.8083 180.349 61.0765 179.725 62.693C179.6 63.0019 179.418 63.2845 179.188 63.5259C178.959 63.7669 178.681 63.9569 178.373 64.0836C178.065 64.2098 177.735 64.2757 177.402 64.2777C177.068 64.2789 176.738 64.2104 176.432 64.0765C175.271 63.6706 175.945 62.3083 176.079 61.3271C176.337 59.2624 176.905 57.1483 173.841 56.5342C172.172 56.1953 171.9 56.9083 171.971 58.2036C172.017 58.9942 172.105 59.7706 172.228 60.5506C172.853 64.3553 171.268 65.813 167.495 64.9024C167.005 64.9483 166.747 64.6412 166.631 64.2494C166.631 61.5106 166.112 59.0683 163.465 57.533C162.293 56.8412 162.064 55.4859 161.898 54.1977C161.619 52.1153 161.312 50.1036 159.106 48.9742C158.04 48.4236 157.878 47.213 158.358 46.08C159.364 43.8424 158.068 43.62 156.339 43.7083C155.796 43.7225 155.258 43.8056 154.736 43.9553C151.041 45.0706 151.041 45.0706 149.132 41.7459C149.008 41.4525 148.825 41.1879 148.594 40.9686C148.364 40.7494 148.09 40.5802 147.791 40.4718C145.264 39.8718 145.024 38.0471 144.995 35.8977C144.995 34.0059 144.477 32.1706 144.438 30.2295C144.438 29.5765 144.191 28.8071 143.439 28.7859C142.528 28.7506 142.691 29.6436 142.613 30.2083C142.557 30.8436 142.557 31.4789 142.613 32.1142C142.613 33.7553 142.324 35.2836 140.319 35.5412C138.561 35.7636 136.754 35.8765 136.133 33.6212C135.836 32.5447 134.876 32.1318 134.192 31.4295C132.762 29.94 132.956 28.8353 134.887 27.9706C136.631 27.2224 137.711 25.5495 139.444 24.6883C140.492 24.1659 140.195 22.7259 140.195 21.66C140.195 19.4189 140.414 17.2695 142.959 16.3271C143.291 16.1769 143.557 15.9109 143.707 15.5789C144.378 14.1953 144.889 12.5895 146.771 12.4659C149.824 12.2436 152.884 11.7142 155.947 12.4659C156.889 12.6671 157.069 13.3306 156.695 14.1071C155.735 16.1718 156.872 16.2389 158.414 15.9918C159.223 15.8779 160.047 15.9802 160.804 16.2883C161.379 16.5106 162.064 16.9695 162.427 16.0765C162.572 15.7376 162.583 15.3566 162.459 15.0097C162.334 14.6628 162.084 14.3757 161.757 14.2059C161.525 14.0576 161.271 13.9468 161.005 13.8777C157.885 12.8295 157.437 12.233 157.617 9.47652C157.811 6.49064 159.117 4.87417 161.862 4.38358C162.752 4.23181 163.627 4.00946 164.531 3.90358C167.707 3.50123 168.12 3.75181 168.265 6.89299C168.321 8.12123 168.752 8.54475 169.945 8.20946C170.287 8.10358 169.846 8.20946 170.202 8.13181C176.019 7.25652 178.006 8.88005 178.179 14.7036C179.072 14.8871 179.072 14.0224 179.474 13.6095C181.461 11.5412 184.161 11.82 185.457 14.4142C186.042 15.6459 187.031 16.6448 188.248 17.2483C188.954 17.5659 189.537 18.0953 189.921 18.7659C190.306 19.4365 190.458 20.2165 190.362 20.9753C190.246 22.8812 188.961 23.0436 187.599 23.3224C186.233 23.6012 185.993 24.54 186.032 25.7789C186.109 28.02 186.667 30.2577 186.328 32.4953C186.328 32.8483 186.886 32.5447 186.522 32.5906C186.445 32.5906 186.445 32.5165 186.445 32.3718C186.35 31.6903 186.505 30.9974 186.881 30.4212C187.257 29.8451 187.83 29.4247 188.492 29.2377C189.893 28.7859 191.121 29.3153 192.226 30.2471C193.722 31.4965 193.768 33.4765 194.711 34.9836C194.711 35.5306 194.633 36.0706 194.615 36.6071L194.644 36.6565ZM194.728 35.0118C193.433 34.9659 193.482 33.7942 193.232 33.0353C192.92 32.0928 192.372 31.2459 191.64 30.5753C191.227 30.0972 190.665 29.7732 190.044 29.6565C189.424 29.5398 188.782 29.6373 188.224 29.933C187.08 30.5471 186.349 31.68 187.214 33.12C187.567 33.7342 187.705 34.4365 186.861 34.6095C186.724 34.622 186.586 34.6051 186.455 34.56C186.326 34.5218 186.207 34.4528 186.109 34.3589C186.008 34.2711 185.926 34.1628 185.869 34.0412C185.814 33.9175 185.782 33.7847 185.774 33.6495C185.908 30.593 185.315 27.6071 185.139 24.6C185.061 23.1565 186.434 22.5812 187.828 22.4753C188.577 22.4189 189.826 22.7718 189.632 21.5224C189.469 20.4 190.458 18.8648 188.739 18.1624C186.724 17.3542 184.959 16.4118 184.553 13.9059C184.501 13.6814 184.4 13.4714 184.255 13.2917C184.111 13.112 183.928 12.9673 183.72 12.8683C183.51 12.7718 183.28 12.7259 183.049 12.7342C182.818 12.7425 182.592 12.8015 182.386 12.9071C181.521 13.4259 179.781 12.5789 179.802 14.5483C179.802 16.0377 178.68 16.1153 177.692 15.7589C176.704 15.4059 176.693 14.58 177.173 13.5212C177.96 11.7918 176.241 8.89064 174.36 8.74593C172.86 8.63299 171.374 8.05417 169.878 8.83417C167.908 9.87887 167.301 9.00711 167.428 7.04476C167.591 4.31652 166.998 3.83652 164.213 4.29181C159.526 5.04005 157.86 6.76946 158.231 10.6589C158.347 12.0036 158.358 13.493 160.585 12.8965C161.714 12.6 162.819 13.5671 163.214 14.3859C163.606 15.2012 163.214 16.4895 162.925 17.4812C162.685 18.2295 162.053 17.7283 161.619 17.4212C160.767 16.74 159.694 16.3947 158.605 16.4506C157.539 16.5495 156.438 17.6718 155.418 16.2318C154.401 14.7812 156.332 14.2906 156.388 13.2142C153.529 12.06 150.611 13.1365 147.741 12.9177C145.973 12.7836 144.755 13.4753 144.6 15.4342C144.551 15.9989 144.353 16.6448 143.802 16.7295C140.291 17.2871 140.816 20.0153 140.816 22.3306C140.866 24.2718 140.598 25.7436 138.332 26.0577C136.507 26.3189 136.161 28.8636 133.962 28.8636C133.465 28.8636 133.744 30.48 134.665 31.0059C135.219 31.2789 135.702 31.6771 136.076 32.169C136.449 32.6609 136.703 33.233 136.818 33.84C137.248 35.6647 139.052 34.8883 140.312 34.9059C141.568 34.9271 141.808 33.9353 141.921 32.8412C142.076 31.6024 141.173 30.2189 142.048 29.2095C142.507 28.7012 141.402 27.1553 143.072 27.6565C144.004 27.9212 145.214 28.1047 145.108 29.4318C144.889 31.8918 145.8 34.2636 145.684 36.6953C145.609 38.1847 145.761 39.2577 147.625 39.5542C148.272 39.6041 148.878 39.8935 149.324 40.366C149.77 40.8384 150.023 41.46 150.035 42.1095C150.109 44.9083 152.453 44.4671 153.395 43.68C154.892 42.4095 156.477 43.1612 157.934 42.8718C159.402 42.593 160.412 43.92 159.374 45.3318C157.878 47.4071 158.704 48.3177 160.624 49.2142C162.953 50.2695 162.053 52.673 162.477 54.4377C162.628 55.5918 163.232 56.6471 164.157 57.3671C166.726 59.1847 167.64 61.4153 166.92 64.2671C164.682 64.1506 162.822 62.6259 160.535 62.4812C159.512 62.4318 159.702 61.4824 160.317 60.8859C160.917 60.233 161.746 59.8271 162.628 59.7424C160.4 58.0097 158.576 55.8131 157.281 53.3047C157.069 52.913 157.091 52.26 156.762 52.0765C153.949 50.5095 152.838 47.0506 149.774 45.773C148.2 45.1509 146.884 44.0137 146.04 42.5471C144.618 40.2495 141.614 39.6812 139.32 38.3189C136.009 36.3565 132.589 34.5918 129.607 32.0647C129.367 30.7942 129.095 29.5836 127.436 30.8542C123.575 30.2083 120.007 28.6659 116.358 27.3459C115.811 27.1624 115.062 26.04 114.66 27.6636C114.466 28.4118 113.534 28.2212 113.036 27.8259C110.234 25.5883 106.864 26.213 103.684 25.9059C101.785 25.9059 99.893 25.8283 97.9659 25.9518C97.5071 26.7036 99.1165 27.3848 98.04 27.9989C97.2177 28.4577 96.4765 27.9424 95.8059 27.4518C95.2659 27.06 95.0577 25.6659 93.9918 26.9542C93.8365 27.1448 93.2435 27.0389 92.9435 26.8765C88.6165 24.6389 84.3318 26.3824 80.1177 27.2683C77.0577 27.9212 74.2059 29.5095 71.1035 30.1977C67.8812 31.1506 65.1741 33.12 62.2906 34.7506C60.8718 35.5518 60.42 37.1083 59.9012 38.4812C59.5094 39.5753 59.153 40.0695 58.0659 39.2295C58.2882 37.6836 56.9082 36.5295 57.2224 34.8C57.4165 33.7447 56.0824 33.3142 54.7553 33.7553C53.7882 34.1083 52.4435 35.1459 51.7341 33.473C51.1765 32.1495 52.4824 31.9871 53.3259 31.4612C54.173 30.9389 55.5035 25.02 55.0906 24.2436C54.6424 23.3224 52.98 22.9553 50.9082 23.3118C50.3612 22.4965 51.1941 21.6671 50.8588 20.7565C50.4353 19.6024 50.5412 18.6812 52.3553 18.5189C54.7482 18.353 54.3741 15.72 55.3412 14.2624C58.4047 15.0106 56.4953 17.4706 56.8412 19.0624C57.7906 23.0824 58.853 27.1095 59.0859 31.0059C62.82 32.333 64.4435 28.9589 66.8718 27.0495C68.1212 26.0789 70.6059 26.4706 70.3094 23.8377C72.9106 25.7612 74.8377 22.8212 77.2024 22.8883C80.993 23.0048 84.4977 21.4589 88.1718 20.8518C89.1424 20.6895 90.7165 21.7342 91.4541 20.9753C94.1047 18.48 97.3871 22.4259 99.48 19.5918C99.7762 19.3748 100.118 19.2276 100.479 19.1612C101.979 18.7095 102.035 20.6012 103.129 20.5942C103.165 20.5942 103.264 21.2648 103.878 21.3424C107.88 21.6671 111.914 21.9671 115.895 22.5142C118.489 22.8671 121.26 23.0506 123.328 24.953C124.825 26.2977 126.487 25.1753 128.079 25.7718C130.255 26.4849 132.513 26.9201 134.799 27.0671C135.385 27.1448 136.719 27.2506 136.412 25.4259C136.133 23.753 137.555 22.14 138.035 20.4C139.041 16.673 142.518 13.9236 142.422 9.63181C142.422 8.88005 148.846 6.09534 149.824 5.90476C152.665 5.35417 155.467 4.75064 158.291 4.16476C160.871 3.64593 163.666 4.03064 166.055 2.46358C166.804 2.00476 167.679 2.87652 168.618 2.9224C171.833 3.06005 174.9 3.67417 176.912 6.69181C178.602 9.20828 182.065 9.38122 184.038 11.5906C185.661 13.4259 188.386 14.28 188.912 17.0683C194.248 19.6024 192.371 24.9742 193.472 29.0965C193.991 30.9883 195.593 32.7847 194.721 34.9906L194.728 35.0118ZM38.7529 47.4918C40.5882 47.5695 41.1177 48.8189 41.1741 50.2306C41.2306 51.6424 39.9353 52.313 38.8024 52.2494C37.2353 52.1894 36.5647 50.76 36.4377 49.3871C36.2471 47.7424 37.6694 47.6753 38.7529 47.4918ZM41.1918 193.804C42.24 193.369 42.833 194.396 43.6871 194.598C43.8424 194.598 44.4388 194.986 43.8424 195.293C43.5113 195.389 43.1663 195.427 42.8224 195.406C42.1165 195.032 41.2518 194.824 41.1918 193.804ZM191.294 24.713C191.592 24.7357 191.872 24.8662 192.081 25.08C192.293 25.2918 192.406 25.5777 192.417 25.8777C192.466 26.5765 191.982 26.7706 191.389 26.7706C190.602 26.7706 189.893 26.453 190.027 25.5495C190.084 25.0024 190.62 24.713 191.294 24.713ZM129.942 31.7647C129.125 31.5742 128.375 31.1656 127.772 30.5824C128.262 29.9895 128.336 28.6059 129.201 28.8918C130.496 29.3153 129.766 30.7553 129.949 31.7471L129.942 31.7647ZM76.8247 173.598C76.0796 172.7 75.5299 171.657 75.2108 170.536C74.8918 169.414 74.8104 168.238 74.9718 167.082C75.3022 163.089 76.3595 159.19 78.0918 155.576C78.0459 158.562 76.7012 161.358 76.9694 164.365C77.1035 165.519 76.4612 166.659 76.8953 167.979C78.1588 167.679 79.5071 168.074 80.6294 167.651C83.3471 166.634 85.8035 168.109 88.3835 168.226C89.5059 168.275 90.6318 168.776 91.7718 168.226C92.6647 167.824 93.2718 168.304 93.9141 168.911C95.5377 170.464 97.3024 171.371 99.4624 169.832C100.025 169.534 100.67 169.43 101.298 169.535C103.255 169.475 105.188 169.085 107.015 168.381C109.129 167.689 111.498 166.758 113.919 167.411C114.438 167.566 114.978 167.672 115.521 167.728C118.68 168.007 118.698 168.025 118.931 164.873C118.931 164.058 119.171 163.249 119.622 162.558C119.756 162.531 119.894 162.539 120.025 162.579C120.159 162.614 120.272 162.685 120.371 162.78C122.435 167.199 121.712 171.618 118.355 174.981C116.541 176.746 114.611 178.405 112.574 179.908C110.107 181.849 107.344 183.438 105.106 185.696C104.4 186.268 103.553 186.646 102.66 186.78C102.218 186.889 101.83 187.156 101.572 187.532C101.314 187.907 101.202 188.364 101.259 188.816C101.2 189.307 101.285 189.805 101.504 190.248C101.724 190.692 102.068 191.061 102.494 191.312C104.972 192.801 107.965 192.131 110.502 193.302C111.826 191.248 114.321 193.302 116.012 191.661C116.76 190.955 118.659 191.795 120.081 191.139C122.262 190.133 124.768 189.72 125.718 187.045C125.834 186.748 126.314 186.702 126.688 186.656C131.467 185.291 135.529 183.099 136.994 177.826C137.651 175.511 138.6 173.273 138.9 170.619C141.251 172.856 141.078 174.875 138.6 178.429C137.015 179.622 139.751 181.821 137.576 182.869L135.162 186.06C133.225 186.116 132.176 187.549 130.98 188.788C127.744 190.228 124.249 191.284 121.32 193.264C118.009 195.445 114.296 195.925 110.696 196.772C109.108 197.146 107.393 196.906 105.942 197.961C105.869 198.039 105.777 198.097 105.674 198.127C105.572 198.163 105.464 198.175 105.356 198.162C105.25 198.153 105.146 198.125 105.049 198.078C104.955 198.026 104.873 197.953 104.809 197.866C102.342 195.339 99.3283 196.376 96.4094 196.733C93.4906 197.086 90.8612 196.521 88.08 196.062C85.7259 195.685 83.2977 195.088 80.8694 195.194C76.3871 195.388 73.2247 192.794 69.8682 190.518C69.9816 190.279 70.1526 190.073 70.3659 189.918C72.4765 188.767 73.8247 191.015 75.6565 191.139C78.0459 191.315 80.3012 192.706 82.8177 192.092C82.9977 192.042 83.1918 191.968 83.3365 192.042C87.0106 194.128 90.3918 192.371 93.7977 191.227C94.4143 191.063 94.9585 190.698 95.3435 190.189C95.729 189.678 95.9282 189.051 95.9083 188.411C95.9083 187.281 95.3153 186.173 94.2141 186.452C91.8035 187.048 90.72 185.262 89.0965 184.214C85.2094 181.756 81.6114 178.869 78.3706 175.606C77.7494 174.992 76.8741 174.558 76.7788 173.509L76.8247 173.598ZM39.5894 135.025C40.26 134.036 40.7118 133.006 39.2718 132.374C38.6859 132.113 37.6588 132.42 37.7753 131.404C37.8529 130.595 38.8694 130.616 39.4941 130.299C39.734 130.163 39.965 130.012 40.1859 129.847C39.2929 128.982 37.8318 129.367 37.1224 128.202C37.7753 127.549 38.7247 128.319 39.533 127.906C38.7353 127.013 37.3518 126.695 37.4965 125.245C39.5894 124.899 40.4824 126.466 41.4812 127.782C42.9777 129.886 43.9165 132.335 44.993 134.668C46.4976 138.476 49.0564 141.775 52.3694 144.18C53.1141 144.745 54.2188 145.062 54.2682 146.284C52.733 146.869 51.1765 147.611 50.2659 145.341C50.1882 145.14 49.3024 145.006 49.0165 145.189C47.3365 146.238 46.7012 144.794 45.953 143.919C44.9541 142.729 43.0553 140.982 42.0671 140.654L41.5482 140.502C42.7553 138.011 38.3329 137.513 39.6071 135.007H39.5894V135.025ZM157.175 128.096C157.422 128.234 158.224 127.638 157.924 128.442C157.571 129.367 156.388 129.194 155.555 129.653C155.852 130.511 156.685 130.338 157.225 130.673C158.118 131.22 158.386 131.968 157.098 132.208C155.209 132.554 155.411 133.496 155.869 134.936C156.244 136.091 155.234 137.206 154.977 138.148C153.971 141.575 149.428 141.674 148.998 145.285C148.842 146.456 148.285 145.285 147.921 145.334C146.905 145.468 145.581 144.113 144.935 146.351C144.755 147.021 142.5 146.951 141.201 146.255C141.163 145.993 141.226 145.725 141.378 145.507C144.544 143.142 147.759 140.848 149.672 137.178C150.494 135.582 151.214 133.938 151.818 132.247C152.029 131.538 152.569 131.019 152.788 130.306C153.424 127.991 154.959 127.415 157.137 128.068L157.175 128.096ZM158.622 124.264C160.122 122.622 162.187 122.248 164.259 121.987C165.229 121.864 166.352 122.093 166.412 120.604C167.58 122.036 167.64 122.996 165.392 122.958C163.38 122.958 161.658 123.851 159.893 124.715C159.441 124.638 158.637 125.562 158.622 124.264ZM135.071 149.435L137.633 148.108C138.304 149.329 136.588 150.551 137.633 151.779C137.905 152.432 137.559 152.531 137.04 152.425C137.125 151.405 136.5 150.981 135.657 150.836C134.658 150.656 134.908 150.049 135.099 149.446H135.071V149.435ZM58.1294 148.165C59.2624 147.928 59.6647 149.139 60.54 149.389C60.6247 150.713 59.1741 151.387 58.7753 151.108C58.3281 150.769 58.0175 150.281 57.9 149.732C57.784 149.185 57.8614 148.615 58.1188 148.119V148.168L58.1294 148.165ZM56.5835 156.632C57.053 155.065 58.3024 154.394 57.4765 153.208C57.1977 152.799 57.4765 152.058 57.773 152.019C58.3828 151.982 58.9858 152.163 59.4741 152.531C59.993 152.961 59.0894 153.184 59.0718 153.501C59.0224 154.948 57.8118 155.336 56.5835 156.632ZM137.019 152.425L137.615 151.779C139.2 152.449 137.262 153.769 138.134 154.574L139.027 156.064C137.192 155.718 136.712 154.105 136.002 152.933C135.544 152.185 136.599 152.509 137.012 152.453V152.425H137.019ZM57.4165 103.553C55.5812 105.251 53.2694 106.002 50.9577 106.722C51.5224 102.678 53.1247 101.898 57.4165 103.553ZM51.0141 106.673C50.2059 108.755 48.5647 110.036 46.6941 111.074C45.9424 109.804 45.3282 108.886 47.2694 107.693C48.3958 107.008 49.6925 106.655 51.0106 106.673H51.0141ZM149.979 114.416L147.988 111.134C149.707 111.134 151.309 111.134 151.165 113.686C151.091 114.985 151.917 115.927 153.529 114.6L152.259 116.682L149.979 114.416ZM119.584 162.769C119.426 162.791 119.266 162.764 119.125 162.692C118.902 161.04 118.931 159.198 117.519 158.065C116.771 157.447 117 156.844 116.933 156.208C116.933 156.056 117.251 155.689 117.392 155.7C118.327 155.778 118.288 156.642 118.592 157.235C118.729 157.458 118.874 157.669 119.047 157.86L120.053 162.769H119.834L119.594 162.724L119.584 162.769ZM147.882 111.028C146.569 110.594 146.001 109.422 145.281 108.392C147.402 108.018 148.345 108.847 147.882 111.028ZM45.6 111.522C46.7294 112.609 46.5882 113.015 44.5341 114.282C45.36 113.534 43.5459 111.794 45.5788 111.526H45.6V111.522ZM65.1353 185.654C66.2188 186.568 66.8718 188.414 68.8694 187.278C69.293 187.038 69.8188 187.144 69.9141 187.962C70.0977 188.816 70.3659 189.642 70.7118 190.44L69.8753 190.564C67.2847 189.921 64.3094 189.978 63.1553 186.836C60.66 187.528 60.1694 184.504 58.193 184.08C57.7932 183.732 57.4928 183.285 57.3223 182.783C57.1518 182.282 57.1173 181.744 57.2224 181.225C57.4097 180.569 57.4543 179.88 57.3532 179.206C57.2522 178.531 57.0078 177.886 56.6365 177.314C56.1268 176.432 55.8126 175.451 55.7152 174.437C55.6178 173.423 55.7394 172.4 56.0718 171.438C57.713 175.567 57.0247 181.034 62.273 183.572C62.7318 184.913 64.1824 184.962 65.1141 185.714L65.1353 185.654ZM55.3906 144.815C57.1553 144.064 58.5494 145.899 60.2577 145.564C60.7377 146.082 62.4953 145.881 61.3235 147.371C59.0753 147.187 57.2435 145.948 55.3906 144.833" fill="#020203"/>
<path d="M125.393 119.711C125.488 115.849 129.519 114.233 137.467 114.812C133.359 117.251 127.984 114.964 125.393 119.711ZM133.168 123.092C131.389 124.938 127.821 125.28 126.12 123.639C125.875 123.697 125.624 123.726 125.372 123.727C124.775 123.678 124.076 123.667 124.038 122.813C124.047 122.69 124.087 122.571 124.154 122.467C124.22 122.363 124.308 122.275 124.412 122.209C125.008 121.892 125.372 122.457 125.753 122.718C125.996 122.873 126.042 123.304 126.176 123.611L126.141 123.639L126.187 123.604C127.458 123.604 128.732 123.709 129.971 123.604C132.208 123.381 133.8 122.114 133.973 119.873C134.128 118.087 134.972 117.914 136.422 117.858C135.335 119.721 134.587 121.585 133.168 123.092ZM151.196 121.892C151.196 120.999 149.792 120.882 150.071 119.834C150 119.48 149.849 119.147 149.629 118.861C149.409 118.575 149.127 118.343 148.804 118.182C148.055 117.664 149.322 117.886 149.026 117.512C148.998 117.032 148.948 116.541 148.909 116.022C146.202 109.122 140.968 105.339 133.867 103.839C133.196 103.899 132.533 104.033 131.891 104.227C130.355 103.052 128.799 103.627 127.232 104.005C125.488 104.453 124.338 105.762 123.049 106.874C122.172 107.587 121.494 108.515 121.08 109.567C120.332 109.373 120.526 107.442 119.114 108.508L119.036 109.461C118.622 112.174 118.471 114.921 118.585 117.664C118.585 118.528 119.333 119.382 118.881 120.424C117.971 122.393 118.539 124.151 120.007 125.573C120.727 126.254 121.175 127.175 121.292 128.157C121.583 130.738 122.558 133.196 124.115 135.275C125.678 137.349 127.765 138.97 130.161 139.969C132.448 140.993 134.704 141.289 135.039 144.286C135.088 144.738 135.787 145.034 136.239 145.334C138.226 145.793 139.751 144.48 141.469 143.951C144.399 140.76 148.345 138.388 149.573 133.853C149.537 132.635 149.847 131.433 150.466 130.384C150.946 127.955 149.975 125.389 151.062 122.996H151.147C151.288 122.841 151.369 122.644 151.369 122.432C151.371 122.221 151.291 122.017 151.147 121.864L151.196 121.892ZM71.6435 123.074C71.153 123.956 70.373 123.822 69.5894 123.593V123.621H69.4906C67.8988 125.262 64.4612 124.909 62.58 123.046C61.0836 121.556 60.3812 119.721 59.2765 117.731C60.2083 118.182 61.1965 117.657 61.6306 118.874C63.2718 123.533 63.8188 123.872 68.7812 123.593C69.0176 123.583 69.2542 123.583 69.4906 123.593L69.54 123.544H69.5894C69.6459 122.449 70.3377 122.054 71.3047 122.16C71.6435 122.231 71.8235 122.725 71.6435 123.074ZM58.8459 114.791C60.8612 115.136 62.8412 114.713 64.8283 114.791C67.8106 114.896 70.4824 117.307 70.3341 120.261C67.7259 114.918 62.3965 117.205 58.8459 114.791ZM74.3118 126.155C75.3898 125.474 76.4247 124.727 77.4106 123.918C79.1753 122.294 78.9106 121.68 76.6624 120.671C76.4435 120.575 74.9259 119.612 75.3388 119.181C76.6518 117.829 76.98 116.605 75.1765 114.784L77.0471 115.772C74.1777 113.746 77.6047 110.76 76.0024 108.48C75.2894 109.546 76.1753 110.94 74.5024 111.639C74.0224 108.134 71.3612 106.415 68.7918 104.608C68.7659 104.626 68.7351 104.636 68.7035 104.637C68.6753 104.637 68.6471 104.637 68.6188 104.626C68.59 104.616 68.5635 104.601 68.5412 104.58L68.4847 104.502H65.7671C62.8839 104.553 60.0404 105.183 57.4059 106.355C53.4418 108.119 50.1018 111.037 47.8224 114.729C45.543 118.421 44.4302 122.714 44.6294 127.048C44.82 129.028 45.12 131.001 45.5224 132.949L45.6741 133.832C48.2577 138.088 50.4741 142.662 55.3906 144.861C56.4565 145.479 57.8188 145.256 58.8459 146.132C58.9586 146.244 59.1024 146.321 59.2588 146.351C59.4156 146.384 59.5787 146.372 59.7288 146.316C59.8789 146.259 60.0097 146.161 60.1059 146.033C60.2029 145.905 60.2595 145.752 60.2683 145.592C59.9224 145.267 58.6059 145.274 59.6718 144.448C60.2965 143.979 61.013 143.7 60.6035 142.853C59.5553 140.615 62.1 140.192 62.6506 140.164C67.2071 139.895 69.7977 136.775 71.7388 133.451C72.3247 132.48 74.58 131.728 73.553 129.836C76.2424 129.579 76.7224 127.098 78.1306 125.361C76.74 125.361 75.7024 126.667 74.3188 126.177L74.3118 126.155Z" fill="#020203"/>
<path d="M152.291 132.48C152.049 132.242 151.905 131.922 151.888 131.584C151.878 131.248 151.994 130.92 152.213 130.666C152.665 128.125 155.898 124.737 158.354 124.242C156.36 124.821 153.537 130.585 152.291 132.452V132.48ZM93.4907 124.08C92.9154 122.757 91.6695 121.189 94.1436 121.249C96.1801 121.295 98.3295 119.901 100.126 121.998C98.9622 121.509 97.6632 121.447 96.4581 121.823C95.2531 122.199 94.2196 122.988 93.5401 124.052L93.4907 124.084V124.08ZM152.128 116.693C152.799 118.415 154.814 118.835 155.651 120.498C156.042 121.288 156.918 120.452 157.55 120.18C158.922 119.51 160.442 119.198 161.968 119.274C163.493 119.35 164.975 119.811 166.274 120.614C166.747 121.708 166.362 122.467 165.191 122.46C162.784 122.468 160.431 123.172 158.414 124.486C158.414 124.486 154.278 128.548 152.273 130.924C151.733 130.848 151.239 130.58 150.882 130.168C150.525 129.755 150.329 129.228 150.332 128.682C150.254 127.158 149.88 125.601 150.042 124.073C150.072 123.779 150.147 123.49 150.265 123.219C149.975 120.162 150.84 122.975 150.226 121.874C149.979 120.921 148.73 118.394 148.49 117.473C148.301 116.929 148.216 116.354 148.239 115.779C148.334 114.868 148.592 114.081 149.735 113.965C151.235 114.247 151.426 115.705 152.174 116.654L152.128 116.693ZM85.9554 139.472C83.4514 142.97 80.0732 145.75 76.1583 147.534C72.2434 149.317 67.9289 150.043 63.646 149.637C63.5801 149.492 63.5071 149.35 63.4272 149.213C64.7225 147.784 66.7872 148.994 68.1672 147.851C68.9366 147.544 69.7201 147.293 70.5213 147.102C78.4378 145.189 83.6719 140.326 86.4389 132.727C86.8483 131.019 87.0989 129.268 87.1836 127.504C88.7789 125.379 90.4307 124.62 93.0319 123.247C94.3166 123.409 92.9825 125.167 92.6789 125.824C90.7095 129.981 86.446 139.175 85.9554 139.518V139.472ZM141.261 145.948C141.261 146.104 136.652 148.638 134.908 148.842C130.299 149.178 125.94 149.866 121.458 148.158C119.546 147.294 117.698 146.296 115.927 145.172C114.957 144.621 113.28 142.454 113.728 141.491C115.821 143.097 119.795 145.641 122.27 146.485C126.009 147.6 129.993 147.6 133.733 146.485C135.498 145.966 137.322 145.045 139.32 145.2C140.068 145.246 141.24 144.96 141.24 145.948H141.261ZM69.8189 147.293C68.4777 149.34 65.2872 149.012 63.646 149.637C62.6754 149.58 58.8672 148.684 58.1154 148.147L54.2577 146.266C49.9589 143.432 46.2601 140.068 44.5448 135.025C44.9189 134.555 45.5119 130.444 46.2319 131.029C46.673 133.144 47.4248 135.18 48.4801 137.072C50.1418 140.18 52.6781 142.732 55.7754 144.413C57.6566 145.553 59.6824 146.46 61.793 147.102C64.2213 148.02 68.0824 147.477 69.8189 147.282V147.293ZM92.4848 123.964C90.7095 126.06 90.0142 128.827 88.1154 130.835C86.5519 128.848 87.4448 126.494 87.2225 124.306C87.1389 123.309 87.1709 122.306 87.3178 121.317C88.2883 119.125 88.2883 119.125 90.2366 120.928C91.2848 121.624 91.486 120.681 92.0507 120.134C93.3566 118.895 94.5213 118.578 96.8331 118.299C96.9389 118.377 100.892 117.646 103.564 119.852C105.187 121.172 105.364 121.144 106.239 119.806C107.192 120.219 107.104 121.027 107.093 121.842C107.019 125.464 106.846 129.113 108.035 132.625C108.035 133.295 108.035 133.966 107.114 133.966C106.239 131.834 105.339 129.713 104.502 127.571C103.678 125.296 102.131 123.355 100.098 122.044C96.6601 120.625 94.5213 121.295 92.8483 123.611C92.7356 123.738 92.6103 123.854 92.4742 123.957L92.4848 123.964ZM45.6707 133.79C45.5577 134.46 45.3354 135.046 44.5095 135.06C43.4436 133.002 42.4166 130.927 41.3224 128.891C40.5141 127.256 39.145 125.965 37.4648 125.255C35.8801 123.568 33.0177 124.267 31.6377 122.164C31.5694 122.123 31.4939 122.097 31.4154 122.086C31.3377 122.077 31.259 122.086 31.186 122.114C30.1871 123.759 29.2448 122.866 28.9977 121.818C28.7013 120.579 29.8518 119.898 30.9671 119.697C33.4335 119.129 36.0107 119.276 38.3966 120.12C38.9154 120.332 39.4624 121.165 40.0554 120.491C40.6519 119.82 42.0424 117.388 43.1366 116.524C44.146 115.842 44.6366 116.418 44.9013 117.275C45.2577 118.214 45.2895 119.252 44.9824 120.205C43.2813 124.433 44.146 128.457 45.7307 132.462C45.8246 132.667 45.8667 132.892 45.8531 133.116C45.8396 133.341 45.7709 133.559 45.653 133.751L45.6707 133.786V133.79ZM45.5366 132.925C43.8389 131.753 43.7154 129.667 43.5777 128.089C43.3589 125.538 41.2095 119.735 42.6601 117.12C43.1083 116.305 43.9448 116.104 44.5413 114.307C45.3636 113.555 46.306 111.212 46.6801 111.095C47.8024 109.309 49.4824 108.109 51.0001 106.677L50.9507 106.726C52.7472 104.968 55.186 104.488 57.4095 103.564C59.2556 102.806 61.2473 102.468 63.2401 102.575C65.7072 102.565 68.1742 102.727 70.6201 103.066C70.4189 104.467 69.7977 104.333 69.0848 105.053C64.4683 105.275 59.1495 105.978 55.0236 108.484C48.3989 112.507 43.6166 123.201 46.0095 130.437C46.3448 131.435 46.5177 132.021 45.5366 132.925ZM68.4601 104.495L70.6307 103.073C78.0989 104.322 83.446 108.494 87.0672 114.967C88.1719 116.93 89.1601 118.945 90.1872 120.932C89.4389 121.549 87.7378 120.184 87.1448 122.682C87.0881 121.346 86.7891 120.03 86.2625 118.8C84.4919 114.434 81.3942 110.735 77.4072 108.226C74.8607 106.588 71.995 105.51 69.0001 105.064C68.7546 104.949 68.5502 104.762 68.4142 104.527L68.4601 104.495ZM148.553 117.311C148.13 114.777 145.846 111.547 143.82 109.645C140.93 106.938 139.634 104.795 134.951 104.351C134.728 104.132 132.702 104.351 131.792 104.171C130.871 103.987 131.044 103.027 131.157 102.526C132.982 102.324 134.823 102.324 136.648 102.526C138.095 102.9 139.518 103.362 140.912 103.902C142.737 105.092 144.462 106.419 146.086 107.869C147.141 108.568 147.967 109.56 148.475 110.721C148.475 110.721 149.675 112.662 150.713 114.448C149.587 114.498 148.638 116.69 148.475 117.342L148.553 117.311ZM107.686 132.858C105.755 128.658 107.072 124.105 106.267 119.799C107.763 116.325 109.751 113.083 112.168 110.174C112.486 109.8 115.115 107.322 115.79 107.859C116.46 108.395 113.802 110.647 113.262 111.222C111.167 113.411 109.58 116.036 108.616 118.909C107.652 121.782 107.335 124.832 107.686 127.842C107.841 129.533 108.3 131.206 108.618 132.868C108.568 132.945 108.498 133.007 108.417 133.048C108.335 133.096 108.243 133.121 108.148 133.119C108.054 133.119 107.962 133.095 107.88 133.048C107.804 132.997 107.738 132.933 107.686 132.858ZM134.375 102.928C133.5 103.094 135.17 104.199 133.902 104.255C132.406 104.333 128.75 104.411 127.479 104.852C125.982 104.929 124.207 105.494 122.605 105.667C121.449 106.13 120.253 106.488 119.033 106.737C117.815 107.485 116.347 108.695 115.126 109.394C114.568 108.501 113.63 108.801 114.378 108.311C118.313 105.515 124.274 102.861 129.064 102.565C130.292 102.487 134.421 102.141 134.404 102.939L134.375 102.928ZM107.686 132.858H108.618C109.55 136.92 114.462 141.434 115.694 145.02C112.218 142.56 108.522 137.873 107.139 133.941L107.686 132.858ZM150.05 130.638C150.099 128.852 150.127 127.055 150.212 125.266C150.251 124.433 149.838 123.385 151.105 123.028C151.105 124.892 151.105 126.755 151.182 128.629C151.182 129.445 150.808 130.542 152.21 130.687L152.287 132.491C151.556 135.388 150.207 138.094 148.333 140.422C146.46 142.75 144.105 144.646 141.431 145.98L139.193 145.902C138.897 144.205 140.862 144.586 141.332 143.587C142.002 142.186 143.351 141.399 144.395 140.361C146.366 138.585 147.938 136.41 149.005 133.98C149.445 132.899 149.811 131.79 150.099 130.659L150.05 130.638ZM151.204 123.049V121.895C152.037 122.012 152.806 122.52 153.745 122.27C153.505 122.702 153.105 123.022 152.631 123.162C152.157 123.302 151.647 123.25 151.211 123.018L151.204 123.049ZM141.755 142.821C141.632 144.134 139.518 144.762 139.165 145.874C137.252 145.549 135.833 147.614 133.857 146.961C134.019 146.615 134.344 146.538 134.506 146.213C135.177 145.835 136.006 145.712 136.677 145.338C138.413 145.338 140.164 143.972 141.759 142.849L141.755 142.821ZM150.05 130.638C150.155 131.908 150.099 133.098 148.966 133.962C149.301 132.847 150.021 132.177 150.05 130.638ZM117.12 260.104C118.927 260.181 120.713 259.761 122.471 261C124.034 262.105 128.873 260.248 130.468 256.871C130.292 256.504 130.256 256.086 130.37 255.695C130.475 255.3 130.722 254.965 131.061 254.742C133.585 252.12 134.344 248.778 134.795 245.34C135.353 240.861 134.421 236.481 133.772 232.091C136.631 237.738 136.514 243.695 135.265 249.653C134.532 252.75 133.22 255.681 131.397 258.289C128.411 262.768 126.35 263.248 121.204 261.279C119.933 260.795 118.264 261.279 117.113 260.086L117.124 260.104H117.12ZM98.9225 250.317C100.218 250.267 99.7695 248.855 100.419 248.404C100.91 248.058 101.09 246.858 102.014 247.511C102.713 248.001 102.166 248.527 101.831 249.078C101.601 249.616 101.456 250.186 101.4 250.768C100.775 250.92 99.9778 251.015 99.7942 251.633C98.7883 254.792 96.6283 253.793 94.8883 252.784C93.1519 251.774 92.0789 252.219 90.706 253.437C87.847 256.059 84.4291 257.998 80.7107 259.105C80.1919 259.26 79.666 259.394 79.2142 258.932C81.113 256.991 83.7813 256.377 86.0472 255.049C87.3072 254.301 88.6307 253.708 89.4848 252.572C91.1154 250.412 93.0072 249.96 95.1107 251.601C97.2142 253.235 98.1072 251.968 98.9225 250.317ZM79.2142 258.925L80.7107 259.087C77.7742 260.905 74.2796 261.601 70.8707 261.046C69.4801 260.862 67.9413 260.7 67.3589 259.009C67.6272 259.009 67.9519 258.953 68.146 259.066C70.073 260.241 69.9989 258.011 72.6283 258.279C73.4754 258.307 74.3083 258.445 75.1236 258.692C75.5472 258.769 75.9601 258.897 76.3519 259.066L79.2142 258.925Z" fill="#219A46"/>
<path d="M128.922 243.904C128.672 243.902 128.424 243.845 128.198 243.737C127.972 243.628 127.773 243.471 127.615 243.276C127.457 243.082 127.344 242.854 127.284 242.611C127.225 242.367 127.219 242.114 127.269 241.868C127.319 241.622 127.423 241.391 127.573 241.19C127.723 240.989 127.916 240.824 128.137 240.706C128.359 240.589 128.604 240.522 128.854 240.51C129.105 240.499 129.354 240.543 129.586 240.639C129.897 240.768 130.165 240.985 130.355 241.264C130.526 241.521 130.624 241.82 130.638 242.128C130.653 242.437 130.582 242.744 130.435 243.015C130.288 243.287 130.07 243.514 129.804 243.671C129.538 243.828 129.235 243.91 128.926 243.907L128.922 243.904ZM124.913 229.934C124.913 229.597 125.013 229.268 125.202 228.988C125.391 228.709 125.659 228.493 125.972 228.367C126.283 228.241 126.625 228.209 126.955 228.274C127.284 228.34 127.588 228.499 127.828 228.734C127.993 228.89 128.124 229.078 128.215 229.285C128.306 229.493 128.354 229.717 128.357 229.944C128.36 230.17 128.318 230.395 128.233 230.605C128.147 230.815 128.021 231.006 127.86 231.166C127.7 231.327 127.509 231.453 127.299 231.539C127.089 231.624 126.864 231.666 126.637 231.663C126.411 231.66 126.187 231.612 125.979 231.521C125.772 231.43 125.584 231.299 125.428 231.134C125.265 230.98 125.135 230.794 125.046 230.588C124.958 230.381 124.912 230.159 124.913 229.934ZM123.625 258.816C123.288 258.818 122.959 258.717 122.682 258.526C122.338 258.289 122.093 257.933 121.993 257.527C121.893 257.121 121.946 256.692 122.142 256.322C122.337 255.952 122.661 255.667 123.053 255.52C123.445 255.373 123.877 255.376 124.267 255.526C124.578 255.656 124.844 255.874 125.034 256.153C125.223 256.432 125.327 256.76 125.333 257.097C125.335 257.32 125.293 257.542 125.209 257.75C125.125 257.957 125 258.145 124.842 258.304C124.687 258.468 124.498 258.597 124.288 258.681C124.077 258.767 123.852 258.813 123.625 258.816ZM120.215 246.95C119.876 246.954 119.543 246.857 119.26 246.67C118.977 246.483 118.756 246.215 118.627 245.901C118.497 245.587 118.465 245.242 118.535 244.91C118.604 244.578 118.771 244.274 119.015 244.038C119.258 243.804 119.563 243.646 119.893 243.582C120.224 243.517 120.566 243.549 120.879 243.674C121.29 243.858 121.616 244.192 121.787 244.609C121.959 245.025 121.963 245.492 121.8 245.912C121.676 246.228 121.459 246.498 121.178 246.688C120.897 246.879 120.565 246.979 120.226 246.978V246.95H120.215ZM117.625 254.951C117.287 254.951 116.956 254.854 116.672 254.672C116.392 254.485 116.173 254.222 116.04 253.913C115.908 253.605 115.875 253.263 115.945 252.936C115.992 252.687 116.094 252.453 116.243 252.249C116.393 252.045 116.586 251.877 116.808 251.757C117.031 251.638 117.277 251.569 117.53 251.557C117.782 251.545 118.034 251.589 118.267 251.686C118.579 251.815 118.846 252.032 119.036 252.311C119.227 252.588 119.328 252.917 119.326 253.253C119.329 253.478 119.286 253.701 119.201 253.909C119.117 254.116 118.991 254.305 118.832 254.464C118.511 254.786 118.076 254.969 117.621 254.972L117.625 254.951ZM110.824 239.675C110.487 239.675 110.158 239.571 109.881 239.379C109.668 239.24 109.489 239.054 109.357 238.837C109.225 238.62 109.143 238.375 109.117 238.122C109.092 237.869 109.123 237.613 109.209 237.374C109.294 237.134 109.433 236.917 109.613 236.737C109.794 236.558 110.012 236.421 110.253 236.337C110.493 236.253 110.749 236.224 111.002 236.252C111.255 236.279 111.498 236.363 111.715 236.497C111.931 236.63 112.115 236.811 112.253 237.025C112.392 237.236 112.483 237.476 112.519 237.726C112.555 237.976 112.536 238.232 112.463 238.474C112.389 238.716 112.263 238.939 112.094 239.127C111.925 239.315 111.717 239.464 111.484 239.563C111.274 239.646 111.049 239.688 110.824 239.686V239.675ZM110.824 250.13C110.487 250.129 110.158 250.025 109.881 249.833C109.668 249.694 109.489 249.509 109.357 249.291C109.225 249.074 109.143 248.829 109.117 248.576C109.092 248.323 109.123 248.067 109.209 247.828C109.294 247.588 109.433 247.371 109.613 247.191C109.794 247.012 110.012 246.876 110.253 246.791C110.493 246.707 110.749 246.678 111.002 246.706C111.255 246.733 111.498 246.817 111.715 246.951C111.931 247.085 112.115 247.265 112.253 247.479C112.438 247.757 112.539 248.083 112.542 248.418C112.528 248.864 112.34 249.287 112.019 249.597C111.699 249.907 111.27 250.08 110.824 250.08V250.13ZM103.546 240.53C103.295 240.528 103.048 240.471 102.822 240.362C102.596 240.254 102.397 240.097 102.239 239.902C102.081 239.707 101.968 239.48 101.908 239.237C101.848 238.993 101.843 238.74 101.893 238.494C101.943 238.248 102.047 238.017 102.197 237.816C102.347 237.615 102.539 237.45 102.761 237.332C102.982 237.215 103.227 237.148 103.478 237.136C103.728 237.125 103.978 237.168 104.209 237.265C104.52 237.395 104.786 237.612 104.975 237.89C105.199 238.213 105.3 238.605 105.26 238.996C105.219 239.387 105.041 239.75 104.756 240.021C104.599 240.179 104.412 240.303 104.206 240.388C104 240.473 103.779 240.516 103.556 240.516V240.533L103.546 240.53ZM103.546 249.611C103.118 249.622 102.701 249.47 102.381 249.186C102.06 248.903 101.858 248.508 101.817 248.082C101.775 247.656 101.896 247.229 102.156 246.889C102.416 246.549 102.795 246.319 103.218 246.247C103.549 246.184 103.892 246.218 104.204 246.346C104.516 246.474 104.784 246.69 104.975 246.967C105.199 247.291 105.3 247.684 105.26 248.075C105.22 248.467 105.041 248.831 104.756 249.103C104.599 249.259 104.411 249.383 104.205 249.467C103.999 249.552 103.779 249.594 103.556 249.593V249.611H103.546ZM118.493 234.586C118.746 234.585 118.995 234.64 119.224 234.748C119.453 234.856 119.655 235.013 119.815 235.208C119.975 235.404 120.09 235.632 120.151 235.877C120.212 236.123 120.217 236.378 120.167 236.626C120.116 236.874 120.012 237.107 119.86 237.309C119.708 237.511 119.513 237.677 119.289 237.794C119.065 237.911 118.818 237.977 118.566 237.987C118.313 237.997 118.062 237.95 117.829 237.851C117.519 237.721 117.253 237.504 117.064 237.226C116.908 236.992 116.813 236.723 116.784 236.443C116.756 236.163 116.796 235.881 116.901 235.62C116.984 235.411 117.11 235.222 117.272 235.066C117.431 234.904 117.621 234.776 117.831 234.69C118.041 234.604 118.266 234.561 118.493 234.565V234.586ZM94.5776 240.551C94.1499 240.561 93.7343 240.408 93.4142 240.124C93.0942 239.84 92.8934 239.446 92.8523 239.02C92.8112 238.594 92.9328 238.168 93.1926 237.828C93.4524 237.488 93.8312 237.259 94.2529 237.187C94.5842 237.124 94.9268 237.158 95.2389 237.286C95.5511 237.413 95.8192 237.629 96.0106 237.907C96.1995 238.185 96.2992 238.514 96.2965 238.85C96.2818 239.295 96.0948 239.717 95.7748 240.027C95.4548 240.338 95.0268 240.511 94.5812 240.512L94.5776 240.551ZM94.5776 249.639C94.3269 249.637 94.0797 249.58 93.8537 249.472C93.6276 249.363 93.4284 249.206 93.2704 249.012C93.1124 248.817 92.9994 248.59 92.9396 248.346C92.8799 248.103 92.8747 247.849 92.9247 247.603C92.9746 247.358 93.0783 247.126 93.2284 246.925C93.3785 246.724 93.5712 246.559 93.7927 246.442C94.0142 246.324 94.2589 246.257 94.5094 246.246C94.7598 246.234 95.0097 246.278 95.2412 246.374C95.5529 246.503 95.8202 246.72 96.0106 246.999C96.2296 247.323 96.3264 247.714 96.2837 248.102C96.2411 248.491 96.0617 248.852 95.7776 249.12C95.4541 249.428 95.0244 249.6 94.5776 249.6V249.639ZM86.4212 250.158C86.0849 250.16 85.756 250.059 85.4788 249.868C85.1344 249.631 84.8892 249.275 84.7895 248.869C84.6899 248.463 84.7427 248.034 84.9381 247.664C85.1335 247.294 85.4578 247.009 85.8496 246.862C86.2413 246.716 86.6733 246.718 87.0635 246.868C87.3742 246.999 87.6403 247.217 87.8295 247.496C88.0187 247.774 88.1229 248.102 88.1294 248.439C88.112 248.882 87.9229 249.301 87.6022 249.608C87.2814 249.914 86.8541 250.083 86.4106 250.08L86.4212 250.158ZM83.7035 238.045C83.7033 237.708 83.804 237.378 83.9927 237.099C84.1814 236.82 84.4495 236.603 84.7624 236.478C85.0741 236.351 85.4162 236.318 85.7466 236.382C86.077 236.447 86.3813 236.606 86.6223 236.841C86.8626 237.078 87.0267 237.381 87.0939 237.711C87.161 238.042 87.128 238.384 86.9992 238.696C86.8703 239.008 86.6514 239.274 86.3705 239.46C86.0896 239.646 85.7595 239.745 85.4223 239.743C85.0791 239.744 84.7431 239.644 84.4572 239.454C84.1712 239.264 83.9482 238.994 83.8165 238.677C83.7314 238.464 83.6929 238.235 83.7035 238.006V238.045ZM78.4729 255.011C78.0448 255.022 77.6284 254.87 77.3076 254.586C76.9867 254.303 76.7853 253.908 76.7437 253.482C76.7021 253.056 76.8235 252.629 77.0834 252.289C77.3433 251.949 77.7225 251.719 78.1447 251.647C78.4759 251.584 78.8184 251.618 79.1304 251.746C79.4425 251.874 79.7107 252.09 79.9024 252.367C80.0915 252.645 80.1912 252.974 80.1882 253.31C80.1727 253.754 79.9853 254.176 79.6653 254.485C79.3454 254.795 78.918 254.968 78.4729 254.968V255.011ZM75.0741 245.305C75.0739 244.968 75.1746 244.638 75.3633 244.359C75.552 244.08 75.8201 243.863 76.1329 243.738C76.4446 243.612 76.7861 243.58 77.1158 243.645C77.4455 243.71 77.7491 243.87 77.9894 244.105C78.2768 244.381 78.4577 244.75 78.5004 245.146C78.5431 245.543 78.445 245.942 78.2231 246.273C78.0013 246.604 77.6699 246.847 77.2871 246.958C76.9043 247.07 76.4944 247.043 76.1294 246.883C75.8113 246.752 75.5396 246.53 75.3496 246.243C75.1595 245.957 75.0599 245.62 75.0635 245.277L75.0741 245.305ZM71.6753 231.681C71.3379 231.692 71.005 231.602 70.7189 231.423C70.4327 231.244 70.2061 230.984 70.0678 230.676C69.9295 230.368 69.8858 230.026 69.9421 229.693C69.9984 229.36 70.1523 229.052 70.3842 228.806C70.6161 228.561 70.9156 228.39 71.2447 228.315C71.5739 228.24 71.9178 228.265 72.233 228.386C72.5482 228.506 72.8204 228.718 73.0152 228.994C73.21 229.27 73.3185 229.597 73.3271 229.934C73.3262 230.38 73.1511 230.807 72.8391 231.125C72.5271 231.443 72.103 231.626 71.6576 231.635L71.6753 231.681ZM70.6482 256.712C70.3983 256.709 70.1521 256.651 69.9272 256.542C69.7022 256.433 69.5042 256.276 69.3471 256.081C69.19 255.887 69.0778 255.66 69.0185 255.417C68.9592 255.175 68.9542 254.922 69.0039 254.677C69.0537 254.432 69.1569 254.201 69.3062 254C69.4555 253.8 69.6472 253.635 69.8677 253.517C70.0882 253.399 70.3319 253.332 70.5815 253.319C70.8312 253.306 71.0805 253.349 71.3118 253.444C71.6221 253.574 71.8881 253.791 72.0777 254.068C72.2678 254.346 72.3688 254.675 72.3671 255.011C72.3515 255.456 72.1636 255.878 71.8429 256.188C71.5222 256.497 71.0939 256.67 70.6482 256.67V256.712ZM67.7788 243.953C67.3507 243.964 66.9343 243.812 66.6135 243.529C66.2926 243.245 66.0911 242.85 66.0495 242.424C66.008 241.998 66.1293 241.572 66.3893 241.231C66.6492 240.891 67.0284 240.662 67.4506 240.59C67.7818 240.526 68.1245 240.56 68.4366 240.688C68.7487 240.816 69.0169 241.032 69.2082 241.31C69.3971 241.587 69.4969 241.916 69.4941 242.252C69.4786 242.697 69.2911 243.118 68.9712 243.428C68.6513 243.737 68.2239 243.91 67.7788 243.911V243.953ZM77.5306 234.604C77.9583 234.594 78.374 234.746 78.694 235.03C79.0141 235.314 79.2148 235.709 79.2559 236.135C79.297 236.56 79.1755 236.986 78.9157 237.326C78.6559 237.666 78.277 237.895 77.8553 237.967C77.5241 238.03 77.1816 237.996 76.8696 237.868C76.5575 237.74 76.2893 237.525 76.0977 237.247C75.9098 236.969 75.8113 236.64 75.8153 236.305C75.8042 235.964 75.8963 235.627 76.0795 235.34C76.2628 235.052 76.5286 234.826 76.8424 234.692C77.0489 234.607 77.2686 234.558 77.4918 234.547L77.5306 234.604ZM133.793 232.126C133.458 230.637 132.392 229.666 131.481 228.54C130.924 227.859 128.495 225.706 127.793 225.092C127.377 224.806 126.878 224.668 126.374 224.7C125.47 224.893 124.589 225.179 123.745 225.554C117.946 227.792 112.348 230.375 107.509 234.364V234.459C105.956 235.412 104.668 236.054 103.451 234.96C102.265 234.295 100.945 233.903 99.5881 233.813C98.2313 233.724 96.8715 233.938 95.6082 234.441C94.0624 235.19 91.7365 234.318 90.5012 233.961C89.6753 233.51 80.3541 228.092 79.9129 227.541C79.4364 227.11 78.9018 226.748 78.3247 226.465C76.1859 225.777 74.0541 225.046 71.9047 224.4C71.1565 224.16 70.2353 223.853 69.5929 224.517C67.8741 226.257 65.9929 228.244 65.8588 230.587C65.7628 232.125 65.1251 233.579 64.0588 234.692C63.8118 235.959 62.7459 242.587 62.6118 243.597C62.2588 246.286 62.2871 248.997 63.5435 251.503C64.1965 252.936 66.72 258.007 67.44 258.967C67.7294 259.207 68.0929 259.285 68.3824 259.486C70.1965 260.718 71.7706 261.074 72.8647 258.565C73.1329 257.951 75.7059 259.084 76.4541 259.38C77.3965 259.648 78.3953 259.603 79.2953 259.228C79.8225 258.9 80.3681 258.602 80.9294 258.336C83.8482 256.97 87.0812 255.999 89.34 253.666C91.3518 251.58 93.0706 250.754 95.7635 252.473C97.5282 253.588 96.6529 253.07 97.6976 253.733C99.8118 253.433 100.684 253.567 103.016 252.417C103.948 251.958 104.467 252.494 105.187 252.886C109.295 255.124 112.751 258.41 117.198 260.051C118.539 260.591 120.085 260.188 121.327 260.679C125.672 262.398 128.852 261.35 130.828 257.248C130.706 256.779 130.727 256.285 130.888 255.828C131.049 255.37 131.343 254.972 131.732 254.683C134.495 252.367 135.148 249.043 135.378 245.806C135.831 241.173 135.308 236.495 133.842 232.077L133.793 232.126Z" fill="#219A46"/>
<path d="M267.639 125.718V104.82C272.421 104.82 274.81 102.995 274.81 99.3423C274.81 96 272.986 94.3306 269.34 94.3306C265.69 94.3306 263.838 96.6247 263.788 101.227V153.24H240.088V103.687C240.088 98.5553 240.607 94.3376 241.634 91.0623C242.731 87.6672 244.53 84.5407 246.914 81.8859C249.825 78.6589 253.41 76.1107 257.414 74.4212C261.517 72.6141 265.951 71.6813 270.434 71.6823C278.527 71.6823 285.321 74.4141 290.834 79.86C296.333 85.3059 299.089 92.0506 299.089 100.083C299.089 107.894 296.619 114.236 291.678 119.096C287.167 123.572 280.359 125.813 271.249 125.813L267.639 125.718ZM337.814 113.294V134.283H330.988V153.24H307.278V102.649C307.278 92.8482 309.956 85.2388 315.3 79.8141C320.65 74.3929 328.175 71.6753 337.86 71.6753C347.202 71.6753 354.102 74.1353 358.578 79.0412C363.049 83.9611 365.287 91.5423 365.298 101.806V153.229H341.587V103.38C341.587 100.263 341.22 98.1141 340.482 96.9141C339.741 95.7141 338.428 95.107 336.519 95.107C332.813 95.107 330.967 97.8635 330.967 103.387V113.305L337.814 113.294ZM378.035 153.229V101.576C378.035 92.527 380.753 85.2706 386.178 79.8353C391.609 74.3965 398.831 71.6682 407.845 71.6682C416.809 71.6682 423.692 74.3082 428.481 79.5953C433.274 84.8788 435.653 92.4776 435.635 102.395V153.233H411.932V102.388C411.932 97.5282 410.185 95.0964 406.701 95.0964C403.352 95.0964 401.679 97.5282 401.679 102.388V153.229H378.035ZM473.763 96.5188V153.229H450.053V73.6517H480.935C494.481 73.6517 505.087 76.7294 512.749 82.8564C521.848 90.2047 526.408 100.179 526.408 112.765C526.408 124.811 522.522 134.647 514.754 142.26C506.979 149.876 496.955 153.681 484.687 153.692C482.332 153.663 479.977 153.589 477.625 153.469V130.087H481.433C495.24 130.087 502.14 124.313 502.14 112.775C502.14 101.926 495.353 96.5082 481.772 96.5082L473.763 96.5188ZM566.439 113.294V134.283H559.613V153.24H535.913V102.649C535.913 92.8482 538.592 85.2388 543.939 79.8141C549.286 74.3929 556.811 71.6753 566.506 71.6753C575.848 71.6753 582.748 74.1353 587.223 79.0412C591.695 83.9611 593.943 91.5423 593.951 101.806V153.229H570.261V103.38C570.261 100.263 569.894 98.1141 569.156 96.9141C568.419 95.7141 567.102 95.107 565.2 95.107C561.494 95.107 559.652 97.8635 559.652 103.387V113.305L566.439 113.294ZM242.622 173.453V203.227H262.196V199.863H246.445V189.318H261.092V186.092H246.445V176.682H261.861V173.453H242.626H242.622ZM268.207 203.234H272.125V186.3C272.125 183.84 272.125 181.235 273.526 179.114C274.161 178.182 275.021 177.425 276.025 176.913C277.03 176.401 278.148 176.151 279.275 176.185C280.408 176.138 281.534 176.384 282.546 176.896C283.557 177.409 284.42 178.173 285.053 179.114C286.5 181.352 286.415 184.09 286.415 186.261V203.273H290.333V186.48C290.333 183.54 290.456 179.612 287.781 176.481C286.707 175.297 285.39 174.36 283.92 173.732C282.45 173.105 280.862 172.802 279.265 172.846C277.674 172.795 276.091 173.093 274.627 173.717C273.162 174.341 271.852 175.277 270.787 176.46C268.062 179.689 268.186 183.434 268.186 186.462L268.207 203.234ZM307.602 186.893V190.133H318.508V190.602C318.593 192.909 317.951 195.185 316.673 197.107C315.86 198.231 314.782 199.137 313.534 199.744C312.287 200.351 310.908 200.639 309.522 200.583C308.103 200.622 306.699 200.287 305.453 199.606C304.204 198.933 303.154 197.942 302.41 196.733C300.663 194.04 300.363 190.768 300.363 188.298C300.363 186.06 300.614 182.474 302.41 179.785C303.169 178.592 304.22 177.612 305.463 176.94C306.709 176.269 308.108 175.932 309.522 175.962C310.716 175.911 311.906 176.128 313.005 176.598C314.103 177.069 315.082 177.78 315.868 178.68C317.068 180.074 317.778 181.821 317.866 183.656H321.773C321.458 181.186 320.408 178.867 318.759 177C317.521 175.606 315.987 174.507 314.268 173.786C312.549 173.064 310.69 172.738 308.829 172.831C306.967 172.924 305.15 173.434 303.512 174.324C301.874 175.214 300.457 176.46 299.365 177.971C297.292 181.024 296.247 184.659 296.382 188.347C296.382 191.506 296.89 195.328 299.368 198.73C300.501 200.384 302.03 201.728 303.815 202.641C305.6 203.553 307.585 204.004 309.589 203.954C315.003 204.003 318.106 201.363 319.86 198.73C321.992 195.445 322.366 191.545 322.366 188.481V186.953L307.602 186.893ZM328.761 173.453V203.227H345.801V199.909H332.59V173.453H328.761ZM350.301 173.453V203.227H354.229V173.453H350.301ZM361.073 193.705C361.083 195.215 361.419 196.694 362.061 198.056C362.703 199.412 363.646 200.612 364.807 201.575C367.196 203.439 370.038 203.919 372.678 203.919C375.249 204.017 377.793 203.37 380.005 202.055C381.117 201.33 382.03 200.338 382.662 199.17C383.294 198.002 383.624 196.695 383.622 195.367C383.691 194.034 383.392 192.708 382.758 191.534C382.132 190.357 381.195 189.373 380.051 188.689C378.353 187.595 376.165 186.953 373.235 186.194C370.175 185.386 368.753 185.089 367.708 184.327C367.136 183.939 366.666 183.419 366.337 182.811C366.009 182.203 365.833 181.524 365.823 180.833C365.802 180.14 365.937 179.452 366.218 178.818C366.499 178.184 366.919 177.622 367.447 177.173C368.832 176.297 370.447 175.854 372.085 175.902C373.802 175.846 375.5 176.269 376.991 177.123C378.872 178.412 379.465 180.582 379.553 182.83H383.393C383.379 181.367 383.048 179.924 382.421 178.602C381.795 177.279 380.888 176.109 379.765 175.172C377.624 173.54 374.986 172.696 372.296 172.782C368.562 172.733 366.314 173.799 364.931 174.829C363.982 175.503 363.214 176.399 362.694 177.439C362.174 178.479 361.918 179.631 361.948 180.794C361.909 181.831 362.111 182.863 362.539 183.808C362.967 184.753 363.61 185.586 364.415 186.24C366.335 187.863 368.898 188.481 371.442 189.134C375.406 190.2 376.511 190.581 377.354 191.093C378.085 191.486 378.689 192.079 379.097 192.801C379.504 193.524 379.699 194.348 379.659 195.176C379.667 195.997 379.48 196.808 379.112 197.541C378.738 198.273 378.194 198.904 377.527 199.383C376.087 200.266 374.407 200.71 372.716 200.654C370.778 200.761 368.863 200.178 367.313 199.009C365.65 197.643 365.068 195.819 365.068 193.687H361.073V193.705ZM390.063 173.463V203.234H393.903V189.247H408.794V203.238H412.634V173.463H408.794V185.922H393.886V173.463H390.063ZM429.882 193.715C429.889 195.219 430.226 196.702 430.87 198.061C431.514 199.419 432.449 200.619 433.609 201.575C435.988 203.439 438.84 203.919 441.48 203.919C444.05 204.016 446.593 203.369 448.803 202.055C449.916 201.33 450.83 200.338 451.462 199.17C452.094 198.002 452.425 196.695 452.425 195.367C452.494 194.034 452.194 192.708 451.56 191.534C450.926 190.359 449.987 189.377 448.842 188.689C447.145 187.595 444.974 186.953 442.048 186.194C438.985 185.386 437.562 185.089 436.496 184.327C435.93 183.937 435.464 183.417 435.139 182.81C434.813 182.203 434.638 181.528 434.626 180.84C434.602 180.147 434.738 179.458 435.021 178.825C435.296 178.189 435.72 177.632 436.249 177.18C437.636 176.279 439.262 175.814 440.915 175.846C442.631 175.789 444.321 176.209 445.811 177.074C447.681 178.345 448.278 180.526 448.362 182.774H452.195C452.187 181.31 451.855 179.867 451.225 178.546C450.6 177.221 449.692 176.049 448.563 175.115C446.425 173.48 443.786 172.635 441.095 172.722C437.361 172.687 435.116 173.749 433.733 174.78C432.784 175.453 432.016 176.349 431.495 177.389C430.974 178.43 430.718 179.582 430.747 180.745C430.711 181.781 430.914 182.812 431.342 183.757C431.77 184.701 432.411 185.534 433.214 186.191C435.134 187.814 437.696 188.432 440.241 189.085C444.198 190.151 445.309 190.535 446.163 191.043C446.894 191.437 447.498 192.029 447.906 192.752C448.314 193.475 448.509 194.298 448.468 195.127C448.476 195.947 448.288 196.756 447.919 197.488C447.55 198.22 447.011 198.853 446.347 199.334C444.907 200.216 443.227 200.661 441.536 200.605C439.6 200.71 437.689 200.125 436.143 198.953C434.481 197.598 433.895 195.762 433.895 193.638L429.882 193.715ZM479.573 192.695C479.538 194.742 478.735 196.7 477.325 198.183C476.557 198.97 475.636 199.591 474.62 200.008C473.603 200.426 472.512 200.631 471.413 200.612C469.945 200.624 468.498 200.264 467.206 199.567C465.92 198.865 464.831 197.85 464.04 196.616C462.543 194.329 462.032 191.093 462.032 188.336C462.032 183.695 463.309 181.168 464.04 180.035C464.821 178.787 465.908 177.76 467.199 177.052C468.49 176.344 469.941 175.978 471.413 175.99C472.535 175.948 473.653 176.154 474.687 176.594C475.72 177.034 476.644 177.697 477.392 178.535C478.669 180.025 479.389 181.899 479.439 183.858H483.392C483.233 180.811 481.888 177.949 479.643 175.883C477.398 173.818 474.433 172.715 471.385 172.811C469.369 172.769 467.375 173.224 465.576 174.135C463.778 175.046 462.231 176.385 461.072 178.034C459.101 181.137 458.054 184.735 458.051 188.41C458.051 192.092 459.095 195.685 461.072 198.787C462.231 200.436 463.778 201.775 465.576 202.686C467.375 203.597 469.369 204.052 471.385 204.01C473.061 204.086 474.733 203.792 476.282 203.148C477.832 202.505 479.22 201.528 480.349 200.287C482.175 198.194 483.306 195.586 483.586 192.822L479.573 192.695ZM490.027 173.474V203.245H493.867V189.258H508.814V203.245H512.643V173.474H508.814V185.933H493.867V173.474H490.027ZM519.028 188.365C519.028 183.138 520.563 179.647 522.434 177.353C524.18 175.211 526.594 173.717 529.29 173.11C531.986 172.502 534.807 172.815 537.303 174C538.961 174.785 540.421 175.93 541.578 177.353C543.448 179.647 544.983 183.176 544.983 188.365C544.983 193.553 543.448 197.079 541.578 199.376C540.418 200.798 538.957 201.944 537.299 202.73C535.642 203.517 533.83 203.924 531.995 203.922C530.161 203.923 528.35 203.516 526.693 202.729C525.036 201.943 523.575 200.798 522.416 199.376C520.496 197.058 518.961 193.542 518.961 188.354L519.028 188.365ZM523.031 188.294C523.031 190.419 523.193 193.945 525.102 196.81C525.833 197.982 526.851 198.947 528.059 199.616C529.267 200.285 530.625 200.635 532.006 200.633C533.386 200.635 534.744 200.285 535.952 199.617C537.159 198.948 538.176 197.982 538.906 196.81C540.826 193.945 540.999 190.422 540.999 188.298C540.999 185.481 540.607 182.379 538.906 179.823C538.176 178.652 537.159 177.685 535.952 177.016C534.745 176.346 533.386 175.996 532.006 175.998C530.622 175.998 529.271 176.354 528.06 177.018C526.86 177.688 525.833 178.652 525.102 179.823C523.355 182.358 522.971 185.47 522.971 188.287L523.031 188.298V188.294ZM550.571 188.365C550.571 183.138 552.106 179.647 553.98 177.353C555.139 175.932 556.6 174.788 558.257 174.002C559.914 173.216 561.725 172.809 563.559 172.811C565.394 172.804 567.207 173.208 568.865 173.994C570.524 174.78 571.985 175.928 573.141 177.353C575.012 179.647 576.547 183.176 576.547 188.365C576.547 193.553 575.012 197.079 573.141 199.376C571.982 200.798 570.52 201.944 568.863 202.73C567.205 203.517 565.393 203.924 563.559 203.922C561.725 203.923 559.914 203.516 558.257 202.729C556.6 201.943 555.139 200.798 553.98 199.376C552.06 197.058 550.532 193.542 550.532 188.354L550.571 188.365ZM554.573 188.294C554.573 190.419 554.746 193.945 556.666 196.81C557.397 197.982 558.414 198.947 559.622 199.616C560.83 200.285 562.189 200.635 563.569 200.633C564.95 200.635 566.308 200.285 567.516 199.616C568.724 198.947 569.742 197.982 570.473 196.81C572.393 193.945 572.566 190.422 572.566 188.298C572.566 185.481 572.171 182.379 570.473 179.823C569.742 178.652 568.725 177.686 567.517 177.016C566.309 176.347 564.95 175.996 563.569 175.998C562.189 175.996 560.83 176.346 559.623 177.015C558.415 177.684 557.397 178.649 556.666 179.82C554.929 182.361 554.545 185.474 554.545 188.287L554.573 188.298V188.294ZM582.971 173.481V203.255H600V199.938H586.761V173.453L582.971 173.481Z" fill="black"/>
</g>
<defs>
<clipPath id="clip0_472_169">
<rect width="600" height="264.706" fill="white"/>
</clipPath>
</defs>
</svg>
