<?xml version="1.0" encoding="UTF-8" standalone="no"?>
<!DOCTYPE svg PUBLIC "-//W3C//DTD SVG 1.1//EN" "http://www.w3.org/Graphics/SVG/1.1/DTD/svg11.dtd">
<svg xmlns="http://www.w3.org/2000/svg" version="1.1" viewBox="0.00 0.00 100.00 100.00">
<g stroke-width="2.00" fill="none" stroke-linecap="butt">
<path stroke="#803945" vector-effect="non-scaling-stroke" d="
  M 47.75 9.21
  Q 33.20 24.33 39.53 44.67
  Q 40.06 46.40 41.21 47.98
  Q 41.67 48.61 41.81 47.85
  C 43.13 40.67 50.21 35.13 56.06 42.60"
/>
<path stroke="#6f1801" vector-effect="non-scaling-stroke" d="
  M 56.06 42.60
  L 58.30 47.58
  A 0.46 0.46 0.0 0 0 59.15 47.56
  Q 68.47 24.42 50.58 7.73
  Q 50.18 7.35 49.68 7.55
  Q 48.44 8.04 47.75 9.21"
/>
<path stroke="#ef5146" vector-effect="non-scaling-stroke" d="
  M 56.06 42.60
  Q 59.32 33.44 56.48 24.14"
/>
<path stroke="#6f1801" vector-effect="non-scaling-stroke" d="
  M 56.48 24.14
  Q 55.82 20.60 53.36 17.94"
/>
<path stroke="#ef5146" vector-effect="non-scaling-stroke" d="
  M 53.36 17.94
  Q 52.11 12.59 47.75 9.21"
/>
<path stroke="#803945" vector-effect="non-scaling-stroke" d="
  M 53.36 17.94
  C 43.48 13.80 39.72 28.59 49.65 29.48
  Q 54.32 29.90 56.48 24.14"
/>
<path stroke="#806f2b" vector-effect="non-scaling-stroke" d="
  M 33.86 47.00
  L 36.31 46.68
  Q 36.94 46.59 36.74 45.99
  Q 34.89 40.36 34.49 34.45
  A 0.49 0.49 0.0 0 0 33.78 34.04
  L 28.43 36.72
  Q 27.99 36.94 27.93 37.43
  L 25.25 56.98
  Q 25.18 57.50 25.69 57.65
  C 27.68 58.23 28.85 57.72 29.61 55.70
  Q 31.16 51.58 33.02 47.62
  Q 33.28 47.08 33.86 47.00"
/>
<path stroke="#806f2b" vector-effect="non-scaling-stroke" d="
  M 64.96 39.25
  L 63.14 46.23
  Q 62.99 46.81 63.59 46.75
  Q 65.89 46.53 67.25 48.29"
/>
<path stroke="#7f6701" vector-effect="non-scaling-stroke" d="
  M 67.25 48.29
  L 70.93 57.10
  Q 71.15 57.62 71.70 57.65
  L 74.10 57.79
  Q 74.79 57.83 74.69 57.15
  L 72.01 37.49
  Q 71.93 36.86 71.35 36.59
  L 66.27 34.19
  Q 65.76 33.95 65.67 34.51
  L 64.96 39.25"
/>
<path stroke="#ffd62c" vector-effect="non-scaling-stroke" d="
  M 67.25 48.29
  L 68.45 47.64
  Q 68.86 47.41 68.81 46.94
  L 67.97 39.78
  Q 67.92 39.40 67.55 39.31
  Q 66.24 39.00 64.96 39.25"
/>
<path stroke="#803c29" vector-effect="non-scaling-stroke" d="
  M 48.94 42.32
  Q 46.50 43.77 45.41 46.49
  Q 40.91 57.78 49.44 66.04
  Q 49.86 66.45 50.29 66.05
  Q 58.27 58.67 54.78 47.54
  Q 53.43 43.25 50.05 42.19
  Q 49.47 42.01 48.94 42.32"
/>
<path stroke="#516780" vector-effect="non-scaling-stroke" d="
  M 23.06 60.88
  Q 21.71 60.89 21.88 59.55
  L 23.34 47.46
  Q 23.41 46.83 22.78 46.83
  L 16.32 46.80
  Q 15.70 46.80 15.70 47.42
  L 15.78 87.03
  Q 15.78 87.54 16.29 87.53
  Q 33.64 87.18 50.92 88.77
  C 52.99 88.96 54.29 87.49 56.50 87.49
  Q 70.07 87.52 83.66 87.49
  A 0.79 0.79 0.0 0 0 84.45 86.69
  L 84.26 47.40
  Q 84.25 46.79 83.65 46.80
  L 77.02 46.91
  Q 76.46 46.91 76.53 47.48
  L 78.14 59.75
  A 0.95 0.94 85.6 0 1 77.23 60.82
  L 69.92 60.97
  Q 69.21 60.98 68.94 60.32
  L 65.07 51.06
  Q 64.86 50.54 64.33 50.35
  Q 60.86 49.06 60.06 52.58
  Q 59.00 57.29 57.60 61.96
  Q 57.44 62.50 58.00 62.50
  L 67.49 62.50
  Q 68.73 62.50 68.73 63.74
  L 68.75 83.54
  Q 68.75 84.27 68.02 84.27
  L 32.57 84.39
  A 1.32 1.32 0.0 0 1 31.25 83.07
  L 31.25 64.25
  A 1.75 1.75 0.0 0 1 33.00 62.50
  L 41.99 62.50
  Q 42.51 62.50 42.35 62.00
  C 41.27 58.59 40.70 48.80 35.66 50.24
  Q 35.14 50.38 34.93 50.88
  L 31.04 60.21
  Q 30.78 60.84 30.10 60.84
  L 23.06 60.88"
/>
<path stroke="#537e80" vector-effect="non-scaling-stroke" d="
  M 55.52 65.68
  A 0.83 0.83 0.0 0 0 54.95 65.92
  L 50.42 70.43
  A 0.83 0.83 0.0 0 1 49.23 70.41
  L 44.94 65.78
  A 0.83 0.83 0.0 0 0 44.32 65.51
  L 35.05 65.62
  A 0.83 0.83 0.0 0 0 34.23 66.45
  L 34.29 80.42
  A 0.83 0.83 0.0 0 0 35.12 81.25
  L 64.86 81.25
  A 0.83 0.83 0.0 0 0 65.69 80.42
  L 65.73 66.34
  A 0.83 0.83 0.0 0 0 64.88 65.51
  L 55.52 65.68"
/>
<path stroke="#707071" vector-effect="non-scaling-stroke" d="
  M 56.28 91.11
  C 54.48 92.75 47.74 91.90 45.12 91.64
  C 34.68 90.60 24.29 90.72 13.81 90.75
  Q 12.92 90.75 13.19 91.59
  L 13.72 93.25
  Q 13.87 93.75 14.40 93.75
  Q 49.31 93.76 84.23 93.75
  C 85.84 93.75 86.80 92.92 86.65 91.31
  Q 86.60 90.75 86.04 90.75
  L 57.22 90.75
  Q 56.69 90.75 56.28 91.11"
/>
<path stroke="#516780" vector-effect="non-scaling-stroke" d="
  M 53.05 23.36
  A 3.07 3.07 0.0 0 0 49.98 20.29
  A 3.07 3.07 0.0 0 0 46.91 23.36
  A 3.07 3.07 0.0 0 0 49.98 26.43
  A 3.07 3.07 0.0 0 0 53.05 23.36"
/>
<path stroke="#803c29" vector-effect="non-scaling-stroke" d="
  M 51.69 46.83
  A 1.74 1.74 0.0 0 0 49.95 45.09
  A 1.74 1.74 0.0 0 0 48.21 46.83
  A 1.74 1.74 0.0 0 0 49.95 48.57
  A 1.74 1.74 0.0 0 0 51.69 46.83"
/>
<path stroke="#803c29" vector-effect="non-scaling-stroke" d="
  M 51.4917 52.3474
  A 0.88 0.88 0.0 0 0 50.6102 51.4689
  L 49.3702 51.4711
  A 0.88 0.88 0.0 0 0 48.4917 52.3526
  L 48.5083 61.8526
  A 0.88 0.88 0.0 0 0 49.3898 62.7311
  L 50.6298 62.7289
  A 0.88 0.88 0.0 0 0 51.5083 61.8474
  L 51.4917 52.3474"
/>
<path stroke="#516780" vector-effect="non-scaling-stroke" d="
  M 28.1021 69.1066
  A 0.43 0.43 0.0 0 0 27.6654 68.6834
  L 19.1665 68.8169
  A 0.43 0.43 0.0 0 0 18.7433 69.2536
  L 18.7779 71.4534
  A 0.43 0.43 0.0 0 0 19.2146 71.8766
  L 27.7135 71.7431
  A 0.43 0.43 0.0 0 0 28.1367 71.3064
  L 28.1021 69.1066"
/>
<path stroke="#516780" vector-effect="non-scaling-stroke" d="
  M 81.24 69.25
  A 0.49 0.49 0.0 0 0 80.75 68.76
  L 72.37 68.76
  A 0.49 0.49 0.0 0 0 71.88 69.25
  L 71.88 71.51
  A 0.49 0.49 0.0 0 0 72.37 72.00
  L 80.75 72.00
  A 0.49 0.49 0.0 0 0 81.24 71.51
  L 81.24 69.25"
/>
<path stroke="#516780" vector-effect="non-scaling-stroke" d="
  M 28.0037 76.0020
  A 0.98 0.98 0.0 0 0 27.0219 75.0237
  L 19.7620 75.0363
  A 0.98 0.98 0.0 0 0 18.7837 76.0181
  L 18.7963 83.2780
  A 0.98 0.98 0.0 0 0 19.7781 84.2563
  L 27.0380 84.2437
  A 0.98 0.98 0.0 0 0 28.0163 83.2619
  L 28.0037 76.0020"
/>
<path stroke="#516780" vector-effect="non-scaling-stroke" d="
  M 81.2730 76.0064
  A 0.98 0.98 0.0 0 0 80.2965 75.0229
  L 72.8965 74.9971
  A 0.98 0.98 0.0 0 0 71.9131 75.9737
  L 71.8870 83.4536
  A 0.98 0.98 0.0 0 0 72.8635 84.4371
  L 80.2635 84.4629
  A 0.98 0.98 0.0 0 0 81.2469 83.4863
  L 81.2730 76.0064"
/>
<path stroke="#806f2b" vector-effect="non-scaling-stroke" d="
  M 24.9922 78.5252
  A 0.46 0.46 0.0 0 0 24.5250 78.0724
  L 22.2653 78.1079
  A 0.46 0.46 0.0 0 0 21.8126 78.5751
  L 21.8478 80.8148
  A 0.46 0.46 0.0 0 0 22.3150 81.2676
  L 24.5747 81.2321
  A 0.46 0.46 0.0 0 0 25.0274 80.7649
  L 24.9922 78.5252"
/>
<path stroke="#806f2b" vector-effect="non-scaling-stroke" d="
  M 78.2342 79.1741
  A 1.04 1.04 0.0 0 0 77.2424 78.0880
  L 76.0836 78.0353
  A 1.04 1.04 0.0 0 0 74.9975 79.0271
  L 74.9458 80.1659
  A 1.04 1.04 0.0 0 0 75.9376 81.2520
  L 77.0964 81.3047
  A 1.04 1.04 0.0 0 0 78.1825 80.3129
  L 78.2342 79.1741"
/>
</g>
<path fill="#000000" d="
  M 27.98 5.74
  L 28.35 3.76
  Q 28.45 3.21 29.00 3.18
  L 30.44 3.10
  Q 31.08 3.06 31.16 3.70
  L 31.39 5.66
  Q 31.48 6.41 32.22 6.28
  Q 33.02 6.13 33.80 6.40
  Q 35.51 6.98 34.51 8.49
  Q 33.62 9.84 32.04 9.48
  Q 31.47 9.35 31.38 9.92
  L 31.02 12.09
  Q 30.91 12.77 30.22 12.71
  L 28.79 12.59
  Q 28.12 12.53 28.22 11.87
  Q 28.67 8.83 25.65 9.28
  Q 24.94 9.39 24.97 8.67
  L 25.07 6.79
  Q 25.10 6.07 25.82 6.14
  L 27.25 6.29
  Q 27.86 6.35 27.98 5.74
  Z"
/>
<path fill="#000000" d="
  M 72.45 6.25
  L 74.26 6.25
  Q 75.02 6.25 75.01 7.01
  L 74.98 8.88
  Q 74.97 9.62 74.27 9.37
  C 72.08 8.61 71.71 10.17 71.75 11.88
  Q 71.77 12.63 71.02 12.62
  L 69.54 12.60
  Q 68.83 12.59 68.87 11.88
  Q 69.02 9.03 66.41 9.17
  Q 65.66 9.21 65.59 8.46
  L 65.46 7.22
  Q 65.40 6.58 66.03 6.47
  L 68.16 6.10
  Q 68.75 6.00 68.75 5.41
  L 68.75 3.63
  Q 68.75 2.93 69.45 2.98
  L 71.42 3.11
  Q 72.25 3.16 72.06 3.97
  L 71.75 5.38
  Q 71.55 6.25 72.45 6.25
  Z"
/>
<path fill="#000000" d="
  M 24.16 42.26
  L 25.21 35.42
  Q 25.30 34.87 25.79 34.62
  L 33.72 30.62
  Q 34.16 30.39 34.24 29.91
  Q 36.78 14.11 48.89 3.62
  A 1.67 1.66 45.1 0 1 51.07 3.63
  Q 63.05 14.06 65.68 29.72
  Q 65.81 30.45 66.48 30.77
  L 73.63 34.16
  Q 74.19 34.43 74.39 35.00
  Q 75.55 38.20 75.47 41.63
  A 2.07 2.07 0.0 0 0 77.54 43.75
  L 86.75 43.75
  A 0.75 0.75 0.0 0 1 87.50 44.50
  L 87.50 86.63
  Q 87.50 87.21 88.05 87.39
  L 89.45 87.86
  A 1.38 1.38 0.0 0 1 90.37 89.49
  L 88.80 96.13
  Q 88.70 96.57 88.26 96.64
  Q 85.44 97.13 83.75 97.11
  Q 47.54 96.53 16.75 96.91
  Q 13.93 96.94 11.71 96.62
  Q 11.16 96.54 11.04 96.00
  L 9.58 88.81
  Q 9.44 88.09 10.15 87.90
  L 11.55 87.53
  A 1.31 1.29 -7.6 0 0 12.52 86.28
  L 12.66 44.46
  A 0.69 0.69 0.0 0 1 13.35 43.78
  L 22.49 43.70
  Q 23.93 43.69 24.16 42.26
  Z
  M 47.75 9.21
  Q 33.20 24.33 39.53 44.67
  Q 40.06 46.40 41.21 47.98
  Q 41.67 48.61 41.81 47.85
  C 43.13 40.67 50.21 35.13 56.06 42.60
  L 58.30 47.58
  A 0.46 0.46 0.0 0 0 59.15 47.56
  Q 68.47 24.42 50.58 7.73
  Q 50.18 7.35 49.68 7.55
  Q 48.44 8.04 47.75 9.21
  Z
  M 33.86 47.00
  L 36.31 46.68
  Q 36.94 46.59 36.74 45.99
  Q 34.89 40.36 34.49 34.45
  A 0.49 0.49 0.0 0 0 33.78 34.04
  L 28.43 36.72
  Q 27.99 36.94 27.93 37.43
  L 25.25 56.98
  Q 25.18 57.50 25.69 57.65
  C 27.68 58.23 28.85 57.72 29.61 55.70
  Q 31.16 51.58 33.02 47.62
  Q 33.28 47.08 33.86 47.00
  Z
  M 64.96 39.25
  L 63.14 46.23
  Q 62.99 46.81 63.59 46.75
  Q 65.89 46.53 67.25 48.29
  L 70.93 57.10
  Q 71.15 57.62 71.70 57.65
  L 74.10 57.79
  Q 74.79 57.83 74.69 57.15
  L 72.01 37.49
  Q 71.93 36.86 71.35 36.59
  L 66.27 34.19
  Q 65.76 33.95 65.67 34.51
  L 64.96 39.25
  Z
  M 48.94 42.32
  Q 46.50 43.77 45.41 46.49
  Q 40.91 57.78 49.44 66.04
  Q 49.86 66.45 50.29 66.05
  Q 58.27 58.67 54.78 47.54
  Q 53.43 43.25 50.05 42.19
  Q 49.47 42.01 48.94 42.32
  Z
  M 23.06 60.88
  Q 21.71 60.89 21.88 59.55
  L 23.34 47.46
  Q 23.41 46.83 22.78 46.83
  L 16.32 46.80
  Q 15.70 46.80 15.70 47.42
  L 15.78 87.03
  Q 15.78 87.54 16.29 87.53
  Q 33.64 87.18 50.92 88.77
  C 52.99 88.96 54.29 87.49 56.50 87.49
  Q 70.07 87.52 83.66 87.49
  A 0.79 0.79 0.0 0 0 84.45 86.69
  L 84.26 47.40
  Q 84.25 46.79 83.65 46.80
  L 77.02 46.91
  Q 76.46 46.91 76.53 47.48
  L 78.14 59.75
  A 0.95 0.94 85.6 0 1 77.23 60.82
  L 69.92 60.97
  Q 69.21 60.98 68.94 60.32
  L 65.07 51.06
  Q 64.86 50.54 64.33 50.35
  Q 60.86 49.06 60.06 52.58
  Q 59.00 57.29 57.60 61.96
  Q 57.44 62.50 58.00 62.50
  L 67.49 62.50
  Q 68.73 62.50 68.73 63.74
  L 68.75 83.54
  Q 68.75 84.27 68.02 84.27
  L 32.57 84.39
  A 1.32 1.32 0.0 0 1 31.25 83.07
  L 31.25 64.25
  A 1.75 1.75 0.0 0 1 33.00 62.50
  L 41.99 62.50
  Q 42.51 62.50 42.35 62.00
  C 41.27 58.59 40.70 48.80 35.66 50.24
  Q 35.14 50.38 34.93 50.88
  L 31.04 60.21
  Q 30.78 60.84 30.10 60.84
  L 23.06 60.88
  Z
  M 55.52 65.68
  A 0.83 0.83 0.0 0 0 54.95 65.92
  L 50.42 70.43
  A 0.83 0.83 0.0 0 1 49.23 70.41
  L 44.94 65.78
  A 0.83 0.83 0.0 0 0 44.32 65.51
  L 35.05 65.62
  A 0.83 0.83 0.0 0 0 34.23 66.45
  L 34.29 80.42
  A 0.83 0.83 0.0 0 0 35.12 81.25
  L 64.86 81.25
  A 0.83 0.83 0.0 0 0 65.69 80.42
  L 65.73 66.34
  A 0.83 0.83 0.0 0 0 64.88 65.51
  L 55.52 65.68
  Z
  M 56.28 91.11
  C 54.48 92.75 47.74 91.90 45.12 91.64
  C 34.68 90.60 24.29 90.72 13.81 90.75
  Q 12.92 90.75 13.19 91.59
  L 13.72 93.25
  Q 13.87 93.75 14.40 93.75
  Q 49.31 93.76 84.23 93.75
  C 85.84 93.75 86.80 92.92 86.65 91.31
  Q 86.60 90.75 86.04 90.75
  L 57.22 90.75
  Q 56.69 90.75 56.28 91.11
  Z"
/>
<path fill="#de3002" d="
  M 56.06 42.60
  Q 59.32 33.44 56.48 24.14
  Q 55.82 20.60 53.36 17.94
  Q 52.11 12.59 47.75 9.21
  Q 48.44 8.04 49.68 7.55
  Q 50.18 7.35 50.58 7.73
  Q 68.47 24.42 59.15 47.56
  A 0.46 0.46 0.0 0 1 58.30 47.58
  L 56.06 42.60
  Z"
/>
<path fill="#ff7289" d="
  M 47.75 9.21
  Q 52.11 12.59 53.36 17.94
  C 43.48 13.80 39.72 28.59 49.65 29.48
  Q 54.32 29.90 56.48 24.14
  Q 59.32 33.44 56.06 42.60
  C 50.21 35.13 43.13 40.67 41.81 47.85
  Q 41.67 48.61 41.21 47.98
  Q 40.06 46.40 39.53 44.67
  Q 33.20 24.33 47.75 9.21
  Z"
/>
<path fill="#000000" d="
  M 19.52 18.80
  Q 18.06 19.40 18.70 20.65
  Q 19.00 21.23 18.45 21.57
  Q 17.50 22.17 16.39 21.78
  Q 15.87 21.59 15.81 21.04
  L 15.66 19.50
  Q 15.59 18.75 14.83 18.75
  L 13.57 18.75
  Q 13.02 18.75 12.75 18.27
  C 12.13 17.15 12.46 15.22 14.22 15.73
  Q 14.78 15.89 15.17 15.47
  Q 16.00 14.57 15.71 13.31
  Q 15.54 12.59 16.28 12.56
  L 18.11 12.50
  Q 18.89 12.47 18.75 13.24
  Q 18.29 15.78 20.71 15.75
  A 1.08 1.08 0.0 0 1 21.77 16.56
  Q 22.44 19.16 20.05 18.74
  A 0.95 0.90 -50.0 0 0 19.52 18.80
  Z"
/>
<path fill="#000000" d="
  M 80.62 18.75
  L 78.77 18.75
  Q 78.03 18.75 78.07 18.01
  L 78.17 16.20
  Q 78.20 15.61 78.79 15.65
  L 80.57 15.75
  Q 81.25 15.79 81.25 15.11
  L 81.25 13.12
  Q 81.25 12.49 81.88 12.49
  L 84.14 12.52
  Q 84.93 12.53 84.54 13.21
  Q 83.92 14.28 84.41 15.27
  Q 84.69 15.81 85.30 15.77
  L 86.93 15.65
  Q 87.50 15.61 87.50 16.18
  L 87.50 18.12
  Q 87.50 18.75 86.88 18.75
  L 84.99 18.75
  Q 84.15 18.75 84.26 19.58
  L 84.45 21.07
  Q 84.53 21.72 83.88 21.80
  L 81.97 22.04
  Q 81.25 22.12 81.25 21.40
  L 81.25 19.38
  Q 81.25 18.75 80.62 18.75
  Z"
/>
<path fill="#000000" d="
  M 53.36 17.94
  Q 55.82 20.60 56.48 24.14
  Q 54.32 29.90 49.65 29.48
  C 39.72 28.59 43.48 13.80 53.36 17.94
  Z
  M 53.05 23.36
  A 3.07 3.07 0.0 0 0 49.98 20.29
  A 3.07 3.07 0.0 0 0 46.91 23.36
  A 3.07 3.07 0.0 0 0 49.98 26.43
  A 3.07 3.07 0.0 0 0 53.05 23.36
  Z"
/>
<circle fill="#a2cdff" cx="49.98" cy="23.36" r="3.07"/>
<path fill="#ffde55" d="
  M 33.02 47.62
  Q 31.16 51.58 29.61 55.70
  C 28.85 57.72 27.68 58.23 25.69 57.65
  Q 25.18 57.50 25.25 56.98
  L 27.93 37.43
  Q 27.99 36.94 28.43 36.72
  L 33.78 34.04
  A 0.49 0.49 0.0 0 1 34.49 34.45
  Q 34.89 40.36 36.74 45.99
  Q 36.94 46.59 36.31 46.68
  L 33.86 47.00
  Q 33.28 47.08 33.02 47.62
  Z"
/>
<path fill="#fece02" d="
  M 67.25 48.29
  L 68.45 47.64
  Q 68.86 47.41 68.81 46.94
  L 67.97 39.78
  Q 67.92 39.40 67.55 39.31
  Q 66.24 39.00 64.96 39.25
  L 65.67 34.51
  Q 65.76 33.95 66.27 34.19
  L 71.35 36.59
  Q 71.93 36.86 72.01 37.49
  L 74.69 57.15
  Q 74.79 57.83 74.10 57.79
  L 71.70 57.65
  Q 71.15 57.62 70.93 57.10
  L 67.25 48.29
  Z"
/>
<path fill="#ffde55" d="
  M 67.25 48.29
  Q 65.89 46.53 63.59 46.75
  Q 62.99 46.81 63.14 46.23
  L 64.96 39.25
  Q 66.24 39.00 67.55 39.31
  Q 67.92 39.40 67.97 39.78
  L 68.81 46.94
  Q 68.86 47.41 68.45 47.64
  L 67.25 48.29
  Z"
/>
<path fill="#ff7752" d="
  M 50.05 42.19
  Q 53.43 43.25 54.78 47.54
  Q 58.27 58.67 50.29 66.05
  Q 49.86 66.45 49.44 66.04
  Q 40.91 57.78 45.41 46.49
  Q 46.50 43.77 48.94 42.32
  Q 49.47 42.01 50.05 42.19
  Z
  M 51.69 46.83
  A 1.74 1.74 0.0 0 0 49.95 45.09
  A 1.74 1.74 0.0 0 0 48.21 46.83
  A 1.74 1.74 0.0 0 0 49.95 48.57
  A 1.74 1.74 0.0 0 0 51.69 46.83
  Z
  M 51.4917 52.3474
  A 0.88 0.88 0.0 0 0 50.6102 51.4689
  L 49.3702 51.4711
  A 0.88 0.88 0.0 0 0 48.4917 52.3526
  L 48.5083 61.8526
  A 0.88 0.88 0.0 0 0 49.3898 62.7311
  L 50.6298 62.7289
  A 0.88 0.88 0.0 0 0 51.5083 61.8474
  L 51.4917 52.3474
  Z"
/>
<circle fill="#000000" cx="49.95" cy="46.83" r="1.74"/>
<path fill="#a2cdff" d="
  M 23.06 60.88
  L 30.10 60.84
  Q 30.78 60.84 31.04 60.21
  L 34.93 50.88
  Q 35.14 50.38 35.66 50.24
  C 40.70 48.80 41.27 58.59 42.35 62.00
  Q 42.51 62.50 41.99 62.50
  L 33.00 62.50
  A 1.75 1.75 0.0 0 0 31.25 64.25
  L 31.25 83.07
  A 1.32 1.32 0.0 0 0 32.57 84.39
  L 68.02 84.27
  Q 68.75 84.27 68.75 83.54
  L 68.73 63.74
  Q 68.73 62.50 67.49 62.50
  L 58.00 62.50
  Q 57.44 62.50 57.60 61.96
  Q 59.00 57.29 60.06 52.58
  Q 60.86 49.06 64.33 50.35
  Q 64.86 50.54 65.07 51.06
  L 68.94 60.32
  Q 69.21 60.98 69.92 60.97
  L 77.23 60.82
  A 0.95 0.94 85.6 0 0 78.14 59.75
  L 76.53 47.48
  Q 76.46 46.91 77.02 46.91
  L 83.65 46.80
  Q 84.25 46.79 84.26 47.40
  L 84.45 86.69
  A 0.79 0.79 0.0 0 1 83.66 87.49
  Q 70.07 87.52 56.50 87.49
  C 54.29 87.49 52.99 88.96 50.92 88.77
  Q 33.64 87.18 16.29 87.53
  Q 15.78 87.54 15.78 87.03
  L 15.70 47.42
  Q 15.70 46.80 16.32 46.80
  L 22.78 46.83
  Q 23.41 46.83 23.34 47.46
  L 21.88 59.55
  Q 21.71 60.89 23.06 60.88
  Z
  M 28.1021 69.1066
  A 0.43 0.43 0.0 0 0 27.6654 68.6834
  L 19.1665 68.8169
  A 0.43 0.43 0.0 0 0 18.7433 69.2536
  L 18.7779 71.4534
  A 0.43 0.43 0.0 0 0 19.2146 71.8766
  L 27.7135 71.7431
  A 0.43 0.43 0.0 0 0 28.1367 71.3064
  L 28.1021 69.1066
  Z
  M 81.24 69.25
  A 0.49 0.49 0.0 0 0 80.75 68.76
  L 72.37 68.76
  A 0.49 0.49 0.0 0 0 71.88 69.25
  L 71.88 71.51
  A 0.49 0.49 0.0 0 0 72.37 72.00
  L 80.75 72.00
  A 0.49 0.49 0.0 0 0 81.24 71.51
  L 81.24 69.25
  Z
  M 28.0037 76.0020
  A 0.98 0.98 0.0 0 0 27.0219 75.0237
  L 19.7620 75.0363
  A 0.98 0.98 0.0 0 0 18.7837 76.0181
  L 18.7963 83.2780
  A 0.98 0.98 0.0 0 0 19.7781 84.2563
  L 27.0380 84.2437
  A 0.98 0.98 0.0 0 0 28.0163 83.2619
  L 28.0037 76.0020
  Z
  M 81.2730 76.0064
  A 0.98 0.98 0.0 0 0 80.2965 75.0229
  L 72.8965 74.9971
  A 0.98 0.98 0.0 0 0 71.9131 75.9737
  L 71.8870 83.4536
  A 0.98 0.98 0.0 0 0 72.8635 84.4371
  L 80.2635 84.4629
  A 0.98 0.98 0.0 0 0 81.2469 83.4863
  L 81.2730 76.0064
  Z"
/>
<rect fill="#000000" x="-1.50" y="-5.63" transform="translate(50.00,57.10) rotate(-0.1)" width="3.00" height="11.26" rx="0.88"/>
<path fill="#a6fbff" d="
  M 55.52 65.68
  L 64.88 65.51
  A 0.83 0.83 0.0 0 1 65.73 66.34
  L 65.69 80.42
  A 0.83 0.83 0.0 0 1 64.86 81.25
  L 35.12 81.25
  A 0.83 0.83 0.0 0 1 34.29 80.42
  L 34.23 66.45
  A 0.83 0.83 0.0 0 1 35.05 65.62
  L 44.32 65.51
  A 0.83 0.83 0.0 0 1 44.94 65.78
  L 49.23 70.41
  A 0.83 0.83 0.0 0 0 50.42 70.43
  L 54.95 65.92
  A 0.83 0.83 0.0 0 1 55.52 65.68
  Z"
/>
<rect fill="#000000" x="-4.68" y="-1.53" transform="translate(23.44,70.28) rotate(-0.9)" width="9.36" height="3.06" rx="0.43"/>
<rect fill="#000000" x="71.88" y="68.76" width="9.36" height="3.24" rx="0.49"/>
<path fill="#000000" d="
  M 28.0163 83.2619
  A 0.98 0.98 0.0 0 1 27.0380 84.2437
  L 19.7781 84.2563
  A 0.98 0.98 0.0 0 1 18.7963 83.2780
  L 18.7837 76.0181
  A 0.98 0.98 0.0 0 1 19.7620 75.0363
  L 27.0219 75.0237
  A 0.98 0.98 0.0 0 1 28.0037 76.0020
  L 28.0163 83.2619
  Z
  M 24.9922 78.5252
  A 0.46 0.46 0.0 0 0 24.5250 78.0724
  L 22.2653 78.1079
  A 0.46 0.46 0.0 0 0 21.8126 78.5751
  L 21.8478 80.8148
  A 0.46 0.46 0.0 0 0 22.3150 81.2676
  L 24.5747 81.2321
  A 0.46 0.46 0.0 0 0 25.0274 80.7649
  L 24.9922 78.5252
  Z"
/>
<path fill="#000000" d="
  M 81.2469 83.4863
  A 0.98 0.98 0.0 0 1 80.2635 84.4629
  L 72.8635 84.4371
  A 0.98 0.98 0.0 0 1 71.8870 83.4536
  L 71.9131 75.9737
  A 0.98 0.98 0.0 0 1 72.8965 74.9971
  L 80.2965 75.0229
  A 0.98 0.98 0.0 0 1 81.2730 76.0064
  L 81.2469 83.4863
  Z
  M 78.2342 79.1741
  A 1.04 1.04 0.0 0 0 77.2424 78.0880
  L 76.0836 78.0353
  A 1.04 1.04 0.0 0 0 74.9975 79.0271
  L 74.9458 80.1659
  A 1.04 1.04 0.0 0 0 75.9376 81.2520
  L 77.0964 81.3047
  A 1.04 1.04 0.0 0 0 78.1825 80.3129
  L 78.2342 79.1741
  Z"
/>
<rect fill="#ffde55" x="-1.59" y="-1.58" transform="translate(23.42,79.67) rotate(-0.9)" width="3.18" height="3.16" rx="0.46"/>
<rect fill="#ffde55" x="-1.62" y="-1.61" transform="translate(76.59,79.67) rotate(2.6)" width="3.24" height="3.22" rx="1.04"/>
<path fill="#e0dfe1" d="
  M 45.12 91.64
  C 47.74 91.90 54.48 92.75 56.28 91.11
  Q 56.69 90.75 57.22 90.75
  L 86.04 90.75
  Q 86.60 90.75 86.65 91.31
  C 86.80 92.92 85.84 93.75 84.23 93.75
  Q 49.31 93.76 14.40 93.75
  Q 13.87 93.75 13.72 93.25
  L 13.19 91.59
  Q 12.92 90.75 13.81 90.75
  C 24.29 90.72 34.68 90.60 45.12 91.64
  Z"
/>
</svg>
