<?xml version="1.0" encoding="UTF-8"?>
<!DOCTYPE svg PUBLIC "-//W3C//DTD SVG 1.1//EN" "http://www.w3.org/Graphics/SVG/1.1/DTD/svg11.dtd">
<svg xmlns="http://www.w3.org/2000/svg" version="1.1" width="100px" height="100px" style="shape-rendering:geometricPrecision; text-rendering:geometricPrecision; image-rendering:optimizeQuality; fill-rule:evenodd; clip-rule:evenodd" xmlns:xlink="http://www.w3.org/1999/xlink">
<g><path style="opacity:0.997" fill="#485c66" d="M 87.5,32.5 C 62.1667,32.5 36.8333,32.5 11.5,32.5C 11.3338,26.1579 11.5005,19.8246 12,13.5C 12.5,13 13,12.5 13.5,12C 37.5,11.3333 61.5,11.3333 85.5,12C 86,12.5 86.5,13 87,13.5C 87.4995,19.8246 87.6662,26.1579 87.5,32.5 Z"/></g>
<g><path style="opacity:1" fill="#f9f9f9" d="M 45.5,18.5 C 57.1667,18.5 68.8333,18.5 80.5,18.5C 80.7683,21.1194 80.435,23.6194 79.5,26C 68.5,26.6667 57.5,26.6667 46.5,26C 45.565,23.6194 45.2317,21.1194 45.5,18.5 Z"/></g>
<g><path style="opacity:1" fill="#f54b72" d="M 19.5,18.5 C 26.004,18.1377 27.6707,20.6377 24.5,26C 18.7883,26.4333 17.1216,23.9333 19.5,18.5 Z"/></g>
<g><path style="opacity:1" fill="#ebd3d4" d="M 32.5,18.5 C 36.8806,18.3857 39.0472,20.3857 39,24.5C 35.1094,27.652 32.2761,26.9853 30.5,22.5C 30.7517,20.9271 31.4183,19.5938 32.5,18.5 Z"/></g>
<g><path style="opacity:0.993" fill="#b6daf9" d="M 11.5,32.5 C 36.8333,32.5 62.1667,32.5 87.5,32.5C 87.6666,50.1698 87.4999,67.8365 87,85.5C 86.5,86 86,86.5 85.5,87C 61.5,87.6667 37.5,87.6667 13.5,87C 13,86.5 12.5,86 12,85.5C 11.5001,67.8365 11.3334,50.1698 11.5,32.5 Z"/></g>
<g><path style="opacity:1" fill="#3192f3" d="M 18.5,41.5 C 28.8333,41.5 39.1667,41.5 49.5,41.5C 49.5,53.8333 49.5,66.1667 49.5,78.5C 39.1667,78.5 28.8333,78.5 18.5,78.5C 18.5,66.1667 18.5,53.8333 18.5,41.5 Z"/></g>
<g><path style="opacity:1" fill="#3695f3" d="M 55.5,41.5 C 63.8333,41.5 72.1667,41.5 80.5,41.5C 80.5,42.8333 80.5,44.1667 80.5,45.5C 72.1667,45.5 63.8333,45.5 55.5,45.5C 55.5,44.1667 55.5,42.8333 55.5,41.5 Z"/></g>
<g><path style="opacity:1" fill="#3293f3" d="M 55.5,49.5 C 63.8333,49.5 72.1667,49.5 80.5,49.5C 80.5,50.8333 80.5,52.1667 80.5,53.5C 72.1667,53.5 63.8333,53.5 55.5,53.5C 55.5,52.1667 55.5,50.8333 55.5,49.5 Z"/></g>
<g><path style="opacity:1" fill="#3192f3" d="M 80.5,58.5 C 80.5,59.5 80.5,60.5 80.5,61.5C 72.5,61.5 64.5,61.5 56.5,61.5C 56.5,60.5 56.5,59.5 56.5,58.5C 64.5,58.5 72.5,58.5 80.5,58.5 Z"/></g>
<g><path style="opacity:1" fill="#70b4f6" d="M 80.5,58.5 C 72.5,58.5 64.5,58.5 56.5,58.5C 56.5,59.5 56.5,60.5 56.5,61.5C 64.5,61.5 72.5,61.5 80.5,61.5C 72.3501,62.4927 64.0168,62.8261 55.5,62.5C 55.5,60.8333 55.5,59.1667 55.5,57.5C 64.0168,57.1739 72.3501,57.5073 80.5,58.5 Z"/></g>
<g><path style="opacity:1" fill="#3695f3" d="M 55.5,66.5 C 63.8333,66.5 72.1667,66.5 80.5,66.5C 80.5,67.8333 80.5,69.1667 80.5,70.5C 72.1667,70.5 63.8333,70.5 55.5,70.5C 55.5,69.1667 55.5,67.8333 55.5,66.5 Z"/></g>
<g><path style="opacity:1" fill="#3293f3" d="M 55.5,74.5 C 63.8333,74.5 72.1667,74.5 80.5,74.5C 80.5,75.8333 80.5,77.1667 80.5,78.5C 72.1667,78.5 63.8333,78.5 55.5,78.5C 55.5,77.1667 55.5,75.8333 55.5,74.5 Z"/></g>
</svg>
