<?xml version="1.0" encoding="UTF-8"?>
<!DOCTYPE svg PUBLIC "-//W3C//DTD SVG 1.1//EN" "http://www.w3.org/Graphics/SVG/1.1/DTD/svg11.dtd">
<svg xmlns="http://www.w3.org/2000/svg" version="1.1" width="100px" height="100px" style="shape-rendering:geometricPrecision; text-rendering:geometricPrecision; image-rendering:optimizeQuality; fill-rule:evenodd; clip-rule:evenodd" xmlns:xlink="http://www.w3.org/1999/xlink">
<g><path style="opacity:0.884" fill="#5e256c" d="M 41.5,0.5 C 44.3126,1.44611 45.646,3.44611 45.5,6.5C 52.1667,6.5 58.8333,6.5 65.5,6.5C 65.5,7.83333 65.5,9.16667 65.5,10.5C 58.1591,10.3337 50.8258,10.5003 43.5,11C 45.971,13.3306 45.6377,15.4973 42.5,17.5C 39.9677,16.0868 37.6343,14.4201 35.5,12.5C 33.7438,10.8087 33.2438,8.80866 34,6.5C 36.5582,4.33844 39.0582,2.33844 41.5,0.5 Z"/></g>
<g><path style="opacity:0.77" fill="#5e256d" d="M 55.5,14.5 C 58.7907,16.092 62.124,17.7587 65.5,19.5C 65.1394,27.0801 61.1394,30.4135 53.5,29.5C 53.2267,27.549 53.8934,26.049 55.5,25C 48.1742,24.5003 40.8409,24.3337 33.5,24.5C 33.5,22.8333 33.5,21.1667 33.5,19.5C 40.1667,19.5 46.8333,19.5 53.5,19.5C 53.8308,17.6776 54.4975,16.0109 55.5,14.5 Z"/></g>
<g><path style="opacity:0.887" fill="#652e70" d="M 22.5,38.5 C 20.9519,38.8212 20.2852,39.8212 20.5,41.5C 20.1667,41.5 19.8333,41.5 19.5,41.5C 17.6143,38.9006 14.9476,37.9006 11.5,38.5C 10.5,38.5 9.5,38.5 8.5,38.5C 6.64581,39.241 4.97914,40.241 3.5,41.5C 3.21781,40.2223 2.55114,39.2223 1.5,38.5C 2.30943,37.5313 3.30943,36.6979 4.5,36C 0.660889,31.4794 -0.339111,26.3128 1.5,20.5C 9.06463,12.3782 16.398,12.5448 23.5,21C 25.5383,26.754 24.5383,31.754 20.5,36C 21.3805,36.7083 22.0472,37.5416 22.5,38.5 Z"/></g>
<g><path style="opacity:1" fill="#f5b699" d="M 10.5,18.5 C 13.1667,18.8333 15.8333,19.1667 18.5,19.5C 19.412,23.1306 19.5787,26.7973 19,30.5C 17.3599,32.9234 15.0265,33.9234 12,33.5C 4.51937,32.1683 2.68603,28.1683 6.5,21.5C 7.79916,20.3063 9.13249,19.3063 10.5,18.5 Z"/></g>
<g><path style="opacity:0.89" fill="#692d6f" d="M 98.5,39.5 C 96.917,39.4338 95.2503,39.7672 93.5,40.5C 91.0842,39.0318 88.4175,38.3651 85.5,38.5C 82.4041,37.9066 80.0708,38.9066 78.5,41.5C 77.503,48.4684 77.1697,55.4684 77.5,62.5C 77.5,62.8333 77.5,63.1667 77.5,63.5C 76.8826,63.3893 76.3826,63.056 76,62.5C 75.4095,54.2635 75.5762,46.2635 76.5,38.5C 76.9528,37.5416 77.6195,36.7083 78.5,36C 73.2185,29.7804 73.2185,23.4471 78.5,17C 85.8688,12.9078 92.2021,14.0744 97.5,20.5C 99.3391,26.3128 98.3391,31.4794 94.5,36C 96.0267,37.0319 97.36,38.1986 98.5,39.5 Z"/></g>
<g><path style="opacity:1" fill="#f0b197" d="M 83.5,18.5 C 92.2265,18.428 95.5598,22.5947 93.5,31C 88.6058,37.0658 84.1058,36.8991 80,30.5C 78.7452,25.7378 79.9119,21.7378 83.5,18.5 Z"/></g>
<g><path style="opacity:0.796" fill="#5d2870" d="M 1.5,38.5 C 2.55114,39.2223 3.21781,40.2223 3.5,41.5C 2.56961,48.7771 2.23628,56.1104 2.5,63.5C 8.83333,63.5 15.1667,63.5 21.5,63.5C 21.825,55.9809 21.4916,48.6476 20.5,41.5C 20.2852,39.8212 20.9519,38.8212 22.5,38.5C 23.8503,39.4831 24.8503,40.8164 25.5,42.5C 26.4979,50.8068 26.8312,59.1401 26.5,67.5C 17.5,67.5 8.5,67.5 -0.5,67.5C -0.5,58.8333 -0.5,50.1667 -0.5,41.5C 0.166667,40.5 0.833333,39.5 1.5,38.5 Z"/></g>
<g><path style="opacity:1" fill="#3390ef" d="M 11.5,38.5 C 14.9476,37.9006 17.6143,38.9006 19.5,41.5C 20.1495,43.4352 20.4828,45.4352 20.5,47.5C 19.1667,47.5 17.8333,47.5 16.5,47.5C 16.2148,49.288 16.5481,50.9547 17.5,52.5C 19.1667,50.8333 20.1667,51.1667 20.5,53.5C 20.1667,55.8333 19.1667,56.1667 17.5,54.5C 16.5344,56.396 16.2011,58.396 16.5,60.5C 17.4194,61.8962 14.7527,62.2296 8.5,61.5C 8.16998,54.8002 8.50331,48.1335 9.5,41.5C 10.4252,40.6431 11.0919,39.6431 11.5,38.5 Z"/></g>
<g><path style="opacity:0.774" fill="#5e286c" d="M 46.5,30.5 C 50.2188,29.7717 53.2188,30.7717 55.5,33.5C 60.3672,34.0298 62.7006,36.6965 62.5,41.5C 65.4475,41.2229 68.2809,41.5562 71,42.5C 71.4999,60.4969 71.6666,78.4969 71.5,96.5C 64.2918,97.7243 56.9585,98.391 49.5,98.5C 42.0415,98.391 34.7082,97.7243 27.5,96.5C 27.3334,78.4969 27.5001,60.4969 28,42.5C 30.7191,41.5562 33.5525,41.2229 36.5,41.5C 36.2148,39.712 36.5481,38.0453 37.5,36.5C 41.0335,35.2158 44.0335,33.2158 46.5,30.5 Z"/></g>
<g><path style="opacity:1" fill="#867f8d" d="M 41.5,38.5 C 46.8333,38.5 52.1667,38.5 57.5,38.5C 57.5,39.5 57.5,40.5 57.5,41.5C 52.1667,41.5 46.8333,41.5 41.5,41.5C 41.5,40.5 41.5,39.5 41.5,38.5 Z"/></g>
<g><path style="opacity:1" fill="#fd4a73" d="M 85.5,38.5 C 88.4175,38.3651 91.0842,39.0318 93.5,40.5C 94.1098,41.391 94.4431,42.391 94.5,43.5C 94.5,49.5 94.5,55.5 94.5,61.5C 90.5,61.5 86.5,61.5 82.5,61.5C 82.3338,55.4908 82.5005,49.4908 83,43.5C 83.7848,41.751 84.6182,40.0843 85.5,38.5 Z"/></g>
<g><path style="opacity:0.747" fill="#5e256d" d="M 76.5,38.5 C 75.5762,46.2635 75.4095,54.2635 76,62.5C 76.3826,63.056 76.8826,63.3893 77.5,63.5C 83.8333,63.5 90.1667,63.5 96.5,63.5C 96.6662,57.1579 96.4995,50.8246 96,44.5C 95.6174,43.944 95.1174,43.6107 94.5,43.5C 94.4431,42.391 94.1098,41.391 93.5,40.5C 95.2503,39.7672 96.917,39.4338 98.5,39.5C 98.3284,40.4916 98.6618,41.1583 99.5,41.5C 99.5,50.1667 99.5,58.8333 99.5,67.5C 90.5,67.5 81.5,67.5 72.5,67.5C 72.1688,59.1401 72.5021,50.8068 73.5,42.5C 74.1497,40.8164 75.1497,39.4831 76.5,38.5 Z"/></g>
<g><path style="opacity:1" fill="#34acfa" d="M 8.5,38.5 C 9.5,38.5 10.5,38.5 11.5,38.5C 11.0919,39.6431 10.4252,40.6431 9.5,41.5C 8.50331,48.1335 8.16998,54.8002 8.5,61.5C 7.16667,61.5 5.83333,61.5 4.5,61.5C 4.33385,55.4908 4.50051,49.4908 5,43.5C 6.41194,41.9354 7.57861,40.2687 8.5,38.5 Z"/></g>
<g><path style="opacity:1" fill="#486fc2" d="M 8.5,38.5 C 7.57861,40.2687 6.41194,41.9354 5,43.5C 4.50051,49.4908 4.33385,55.4908 4.5,61.5C 5.83333,61.5 7.16667,61.5 8.5,61.5C 14.7527,62.2296 17.4194,61.8962 16.5,60.5C 16.2011,58.396 16.5344,56.396 17.5,54.5C 19.1667,56.1667 20.1667,55.8333 20.5,53.5C 20.1667,51.1667 19.1667,50.8333 17.5,52.5C 16.5481,50.9547 16.2148,49.288 16.5,47.5C 17.8333,47.5 19.1667,47.5 20.5,47.5C 20.4828,45.4352 20.1495,43.4352 19.5,41.5C 19.8333,41.5 20.1667,41.5 20.5,41.5C 21.4916,48.6476 21.825,55.9809 21.5,63.5C 15.1667,63.5 8.83333,63.5 2.5,63.5C 2.23628,56.1104 2.56961,48.7771 3.5,41.5C 4.97914,40.241 6.64581,39.241 8.5,38.5 Z"/></g>
<g><path style="opacity:1" fill="#5f82bd" d="M 35.5,84.5 C 35.5,84.8333 35.5,85.1667 35.5,85.5C 34.8333,72.6604 34.1667,59.6604 33.5,46.5C 32.5006,62.1525 32.1673,77.8192 32.5,93.5C 30.5149,77.5342 29.8482,61.2009 30.5,44.5C 32.1667,44.5 33.8333,44.5 35.5,44.5C 35.5,57.8333 35.5,71.1667 35.5,84.5 Z"/></g>
<g><path style="opacity:1" fill="#5fbdf1" d="M 63.5,45.5 C 64.5,45.5 65.5,45.5 66.5,45.5C 66.5,61.5 66.5,77.5 66.5,93.5C 55.1667,93.5 43.8333,93.5 32.5,93.5C 32.1673,77.8192 32.5006,62.1525 33.5,46.5C 34.1667,59.6604 34.8333,72.6604 35.5,85.5C 39.9876,86.1659 44.6543,86.4992 49.5,86.5C 54.5508,86.4933 59.2175,85.8266 63.5,84.5C 63.5,71.5 63.5,58.5 63.5,45.5 Z"/></g>
<g><path style="opacity:1" fill="#5f6ba9" d="M 63.5,45.5 C 64.9187,44.5489 66.5853,44.2155 68.5,44.5C 69.1518,61.2009 68.4851,77.5342 66.5,93.5C 66.5,77.5 66.5,61.5 66.5,45.5C 65.5,45.5 64.5,45.5 63.5,45.5 Z"/></g>
<g><path style="opacity:1" fill="#f46c9c" d="M 85.5,38.5 C 84.6182,40.0843 83.7848,41.751 83,43.5C 82.5005,49.4908 82.3338,55.4908 82.5,61.5C 81.0813,62.4511 79.4147,62.7845 77.5,62.5C 77.1697,55.4684 77.503,48.4684 78.5,41.5C 80.0708,38.9066 82.4041,37.9066 85.5,38.5 Z"/></g>
<g><path style="opacity:1" fill="#bc3b71" d="M 94.5,43.5 C 95.1174,43.6107 95.6174,43.944 96,44.5C 96.4995,50.8246 96.6662,57.1579 96.5,63.5C 90.1667,63.5 83.8333,63.5 77.5,63.5C 77.5,63.1667 77.5,62.8333 77.5,62.5C 79.4147,62.7845 81.0813,62.4511 82.5,61.5C 86.5,61.5 90.5,61.5 94.5,61.5C 94.5,55.5 94.5,49.5 94.5,43.5 Z"/></g>
<g><path style="opacity:1" fill="#75417d" d="M 38.5,44.5 C 38.5,45.1667 38.5,45.8333 38.5,46.5C 38.5,58.8333 38.5,71.1667 38.5,83.5C 45.5,83.5 52.5,83.5 59.5,83.5C 60.4955,70.6774 60.8288,57.6774 60.5,44.5C 62.1605,57.6354 63.1605,70.9687 63.5,84.5C 59.2175,85.8266 54.5508,86.4933 49.5,86.5C 44.6543,86.4992 39.9876,86.1659 35.5,85.5C 35.5,85.1667 35.5,84.8333 35.5,84.5C 35.8395,70.9687 36.8395,57.6354 38.5,44.5 Z"/></g>
<g><path style="opacity:1" fill="#fbdedf" d="M 38.5,46.5 C 45.5,46.5 52.5,46.5 59.5,46.5C 59.9746,49.0821 59.3079,51.0821 57.5,52.5C 52.1667,52.5 46.8333,52.5 41.5,52.5C 41.5,53.5 41.5,54.5 41.5,55.5C 40.1667,57.1667 40.1667,58.8333 41.5,60.5C 41.5,61.5 41.5,62.5 41.5,63.5C 47.0262,63.8214 52.3595,63.4881 57.5,62.5C 58.5862,62.62 59.2528,63.2867 59.5,64.5C 59.2528,65.7133 58.5862,66.38 57.5,66.5C 52.1667,66.5 46.8333,66.5 41.5,66.5C 41.5,67.5 41.5,68.5 41.5,69.5C 46.8333,69.5 52.1667,69.5 57.5,69.5C 60.1667,70.5 60.1667,71.5 57.5,72.5C 52.1667,72.5 46.8333,72.5 41.5,72.5C 41.5,73.5 41.5,74.5 41.5,75.5C 47.31,76.4896 53.31,76.8229 59.5,76.5C 59.5,78.8333 59.5,81.1667 59.5,83.5C 52.5,83.5 45.5,83.5 38.5,83.5C 38.5,71.1667 38.5,58.8333 38.5,46.5 Z"/></g>
<g><path style="opacity:1" fill="#76417e" d="M 57.5,72.5 C 57.5,73.5 57.5,74.5 57.5,75.5C 52.1667,75.5 46.8333,75.5 41.5,75.5C 41.5,74.5 41.5,73.5 41.5,72.5C 46.8333,72.5 52.1667,72.5 57.5,72.5 Z"/></g>
<g><path style="opacity:1" fill="#723c7a" d="M 57.5,66.5 C 57.5,67.5 57.5,68.5 57.5,69.5C 52.1667,69.5 46.8333,69.5 41.5,69.5C 41.5,68.5 41.5,67.5 41.5,66.5C 46.8333,66.5 52.1667,66.5 57.5,66.5 Z"/></g>
<g><path style="opacity:1" fill="#814d85" d="M 41.5,60.5 C 47.2709,59.8872 52.6042,60.5539 57.5,62.5C 52.3595,63.4881 47.0262,63.8214 41.5,63.5C 41.5,62.5 41.5,61.5 41.5,60.5 Z"/></g>
<g><path style="opacity:1" fill="#814e86" d="M 57.5,52.5 C 57.5,53.5 57.5,54.5 57.5,55.5C 52.1667,55.5 46.8333,55.5 41.5,55.5C 41.5,54.5 41.5,53.5 41.5,52.5C 46.8333,52.5 52.1667,52.5 57.5,52.5 Z"/></g>
<g><path style="opacity:1" fill="#dab1c1" d="M 38.5,44.5 C 45.8333,44.5 53.1667,44.5 60.5,44.5C 60.8288,57.6774 60.4955,70.6774 59.5,83.5C 59.5,81.1667 59.5,78.8333 59.5,76.5C 53.31,76.8229 47.31,76.4896 41.5,75.5C 46.8333,75.5 52.1667,75.5 57.5,75.5C 57.5,74.5 57.5,73.5 57.5,72.5C 60.1667,71.5 60.1667,70.5 57.5,69.5C 57.5,68.5 57.5,67.5 57.5,66.5C 58.5862,66.38 59.2528,65.7133 59.5,64.5C 59.2528,63.2867 58.5862,62.62 57.5,62.5C 52.6042,60.5539 47.2709,59.8872 41.5,60.5C 40.1667,58.8333 40.1667,57.1667 41.5,55.5C 46.8333,55.5 52.1667,55.5 57.5,55.5C 57.5,54.5 57.5,53.5 57.5,52.5C 59.3079,51.0821 59.9746,49.0821 59.5,46.5C 52.5,46.5 45.5,46.5 38.5,46.5C 38.5,45.8333 38.5,45.1667 38.5,44.5 Z"/></g>
</svg>
