<?xml version="1.0" encoding="UTF-8"?>
<!DOCTYPE svg PUBLIC "-//W3C//DTD SVG 1.1//EN" "http://www.w3.org/Graphics/SVG/1.1/DTD/svg11.dtd">
<svg xmlns="http://www.w3.org/2000/svg" version="1.1" width="100px" height="100px" style="shape-rendering:geometricPrecision; text-rendering:geometricPrecision; image-rendering:optimizeQuality; fill-rule:evenodd; clip-rule:evenodd" xmlns:xlink="http://www.w3.org/1999/xlink">
<g><path style="opacity:0.819" fill="#ff5077" d="M 41.5,8.5 C 62.3969,6.73205 77.7303,14.8987 87.5,33C 93.7979,53.8631 88.6312,71.0298 72,84.5C 50.2036,94.8278 31.3702,91.1612 15.5,73.5C 8.46284,61.6597 6.62951,48.9931 10,35.5C 12.7172,29.7789 15.8838,24.4455 19.5,19.5C 24.4455,15.8838 29.7789,12.7172 35.5,10C 37.7078,9.80912 39.7078,9.30912 41.5,8.5 Z"/></g>
<g><path style="opacity:1" fill="#ffa2b7" d="M 60.5,16.5 C 54.2111,15.6279 47.8778,15.2946 41.5,15.5C 43.6345,13.9666 46.1345,13.2999 49,13.5C 53.2549,13.3539 57.0882,14.3539 60.5,16.5 Z"/></g>
<g><path style="opacity:1" fill="#f8f4f9" d="M 41.5,15.5 C 47.8778,15.2946 54.2111,15.6279 60.5,16.5C 64.3733,17.8512 68.04,19.6845 71.5,22C 76.5343,26.8497 80.5343,32.3497 83.5,38.5C 83.5,44.1667 83.5,49.8333 83.5,55.5C 83.1084,60.5973 81.4417,65.2639 78.5,69.5C 75.318,72.8493 71.9846,76.016 68.5,79C 65.8317,80.2895 63.1651,81.4561 60.5,82.5C 53.2229,83.4304 45.8896,83.7637 38.5,83.5C 32.3497,80.5343 26.8497,76.5343 22,71.5C 18.4985,66.6754 16.3318,61.342 15.5,55.5C 15.5,50.8333 15.5,46.1667 15.5,41.5C 19.12,27.8799 27.7867,19.2133 41.5,15.5 Z"/></g>
<g><path style="opacity:1" fill="#82baf7" d="M 60.5,21.5 C 53.1667,20.1667 45.8333,20.1667 38.5,21.5C 38.7911,20.3509 39.6244,19.6842 41,19.5C 46.4966,18.1964 51.9966,18.1964 57.5,19.5C 59.0296,19.6399 60.0296,20.3065 60.5,21.5 Z"/></g>
<g><path style="opacity:1" fill="#3995f3" d="M 60.5,21.5 C 63.6296,21.5991 66.2963,22.7658 68.5,25C 71.4927,28.4019 74.3261,31.9019 77,35.5C 77.4828,36.448 77.6495,37.448 77.5,38.5C 78.9836,43.0334 79.6503,47.7001 79.5,52.5C 78.2935,64.8162 71.9602,73.1496 60.5,77.5C 53.1941,80.1109 45.8608,80.1109 38.5,77.5C 29.4683,73.9682 23.3016,67.6348 20,58.5C 16.5145,42.8833 21.3479,30.8833 34.5,22.5C 35.7362,21.7542 37.0695,21.4208 38.5,21.5C 45.8333,20.1667 53.1667,20.1667 60.5,21.5 Z"/></g>
<g><path style="opacity:1" fill="#e9f2fd" d="M 63.5,33.5 C 65.1667,33.5 66.8333,33.5 68.5,33.5C 67.5123,38.0234 65.0123,41.6901 61,44.5C 60.5983,45.8721 60.0983,47.2054 59.5,48.5C 54.3261,51.0038 50.9928,55.0038 49.5,60.5C 48.5,60.5 47.5,60.5 46.5,60.5C 46.3429,62.8176 45.1762,64.4843 43,65.5C 41.6998,64.2927 40.1998,63.6261 38.5,63.5C 38.5,62.5 38.5,61.5 38.5,60.5C 33.7598,59.3583 31.0932,56.3583 30.5,51.5C 34.2885,52.4438 37.4551,54.4438 40,57.5C 41.1618,58.1868 42.3284,58.3534 43.5,58C 49.5503,50.9298 55.8837,44.0965 62.5,37.5C 63.2458,36.2638 63.5792,34.9305 63.5,33.5 Z"/></g>
<g><path style="opacity:1" fill="#ffadbf" d="M 15.5,41.5 C 15.5,46.1667 15.5,50.8333 15.5,55.5C 14.8826,55.3893 14.3826,55.056 14,54.5C 13.8333,52.6667 13.6667,50.8333 13.5,49C 13.2999,46.1345 13.9666,43.6345 15.5,41.5 Z"/></g>
<g><path style="opacity:1" fill="#a1cdf9" d="M 77.5,38.5 C 79.1171,39.5893 79.9504,41.256 80,43.5C 80.8045,46.6965 80.6378,49.6965 79.5,52.5C 79.6503,47.7001 78.9836,43.0334 77.5,38.5 Z"/></g>
<g><path style="opacity:1" fill="#ffa8bb" d="M 83.5,38.5 C 85.3408,43.5759 85.8408,48.9092 85,54.5C 84.6174,55.056 84.1174,55.3893 83.5,55.5C 83.5,49.8333 83.5,44.1667 83.5,38.5 Z"/></g>
<g><path style="opacity:1" fill="#cae2fc" d="M 38.5,77.5 C 45.8608,80.1109 53.1941,80.1109 60.5,77.5C 59.2627,79.0968 57.596,80.2635 55.5,81C 51.4589,81.8265 47.4589,81.6599 43.5,80.5C 41.3449,79.9986 39.6782,78.9986 38.5,77.5 Z"/></g>
<g><path style="opacity:1" fill="#ff95ad" d="M 60.5,82.5 C 60.0296,83.6935 59.0296,84.3601 57.5,84.5C 50.9325,86.0194 44.5992,85.686 38.5,83.5C 45.8896,83.7637 53.2229,83.4304 60.5,82.5 Z"/></g>
</svg>
