<?xml version="1.0" encoding="UTF-8"?>
<!DOCTYPE svg PUBLIC "-//W3C//DTD SVG 1.1//EN" "http://www.w3.org/Graphics/SVG/1.1/DTD/svg11.dtd">
<svg xmlns="http://www.w3.org/2000/svg" version="1.1" width="100px" height="100px" style="shape-rendering:geometricPrecision; text-rendering:geometricPrecision; image-rendering:optimizeQuality; fill-rule:evenodd; clip-rule:evenodd" xmlns:xlink="http://www.w3.org/1999/xlink">
<g><path style="opacity:0.973" fill="#fd4c75" d="M 58.5,13.5 C 72.4047,17.0714 81.4047,25.738 85.5,39.5C 82.9333,40.475 80.2666,41.1417 77.5,41.5C 75.7628,47.6973 74.4295,54.0306 73.5,60.5C 70.9309,64.5774 67.7642,68.244 64,71.5C 62.9701,71.1639 62.4701,70.4972 62.5,69.5C 62.9746,66.9179 62.3079,64.9179 60.5,63.5C 60.5,62.5 60.5,61.5 60.5,60.5C 59.6167,55.8969 59.2834,51.2303 59.5,46.5C 62.8898,46.2226 66.0565,45.2226 69,43.5C 69.9558,39.0748 68.1225,37.4082 63.5,38.5C 55.2079,39.4071 46.8746,39.7404 38.5,39.5C 36.0336,38.3659 33.367,38.1993 30.5,39C 29.6198,40.3561 29.2865,41.8561 29.5,43.5C 29.0276,41.4687 28.0276,39.8021 26.5,38.5C 28.3456,33.7632 31.3456,30.0965 35.5,27.5C 37.8299,25.7574 40.4966,24.4241 43.5,23.5C 47.1739,22.7675 50.8406,22.1008 54.5,21.5C 57.1689,19.489 58.5022,16.8223 58.5,13.5 Z"/></g>
<g><path style="opacity:0.999" fill="#ff7f9c" d="M 58.5,13.5 C 58.5022,16.8223 57.1689,19.489 54.5,21.5C 50.8406,22.1008 47.1739,22.7675 43.5,23.5C 40.4966,24.4241 37.8299,25.7574 35.5,27.5C 35.5,26.5 35.5,25.5 35.5,24.5C 33.4086,24.3184 31.4086,24.6518 29.5,25.5C 25.55,29.071 22.8833,33.4044 21.5,38.5C 23.1667,38.5 24.8333,38.5 26.5,38.5C 23.0742,44.2656 21.4075,50.599 21.5,57.5C 18.7334,57.8583 16.0667,58.525 13.5,59.5C 10.2974,43.9173 14.2974,30.7506 25.5,20C 28.7836,17.7914 32.2836,15.9581 36,14.5C 43.4675,13.585 50.9675,13.2517 58.5,13.5 Z"/></g>
<g><path style="opacity:1" fill="#ffebef" d="M 35.5,27.5 C 31.3456,30.0965 28.3456,33.7632 26.5,38.5C 24.8333,38.5 23.1667,38.5 21.5,38.5C 22.8833,33.4044 25.55,29.071 29.5,25.5C 31.4086,24.6518 33.4086,24.3184 35.5,24.5C 35.5,25.5 35.5,26.5 35.5,27.5 Z"/></g>
<g><path style="opacity:1" fill="#6dc4f5" d="M 46.5,24.5 C 55.0244,24.3448 57.3578,28.0115 53.5,35.5C 45.8776,38.0416 42.7109,35.3749 44,27.5C 44.6979,26.3094 45.5313,25.3094 46.5,24.5 Z"/></g>
<g><path style="opacity:0.967" fill="#fd4b73" d="M 26.5,38.5 C 28.0276,39.8021 29.0276,41.4687 29.5,43.5C 32.6548,45.0764 35.9882,46.0764 39.5,46.5C 39.7166,51.2303 39.3833,55.8969 38.5,60.5C 38.5,61.5 38.5,62.5 38.5,63.5C 37.3065,63.9704 36.6399,64.9704 36.5,66.5C 36.5195,67.7261 36.8529,68.7261 37.5,69.5C 39.1937,71.4376 41.1937,71.7709 43.5,70.5C 45.3977,67.3743 46.7311,64.041 47.5,60.5C 48.1499,60.1961 48.8165,59.8627 49.5,59.5C 50.0568,61.3316 51.0568,62.6649 52.5,63.5C 52.9114,68.5786 55.5781,71.2453 60.5,71.5C 59.8239,72.9419 58.1572,73.9419 55.5,74.5C 50.6514,74.8805 45.9847,75.8805 41.5,77.5C 41.1417,80.2666 40.475,82.9333 39.5,85.5C 26.1667,81.5 17.5,72.8333 13.5,59.5C 16.0667,58.525 18.7334,57.8583 21.5,57.5C 21.4075,50.599 23.0742,44.2656 26.5,38.5 Z"/></g>
<g><path style="opacity:1" fill="#69c7f8" d="M 38.5,39.5 C 42.4861,40.1657 46.6528,40.499 51,40.5C 55.5572,40.4915 59.7238,39.8248 63.5,38.5C 68.1225,37.4082 69.9558,39.0748 69,43.5C 66.0565,45.2226 62.8898,46.2226 59.5,46.5C 58.8367,48.6413 58.5034,50.9746 58.5,53.5C 58.5286,56.2695 59.1952,58.6028 60.5,60.5C 60.5,61.5 60.5,62.5 60.5,63.5C 61.1495,65.4352 61.4828,67.4352 61.5,69.5C 60.6618,69.8417 60.3284,70.5084 60.5,71.5C 55.5781,71.2453 52.9114,68.5786 52.5,63.5C 51.0568,62.6649 50.0568,61.3316 49.5,59.5C 48.8165,59.8627 48.1499,60.1961 47.5,60.5C 46.7311,64.041 45.3977,67.3743 43.5,70.5C 41.1937,71.7709 39.1937,71.4376 37.5,69.5C 37.5172,67.4352 37.8505,65.4352 38.5,63.5C 38.5,62.5 38.5,61.5 38.5,60.5C 39.8048,58.6028 40.4714,56.2695 40.5,53.5C 40.4966,50.9746 40.1633,48.6413 39.5,46.5C 35.9882,46.0764 32.6548,45.0764 29.5,43.5C 29.2865,41.8561 29.6198,40.3561 30.5,39C 33.367,38.1993 36.0336,38.3659 38.5,39.5 Z"/></g>
<g><path style="opacity:1" fill="#bc81ae" d="M 63.5,38.5 C 59.7238,39.8248 55.5572,40.4915 51,40.5C 46.6528,40.499 42.4861,40.1657 38.5,39.5C 46.8746,39.7404 55.2079,39.4071 63.5,38.5 Z"/></g>
<g><path style="opacity:0.977" fill="#db3f62" d="M 85.5,39.5 C 88.7026,55.0827 84.7026,68.2494 73.5,79C 70.2164,81.2086 66.7164,83.0419 63,84.5C 55.1986,85.4191 47.3653,85.7524 39.5,85.5C 40.475,82.9333 41.1417,80.2666 41.5,77.5C 45.9847,75.8805 50.6514,74.8805 55.5,74.5C 58.1572,73.9419 59.8239,72.9419 60.5,71.5C 60.3284,70.5084 60.6618,69.8417 61.5,69.5C 61.8333,69.5 62.1667,69.5 62.5,69.5C 62.4701,70.4972 62.9701,71.1639 64,71.5C 67.7642,68.244 70.9309,64.5774 73.5,60.5C 74.4295,54.0306 75.7628,47.6973 77.5,41.5C 80.2666,41.1417 82.9333,40.475 85.5,39.5 Z"/></g>
<g><path style="opacity:1" fill="#c07daa" d="M 39.5,46.5 C 40.1633,48.6413 40.4966,50.9746 40.5,53.5C 40.4714,56.2695 39.8048,58.6028 38.5,60.5C 39.3833,55.8969 39.7166,51.2303 39.5,46.5 Z"/></g>
<g><path style="opacity:1" fill="#c27ca8" d="M 59.5,46.5 C 59.2834,51.2303 59.6167,55.8969 60.5,60.5C 59.1952,58.6028 58.5286,56.2695 58.5,53.5C 58.5034,50.9746 58.8367,48.6413 59.5,46.5 Z"/></g>
<g><path style="opacity:1" fill="#c180ab" d="M 52.5,63.5 C 51.0568,62.6649 50.0568,61.3316 49.5,59.5C 48.8165,59.8627 48.1499,60.1961 47.5,60.5C 47.62,59.4138 48.2867,58.7472 49.5,58.5C 51.767,59.3622 52.767,61.0289 52.5,63.5 Z"/></g>
<g><path style="opacity:1" fill="#bf7fab" d="M 38.5,63.5 C 37.8505,65.4352 37.5172,67.4352 37.5,69.5C 36.8529,68.7261 36.5195,67.7261 36.5,66.5C 36.6399,64.9704 37.3065,63.9704 38.5,63.5 Z"/></g>
<g><path style="opacity:1" fill="#c27ca8" d="M 60.5,63.5 C 62.3079,64.9179 62.9746,66.9179 62.5,69.5C 62.1667,69.5 61.8333,69.5 61.5,69.5C 61.4828,67.4352 61.1495,65.4352 60.5,63.5 Z"/></g>
<g><path style="opacity:0.235" fill="#000000" d="M 71.5,99.5 C 56.8333,99.5 42.1667,99.5 27.5,99.5C 25.3021,98.8347 22.9688,98.1681 20.5,97.5C 19.233,95.6293 19.233,93.7959 20.5,92C 39.8333,88.6667 59.1667,88.6667 78.5,92C 79.767,93.7959 79.767,95.6293 78.5,97.5C 76.0312,98.1681 73.6979,98.8347 71.5,99.5 Z"/></g>
</svg>
