<?xml version="1.0" encoding="UTF-8"?>
<!DOCTYPE svg PUBLIC "-//W3C//DTD SVG 1.1//EN" "http://www.w3.org/Graphics/SVG/1.1/DTD/svg11.dtd">
<svg xmlns="http://www.w3.org/2000/svg" version="1.1" width="100px" height="100px" style="shape-rendering:geometricPrecision; text-rendering:geometricPrecision; image-rendering:optimizeQuality; fill-rule:evenodd; clip-rule:evenodd" xmlns:xlink="http://www.w3.org/1999/xlink">
<g><path style="opacity:0.763" fill="#000000" d="M 27.5,2.5 C 28.8333,2.5 30.1667,2.5 31.5,2.5C 31.5,3.5 31.5,4.5 31.5,5.5C 32.5,5.5 33.5,5.5 34.5,5.5C 34.5,6.83333 34.5,8.16667 34.5,9.5C 33.5,9.5 32.5,9.5 31.5,9.5C 31.5,10.5 31.5,11.5 31.5,12.5C 30.1667,12.5 28.8333,12.5 27.5,12.5C 27.5,11.5 27.5,10.5 27.5,9.5C 26.5,9.5 25.5,9.5 24.5,9.5C 24.5,8.16667 24.5,6.83333 24.5,5.5C 25.5,5.5 26.5,5.5 27.5,5.5C 27.5,4.5 27.5,3.5 27.5,2.5 Z"/></g>
<g><path style="opacity:0.793" fill="#0c0d0e" d="M 45.5,2.5 C 50.2662,1.55114 54.0996,2.88448 57,6.5C 61.9084,13.0628 64.7418,20.3961 65.5,28.5C 73.4735,29.7795 77.1402,34.4462 76.5,42.5C 80.1667,42.5 83.8333,42.5 87.5,42.5C 87.5,57.1667 87.5,71.8333 87.5,86.5C 88.5,86.5 89.5,86.5 90.5,86.5C 91.0111,90.0297 90.3444,93.1963 88.5,96C 62.1667,96.6667 35.8333,96.6667 9.5,96C 8.54948,92.9433 8.21614,89.7766 8.5,86.5C 9.5,86.5 10.5,86.5 11.5,86.5C 11.5,71.8333 11.5,57.1667 11.5,42.5C 15.1667,42.5 18.8333,42.5 22.5,42.5C 21.8598,34.4462 25.5265,29.7795 33.5,28.5C 33.3359,25.8127 33.5026,23.146 34,20.5C 37.1056,13.9361 40.9389,7.93609 45.5,2.5 Z"/></g>
<g><path style="opacity:0.763" fill="#000000" d="M 67.5,2.5 C 68.8333,2.5 70.1667,2.5 71.5,2.5C 71.5,3.5 71.5,4.5 71.5,5.5C 72.5,5.5 73.5,5.5 74.5,5.5C 74.5,6.83333 74.5,8.16667 74.5,9.5C 73.5,9.5 72.5,9.5 71.5,9.5C 71.5,10.5 71.5,11.5 71.5,12.5C 70.1667,12.5 68.8333,12.5 67.5,12.5C 67.5,11.5 67.5,10.5 67.5,9.5C 66.5,9.5 65.5,9.5 64.5,9.5C 64.5,8.16667 64.5,6.83333 64.5,5.5C 65.5,5.5 66.5,5.5 67.5,5.5C 67.5,4.5 67.5,3.5 67.5,2.5 Z"/></g>
<g><path style="opacity:0.763" fill="#000000" d="M 14.5,11.5 C 15.8333,11.5 17.1667,11.5 18.5,11.5C 18.5,12.5 18.5,13.5 18.5,14.5C 19.5,14.5 20.5,14.5 21.5,14.5C 21.5,15.8333 21.5,17.1667 21.5,18.5C 20.5,18.5 19.5,18.5 18.5,18.5C 18.5,19.5 18.5,20.5 18.5,21.5C 17.1667,21.5 15.8333,21.5 14.5,21.5C 14.5,20.5 14.5,19.5 14.5,18.5C 13.5,18.5 12.5,18.5 11.5,18.5C 11.5,17.1667 11.5,15.8333 11.5,14.5C 12.5,14.5 13.5,14.5 14.5,14.5C 14.5,13.5 14.5,12.5 14.5,11.5 Z"/></g>
<g><path style="opacity:0.763" fill="#000000" d="M 80.5,11.5 C 81.8333,11.5 83.1667,11.5 84.5,11.5C 84.5,12.5 84.5,13.5 84.5,14.5C 85.5,14.5 86.5,14.5 87.5,14.5C 87.5,15.8333 87.5,17.1667 87.5,18.5C 86.5,18.5 85.5,18.5 84.5,18.5C 84.5,19.5 84.5,20.5 84.5,21.5C 83.1667,21.5 81.8333,21.5 80.5,21.5C 80.5,20.5 80.5,19.5 80.5,18.5C 79.5,18.5 78.5,18.5 77.5,18.5C 77.5,17.1667 77.5,15.8333 77.5,14.5C 78.5,14.5 79.5,14.5 80.5,14.5C 80.5,13.5 80.5,12.5 80.5,11.5 Z"/></g>
<g><path style="opacity:1" fill="#f16a7e" d="M 47.5,8.5 C 49.221,11.2022 50.8876,13.8689 52.5,16.5C 45.2439,16.1903 42.4105,19.5237 44,26.5C 46.5791,28.3467 49.4124,28.8467 52.5,28C 54.4257,27.5776 55.4257,26.4109 55.5,24.5C 56.8048,26.3972 57.4714,28.7305 57.5,31.5C 57.3551,34.8673 57.0218,38.2006 56.5,41.5C 54.1805,40.5258 51.8471,39.5258 49.5,38.5C 44.8228,39.1772 42.1561,41.8439 41.5,46.5C 40.5,46.5 39.5,46.5 38.5,46.5C 37.8822,39.1826 37.5488,31.8493 37.5,24.5C 39.1734,18.1727 42.5067,12.8394 47.5,8.5 Z"/></g>
<g><path style="opacity:1" fill="#cc2d08" d="M 61.5,24.5 C 61.7335,29.8947 61.4002,35.228 60.5,40.5C 60.5,41.1667 60.5,41.8333 60.5,42.5C 58.3602,49.1824 57.0269,48.849 56.5,41.5C 57.0218,38.2006 57.3551,34.8673 57.5,31.5C 57.4714,28.7305 56.8048,26.3972 55.5,24.5C 55.6602,22.8008 55.4935,21.1341 55,19.5C 53.583,18.9221 52.7496,17.9221 52.5,16.5C 50.8876,13.8689 49.221,11.2022 47.5,8.5C 48.6009,7.40168 49.9343,7.23502 51.5,8C 56.4186,12.656 59.7519,18.156 61.5,24.5 Z"/></g>
<g><path style="opacity:1" fill="#1c1214" d="M 52.5,16.5 C 52.7496,17.9221 53.583,18.9221 55,19.5C 55.4935,21.1341 55.6602,22.8008 55.5,24.5C 55.4257,26.4109 54.4257,27.5776 52.5,28C 49.4124,28.8467 46.5791,28.3467 44,26.5C 42.4105,19.5237 45.2439,16.1903 52.5,16.5 Z"/></g>
<g><path style="opacity:1" fill="#84a7d0" d="M 46.5,19.5 C 48.5,19.5 50.5,19.5 52.5,19.5C 53.5081,24.6673 51.6748,26.334 47,24.5C 46.5065,22.8659 46.3398,21.1992 46.5,19.5 Z"/></g>
<g><path style="opacity:1" fill="#581301" d="M 61.5,24.5 C 62.1641,26.9779 62.4975,29.6445 62.5,32.5C 62.4783,35.5902 61.8117,38.2568 60.5,40.5C 61.4002,35.228 61.7335,29.8947 61.5,24.5 Z"/></g>
<g><path style="opacity:1" fill="#756627" d="M 35.5,40.5 C 34.2082,38.7451 33.2082,36.7451 32.5,34.5C 31.8165,34.8627 31.1499,35.1961 30.5,35.5C 30.62,34.4138 31.2867,33.7472 32.5,33.5C 35.0918,35.0261 36.0918,37.3595 35.5,40.5 Z"/></g>
<g><path style="opacity:1" fill="#f0d150" d="M 35.5,40.5 C 35.5,42.5 35.5,44.5 35.5,46.5C 34.5,46.5 33.5,46.5 32.5,46.5C 30.9856,49.2891 29.9856,52.2891 29.5,55.5C 28.4168,55.5394 27.4168,55.8728 26.5,56.5C 26.1667,55.8333 25.8333,55.1667 25.5,54.5C 26.2271,49.1652 26.8938,43.8319 27.5,38.5C 27.5,37.5 27.5,36.5 27.5,35.5C 28.5,35.5 29.5,35.5 30.5,35.5C 31.1499,35.1961 31.8165,34.8627 32.5,34.5C 33.2082,36.7451 34.2082,38.7451 35.5,40.5 Z"/></g>
<g><path style="opacity:1" fill="#f4c821" d="M 68.5,35.5 C 70.1788,35.2852 71.1788,35.9519 71.5,37.5C 72.4867,43.805 72.6534,50.1383 72,56.5C 71.3292,55.7476 70.4959,55.4142 69.5,55.5C 69.0144,52.2891 68.0144,49.2891 66.5,46.5C 65.5,46.5 64.5,46.5 63.5,46.5C 63.5,45.1667 63.5,43.8333 63.5,42.5C 63.5,41.8333 63.5,41.1667 63.5,40.5C 64.9265,38.8516 65.7599,36.8516 66,34.5C 66.6708,35.2524 67.5041,35.5858 68.5,35.5 Z"/></g>
<g><path style="opacity:1" fill="#786620" d="M 68.5,35.5 C 67.5041,35.5858 66.6708,35.2524 66,34.5C 65.7599,36.8516 64.9265,38.8516 63.5,40.5C 62.9082,37.3595 63.9082,35.0261 66.5,33.5C 67.7133,33.7472 68.38,34.4138 68.5,35.5 Z"/></g>
<g><path style="opacity:1" fill="#201412" d="M 37.5,24.5 C 37.5488,31.8493 37.8822,39.1826 38.5,46.5C 39.5,46.5 40.5,46.5 41.5,46.5C 42.1561,41.8439 44.8228,39.1772 49.5,38.5C 51.8471,39.5258 54.1805,40.5258 56.5,41.5C 57.0269,48.849 58.3602,49.1824 60.5,42.5C 61.5,42.5 62.5,42.5 63.5,42.5C 63.5,43.8333 63.5,45.1667 63.5,46.5C 64.5,46.5 65.5,46.5 66.5,46.5C 68.0144,49.2891 69.0144,52.2891 69.5,55.5C 68.596,56.209 68.2627,57.209 68.5,58.5C 67.8826,58.3893 67.3826,58.056 67,57.5C 66.433,54.8323 65.933,52.1656 65.5,49.5C 62.9556,49.1043 60.7889,49.771 59,51.5C 58.3897,54.8273 57.8897,58.1606 57.5,61.5C 57.5,61.8333 57.5,62.1667 57.5,62.5C 56.7777,61.4489 55.7777,60.7822 54.5,60.5C 56.3049,53.7974 55.6382,47.4641 52.5,41.5C 50.5,41.5 48.5,41.5 46.5,41.5C 43.6973,47.2553 43.0307,53.2553 44.5,59.5C 43.7281,60.6935 42.7281,61.6935 41.5,62.5C 41.5,62.1667 41.5,61.8333 41.5,61.5C 41.2642,58.0861 40.5975,54.7527 39.5,51.5C 37.8211,49.8955 35.8211,49.2289 33.5,49.5C 33.4484,52.3462 32.4484,54.6796 30.5,56.5C 30.5,55.8333 30.1667,55.5 29.5,55.5C 29.9856,52.2891 30.9856,49.2891 32.5,46.5C 33.5,46.5 34.5,46.5 35.5,46.5C 36.5862,46.38 37.2528,45.7133 37.5,44.5C 36.2243,37.685 36.2243,31.0184 37.5,24.5 Z"/></g>
<g><path style="opacity:1" fill="#e16544" d="M 54.5,60.5 C 50.5603,67.209 47.227,66.8757 44.5,59.5C 43.0307,53.2553 43.6973,47.2553 46.5,41.5C 48.5,41.5 50.5,41.5 52.5,41.5C 55.6382,47.4641 56.3049,53.7974 54.5,60.5 Z"/></g>
<g><path style="opacity:1" fill="#000000" d="M 48.5,45.5 C 50.337,45.6395 50.6704,46.3061 49.5,47.5C 48.7025,47.0431 48.3691,46.3764 48.5,45.5 Z"/></g>
<g><path style="opacity:1" fill="#98c1f0" d="M 30.5,56.5 C 32.4484,54.6796 33.4484,52.3462 33.5,49.5C 35.8211,49.2289 37.8211,49.8955 39.5,51.5C 40.5975,54.7527 41.2642,58.0861 41.5,61.5C 37.8333,61.5 34.1667,61.5 30.5,61.5C 29.8701,69.2428 30.5367,76.5762 32.5,83.5C 44.1667,83.5 55.8333,83.5 67.5,83.5C 68.4916,76.3524 68.825,69.0191 68.5,61.5C 64.8333,61.5 61.1667,61.5 57.5,61.5C 57.8897,58.1606 58.3897,54.8273 59,51.5C 60.7889,49.771 62.9556,49.1043 65.5,49.5C 65.933,52.1656 66.433,54.8323 67,57.5C 67.3826,58.056 67.8826,58.3893 68.5,58.5C 70.9878,60.3878 73.9878,61.0545 77.5,60.5C 77.6469,55.7858 77.3136,51.1191 76.5,46.5C 77.5,46.5 78.5,46.5 79.5,46.5C 79.2027,53.9204 79.536,61.2537 80.5,68.5C 77.5,68.5 74.5,68.5 71.5,68.5C 71.5,69.5 71.5,70.5 71.5,71.5C 74.1667,71.5 76.8333,71.5 79.5,71.5C 79.5,72.5 79.5,73.5 79.5,74.5C 76.8333,74.5 74.1667,74.5 71.5,74.5C 71.5,77.5 71.5,80.5 71.5,83.5C 74.0277,84.1657 76.6944,84.8324 79.5,85.5C 70.3423,86.1667 61.3423,86.8334 52.5,87.5C 50.7354,88.4614 48.7354,88.7947 46.5,88.5C 36.5541,86.5247 26.2208,85.8581 15.5,86.5C 15.5,73.1667 15.5,59.8333 15.5,46.5C 17.8333,46.5 20.1667,46.5 22.5,46.5C 21.6864,51.1191 21.3531,55.7858 21.5,60.5C 24.5,60.5 27.5,60.5 30.5,60.5C 30.5,59.1667 30.5,57.8333 30.5,56.5 Z"/></g>
<g><path style="opacity:1" fill="#6b9edc" d="M 79.5,46.5 C 80.8333,46.5 82.1667,46.5 83.5,46.5C 83.5,60.1667 83.5,73.8333 83.5,87.5C 73.1667,87.5 62.8333,87.5 52.5,87.5C 61.3423,86.8334 70.3423,86.1667 79.5,85.5C 76.6944,84.8324 74.0277,84.1657 71.5,83.5C 74.5,83.5 77.5,83.5 80.5,83.5C 80.81,80.2869 80.4767,77.2869 79.5,74.5C 79.5,73.5 79.5,72.5 79.5,71.5C 80.404,70.791 80.7373,69.791 80.5,68.5C 79.536,61.2537 79.2027,53.9204 79.5,46.5 Z"/></g>
<g><path style="opacity:1" fill="#776002" d="M 71.5,37.5 C 72.1174,37.6107 72.6174,37.944 73,38.5C 73.651,44.8268 74.151,51.1601 74.5,57.5C 72.2188,57.9227 70.5521,57.256 69.5,55.5C 70.4959,55.4142 71.3292,55.7476 72,56.5C 72.6534,50.1383 72.4867,43.805 71.5,37.5 Z"/></g>
<g><path style="opacity:1" fill="#7c3928" d="M 47.5,50.5 C 48.8333,50.5 50.1667,50.5 51.5,50.5C 51.5,54.5 51.5,58.5 51.5,62.5C 50.1667,62.5 48.8333,62.5 47.5,62.5C 47.5,58.5 47.5,54.5 47.5,50.5 Z"/></g>
<g><path style="opacity:1" fill="#000000" d="M 48.5,51.5 C 49.7773,52.6936 50.4439,54.3603 50.5,56.5C 50.1667,58.1667 49.8333,59.8333 49.5,61.5C 48.513,58.2317 48.1796,54.8984 48.5,51.5 Z"/></g>
<g><path style="opacity:1" fill="#796a28" d="M 27.5,38.5 C 26.8938,43.8319 26.2271,49.1652 25.5,54.5C 25.8333,55.1667 26.1667,55.8333 26.5,56.5C 27.4168,55.8728 28.4168,55.5394 29.5,55.5C 28.4479,57.256 26.7812,57.9227 24.5,57.5C 24.6262,52.9887 24.9595,48.4887 25.5,44C 25.5465,41.7047 26.2132,39.8714 27.5,38.5 Z"/></g>
<g><path style="opacity:1" fill="#0d0f0f" d="M 44.5,59.5 C 47.227,66.8757 50.5603,67.209 54.5,60.5C 55.7777,60.7822 56.7777,61.4489 57.5,62.5C 60.8333,62.5 64.1667,62.5 67.5,62.5C 67.5,69.5 67.5,76.5 67.5,83.5C 55.8333,83.5 44.1667,83.5 32.5,83.5C 31.3742,76.9141 31.2075,70.2474 32,63.5C 35.0567,62.5495 38.2234,62.2161 41.5,62.5C 42.7281,61.6935 43.7281,60.6935 44.5,59.5 Z"/></g>
<g><path style="opacity:1" fill="#334151" d="M 41.5,61.5 C 41.5,61.8333 41.5,62.1667 41.5,62.5C 38.2234,62.2161 35.0567,62.5495 32,63.5C 31.2075,70.2474 31.3742,76.9141 32.5,83.5C 30.5367,76.5762 29.8701,69.2428 30.5,61.5C 34.1667,61.5 37.8333,61.5 41.5,61.5 Z"/></g>
<g><path style="opacity:1" fill="#344253" d="M 57.5,62.5 C 57.5,62.1667 57.5,61.8333 57.5,61.5C 61.1667,61.5 64.8333,61.5 68.5,61.5C 68.825,69.0191 68.4916,76.3524 67.5,83.5C 67.5,76.5 67.5,69.5 67.5,62.5C 64.1667,62.5 60.8333,62.5 57.5,62.5 Z"/></g>
<g><path style="opacity:1" fill="#5a878b" d="M 44.5,65.5 C 41.1667,65.5 37.8333,65.5 34.5,65.5C 34.5,70.5 34.5,75.5 34.5,80.5C 33.5119,75.3595 33.1786,70.0262 33.5,64.5C 37.3714,64.185 41.0381,64.5184 44.5,65.5 Z"/></g>
<g><path style="opacity:1" fill="#9ff9fd" d="M 44.5,65.5 C 47.8333,70.8333 51.1667,70.8333 54.5,65.5C 57.8333,65.5 61.1667,65.5 64.5,65.5C 64.5,70.5 64.5,75.5 64.5,80.5C 54.5,80.5 44.5,80.5 34.5,80.5C 34.5,75.5 34.5,70.5 34.5,65.5C 37.8333,65.5 41.1667,65.5 44.5,65.5 Z"/></g>
<g><path style="opacity:1" fill="#3f878a" d="M 54.5,65.5 C 57.9619,64.5184 61.6286,64.185 65.5,64.5C 65.8214,70.0262 65.4881,75.3595 64.5,80.5C 64.5,75.5 64.5,70.5 64.5,65.5C 61.1667,65.5 57.8333,65.5 54.5,65.5 Z"/></g>
<g><path style="opacity:1" fill="#06070b" d="M 18.5,68.5 C 21.5,68.5 24.5,68.5 27.5,68.5C 27.5,69.5 27.5,70.5 27.5,71.5C 24.5,71.5 21.5,71.5 18.5,71.5C 18.5,70.5 18.5,69.5 18.5,68.5 Z"/></g>
<g><path style="opacity:1" fill="#05070b" d="M 80.5,68.5 C 80.7373,69.791 80.404,70.791 79.5,71.5C 76.8333,71.5 74.1667,71.5 71.5,71.5C 71.5,70.5 71.5,69.5 71.5,68.5C 74.5,68.5 77.5,68.5 80.5,68.5 Z"/></g>
<g><path style="opacity:1" fill="#0a0a08" d="M 18.5,74.5 C 21.5,74.5 24.5,74.5 27.5,74.5C 27.5,77.5 27.5,80.5 27.5,83.5C 24.5,83.5 21.5,83.5 18.5,83.5C 18.5,80.5 18.5,77.5 18.5,74.5 Z"/></g>
<g><path style="opacity:1" fill="#090908" d="M 79.5,74.5 C 80.4767,77.2869 80.81,80.2869 80.5,83.5C 77.5,83.5 74.5,83.5 71.5,83.5C 71.5,80.5 71.5,77.5 71.5,74.5C 74.1667,74.5 76.8333,74.5 79.5,74.5 Z"/></g>
<g><path style="opacity:1" fill="#f6d652" d="M 21.5,77.5 C 22.5,77.5 23.5,77.5 24.5,77.5C 24.5,78.5 24.5,79.5 24.5,80.5C 23.5,80.5 22.5,80.5 21.5,80.5C 21.5,79.5 21.5,78.5 21.5,77.5 Z"/></g>
<g><path style="opacity:1" fill="#f6d652" d="M 74.5,77.5 C 75.5,77.5 76.5,77.5 77.5,77.5C 77.5,78.5 77.5,79.5 77.5,80.5C 76.5,80.5 75.5,80.5 74.5,80.5C 74.5,79.5 74.5,78.5 74.5,77.5 Z"/></g>
<g><path style="opacity:1" fill="#50647e" d="M 15.5,86.5 C 26.2208,85.8581 36.5541,86.5247 46.5,88.5C 36.0373,87.8786 25.704,87.212 15.5,86.5 Z"/></g>
<g><path style="opacity:1" fill="#525253" d="M 43.5,90.5 C 33.1107,89.859 23.1107,90.5257 13.5,92.5C 12.596,91.791 12.2627,90.791 12.5,89.5C 23.0135,89.1724 33.3468,89.5058 43.5,90.5 Z"/></g>
<g><path style="opacity:1" fill="#cdcdce" d="M 43.5,90.5 C 57.319,90.7787 71.319,90.7787 85.5,90.5C 85.5,91.5 85.5,92.5 85.5,93.5C 61.3275,93.8309 37.3275,93.4976 13.5,92.5C 23.1107,90.5257 33.1107,89.859 43.5,90.5 Z"/></g>
</svg>
