<?xml version="1.0" encoding="UTF-8"?>
<!DOCTYPE svg PUBLIC "-//W3C//DTD SVG 1.1//EN" "http://www.w3.org/Graphics/SVG/1.1/DTD/svg11.dtd">
<svg xmlns="http://www.w3.org/2000/svg" version="1.1" width="100px" height="100px" style="shape-rendering:geometricPrecision; text-rendering:geometricPrecision; image-rendering:optimizeQuality; fill-rule:evenodd; clip-rule:evenodd" xmlns:xlink="http://www.w3.org/1999/xlink">
<g><path style="opacity:0.884" fill="#3193f3" d="M 74.5,99.5 C 57.8333,99.5 41.1667,99.5 24.5,99.5C 22.215,97.8818 20.215,95.8818 18.5,93.5C 17.1667,66.8333 17.1667,40.1667 18.5,13.5C 19.8333,10.8333 21.8333,8.83333 24.5,7.5C 41.1667,6.16667 57.8333,6.16667 74.5,7.5C 76.942,9.04363 78.942,11.0436 80.5,13.5C 81.8333,40.1667 81.8333,66.8333 80.5,93.5C 78.785,95.8818 76.785,97.8818 74.5,99.5 Z M 28.5,13.5 C 42.504,13.3334 56.504,13.5001 70.5,14C 71.6184,15.0736 72.6184,16.2402 73.5,17.5C 74.8333,41.5 74.8333,65.5 73.5,89.5C 72.646,90.5217 71.646,91.3551 70.5,92C 64.5,92.6667 58.5,92.6667 52.5,92C 53.4438,89.2809 53.7771,86.4475 53.5,83.5C 45.8411,82.0099 43.5078,84.8432 46.5,92C 40.5,92.6667 34.5,92.6667 28.5,92C 27.354,91.3551 26.354,90.5217 25.5,89.5C 24.1667,65.5 24.1667,41.5 25.5,17.5C 26.9344,16.4116 27.9344,15.0783 28.5,13.5 Z M 43.5,32.5 C 56.4358,31.0295 64.1024,36.5295 66.5,49C 65.6389,51.8875 64.6389,54.7208 63.5,57.5C 61.1622,59.3387 58.9955,61.3387 57,63.5C 43.6323,67.3074 35.4656,62.4741 32.5,49C 33.5658,45.9191 34.5658,42.7524 35.5,39.5C 37.9422,36.7121 40.6089,34.3787 43.5,32.5 Z"/></g>
<g><path style="opacity:0.957" fill="#3193f3" d="M 27.5,16.5 C 42.1667,16.5 56.8333,16.5 71.5,16.5C 71.5,37.5 71.5,58.5 71.5,79.5C 56.8333,79.5 42.1667,79.5 27.5,79.5C 27.5,58.5 27.5,37.5 27.5,16.5 Z M 43.5,32.5 C 40.6089,34.3787 37.9422,36.7121 35.5,39.5C 34.5658,42.7524 33.5658,45.9191 32.5,49C 35.4656,62.4741 43.6323,67.3074 57,63.5C 58.9955,61.3387 61.1622,59.3387 63.5,57.5C 64.6389,54.7208 65.6389,51.8875 66.5,49C 64.1024,36.5295 56.4358,31.0295 43.5,32.5 Z"/></g>
<g><path style="opacity:0.875" fill="#3092f2" d="M 36.5,42.5 C 39.8333,42.5 43.1667,42.5 46.5,42.5C 46.5,45.1667 46.5,47.8333 46.5,50.5C 48.5,50.5 50.5,50.5 52.5,50.5C 52.5,47.8333 52.5,45.1667 52.5,42.5C 55.8333,42.5 59.1667,42.5 62.5,42.5C 62.5,45.5 62.5,48.5 62.5,51.5C 59.8333,51.5 57.1667,51.5 54.5,51.5C 54.5,54.1667 54.5,56.8333 54.5,59.5C 51.1667,59.5 47.8333,59.5 44.5,59.5C 44.5,56.8333 44.5,54.1667 44.5,51.5C 41.8333,51.5 39.1667,51.5 36.5,51.5C 36.5,48.5 36.5,45.5 36.5,42.5 Z"/></g>
</svg>
