<?xml version="1.0" encoding="UTF-8"?>
<!DOCTYPE svg PUBLIC "-//W3C//DTD SVG 1.1//EN" "http://www.w3.org/Graphics/SVG/1.1/DTD/svg11.dtd">
<svg xmlns="http://www.w3.org/2000/svg" version="1.1" width="100px" height="100px" style="shape-rendering:geometricPrecision; text-rendering:geometricPrecision; image-rendering:optimizeQuality; fill-rule:evenodd; clip-rule:evenodd" xmlns:xlink="http://www.w3.org/1999/xlink">
<g><path style="opacity:0.95" fill="#fe4a73" d="M 38.5,13.5 C 34.9103,18.9364 31.0769,24.2698 27,29.5C 21.3575,40.07 18.5242,51.4033 18.5,63.5C 15.5,63.5 12.5,63.5 9.5,63.5C 9.3334,47.1633 9.50007,30.8299 10,14.5C 19.4166,13.5149 28.9166,13.1816 38.5,13.5 Z"/></g>
<g><path style="opacity:1" fill="#de829a" d="M 52.5,13.5 C 53.5,13.5 54.5,13.5 55.5,13.5C 55.4894,15.0174 54.8228,16.1841 53.5,17C 49.9795,19.3729 47.3128,21.8729 45.5,24.5C 43.2163,24.9752 41.2163,25.9752 39.5,27.5C 40.1389,25.2396 41.3055,23.2396 43,21.5C 46.3575,18.9688 49.5242,16.3021 52.5,13.5 Z"/></g>
<g><path style="opacity:1" fill="#caa7b6" d="M 66.5,13.5 C 68.5,13.5 70.5,13.5 72.5,13.5C 65.8653,16.1496 59.8653,19.8163 54.5,24.5C 53.3734,25.1217 52.3734,25.955 51.5,27C 49.9343,27.765 48.6009,27.5983 47.5,26.5C 53.5276,21.8206 59.8609,17.4872 66.5,13.5 Z"/></g>
<g><path style="opacity:1" fill="#c4b9c4" d="M 72.5,13.5 C 78.0262,13.1786 83.3595,13.5119 88.5,14.5C 83.5193,15.2957 78.1859,16.4623 72.5,18C 67.3369,20.3687 62.3369,22.8687 57.5,25.5C 56.391,25.4431 55.391,25.1098 54.5,24.5C 59.8653,19.8163 65.8653,16.1496 72.5,13.5 Z"/></g>
<g><path style="opacity:1" fill="#f8577c" d="M 38.5,13.5 C 40.1667,13.5 41.8333,13.5 43.5,13.5C 29.0399,26.8306 21.7066,43.4973 21.5,63.5C 20.5,63.5 19.5,63.5 18.5,63.5C 18.5242,51.4033 21.3575,40.07 27,29.5C 31.0769,24.2698 34.9103,18.9364 38.5,13.5 Z"/></g>
<g><path style="opacity:1" fill="#bdc6cd" d="M 88.5,14.5 C 89.404,15.209 89.7373,16.209 89.5,17.5C 84.1259,17.523 78.7926,18.023 73.5,19C 70.282,21.7765 66.6153,23.7765 62.5,25C 61.3636,26.1451 60.3636,27.3117 59.5,28.5C 58.8333,27.5 58.1667,26.5 57.5,25.5C 62.3369,22.8687 67.3369,20.3687 72.5,18C 78.1859,16.4623 83.5193,15.2957 88.5,14.5 Z"/></g>
<g><path style="opacity:1" fill="#d597aa" d="M 55.5,13.5 C 59.1667,13.5 62.8333,13.5 66.5,13.5C 59.8609,17.4872 53.5276,21.8206 47.5,26.5C 46.5,26.1667 45.8333,25.5 45.5,24.5C 47.3128,21.8729 49.9795,19.3729 53.5,17C 54.8228,16.1841 55.4894,15.0174 55.5,13.5 Z"/></g>
<g><path style="opacity:1" fill="#b3d6d8" d="M 89.5,17.5 C 89.5,18.5 89.5,19.5 89.5,20.5C 84.752,20.2748 80.0853,20.7748 75.5,22C 71.0715,24.4802 66.7382,27.1468 62.5,30C 61.6634,31.0113 61.33,32.1779 61.5,33.5C 62.9002,34.1001 63.9002,35.1001 64.5,36.5C 64.5,38.8333 64.5,41.1667 64.5,43.5C 62.4862,43.3915 60.8195,44.0582 59.5,45.5C 59.6941,43.0882 61.0274,42.0882 63.5,42.5C 63.5,40.1667 63.5,37.8333 63.5,35.5C 62.5,35.5 61.5,35.5 60.5,35.5C 58.4554,33.3035 58.1221,30.9702 59.5,28.5C 60.3636,27.3117 61.3636,26.1451 62.5,25C 66.6153,23.7765 70.282,21.7765 73.5,19C 78.7926,18.023 84.1259,17.523 89.5,17.5 Z"/></g>
<g><path style="opacity:1" fill="#e2e2e2" d="M 45.5,24.5 C 45.8333,25.5 46.5,26.1667 47.5,26.5C 48.6009,27.5983 49.9343,27.765 51.5,27C 52.3734,25.955 53.3734,25.1217 54.5,24.5C 55.391,25.1098 56.391,25.4431 57.5,25.5C 58.1667,26.5 58.8333,27.5 59.5,28.5C 58.1221,30.9702 58.4554,33.3035 60.5,35.5C 59.2947,38.584 57.7947,41.584 56,44.5C 51.0724,46.6166 46.9057,49.6166 43.5,53.5C 42.205,52.5116 40.8717,51.5116 39.5,50.5C 41.3321,46.3164 39.9988,43.6498 35.5,42.5C 34.5386,40.7354 34.2053,38.7354 34.5,36.5C 35.6222,35.0527 37.1222,34.0527 39,33.5C 39.4955,31.5273 39.6621,29.5273 39.5,27.5C 41.2163,25.9752 43.2163,24.9752 45.5,24.5 Z"/></g>
<g><path style="opacity:1" fill="#aee4e3" d="M 89.5,20.5 C 89.5,21.5 89.5,22.5 89.5,23.5C 78.5234,22.7109 69.1901,26.0442 61.5,33.5C 61.33,32.1779 61.6634,31.0113 62.5,30C 66.7382,27.1468 71.0715,24.4802 75.5,22C 80.0853,20.7748 84.752,20.2748 89.5,20.5 Z"/></g>
<g><path style="opacity:0.978" fill="#9cf6f4" d="M 89.5,23.5 C 89.5,26.1667 89.5,28.8333 89.5,31.5C 84.8534,32.5977 80.1867,33.7644 75.5,35C 72.7766,37.5994 69.9433,40.0994 67,42.5C 66.1553,40.3885 65.322,38.3885 64.5,36.5C 63.9002,35.1001 62.9002,34.1001 61.5,33.5C 69.1901,26.0442 78.5234,22.7109 89.5,23.5 Z"/></g>
<g><path style="opacity:1" fill="#cdd5d6" d="M 60.5,35.5 C 61.5,35.5 62.5,35.5 63.5,35.5C 63.5,37.8333 63.5,40.1667 63.5,42.5C 61.0274,42.0882 59.6941,43.0882 59.5,45.5C 60.4783,49.9129 58.4783,52.5796 53.5,53.5C 53.0377,52.1201 52.0377,51.4534 50.5,51.5C 45.0473,54.2753 43.3807,58.6086 45.5,64.5C 44.1667,64.5 42.8333,64.5 41.5,64.5C 41.0097,60.5128 41.6764,56.8462 43.5,53.5C 46.9057,49.6166 51.0724,46.6166 56,44.5C 57.7947,41.584 59.2947,38.584 60.5,35.5 Z"/></g>
<g><path style="opacity:1" fill="#ec6e8c" d="M 43.5,13.5 C 46.5,13.5 49.5,13.5 52.5,13.5C 49.5242,16.3021 46.3575,18.9688 43,21.5C 41.3055,23.2396 40.1389,25.2396 39.5,27.5C 36.516,28.987 34.3494,31.3203 33,34.5C 29.414,43.8443 27.2474,53.5109 26.5,63.5C 24.8333,63.5 23.1667,63.5 21.5,63.5C 21.7066,43.4973 29.0399,26.8306 43.5,13.5 Z"/></g>
<g><path style="opacity:1" fill="#2b67a4" d="M 47.5,34.5 C 53.6614,34.9435 54.9947,37.7768 51.5,43C 48.7825,44.033 46.9492,43.1997 46,40.5C 45.2516,38.1599 45.7516,36.1599 47.5,34.5 Z"/></g>
<g><path style="opacity:0.992" fill="#7ee4fb" d="M 89.5,38.5 C 89.5,39.8333 89.5,41.1667 89.5,42.5C 76.3844,43.2794 69.051,50.2794 67.5,63.5C 65.8333,63.5 64.1667,63.5 62.5,63.5C 64.7607,47.9065 73.7607,39.5731 89.5,38.5 Z"/></g>
<g><path style="opacity:0.987" fill="#6fd5f9" d="M 89.5,42.5 C 89.5,45.1667 89.5,47.8333 89.5,50.5C 80.928,50.7414 76.2614,55.0747 75.5,63.5C 76.8333,63.5 78.1667,63.5 79.5,63.5C 79.5,63.8333 79.5,64.1667 79.5,64.5C 73.5,64.5 67.5,64.5 61.5,64.5C 61.5,64.1667 61.5,63.8333 61.5,63.5C 61.8333,63.5 62.1667,63.5 62.5,63.5C 64.1667,63.5 65.8333,63.5 67.5,63.5C 69.051,50.2794 76.3844,43.2794 89.5,42.5 Z"/></g>
<g><path style="opacity:1" fill="#d695a9" d="M 34.5,36.5 C 34.2053,38.7354 34.5386,40.7354 35.5,42.5C 35.8039,43.1499 36.1373,43.8165 36.5,44.5C 34.5409,49.6698 33.2075,55.0032 32.5,60.5C 32.3601,62.0296 31.6935,63.0296 30.5,63.5C 30.3343,59.1539 30.501,54.8206 31,50.5C 32.6527,45.8162 33.8193,41.1496 34.5,36.5 Z"/></g>
<g><path style="opacity:1" fill="#dd839b" d="M 39.5,27.5 C 39.6621,29.5273 39.4955,31.5273 39,33.5C 37.1222,34.0527 35.6222,35.0527 34.5,36.5C 33.8193,41.1496 32.6527,45.8162 31,50.5C 30.501,54.8206 30.3343,59.1539 30.5,63.5C 29.209,63.2627 28.209,63.596 27.5,64.5C 21.5,64.5 15.5,64.5 9.5,64.5C 9.5,64.1667 9.5,63.8333 9.5,63.5C 12.5,63.5 15.5,63.5 18.5,63.5C 19.5,63.5 20.5,63.5 21.5,63.5C 23.1667,63.5 24.8333,63.5 26.5,63.5C 27.2474,53.5109 29.414,43.8443 33,34.5C 34.3494,31.3203 36.516,28.987 39.5,27.5 Z"/></g>
<g><path style="opacity:1" fill="#cba5b4" d="M 35.5,42.5 C 39.9988,43.6498 41.3321,46.3164 39.5,50.5C 38.0164,55.0334 37.3497,59.7001 37.5,64.5C 34.1667,64.5 30.8333,64.5 27.5,64.5C 28.209,63.596 29.209,63.2627 30.5,63.5C 31.6935,63.0296 32.3601,62.0296 32.5,60.5C 33.2075,55.0032 34.5409,49.6698 36.5,44.5C 36.1373,43.8165 35.8039,43.1499 35.5,42.5 Z"/></g>
<g><path style="opacity:1" fill="#8cedf6" d="M 89.5,31.5 C 89.5,33.8333 89.5,36.1667 89.5,38.5C 73.7607,39.5731 64.7607,47.9065 62.5,63.5C 62.1667,63.5 61.8333,63.5 61.5,63.5C 59.5,63.5 57.5,63.5 55.5,63.5C 56.299,60.5701 56.6323,57.5701 56.5,54.5C 55.209,54.7373 54.209,54.404 53.5,53.5C 58.4783,52.5796 60.4783,49.9129 59.5,45.5C 60.8195,44.0582 62.4862,43.3915 64.5,43.5C 64.5,41.1667 64.5,38.8333 64.5,36.5C 65.322,38.3885 66.1553,40.3885 67,42.5C 69.9433,40.0994 72.7766,37.5994 75.5,35C 80.1867,33.7644 84.8534,32.5977 89.5,31.5 Z"/></g>
<g><path style="opacity:1" fill="#bfbcc5" d="M 39.5,50.5 C 40.8717,51.5116 42.205,52.5116 43.5,53.5C 41.6764,56.8462 41.0097,60.5128 41.5,64.5C 40.1667,64.5 38.8333,64.5 37.5,64.5C 37.3497,59.7001 38.0164,55.0334 39.5,50.5 Z"/></g>
<g><path style="opacity:1" fill="#5cc9fe" d="M 89.5,50.5 C 89.5,52.1667 89.5,53.8333 89.5,55.5C 84.6741,56.3281 81.3408,58.9948 79.5,63.5C 78.1667,63.5 76.8333,63.5 75.5,63.5C 76.2614,55.0747 80.928,50.7414 89.5,50.5 Z"/></g>
<g><path style="opacity:0.916" fill="#4cadf3" d="M 89.5,55.5 C 89.5,58.5 89.5,61.5 89.5,64.5C 86.1667,64.5 82.8333,64.5 79.5,64.5C 79.5,64.1667 79.5,63.8333 79.5,63.5C 81.3408,58.9948 84.6741,56.3281 89.5,55.5 Z"/></g>
<g><path style="opacity:1" fill="#a9e4e2" d="M 53.5,53.5 C 52.5,53.5 51.5,53.5 50.5,53.5C 49.7929,56.7861 49.4595,60.1194 49.5,63.5C 51.5,63.5 53.5,63.5 55.5,63.5C 57.5,63.5 59.5,63.5 61.5,63.5C 61.5,63.8333 61.5,64.1667 61.5,64.5C 57.1667,64.5 52.8333,64.5 48.5,64.5C 47.5,64.5 46.5,64.5 45.5,64.5C 43.3807,58.6086 45.0473,54.2753 50.5,51.5C 52.0377,51.4534 53.0377,52.1201 53.5,53.5 Z"/></g>
<g><path style="opacity:1" fill="#9ff9f4" d="M 53.5,53.5 C 54.209,54.404 55.209,54.7373 56.5,54.5C 56.6323,57.5701 56.299,60.5701 55.5,63.5C 53.5,63.5 51.5,63.5 49.5,63.5C 49.4595,60.1194 49.7929,56.7861 50.5,53.5C 51.5,53.5 52.5,53.5 53.5,53.5 Z"/></g>
<g><path style="opacity:0.989" fill="#9ba4ac" d="M 9.5,64.5 C 15.5,64.5 21.5,64.5 27.5,64.5C 30.8333,64.5 34.1667,64.5 37.5,64.5C 38.8333,64.5 40.1667,64.5 41.5,64.5C 42.8333,64.5 44.1667,64.5 45.5,64.5C 46.5,64.5 47.5,64.5 48.5,64.5C 46.1325,67.5342 43.4658,70.2009 40.5,72.5C 40.1667,72.5 39.8333,72.5 39.5,72.5C 29.8276,72.6665 20.1609,72.4998 10.5,72C 9.565,69.6194 9.23166,67.1194 9.5,64.5 Z"/></g>
<g><path style="opacity:0.985" fill="#9199a0" d="M 48.5,64.5 C 52.8333,64.5 57.1667,64.5 61.5,64.5C 67.5,64.5 73.5,64.5 79.5,64.5C 82.8333,64.5 86.1667,64.5 89.5,64.5C 89.7683,67.1194 89.435,69.6194 88.5,72C 78.8391,72.4998 69.1724,72.6665 59.5,72.5C 53.1667,72.5 46.8333,72.5 40.5,72.5C 43.4658,70.2009 46.1325,67.5342 48.5,64.5 Z"/></g>
<g><path style="opacity:0.908" fill="#545a60" d="M 39.5,72.5 C 39.8333,72.5 40.1667,72.5 40.5,72.5C 46.8333,72.5 53.1667,72.5 59.5,72.5C 59.5,73.8333 59.5,75.1667 59.5,76.5C 52.8333,76.5 46.1667,76.5 39.5,76.5C 39.5,75.1667 39.5,73.8333 39.5,72.5 Z"/></g>
<g><path style="opacity:1" fill="#646d74" d="M 39.5,76.5 C 46.1667,76.5 52.8333,76.5 59.5,76.5C 60.3414,78.3792 60.6747,80.3792 60.5,82.5C 53.1667,82.5 45.8333,82.5 38.5,82.5C 38.3253,80.3792 38.6586,78.3792 39.5,76.5 Z"/></g>
<g><path style="opacity:0.991" fill="#959ea6" d="M 38.5,82.5 C 45.8333,82.5 53.1667,82.5 60.5,82.5C 63.1667,82.5 65.8333,82.5 68.5,82.5C 68.5,84.1667 68.5,85.8333 68.5,87.5C 55.8333,87.5 43.1667,87.5 30.5,87.5C 30.5,85.8333 30.5,84.1667 30.5,82.5C 33.1667,82.5 35.8333,82.5 38.5,82.5 Z"/></g>
</svg>
