<svg width="100" height="100" viewBox="0 0 100 100" fill="none" xmlns="http://www.w3.org/2000/svg">
<path opacity="0.803" fill-rule="evenodd" clip-rule="evenodd" d="M63.5 24.5C64.252 26.1003 65.252 27.6003 66.5 29C65.9056 29.4643 65.2389 29.631 64.5 29.5C59.9547 28.3641 55.7881 26.3641 52 23.5C51.6012 23.7284 51.4346 24.0618 51.5 24.5C49.7036 22.1 47.3702 20.4333 44.5 19.5C44.8212 17.9519 45.8212 17.2852 47.5 17.5C47.5 11.8333 47.5 6.16667 47.5 0.5C48.8333 0.5 50.1667 0.5 51.5 0.5C51.5 6.16667 51.5 11.8333 51.5 17.5C53.9646 18.4651 56.4646 19.4651 59 20.5C60.9755 21.4655 62.4755 22.7988 63.5 24.5Z" fill="#03AEE6"/>
<path opacity="0.716" fill-rule="evenodd" clip-rule="evenodd" d="M44.5 19.5C47.3702 20.4333 49.7036 22.1 51.5 24.5C51.5 29.8333 51.5 35.1667 51.5 40.5C50.1667 40.5 48.8333 40.5 47.5 40.5C47.5 35.1667 47.5 29.8333 47.5 24.5C44.0224 25.4863 40.6891 26.8197 37.5 28.5C37.9367 26.4048 36.9367 24.7382 34.5 23.5C37.4939 21.5224 40.8273 20.189 44.5 19.5Z" fill="#02BFE2"/>
<path opacity="0.798" fill-rule="evenodd" clip-rule="evenodd" d="M63.5 24.5C68.2193 25.6851 72.8859 27.1851 77.5 29C78.435 31.3806 78.7683 33.8806 78.5 36.5C77.5284 38.4931 76.1951 38.8264 74.5 37.5C74.5 37.1667 74.5 36.8333 74.5 36.5C72.882 35.5489 71.5487 34.2156 70.5 32.5C69.4728 33.7914 68.4728 33.7914 67.5 32.5C66.0998 31.8999 65.0998 30.8999 64.5 29.5C65.2389 29.631 65.9056 29.4643 66.5 29C65.252 27.6003 64.252 26.1003 63.5 24.5Z" fill="#08A4E8"/>
<path opacity="0.686" fill-rule="evenodd" clip-rule="evenodd" d="M34.5002 23.5C36.9369 24.7382 37.9369 26.4048 37.5002 28.5C35.5774 29.7819 33.5774 31.1152 31.5002 32.5C35.2105 33.6399 38.2105 35.6399 40.5002 38.5C39.4752 38.8966 39.3085 39.5632 40.0002 40.5C40.3335 40.1667 40.6669 39.8333 41.0002 39.5C43.1646 41.4797 44.6646 43.813 45.5002 46.5C38.2486 42.7158 31.2486 39.3825 24.5002 36.5C23.2923 35.7659 21.9589 35.4326 20.5002 35.5C20.1045 32.9556 20.7712 30.7889 22.5002 29C26.6911 27.3547 30.6911 25.5214 34.5002 23.5Z" fill="#00D0DC"/>
<path opacity="0.633" fill-rule="evenodd" clip-rule="evenodd" d="M67.5 32.5C68.4728 33.7914 69.4728 33.7914 70.5 32.5C71.5487 34.2156 72.882 35.5489 74.5 36.5C70.5416 37.709 66.8749 39.3757 63.5 41.5C61.9373 40.0552 60.604 38.3885 59.5 36.5C62.1129 34.9684 64.7796 33.6351 67.5 32.5Z" fill="#06B1E3"/>
<path opacity="0.71" fill-rule="evenodd" clip-rule="evenodd" d="M59.5001 36.5C60.6041 38.3885 61.9374 40.0552 63.5001 41.5C58.2853 45.5661 52.2853 47.2328 45.5001 46.5C44.6645 43.813 43.1645 41.4797 41.0001 39.5C40.6668 39.8333 40.3334 40.1667 40.0001 40.5C39.3084 39.5632 39.4751 38.8966 40.5001 38.5C42.9654 38.767 45.2987 39.4336 47.5001 40.5C48.0969 41.1386 48.9303 41.472 50.0001 41.5C53.4086 40.1013 56.5753 38.4346 59.5001 36.5Z" fill="#01CCE0"/>
<path opacity="0.824" fill-rule="evenodd" clip-rule="evenodd" d="M78.5 36.5C78.5 42.8333 78.5 49.1667 78.5 55.5C77.6981 56.9516 77.1981 58.6183 77 60.5C76.2917 59.6195 75.4584 58.9528 74.5 58.5C74.5 51.5 74.5 44.5 74.5 37.5C76.1951 38.8264 77.5284 38.4931 78.5 36.5Z" fill="#01B8E4"/>
<path opacity="0.672" fill-rule="evenodd" clip-rule="evenodd" d="M20.5 35.5C21.9587 35.4326 23.2921 35.7659 24.5 36.5C24.5 44.8333 24.5 53.1667 24.5 61.5C23.2954 59.8624 21.9621 59.5291 20.5 60.5C20.5 52.1667 20.5 43.8333 20.5 35.5Z" fill="#00AAC5"/>
<path opacity="0.765" fill-rule="evenodd" clip-rule="evenodd" d="M62.5 55.5C63.7341 58.4073 65.7341 60.7407 68.5 62.5C67.2086 63.5272 67.2086 64.5272 68.5 65.5C63.7993 63.3756 59.1327 61.0423 54.5 58.5C53.5481 56.9547 53.2148 55.288 53.5 53.5C56.752 53.2895 59.752 53.9562 62.5 55.5Z" fill="#0FD2E2"/>
<path opacity="0.714" fill-rule="evenodd" clip-rule="evenodd" d="M62.5 55.5C66.3853 57.3597 70.2186 59.3597 74 61.5C74.4828 60.552 74.6495 59.552 74.5 58.5C75.4584 58.9528 76.2917 59.6195 77 60.5C77.1981 58.6183 77.6981 56.9516 78.5 55.5C78.3359 58.1873 78.5026 60.854 79 63.5C81.4214 65.6966 84.2548 67.03 87.5 67.5C87.5168 71.1919 88.8501 74.1919 91.5 76.5C88.6373 75.4749 85.9706 74.1415 83.5 72.5C83.9382 72.5654 84.2716 72.3988 84.5 72C83.2713 70.4708 81.7713 69.3041 80 68.5C79.6667 67.5 79.3333 66.5 79 65.5C78.6667 65.8333 78.3333 66.1667 78 66.5C75.4844 61.6197 72.651 61.2864 69.5 65.5C69.1667 65.5 68.8333 65.5 68.5 65.5C67.2086 64.5272 67.2086 63.5272 68.5 62.5C65.7341 60.7407 63.7341 58.4073 62.5 55.5Z" fill="#0FC3E4"/>
<path opacity="0.677" fill-rule="evenodd" clip-rule="evenodd" d="M33.5 63.5001C31.8173 62.1467 30.4839 60.48 29.5 58.5001C32.5637 57.4716 35.5637 56.1383 38.5 54.5001C40.7427 53.5259 43.076 53.1925 45.5 53.5001C45.7394 55.4673 45.4061 57.3006 44.5 59.0001C40.8084 60.515 37.1418 62.015 33.5 63.5001Z" fill="#06B2C8"/>
<path opacity="0.782" fill-rule="evenodd" clip-rule="evenodd" d="M47.5 47.5C48.8333 47.5 50.1667 47.5 51.5 47.5C51.5 56.5 51.5 65.5 51.5 74.5C50.1667 74.5 48.8333 74.5 47.5 74.5C47.5 65.5 47.5 56.5 47.5 47.5Z" fill="#00C4D4"/>
<path opacity="0.754" fill-rule="evenodd" clip-rule="evenodd" d="M29.5 58.5C30.4839 60.4799 31.8173 62.1466 33.5 63.5C32.4664 64.6871 31.133 65.5204 29.5 66C30.5266 66.5133 31.5266 67.0133 32.5 67.5C32.3893 68.1174 32.056 68.6174 31.5 69C34.0823 70.3382 34.7489 72.1715 33.5 74.5C29.7483 72.4456 25.7483 71.1123 21.5 70.5C19.8577 69.197 18.1911 67.8637 16.5 66.5C17.3149 65.1634 18.4815 64.1634 20 63.5C20.4828 62.552 20.6495 61.552 20.5 60.5C21.9621 59.5291 23.2954 59.8624 24.5 61.5C26.3325 60.7515 27.9991 59.7515 29.5 58.5Z" fill="#0497BA"/>
<path opacity="0.731" fill-rule="evenodd" clip-rule="evenodd" d="M83.5 72.5001C81.3111 71.4385 78.9778 70.7718 76.5 70.5001C72.4901 71.8441 68.4901 73.1774 64.5 74.5001C63.5 73.1668 62.5 71.8334 61.5 70.5001C64.0711 68.6748 66.7378 67.0081 69.5 65.5001C72.651 61.2865 75.4844 61.6198 78 66.5001C78.3333 66.1668 78.6667 65.8334 79 65.5001C79.3333 66.5001 79.6667 67.5001 80 68.5001C81.7713 69.3042 83.2713 70.4709 84.5 72.0001C84.2716 72.3989 83.9382 72.5655 83.5 72.5001Z" fill="#01CFDF"/>
<path opacity="0.692" fill-rule="evenodd" clip-rule="evenodd" d="M32.5 67.5C35.8333 69.1667 39.1667 70.8333 42.5 72.5C40.8742 75.1209 41.5409 76.9543 44.5 78C43.944 78.3826 43.6107 78.8826 43.5 79.5C39.8577 78.3455 36.5243 76.6789 33.5 74.5C34.7489 72.1715 34.0823 70.3382 31.5 69C32.056 68.6174 32.3893 68.1174 32.5 67.5Z" fill="#049EC0"/>
<path opacity="0.708" fill-rule="evenodd" clip-rule="evenodd" d="M87.5 67.5C91.0153 69.423 94.6819 71.0897 98.5 72.5C98.5 74.5 98.5 76.5 98.5 78.5C95.6122 79.0102 93.2789 78.3435 91.5 76.5C88.8501 74.1919 87.5168 71.1919 87.5 67.5Z" fill="#16BDE8"/>
<path opacity="0.762" fill-rule="evenodd" clip-rule="evenodd" d="M16.5 66.5C18.1911 67.8637 19.8577 69.197 21.5 70.5C16.6933 72.4429 12.0266 74.7762 7.5 77.5C5.25731 78.4742 2.92397 78.8076 0.5 78.5C0.5 76.5 0.5 74.5 0.5 72.5C5.94432 70.6867 11.2777 68.6867 16.5 66.5Z" fill="#0B73A6"/>
<path opacity="0.686" fill-rule="evenodd" clip-rule="evenodd" d="M42.4995 72.5C44.6419 74.6618 47.3086 75.6618 50.4995 75.5C51.7191 77.2821 52.3857 79.2821 52.4995 81.5C51.5106 86.9753 51.1773 92.642 51.4995 98.5C50.1662 98.5 48.8328 98.5 47.4995 98.5C47.4995 92.8333 47.4995 87.1667 47.4995 81.5C45.8002 81.4729 44.4669 80.8062 43.4995 79.5C43.6102 78.8826 43.9435 78.3826 44.4995 78C41.5404 76.9543 40.8737 75.1209 42.4995 72.5Z" fill="#039EBF"/>
<path opacity="0.564" fill-rule="evenodd" clip-rule="evenodd" d="M61.5 70.5C62.5 71.8333 63.5 73.1667 64.5 74.5C60.9393 77.5768 56.9393 79.9101 52.5 81.5C52.3862 79.2821 51.7196 77.2821 50.5 75.5C54.2607 73.9887 57.9274 72.3221 61.5 70.5Z" fill="#01B8CC"/>
</svg>
