<svg width="100" height="100" viewBox="0 0 100 100" fill="none" xmlns="http://www.w3.org/2000/svg">
<path opacity="0.94" fill-rule="evenodd" clip-rule="evenodd" d="M83.5 30.5C82.1889 34.6829 82.1889 39.0162 83.5 43.5C84.1667 44.1667 84.8333 44.8333 85.5 45.5C86.8333 55.1667 86.8333 64.8333 85.5 74.5C83.3145 79.5913 80.9811 84.5913 78.5 89.5C61.0386 90.1402 43.7053 90.8069 26.5 91.5C22.8687 91.9677 19.5354 91.301 16.5 89.5C15.5091 85.5546 15.1758 81.5546 15.5 77.5C14.1667 77.5 12.8333 77.5 11.5 77.5C11.5 65.8333 11.5 54.1667 11.5 42.5C16.5 42.5 21.5 42.5 26.5 42.5C30.6845 43.1664 35.0178 43.8331 39.5 44.5C40.8333 45.8333 40.8333 47.1667 39.5 48.5C35.2172 49.4922 30.8839 49.8256 26.5 49.5C23.8333 49.5 21.1667 49.5 18.5 49.5C18.5 56.1667 18.5 62.8333 18.5 69.5C21.1667 69.5 23.8333 69.5 26.5 69.5C36.6532 70.4942 46.9865 70.8276 57.5 70.5C57.5 72.5 57.5 74.5 57.5 76.5C46.9865 76.1724 36.6532 76.5058 26.5 77.5C25.1667 77.5 23.8333 77.5 22.5 77.5C22.7377 80.0685 24.071 81.7352 26.5 82.5C42.7998 84.4854 59.4665 85.1521 76.5 84.5C76.5 81.8333 76.5 79.1667 76.5 76.5C73.8333 76.5 71.1667 76.5 68.5 76.5C68.5 74.5 68.5 72.5 68.5 70.5C72.5 70.5 76.5 70.5 80.5 70.5C80.5 63.5 80.5 56.5 80.5 49.5C69.5 49.5 58.5 49.5 47.5 49.5C47.5 47.5 47.5 45.5 47.5 43.5C57.1667 43.5 66.8333 43.5 76.5 43.5C76.5 40.1667 76.5 36.8333 76.5 33.5C71.9834 32.8335 67.3167 32.1669 62.5 31.5C61.5 30.8333 60.5 30.1667 59.5 29.5C58.8963 25.6973 58.2296 22.0306 57.5 18.5C57.5 18.1667 57.5 17.8333 57.5 17.5C57.5 16.5 57.5 15.5 57.5 14.5C47.4944 14.3335 37.4944 14.5002 27.5 15C26.0186 15.9803 24.6853 17.147 23.5 18.5C22.5037 24.7985 22.1703 31.1318 22.5 37.5C20.1667 37.5 17.8333 37.5 15.5 37.5C14.895 27.64 15.5616 17.9734 17.5 8.5C33.8333 7.16667 50.1667 7.16667 66.5 8.5C70.8107 13.8114 75.4774 18.8114 80.5 23.5C81.325 24.3857 82.325 24.719 83.5 24.5C83.5 26.5 83.5 28.5 83.5 30.5ZM26.5 49.5C26.5 56.1667 26.5 62.8333 26.5 69.5C23.8333 69.5 21.1667 69.5 18.5 69.5C18.5 62.8333 18.5 56.1667 18.5 49.5C21.1667 49.5 23.8333 49.5 26.5 49.5ZM26.5 77.5C26.5 79.1667 26.5 80.8333 26.5 82.5C24.071 81.7352 22.7377 80.0685 22.5 77.5C23.8333 77.5 25.1667 77.5 26.5 77.5Z" fill="#FC4D75"/>
<path opacity="0.993" fill-rule="evenodd" clip-rule="evenodd" d="M57.5 17.5C57.5 17.8333 57.5 18.1667 57.5 18.5C57.1744 22.8839 57.5078 27.2172 58.5 31.5C59.5 32 60.5 32.5 61.5 33C66.4889 33.4993 71.4889 33.6659 76.5 33.5C76.5 36.8333 76.5 40.1667 76.5 43.5C66.8333 43.5 57.1667 43.5 47.5 43.5C47.5 45.5 47.5 47.5 47.5 49.5C58.5 49.5 69.5 49.5 80.5 49.5C80.5 56.5 80.5 63.5 80.5 70.5C76.5 70.5 72.5 70.5 68.5 70.5C68.5 72.5 68.5 74.5 68.5 76.5C71.1667 76.5 73.8333 76.5 76.5 76.5C76.5 79.1667 76.5 81.8333 76.5 84.5C59.4665 85.1521 42.7998 84.4854 26.5 82.5C26.5 80.8333 26.5 79.1667 26.5 77.5C36.6532 76.5058 46.9865 76.1724 57.5 76.5C57.5 74.5 57.5 72.5 57.5 70.5C46.9865 70.8276 36.6532 70.4942 26.5 69.5C26.5 62.8333 26.5 56.1667 26.5 49.5C30.8839 49.8256 35.2172 49.4922 39.5 48.5C40.8333 47.1667 40.8333 45.8333 39.5 44.5C35.0178 43.8331 30.6845 43.1664 26.5 42.5C26.5 34.1667 26.5 25.8333 26.5 17.5C36.8333 17.5 47.1667 17.5 57.5 17.5Z" fill="#64C9FB"/>
<path fill-rule="evenodd" clip-rule="evenodd" d="M64.5 20.5C66.7531 21.7433 68.7531 23.41 70.5 25.5C68.604 26.4656 66.604 26.7989 64.5 26.5C64.5 24.5 64.5 22.5 64.5 20.5Z" fill="#66C7F8"/>
<path fill-rule="evenodd" clip-rule="evenodd" d="M57.4996 18.5C58.2292 22.0306 58.8959 25.6973 59.4996 29.5C60.4996 30.1667 61.4996 30.8333 62.4996 31.5C67.3163 32.1669 71.983 32.8335 76.4996 33.5C71.4885 33.6659 66.4885 33.4993 61.4996 33C60.4996 32.5 59.4996 32 58.4996 31.5C57.5074 27.2172 57.174 22.8839 57.4996 18.5Z" fill="#9C9ECC"/>
<path opacity="0.919" fill-rule="evenodd" clip-rule="evenodd" d="M83.5 30.5C85.4167 31.4056 87.0834 32.7389 88.5 34.5C89.4997 55.4894 89.833 76.4894 89.5 97.5C68.5 97.5 47.5 97.5 26.5 97.5C26.5 95.5 26.5 93.5 26.5 91.5C44.1989 92.1527 61.5322 91.486 78.5 89.5C80.9811 84.5913 83.3145 79.5913 85.5 74.5C86.8333 64.8333 86.8333 55.1667 85.5 45.5C84.8333 44.8333 84.1667 44.1667 83.5 43.5C82.1889 39.0162 82.1889 34.6829 83.5 30.5Z" fill="#6AC7F9"/>
<path fill-rule="evenodd" clip-rule="evenodd" d="M37.5 55.5C36.5184 58.9619 36.185 62.6286 36.5 66.5C35.5 66.5 34.5 66.5 33.5 66.5C33.815 62.6286 33.4816 58.9619 32.5 55.5C31.1667 55.5 29.8333 55.5 28.5 55.5C28.5 54.1667 28.5 52.8333 28.5 51.5C32.5 51.5 36.5 51.5 40.5 51.5C40.5 52.8333 40.5 54.1667 40.5 55.5C39.5 55.5 38.5 55.5 37.5 55.5Z" fill="#F75179"/>
<path fill-rule="evenodd" clip-rule="evenodd" d="M58.5 51.5C62.5 51.5 66.5 51.5 70.5 51.5C70.5 52.8333 70.5 54.1667 70.5 55.5C69.1667 55.5 67.8333 55.5 66.5 55.5C65.5184 58.9619 65.185 62.6286 65.5 66.5C64.5 66.5 63.5 66.5 62.5 66.5C62.5 62.8333 62.5 59.1667 62.5 55.5C61.1667 55.5 59.8333 55.5 58.5 55.5C58.5 54.1667 58.5 52.8333 58.5 51.5Z" fill="#F75279"/>
<path fill-rule="evenodd" clip-rule="evenodd" d="M32.5 55.5C33.4816 58.9619 33.815 62.6286 33.5 66.5C34.5 66.5 35.5 66.5 36.5 66.5C36.185 62.6286 36.5184 58.9619 37.5 55.5C37.5 59.8333 37.5 64.1667 37.5 68.5C35.8333 68.5 34.1667 68.5 32.5 68.5C32.5 64.1667 32.5 59.8333 32.5 55.5Z" fill="#B487B4"/>
<path fill-rule="evenodd" clip-rule="evenodd" d="M58.4996 51.5C58.4996 52.8333 58.4996 54.1667 58.4996 55.5C59.8329 55.5 61.1663 55.5 62.4996 55.5C62.4996 59.1667 62.4996 62.8333 62.4996 66.5C63.4996 66.5 64.4996 66.5 65.4996 66.5C65.1846 62.6286 65.518 58.9619 66.4996 55.5C66.4996 59.8333 66.4996 64.1667 66.4996 68.5C64.8329 68.5 63.1663 68.5 61.4996 68.5C61.4996 64.5 61.4996 60.5 61.4996 56.5C60.1663 56.5 58.8329 56.5 57.4996 56.5C57.2151 54.5853 57.5485 52.9187 58.4996 51.5Z" fill="#B885B2"/>
<path fill-rule="evenodd" clip-rule="evenodd" d="M47.5 53.5001C47.62 54.5863 48.2867 55.2529 49.5 55.5001C50.7133 55.2529 51.38 54.5863 51.5 53.5001C52.1834 51.8236 53.5168 51.1569 55.5 51.5001C54.7707 54.28 54.104 57.1133 53.5 60.0001C54.104 62.8869 54.7707 65.7202 55.5 68.5001C54.1667 68.5001 52.8333 68.5001 51.5 68.5001C51.5 67.1668 51.5 65.8334 51.5 64.5001C50.1667 64.5001 48.8333 64.5001 47.5 64.5001C47.5 65.8334 47.5 67.1668 47.5 68.5001C46.1667 68.5001 44.8333 68.5001 43.5 68.5001C44.2293 65.7202 44.896 62.8869 45.5 60.0001C44.896 57.1133 44.2293 54.28 43.5 51.5001C45.4832 51.1569 46.8166 51.8236 47.5 53.5001Z" fill="#EB5E85"/>
<path fill-rule="evenodd" clip-rule="evenodd" d="M47.5 53.5C48.8333 53.5 50.1667 53.5 51.5 53.5C51.38 54.5862 50.7133 55.2528 49.5 55.5C48.2867 55.2528 47.62 54.5862 47.5 53.5Z" fill="#B089B6"/>
<path fill-rule="evenodd" clip-rule="evenodd" d="M78.5 89.5C61.5322 91.486 44.1989 92.1527 26.5 91.5C43.7053 90.8069 61.0386 90.1402 78.5 89.5Z" fill="#C07EAA"/>
</svg>
