<?xml version="1.0" encoding="UTF-8"?>
<!DOCTYPE svg PUBLIC "-//W3C//DTD SVG 1.1//EN" "http://www.w3.org/Graphics/SVG/1.1/DTD/svg11.dtd">
<svg xmlns="http://www.w3.org/2000/svg" version="1.1" width="100px" height="100px" style="shape-rendering:geometricPrecision; text-rendering:geometricPrecision; image-rendering:optimizeQuality; fill-rule:evenodd; clip-rule:evenodd" xmlns:xlink="http://www.w3.org/1999/xlink">
<g><path style="opacity:1" fill="#3abcf8" d="M 84.5,34.5 C 81.1667,34.5 77.8333,34.5 74.5,34.5C 74.5,31.8333 74.5,29.1667 74.5,26.5C 57.8333,26.5 41.1667,26.5 24.5,26.5C 24.5,29.1667 24.5,31.8333 24.5,34.5C 21.1667,34.5 17.8333,34.5 14.5,34.5C 14.5,28.5 14.5,22.5 14.5,16.5C 37.8333,16.5 61.1667,16.5 84.5,16.5C 84.5,22.5 84.5,28.5 84.5,34.5 Z"/></g>
<g><path style="opacity:1" fill="#3192f3" d="M 74.5,34.5 C 57.8333,34.5 41.1667,34.5 24.5,34.5C 24.5,31.8333 24.5,29.1667 24.5,26.5C 41.1667,26.5 57.8333,26.5 74.5,26.5C 74.5,29.1667 74.5,31.8333 74.5,34.5 Z"/></g>
<g><path style="opacity:1" fill="#fe4a72" d="M 14.5,34.5 C 17.8333,34.5 21.1667,34.5 24.5,34.5C 41.1667,34.5 57.8333,34.5 74.5,34.5C 77.8333,34.5 81.1667,34.5 84.5,34.5C 84.5,51.8333 84.5,69.1667 84.5,86.5C 61.1667,86.5 37.8333,86.5 14.5,86.5C 14.5,69.1667 14.5,51.8333 14.5,34.5 Z"/></g>
<g><path style="opacity:1" fill="#61cdfe" d="M 20.5,40.5 C 39.8333,40.5 59.1667,40.5 78.5,40.5C 78.5,53.8333 78.5,67.1667 78.5,80.5C 59.1667,80.5 39.8333,80.5 20.5,80.5C 20.5,67.1667 20.5,53.8333 20.5,40.5 Z"/></g>
<g><path style="opacity:1" fill="#e5f4f5" d="M 54.5,45.5 C 56.7029,46.0516 57.5362,47.3849 57,49.5C 52.5885,58.6571 47.9218,67.6571 43,76.5C 41.1153,75.6867 40.4487,74.3533 41,72.5C 45.5266,63.4469 50.0266,54.4469 54.5,45.5 Z"/></g>
<g><path style="opacity:1" fill="#e8f5f5" d="M 36.5,52.5 C 38.1207,52.7869 39.1207,53.7869 39.5,55.5C 37.5,56.8333 35.8333,58.5 34.5,60.5C 35.982,62.4829 37.6487,64.3163 39.5,66C 38.6667,66.8333 37.8333,67.6667 37,68.5C 34.1667,65.6667 31.3333,62.8333 28.5,60C 31.4315,57.7155 34.0982,55.2155 36.5,52.5 Z"/></g>
<g><path style="opacity:1" fill="#e2f3f5" d="M 61.5,53.5 C 65.0801,55.4076 68.0801,58.0743 70.5,61.5C 68.1203,64.8805 65.1203,67.5472 61.5,69.5C 60.7132,68.7579 60.0465,67.9246 59.5,67C 61.3513,65.3163 63.018,63.4829 64.5,61.5C 63.1667,59.8333 61.8333,58.1667 60.5,56.5C 61.1272,55.5832 61.4606,54.5832 61.5,53.5 Z"/></g>
</svg>
