<?xml version="1.0" encoding="UTF-8"?>
<!DOCTYPE svg PUBLIC "-//W3C//DTD SVG 1.1//EN" "http://www.w3.org/Graphics/SVG/1.1/DTD/svg11.dtd">
<svg xmlns="http://www.w3.org/2000/svg" version="1.1" width="100px" height="100px" style="shape-rendering:geometricPrecision; text-rendering:geometricPrecision; image-rendering:optimizeQuality; fill-rule:evenodd; clip-rule:evenodd" xmlns:xlink="http://www.w3.org/1999/xlink">
<g><path style="opacity:0.928" fill="#a134d3" d="M 99.5,69.5 C 99.5,72.8333 99.5,76.1667 99.5,79.5C 93.8333,79.5 88.1667,79.5 82.5,79.5C 81.3693,74.442 80.036,69.442 78.5,64.5C 71.8333,64.5 65.1667,64.5 58.5,64.5C 57.3347,69.4956 55.668,74.3289 53.5,79C 47.8431,79.4994 42.1764,79.6661 36.5,79.5C 36.5225,74.3939 37.1892,69.3939 38.5,64.5C 40.1667,64.5 41.8333,64.5 43.5,64.5C 45.9151,55.2549 47.9151,45.9216 49.5,36.5C 53.1529,29.2093 55.8195,21.5427 57.5,13.5C 64.8333,13.5 72.1667,13.5 79.5,13.5C 84.6782,28.7027 89.6782,44.0361 94.5,59.5C 96.0137,63.1291 97.6804,66.4625 99.5,69.5 Z M 66.5,33.5 C 69.3505,39.037 72.0172,44.7037 74.5,50.5C 70.5546,51.4909 66.5546,51.8242 62.5,51.5C 64.1142,45.5019 65.4475,39.5019 66.5,33.5 Z"/></g>
<g><path style="opacity:0.943" fill="#861db6" d="M 49.5,36.5 C 47.9151,45.9216 45.9151,55.2549 43.5,64.5C 41.8333,64.5 40.1667,64.5 38.5,64.5C 38.9175,63.7784 39.5842,63.2784 40.5,63C 39.0808,60.6022 37.7475,58.1022 36.5,55.5C 30.5368,54.5041 24.5368,54.1707 18.5,54.5C 17.7614,58.3824 16.4281,62.0491 14.5,65.5C 9.54396,66.4941 4.54396,66.8275 -0.5,66.5C -0.5,63.5 -0.5,60.5 -0.5,57.5C 5.39062,42.685 11.224,27.685 17,12.5C 17.4935,10.8659 17.6602,9.19919 17.5,7.5C 24.1998,7.16998 30.8665,7.50331 37.5,8.5C 38.7515,10.0009 39.7515,11.6675 40.5,13.5C 42.5,19.8333 44.5,26.1667 46.5,32.5C 47.0568,34.3316 48.0568,35.6649 49.5,36.5 Z M 27.5,24.5 C 29.5334,30.4294 31.8667,36.2627 34.5,42C 30.5138,42.4988 26.5138,42.6655 22.5,42.5C 22.9332,38.0258 24.4332,34.0258 27,30.5C 27.4955,28.5273 27.6621,26.5273 27.5,24.5 Z"/></g>
<g><path style="opacity:0.959" fill="#f3a400" d="M 82.5,84.5 C 88.1667,84.5 93.8333,84.5 99.5,84.5C 99.5,87.5 99.5,90.5 99.5,93.5C 89.1667,93.5 78.8333,93.5 68.5,93.5C 68.3893,92.8826 68.056,92.3826 67.5,92C 72.8398,89.9968 77.8398,87.4968 82.5,84.5 Z"/></g>
<g><path style="opacity:0.954" fill="#f9bd00" d="M 82.5,84.5 C 77.8398,87.4968 72.8398,89.9968 67.5,92C 68.056,92.3826 68.3893,92.8826 68.5,93.5C 57.8333,93.5 47.1667,93.5 36.5,93.5C 36.5,90.5 36.5,87.5 36.5,84.5C 51.8333,84.5 67.1667,84.5 82.5,84.5 Z"/></g>
</svg>
