<svg xmlns="http://www.w3.org/2000/svg" version="1.1" viewBox="0 0 703 810"><g fill="none" stroke-linecap="butt" stroke-width="2"><path d="M440.5 164.54q.62.32 1.26.2a.32.32 0 0 1 .25.58q-4.79 3.48-8.05 7.18" stroke="#7bb5e2" vector-effect="non-scaling-stroke"/><path d="M433.96 172.5q-5 5.51-7.05 12.27a1.09 1.09 0 0 1-1.13.76c-14.55-1.15-25.53 7.88-27.4 21.99a.36.35-77.4 0 1-.45.29q-18.6-5.89-29.18 9.98" stroke="#7ec0ea" vector-effect="non-scaling-stroke"/><path d="M368.75 217.79c-1.88-.03-10.94-.58-11.8.73a.54.54 0 0 0 .45.84l9.1.1" stroke="#7ba5c6" vector-effect="non-scaling-stroke"/><path d="M366.5 219.46q.98-.19.74.43-6.54 17.43 4.88 30.01c3.6 3.96 9.76 7.34 14.87 7.34q32.77.05 65.51-.03" stroke="#7ec0ea" vector-effect="non-scaling-stroke"/><path d="M452.5 257.21h24" stroke="#7bb5e2" vector-effect="non-scaling-stroke"/><path d="m476.5 257.21 10.94.21q.67.02.57.68-.18 1.16.37 2.22.47.92.91-.02.5-1.05.47-2.22-.02-.5.47-.51 17.58-.33 35.16-.35c19.69-.02 29.78-17.38 23.85-35.48q-.1-.31.18-.48.13-.07.33-.05" stroke="#79accf" vector-effect="non-scaling-stroke"/><path d="M550.43 221.76q3.22.9 6.57.45m3.25.33q1.99 1.41 4.5.96m0 0q3.13 2.44 7 1.71" stroke="#ebf6fc" vector-effect="non-scaling-stroke"/><path d="M644.59 415.08c-10.14-5.93-29.42-12.18-40.71-6.16a.32.32 0 0 1-.4-.48q8.03-9.98 16.97-18.48c.6-.56 1.18-1.64 1.59-2.31a1.28 1.28 0 0 0-.87-1.93q-17.33-3.01-33.21.92c-13.8 3.42-29.76 10.84-42.8 18.51q-3.91 2.3-7.48 5.26" stroke="#d8aee4" vector-effect="non-scaling-stroke"/><path d="M537.68 410.41q-15.08 13.12-21.18 32.3" stroke="#b7a9d9" vector-effect="non-scaling-stroke"/><path d="m516.5 442.71-26.25.02q-.5 0-.5-.49v-5.6a.56.55 90 0 0-.55-.56h-.52q-.68 0-.68.68v5.48q0 .51-.52.51-73.63-.01-147.26.01c-6.4 0-11.4 1.76-11.86 8.67q-.62 9.28.14 34.53" stroke="#79accf" vector-effect="non-scaling-stroke"/><path d="m328.5 485.96-1.89.63q-.39.14-.28.54.18.64.53 1.15.26.4.37.87.46 1.99 2.4 2.65.12.04.12.17v.26q-.01.58-.54.35-.18-.08-.36-.12-.13-.04-.12.1l.26 3.16q.04.49.46.73c3.06 1.73-.96 4.22-1.5 6.36q-.13.48-.51.78l-3.29 2.56q-.49.39.1.57.62.2.4 1.02-.12.42-.4.76-1.15 1.36-1 3.21" stroke="#ebf6fc" vector-effect="non-scaling-stroke"/><path d="M323.25 511.71c-21.56 13.44-15.32 44.13 10 47.08" stroke="#7bb5e2" vector-effect="non-scaling-stroke"/><path d="M333.25 558.79q.72.62 1.55.73.38.05.64.32 1.42 1.43.48 3.22-.24.46-.16.98c.67 4.2-.48 8.52-.26 14.06.08 2.13-.75 3.12-2.75 3.61" stroke="#ebf6fc" vector-effect="non-scaling-stroke"/><path d="m332.75 581.71-3.93.04q-.54.01-.54.55v41.6" stroke="#79accf" vector-effect="non-scaling-stroke"/><path d="M328.28 623.9q-.06 8.53-.02 17.26c.03 6.58 1.51 12.38 8.98 12.38q46.64.01 93.26.17" stroke="#79d4f6" vector-effect="non-scaling-stroke"/><path d="M438.5 653.79c-.69 12.9 2.45 25.38-12.25 31.75" stroke="#79accf" vector-effect="non-scaling-stroke"/><path d="m307.46 661.25-.44-78.96q0-.6-.61-.6l-12.41.1" stroke="#7ba5c6" vector-effect="non-scaling-stroke"/><path d="M294 581.79c-7.51.92-11-3.01-11-10.07q.03-26.49-.04-52.97" stroke="#7cc5ed" vector-effect="non-scaling-stroke"/><path d="M282.98 509.53c0-6.16-1.86-18.58 3.57-22.35 2.11-1.47 4.86-1.19 7.45-1.47" stroke="#7ec0ea" vector-effect="non-scaling-stroke"/><path d="m294 485.71 12.49.23q.51.01.51-.5.01-66.21 0-132.41c0-6.77-2.29-12.2-9.76-12.04q-20.61.42-41.24.05" stroke="#7ba5c6" vector-effect="non-scaling-stroke"/><path d="m212.21 340.75-.03-7.9q0-.56-.56-.62c-1.43-.14-1.08 7.59-1.12 8.73" stroke="#7ec0ea" vector-effect="non-scaling-stroke"/><path d="M210.5 340.96q-49.53.08-99.06.15c-13.08.01-9.88 15.63-9.98 23.89" stroke="#84b0cc" vector-effect="non-scaling-stroke"/><path d="M101.46 365q-.89-2.01-.82-4.32.01-.59-.57-.62c-2.2-.14-3.33-5.36-3.61-7.05q-.25-1.49-2-5.51" stroke="#ebf6fc" vector-effect="non-scaling-stroke"/><path d="M381.71 486.25q5.53 2.13 5.54 8 .01 39.97-.01 79.94-.01 4.95-5.79 7.51" stroke="#9ce0f2" vector-effect="non-scaling-stroke"/><path d="M333.25 558.79q16.14-.02 23.15-11.86c13.2-22.28-10.41-46.85-33.15-35.22" stroke="#76b5de" vector-effect="non-scaling-stroke"/><path d="M538.54 414c-2.78 3.24-1.66 24.5-1.83 28.5" stroke="#b2a9d5" vector-effect="non-scaling-stroke"/><path d="m436.04 203.75-6.31 7.7q-.35.43-.23.97.77 3.27 4.25 2.58a1.05 1.04-5.7 0 1 1.25 1.02v23.94a1.77 1.77 0 0 0 1.78 1.77l10.99-.01" stroke="#7dbfe6" vector-effect="non-scaling-stroke"/><path d="M366.5 219.46q1.68-.14 2.25-1.67" stroke="#096fb1" vector-effect="non-scaling-stroke"/><path d="M559.04 654.5c-.88-1.74-21.83-.72-22.37-.72q-20.46-.01-40.92-.17" stroke="#7cc5ed" vector-effect="non-scaling-stroke"/><path d="M495.75 653.61q-24.74-.12-49.49-.38c-2.48-.03-5.28.32-7.76.56" stroke="#057bbd" vector-effect="non-scaling-stroke"/><path d="M256 341.04q-2.09.99-4.58 1.03-.22.01-.28.22-.04.19.16.29.52.23.4.78l-1.65 7.53q-.12.51-.64.55l-1.2.1q-.29.02-.25.31l.05.37q.12.87-.68.5-1.17-.55-1.73.58-.1.21.13.22l4.27.19" stroke="#0f5f93" vector-effect="non-scaling-stroke"/><path d="M213.25 353.79q-47.87-.43-95.75-.16-2.96.01-2.97 3.18-.07 34.19-.02 68.04a2.4 2.4 0 0 0 2.4 2.39l98.09-.03" stroke="#0f83bd" vector-effect="non-scaling-stroke"/><path d="m223.5 427.29 3.55.19q.76.04.03.25-.21.06-.42.15-.17.08-.03.2l.64.56q.33.29-.03.55l-1.5 1.07q-.14.11-.03.25 1.19 1.6.79 3.63-.1.49.36.68 2.5 1.08 5.14 1.14" stroke="#0f5f93" vector-effect="non-scaling-stroke"/><path d="M231.5 436.04h-61.75" stroke="#0f83bd" vector-effect="non-scaling-stroke"/><path d="M169.75 436.04q-25.78-.08-51.57-.02c-1.76 0-3.66.59-3.66 2.54q-.04 33.75-.01 67.5c0 1.75.62 3.68 2.55 3.68q21.35-.02 42.69.05" stroke="#0d8ec3" vector-effect="non-scaling-stroke"/><path d="m159.75 509.79 8.82.17q.56.01.32.51l-.24.51q-.19.39.06.74 1.96 2.8.54 5.99-.15.33.21.29.81-.07 1.54.21" stroke="#0c659c" vector-effect="non-scaling-stroke"/><path d="M171 518.21q-24.96.06-49.94.09c-3.78 0-6.55-.55-6.55 3.94q-.02 33.04-.01 66.1c0 2.5.92 3.86 3.5 3.86q26 .02 52 .09" stroke="#0d8ec3" vector-effect="non-scaling-stroke"/><path d="m170 592.29-1.74.23q-.76.1 0 .21 2.7.4 5.38.26a.91.91 0 0 1 .91 1.19q-.84 2.55.25 4.84.27.55-.31.75l-1.07.39q-.64.23.04.33l1.54.22" stroke="#0f5f93" vector-effect="non-scaling-stroke"/><path d="M173.25 600.79q-27.5-.08-55 .04-3.75.01-3.75 4.18 0 32.63-.01 65.3c0 4.53 2.08 4.43 5.81 4.43q26.59-.01 53.2.05" stroke="#0d8ec3" vector-effect="non-scaling-stroke"/><path d="m173.5 674.79-6.04.5q-1.94.17.01.22 2.53.07 5.08-.03.47-.01.72.38l.55.87q.32.52.94.52h4.2q.6 0 .93.51l.95 1.46q.26.39.11.84-.28.82.56 1.19.7.31.03.68c-2.3 1.24-7.72 1.67-10.34 1.36-1.7-.21-2.82.66-4.35.67-3.83.01-35.71-.38-36.43.41q-.08.08.03.12.17.05.36.1.35.11-.01.17-1.22.24-2.36.79-.35.17-.67-.04-1.04-.65-1.95.11-.4.33-.9.43l-1.99.37q-.29.05-.02.19l.36.2q.85.44-.09.62l-1.43.28" stroke="#0f5f93" vector-effect="non-scaling-stroke"/><path d="M100.25 625.54c1.77.21 1.29-13.84 1.21-16.79" stroke="#5464a9" vector-effect="non-scaling-stroke"/><path d="M101.46 608.75q.19-1.13-.3-1.43" stroke="#6b67b1" vector-effect="non-scaling-stroke"/><path d="M101.16 607.32q.77-11.41.1-22.15M99 528.29q1.12-.01 1.97-.47.5-.27.5-.84l-.01-17.48m-.25-5.75q.65-28.51.16-57.03 0-.34-.31-.46-.14-.06-.31-.05" stroke="#5464a9" vector-effect="non-scaling-stroke"/><path d="M294 485.71q0-23.6-.15-47.21-.01-2.49-2.41-2.49-29.72.02-59.44-.05m-8.5-8.67q33.49-.07 66.99-.04c2.04 0 3.54-.48 3.54-2.75l-.04-68.58a2.19 2.18 0 0 0-2.19-2.18l-41.8-.03" stroke="#096fb1" vector-effect="non-scaling-stroke"/><path d="M470 164.04q-.25 1.16.85 1.62.5.21.48.75-.62 18.05-.63 24.84-.01 2.01-.84 3.38-.25.41.11.74l.75.67q.31.28-.11.23-.95-.12-1.61.44" stroke="#046ab1" vector-effect="non-scaling-stroke"/><path d="M469 196.71q-2.5.49-2.5 2.29.01 11.95-.01 23.97a.59.59 0 0 1-.71.58q-2.19-.41-3.93.74a2.14 2.14 0 0 0-.47 3.17c2.95 3.51 8.14 11.02 11.87 13.08" stroke="#7bb4dd" vector-effect="non-scaling-stroke"/><path d="M473.25 240.54q-.18.53.46.78.58.23-.01.43l-.63.21q-.29.1-.14.37c.74 1.35.06 10.93-.04 13.06q-.02.53.48.7l3.13 1.12" stroke="#046ab1" vector-effect="non-scaling-stroke"/><path d="m452.5 257.21-4.67-.2q-.46-.02-.49-.48-.46-7.43.43-14.81" stroke="#097fcd" vector-effect="non-scaling-stroke"/><path d="M447.77 241.72q1.68-.69 1.69-2.22.03-11.72.05-23.49 0-.59.56-.77 1.08-.36 2.26-.23.52.06.99-.17c1.98-.96 1.87-2.97.56-4.55q-4.61-5.58-9.42-11.01c-2.99-3.37-6.55 2.56-8.42 4.47" stroke="#7bb4dd" vector-effect="non-scaling-stroke"/><path d="M436.04 203.75q-1.03-.38-2.22-.21-.13.02-.09.15.1.3.22.62.03.06-.01.12-.09.1-.18.19-.23.26-.21-.09c.25-3.21 1.53-27.85-.47-28.55q-.46-.16-.13-.52 1.12-1.21 1.01-2.96" stroke="#097fcd" vector-effect="non-scaling-stroke"/><path d="M94.46 347.5q1.13 6.75 1.07 13.58 0 .1.03.11.13.04.25.08.16.05.17.22.45 9.42 3.36 18.39.04.12.17.12.14 0 .3-.01.32-.02.33.3c.1 2.83.87 5.45.84 8.18q-.17 17.9.65 35.78" stroke="#ced9de" stroke-opacity=".863" vector-effect="non-scaling-stroke"/><path d="M495.75 653.61c0 11.94-2.51 24.24 10.31 31.07q.44.23.52.73.21 1.25 1.13 1.51" stroke="#79accf" vector-effect="non-scaling-stroke"/><path d="M294 581.79c-.03 2.56 1.2 10.44-2.75 10.44q-57.75.06-115.5-.02" stroke="#0774b4" vector-effect="non-scaling-stroke"/><path d="M180 585.29q1.98-.52 1.98-2.11.04-27.84.01-55.68 0-1.48-1.83-2.47" stroke="#7cc4e9" vector-effect="non-scaling-stroke"/><path d="M307.46 661.25q-1.12.64-.67 2" stroke="#4d7ca0" stroke-opacity=".863" vector-effect="non-scaling-stroke"/><path d="M177.5 674.71h50.25" stroke="#0678b7" vector-effect="non-scaling-stroke"/><path d="m227.75 674.71 65.07-.32q.6 0 .75-.58.41-1.6.41-3.57.04-33.02.01-66.06c0-2.1-.52-3.35-2.8-3.36q-31.72-.13-63.44-.03" stroke="#096fb1" vector-effect="non-scaling-stroke"/><path d="M473.25 240.54c2.82.1 10.8-10.53 12.97-13.1a2.01 2.01 0 0 0-.03-2.62q-1.54-1.73-3.84-1.3a1.14 1.13-5.5 0 1-1.35-1.11v-23.12a2.55 2.55 0 0 0-2.54-2.55l-9.46-.03" stroke="#78abca" vector-effect="non-scaling-stroke"/><path d="M233.25 478.54c9.51-.28 7.48-12.92-1.25-10.83" stroke="#7dbfe6" vector-effect="non-scaling-stroke"/><path d="M621.79 436q.69-8.71.48-17.44c-.13-5.79-3.76-8.65-9.52-7.52" stroke="#8998da" vector-effect="non-scaling-stroke"/><path d="M612.75 411.04q-44.92-.53-69.81.15-2.54.07-4.4 2.81" stroke="#d3aee0" vector-effect="non-scaling-stroke"/><path d="M538.54 414q.19-1.81-.86-3.59" stroke="#9e61bd" vector-effect="non-scaling-stroke"/><path d="M503.48 452.29h-18.23" stroke="#3a9cc4" vector-effect="non-scaling-stroke"/><path d="m433 452.54-92.5-.02q-.48-.01-.89.24-2.1 1.22-2.1 2.74-.01 15.1-.01 30.21" stroke="#61aec2" vector-effect="non-scaling-stroke"/><path d="m433.5 624.04-4.22 1.36q-.95.3-.01.65 1.62.59 1.06 2.12-.18.49-.18 1.03l-.02 20.73q0 .52-.49.68-1.34.44-1.29 1.7.01.39-.38.42l-3.44.2q-1.95.11-.01.27l5.98.51" stroke="#05a3e4" vector-effect="non-scaling-stroke"/><path d="M411.25 615.21q-34.64.08-69.28.03c-1.99 0-4.46-1.23-4.47-3.24q-.03-15 .04-30" stroke="#54a6c3" vector-effect="non-scaling-stroke"/><path d="M381.45 581.7c9.02.05 10.55-5.54 10.54-13.55q-.01-19.33.05-38.65" stroke="#7ddae9" vector-effect="non-scaling-stroke"/><path d="M433 452.54c-2.48 1.76-3.12 7.37-2.37 10 1.34 4.68.98 8.94-.8 13.42-1.39 3.52-1.91 7.94-3.35 10.5q-.77 1.37-3.96 3.56-.44.3-.56.82l-.95 4.2q-.11.44-.52.64-1.21.57-1.11 2.05.03.56-.5.74l-1.07.37q-.56.2-.35-.36l.29-.78q.18-.49-.31-.67l-.85-.33q-.2-.07-.07-.24.11-.13.15-.28.09-.31-.19-.15l-.97.56q-.37.21-.41.63-.17 2.3-2.15 3.48-.41.25-.52.72l-.73 3.21q-.11.46-.48.76-1.24.99-1.67 2.51-.17.6-.79.6h-.97q-.54 0-.67.52c-.61 2.26-2.27 3.86-3.2 5.33-1.58 2.47-3.41 4.86-4.36 7.65-1.01 2.95-5.02 1.07-5.46 5.55q-.08.82-1.28 1.32-.36.14-.31-.24.02-.22-.01-.38-.13-.53-.23.02l-.23 1.23" stroke="#b4f2e6" vector-effect="non-scaling-stroke"/><path d="M392.04 529.5q-.04-15.42-.09-30.84c-.02-7.49-1.65-13.03-10.24-12.41" stroke="#8ae2e8" vector-effect="non-scaling-stroke"/><path d="M381.71 486.25q-2.2-.52-4.46-.47-19.88.41-39.75-.07" stroke="#d4f8ef" vector-effect="non-scaling-stroke"/><path d="M612.75 411.04q5.87 2.21 5.75 8.7c-.14 8 .19 17.43-.04 26.59q-.24 9.46-.18 20.93.03 4.99-4.67 6.77-.77.29-.01.61.98.4 2.16.06c3.54-1.01 5.54.91 8.6.72q2.1-.14 4.14-.63" stroke="#9ce0f2" vector-effect="non-scaling-stroke"/><path d="M636.85 474.58q-.16 1.8-3.24.62" stroke="#d3aee0" vector-effect="non-scaling-stroke"/><path d="M633.61 475.2q-17.79 3.41-26.86 19.09" stroke="#b2a9d5" vector-effect="non-scaling-stroke"/><path d="m606.75 494.29-.23-18.88q-.01-.57-.58-.57l-8.44-.05" stroke="#76a5c3" vector-effect="non-scaling-stroke"/><path d="M597.5 474.79h-42.25" stroke="#74d4f2" vector-effect="non-scaling-stroke"/><path d="M555.25 474.79c-5.43-.04-13.88 1.5-17.15-3.81-2.17-3.53-1.05-13.91-1.39-18.48" stroke="#9ce0f2" vector-effect="non-scaling-stroke"/><path d="M536.71 452.5q.72-5 0-10" stroke="#74accb" vector-effect="non-scaling-stroke"/><path d="M606.99 639.75q-25.75.41-51.51.26c-10.72-.06-9.49-8.28-9.51-16.07" stroke="#77c5ea" vector-effect="non-scaling-stroke"/><path d="M227.75 600.79q2.3 1.37 1.31 3.34-.21.41-.27-.05l-.05-.32q-.07-.49-.22-.02-.88 2.66.58 5.18.25.44.25.93l.11 16.34q0 .62.31 1.17 1.53 2.74-1.36 4.6-.41.26-.41.75v1.05q0 .54.41.19.65-.54 1.34.09" stroke="#0993db" vector-effect="non-scaling-stroke"/><path d="M229.75 634.04q-4.29 7.58 4.27 9.55" stroke="#7bc8eb" vector-effect="non-scaling-stroke"/><path d="M234.02 643.59c-2.31 1.19-.7 2.93-2.02 4.75q-.27.36-.1.77 1.22 2.94.64 6.18-.08.46.1.89c.9 2.11 2.15 7.47-.15 9.05q-.42.29-.59.77-.98 2.63-.87 5.54.02.45-.16.86-.89 2.05-3.12 2.31" stroke="#0993db" vector-effect="non-scaling-stroke"/><path d="M171.23 667.23q4.6.93 9.28.4a1.68 1.67 86.7 0 0 1.48-1.67q.02-28.01.01-55.97 0-2.74-3.29-2.74" stroke="#7bc8eb" vector-effect="non-scaling-stroke"/><path d="m175.75 518.29 8.62.67a.41.41 0 0 1 .07.81l-2.62.71q-.36.09-.2.43l1.04 2.17q.56 1.15-.59.58l-.9-.44q-.34-.17-.68.01-1.22.63-.33 1.8" stroke="#05a3e4" vector-effect="non-scaling-stroke"/><path d="m180.16 525.03-7.85-.01a1.65 1.64-89.3 0 0-1.65 1.62q-.45 28.02.11 55.95c.08 4.24 6.5 2.84 9.23 2.7" stroke="#79d3f1" vector-effect="non-scaling-stroke"/><path d="M180 585.29q.12 1.13-1.95 1.58-7.58 1.63-.15.87.15-.02.5.1.55.19.57.77l.1 2.79q.01.36-.35.41l-2.97.4" stroke="#05a3e4" vector-effect="non-scaling-stroke"/><path d="M93.25 442.61q-1.43 1.32-1.46 3.18-.01.56-.4.95l-14.05 14.27q-.34.35-.81.48-.52.15-.54.62-.02.46.32.79c10.04 9.77 17.73 21.41 22.45 34.6q1.13 3.16 2.45 6.25" stroke="#a862c1" vector-effect="non-scaling-stroke"/><path d="M101.46 509.5q-.31.17-.54-.03-.23-.19-.3-.49c-4.65-19.73-15.21-38.1-31.44-50.55a1.26 1.25 41.2 0 0-1.64.1l-21.69 21.54" stroke="#a862c1" vector-effect="non-scaling-stroke"/><path d="m231.5 436.04-1.01.24q-.96.22.03.22h.39q.4 0 .08.23l-.51.37q-.38.28.03.52l.48.29q.54.32.49.94l-.32 4.46q-.02.26-.11.5-.27.73.34 1.2.41.32.04.69l-.25.24q-.31.32-.02.65.77.86-.08 1.45-.62.43.06.77.73.37.49.93-.14.32-.15.68-.06 1.33.54 2.47.23.44.22.93-.09 5.34.99 10.57.11.54-.39.79-.63.3-.14.99.33.46-.2.66-.64.23-.5.88" stroke="#0993db" vector-effect="non-scaling-stroke"/><path d="M232 467.71c-5.45 2.52-4.78 9.96 1.25 10.83" stroke="#7bc8eb" vector-effect="non-scaling-stroke"/><path d="m233.25 478.54-2.79 1.12q-.62.26.02.46l.59.19q.73.23.46.94-.92 2.39-.05 4.88.17.48.1.98-1.35 9.32-.8 18.75.03.46.28.83l.67 1.03q.07.1-.02.19l-.33.34q-.51.5.21.5h.36q.35 0 .02.11l-2.47.85" stroke="#0993db" vector-effect="non-scaling-stroke"/><path d="m178.48 509.75-2.09-5.17q-.02-.04 0-.08.07-.1.2-.17 1.8-.9-.42-.57-1.14.17-1.67-.72" stroke="#04a7e6" vector-effect="non-scaling-stroke"/><path d="m174.5 503.04 5.23-.13a2.32 2.32 0 0 0 2.26-2.32q.03-27.21-.01-54.19c0-5.58-6.37-4.18-9.98-3.69" stroke="#7bc8eb" vector-effect="non-scaling-stroke"/><path d="M172 442.71q-.43-1.69 1.1-1.93.51-.07.46-.58l-.31-3.17q-.04-.48-.52-.55l-2.98-.44" stroke="#04a7e6" vector-effect="non-scaling-stroke"/><path d="m213.25 353.79-.36.37q-.27.28.11.33l.42.06q.25.03.06.19-.96.79-.47 1.76.24.49.13 1.03-.67 3.21-.67 8.03.02 29.2-.02 58.4c0 1.29.58 2.12 1.91 2.05q.47-.02.65.42.18.44-.01.78" stroke="#0993db" vector-effect="non-scaling-stroke"/><path d="m173.25 600.79 5.01.34q1.45.09.28.59-.16.07-.36.06-.54-.05-.54.49l.01 4.17q0 .38.35.52l.71.29" stroke="#04a7e6" vector-effect="non-scaling-stroke"/><path d="m178.71 607.25-6.61.27q-.59.03-.84.56-.71 1.51-.72 3.92-.14 37.77-.01 52.19.01.87.7 3.04" stroke="#79d3f1" vector-effect="non-scaling-stroke"/><path d="M171.23 667.23q-.35.18-.07.91.19.5.7.64 1.68.45 1.78 2.3.03.43.45.44l2.03.08q.98.04.62.96l-.65 1.68q-.09.21.14.24l1.27.23" stroke="#04a7e6" vector-effect="non-scaling-stroke"/><path d="M101.26 585.17q-9-9.93-20.89-16.14-.5-.26-.84.18c-2.87 3.74-10.89 8.59-15.33 10.16q-3.33 1.18-5.38 4.32m42.34 23.63q-13.87-1.79-26.1 3.67-.82.36-1.01.99-.21.73.48.41 12.91-5.97 26.93-3.64" stroke="#a862c1" vector-effect="non-scaling-stroke"/><path d="M172 442.71q-1.43 1.15-1.45 3.54-.19 27.3.08 54.64 0 .5.34.88 1.36 1.52 3.53 1.27" stroke="#79d3f1" vector-effect="non-scaling-stroke"/><path d="M234.02 643.59c11.09-1.76 3.07-16.78-4.27-9.55" stroke="#7dbfe6" vector-effect="non-scaling-stroke"/><path d="M503.48 452.29q.6 16.46-.7 32.91-.04.48.3.81c.67.63-.18 11.55-1.17 13.98q-.2.51-.14 1.06.52 4.27-2.36 7.39-.32.35-.28.82.4 4.68-1.39 8.98a.46.45 60.8 0 1-.87-.25l.88-5.94q.09-.59-.2-.07l-1.61 2.82q-.23.4-.24.87-.04 2.08-1.31 3.72-.36.46-.39 1.04-.19 3.26-2.56 5.48-.41.37-.49.92c-.64 4.25-1.7 12.43-3.45 13.92q-.36.31-.47.77l-2.15 9.04q-.04.17-.21.19l-.34.05q-.41.05-.5.46c-.56 2.52-.95 4.15-2.22 6.72q-1.09 2.19-1.18 4.74-.01.46-.4.72c-1.32.91-.78 11.71-.76 13.8q.02.8.39.1l1.67-3.11q.39-.72.34.1-.2 3.93-2.22 7.23-.27.45-.22.97c.33 3.25-1.25 6.24-1.6 8.72q-1.72 11.97-3.15 24.01" stroke="#62d1eb" vector-effect="non-scaling-stroke"/><path d="M555.25 474.79c-5.29 4.24.81 11.91-3.26 14.85q-.45.33-.36.89l.73 4.15q.12.71.64.2l.27-.27q.28-.29.4.1l1.02 3.5q.13.45-.17.8c-2.3 2.81-.2 6.24-2.82 8.49q-.56.48-.78-.22l-.25-.81q-.12-.39-.49-.22c-1.25.58-1.52 3.32-.44 3.26q.72-.03.13.38-.84.58-.73 1.35.55 3.94-1.26 6.55-.32.46-.88.46h-.87q-.63 0-.63.63v.78q0 .79-.68.39-.83-.49-.12-1.21.43-.45-.74-.51-1.14-.06-.99-1.31.29-2.42-.62-.09-.72 1.87-2.77 1.25-.8-.24-.88.58l-.45 4.24q-.03.25.23.25h.28q.32-.01.31.32l-.24 7.13q-.02.57-.4.99-1.35 1.45-1.02 3.48.01.08.1.08h.25q.47-.02.56.44.27 1.39-.7 2.23-.37.31-.37.8v3.57q0 .54-.34.97-2.52 3.09-3.33 7-.11.49-.61.49h-1.9q-.5 0-.56.5l-.2 1.49q-.08.58-.59.87-1.33.76-2.68 1.47c-2.53 1.33-4.54 5.23-6.04 7.58-2.27 3.54-2.42 6.9-2.52 10.91q-.01.34.23.1l.23-.24q.6-.6.37.22-.26.92.18 1.74.18.33 0 .66l-3.23 6.13q-.24.46-.73.66l-1.96.78q-.46.19-.53.68c-.23 1.52-1.7 15.26-1.95 15.49q-.27.24-.3.6l-1.54 14.82" stroke="#2abeec" vector-effect="non-scaling-stroke"/><path d="M597.84 550.23q-21.06.04-43.03.02c-5.45-.01-8.74 2.98-8.77 8.5q-.12 20.12 0 56.49" stroke="#74d4f2" vector-effect="non-scaling-stroke"/><path d="m485.25 452.29 3.11.18q.27.01.27.28l-.01.42q0 .29-.29.3l-.89.05q-.52.02-.55.54l-.87 14.72q-.04.55-.34 1-1.43 2.14-.23 4.68.05.09.06-.01.03-.19.23-.3.44-.23.4.26-.52 7.69-1.5 15.34c-.15 1.12-1.09 1.4-1.1 2.73q-.06 5.47-3.46 9.67-.29.35-.35.8l-.61 4.63q-.06.4-.31.71l-.88 1.11q-.29.35-.36.8-.46 2.86-1.15 5.69c-.51 2.09-2.07 3.53-2.32 6.06q-.05.48-.37.85c-1.59 1.82-3.47 3.65-4.38 5.93-1.89 4.78-2.96 9.93-4.6 14.59q-1.22 3.49-2.16 7.05-.14.56-.54.96l-.71.7q-.38.38-.53.89c-1.05 3.43-3.55 5.72-4.44 8.91q-.85 3.03-1.66 6.07c-.39 1.45-1.76 2.08-2.19 3.79q-2.95 11.77-5.7 23.6c-1.08 4.68-1.68 9.86-2.68 14.82q-.1.48.08.93.47 1.14-.54 1.92-.38.29-.39.76l-.04 1.49" stroke="#7fdcea" vector-effect="non-scaling-stroke"/><path d="M443.25 615.21h-32" stroke="#47a1c4" vector-effect="non-scaling-stroke"/><path d="M411.25 615.21q.01-1.2-.7-2.26-.26-.38.13-.62l3.3-2.11q.6-.38.66-1.08l.62-7.32q.01-.13-.09-.05l-.43.36q-.13.1-.25-.02l-.29-.28q-.16-.17-.17.07-.04.86-.9 1.04-1.22.25-.58-.82l.52-.86q.28-.47.09-.97-1.53-3.93.64-7.64.24-.41.03-.84c-.49-1 3.27-3 2.99-5.83q-.04-.49.35-.79 2.85-2.19 2.95-5.74.03-.82-.31-.14-.08.18-.07.38.06.64-.43.22-.35-.31-.25-.89.82-4.77 4.23-7.76.3-.27.43-.65l1.75-5.3q.16-.52.63-.79.53-.3 1.01-.67.41-.31.55-.8c.2-.7 2.18-5.87 1.96-6.02q-.45-.33-.62.2-.39 1.15-1.43 1.97-.55.44-.25-.2l2.54-5.4q.09-.19-.06-.34l-.24-.24q-.22-.22-.41.03l-2.75 3.55q-1 1.29-.55-.28.32-1.13 1.1-2.16.23-.31.28-.69.26-2.2 1.97-3.56.49-.39.51-1.01.06-1.66 1.75-2.41.41-.19.32-.63-.39-1.79.62-3.18.65-.89-.38-.58-.84.25-.59-1.26.07-.41.28-.77c1.33-2.27 3.41-3.14 4.4-5.72 1.33-3.49 2.97-6.76 4.4-10.2 1.15-2.77 3.13-4.02 5.36-5.76q.09-.07-.02-.11-.11-.05-.26-.04-.13.01-.12-.12.3-2.68 2.38-4.13.5-.34.7-.9l3.56-9.92q.19-.52.61-.87l5.38-4.36q.42-.34.41-.88c-.07-3.96 2.12-5.99 2.5-9.32q.25-2.11.27-4.25 0-.5.28-.91c2.61-3.86 1.17-7.13 1.41-10.86q.04-.61-.08-.24-.16.5-.41.64-.36.2-.34-.22l1.36-19.44" stroke="#9ae6e8" vector-effect="non-scaling-stroke"/><path d="M664.06 502.46q-5.8-3.69-9.22-9.59-.22-.38-.29-.3l-.11.11q-.06.07-.42-.25-1.08-1-3.53-.45c-19.14 4.31-32.78 15.29-42.85 31.32q-.68 1.08-.85-.18l-.08-.62" stroke="#9e61bd" vector-effect="non-scaling-stroke"/><path d="M607.01 521.05q13.34-20.21 35.99-28.28.48-.17.14-.54l-3.83-4.18q-.31-.34-.31-.8v-.73q0-.5-.31-.9l-5.46-6.99q-.36-.46-.22-1.03l.6-2.4" stroke="#9e61bd" vector-effect="non-scaling-stroke"/><path d="M643.5 544.79q-3.17.25-6.43 1.73" stroke="#6893cf" vector-effect="non-scaling-stroke"/><path d="M637.07 546.52c-3.39 1.85-5.86 3.51-9.95 3.65q-10.19.36-20.37-.21" stroke="#b2a9d5" vector-effect="non-scaling-stroke"/><path d="M606.54 538.5c2.72-.59 5.67-1.78 7.96-2.29q13.46-2.94 26.12 2.88.77.36 1.22.12a.65.65 0 0 0-.03-1.16q-17.35-8.14-35.02-1.05" stroke="#9e61bd" vector-effect="non-scaling-stroke"/><path d="M648.01 639.55q3.14-4.69 3.27-6.79.31-5.28-.27-17.51c-.86-17.92-.59-35.9-.34-53.84.09-6.49-1.06-10.99-8.45-10.89q-.22 0-.22-.22 0-.19.01-.38.03-.56-.5-.41-4.73 1.36-4.44-2.99" stroke="#9ce0f2" vector-effect="non-scaling-stroke"/><path d="m77.5 546.54-11.06.18q-1.32.02-.23.14.43.05.57.19.47.48-.32.46-7.16-.18-14.21.95" stroke="#d3aee0" vector-effect="non-scaling-stroke"/><path d="M233.88 218.6a.83.83 0 0 0-.83-.83h-11.18a.83.83 0 0 0-.83.83v.04a.83.83 0 0 0 .83.83h11.18a.83.83 0 0 0 .83-.83v-.04" stroke="#7ec0ea" vector-effect="non-scaling-stroke"/><path d="M256.67 218.593a.81.81 0 0 0-.807-.813l-11.3-.04a.81.81 0 0 0-.813.808v.1a.81.81 0 0 0 .807.812l11.3.04a.81.81 0 0 0 .813-.808v-.1m22.58-.002a.84.84 0 0 0-.84-.84h-11.08a.84.84 0 0 0-.84.84v.06a.84.84 0 0 0 .84.84h11.08a.84.84 0 0 0 .84-.84v-.06m22.71-.011a.83.83 0 0 0-.832-.829l-11.26.02a.83.83 0 0 0-.828.831v.06a.83.83 0 0 0 .832.829l11.26-.02a.83.83 0 0 0 .828-.831v-.06" stroke="#7bb5e2" vector-effect="non-scaling-stroke"/><path d="M324.69 218.6a.84.84 0 0 0-.84-.84h-11.26a.84.84 0 0 0-.84.84v.04a.84.84 0 0 0 .84.84h11.26a.84.84 0 0 0 .84-.84v-.04" stroke="#79accf" vector-effect="non-scaling-stroke"/><path d="M347.26 218.52a.77.77 0 0 0-.77-.77h-11.22a.77.77 0 0 0-.77.77v.2a.77.77 0 0 0 .77.77h11.22a.77.77 0 0 0 .77-.77v-.2" stroke="#7ba5c6" vector-effect="non-scaling-stroke"/><path d="M212.25 219.601a.63.63 0 0 0-.629-.63l-.24-.001a.63.63 0 0 0-.631.629l-.02 11.48a.63.63 0 0 0 .629.63l.24.001a.63.63 0 0 0 .631-.629l.02-11.48m-.04 22.713a.81.81 0 0 0-.815-.804h-.06a.81.81 0 0 0-.804.816l.078 11.3a.81.81 0 0 0 .816.804h.06a.81.81 0 0 0 .804-.816l-.078-11.3m.059 22.768a.83.83 0 0 0-.829-.832h-.06a.83.83 0 0 0-.831.829l-.02 11.08a.83.83 0 0 0 .829.83l.06.001a.83.83 0 0 0 .831-.829l.02-11.08" stroke="#7ec0ea" vector-effect="non-scaling-stroke"/><path d="M489.74 271.611a.83.83 0 0 0-.828-.83l-.06-.001a.83.83 0 0 0-.832.829l-.02 11.76a.83.83 0 0 0 .828.83l.06.001a.83.83 0 0 0 .832-.828l.02-11.76" stroke="#7bb5e2" vector-effect="non-scaling-stroke"/><path d="M212.22 287.634a.82.82 0 0 0-.825-.814h-.06a.82.82 0 0 0-.814.826l.078 11.28a.82.82 0 0 0 .826.814h.06a.82.82 0 0 0 .814-.826l-.078-11.28" stroke="#7ec0ea" vector-effect="non-scaling-stroke"/><path d="M489.71 295.1a.83.83 0 0 0-.83-.83h-.04a.83.83 0 0 0-.83.83v11.78a.83.83 0 0 0 .83.83h.04a.83.83 0 0 0 .83-.83V295.1" stroke="#7bb5e2" vector-effect="non-scaling-stroke"/><path d="M212.32 310.36a.8.8 0 0 0-.792-.81h-.08a.8.8 0 0 0-.809.791l-.118 11.3a.8.8 0 0 0 .792.808l.08.001a.8.8 0 0 0 .808-.791l.118-11.3" stroke="#7ec0ea" vector-effect="non-scaling-stroke"/><path d="M489.7 318.829a.82.82 0 0 0-.822-.819h-.06a.82.82 0 0 0-.818.822l.02 11.8a.82.82 0 0 0 .822.818h.06a.82.82 0 0 0 .818-.822l-.02-11.8M373.75 401.96h39" stroke="#7bb5e2" vector-effect="non-scaling-stroke"/><path d="m412.75 401.96 28.27.02a1.48 1.48 0 0 0 1.48-1.48v-66.77a2.22 2.22 0 0 0-2.22-2.22l-11.53.03" stroke="#7ba5c6" vector-effect="non-scaling-stroke"/><path d="m428.75 331.54-30.04-.04a2.14 2.13-.7 0 1-2.14-2.08q-.05-1.75-1.38-2.84-.4-.33-.93-.33h-39.01q-.51 0-.89.35c-1.53 1.38-1.3 3.25-1.31 5.18q-.2 34.36.1 68.62a1.6 1.59 89.6 0 0 1.59 1.58l19.01-.02" stroke="#7ec0ea" vector-effect="non-scaling-stroke"/><path d="M428.75 331.54q-.04.21.11.49.11.22-.13.22h-.45q-.65 0-.34.57.92 1.68.31 3.39" stroke="#096fb1" vector-effect="non-scaling-stroke"/><path d="m428.25 336.21-70.73.03a.52.52 0 0 0-.52.52v11.71q0 .5.5.5l14.77.03" stroke="#7dbfe6" vector-effect="non-scaling-stroke"/><path d="M372.27 349q.38 21.65.32 43.25c0 1.84.02 8.67 1.16 9.71" stroke="#097fcd" vector-effect="non-scaling-stroke"/><path d="M412.75 401.96q-.2-.26-.59-.28-.12-.01-.03-.09.1-.07.23-.12.24-.08.03-.22c-1.52-.95 0-46.34-.95-57.37-.1-1.1.45-2.26 1.04-3.13" stroke="#0664a9" vector-effect="non-scaling-stroke"/><path d="M412.48 340.75h25.59q.53 0 .52-.53l-.05-3.44q-.01-.5-.51-.51l-9.78-.06" stroke="#7ba4c2" vector-effect="non-scaling-stroke"/><path d="M412.48 340.75c-5.63-.04-14.13-.82-16.14 1.56-2.3 2.73.22 6.51-5.84 6.58q-9.76.11-18.23.11" stroke="#7bb4dd" vector-effect="non-scaling-stroke"/><path d="M489.648 342.403a.8.8 0 0 0-.807-.793h-.04a.8.8 0 0 0-.793.807l.104 11.94a.8.8 0 0 0 .807.793h.04a.8.8 0 0 0 .793-.807l-.104-11.94m.01 23.539a.8.8 0 0 0-.809-.792h-.06a.8.8 0 0 0-.791.809l.125 11.94a.8.8 0 0 0 .808.79h.06a.8.8 0 0 0 .792-.808l-.126-11.94m-.019 23.65a.79.79 0 0 0-.798-.78h-.06a.79.79 0 0 0-.782.798l.124 11.8a.79.79 0 0 0 .798.78h.06a.79.79 0 0 0 .782-.798l-.124-11.8m.072 23.757a.83.83 0 0 0-.832-.828h-.06a.83.83 0 0 0-.828.832l.02 11.78a.83.83 0 0 0 .832.828h.06a.83.83 0 0 0 .828-.832l-.02-11.78" stroke="#7bb5e2" vector-effect="non-scaling-stroke"/><path d="M182 362.64a2.63 2.63 0 0 0-2.63-2.63h-6.22a2.63 2.63 0 0 0-2.63 2.63v55a2.63 2.63 0 0 0 2.63 2.63h6.22a2.63 2.63 0 0 0 2.63-2.63v-55m-48.26.31a2.71 2.71 0 0 0-2.71-2.71h-6.08a2.71 2.71 0 0 0-2.71 2.71v55.02a2.71 2.71 0 0 0 2.71 2.71h6.08a2.71 2.71 0 0 0 2.71-2.71v-55.02m16.01-.28a2.41 2.41 0 0 0-2.41-2.41h-6.42a2.41 2.41 0 0 0-2.41 2.41v55.58a2.41 2.41 0 0 0 2.41 2.41h6.42a2.41 2.41 0 0 0 2.41-2.41v-55.58m16.48.28a2.69 2.69 0 0 0-2.69-2.69h-6.1a2.69 2.69 0 0 0-2.69 2.69v55.04a2.69 2.69 0 0 0 2.69 2.69h6.1a2.69 2.69 0 0 0 2.69-2.69v-55.04" stroke="#7bc8eb" vector-effect="non-scaling-stroke"/><path d="M258.54 390.44a5.6 5.6 0 0 0-5.6-5.6 5.6 5.6 0 0 0-5.6 5.6 5.6 5.6 0 0 0 5.6 5.6 5.6 5.6 0 0 0 5.6-5.6m-19.04.01a5.6 5.6 0 0 0-5.6-5.6 5.6 5.6 0 0 0-5.6 5.6 5.6 5.6 0 0 0 5.6 5.6 5.6 5.6 0 0 0 5.6-5.6m38.31-.01a5.59 5.59 0 0 0-5.59-5.59 5.59 5.59 0 0 0-5.59 5.59 5.59 5.59 0 0 0 5.59 5.59 5.59 5.59 0 0 0 5.59-5.59" stroke="#7dbfe6" vector-effect="non-scaling-stroke"/><path d="M582.559 431.426a.86.86 0 0 0-.504-1.106l-.094-.035a.86.86 0 0 0-1.107.504l-8.713 23.305a.86.86 0 0 0 .504 1.106l.094.035a.86.86 0 0 0 1.107-.504l8.713-23.305M558.77 443.42a.33.33 0 0 1 .02-.6l9.71-4.08q.5-.21.5-.75v-.32a.8.8 0 0 0-1.13-.73l-13.08 5.86a.5.5 0 0 0 0 .91l13.17 5.65a.88.87 25.9 0 0 1.11-.38c.92-1.62-8.83-4.84-10.3-5.56m36.06.12q-4.14 2.1-9.63 3.86-1.18.38-.32 1.86.25.43.71.23l13.37-5.74q1.11-.48 0-.98l-13.32-5.99a.61.6-69.5 0 0-.82.38c-.58 1.94 8.41 4.92 9.99 5.63q.79.36.02.75" stroke="#76b5de" vector-effect="non-scaling-stroke"/><path d="M133.74 445.52a2.76 2.76 0 0 0-2.76-2.76H125a2.76 2.76 0 0 0-2.76 2.76v54.92a2.76 2.76 0 0 0 2.76 2.76h5.98a2.76 2.76 0 0 0 2.76-2.76v-54.92m16.01-.3a2.45 2.45 0 0 0-2.45-2.45h-6.34a2.45 2.45 0 0 0-2.45 2.45v55.48a2.45 2.45 0 0 0 2.45 2.45h6.34a2.45 2.45 0 0 0 2.45-2.45v-55.48m16.48.11a2.55 2.55 0 0 0-2.55-2.55h-6.38a2.55 2.55 0 0 0-2.55 2.55v55.16a2.55 2.55 0 0 0 2.55 2.55h6.38a2.55 2.55 0 0 0 2.55-2.55v-55.16" stroke="#79d3f1" vector-effect="non-scaling-stroke"/><path d="M258.55 473a5.6 5.6 0 0 0-5.6-5.6 5.6 5.6 0 0 0-5.6 5.6 5.6 5.6 0 0 0 5.6 5.6 5.6 5.6 0 0 0 5.6-5.6m19.26 0a5.58 5.58 0 0 0-5.58-5.58 5.58 5.58 0 0 0-5.58 5.58 5.58 5.58 0 0 0 5.58 5.58 5.58 5.58 0 0 0 5.58-5.58" stroke="#7dbfe6" vector-effect="non-scaling-stroke"/><path d="M358.42 533.78a23.35 23.35 0 0 0-23.35-23.35 23.35 23.35 0 0 0-23.35 23.35 23.35 23.35 0 0 0 23.35 23.35 23.35 23.35 0 0 0 23.35-23.35" stroke="#76b5de" vector-effect="non-scaling-stroke"/><path d="M332.96 527a1.61 1.61 0 0 0-2.47 1.36l-.06 11.97a1.61 1.61 0 0 0 2.45 1.38l9.68-5.93a1.61 1.61 0 0 0 .01-2.74l-9.61-6.04" stroke="#76b5de" vector-effect="non-scaling-stroke"/><path d="M133.75 527.75a2.49 2.49 0 0 0-2.49-2.49h-6.52a2.49 2.49 0 0 0-2.49 2.49v55.28a2.49 2.49 0 0 0 2.49 2.49h6.52a2.49 2.49 0 0 0 2.49-2.49v-55.28m16-.17a2.32 2.32 0 0 0-2.32-2.32h-6.6a2.32 2.32 0 0 0-2.32 2.32v55.62a2.32 2.32 0 0 0 2.32 2.32h6.6a2.32 2.32 0 0 0 2.32-2.32v-55.62m16.48.24a2.56 2.56 0 0 0-2.56-2.56h-6.36a2.56 2.56 0 0 0-2.56 2.56v55.14a2.56 2.56 0 0 0 2.56 2.56h6.36a2.56 2.56 0 0 0 2.56-2.56v-55.14" stroke="#79d3f1" vector-effect="non-scaling-stroke"/><path d="M239.5 555.42a5.6 5.6 0 0 0-5.6-5.6 5.6 5.6 0 0 0-5.6 5.6 5.6 5.6 0 0 0 5.6 5.6 5.6 5.6 0 0 0 5.6-5.6m19.05.01a5.6 5.6 0 0 0-5.6-5.6 5.6 5.6 0 0 0-5.6 5.6 5.6 5.6 0 0 0 5.6 5.6 5.6 5.6 0 0 0 5.6-5.6m19.26.01a5.58 5.58 0 0 0-5.58-5.58 5.58 5.58 0 0 0-5.58 5.58 5.58 5.58 0 0 0 5.58 5.58 5.58 5.58 0 0 0 5.58-5.58" stroke="#7cc4e9" vector-effect="non-scaling-stroke"/><path d="M618.82 580.35a5.41 5.41 0 0 0-5.41-5.41 5.41 5.41 0 0 0-5.41 5.41 5.41 5.41 0 0 0 5.41 5.41 5.41 5.41 0 0 0 5.41-5.41" stroke="#76b5de" vector-effect="non-scaling-stroke"/><path d="m594.25 614.71 28.91.55a1.27 1.27 0 0 0 1.09-1.96l-10.76-16.56a1.44 1.44 0 0 0-2.37-.07l-3.92 5.29a1.17 1.16 43.1 0 1-1.82.06l-9.84-11.52" stroke="#74accb" vector-effect="non-scaling-stroke"/><path d="m595.54 590.5-1.65-2.21a1.53 1.52-43.4 0 0-2.39-.06l-20.19 24.09a1.29 1.29 0 0 0 .97 2.12l21.97.27" stroke="#76b5de" vector-effect="non-scaling-stroke"/><path d="M595.54 590.5q-1.04.57-1.1 2.69-.34 10.75-.19 21.52" stroke="#046ab1" vector-effect="non-scaling-stroke"/><path d="M133.74 610.4a2.68 2.68 0 0 0-2.68-2.68h-6.12a2.68 2.68 0 0 0-2.68 2.68v55.06a2.68 2.68 0 0 0 2.68 2.68h6.12a2.68 2.68 0 0 0 2.68-2.68V610.4m16.01-.26a2.42 2.42 0 0 0-2.42-2.42h-6.4a2.42 2.42 0 0 0-2.42 2.42v55.58a2.42 2.42 0 0 0 2.42 2.42h6.4a2.42 2.42 0 0 0 2.42-2.42v-55.58m16.48.21a2.62 2.62 0 0 0-2.62-2.62h-6.24a2.62 2.62 0 0 0-2.62 2.62v55.16a2.62 2.62 0 0 0 2.62 2.62h6.24a2.62 2.62 0 0 0 2.62-2.62v-55.16" stroke="#79d3f1" vector-effect="non-scaling-stroke"/><path d="M258.53 637.85a5.6 5.6 0 0 0-5.6-5.6 5.6 5.6 0 0 0-5.6 5.6 5.6 5.6 0 0 0 5.6 5.6 5.6 5.6 0 0 0 5.6-5.6m19.29 0a5.59 5.59 0 0 0-5.59-5.59 5.59 5.59 0 0 0-5.59 5.59 5.59 5.59 0 0 0 5.59 5.59 5.59 5.59 0 0 0 5.59-5.59" stroke="#7dbfe6" vector-effect="non-scaling-stroke"/></g><path d="M440.5 164.54q.62.32 1.26.2a.32.32 0 0 1 .25.58q-4.79 3.48-8.05 7.18-5 5.51-7.05 12.27a1.09 1.09 0 0 1-1.13.76c-14.55-1.15-25.53 7.88-27.4 21.99a.36.35-77.4 0 1-.45.29q-18.6-5.89-29.18 9.98c-1.88-.03-10.94-.58-11.8.73a.54.54 0 0 0 .45.84l9.1.1q.98-.19.74.43-6.54 17.43 4.88 30.01c3.6 3.96 9.76 7.34 14.87 7.34q32.77.05 65.51-.03h24l10.94.21q.67.02.57.68-.18 1.16.37 2.22.47.92.91-.02.5-1.05.47-2.22-.02-.5.47-.51 17.58-.33 35.16-.35c19.69-.02 29.78-17.38 23.85-35.48q-.1-.31.18-.48.13-.07.33-.05.36.15.68.55 3.22.9 6.57.45l3.25.33q1.99 1.41 4.5.96 3.13 2.44 7 1.71c41.84 10.1 74.46 37.25 87.4 78.66q12.83 41.06-1.16 82.81c-2.18 6.49-6.19 16.59-11.26 24.14q-1.3 1.93-2.14 4.26c-10.14-5.93-29.42-12.18-40.71-6.16a.32.32 0 0 1-.4-.48q8.03-9.98 16.97-18.48c.6-.56 1.18-1.64 1.59-2.31a1.28 1.28 0 0 0-.87-1.93q-17.33-3.01-33.21.92c-13.8 3.42-29.76 10.84-42.8 18.51q-3.91 2.3-7.48 5.26-15.08 13.12-21.18 32.3l-26.25.02q-.5 0-.5-.49v-5.6a.56.55 90 0 0-.55-.56h-.52q-.68 0-.68.68v5.48q0 .51-.52.51-73.63-.01-147.26.01c-6.4 0-11.4 1.76-11.86 8.67q-.62 9.28.14 34.53l-1.89.63q-.39.14-.28.54.18.64.53 1.15.26.4.37.87.46 1.99 2.4 2.65.12.04.12.17v.26q-.01.58-.54.35-.18-.08-.36-.12-.13-.04-.12.1l.26 3.16q.04.49.46.73c3.06 1.73-.96 4.22-1.5 6.36q-.13.48-.51.78l-3.29 2.56q-.49.39.1.57.62.2.4 1.02-.12.42-.4.76-1.15 1.36-1 3.21c-21.56 13.44-15.32 44.13 10 47.08q.72.62 1.55.73.38.05.64.32 1.42 1.43.48 3.22-.24.46-.16.98c.67 4.2-.48 8.52-.26 14.06.08 2.13-.75 3.12-2.75 3.61l-3.93.04q-.54.01-.54.55v41.6q-.06 8.53-.02 17.26c.03 6.58 1.51 12.38 8.98 12.38q46.64.01 93.26.17l8 .08c-.69 12.9 2.45 25.38-12.25 31.75-26.55-1.64-52.38-8.28-78.32-13.47q-20.15-4.03-40.18-8.61l-.29-2.21-.44-78.96q0-.6-.61-.6l-12.41.1c-7.51.92-11-3.01-11-10.07q.03-26.49-.04-52.97l.02-9.22c0-6.16-1.86-18.58 3.57-22.35 2.11-1.47 4.86-1.19 7.45-1.47l12.49.23q.51.01.51-.5.01-66.21 0-132.41c0-6.77-2.29-12.2-9.76-12.04q-20.61.42-41.24.05l-43.79-.29-.03-7.9q0-.56-.56-.62c-1.43-.14-1.08 7.59-1.12 8.73q-49.53.08-99.06.15c-13.08.01-9.88 15.63-9.98 23.89q-.89-2.01-.82-4.32.01-.59-.57-.62c-2.2-.14-3.33-5.36-3.61-7.05q-.25-1.49-2-5.51l-.71-1.29c-3.76-22.55-7.53-44.3-3.99-67.21 7-45.25 55.69-68.38 91.93-85.94 19.2-9.31 38.89-20.35 55.52-31.35 9.37-6.2 19.77-15.72 28.41-21.5 28.02-18.72 61.84-29.09 95.84-24.44 27.91 3.82 56.92 16.29 72.12 40.96 1.02 1.65 5.16 7.88 6.92 7.81ZM233.88 218.6a.83.83 0 0 0-.83-.83h-11.18a.83.83 0 0 0-.83.83v.04a.83.83 0 0 0 .83.83h11.18a.83.83 0 0 0 .83-.83v-.04Zm22.79-.007a.81.81 0 0 0-.807-.813l-11.3-.04a.81.81 0 0 0-.813.808v.1a.81.81 0 0 0 .807.812l11.3.04a.81.81 0 0 0 .813-.808v-.1Zm22.58-.003a.84.84 0 0 0-.84-.84h-11.08a.84.84 0 0 0-.84.84v.06a.84.84 0 0 0 .84.84h11.08a.84.84 0 0 0 .84-.84v-.06Zm22.71-.011a.83.83 0 0 0-.832-.829l-11.26.02a.83.83 0 0 0-.828.831v.06a.83.83 0 0 0 .832.829l11.26-.02a.83.83 0 0 0 .828-.831v-.06Zm22.73.021a.84.84 0 0 0-.84-.84h-11.26a.84.84 0 0 0-.84.84v.04a.84.84 0 0 0 .84.84h11.26a.84.84 0 0 0 .84-.84v-.04Zm22.57-.08a.77.77 0 0 0-.77-.77h-11.22a.77.77 0 0 0-.77.77v.2a.77.77 0 0 0 .77.77h11.22a.77.77 0 0 0 .77-.77v-.2Zm-135.01 1.081a.63.63 0 0 0-.629-.63l-.24-.001a.63.63 0 0 0-.631.629l-.02 11.48a.63.63 0 0 0 .629.63l.24.001a.63.63 0 0 0 .631-.629l.02-11.48Zm-.04 22.713a.81.81 0 0 0-.815-.804h-.06a.81.81 0 0 0-.804.816l.078 11.3a.81.81 0 0 0 .816.804h.06a.81.81 0 0 0 .804-.816l-.078-11.3Zm.06 22.768a.83.83 0 0 0-.829-.832h-.06a.83.83 0 0 0-.831.829l-.02 11.08a.83.83 0 0 0 .829.83l.06.001a.83.83 0 0 0 .831-.829l.02-11.08Zm277.47 6.53a.83.83 0 0 0-.828-.832h-.06a.83.83 0 0 0-.832.829l-.02 11.76a.83.83 0 0 0 .828.83l.06.001a.83.83 0 0 0 .832-.828l.02-11.76Zm-277.52 16.022a.82.82 0 0 0-.825-.814h-.06a.82.82 0 0 0-.814.826l.078 11.28a.82.82 0 0 0 .826.814h.06a.82.82 0 0 0 .814-.826l-.078-11.28Zm277.49 7.466a.83.83 0 0 0-.83-.83h-.04a.83.83 0 0 0-.83.83v11.78a.83.83 0 0 0 .83.83h.04a.83.83 0 0 0 .83-.83V295.1Zm-277.39 15.26a.8.8 0 0 0-.792-.81h-.08a.8.8 0 0 0-.809.791l-.118 11.3a.8.8 0 0 0 .792.808l.08.001a.8.8 0 0 0 .808-.791l.118-11.3Zm277.38 8.469a.82.82 0 0 0-.822-.819h-.06a.82.82 0 0 0-.818.822l.02 11.8a.82.82 0 0 0 .822.818h.06a.82.82 0 0 0 .818-.822l-.02-11.8ZM373.75 401.96h39l28.27.02a1.48 1.48 0 0 0 1.48-1.48v-66.77a2.22 2.22 0 0 0-2.22-2.22l-11.53.03-30.04-.04a2.14 2.13-.7 0 1-2.14-2.08q-.05-1.75-1.38-2.84-.4-.33-.93-.33h-39.01q-.51 0-.89.35c-1.53 1.38-1.3 3.25-1.31 5.18q-.2 34.36.1 68.62a1.6 1.59 89.6 0 0 1.59 1.58l19.01-.02Zm115.898-59.557a.8.8 0 0 0-.807-.793h-.04a.8.8 0 0 0-.793.807l.104 11.94a.8.8 0 0 0 .807.793h.04a.8.8 0 0 0 .793-.807l-.104-11.94Zm.01 23.539a.8.8 0 0 0-.809-.792h-.06a.8.8 0 0 0-.791.809l.125 11.94a.8.8 0 0 0 .808.79h.06a.8.8 0 0 0 .792-.808l-.126-11.94Zm-.02 23.65a.79.79 0 0 0-.798-.782h-.06a.79.79 0 0 0-.782.799l.124 11.8a.79.79 0 0 0 .798.78h.06a.79.79 0 0 0 .782-.798l-.124-11.8Zm.072 23.757a.83.83 0 0 0-.832-.829h-.06a.83.83 0 0 0-.828.832l.02 11.78a.83.83 0 0 0 .832.828h.06a.83.83 0 0 0 .828-.832l-.02-11.78Z" fill="#f0f6ff"/><path d="M470 164.04q-.25 1.16.85 1.62.5.21.48.75-.62 18.05-.63 24.84-.01 2.01-.84 3.38-.25.41.11.74l.75.67q.31.28-.11.23-.95-.12-1.61.44-2.5.49-2.5 2.29.01 11.95-.01 23.97a.59.59 0 0 1-.71.58q-2.19-.41-3.93.74a2.14 2.14 0 0 0-.47 3.17c2.95 3.51 8.14 11.02 11.87 13.08q-.18.53.46.78.58.23-.01.43l-.63.21q-.29.1-.14.37c.74 1.35.06 10.93-.04 13.06q-.02.53.48.7l3.13 1.12h-24l-4.67-.2q-.46-.02-.49-.48-.46-7.43.43-14.81 1.68-.69 1.69-2.22.03-11.72.05-23.49 0-.59.56-.77 1.08-.36 2.26-.23.52.06.99-.17c1.98-.96 1.87-2.97.56-4.55q-4.61-5.58-9.42-11.01c-2.99-3.37-6.55 2.56-8.42 4.47q-1.03-.38-2.22-.21-.13.02-.09.15.1.3.22.62.03.06-.01.12-.09.1-.18.19-.23.26-.21-.09c.25-3.21 1.53-27.85-.47-28.55q-.46-.16-.13-.52 1.12-1.21 1.01-2.96 3.26-3.7 8.05-7.18a.32.32 0 0 0-.25-.58q-.64.12-1.26-.2c1.29-.02 2.36.1 3.6-.38q12.85-4.89 25.9-.12Z" fill="#0673c4"/><path d="M470 164.04q12.94 5.63 17.71 18.99.37 1.02 1.38 2.42.31.42.83.37c13.76-1.39 24.72 8.67 26.46 22a.74.74 0 0 0 1.02.59c11.06-4.61 21.16-1.6 28.26 7.61q2.01 2.6 4.09 5.19-.2-.02-.33.05-.28.17-.18.48c5.93 18.1-4.16 35.46-23.85 35.48q-17.58.02-35.16.35-.49.01-.47.51.03 1.17-.47 2.22-.44.94-.91.02-.55-1.06-.37-2.22.1-.66-.57-.68l-10.94-.21-3.13-1.12q-.5-.17-.48-.7c.1-2.13.78-11.71.04-13.06q-.15-.27.14-.37l.63-.21q.59-.2.01-.43-.64-.25-.46-.78c2.82.1 10.8-10.53 12.97-13.1a2.01 2.01 0 0 0-.03-2.62q-1.54-1.73-3.84-1.3a1.14 1.13-5.5 0 1-1.35-1.11v-23.12a2.55 2.55 0 0 0-2.54-2.55l-9.46-.03q.66-.56 1.61-.44.42.05.11-.23l-.75-.67q-.36-.33-.11-.74.83-1.37.84-3.38.01-6.79.63-24.84.02-.54-.48-.75-1.1-.46-.85-1.62Z" fill="#01619e"/><path d="M433.96 172.5q.11 1.75-1.01 2.96-.33.36.13.52c2 .7.72 25.34.47 28.55q-.02.35.21.09.09-.09.18-.19.04-.06.01-.12-.12-.32-.22-.62-.04-.13.09-.15 1.19-.17 2.22.21l-6.31 7.7q-.35.43-.23.97.77 3.27 4.25 2.58a1.05 1.04-5.7 0 1 1.25 1.02v23.94a1.77 1.77 0 0 0 1.78 1.77l10.99-.01q-.89 7.38-.43 14.81.03.46.49.48l4.67.2q-32.74.08-65.51.03c-5.11 0-11.27-3.38-14.87-7.34q-11.42-12.58-4.88-30.01.24-.62-.74-.43 1.68-.14 2.25-1.67 10.58-15.87 29.18-9.98a.36.35-77.4 0 0 .45-.29c1.87-14.11 12.85-23.14 27.4-21.99a1.09 1.09 0 0 0 1.13-.76q2.05-6.76 7.05-12.27Z" fill="#0b8ad5"/><path d="m469 196.71 9.46.03a2.55 2.55 0 0 1 2.54 2.55v23.12a1.14 1.13-5.5 0 0 1.35 1.11q2.3-.43 3.84 1.3a2.01 2.01 0 0 1 .03 2.62c-2.17 2.57-10.15 13.2-12.97 13.1-3.73-2.06-8.92-9.57-11.87-13.08a2.14 2.14 0 0 1 .47-3.17q1.74-1.15 3.93-.74a.59.59 0 0 0 .71-.58q.02-12.02.01-23.97 0-1.8 2.5-2.29Zm-21.23 45.01-10.99.01a1.77 1.77 0 0 1-1.78-1.77v-23.94a1.05 1.04-5.7 0 0-1.25-1.02q-3.48.69-4.25-2.58-.12-.54.23-.97l6.31-7.7c1.87-1.91 5.43-7.84 8.42-4.47q4.81 5.43 9.42 11.01c1.31 1.58 1.42 3.59-.56 4.55q-.47.23-.99.17-1.18-.13-2.26.23-.56.18-.56.77-.02 11.77-.05 23.49-.01 1.53-1.69 2.22Z" fill="#eff4f6"/><rect fill="#0b8ad5" width="12.84" height="1.7" x="221.04" y="217.77" rx=".83"/><rect fill="#0673c4" width="12.92" height="1.72" x="-6.46" y="-.86" rx=".81" transform="rotate(.2 -62504.848 71789.122)"/><rect fill="#0673c4" width="12.76" height="1.74" x="266.49" y="217.75" rx=".84"/><rect fill="#0673c4" width="12.92" height="1.72" x="-6.46" y="-.86" rx=".83" transform="rotate(-.1 125407.751 -169199.675)"/><rect fill="#01619e" width="12.94" height="1.72" x="311.75" y="217.76" rx=".84"/><rect fill="#06548d" width="12.76" height="1.74" x="334.5" y="217.75" rx=".77"/><path d="M368.75 217.79q-.57 1.53-2.25 1.67l-9.1-.1a.54.54 0 0 1-.45-.84c.86-1.31 9.92-.76 11.8-.73Z" fill="#06548d"/><rect fill="#0b8ad5" width="1.5" height="12.74" x="-.75" y="-6.37" rx=".63" transform="rotate(.1 -129004.532 121287.483)"/><path d="M557 222.21q-3.35.45-6.57-.45 3.44-.92 6.57.45Zm3.25.33 4.5.96q-2.51.45-4.5-.96Zm4.5.96 7 1.71q-3.87.73-7-1.71Z" fill="#e6f6f8"/><rect fill="#0b8ad5" width="1.68" height="12.92" x="-.84" y="-6.46" rx=".81" transform="rotate(-.4 35624.647 -30158.144)"/><rect fill="#0b8ad5" width="1.72" height="12.74" x="-.86" y="-6.37" rx=".83" transform="rotate(.1 -154948.1 121258.557)"/><rect fill="#0673c4" width="1.72" height="13.42" x="-.86" y="-6.71" rx=".83" transform="rotate(.1 -158745.583 280240.551)"/><rect fill="#0b8ad5" width="1.7" height="12.92" x="-.85" y="-6.46" rx=".82" transform="rotate(-.4 42114.8 -30135.489)"/><rect fill="#0673c4" width="1.7" height="13.44" x="488.01" y="294.27" rx=".83"/><rect fill="#0b8ad5" width="1.68" height="12.9" x="-.84" y="-6.45" rx=".8" transform="rotate(.6 -30069.791 20346.938)"/><rect fill="#0673c4" width="1.7" height="13.44" x="-.85" y="-6.72" rx=".82" transform="rotate(-.1 186300.968 -279933.712)"/><path d="M428.75 331.54q-.04.21.11.49.11.22-.13.22h-.45q-.65 0-.34.57.92 1.68.31 3.39l-70.73.03a.52.52 0 0 0-.52.52v11.71q0 .5.5.5l14.77.03q.38 21.65.32 43.25c0 1.84.02 8.67 1.16 9.71l-19.01.02a1.6 1.59 89.6 0 1-1.59-1.58q-.3-34.26-.1-68.62c.01-1.93-.22-3.8 1.31-5.18q.38-.35.89-.35h39.01q.53 0 .93.33 1.33 1.09 1.38 2.84a2.14 2.13-.7 0 0 2.14 2.08l30.04.04Z" fill="#0b8ad5"/><path d="m428.75 331.54 11.53-.03a2.22 2.22 0 0 1 2.22 2.22v66.77a1.48 1.48 0 0 1-1.48 1.48l-28.27-.02q-.2-.26-.59-.28-.12-.01-.03-.09.1-.07.23-.12.24-.08.03-.22c-1.52-.95 0-46.34-.95-57.37-.1-1.1.45-2.26 1.04-3.13h25.59q.53 0 .52-.53l-.05-3.44q-.01-.5-.51-.51l-9.78-.06q.61-1.71-.31-3.39-.31-.57.34-.57h.45q.24 0 .13-.22-.15-.28-.11-.49Z" fill="#06548d"/><path d="m212.21 340.75-1.71.21c.04-1.14-.31-8.87 1.12-8.73q.56.06.56.62l.03 7.9Z" fill="#0b8ad5"/><path d="m428.25 336.21 9.78.06q.5.01.51.51l.05 3.44q.01.53-.52.53h-25.59c-5.63-.04-14.13-.82-16.14 1.56-2.3 2.73.22 6.51-5.84 6.58q-9.76.11-18.23.11l-14.77-.03q-.5 0-.5-.5v-11.71a.52.52 0 0 1 .52-.52l70.73-.03Z" fill="#eff4f6"/><path d="m212.21 340.75 43.79.29q-2.09.99-4.58 1.03-.22.01-.28.22-.04.19.16.29.52.23.4.78l-1.65 7.53q-.12.51-.64.55l-1.2.1q-.29.02-.25.31l.05.37q.12.87-.68.5-1.17-.55-1.73.58-.1.21.13.22l4.27.19-36.75.08q-47.87-.43-95.75-.16-2.96.01-2.97 3.18-.07 34.19-.02 68.04a2.4 2.4 0 0 0 2.4 2.39l98.09-.03 8.5.08 3.55.19q.76.04.03.25-.21.06-.42.15-.17.08-.03.2l.64.56q.33.29-.03.55l-1.5 1.07q-.14.11-.03.25 1.19 1.6.79 3.63-.1.49.36.68 2.5 1.08 5.14 1.14l-.5.08h-61.75q-25.78-.08-51.57-.02c-1.76 0-3.66.59-3.66 2.54q-.04 33.75-.01 67.5c0 1.75.62 3.68 2.55 3.68q21.35-.02 42.69.05l8.82.17q.56.01.32.51l-.24.51q-.19.39.06.74 1.96 2.8.54 5.99-.15.33.21.29.81-.07 1.54.21-24.96.06-49.94.09c-3.78 0-6.55-.55-6.55 3.94q-.02 33.04-.01 66.1c0 2.5.92 3.86 3.5 3.86q26 .02 52 .09l-1.74.23q-.76.1 0 .21 2.7.4 5.38.26a.91.91 0 0 1 .91 1.19q-.84 2.55.25 4.84.27.55-.31.75l-1.07.39q-.64.23.04.33l1.54.22-1.75.08q-27.5-.08-55 .04-3.75.01-3.75 4.18 0 32.63-.01 65.3c0 4.53 2.08 4.43 5.81 4.43q26.59-.01 53.2.05l-6.04.5q-1.94.17.01.22 2.53.07 5.08-.03.47-.01.72.38l.55.87q.32.52.94.52h4.2q.6 0 .93.51l.95 1.46q.26.39.11.84-.28.82.56 1.19.7.31.03.68c-2.3 1.24-7.72 1.67-10.34 1.36-1.7-.21-2.82.66-4.35.67-3.83.01-35.71-.38-36.43.41q-.08.08.03.12.17.05.36.1.35.11-.01.17-1.22.24-2.36.79-.35.17-.67-.04-1.04-.65-1.95.11-.4.33-.9.43l-1.99.37q-.29.05-.02.19l.36.2q.85.44-.09.62l-1.43.28c-6.42.54-15.87 1.72-19.09-5.17q-1.17-2.5-1.16-9.73.02-13.76.12-27.52 0-.29-.21-.5l-.19-.2q-.05-.05-.05-.13c.33-3.07 1.44-18.42-.92-18.92 1.77.21 1.29-13.84 1.21-16.79q.19-1.13-.3-1.43.77-11.41.1-22.15l.17-30.96q.57-9.91-.07-19.81c-.15-2.37-1.32-4.05-2.36-6.11q1.12-.01 1.97-.47.5-.27.5-.84l-.01-17.48-.25-5.75q.65-28.51.16-57.03 0-.34-.31-.46-.14-.06-.31-.05l.4-4.43.48-17.53-.17-59.25c.1-8.26-3.1-23.88 9.98-23.89q49.53-.07 99.06-.15l1.71-.21Z" fill="#176999"/><path d="M412.48 340.75c-.59.87-1.14 2.03-1.04 3.13.95 11.03-.57 56.42.95 57.37q.21.14-.03.22-.13.05-.23.12-.09.08.03.09.39.02.59.28h-39c-1.14-1.04-1.16-7.87-1.16-9.71q.06-21.6-.32-43.25 8.47 0 18.23-.11c6.06-.07 3.54-3.85 5.84-6.58 2.01-2.38 10.51-1.6 16.14-1.56Z" fill="#0673c4"/><path d="M256 341.04q20.63.37 41.24-.05c7.47-.16 9.76 5.27 9.76 12.04q.01 66.2 0 132.41 0 .51-.51.5l-12.49-.23q0-23.6-.15-47.21-.01-2.49-2.41-2.49-29.72.02-59.44-.05-2.64-.06-5.14-1.14-.46-.19-.36-.68.4-2.03-.79-3.63-.11-.14.03-.25l1.5-1.07q.36-.26.03-.55l-.64-.56q-.14-.12.03-.2.21-.09.42-.15.73-.21-.03-.25l-3.55-.19q33.49-.07 66.99-.04c2.04 0 3.54-.48 3.54-2.75l-.04-68.58a2.19 2.18 0 0 0-2.19-2.18l-41.8-.03-4.27-.19q-.23-.01-.13-.22.56-1.13 1.73-.58.8.37.68-.5l-.05-.37q-.04-.29.25-.31l1.2-.1q.52-.04.64-.55l1.65-7.53q.12-.55-.4-.78-.2-.1-.16-.29.06-.21.28-.22 2.49-.04 4.58-1.03Z" fill="#06548d"/><rect fill="#0673c4" width="1.64" height="13.54" x="-.82" y="-6.77" rx=".8" transform="rotate(-.5 40165.594 -55846.976)"/><path d="m93.75 346.21.71 1.29q1.13 6.75 1.07 13.58 0 .1.03.11.13.04.25.08.16.05.17.22.45 9.42 3.36 18.39.04.12.17.12.14 0 .3-.01.32-.02.33.3c.1 2.83.87 5.45.84 8.18q-.17 17.9.65 35.78l-.48 17.53q-1.58-4.43-5.79-4.91-.43-.05-.81-.28l-2.88-1.69q-.49-.29-.48-.85.04-3.17 1.31-7.8.93-3.41 1.86-13.07c1.73-17.95.49-35.88.41-53.89q0-.53-.36-.91c-1.5-1.56-.94-9.92-.66-12.17Z" fill="#aeb2b9" fill-opacity=".725"/><path d="m101.46 365 .17 59.25q-.82-17.88-.65-35.78c.03-2.73-.74-5.35-.84-8.18q-.01-.32-.33-.3-.16.01-.3.01-.13 0-.17-.12-2.91-8.97-3.36-18.39-.01-.17-.17-.22-.12-.04-.25-.08-.03-.01-.03-.11.06-6.83-1.07-13.58 1.75 4.02 2 5.51c.28 1.69 1.41 6.91 3.61 7.05q.58.03.57.62-.07 2.31.82 4.32Z" fill="#e6f6f8"/><path d="m213.25 353.79-.36.37q-.27.28.11.33l.42.06q.25.03.06.19-.96.79-.47 1.76.24.49.13 1.03-.67 3.21-.67 8.03.02 29.2-.02 58.4c0 1.29.58 2.12 1.91 2.05q.47-.02.65.42.18.44-.01.78l-98.09.03a2.4 2.4 0 0 1-2.4-2.39q-.05-33.85.02-68.04.01-3.17 2.97-3.18 47.88-.27 95.75.16ZM182 362.64a2.63 2.63 0 0 0-2.63-2.63h-6.22a2.63 2.63 0 0 0-2.63 2.63v55a2.63 2.63 0 0 0 2.63 2.63h6.22a2.63 2.63 0 0 0 2.63-2.63v-55Zm-48.26.31a2.71 2.71 0 0 0-2.71-2.71h-6.08a2.71 2.71 0 0 0-2.71 2.71v55.02a2.71 2.71 0 0 0 2.71 2.71h6.08a2.71 2.71 0 0 0 2.71-2.71v-55.02Zm16.01-.28a2.41 2.41 0 0 0-2.41-2.41h-6.42a2.41 2.41 0 0 0-2.41 2.41v55.58a2.41 2.41 0 0 0 2.41 2.41h6.42a2.41 2.41 0 0 0 2.41-2.41v-55.58Zm16.48.28a2.69 2.69 0 0 0-2.69-2.69h-6.1a2.69 2.69 0 0 0-2.69 2.69v55.04a2.69 2.69 0 0 0 2.69 2.69h6.1a2.69 2.69 0 0 0 2.69-2.69v-55.04Z" fill="#069ce0"/><path d="m213.25 353.79 36.75-.08 41.8.03a2.19 2.18 0 0 1 2.19 2.18l.04 68.58c0 2.27-1.5 2.75-3.54 2.75q-33.5-.03-66.99.04l-8.5-.08q.19-.34.01-.78t-.65-.42c-1.33.07-1.91-.76-1.91-2.05q.04-29.2.02-58.4 0-4.82.67-8.03.11-.54-.13-1.03-.49-.97.47-1.76.19-.16-.06-.19l-.42-.06q-.38-.05-.11-.33l.36-.37Zm45.29 36.65a5.6 5.6 0 0 0-5.6-5.6 5.6 5.6 0 0 0-5.6 5.6 5.6 5.6 0 0 0 5.6 5.6 5.6 5.6 0 0 0 5.6-5.6Zm-19.04.01a5.6 5.6 0 0 0-5.6-5.6 5.6 5.6 0 0 0-5.6 5.6 5.6 5.6 0 0 0 5.6 5.6 5.6 5.6 0 0 0 5.6-5.6Zm38.31-.01a5.59 5.59 0 0 0-5.59-5.59 5.59 5.59 0 0 0-5.59 5.59 5.59 5.59 0 0 0 5.59 5.59 5.59 5.59 0 0 0 5.59-5.59Z" fill="#0b8ad5"/><rect fill="#eff4f6" width="11.48" height="60.26" x="170.52" y="360.01" rx="2.63"/><rect fill="#eff4f6" width="11.5" height="60.44" x="122.24" y="360.24" rx="2.71"/><rect fill="#eff4f6" width="11.24" height="60.4" x="138.51" y="360.26" rx="2.41"/><rect fill="#eff4f6" width="11.48" height="60.42" x="154.75" y="360.26" rx="2.69"/><rect fill="#0673c4" width="1.66" height="13.54" x="-.83" y="-6.77" rx=".8" transform="rotate(-.6 35759.864 -46499.17)"/><path d="m644.59 415.08 1.72 1.88a1.42 1.42 0 0 1-.52 2.28q-5.95 2.36-11.4 5.58c-4.9 2.88-8.72 7-12.6 11.18q.69-8.71.48-17.44c-.13-5.79-3.76-8.65-9.52-7.52q-44.92-.53-69.81.15-2.54.07-4.4 2.81.19-1.81-.86-3.59 3.57-2.96 7.48-5.26c13.04-7.67 29-15.09 42.8-18.51q15.88-3.93 33.21-.92a1.28 1.28 0 0 1 .87 1.93c-.41.67-.99 1.75-1.59 2.31q-8.94 8.5-16.97 18.48a.32.32 0 0 0 .4.48c11.29-6.02 30.57.23 40.71 6.16Z" fill="#bf65c8"/><circle fill="#eff4f6" cx="252.94" cy="390.44" r="5.6"/><circle fill="#eff4f6" cx="233.9" cy="390.45" r="5.6"/><circle fill="#eff4f6" cx="272.22" cy="390.44" r="5.59"/><rect fill="#0673c4" width="1.64" height="13.38" x="-.82" y="-6.69" rx=".79" transform="rotate(-.6 38011.563 -46486.425)"/><path d="M537.68 410.41q1.05 1.78.86 3.59c-2.78 3.24-1.66 24.5-1.83 28.5l-20.21.21q6.1-19.18 21.18-32.3Z" fill="#7d5cb2"/><path d="M612.75 411.04q5.87 2.21 5.75 8.7c-.14 8 .19 17.43-.04 26.59q-.24 9.46-.18 20.93.03 4.99-4.67 6.77-.77.29-.01.61.98.4 2.16.06c3.54-1.01 5.54.91 8.6.72q2.1-.14 4.14-.63l8.35-.21q-.16 1.8-3.24.62-17.79 3.41-26.86 19.09l-.23-18.88q-.01-.57-.58-.57l-8.44-.05h-42.25c-5.43-.04-13.88 1.5-17.15-3.81-2.17-3.53-1.05-13.91-1.39-18.48q.72-5 0-10c.17-4-.95-25.26 1.83-28.5q1.86-2.74 4.4-2.81 24.89-.68 69.81-.15Zm-30.191 20.386a.86.86 0 0 0-.504-1.106l-.094-.035a.86.86 0 0 0-1.107.504l-8.713 23.305a.86.86 0 0 0 .504 1.106l.094.035a.86.86 0 0 0 1.107-.504l8.713-23.305ZM558.77 443.42a.33.33 0 0 1 .02-.6l9.71-4.08q.5-.21.5-.75v-.32a.8.8 0 0 0-1.13-.73l-13.08 5.86a.5.5 0 0 0 0 .91l13.17 5.65a.88.87 25.9 0 0 1.11-.38c.92-1.62-8.83-4.84-10.3-5.56Zm36.06.12q-4.14 2.1-9.63 3.86-1.18.38-.32 1.86.25.43.71.23l13.37-5.74q1.11-.48 0-.98l-13.32-5.99a.61.6-69.5 0 0-.82.38c-.58 1.94 8.41 4.92 9.99 5.63q.79.36.02.75Z" fill="#e6f6f8"/><path d="M621.79 436c-.93 2.33-1.81 4.45-1.95 7.02-.42 7.74-.17 15.49-.54 23.2q-.19 3.84 2 7.09.28.41.73.57 3.07 1.1 6.47.91-2.04.49-4.14.63c-3.06.19-5.06-1.73-8.6-.72q-1.18.34-2.16-.06-.76-.32.01-.61 4.7-1.78 4.67-6.77-.06-11.47.18-20.93c.23-9.16-.1-18.59.04-26.59q.12-6.49-5.75-8.7c5.76-1.13 9.39 1.73 9.52 7.52q.21 8.73-.48 17.44Z" fill="#52caeb"/><rect fill="#0673c4" width="1.72" height="13.44" x="-.86" y="-6.72" rx=".83" transform="rotate(-.1 240451.195 -279886.457)"/><path d="M93.25 442.61q-1.43 1.32-1.46 3.18-.01.56-.4.95l-14.05 14.27q-.34.35-.81.48-.52.15-.54.62-.02.46.32.79c10.04 9.77 17.73 21.41 22.45 34.6q1.13 3.16 2.45 6.25l.25 5.75q-.31.17-.54-.03-.23-.19-.3-.49c-4.65-19.73-15.21-38.1-31.44-50.55a1.26 1.25 41.2 0 0-1.64.1l-21.69 21.54q-1.49-3.36-4.6-12.33c-5.24-15.1-14.65-23.34-24.85-33.9a.99.99 0 0 1 .45-1.64c25.37-6.99 47.81-2.15 71.47 7.75q3.37 1.41 4.93 2.66Z" fill="#bf65c8"/><rect fill="#0673c4" width="1.82" height="26.6" x="-.91" y="-13.3" rx=".86" transform="rotate(20.5 -935.572 1817.774)"/><path d="m231.5 436.04-1.01.24q-.96.22.03.22h.39q.4 0 .08.23l-.51.37q-.38.28.03.52l.48.29q.54.32.49.94l-.32 4.46q-.02.26-.11.5-.27.73.34 1.2.41.32.04.69l-.25.24q-.31.32-.02.65.77.86-.08 1.45-.62.43.06.77.73.37.49.93-.14.32-.15.68-.06 1.33.54 2.47.23.44.22.93-.09 5.34.99 10.57.11.54-.39.79-.63.3-.14.99.33.46-.2.66-.64.23-.5.88c-5.45 2.52-4.78 9.96 1.25 10.83l-2.79 1.12q-.62.26.02.46l.59.19q.73.23.46.94-.92 2.39-.05 4.88.17.48.1.98-1.35 9.32-.8 18.75.03.46.28.83l.67 1.03q.07.1-.02.19l-.33.34q-.51.5.21.5h.36q.35 0 .02.11l-2.47.85-51.02.04-2.09-5.17q-.02-.04 0-.08.07-.1.2-.17 1.8-.9-.42-.57-1.14.17-1.67-.72l5.23-.13a2.32 2.32 0 0 0 2.26-2.32q.03-27.21-.01-54.19c0-5.58-6.37-4.18-9.98-3.69q-.43-1.69 1.1-1.93.51-.07.46-.58l-.31-3.17q-.04-.48-.52-.55l-2.98-.44h61.75Z" fill="#069ce0"/><path d="m169.75 436.04 2.98.44q.48.07.52.55l.31 3.17q.05.51-.46.58-1.53.24-1.1 1.93-1.43 1.15-1.45 3.54-.19 27.3.08 54.64 0 .5.34.88 1.36 1.52 3.53 1.27.53.89 1.67.72 2.22-.33.42.57-.13.07-.2.17-.02.04 0 .08l2.09 5.17-18.73.04q-21.34-.07-42.69-.05c-1.93 0-2.55-1.93-2.55-3.68q-.03-33.75.01-67.5c0-1.95 1.9-2.54 3.66-2.54q25.79-.06 51.57.02Zm-36.01 9.48a2.76 2.76 0 0 0-2.76-2.76H125a2.76 2.76 0 0 0-2.76 2.76v54.92a2.76 2.76 0 0 0 2.76 2.76h5.98a2.76 2.76 0 0 0 2.76-2.76v-54.92Zm16.01-.3a2.45 2.45 0 0 0-2.45-2.45h-6.34a2.45 2.45 0 0 0-2.45 2.45v55.48a2.45 2.45 0 0 0 2.45 2.45h6.34a2.45 2.45 0 0 0 2.45-2.45v-55.48Zm16.48.11a2.55 2.55 0 0 0-2.55-2.55h-6.38a2.55 2.55 0 0 0-2.55 2.55v55.16a2.55 2.55 0 0 0 2.55 2.55h6.38a2.55 2.55 0 0 0 2.55-2.55v-55.16Z" fill="#02b2ec"/><path d="m231.5 436.04.5-.08q29.72.07 59.44.05 2.4 0 2.41 2.49.15 23.61.15 47.21c-2.59.28-5.34 0-7.45 1.47-5.43 3.77-3.57 16.19-3.57 22.35l-53.48.18 2.47-.85q.33-.11-.02-.11h-.36q-.72 0-.21-.5l.33-.34q.09-.09.02-.19l-.67-1.03q-.25-.37-.28-.83-.55-9.43.8-18.75.07-.5-.1-.98-.87-2.49.05-4.88.27-.71-.46-.94l-.59-.19q-.64-.2-.02-.46l2.79-1.12c9.51-.28 7.48-12.92-1.25-10.83q-.14-.65.5-.88.53-.2.2-.66-.49-.69.14-.99.5-.25.39-.79-1.08-5.23-.99-10.57.01-.49-.22-.93-.6-1.14-.54-2.47.01-.36.15-.68.24-.56-.49-.93-.68-.34-.06-.77.85-.59.08-1.45-.29-.33.02-.65l.25-.24q.37-.37-.04-.69-.61-.47-.34-1.2.09-.24.11-.5l.32-4.46q.05-.62-.49-.94l-.48-.29q-.41-.24-.03-.52l.51-.37q.32-.23-.08-.23h-.39q-.99 0-.03-.22l1.01-.24ZM258.55 473a5.6 5.6 0 0 0-5.6-5.6 5.6 5.6 0 0 0-5.6 5.6 5.6 5.6 0 0 0 5.6 5.6 5.6 5.6 0 0 0 5.6-5.6Zm19.26 0a5.58 5.58 0 0 0-5.58-5.58 5.58 5.58 0 0 0-5.58 5.58 5.58 5.58 0 0 0 5.58 5.58 5.58 5.58 0 0 0 5.58-5.58Z" fill="#0b8ad5"/><path d="m516.5 442.71 20.21-.21q.72 5 0 10l-33.23-.21h-18.23l-21.75.17-30.5.08-92.5-.02q-.48-.01-.89.24-2.1 1.22-2.1 2.74-.01 15.1-.01 30.21l-9 .25q-.76-25.25-.14-34.53c.46-6.91 5.46-8.67 11.86-8.67q73.63-.02 147.26-.01.52 0 .52-.51v-5.48q0-.68.68-.68h.52a.56.55 90 0 1 .55.56v5.6q0 .49.5.49l26.25-.02Z" fill="#01619e"/><path d="M558.77 443.42c1.47.72 11.22 3.94 10.3 5.56a.88.87 25.9 0 1-1.11.38l-13.17-5.65a.5.5 0 0 1 0-.91l13.08-5.86a.8.8 0 0 1 1.13.73v.32q0 .54-.5.75l-9.71 4.08a.33.33 0 0 0-.02.6Zm36.04-.63c-1.58-.71-10.57-3.69-9.99-5.63a.61.6-69.5 0 1 .82-.38l13.32 5.99q1.11.5 0 .98l-13.37 5.74q-.46.2-.71-.23-.86-1.48.32-1.86 5.49-1.76 9.63-3.86.77-.39-.02-.75Z" fill="#0673c4"/><path d="M174.5 503.04q-2.17.25-3.53-1.27-.34-.38-.34-.88-.27-27.34-.08-54.64.02-2.39 1.45-3.54c3.61-.49 9.98-1.89 9.98 3.69q.04 26.98.01 54.19a2.32 2.32 0 0 1-2.26 2.32l-5.23.13Z" fill="#eff4f6"/><path d="m93.25 442.61 5.64 3.68q.44.28.94.15l.92-.23q.17-.01.31.05.31.12.31.46.49 28.52-.16 57.03-1.32-3.09-2.45-6.25c-4.72-13.19-12.41-24.83-22.45-34.6q-.34-.33-.32-.79.02-.47.54-.62.47-.13.81-.48l14.05-14.27q.39-.39.4-.95.03-1.86 1.46-3.18Z" fill="#915fb9"/><rect fill="#eff4f6" width="11.5" height="60.44" x="122.24" y="442.76" rx="2.76"/><rect fill="#eff4f6" width="11.24" height="60.38" x="138.51" y="442.77" rx="2.45"/><rect fill="#eff4f6" width="11.48" height="60.26" x="154.75" y="442.78" rx="2.55"/><path d="m485.25 452.29 3.11.18q.27.01.27.28l-.01.42q0 .29-.29.3l-.89.05q-.52.02-.55.54l-.87 14.72q-.04.55-.34 1-1.43 2.14-.23 4.68.05.09.06-.01.03-.19.23-.3.44-.23.4.26-.52 7.69-1.5 15.34c-.15 1.12-1.09 1.4-1.1 2.73q-.06 5.47-3.46 9.67-.29.35-.35.8l-.61 4.63q-.06.4-.31.71l-.88 1.11q-.29.35-.36.8-.46 2.86-1.15 5.69c-.51 2.09-2.07 3.53-2.32 6.06q-.05.48-.37.85c-1.59 1.82-3.47 3.65-4.38 5.93-1.89 4.78-2.96 9.93-4.6 14.59q-1.22 3.49-2.16 7.05-.14.56-.54.96l-.71.7q-.38.38-.53.89c-1.05 3.43-3.55 5.72-4.44 8.91q-.85 3.03-1.66 6.07c-.39 1.45-1.76 2.08-2.19 3.79q-2.95 11.77-5.7 23.6c-1.08 4.68-1.68 9.86-2.68 14.82q-.1.48.08.93.47 1.14-.54 1.92-.38.29-.39.76l-.04 1.49h-32q.01-1.2-.7-2.26-.26-.38.13-.62l3.3-2.11q.6-.38.66-1.08l.62-7.32q.01-.13-.09-.05l-.43.36q-.13.1-.25-.02l-.29-.28q-.16-.17-.17.07-.04.86-.9 1.04-1.22.25-.58-.82l.52-.86q.28-.47.09-.97-1.53-3.93.64-7.64.24-.41.03-.84c-.49-1 3.27-3 2.99-5.83q-.04-.49.35-.79 2.85-2.19 2.95-5.74.03-.82-.31-.14-.08.18-.07.38.06.64-.43.22-.35-.31-.25-.89.82-4.77 4.23-7.76.3-.27.43-.65l1.75-5.3q.16-.52.63-.79.53-.3 1.01-.67.41-.31.55-.8c.2-.7 2.18-5.87 1.96-6.02q-.45-.33-.62.2-.39 1.15-1.43 1.97-.55.44-.25-.2l2.54-5.4q.09-.19-.06-.34l-.24-.24q-.22-.22-.41.03l-2.75 3.55q-1 1.29-.55-.28.32-1.13 1.1-2.16.23-.31.28-.69.26-2.2 1.97-3.56.49-.39.51-1.01.06-1.66 1.75-2.41.41-.19.32-.63-.39-1.79.62-3.18.65-.89-.38-.58-.84.25-.59-1.26.07-.41.28-.77c1.33-2.27 3.41-3.14 4.4-5.72 1.33-3.49 2.97-6.76 4.4-10.2 1.15-2.77 3.13-4.02 5.36-5.76q.09-.07-.02-.11-.11-.05-.26-.04-.13.01-.12-.12.3-2.68 2.38-4.13.5-.34.7-.9l3.56-9.92q.19-.52.61-.87l5.38-4.36q.42-.34.41-.88c-.07-3.96 2.12-5.99 2.5-9.32q.25-2.11.27-4.25 0-.5.28-.91c2.61-3.86 1.17-7.13 1.41-10.86q.04-.61-.08-.24-.16.5-.41.64-.36.2-.34-.22l1.36-19.44 21.75-.17Z" fill="#8ce1e9"/><path d="M485.25 452.29h18.23q.6 16.46-.7 32.91-.04.48.3.81c.67.63-.18 11.55-1.17 13.98q-.2.51-.14 1.06.52 4.27-2.36 7.39-.32.35-.28.82.4 4.68-1.39 8.98a.46.45 60.8 0 1-.87-.25l.88-5.94q.09-.59-.2-.07l-1.61 2.82q-.23.4-.24.87-.04 2.08-1.31 3.72-.36.46-.39 1.04-.19 3.26-2.56 5.48-.41.37-.49.92c-.64 4.25-1.7 12.43-3.45 13.92q-.36.31-.47.77l-2.15 9.04q-.04.17-.21.19l-.34.05q-.41.05-.5.46c-.56 2.52-.95 4.15-2.22 6.72q-1.09 2.19-1.18 4.74-.01.46-.4.72c-1.32.91-.78 11.71-.76 13.8q.02.8.39.1l1.67-3.11q.39-.72.34.1-.2 3.93-2.22 7.23-.27.45-.22.97c.33 3.25-1.25 6.24-1.6 8.72q-1.72 11.97-3.15 24.01l-31.23-.05.04-1.49q.01-.47.39-.76 1.01-.78.54-1.92-.18-.45-.08-.93c1-4.96 1.6-10.14 2.68-14.82q2.75-11.83 5.7-23.6c.43-1.71 1.8-2.34 2.19-3.79q.81-3.04 1.66-6.07c.89-3.19 3.39-5.48 4.44-8.91q.15-.51.53-.89l.71-.7q.4-.4.54-.96.94-3.56 2.16-7.05c1.64-4.66 2.71-9.81 4.6-14.59.91-2.28 2.79-4.11 4.38-5.93q.32-.37.37-.85c.25-2.53 1.81-3.97 2.32-6.06q.69-2.83 1.15-5.69.07-.45.36-.8l.88-1.11q.25-.31.31-.71l.61-4.63q.06-.45.35-.8 3.4-4.2 3.46-9.67c.01-1.33.95-1.61 1.1-2.73q.98-7.65 1.5-15.34.04-.49-.4-.26-.2.11-.23.3-.01.1-.06.01-1.2-2.54.23-4.68.3-.45.34-1l.87-14.72q.03-.52.55-.54l.89-.05q.29-.01.29-.3l.01-.42q0-.27-.27-.28l-3.11-.18Z" fill="#72d7ea"/><path d="m503.48 452.29 33.23.21c.34 4.57-.78 14.95 1.39 18.48 3.27 5.31 11.72 3.77 17.15 3.81-5.29 4.24.81 11.91-3.26 14.85q-.45.33-.36.89l.73 4.15q.12.71.64.2l.27-.27q.28-.29.4.1l1.02 3.5q.13.45-.17.8c-2.3 2.81-.2 6.24-2.82 8.49q-.56.48-.78-.22l-.25-.81q-.12-.39-.49-.22c-1.25.58-1.52 3.32-.44 3.26q.72-.03.13.38-.84.58-.73 1.35.55 3.94-1.26 6.55-.32.46-.88.46h-.87q-.63 0-.63.63v.78q0 .79-.68.39-.83-.49-.12-1.21.43-.45-.74-.51-1.14-.06-.99-1.31.29-2.42-.62-.09-.72 1.87-2.77 1.25-.8-.24-.88.58l-.45 4.24q-.03.25.23.25h.28q.32-.01.31.32l-.24 7.13q-.02.57-.4.99-1.35 1.45-1.02 3.48.01.08.1.08h.25q.47-.02.56.44.27 1.39-.7 2.23-.37.31-.37.8v3.57q0 .54-.34.97-2.52 3.09-3.33 7-.11.49-.61.49h-1.9q-.5 0-.56.5l-.2 1.49q-.08.58-.59.87-1.33.76-2.68 1.47c-2.53 1.33-4.54 5.23-6.04 7.58-2.27 3.54-2.42 6.9-2.52 10.91q-.01.34.23.1l.23-.24q.6-.6.37.22-.26.92.18 1.74.18.33 0 .66l-3.23 6.13q-.24.46-.73.66l-1.96.78q-.46.19-.53.68c-.23 1.52-1.7 15.26-1.95 15.49q-.27.24-.3.6l-1.54 14.82-34.77.05q1.43-12.04 3.15-24.01c.35-2.48 1.93-5.47 1.6-8.72q-.05-.52.22-.97 2.02-3.3 2.22-7.23.05-.82-.34-.1l-1.67 3.11q-.37.7-.39-.1c-.02-2.09-.56-12.89.76-13.8q.39-.26.4-.72.09-2.55 1.18-4.74c1.27-2.57 1.66-4.2 2.22-6.72q.09-.41.5-.46l.34-.05q.17-.02.21-.19l2.15-9.04q.11-.46.47-.77c1.75-1.49 2.81-9.67 3.45-13.92q.08-.55.49-.92 2.37-2.22 2.56-5.48.03-.58.39-1.04 1.27-1.64 1.31-3.72.01-.47.24-.87l1.61-2.82q.29-.52.2.07l-.88 5.94a.46.45 60.8 0 0 .87.25q1.79-4.3 1.39-8.98-.04-.47.28-.82 2.88-3.12 2.36-7.39-.06-.55.14-1.06c.99-2.43 1.84-13.35 1.17-13.98q-.34-.33-.3-.81 1.3-16.45.7-32.91Z" fill="#52caeb"/><path d="M433 452.54c-2.48 1.76-3.12 7.37-2.37 10 1.34 4.68.98 8.94-.8 13.42-1.39 3.52-1.91 7.94-3.35 10.5q-.77 1.37-3.96 3.56-.44.3-.56.82l-.95 4.2q-.11.44-.52.64-1.21.57-1.11 2.05.03.56-.5.74l-1.07.37q-.56.2-.35-.36l.29-.78q.18-.49-.31-.67l-.85-.33q-.2-.07-.07-.24.11-.13.15-.28.09-.31-.19-.15l-.97.56q-.37.21-.41.63-.17 2.3-2.15 3.48-.41.25-.52.72l-.73 3.21q-.11.46-.48.76-1.24.99-1.67 2.51-.17.6-.79.6h-.97q-.54 0-.67.52c-.61 2.26-2.27 3.86-3.2 5.33-1.58 2.47-3.41 4.86-4.36 7.65-1.01 2.95-5.02 1.07-5.46 5.55q-.08.82-1.28 1.32-.36.14-.31-.24.02-.22-.01-.38-.13-.53-.23.02l-.23 1.23q-.04-15.42-.09-30.84c-.02-7.49-1.65-13.03-10.24-12.41q-2.2-.52-4.46-.47-19.88.41-39.75-.07 0-15.11.01-30.21 0-1.52 2.1-2.74.41-.25.89-.24l92.5.02Z" fill="#c1fae5"/><path d="m433 452.54 30.5-.08-1.36 19.44q-.02.42.34.22.25-.14.41-.64.12-.37.08.24c-.24 3.73 1.2 7-1.41 10.86q-.28.41-.28.91-.02 2.14-.27 4.25c-.38 3.33-2.57 5.36-2.5 9.32q.01.54-.41.88l-5.38 4.36q-.42.35-.61.87l-3.56 9.92q-.2.56-.7.9-2.08 1.45-2.38 4.13-.01.13.12.12.15-.01.26.04.11.04.02.11c-2.23 1.74-4.21 2.99-5.36 5.76-1.43 3.44-3.07 6.71-4.4 10.2-.99 2.58-3.07 3.45-4.4 5.72q-.21.36-.28.77-.25 1.51.59 1.26 1.03-.31.38.58-1.01 1.39-.62 3.18.09.44-.32.63-1.69.75-1.75 2.41-.02.62-.51 1.01-1.71 1.36-1.97 3.56-.05.38-.28.69-.78 1.03-1.1 2.16-.45 1.57.55.28l2.75-3.55q.19-.25.41-.03l.24.24q.15.15.06.34l-2.54 5.4q-.3.64.25.2 1.04-.82 1.43-1.97.17-.53.62-.2c.22.15-1.76 5.32-1.96 6.02q-.14.49-.55.8-.48.37-1.01.67-.47.27-.63.79l-1.75 5.3q-.13.38-.43.65-3.41 2.99-4.23 7.76-.1.58.25.89.49.42.43-.22-.01-.2.07-.38.34-.68.31.14-.1 3.55-2.95 5.74-.39.3-.35.79c.28 2.83-3.48 4.83-2.99 5.83q.21.43-.03.84-2.17 3.71-.64 7.64.19.5-.09.97l-.52.86q-.64 1.07.58.82.86-.18.9-1.04.01-.24.17-.07l.29.28q.12.12.25.02l.43-.36q.1-.08.09.05l-.62 7.32q-.06.7-.66 1.08l-3.3 2.11q-.39.24-.13.62.71 1.06.7 2.26-34.64.08-69.28.03c-1.99 0-4.46-1.23-4.47-3.24q-.03-15 .04-30l43.91-.3c9.02.05 10.55-5.54 10.54-13.55q-.01-19.33.05-38.65l.23-1.23q.1-.55.23-.02.03.16.01.38-.05.38.31.24 1.2-.5 1.28-1.32c.44-4.48 4.45-2.6 5.46-5.55.95-2.79 2.78-5.18 4.36-7.65.93-1.47 2.59-3.07 3.2-5.33q.13-.52.67-.52h.97q.62 0 .79-.6.43-1.52 1.67-2.51.37-.3.48-.76l.73-3.21q.11-.47.52-.72 1.98-1.18 2.15-3.48.04-.42.41-.63l.97-.56q.28-.16.19.15-.04.15-.15.28-.13.17.07.24l.85.33q.49.18.31.67l-.29.78q-.21.56.35.36l1.07-.37q.53-.18.5-.74-.1-1.48 1.11-2.05.41-.2.52-.64l.95-4.2q.12-.52.56-.82 3.19-2.19 3.96-3.56c1.44-2.56 1.96-6.98 3.35-10.5 1.78-4.48 2.14-8.74.8-13.42-.75-2.63-.11-8.24 2.37-10Z" fill="#a7eae7"/><path d="m101.46 509.5.01 17.48q0 .57-.5.84-.85.46-1.97.47c-7.23-11.03-15.73-18.29-27.46-24.23-11.47-5.82-20.62-11.91-25.69-23.99l21.69-21.54a1.26 1.25 41.2 0 1 1.64-.1c16.23 12.45 26.79 30.82 31.44 50.55q.07.3.3.49.23.2.54.03Z" fill="#915fb9"/><path d="M233.25 478.54c-6.03-.87-6.7-8.31-1.25-10.83 8.73-2.09 10.76 10.55 1.25 10.83Z" fill="#eff4f6"/><circle fill="#eff4f6" cx="252.95" cy="473" r="5.6"/><circle fill="#eff4f6" cx="272.23" cy="473" r="5.58"/><path d="M636.85 474.58c18.14.35 34.24 2.63 49.63 12.85a.67.67 0 0 1-.07 1.16c-7.8 3.95-16.01 7.84-22.35 13.87q-5.8-3.69-9.22-9.59-.22-.38-.29-.3l-.11.11q-.06.07-.42-.25-1.08-1-3.53-.45c-19.14 4.31-32.78 15.29-42.85 31.32q-.68 1.08-.85-.18l-.08-.62.3-1.45q13.34-20.21 35.99-28.28.48-.17.14-.54l-3.83-4.18q-.31-.34-.31-.8v-.73q0-.5-.31-.9l-5.46-6.99q-.36-.46-.22-1.03l.6-2.4q3.08 1.18 3.24-.62Z" fill="#bf65c8"/><path d="M555.25 474.79h42.25l.34 75.44q-21.06.04-43.03.02c-5.45-.01-8.74 2.98-8.77 8.5q-.12 20.12 0 56.49l-36.79-.03 1.54-14.82q.03-.36.3-.6c.25-.23 1.72-13.97 1.95-15.49q.07-.49.53-.68l1.96-.78q.49-.2.73-.66l3.23-6.13q.18-.33 0-.66-.44-.82-.18-1.74.23-.82-.37-.22l-.23.24q-.24.24-.23-.1c.1-4.01.25-7.37 2.52-10.91 1.5-2.35 3.51-6.25 6.04-7.58q1.35-.71 2.68-1.47.51-.29.59-.87l.2-1.49q.06-.5.56-.5h1.9q.5 0 .61-.49.81-3.91 3.33-7 .34-.43.34-.97v-3.57q0-.49.37-.8.97-.84.7-2.23-.09-.46-.56-.44h-.25q-.09 0-.1-.08-.33-2.03 1.02-3.48.38-.42.4-.99l.24-7.13q.01-.33-.31-.32h-.28q-.26 0-.23-.25l.45-4.24q.08-.82.88-.58 2.05.62 2.77-1.25.91-2.33.62.09-.15 1.25.99 1.31 1.17.06.74.51-.71.72.12 1.21.68.4.68-.39v-.78q0-.63.63-.63h.87q.56 0 .88-.46 1.81-2.61 1.26-6.55-.11-.77.73-1.35.59-.41-.13-.38c-1.08.06-.81-2.68.44-3.26q.37-.17.49.22l.25.81q.22.7.78.22c2.62-2.25.52-5.68 2.82-8.49q.3-.35.17-.8l-1.02-3.5q-.12-.39-.4-.1l-.27.27q-.52.51-.64-.2l-.73-4.15q-.09-.56.36-.89c4.07-2.94-2.03-10.61 3.26-14.85Z" fill="#02b2ec"/><path d="m597.5 474.79 8.44.05q.57 0 .58.57l.23 18.88.26 26.76-.3 1.45.08 14.5-.25 1.5.21 11.46-8.91.27-.34-75.44Z" fill="#06548d"/><path d="m633.61 475.2-.6 2.4q-.14.57.22 1.03l5.46 6.99q.31.4.31.9v.73q0 .46.31.8l3.83 4.18q.34.37-.14.54-22.65 8.07-35.99 28.28l-.26-26.76q9.07-15.68 26.86-19.09Z" fill="#7d5cb2"/><path d="M337.5 485.71q19.87.48 39.75.07 2.26-.05 4.46.47 5.53 2.13 5.54 8 .01 39.97-.01 79.94-.01 4.95-5.79 7.51l-43.91.3-4.79-.29c2-.49 2.83-1.48 2.75-3.61-.22-5.54.93-9.86.26-14.06q-.08-.52.16-.98.94-1.79-.48-3.22-.26-.27-.64-.32-.83-.11-1.55-.73 16.14-.02 23.15-11.86c13.2-22.28-10.41-46.85-33.15-35.22q-.15-1.85 1-3.21.28-.34.4-.76.22-.82-.4-1.02-.59-.18-.1-.57l3.29-2.56q.38-.3.51-.78c.54-2.14 4.56-4.63 1.5-6.36q-.42-.24-.46-.73l-.26-3.16q-.01-.14.12-.1.18.04.36.12.53.23.54-.35v-.26q0-.13-.12-.17-1.94-.66-2.4-2.65-.11-.47-.37-.87-.35-.51-.53-1.15-.11-.4.28-.54l1.89-.63 9-.25Z" fill="#e6f6f8"/><path d="M392.04 529.5q-.06 19.32-.05 38.65c.01 8.01-1.52 13.6-10.54 13.55q5.78-2.56 5.79-7.51.02-39.97.01-79.94-.01-5.87-5.54-8c8.59-.62 10.22 4.92 10.24 12.41q.05 15.42.09 30.84Z" fill="#52caeb"/><path d="M664.06 502.46c-4.43 5.2-7.9 10.81-12.36 15.86q-.31.35-.77.42-.77.11-1.19.88-.26.49-.71.8-4.62 3.2-10.21 4.54a1.6 1.6 0 0 0-.34 2.99q9.76 4.83 15.7 13.99 1.77 2.72-1.46 2.37-3.93-.42-9.22.48-3.17.25-6.43 1.73c-3.39 1.85-5.86 3.51-9.95 3.65q-10.19.36-20.37-.21l-.21-11.46c2.72-.59 5.67-1.78 7.96-2.29q13.46-2.94 26.12 2.88.77.36 1.22.12a.65.65 0 0 0-.03-1.16q-17.35-8.14-35.02-1.05l-.08-14.5.08.62q.17 1.26.85.18c10.07-16.03 23.71-27.01 42.85-31.32q2.45-.55 3.53.45.36.32.42.25l.11-.11q.07-.08.29.3 3.42 5.9 9.22 9.59Z" fill="#7d5cb2"/><path d="M333.25 558.79c-25.32-2.95-31.56-33.64-10-47.08 22.74-11.63 46.35 12.94 33.15 35.22q-7.01 11.84-23.15 11.86Zm25.17-25.01a23.35 23.35 0 0 0-23.35-23.35 23.35 23.35 0 0 0-23.35 23.35 23.35 23.35 0 0 0 23.35 23.35 23.35 23.35 0 0 0 23.35-23.35Z" fill="#0673c4"/><path d="m282.98 509.53-.02 9.22-107.21-.46-4.75-.08q-.73-.28-1.54-.21-.36.04-.21-.29 1.42-3.19-.54-5.99-.25-.35-.06-.74l.24-.51q.24-.5-.32-.51l-8.82-.17 18.73-.04 51.02-.04 53.48-.18Z" fill="#01619e"/><path d="M358.42 533.78a23.35 23.35 0 0 1-23.35 23.35 23.35 23.35 0 0 1-23.35-23.35 23.35 23.35 0 0 1 23.35-23.35 23.35 23.35 0 0 1 23.35 23.35ZM332.96 527a1.61 1.61 0 0 0-2.47 1.36l-.06 11.97a1.61 1.61 0 0 0 2.45 1.38l9.68-5.93a1.61 1.61 0 0 0 .01-2.74l-9.61-6.04Z" fill="#e6f6f8"/><path d="m171 518.21 4.75.08 8.62.67a.41.41 0 0 1 .07.81l-2.62.71q-.36.09-.2.43l1.04 2.17q.56 1.15-.59.58l-.9-.44q-.34-.17-.68.01-1.22.63-.33 1.8l-7.85-.01a1.65 1.64-89.3 0 0-1.65 1.62q-.45 28.02.11 55.95c.08 4.24 6.5 2.84 9.23 2.7q.12 1.13-1.95 1.58-7.58 1.63-.15.87.15-.02.5.1.55.19.57.77l.1 2.79q.01.36-.35.41l-2.97.4-5.75.08q-26-.07-52-.09c-2.58 0-3.5-1.36-3.5-3.86q-.01-33.06.01-66.1c0-4.49 2.77-3.94 6.55-3.94q24.98-.03 49.94-.09Zm-37.25 9.54a2.49 2.49 0 0 0-2.49-2.49h-6.52a2.49 2.49 0 0 0-2.49 2.49v55.28a2.49 2.49 0 0 0 2.49 2.49h6.52a2.49 2.49 0 0 0 2.49-2.49v-55.28Zm16-.17a2.32 2.32 0 0 0-2.32-2.32h-6.6a2.32 2.32 0 0 0-2.32 2.32v55.62a2.32 2.32 0 0 0 2.32 2.32h6.6a2.32 2.32 0 0 0 2.32-2.32v-55.62Zm16.48.24a2.56 2.56 0 0 0-2.56-2.56h-6.36a2.56 2.56 0 0 0-2.56 2.56v55.14a2.56 2.56 0 0 0 2.56 2.56h6.36a2.56 2.56 0 0 0 2.56-2.56v-55.14Z" fill="#02b2ec"/><path d="m175.75 518.29 107.21.46q.07 26.48.04 52.97c0 7.06 3.49 10.99 11 10.07-.03 2.56 1.2 10.44-2.75 10.44q-57.75.06-115.5-.02l2.97-.4q.36-.05.35-.41l-.1-2.79q-.02-.58-.57-.77-.35-.12-.5-.1-7.43.76.15-.87 2.07-.45 1.95-1.58 1.98-.52 1.98-2.11.04-27.84.01-55.68 0-1.48-1.83-2.47-.89-1.17.33-1.8.34-.18.68-.01l.9.44q1.15.57.59-.58l-1.04-2.17q-.16-.34.2-.43l2.62-.71a.41.41 0 0 0-.07-.81l-8.62-.67Zm63.75 37.13a5.6 5.6 0 0 0-5.6-5.6 5.6 5.6 0 0 0-5.6 5.6 5.6 5.6 0 0 0 5.6 5.6 5.6 5.6 0 0 0 5.6-5.6Zm19.05.01a5.6 5.6 0 0 0-5.6-5.6 5.6 5.6 0 0 0-5.6 5.6 5.6 5.6 0 0 0 5.6 5.6 5.6 5.6 0 0 0 5.6-5.6Zm19.26.01a5.58 5.58 0 0 0-5.58-5.58 5.58 5.58 0 0 0-5.58 5.58 5.58 5.58 0 0 0 5.58 5.58 5.58 5.58 0 0 0 5.58-5.58Z" fill="#0894db"/><path d="M180.16 525.03q1.83.99 1.83 2.47.03 27.84-.01 55.68 0 1.59-1.98 2.11c-2.73.14-9.15 1.54-9.23-2.7q-.56-27.93-.11-55.95a1.65 1.64-89.3 0 1 1.65-1.62l7.85.01Z" fill="#eff4f6"/><rect fill="#eff4f6" width="11.5" height="60.26" x="122.25" y="525.26" rx="2.49"/><rect fill="#eff4f6" width="11.24" height="60.26" x="138.51" y="525.26" rx="2.32"/><rect fill="#eff4f6" width="11.48" height="60.26" x="154.75" y="525.26" rx="2.56"/><path d="m332.96 527 9.61 6.04a1.61 1.61 0 0 1-.01 2.74l-9.68 5.93a1.61 1.61 0 0 1-2.45-1.38l.06-11.97a1.61 1.61 0 0 1 2.47-1.36Z" fill="#0673c4"/><path d="m606.54 538.5.25-1.5q17.67-7.09 35.02 1.05a.65.65 0 0 1 .03 1.16q-.45.24-1.22-.12-12.66-5.82-26.12-2.88c-2.29.51-5.24 1.7-7.96 2.29Z" fill="#bf65c8"/><path d="M643.5 544.79q-2.66.71-1.89 3.25.15.5.65.64c6.57 1.89 12.19 3.1 12.22 10.22.06 18.94-.49 37.76-.74 56.69-.06 4.93.83 12.39-.01 17.68q-.67 4.2-5.72 6.28 3.14-4.69 3.27-6.79.31-5.28-.27-17.51c-.86-17.92-.59-35.9-.34-53.84.09-6.49-1.06-10.99-8.45-10.89q-.22 0-.22-.22 0-.19.01-.38.03-.56-.5-.41-4.73 1.36-4.44-2.99 3.26-1.48 6.43-1.73Z" fill="#52caeb"/><path d="m77.5 546.54-11.06.18q-1.32.02-.23.14.43.05.57.19.47.48-.32.46-7.16-.18-14.21.95c8.07-2.81 16.84-2.71 25.25-1.92Z" fill="#e6f6f8"/><path d="M77.5 546.54q11.77 1.2 21.77 7.41c.75.46 1.31.32 2.16.26l-.17 30.96q-9-9.93-20.89-16.14-.5-.26-.84.18c-2.87 3.74-10.89 8.59-15.33 10.16q-3.33 1.18-5.38 4.32c-3.65-4.24-5.85-8.43-11.03-12.29-5.29-3.94-11.94-7.27-17.98-10.31a1.1 1.09 42.7 0 1-.08-1.91q10.82-6.65 22.52-10.72 7.05-1.13 14.21-.95.79.02.32-.46-.14-.14-.57-.19-1.09-.12.23-.14l11.06-.18Z" fill="#bf65c8"/><path d="M637.07 546.52q-.29 4.35 4.44 2.99.53-.15.5.41-.01.19-.01.38 0 .22.22.22c7.39-.1 8.54 4.4 8.45 10.89-.25 17.94-.52 35.92.34 53.84q.58 12.23.27 17.51-.13 2.1-3.27 6.79-20.44.73-41.02.2-25.75.41-51.51.26c-10.72-.06-9.49-8.28-9.51-16.07l.07-8.7q-.12-36.37 0-56.49c.03-5.52 3.32-8.51 8.77-8.5q21.97.02 43.03-.02l8.91-.27q10.18.57 20.37.21c4.09-.14 6.56-1.8 9.95-3.65Zm-18.25 33.83a5.41 5.41 0 0 0-5.41-5.41 5.41 5.41 0 0 0-5.41 5.41 5.41 5.41 0 0 0 5.41 5.41 5.41 5.41 0 0 0 5.41-5.41Zm-24.57 34.36 28.91.55a1.27 1.27 0 0 0 1.09-1.96l-10.76-16.56a1.44 1.44 0 0 0-2.37-.07l-3.92 5.29a1.17 1.16 43.1 0 1-1.82.06l-9.84-11.52-1.65-2.21a1.53 1.52-43.4 0 0-2.39-.06l-20.19 24.09a1.29 1.29 0 0 0 .97 2.12l21.97.27Z" fill="#e6f6f8"/><circle fill="#eff4f6" cx="233.9" cy="555.42" r="5.6"/><circle fill="#eff4f6" cx="252.95" cy="555.43" r="5.6"/><circle fill="#eff4f6" cx="272.23" cy="555.44" r="5.58"/><path d="M101.26 585.17q.67 10.74-.1 22.15-13.87-1.79-26.1 3.67-.82.36-1.01.99-.21.73.48.41 12.91-5.97 26.93-3.64c.08 2.95.56 17-1.21 16.79-8.79.68-12.34-2.41-19.89-5.62-5.76-2.45-11.95-2.69-18.24-3.17a.82.82 0 0 1-.64-1.24q6.39-10.58 17.81-15.45a.59.59 0 0 0 0-1.09c-8.52-3.61-14.85-6.77-20.47-15.28q2.05-3.14 5.38-4.32c4.44-1.57 12.46-6.42 15.33-10.16q.34-.44.84-.18 11.89 6.21 20.89 16.14Z" fill="#915fb9"/><circle fill="#0673c4" cx="613.41" cy="580.35" r="5.41"/><path d="m294 581.79 12.41-.1q.61 0 .61.6l.44 78.96q-1.12.64-.67 2-.25 8.72-.35 17.43c-.05 4.15-5.31 6.95-8.76 7.44q-.6.09-8-.06c-59.68-1.24-111.97-.49-167.93-.35l1.43-.28q.94-.18.09-.62l-.36-.2q-.27-.14.02-.19l1.99-.37q.5-.1.9-.43.91-.76 1.95-.11.32.21.67.04 1.14-.55 2.36-.79.36-.06.01-.17-.19-.05-.36-.1-.11-.04-.03-.12c.72-.79 32.6-.4 36.43-.41 1.53-.01 2.65-.88 4.35-.67 2.62.31 8.04-.12 10.34-1.36q.67-.37-.03-.68-.84-.37-.56-1.19.15-.45-.11-.84l-.95-1.46q-.33-.51-.93-.51h-4.2q-.62 0-.94-.52l-.55-.87q-.25-.39-.72-.38-2.55.1-5.08.03-1.95-.05-.01-.22l6.04-.5 4-.08h50.25l65.07-.32q.6 0 .75-.58.41-1.6.41-3.57.04-33.02.01-66.06c0-2.1-.52-3.35-2.8-3.36q-31.72-.13-63.44-.03l-52.75-.08-1.54-.22q-.68-.1-.04-.33l1.07-.39q.58-.2.31-.75-1.09-2.29-.25-4.84a.91.91 0 0 0-.91-1.19q-2.68.14-5.38-.26-.76-.11 0-.21l1.74-.23 5.75-.08q57.75.08 115.5.02c3.95 0 2.72-7.88 2.75-10.44Z" fill="#06548d"/><path d="m332.75 581.71 4.79.29q-.07 15-.04 30c.01 2.01 2.48 3.24 4.47 3.24q34.64.05 69.28-.03h32l31.23.05 34.77-.05 36.79.03-.07 8.7-112.47.1-105.22-.14v-41.6q0-.54.54-.55l3.93-.04Z" fill="#01619e"/><path d="M595.54 590.5q-1.04.57-1.1 2.69-.34 10.75-.19 21.52l-21.97-.27a1.29 1.29 0 0 1-.97-2.12l20.19-24.09a1.53 1.52-43.4 0 1 2.39.06l1.65 2.21Z" fill="#0673c4"/><path d="m595.54 590.5 9.84 11.52a1.17 1.16 43.1 0 0 1.82-.06l3.92-5.29a1.44 1.44 0 0 1 2.37.07l10.76 16.56a1.27 1.27 0 0 1-1.09 1.96l-28.91-.55q-.15-10.77.19-21.52.06-2.12 1.1-2.69Z" fill="#01619e"/><path d="m173.25 600.79 5.01.34q1.45.09.28.59-.16.07-.36.06-.54-.05-.54.49l.01 4.17q0 .38.35.52l.71.29-6.61.27q-.59.03-.84.56-.71 1.51-.72 3.92-.14 37.77-.01 52.19.01.87.7 3.04-.35.18-.07.91.19.5.7.64 1.68.45 1.78 2.3.03.43.45.44l2.03.08q.98.04.62.96l-.65 1.68q-.09.21.14.24l1.27.23-4 .08q-26.61-.06-53.2-.05c-3.73 0-5.81.1-5.81-4.43q.01-32.67.01-65.3 0-4.17 3.75-4.18 27.5-.12 55-.04Zm-39.51 9.61a2.68 2.68 0 0 0-2.68-2.68h-6.12a2.68 2.68 0 0 0-2.68 2.68v55.06a2.68 2.68 0 0 0 2.68 2.68h6.12a2.68 2.68 0 0 0 2.68-2.68V610.4Zm16.01-.26a2.42 2.42 0 0 0-2.42-2.42h-6.4a2.42 2.42 0 0 0-2.42 2.42v55.58a2.42 2.42 0 0 0 2.42 2.42h6.4a2.42 2.42 0 0 0 2.42-2.42v-55.58Zm16.48.21a2.62 2.62 0 0 0-2.62-2.62h-6.24a2.62 2.62 0 0 0-2.62 2.62v55.16a2.62 2.62 0 0 0 2.62 2.62h6.24a2.62 2.62 0 0 0 2.62-2.62v-55.16Z" fill="#02b2ec"/><path d="m173.25 600.79 1.75-.08 52.75.08q2.3 1.37 1.31 3.34-.21.41-.27-.05l-.05-.32q-.07-.49-.22-.02-.88 2.66.58 5.18.25.44.25.93l.11 16.34q0 .62.31 1.17 1.53 2.74-1.36 4.6-.41.26-.41.75v1.05q0 .54.41.19.65-.54 1.34.09-4.29 7.58 4.27 9.55c-2.31 1.19-.7 2.93-2.02 4.75q-.27.36-.1.77 1.22 2.94.64 6.18-.08.46.1.89c.9 2.11 2.15 7.47-.15 9.05q-.42.29-.59.77-.98 2.63-.87 5.54.02.45-.16.86-.89 2.05-3.12 2.31H177.5l-1.27-.23q-.23-.03-.14-.24l.65-1.68q.36-.92-.62-.96l-2.03-.08q-.42-.01-.45-.44-.1-1.85-1.78-2.3-.51-.14-.7-.64-.28-.73.07-.91 4.6.93 9.28.4a1.68 1.67 86.7 0 0 1.48-1.67q.02-28.01.01-55.97 0-2.74-3.29-2.74l-.71-.29q-.35-.14-.35-.52l-.01-4.17q0-.54.54-.49.2.01.36-.06 1.17-.5-.28-.59l-5.01-.34Z" fill="#069ce0"/><path d="M227.75 600.79q31.72-.1 63.44.03c2.28.01 2.8 1.26 2.8 3.36q.03 33.04-.01 66.06 0 1.97-.41 3.57-.15.58-.75.58l-65.07.32q2.23-.26 3.12-2.31.18-.41.16-.86-.11-2.91.87-5.54.17-.48.59-.77c2.3-1.58 1.05-6.94.15-9.05q-.18-.43-.1-.89.58-3.24-.64-6.18-.17-.41.1-.77c1.32-1.82-.29-3.56 2.02-4.75 11.09-1.76 3.07-16.78-4.27-9.55q-.69-.63-1.34-.09-.41.35-.41-.19v-1.05q0-.49.41-.75 2.89-1.86 1.36-4.6-.31-.55-.31-1.17l-.11-16.34q0-.49-.25-.93-1.46-2.52-.58-5.18.15-.47.22.02l.05.32q.06.46.27.05.99-1.97-1.31-3.34Zm30.78 37.06a5.6 5.6 0 0 0-5.6-5.6 5.6 5.6 0 0 0-5.6 5.6 5.6 5.6 0 0 0 5.6 5.6 5.6 5.6 0 0 0 5.6-5.6Zm19.29 0a5.59 5.59 0 0 0-5.59-5.59 5.59 5.59 0 0 0-5.59 5.59 5.59 5.59 0 0 0 5.59 5.59 5.59 5.59 0 0 0 5.59-5.59Z" fill="#0b8ad5"/><path d="M101.16 607.32q.49.3.3 1.43-14.02-2.33-26.93 3.64-.69.32-.48-.41.19-.63 1.01-.99 12.23-5.46 26.1-3.67Z" fill="#bf65c8"/><path d="M178.71 607.25q3.29 0 3.29 2.74.01 27.96-.01 55.97a1.68 1.67 86.7 0 1-1.48 1.67q-4.68.53-9.28-.4-.69-2.17-.7-3.04-.13-14.42.01-52.19.01-2.41.72-3.92.25-.53.84-.56l6.61-.27Z" fill="#eff4f6"/><rect fill="#eff4f6" width="11.48" height="60.42" x="122.26" y="607.72" rx="2.68"/><rect fill="#eff4f6" width="11.24" height="60.42" x="138.51" y="607.72" rx="2.42"/><rect fill="#eff4f6" width="11.48" height="60.4" x="154.75" y="607.73" rx="2.62"/><path d="m328.28 623.9 105.22.14-4.22 1.36q-.95.3-.01.65 1.62.59 1.06 2.12-.18.49-.18 1.03l-.02 20.73q0 .52-.49.68-1.34.44-1.29 1.7.01.39-.38.42l-3.44.2q-1.95.11-.01.27l5.98.51q-46.62-.16-93.26-.17c-7.47 0-8.95-5.8-8.98-12.38q-.04-8.73.02-17.26Z" fill="#02b2ec"/><path d="M545.97 623.94c.02 7.79-1.21 16.01 9.51 16.07q25.76.15 51.51-.26c-1.14 8.16-1.07 13.54-11.2 13.94q-17.39.68-34.78-.08-.59-.03-1.97.89c-.88-1.74-21.83-.72-22.37-.72q-20.46-.01-40.92-.17-24.74-.12-49.49-.38c-2.48-.03-5.28.32-7.76.56l-8-.08-5.98-.51q-1.94-.16.01-.27l3.44-.2q.39-.03.38-.42-.05-1.26 1.29-1.7.49-.16.49-.68l.02-20.73q0-.54.18-1.03.56-1.53-1.06-2.12-.94-.35.01-.65l4.22-1.36 112.47-.1Z" fill="#0894db"/><path d="M234.02 643.59q-8.56-1.97-4.27-9.55c7.34-7.23 15.36 7.79 4.27 9.55Z" fill="#eff4f6"/><circle fill="#eff4f6" cx="252.93" cy="637.85" r="5.6"/><circle fill="#eff4f6" cx="272.23" cy="637.85" r="5.59"/><path d="M495.75 653.61c0 11.94-2.51 24.24 10.31 31.07q.44.23.52.73.21 1.25 1.13 1.51-1.47 1.33-3.22 1.34-36.99.09-73.99-.65-2.54-.05-4.25-2.07c14.7-6.37 11.56-18.85 12.25-31.75 2.48-.24 5.28-.59 7.76-.56q24.75.26 49.49.38Z" fill="#01619e"/><path d="M559.04 654.5q-.67 4.91-1.76 6.94-12.43 23.17-38.44 24.08c-4.13.14-7.47.65-11.13 1.4q-.92-.26-1.13-1.51-.08-.5-.52-.73c-12.82-6.83-10.31-19.13-10.31-31.07q20.46.16 40.92.17c.54 0 21.49-1.02 22.37.72Z" fill="#f0f6ff"/><path d="m307.46 661.25.29 2.21-.96-.21q-.45-1.36.67-2Z" fill="#aeb2b9" fill-opacity=".725"/></svg>