<?xml version="1.0" encoding="UTF-8"?>
<!DOCTYPE svg PUBLIC "-//W3C//DTD SVG 1.1//EN" "http://www.w3.org/Graphics/SVG/1.1/DTD/svg11.dtd">
<svg xmlns="http://www.w3.org/2000/svg" version="1.1" width="776px" height="919px" style="shape-rendering:geometricPrecision; text-rendering:geometricPrecision; image-rendering:optimizeQuality; fill-rule:evenodd; clip-rule:evenodd" xmlns:xlink="http://www.w3.org/1999/xlink">
<g><path style="opacity:0.997" fill="#343345" d="M 342.5,278.5 C 342.586,277.504 342.252,276.671 341.5,276C 344.887,273.998 346.387,271.165 346,267.5C 345.261,266.426 344.261,265.759 343,265.5C 341.333,266.5 339.667,267.5 338,268.5C 337.5,268.167 337,267.833 336.5,267.5C 335.732,263.555 335.232,259.555 335,255.5C 334.261,251.938 332.761,248.772 330.5,246C 324.597,245.53 318.763,244.696 313,243.5C 305.602,245.223 298.102,246.39 290.5,247C 288.667,247.5 287.5,248.667 287,250.5C 286.722,249.584 286.222,248.918 285.5,248.5C 282.511,236.29 285.511,225.79 294.5,217C 297.329,215.491 300.162,215.325 303,216.5C 315.478,207.689 326.812,209.022 337,220.5C 338.707,222.909 339.54,225.575 339.5,228.5C 353.455,229.125 360.122,236.458 359.5,250.5C 359.153,260.879 355.486,269.879 348.5,277.5C 346.604,278.466 344.604,278.799 342.5,278.5 Z"/></g>
<g><path style="opacity:0.975" fill="#fdb5b5" d="M 342.5,278.5 C 334.309,286.89 324.309,290.056 312.5,288C 301.043,285.877 293.209,279.377 289,268.5C 287.215,261.937 286.049,255.27 285.5,248.5C 286.222,248.918 286.722,249.584 287,250.5C 287.5,248.667 288.667,247.5 290.5,247C 298.102,246.39 305.602,245.223 313,243.5C 318.763,244.696 324.597,245.53 330.5,246C 332.761,248.772 334.261,251.938 335,255.5C 335.232,259.555 335.732,263.555 336.5,267.5C 337,267.833 337.5,268.167 338,268.5C 339.667,267.5 341.333,266.5 343,265.5C 344.261,265.759 345.261,266.426 346,267.5C 346.387,271.165 344.887,273.998 341.5,276C 342.252,276.671 342.586,277.504 342.5,278.5 Z"/></g>
<g><path style="opacity:0.961" fill="#59576d" d="M 528.5,274.5 C 527.167,274.5 525.833,274.5 524.5,274.5C 524.5,273.5 524.5,272.5 524.5,271.5C 524.5,271.167 524.5,270.833 524.5,270.5C 524.975,267.918 524.308,265.918 522.5,264.5C 521.755,256.85 518.755,250.35 513.5,245C 512.833,244.333 512.167,244.333 511.5,245C 507.414,251.568 501.747,253.235 494.5,250C 490.073,247.315 488.24,243.482 489,238.5C 490.214,236.951 491.714,235.785 493.5,235C 498.989,234.068 504.323,234.568 509.5,236.5C 513.187,202.304 507.854,169.637 493.5,138.5C 489.739,133.304 486.239,127.971 483,122.5C 470.421,107.292 454.921,96.1256 436.5,89C 427.206,86.3328 417.873,85.6662 408.5,87C 413.997,91.1596 416.33,96.6596 415.5,103.5C 413.588,105.956 411.755,108.622 410,111.5C 410.611,108.967 411.111,106.3 411.5,103.5C 411.407,96.7435 408.407,91.7435 402.5,88.5C 398.918,89.9322 396.251,92.2655 394.5,95.5C 393.503,95.5299 392.836,95.0299 392.5,94C 393.961,91.7017 395.628,89.5351 397.5,87.5C 397.043,86.7025 396.376,86.3691 395.5,86.5C 388.292,86.9582 381.625,89.1249 375.5,93C 337.12,123.715 298.454,154.048 259.5,184C 250.995,192.59 240.662,198.09 228.5,200.5C 203.775,245.837 165.442,269.504 113.5,271.5C 101.503,270.71 89.5034,270.543 77.5,271C 63.2453,271.604 53.412,278.437 48,291.5C 45.8833,300.327 48.3833,307.327 55.5,312.5C 54.1938,312.879 52.8605,313.212 51.5,313.5C 54.0216,314.303 56.0216,315.636 57.5,317.5C 47.0699,314.811 42.0699,307.978 42.5,297C 42.4947,292.187 43.6614,287.687 46,283.5C 56.3101,270.524 69.9768,264.524 87,265.5C 147.252,273.452 192.752,251.618 223.5,200C 216.573,198.788 210.74,195.621 206,190.5C 201.782,181.767 202.949,173.934 209.5,167C 206.404,150.255 203.57,133.422 201,116.5C 200.211,112.909 200.378,109.409 201.5,106C 219.254,101.596 237.254,98.9296 255.5,98C 256.126,98.7504 256.626,99.5838 257,100.5C 261.1,122.096 264.433,143.762 267,165.5C 266.348,167.723 264.848,168.89 262.5,169C 252.168,170.666 241.835,172.333 231.5,174C 232.349,180.849 232.682,187.682 232.5,194.5C 243.318,190.93 252.651,185.097 260.5,177C 296.01,150.066 331.01,122.399 365.5,94C 371.718,89.0555 378.718,85.3888 386.5,83C 399.772,82.4824 413.105,82.149 426.5,82C 450.661,87.1703 470.494,99.3369 486,118.5C 504.204,144.11 513.871,172.776 515,204.5C 515.789,215.527 515.623,226.527 514.5,237.5C 517.436,242.279 520.603,246.946 524,251.5C 527.222,258.835 528.722,266.501 528.5,274.5 Z M 498.5,238.5 C 501.189,239.038 503.856,239.705 506.5,240.5C 507.725,242.843 507.059,244.677 504.5,246C 497.925,248.276 494.258,246.109 493.5,239.5C 495.415,239.784 497.081,239.451 498.5,238.5 Z M 209.5,173.5 C 211.045,175.372 213.045,176.372 215.5,176.5C 219.216,176.017 222.882,175.351 226.5,174.5C 229.193,181.132 228.86,187.632 225.5,194C 211.722,193.724 206.388,186.891 209.5,173.5 Z M 411.5,103.5 C 410.625,105.568 409.459,107.568 408,109.5C 404.826,103.815 400.326,102.149 394.5,104.5C 393.319,101.638 393.319,98.6377 394.5,95.5C 396.251,92.2655 398.918,89.9322 402.5,88.5C 408.407,91.7435 411.407,96.7435 411.5,103.5 Z"/></g>
<g><path style="opacity:1" fill="#5b5876" d="M 394.5,104.5 C 400.326,102.149 404.826,103.815 408,109.5C 409.459,107.568 410.625,105.568 411.5,103.5C 411.111,106.3 410.611,108.967 410,111.5C 411.755,108.622 413.588,105.956 415.5,103.5C 415.049,108.124 413.049,111.957 409.5,115C 417.41,134.166 425.077,153.499 432.5,173C 432.066,175.316 431.066,177.316 429.5,179C 420.05,184.128 410.217,188.294 400,191.5C 396.85,191.022 394.516,189.355 393,186.5C 384.774,165.307 376.274,144.307 367.5,123.5C 368.283,121.657 368.95,119.657 369.5,117.5C 369.957,116.702 370.624,116.369 371.5,116.5C 370.091,118.305 369.591,120.305 370,122.5C 378.565,144.791 388.065,166.625 398.5,188C 399.833,188.667 401.167,188.667 402.5,188C 412.055,184.597 421.222,180.43 430,175.5C 430.667,174.167 430.667,172.833 430,171.5C 421.292,149.631 412.292,127.964 403,106.5C 400.599,105.398 398.099,105.231 395.5,106C 394.897,107.825 394.23,109.659 393.5,111.5C 389.191,113.488 384.857,115.321 380.5,117C 378.064,117.124 375.731,116.624 373.5,115.5C 375.046,114.14 376.88,113.14 379,112.5C 380.301,113.893 381.801,114.393 383.5,114C 385.345,112.577 387.345,111.41 389.5,110.5C 386.869,108.995 387.203,108.329 390.5,108.5C 390.335,104.818 390.501,101.152 391,97.5C 391.771,100.19 392.604,102.856 393.5,105.5C 394.107,105.376 394.44,105.043 394.5,104.5 Z"/></g>
<g><path style="opacity:1" fill="#9594a2" d="M 253.5,165.5 C 244.268,169.023 234.602,170.19 224.5,169C 223.584,168.722 222.918,168.222 222.5,167.5C 232.929,168.709 243.262,168.042 253.5,165.5 Z"/></g>
<g><path style="opacity:0.655" fill="#6c697e" d="M 395.5,86.5 C 396.376,86.3691 397.043,86.7025 397.5,87.5C 395.628,89.5351 393.961,91.7017 392.5,94C 392.836,95.0299 393.503,95.5299 394.5,95.5C 393.319,98.6377 393.319,101.638 394.5,104.5C 394.44,105.043 394.107,105.376 393.5,105.5C 392.604,102.856 391.771,100.19 391,97.5C 390.501,101.152 390.335,104.818 390.5,108.5C 387.203,108.329 386.869,108.995 389.5,110.5C 387.345,111.41 385.345,112.577 383.5,114C 381.801,114.393 380.301,113.893 379,112.5C 376.88,113.14 375.046,114.14 373.5,115.5C 372.833,115.833 372.167,116.167 371.5,116.5C 370.624,116.369 369.957,116.702 369.5,117.5C 368.95,119.657 368.283,121.657 367.5,123.5C 365.932,119.744 366.932,116.577 370.5,114C 376.432,111.691 382.266,109.191 388,106.5C 387.658,98.6849 390.158,92.0182 395.5,86.5 Z"/></g>
<g><path style="opacity:1" fill="#6b62fb" d="M 371.5,116.5 C 372.167,116.167 372.833,115.833 373.5,115.5C 375.731,116.624 378.064,117.124 380.5,117C 384.857,115.321 389.191,113.488 393.5,111.5C 394.23,109.659 394.897,107.825 395.5,106C 398.099,105.231 400.599,105.398 403,106.5C 412.292,127.964 421.292,149.631 430,171.5C 430.667,172.833 430.667,174.167 430,175.5C 421.222,180.43 412.055,184.597 402.5,188C 401.167,188.667 399.833,188.667 398.5,188C 388.065,166.625 378.565,144.791 370,122.5C 369.591,120.305 370.091,118.305 371.5,116.5 Z"/></g>
<g><path style="opacity:1" fill="#b2b1bc" d="M 245.5,102.5 C 232.71,105.355 219.71,107.689 206.5,109.5C 206.611,108.883 206.944,108.383 207.5,108C 220.135,105.838 232.802,104.005 245.5,102.5 Z"/></g>
<g><path style="opacity:1" fill="#f8f8fc" d="M 253.5,165.5 C 243.262,168.042 232.929,168.709 222.5,167.5C 217.123,164.777 213.623,160.444 212,154.5C 210.146,140.706 207.646,127.039 204.5,113.5C 204.34,111.645 205.007,110.312 206.5,109.5C 219.71,107.689 232.71,105.355 245.5,102.5C 248.452,100.977 250.952,101.644 253,104.5C 256.261,123 259.428,141.5 262.5,160C 261.189,164.333 258.189,166.166 253.5,165.5 Z"/></g>
<g><path style="opacity:1" fill="#b5afff" d="M 240.5,141.5 C 238.095,142.768 235.428,143.435 232.5,143.5C 234.838,141.96 237.505,141.294 240.5,141.5 Z"/></g>
<g><path style="opacity:1" fill="#7168ff" d="M 232.5,143.5 C 235.428,143.435 238.095,142.768 240.5,141.5C 244.163,140.888 247.83,140.721 251.5,141C 254.25,144.012 253.917,146.679 250.5,149C 240.162,150.669 229.829,152.003 219.5,153C 216.833,150.667 216.833,148.333 219.5,146C 223.754,144.686 228.087,143.853 232.5,143.5 Z"/></g>
<g><path style="opacity:1" fill="#c1bbff" d="M 232.5,138.5 C 227.566,140.383 222.566,140.716 217.5,139.5C 222.493,139.084 227.493,138.751 232.5,138.5 Z"/></g>
<g><path style="opacity:1" fill="#b9b3ff" d="M 250.5,134.5 C 250.389,135.117 250.056,135.617 249.5,136C 246.173,136.61 242.839,137.11 239.5,137.5C 242.87,135.861 246.537,134.861 250.5,134.5 Z"/></g>
<g><path style="opacity:1" fill="#8e85ff" d="M 240.5,128.5 C 232.672,130.453 224.672,132.119 216.5,133.5C 217.681,131.933 219.347,131.099 221.5,131C 227.765,129.58 234.098,128.746 240.5,128.5 Z"/></g>
<g><path style="opacity:1" fill="#7067ff" d="M 250.5,134.5 C 246.537,134.861 242.87,135.861 239.5,137.5C 237.05,137.298 234.717,137.631 232.5,138.5C 227.493,138.751 222.493,139.084 217.5,139.5C 215.539,137.68 215.206,135.68 216.5,133.5C 224.672,132.119 232.672,130.453 240.5,128.5C 243.304,127.362 246.304,127.195 249.5,128C 251.684,129.898 252.017,132.064 250.5,134.5 Z"/></g>
<g><path style="opacity:1" fill="#7268ff" d="M 237.5,114.5 C 240.85,114.335 244.183,114.502 247.5,115C 250.371,117.84 250.037,120.174 246.5,122C 237.352,123.63 228.186,125.13 219,126.5C 214.063,127.23 212.396,125.23 214,120.5C 214.5,120 215,119.5 215.5,119C 222.94,117.376 230.273,115.876 237.5,114.5 Z"/></g>
<g><path style="opacity:0.11" fill="#c4c4cd" d="M 522.5,264.5 C 524.308,265.918 524.975,267.918 524.5,270.5C 522.692,269.082 522.025,267.082 522.5,264.5 Z"/></g>
<g><path style="opacity:0.027" fill="#e1e1e9" d="M 524.5,271.5 C 524.5,272.5 524.5,273.5 524.5,274.5C 524.158,275.338 523.492,275.672 522.5,275.5C 522.229,273.62 522.896,272.287 524.5,271.5 Z"/></g>
<g><path style="opacity:0.998" fill="#6e65ff" d="M 630.5,277.5 C 631.514,278.765 633.014,279.431 635,279.5C 640.81,280.267 646.643,280.601 652.5,280.5C 673.221,281.897 693.221,286.397 712.5,294C 726.205,301.913 732.705,313.746 732,329.5C 729.566,338.761 724.066,345.428 715.5,349.5C 712.895,349.621 710.895,350.621 709.5,352.5C 701.38,355.863 692.88,357.197 684,356.5C 671.108,356.035 658.275,354.868 645.5,353C 634.167,352.333 622.833,352.333 611.5,353C 593.449,354.432 575.449,356.265 557.5,358.5C 554.017,359.01 550.684,359.677 547.5,360.5C 543.532,361.394 539.532,362.227 535.5,363C 533.371,365.439 531.371,367.939 529.5,370.5C 522.567,368.752 515.9,369.419 509.5,372.5C 507.42,368.914 504.754,365.747 501.5,363C 493.754,358.421 486.421,353.254 479.5,347.5C 478.25,342.983 475.583,339.65 471.5,337.5C 464.83,317.988 469.496,301.488 485.5,288C 496.737,280.754 509.07,276.587 522.5,275.5C 523.492,275.672 524.158,275.338 524.5,274.5C 525.833,274.5 527.167,274.5 528.5,274.5C 562.591,272.699 596.591,273.699 630.5,277.5 Z"/></g>
<g><path style="opacity:0.786" fill="#8e83ff" d="M 630.5,277.5 C 638.034,278.024 645.368,279.024 652.5,280.5C 646.643,280.601 640.81,280.267 635,279.5C 633.014,279.431 631.514,278.765 630.5,277.5 Z"/></g>
<g><path style="opacity:0.971" fill="#5c5a6f" d="M 77.5,306.5 C 76.8575,303.802 76.0242,301.135 75,298.5C 74.8138,301.036 74.3138,303.369 73.5,305.5C 73.6633,303.143 73.4966,300.81 73,298.5C 71.2866,297.122 69.9533,295.455 69,293.5C 67.43,292.642 65.7633,291.975 64,291.5C 62.9701,291.836 62.4701,292.503 62.5,293.5C 61.4168,293.461 60.4168,293.127 59.5,292.5C 58.8302,294.291 58.1635,295.958 57.5,297.5C 53.7286,291.643 55.3953,288.643 62.5,288.5C 71.6659,289.331 76.9992,294.331 78.5,303.5C 78.4805,304.726 78.1471,305.726 77.5,306.5 Z"/></g>
<g><path style="opacity:1" fill="#e0e0e4" d="M 73.5,305.5 C 69.8333,301.5 66.1667,297.5 62.5,293.5C 62.4701,292.503 62.9701,291.836 64,291.5C 65.7633,291.975 67.43,292.642 69,293.5C 69.9533,295.455 71.2866,297.122 73,298.5C 73.4966,300.81 73.6633,303.143 73.5,305.5 Z"/></g>
<g><path style="opacity:1" fill="#6b62fc" d="M 340.5,297.5 C 337.406,304.196 335.072,311.196 333.5,318.5C 332.778,318.918 332.278,319.584 332,320.5C 331.088,325.464 330.588,330.464 330.5,335.5C 330.119,364.261 331.619,392.928 335,421.5C 338.472,448.777 342.639,475.944 347.5,503C 346.926,504.607 346.26,506.107 345.5,507.5C 339.879,508.725 334.379,510.392 329,512.5C 321.261,510.349 313.427,508.683 305.5,507.5C 305.5,507.167 305.5,506.833 305.5,506.5C 301.366,505.515 297.032,505.182 292.5,505.5C 292.5,504.167 292.5,502.833 292.5,501.5C 293.407,493.82 294.407,486.153 295.5,478.5C 296.889,473.731 297.556,468.731 297.5,463.5C 298.388,460.946 298.721,458.279 298.5,455.5C 300.136,451.79 300.802,447.79 300.5,443.5C 305.398,406.71 308.398,369.71 309.5,332.5C 309.182,325.44 308.349,318.44 307,311.5C 306.861,308.555 305.694,306.221 303.5,304.5C 303.5,300.833 303.5,297.167 303.5,293.5C 314.824,292.653 326.158,292.486 337.5,293C 339.141,294.129 340.141,295.629 340.5,297.5 Z"/></g>
<g><path style="opacity:0.999" fill="#403e57" d="M 340.5,297.5 C 346.139,300.989 351.805,304.489 357.5,308C 371.651,309.87 384.985,314.203 397.5,321C 402.194,323.846 405.527,327.68 407.5,332.5C 406.957,332.56 406.624,332.893 406.5,333.5C 409.5,339.5 412.5,345.5 415.5,351.5C 415.957,352.298 416.624,352.631 417.5,352.5C 423.059,362.615 428.392,372.949 433.5,383.5C 451.841,389.393 470.174,395.06 488.5,400.5C 488.5,401.5 488.5,402.5 488.5,403.5C 487.264,409.057 486.597,414.723 486.5,420.5C 486.516,422.484 485.516,423.484 483.5,423.5C 459.141,421.421 434.808,419.088 410.5,416.5C 403.806,407.64 397.306,398.64 391,389.5C 390.833,424.505 390.333,459.505 389.5,494.5C 386.573,495.801 383.573,496.801 380.5,497.5C 381.428,501.362 382.928,505.029 385,508.5C 385.81,512.358 385.643,516.024 384.5,519.5C 384.786,511.425 382.286,504.425 377,498.5C 369.543,499.981 362.71,502.815 356.5,507C 352.87,508.664 349.203,508.83 345.5,507.5C 346.26,506.107 346.926,504.607 347.5,503C 342.639,475.944 338.472,448.777 335,421.5C 331.619,392.928 330.119,364.261 330.5,335.5C 331.951,330.041 332.951,324.374 333.5,318.5C 335.072,311.196 337.406,304.196 340.5,297.5 Z"/></g>
<g><path style="opacity:1" fill="#f7f7ff" d="M 525.5,299.5 C 578.834,299.333 632.168,299.5 685.5,300C 688.167,302 688.167,304 685.5,306C 632.167,306.667 578.833,306.667 525.5,306C 524.232,303.837 524.232,301.67 525.5,299.5 Z"/></g>
<g><path style="opacity:1" fill="#6860f1" d="M 73.5,311.5 C 74.1217,312.627 74.955,313.627 76,314.5C 77.7278,323.204 79.5611,331.871 81.5,340.5C 81.7699,345.45 82.7699,350.117 84.5,354.5C 86.5953,360.641 87.9286,366.975 88.5,373.5C 89.4908,378.173 87.8241,381.506 83.5,383.5C 76.5807,355.645 70.4141,327.645 65,299.5C 67.6641,303.657 70.4975,307.657 73.5,311.5 Z"/></g>
<g><path style="opacity:0.998" fill="#413e58" d="M 303.5,304.5 C 305.694,306.221 306.861,308.555 307,311.5C 308.349,318.44 309.182,325.44 309.5,332.5C 308.398,369.71 305.398,406.71 300.5,443.5C 298.864,447.21 298.198,451.21 298.5,455.5C 298.721,458.279 298.388,460.946 297.5,463.5C 296.111,468.269 295.444,473.269 295.5,478.5C 294.407,486.153 293.407,493.82 292.5,501.5C 291.549,502.919 291.216,504.585 291.5,506.5C 296.167,506.5 300.833,506.5 305.5,506.5C 305.5,506.833 305.5,507.167 305.5,507.5C 300.833,507.5 296.167,507.5 291.5,507.5C 291.5,508.5 291.5,509.5 291.5,510.5C 283.5,510.5 275.5,510.5 267.5,510.5C 267.334,515.179 267.501,519.845 268,524.5C 270.379,526.206 271.212,528.206 270.5,530.5C 269.017,528.906 267.517,527.24 266,525.5C 265.501,520.511 265.334,515.511 265.5,510.5C 257.167,510.5 248.833,510.5 240.5,510.5C 242.593,496.513 244.593,482.513 246.5,468.5C 248.176,467.817 248.843,466.483 248.5,464.5C 249.791,451.128 251.458,437.795 253.5,424.5C 253.167,423.167 252.833,421.833 252.5,420.5C 251.618,421.76 250.618,422.926 249.5,424C 226.206,426.386 202.873,428.219 179.5,429.5C 177.833,429.5 176.167,429.5 174.5,429.5C 174.5,428.833 174.5,428.167 174.5,427.5C 173.888,421.156 173.221,414.823 172.5,408.5C 190.64,403.294 208.64,397.461 226.5,391C 231.926,381.644 236.926,372.144 241.5,362.5C 244.812,359.229 247.145,355.229 248.5,350.5C 250.9,345.368 253.566,340.368 256.5,335.5C 258.587,334.415 259.92,332.749 260.5,330.5C 270.297,323.723 280.964,318.557 292.5,315C 296.036,311.296 299.702,307.796 303.5,304.5 Z"/></g>
<g><path style="opacity:0.094" fill="#84848d" d="M 59.5,317.5 C 60.8333,317.5 62.1667,317.5 63.5,317.5C 63.9629,320.482 64.2962,323.482 64.5,326.5C 62.9804,323.466 61.3137,320.466 59.5,317.5 Z"/></g>
<g><path style="opacity:1" fill="#fafaff" d="M 685.5,326.5 C 631.791,326.825 578.125,326.491 524.5,325.5C 524.5,323.833 524.5,322.167 524.5,320.5C 578.501,320.333 632.501,320.5 686.5,321C 687.98,323.235 687.647,325.068 685.5,326.5 Z"/></g>
<g><path style="opacity:1" fill="#5a53ba" d="M 333.5,318.5 C 332.951,324.374 331.951,330.041 330.5,335.5C 330.588,330.464 331.088,325.464 332,320.5C 332.278,319.584 332.778,318.918 333.5,318.5 Z"/></g>
<g><path style="opacity:1" fill="#d9d7ff" d="M 524.5,325.5 C 578.125,326.491 631.791,326.825 685.5,326.5C 632.335,327.665 579.002,327.832 525.5,327C 524.944,326.617 524.611,326.117 524.5,325.5 Z"/></g>
<g><path style="opacity:0.196" fill="#ada7b5" d="M 260.5,330.5 C 259.92,332.749 258.587,334.415 256.5,335.5C 257.08,333.251 258.413,331.585 260.5,330.5 Z"/></g>
<g><path style="opacity:0.612" fill="#948aff" d="M 471.5,337.5 C 475.583,339.65 478.25,342.983 479.5,347.5C 475.874,344.905 473.208,341.572 471.5,337.5 Z"/></g>
<g><path style="opacity:1" fill="#f3f1ff" d="M 525.5,341.5 C 532.841,341.334 540.174,341.5 547.5,342C 550.167,344 550.167,346 547.5,348C 540.167,348.667 532.833,348.667 525.5,348C 524.232,345.837 524.232,343.67 525.5,341.5 Z"/></g>
<g><path style="opacity:0.118" fill="#b1b1b4" d="M 66.5,337.5 C 68.5017,341.833 69.5017,346.5 69.5,351.5C 68.0099,347.058 67.0099,342.391 66.5,337.5 Z"/></g>
<g><path style="opacity:0.216" fill="#6c697d" d="M 407.5,332.5 C 411.341,338.849 414.675,345.516 417.5,352.5C 416.624,352.631 415.957,352.298 415.5,351.5C 412.5,345.5 409.5,339.5 406.5,333.5C 406.624,332.893 406.957,332.56 407.5,332.5 Z"/></g>
<g><path style="opacity:0.388" fill="#a59aff" d="M 715.5,349.5 C 714.089,351.539 712.089,352.539 709.5,352.5C 710.895,350.621 712.895,349.621 715.5,349.5 Z"/></g>
<g><path style="opacity:1" fill="#5851b2" d="M 81.5,340.5 C 83.2301,344.883 84.2301,349.55 84.5,354.5C 82.7699,350.117 81.7699,345.45 81.5,340.5 Z"/></g>
<g><path style="opacity:0.373" fill="#878795" d="M 248.5,350.5 C 247.145,355.229 244.812,359.229 241.5,362.5C 242.855,357.771 245.188,353.771 248.5,350.5 Z"/></g>
<g><path style="opacity:0.998" fill="#47455d" d="M 529.5,370.5 C 539.83,378.61 541.163,388.11 533.5,399C 531.024,401.571 528.024,403.071 524.5,403.5C 519.739,402.934 515.072,401.934 510.5,400.5C 501.545,391.573 501.212,382.24 509.5,372.5C 515.9,369.419 522.567,368.752 529.5,370.5 Z"/></g>
<g><path style="opacity:0.071" fill="#b9b9bd" d="M 70.5,356.5 C 74.4267,369.803 77.0934,383.47 78.5,397.5C 75.0872,384.1 72.4205,370.433 70.5,356.5 Z"/></g>
<g><path style="opacity:0.996" fill="#403e55" d="M 62.5,293.5 C 66.1667,297.5 69.8333,301.5 73.5,305.5C 74.3138,303.369 74.8138,301.036 75,298.5C 76.0242,301.135 76.8575,303.802 77.5,306.5C 77.5,306.833 77.5,307.167 77.5,307.5C 76.1667,308.833 74.8333,310.167 73.5,311.5C 70.4975,307.657 67.6641,303.657 65,299.5C 70.4141,327.645 76.5807,355.645 83.5,383.5C 87.8241,381.506 89.4908,378.173 88.5,373.5C 89.3173,375.831 89.9839,378.331 90.5,381C 90.8361,382.03 91.5028,382.53 92.5,382.5C 93.9117,387.98 95.2451,393.48 96.5,399C 110.875,399.397 125.042,399.23 139,398.5C 143.26,400.168 147.76,401.001 152.5,401C 153.444,403.719 153.777,406.552 153.5,409.5C 153.708,411.92 153.374,414.253 152.5,416.5C 146.872,417.495 141.206,417.829 135.5,417.5C 117.833,417.5 100.167,417.5 82.5,417.5C 82.9746,414.918 82.3079,412.918 80.5,411.5C 79.1892,406.964 78.5226,402.297 78.5,397.5C 77.0934,383.47 74.4267,369.803 70.5,356.5C 69.5489,355.081 69.2155,353.415 69.5,351.5C 69.5017,346.5 68.5017,341.833 66.5,337.5C 65.5778,333.888 64.9111,330.221 64.5,326.5C 64.2962,323.482 63.9629,320.482 63.5,317.5C 62.1667,317.5 60.8333,317.5 59.5,317.5C 58.8333,317.5 58.1667,317.5 57.5,317.5C 56.0216,315.636 54.0216,314.303 51.5,313.5C 52.8605,313.212 54.1938,312.879 55.5,312.5C 57.2259,312.815 58.8925,312.981 60.5,313C 59.11,307.934 58.11,302.768 57.5,297.5C 58.1635,295.958 58.8302,294.291 59.5,292.5C 60.4168,293.127 61.4168,293.461 62.5,293.5 Z"/></g>
<g><path style="opacity:0.897" fill="#5d5a75" d="M 77.5,307.5 C 82.6276,332.471 87.6276,357.471 92.5,382.5C 91.5028,382.53 90.8361,382.03 90.5,381C 89.9839,378.331 89.3173,375.831 88.5,373.5C 87.9286,366.975 86.5953,360.641 84.5,354.5C 84.2301,349.55 83.2301,344.883 81.5,340.5C 79.5611,331.871 77.7278,323.204 76,314.5C 74.955,313.627 74.1217,312.627 73.5,311.5C 74.8333,310.167 76.1667,308.833 77.5,307.5 Z"/></g>
<g><path style="opacity:1" fill="#e6e6e9" d="M 526.5,379.5 C 527.833,379.5 529.167,379.5 530.5,379.5C 528.425,385.261 524.758,389.928 519.5,393.5C 516.848,391.375 515.182,388.709 514.5,385.5C 516.401,385.433 518.234,385.767 520,386.5C 522.35,384.318 524.516,381.985 526.5,379.5 Z"/></g>
<g><path style="opacity:0.932" fill="#fcb5b6" d="M 510.5,400.5 C 515.072,401.934 519.739,402.934 524.5,403.5C 524.389,404.117 524.056,404.617 523.5,405C 526.483,411.72 524.817,417.053 518.5,421C 507.853,420.762 497.186,420.596 486.5,420.5C 486.597,414.723 487.264,409.057 488.5,403.5C 493.148,404.166 497.814,404.832 502.5,405.5C 505.178,403.816 507.844,402.15 510.5,400.5 Z"/></g>
<g><path style="opacity:0.908" fill="#fcb6b6" d="M 172.5,408.5 C 173.221,414.823 173.888,421.156 174.5,427.5C 163.811,427.557 153.144,427.724 142.5,428C 138.403,426.078 136.07,422.912 135.5,418.5C 135.5,418.167 135.5,417.833 135.5,417.5C 141.206,417.829 146.872,417.495 152.5,416.5C 153.374,414.253 153.708,411.92 153.5,409.5C 154.974,411.137 156.808,412.137 159,412.5C 162.812,411.854 166.646,411.354 170.5,411C 171.066,410.005 171.733,409.172 172.5,408.5 Z"/></g>
<g><path style="opacity:0.47" fill="#71707f" d="M 80.5,411.5 C 82.3079,412.918 82.9746,414.918 82.5,417.5C 100.167,417.5 117.833,417.5 135.5,417.5C 135.5,417.833 135.5,418.167 135.5,418.5C 117.497,418.667 99.4969,418.5 81.5,418C 80.5769,415.959 80.2436,413.792 80.5,411.5 Z"/></g>
<g><path style="opacity:0.196" fill="#acaac5" d="M 174.5,429.5 C 176.167,429.5 177.833,429.5 179.5,429.5C 179.209,430.649 178.376,431.316 177,431.5C 175.624,431.316 174.791,430.649 174.5,429.5 Z"/></g>
<g><path style="opacity:1" fill="#4e498e" d="M 300.5,443.5 C 300.802,447.79 300.136,451.79 298.5,455.5C 298.198,451.21 298.864,447.21 300.5,443.5 Z"/></g>
<g><path style="opacity:0.059" fill="#a0a0ad" d="M 248.5,464.5 C 248.843,466.483 248.176,467.817 246.5,468.5C 246.157,466.517 246.824,465.183 248.5,464.5 Z"/></g>
<g><path style="opacity:1" fill="#504c98" d="M 297.5,463.5 C 297.556,468.731 296.889,473.731 295.5,478.5C 295.444,473.269 296.111,468.269 297.5,463.5 Z"/></g>
<g><path style="opacity:0.999" fill="#302f42" d="M 384.5,519.5 C 384.691,538.514 384.358,557.514 383.5,576.5C 382.176,580.107 381.509,584.107 381.5,588.5C 381.529,592.914 381.862,597.247 382.5,601.5C 381.866,611.872 380.866,622.206 379.5,632.5C 378.351,632.791 377.684,633.624 377.5,635C 377.528,636.07 377.861,636.903 378.5,637.5C 378.5,638.833 378.5,640.167 378.5,641.5C 376.153,642.607 375.82,644.274 377.5,646.5C 377.533,650.869 377.2,655.202 376.5,659.5C 375.351,659.791 374.684,660.624 374.5,662C 374.528,663.07 374.861,663.903 375.5,664.5C 375.5,665.5 375.5,666.5 375.5,667.5C 373.692,668.918 373.025,670.918 373.5,673.5C 371.855,694.785 369.522,715.951 366.5,737C 368.793,743.382 370.793,749.882 372.5,756.5C 371.638,758.767 369.971,759.767 367.5,759.5C 366.292,760.234 364.959,760.567 363.5,760.5C 362.32,769.123 361.653,777.79 361.5,786.5C 361.158,787.338 360.492,787.672 359.5,787.5C 351.429,787.92 343.429,788.587 335.5,789.5C 333.5,789.5 331.5,789.5 329.5,789.5C 329.5,787.5 329.5,785.5 329.5,783.5C 330.765,779.546 330.765,775.546 329.5,771.5C 328.859,770.007 327.859,769.007 326.5,768.5C 320.389,748.403 314.723,728.069 309.5,707.5C 309.715,705.821 309.048,704.821 307.5,704.5C 297.847,670.891 288.347,637.225 279,603.5C 278.502,600.183 278.335,596.85 278.5,593.5C 279.036,590.302 278.369,587.635 276.5,585.5C 276.5,583.833 276.5,582.167 276.5,580.5C 277.147,579.726 277.48,578.726 277.5,577.5C 277.36,575.97 276.693,574.97 275.5,574.5C 275.5,572.5 275.5,570.5 275.5,568.5C 276.821,563.743 276.155,559.077 273.5,554.5C 273.043,553.702 272.376,553.369 271.5,553.5C 269.974,550.229 269.308,546.729 269.5,543C 269.723,538.816 270.057,534.649 270.5,530.5C 271.212,528.206 270.379,526.206 268,524.5C 267.501,519.845 267.334,515.179 267.5,510.5C 275.5,510.5 283.5,510.5 291.5,510.5C 291.5,509.5 291.5,508.5 291.5,507.5C 296.167,507.5 300.833,507.5 305.5,507.5C 313.427,508.683 321.261,510.349 329,512.5C 334.379,510.392 339.879,508.725 345.5,507.5C 349.203,508.83 352.87,508.664 356.5,507C 362.71,502.815 369.543,499.981 377,498.5C 382.286,504.425 384.786,511.425 384.5,519.5 Z"/></g>
<g><path style="opacity:1" fill="#534db0" d="M 292.5,501.5 C 292.5,502.833 292.5,504.167 292.5,505.5C 297.032,505.182 301.366,505.515 305.5,506.5C 300.833,506.5 296.167,506.5 291.5,506.5C 291.216,504.585 291.549,502.919 292.5,501.5 Z"/></g>
<g><path style="opacity:0.946" fill="#5b596f" d="M 557.5,358.5 C 568.356,365.614 579.356,372.78 590.5,380C 630.045,418.044 640.712,463.044 622.5,515C 626.004,519.433 630.337,522.933 635.5,525.5C 636.833,527.167 636.833,528.833 635.5,530.5C 628.738,528.238 623.238,524.238 619,518.5C 613.146,529.174 604.646,532.007 593.5,527C 585.252,520.222 584.586,512.889 591.5,505C 601.704,502.123 610.704,504.29 618.5,511.5C 622.725,502.653 625.225,493.32 626,483.5C 627.985,462.745 624.985,442.745 617,423.5C 608.806,407.961 598.306,394.127 585.5,382C 576.163,375.999 566.83,369.999 557.5,364C 554.204,362.489 550.871,361.323 547.5,360.5C 550.684,359.677 554.017,359.01 557.5,358.5 Z M 595.5,508.5 C 603.565,507.872 610.232,510.539 615.5,516.5C 608.974,525.753 601.474,526.753 593,519.5C 590.6,514.99 591.433,511.323 595.5,508.5 Z"/></g>
<g><path style="opacity:0.094" fill="#71707c" d="M 271.5,553.5 C 272.376,553.369 273.043,553.702 273.5,554.5C 276.155,559.077 276.821,563.743 275.5,568.5C 274.619,563.502 273.286,558.502 271.5,553.5 Z"/></g>
<g><path style="opacity:0.349" fill="#8a8994" d="M 275.5,574.5 C 276.693,574.97 277.36,575.97 277.5,577.5C 277.48,578.726 277.147,579.726 276.5,580.5C 275.539,578.735 275.205,576.735 275.5,574.5 Z"/></g>
<g><path style="opacity:0.255" fill="#a1a1a8" d="M 276.5,585.5 C 278.369,587.635 279.036,590.302 278.5,593.5C 277.883,593.389 277.383,593.056 277,592.5C 276.503,590.19 276.337,587.857 276.5,585.5 Z"/></g>
<g><path style="opacity:1" fill="#1e1e2a" d="M 323.5,579.5 C 324.83,585.798 325.497,592.465 325.5,599.5C 327.74,649.482 328.907,699.482 329,749.5C 323.654,719.718 319.821,689.718 317.5,659.5C 319.868,632.857 321.868,606.191 323.5,579.5 Z"/></g>
<g><path style="opacity:0.596" fill="#6a6977" d="M 383.5,576.5 C 383.826,585.017 383.493,593.35 382.5,601.5C 381.862,597.247 381.529,592.914 381.5,588.5C 381.509,584.107 382.176,580.107 383.5,576.5 Z"/></g>
<g><path style="opacity:0.494" fill="#888793" d="M 379.5,632.5 C 379.784,634.415 379.451,636.081 378.5,637.5C 377.861,636.903 377.528,636.07 377.5,635C 377.684,633.624 378.351,632.791 379.5,632.5 Z"/></g>
<g><path style="opacity:0.49" fill="#94939e" d="M 378.5,641.5 C 378.784,643.415 378.451,645.081 377.5,646.5C 375.82,644.274 376.153,642.607 378.5,641.5 Z"/></g>
<g><path style="opacity:0.506" fill="#90909b" d="M 376.5,659.5 C 376.784,661.415 376.451,663.081 375.5,664.5C 374.861,663.903 374.528,663.07 374.5,662C 374.684,660.624 375.351,659.791 376.5,659.5 Z"/></g>
<g><path style="opacity:0.039" fill="#aaa9af" d="M 375.5,667.5 C 375.975,670.082 375.308,672.082 373.5,673.5C 373.025,670.918 373.692,668.918 375.5,667.5 Z"/></g>
<g><path style="opacity:0.153" fill="#b5b5bb" d="M 307.5,704.5 C 309.048,704.821 309.715,705.821 309.5,707.5C 308.094,707.027 307.427,706.027 307.5,704.5 Z"/></g>
<g><path style="opacity:0.949" fill="#f9b3b4" d="M 367.5,759.5 C 373.82,767.817 380.486,775.817 387.5,783.5C 384.892,783.606 382.892,784.772 381.5,787C 376,788.958 370.333,790.125 364.5,790.5C 365.307,788.285 364.307,786.951 361.5,786.5C 361.653,777.79 362.32,769.123 363.5,760.5C 364.959,760.567 366.292,760.234 367.5,759.5 Z"/></g>
<g><path style="opacity:0.584" fill="#6c6b78" d="M 326.5,768.5 C 327.859,769.007 328.859,770.007 329.5,771.5C 330.765,775.546 330.765,779.546 329.5,783.5C 328.916,778.466 327.916,773.466 326.5,768.5 Z"/></g>
<g><path style="opacity:1" fill="#353346" d="M 387.5,783.5 C 392.861,788.661 396.695,794.661 399,801.5C 386.447,811.66 373.947,821.66 361.5,831.5C 342.243,832.487 322.909,832.82 303.5,832.5C 305.455,820.049 312.789,813.215 325.5,812C 328.02,810.237 330.353,808.237 332.5,806C 334.197,805.616 335.863,805.782 337.5,806.5C 342.379,810.575 348.045,812.909 354.5,813.5C 354.884,810.104 356.218,807.104 358.5,804.5C 360.435,800.786 361.768,796.786 362.5,792.5C 362.747,791.287 363.414,790.62 364.5,790.5C 370.333,790.125 376,788.958 381.5,787C 382.892,784.772 384.892,783.606 387.5,783.5 Z"/></g>
<g><path style="opacity:0.962" fill="#f9b3b4" d="M 359.5,787.5 C 358.27,790.231 357.604,793.231 357.5,796.5C 357.503,799.355 357.836,802.022 358.5,804.5C 356.218,807.104 354.884,810.104 354.5,813.5C 348.045,812.909 342.379,810.575 337.5,806.5C 336.264,800.943 335.597,795.277 335.5,789.5C 343.429,788.587 351.429,787.92 359.5,787.5 Z"/></g>
<g><path style="opacity:0.565" fill="#c4c4c4" d="M 361.5,831.5 C 435.331,832.499 509.331,832.833 583.5,832.5C 583.5,833.833 583.5,835.167 583.5,836.5C 438.5,836.5 293.5,836.5 148.5,836.5C 148.5,835.167 148.5,833.833 148.5,832.5C 200.167,832.5 251.833,832.5 303.5,832.5C 322.909,832.82 342.243,832.487 361.5,831.5 Z"/></g>
</svg>
