<?xml version="1.0" encoding="UTF-8" standalone="no"?>
<!DOCTYPE svg PUBLIC "-//W3C//DTD SVG 1.1//EN" "http://www.w3.org/Graphics/SVG/1.1/DTD/svg11.dtd">
<svg xmlns="http://www.w3.org/2000/svg" version="1.1" viewBox="0.00 0.00 79.00 78.00">
<path fill="#ffffff" d="
  M 71.51 39.00
  A 32.02 32.02 0.0 0 1 39.49 71.02
  A 32.02 32.02 0.0 0 1 7.47 39.00
  A 32.02 32.02 0.0 0 1 39.49 6.98
  A 32.02 32.02 0.0 0 1 71.51 39.00
  Z
  M 60.26 34.34
  C 61.40 33.80 64.31 32.35 63.64 30.79
  Q 63.43 30.31 62.91 30.19
  Q 52.34 27.78 41.65 25.87
  Q 39.26 25.45 36.90 26.07
  Q 26.78 28.74 17.04 31.42
  A 1.23 1.23 0.0 0 0 16.88 33.73
  L 39.99 43.68
  A 1.79 1.76 -46.4 0 0 41.50 43.63
  Q 50.86 38.86 60.26 34.34
  Z
  M 19.60 44.12
  L 21.73 43.78
  A 0.78 0.78 0.0 0 0 22.38 42.88
  L 22.07 40.97
  A 2.38 1.77 80.9 0 0 19.95 38.90
  L 19.77 38.93
  A 2.38 1.77 80.9 0 0 18.40 41.56
  L 18.70 43.47
  A 0.78 0.78 0.0 0 0 19.60 44.12
  Z
  M 40.18 47.33
  L 25.65 41.90
  A 0.46 0.46 0.0 0 0 25.04 42.43
  C 25.99 46.53 26.57 51.94 30.85 53.90
  Q 40.76 58.42 50.67 53.90
  C 54.87 51.99 55.59 45.20 56.41 41.04
  Q 56.53 40.40 55.94 40.67
  L 41.30 47.29
  Q 40.75 47.54 40.18 47.33
  Z
  M 17.59 53.63
  L 22.95 53.86
  A 0.30 0.30 0.0 0 0 23.26 53.57
  L 23.27 53.38
  A 7.03 2.92 -87.6 0 0 20.65 46.24
  L 20.53 46.23
  A 7.03 2.92 -87.6 0 0 17.32 53.13
  L 17.31 53.32
  A 0.30 0.30 0.0 0 0 17.59 53.63
  Z"
/>
</svg>
