<?xml version="1.0" encoding="UTF-8" standalone="no"?>
<!DOCTYPE svg PUBLIC "-//W3C//DTD SVG 1.1//EN" "http://www.w3.org/Graphics/SVG/1.1/DTD/svg11.dtd">
<svg xmlns="http://www.w3.org/2000/svg" version="1.1" viewBox="0.00 0.00 64.00 64.00">
<path fill="#0065ca" d="
  M 46.38 9.00
  L 38.94 9.00
  Q 38.36 9.00 38.12 9.53
  C 36.91 12.28 34.61 13.36 33.89 9.51
  Q 33.79 9.00 33.27 9.00
  L 25.50 9.00
  Q 25.00 9.00 25.00 9.50
  L 25.00 11.01
  Q 25.00 12.12 24.22 11.33
  Q 23.26 10.35 21.85 10.25
  Q 21.24 10.21 21.11 9.61
  C 20.44 6.65 21.98 5.02 24.97 5.01
  Q 36.49 4.98 48.00 5.01
  C 50.31 5.01 50.96 7.09 50.97 9.17
  Q 51.02 15.84 50.99 22.51
  Q 50.99 23.11 50.40 23.17
  L 47.50 23.46
  Q 47.00 23.51 47.00 23.01
  L 47.00 9.63
  Q 47.00 9.00 46.38 9.00
  Z"
/>
<path fill="#0065ca" d="
  M 25.73 53.97
  Q 36.36 54.06 47.00 53.98
  Q 47.97 53.97 50.43 55.74
  Q 50.80 56.00 50.57 56.40
  Q 49.71 57.97 48.44 57.97
  Q 35.89 58.03 23.33 57.99
  Q 22.72 57.99 22.34 57.52
  L 21.13 56.03
  Q 20.78 55.60 20.21 55.58
  Q 15.15 55.42 10.81 52.85
  Q 10.36 52.58 10.26 52.06
  L 7.08 35.46
  Q 6.99 35.00 7.26 34.62
  C 12.24 27.55 18.24 21.78 19.81 12.52
  Q 19.89 12.00 20.42 12.05
  C 26.61 12.73 26.11 19.12 25.59 23.82
  C 24.53 33.46 24.82 43.67 25.11 53.36
  Q 25.13 53.97 25.73 53.97
  Z"
/>
<rect fill="#0065ca" x="-5.30" y="-2.79" transform="translate(50.46,27.98) rotate(-3.5)" width="10.60" height="5.58" rx="2.60"/>
<path fill="#0065ca" d="
  M 57.50 37.29
  A 1.26 1.26 0.0 0 1 56.19 38.49
  L 49.29 38.20
  A 5.14 2.64 2.4 0 1 44.27 35.35
  L 44.28 35.03
  A 5.14 2.64 2.4 0 1 49.53 32.61
  L 56.42 32.90
  A 1.26 1.26 0.0 0 1 57.63 34.21
  L 57.50 37.29
  Z"
/>
<path fill="#0065ca" d="
  M 44.20 42.49
  C 44.21 38.70 52.96 40.38 55.18 40.60
  C 59.32 41.01 58.46 47.41 53.68 46.25
  C 50.81 45.56 47.16 45.00 44.73 43.46
  Q 44.20 43.13 44.20 42.49
  Z"
/>
<path fill="#0065ca" d="
  M 43.02 48.26
  C 43.67 44.66 50.86 47.45 52.81 48.13
  C 56.75 49.49 54.30 55.41 49.99 53.12
  Q 46.78 51.42 43.61 49.54
  A 1.24 1.23 20.5 0 1 43.02 48.26
  Z"
/>
</svg>
