<?xml version="1.0" encoding="UTF-8" standalone="no"?>
<!DOCTYPE svg PUBLIC "-//W3C//DTD SVG 1.1//EN" "http://www.w3.org/Graphics/SVG/1.1/DTD/svg11.dtd">
<svg xmlns="http://www.w3.org/2000/svg" version="1.1" viewBox="0.00 0.00 78.00 78.00">
<path fill="#ffffff" d="
  M 2.17 18.84
  A 1.57 1.57 0.0 0 1 0.59 17.28
  L 0.58 9.11
  A 8.65 8.38 -0.1 0 1 9.21 0.71
  L 68.67 0.61
  A 8.65 8.38 -0.1 0 1 77.34 8.97
  L 77.35 17.14
  A 1.57 1.57 0.0 0 1 75.79 18.72
  L 2.17 18.84
  Z
  M 15.0313 9.5355
  A 1.39 1.39 0.0 0 0 13.6982 8.0908
  L 10.7406 7.9720
  A 1.39 1.39 0.0 0 0 9.2960 9.3051
  L 9.2687 9.9845
  A 1.39 1.39 0.0 0 0 10.6018 11.4292
  L 13.5594 11.5480
  A 1.39 1.39 0.0 0 0 15.0040 10.2149
  L 15.0313 9.5355
  Z
  M 24.9471 9.8735
  A 3.06 1.87 2.5 0 0 21.9716 7.8718
  A 3.06 1.87 2.5 0 0 18.8329 9.6065
  A 3.06 1.87 2.5 0 0 21.8084 11.6082
  A 3.06 1.87 2.5 0 0 24.9471 9.8735
  Z
  M 68.7301 9.7211
  A 1.70 1.70 0.0 0 0 67.0330 8.0182
  L 46.2331 7.9819
  A 1.70 1.70 0.0 0 0 44.5301 9.6789
  L 44.5299 9.7789
  A 1.70 1.70 0.0 0 0 46.2270 11.4818
  L 67.0269 11.5181
  A 1.70 1.70 0.0 0 0 68.7299 9.8211
  L 68.7301 9.7211
  Z"
/>
<path fill="#ffffff" d="
  M 75.96 22.49
  A 1.38 1.38 0.0 0 1 77.34 23.87
  L 77.34 68.05
  A 9.86 9.54 0.0 0 1 67.48 77.59
  L 10.52 77.59
  A 9.86 9.54 0.0 0 1 0.66 68.05
  L 0.66 23.87
  A 1.38 1.38 0.0 0 1 2.04 22.49
  L 75.96 22.49
  Z
  M 21.52 47.09
  A 1.16 1.16 0.0 0 1 22.15 48.97
  C 21.04 50.27 20.01 52.63 21.42 54.07
  C 24.97 57.71 27.55 48.96 27.83 47.01
  Q 27.89 46.58 28.17 46.25
  Q 30.89 43.15 34.37 45.55
  A 2.33 2.33 0.0 0 1 34.73 49.09
  L 31.12 52.82
  A 1.42 1.41 40.8 0 0 31.28 54.93
  L 33.88 56.91
  Q 34.33 57.26 34.45 57.82
  Q 35.82 64.47 29.97 67.44
  A 0.29 0.29 0.0 0 0 29.98 67.96
  C 45.06 75.23 63.01 61.58 58.35 44.90
  A 1.00 1.00 0.0 0 0 57.22 44.18
  Q 51.77 45.14 50.02 40.04
  A 0.88 0.88 0.0 0 0 48.38 39.97
  C 47.52 41.92 44.64 47.75 41.73 45.07
  Q 38.22 41.83 39.92 37.43
  Q 40.10 36.95 40.58 36.77
  C 42.96 35.89 47.03 35.66 46.48 32.06
  A 1.74 1.73 0.7 0 0 45.05 30.60
  Q 25.26 27.17 19.12 45.79
  Q 18.89 46.49 19.61 46.65
  L 21.52 47.09
  Z"
/>
<path fill="#ffffff" d="
  M 55.16 51.11
  A 0.27 0.27 0.0 0 1 55.49 51.31
  L 55.52 51.46
  A 6.10 6.06 76.8 0 1 51.01 58.78
  L 50.92 58.81
  A 6.10 6.06 76.8 0 1 43.62 54.25
  L 43.59 54.10
  A 0.27 0.27 0.0 0 1 43.79 53.78
  L 55.16 51.11
  Z"
/>
</svg>
