<?xml version="1.0" encoding="UTF-8" standalone="no"?>
<!DOCTYPE svg PUBLIC "-//W3C//DTD SVG 1.1//EN" "http://www.w3.org/Graphics/SVG/1.1/DTD/svg11.dtd">
<svg xmlns="http://www.w3.org/2000/svg" version="1.1" viewBox="0.00 0.00 70.00 70.00">
<g stroke-width="2.00" fill="none" stroke-linecap="butt">
<path stroke="#1a9bb0" vector-effect="non-scaling-stroke" d="
  M 63.96 23.00
  Q 61.05 23.80 60.85 20.47"
/>
<path stroke="#1a9bb0" vector-effect="non-scaling-stroke" d="
  M 9.04 20.25
  Q 8.62 21.06 8.77 21.95
  Q 8.85 22.49 8.46 22.87
  Q 7.57 23.75 6.04 23.00"
/>
<path stroke="#1a9bb0" vector-effect="non-scaling-stroke" d="
  M 39.3126 30.9766
  A 1.38 1.38 0.0 0 0 38.3605 29.2730
  L 38.1488 29.2131
  A 1.38 1.38 0.0 0 0 36.4452 30.1652
  L 30.6674 50.5834
  A 1.38 1.38 0.0 0 0 31.6195 52.2870
  L 31.8312 52.3469
  A 1.38 1.38 0.0 0 0 33.5348 51.3948
  L 39.3126 30.9766"
/>
<path stroke="#1a9bb0" vector-effect="non-scaling-stroke" d="
  M 20.82 40.37
  L 27.23 36.11
  Q 27.82 35.72 27.61 35.05
  L 27.29 34.04
  A 1.02 1.01 -25.4 0 0 25.76 33.50
  L 16.43 39.69
  A 1.31 1.31 0.0 0 0 16.46 41.89
  Q 20.77 44.62 24.89 47.49
  C 26.00 48.27 27.37 48.35 27.67 46.75
  A 1.22 1.21 -67.5 0 0 27.16 45.50
  L 20.82 41.18
  Q 20.22 40.78 20.82 40.37"
/>
<path stroke="#1a9bb0" vector-effect="non-scaling-stroke" d="
  M 49.19 41.14
  C 47.66 42.30 40.28 45.63 43.07 47.93
  A 1.16 1.15 47.6 0 0 44.45 48.00
  L 53.32 41.99
  A 1.44 1.44 0.0 0 0 53.33 39.62
  Q 49.44 36.92 44.91 33.94
  C 43.76 33.18 42.62 33.25 42.37 34.79
  A 1.54 1.54 0.0 0 0 43.05 36.34
  L 49.16 40.31
  Q 49.76 40.70 49.19 41.14"
/>
</g>
<path fill="#324561" d="
  M 63.96 23.00
  Q 61.05 23.80 60.85 20.47
  Q 62.64 13.06 55.00 13.03
  Q 29.06 12.96 14.29 13.16
  C 9.88 13.22 7.79 15.99 9.04 20.25
  Q 8.62 21.06 8.77 21.95
  Q 8.85 22.49 8.46 22.87
  Q 7.57 23.75 6.04 23.00
  C 5.83 16.37 5.48 10.31 14.09 10.28
  Q 34.62 10.21 55.16 10.27
  C 64.16 10.30 64.24 15.41 63.96 23.00
  Z"
/>
<path fill="#01f0ff" d="
  M 9.04 20.25
  L 60.85 20.47
  Q 61.05 23.80 63.96 23.00
  Q 64.04 36.62 63.99 50.24
  C 63.97 56.70 62.12 59.71 55.51 59.72
  Q 35.57 59.78 15.63 59.74
  C 9.64 59.72 6.02 58.25 6.00 51.75
  Q 5.96 37.37 6.04 23.00
  Q 7.57 23.75 8.46 22.87
  Q 8.85 22.49 8.77 21.95
  Q 8.62 21.06 9.04 20.25
  Z
  M 39.3126 30.9766
  A 1.38 1.38 0.0 0 0 38.3605 29.2730
  L 38.1488 29.2131
  A 1.38 1.38 0.0 0 0 36.4452 30.1652
  L 30.6674 50.5834
  A 1.38 1.38 0.0 0 0 31.6195 52.2870
  L 31.8312 52.3469
  A 1.38 1.38 0.0 0 0 33.5348 51.3948
  L 39.3126 30.9766
  Z
  M 20.82 40.37
  L 27.23 36.11
  Q 27.82 35.72 27.61 35.05
  L 27.29 34.04
  A 1.02 1.01 -25.4 0 0 25.76 33.50
  L 16.43 39.69
  A 1.31 1.31 0.0 0 0 16.46 41.89
  Q 20.77 44.62 24.89 47.49
  C 26.00 48.27 27.37 48.35 27.67 46.75
  A 1.22 1.21 -67.5 0 0 27.16 45.50
  L 20.82 41.18
  Q 20.22 40.78 20.82 40.37
  Z
  M 49.19 41.14
  C 47.66 42.30 40.28 45.63 43.07 47.93
  A 1.16 1.15 47.6 0 0 44.45 48.00
  L 53.32 41.99
  A 1.44 1.44 0.0 0 0 53.33 39.62
  Q 49.44 36.92 44.91 33.94
  C 43.76 33.18 42.62 33.25 42.37 34.79
  A 1.54 1.54 0.0 0 0 43.05 36.34
  L 49.16 40.31
  Q 49.76 40.70 49.19 41.14
  Z"
/>
<rect fill="#324561" x="-1.49" y="-11.99" transform="translate(34.99,40.78) rotate(15.8)" width="2.98" height="23.98" rx="1.38"/>
<path fill="#324561" d="
  M 20.82 41.18
  L 27.16 45.50
  A 1.22 1.21 -67.5 0 1 27.67 46.75
  C 27.37 48.35 26.00 48.27 24.89 47.49
  Q 20.77 44.62 16.46 41.89
  A 1.31 1.31 0.0 0 1 16.43 39.69
  L 25.76 33.50
  A 1.02 1.01 -25.4 0 1 27.29 34.04
  L 27.61 35.05
  Q 27.82 35.72 27.23 36.11
  L 20.82 40.37
  Q 20.22 40.78 20.82 41.18
  Z"
/>
<path fill="#324561" d="
  M 49.16 40.31
  L 43.05 36.34
  A 1.54 1.54 0.0 0 1 42.37 34.79
  C 42.62 33.25 43.76 33.18 44.91 33.94
  Q 49.44 36.92 53.33 39.62
  A 1.44 1.44 0.0 0 1 53.32 41.99
  L 44.45 48.00
  A 1.16 1.15 47.6 0 1 43.07 47.93
  C 40.28 45.63 47.66 42.30 49.19 41.14
  Q 49.76 40.70 49.16 40.31
  Z"
/>
</svg>
