<?xml version="1.0" encoding="UTF-8" standalone="no"?>
<!DOCTYPE svg PUBLIC "-//W3C//DTD SVG 1.1//EN" "http://www.w3.org/Graphics/SVG/1.1/DTD/svg11.dtd">
<svg xmlns="http://www.w3.org/2000/svg" version="1.1" viewBox="0.00 0.00 70.00 70.00">
<path fill="#0065ca" d="
  M 57.62 20.27
  L 12.04 20.24
  A 0.42 0.42 0.0 0 0 11.62 20.65
  Q 11.43 28.21 11.49 35.75
  C 11.53 40.60 7.29 40.35 7.28 36.53
  Q 7.23 27.51 7.25 18.48
  C 7.25 12.51 8.78 7.24 15.50 7.24
  Q 33.85 7.24 52.19 7.26
  C 59.75 7.27 62.76 10.15 62.74 17.50
  Q 62.73 25.88 62.56 34.24
  Q 62.52 36.36 60.32 36.59
  A 1.74 1.74 0.0 0 1 58.39 34.88
  L 58.22 20.87
  Q 58.21 20.27 57.62 20.27
  Z
  M 56.74 13.68
  A 2.14 2.14 0.0 0 0 54.60 11.54
  L 31.38 11.54
  A 2.14 2.14 0.0 0 0 29.24 13.68
  L 29.24 13.86
  A 2.14 2.14 0.0 0 0 31.38 16.00
  L 54.60 16.00
  A 2.14 2.14 0.0 0 0 56.74 13.86
  L 56.74 13.68
  Z
  M 17.40 13.83
  A 2.11 2.11 0.0 0 0 15.29 11.72
  A 2.11 2.11 0.0 0 0 13.18 13.83
  A 2.11 2.11 0.0 0 0 15.29 15.94
  A 2.11 2.11 0.0 0 0 17.40 13.83
  Z
  M 24.70 13.82
  A 2.13 2.13 0.0 0 0 22.57 11.69
  A 2.13 2.13 0.0 0 0 20.44 13.82
  A 2.13 2.13 0.0 0 0 22.57 15.95
  A 2.13 2.13 0.0 0 0 24.70 13.82
  Z"
/>
<path fill="#0065ca" d="
  M 25.17 49.53
  L 29.12 51.49
  Q 29.57 51.72 29.98 51.42
  Q 34.37 48.11 39.17 50.95
  Q 39.57 51.19 39.97 50.93
  L 45.03 47.57
  Q 45.46 47.28 45.40 46.77
  C 44.14 36.85 57.10 34.75 59.51 43.25
  C 61.44 50.05 54.34 54.50 48.32 51.07
  Q 47.88 50.82 47.46 51.11
  L 42.44 54.58
  Q 42.10 54.82 42.13 55.23
  C 43.00 67.05 27.45 66.72 27.73 56.22
  Q 27.75 55.64 27.23 55.39
  L 23.52 53.58
  Q 23.00 53.33 22.51 53.63
  C 9.06 61.64 5.30 39.45 18.55 41.09
  Q 24.54 41.83 24.71 48.81
  Q 24.72 49.31 25.17 49.53
  Z
  M 55.36 45.16
  A 2.90 2.90 0.0 0 0 52.46 42.26
  A 2.90 2.90 0.0 0 0 49.56 45.16
  A 2.90 2.90 0.0 0 0 52.46 48.06
  A 2.90 2.90 0.0 0 0 55.36 45.16
  Z
  M 20.35 48.11
  A 2.89 2.89 0.0 0 0 17.46 45.22
  A 2.89 2.89 0.0 0 0 14.57 48.11
  A 2.89 2.89 0.0 0 0 17.46 51.00
  A 2.89 2.89 0.0 0 0 20.35 48.11
  Z
  M 37.89 56.85
  A 2.92 2.92 0.0 0 0 34.97 53.93
  A 2.92 2.92 0.0 0 0 32.05 56.85
  A 2.92 2.92 0.0 0 0 34.97 59.77
  A 2.92 2.92 0.0 0 0 37.89 56.85
  Z"
/>
</svg>
