<?xml version="1.0" encoding="UTF-8" standalone="no"?>
<!DOCTYPE svg PUBLIC "-//W3C//DTD SVG 1.1//EN" "http://www.w3.org/Graphics/SVG/1.1/DTD/svg11.dtd">
<svg xmlns="http://www.w3.org/2000/svg" version="1.1" viewBox="0.00 0.00 70.00 70.00">
<path fill="#01effd" d="
  M 43.33 51.64
  Q 43.78 53.43 43.21 55.21
  Q 42.97 55.99 43.78 55.99
  C 45.74 55.98 48.62 55.53 49.72 57.53
  Q 49.96 57.95 50.36 58.22
  Q 52.65 59.73 51.54 62.45
  Q 51.32 62.99 50.74 62.99
  L 19.24 62.99
  Q 18.62 62.99 18.41 62.40
  C 17.02 58.47 22.16 55.22 25.90 56.16
  Q 26.74 56.37 26.70 55.51
  L 26.49 51.12
  Q 26.46 50.53 25.87 50.53
  L 5.40 50.45
  Q 4.99 50.45 4.68 50.16
  L 3.15 48.72
  Q 2.75 48.35 2.75 47.79
  Q 2.75 30.48 2.75 13.19
  C 2.75 11.45 3.83 9.77 5.56 9.77
  Q 29.03 9.73 52.51 9.76
  Q 53.03 9.76 53.40 9.40
  C 56.67 6.21 63.38 -3.25 68.36 3.84
  Q 70.77 7.27 67.57 11.10
  Q 67.25 11.49 67.25 11.98
  L 67.25 48.01
  Q 67.25 48.49 66.89 48.79
  L 65.30 50.15
  Q 65.00 50.40 64.60 50.40
  L 44.18 50.54
  Q 43.06 50.55 43.33 51.64
  Z
  M 66.4285 8.1860
  A 1.49 1.49 0.0 0 0 66.4249 6.0788
  L 64.5690 4.2294
  A 1.49 1.49 0.0 0 0 62.4618 4.2331
  L 47.9915 18.7540
  A 1.49 1.49 0.0 0 0 47.9951 20.8612
  L 49.8510 22.7106
  A 1.49 1.49 0.0 0 0 51.9582 22.7069
  L 66.4285 8.1860
  Z
  M 10.66 36.42
  L 30.61 36.31
  Q 31.15 36.31 31.22 35.78
  C 31.60 32.81 31.84 29.58 33.91 27.40
  C 35.57 25.64 37.67 24.99 39.25 23.39
  Q 44.27 18.33 49.26 13.71
  A 0.71 0.71 0.0 0 0 48.78 12.48
  L 6.54 12.69
  Q 5.77 12.69 5.77 13.46
  L 5.71 41.48
  A 0.52 0.52 0.0 0 0 6.23 42.00
  L 63.70 42.00
  A 0.52 0.52 0.0 0 0 64.22 41.48
  L 64.41 15.73
  Q 64.42 14.29 63.40 15.31
  C 57.47 21.22 50.12 27.40 44.99 34.43
  Q 41.54 39.16 34.77 39.21
  Q 22.72 39.30 10.69 39.23
  Q 10.00 39.23 10.00 38.54
  L 10.00 37.09
  Q 10.00 36.43 10.66 36.42
  Z
  M 45.7432 22.4736
  A 1.02 1.02 0.0 0 0 44.3008 22.4560
  L 41.7243 24.9703
  A 1.02 1.02 0.0 0 0 41.7067 26.4127
  L 44.2768 29.0464
  A 1.02 1.02 0.0 0 0 45.7192 29.0640
  L 48.2957 26.5497
  A 1.02 1.02 0.0 0 0 48.3133 25.1073
  L 45.7432 22.4736
  Z
  M 36.54 28.48
  Q 34.07 31.67 34.31 35.85
  A 0.43 0.43 0.0 0 0 34.78 36.26
  C 36.86 36.10 43.46 35.26 42.56 31.76
  Q 41.61 28.08 37.51 28.01
  Q 36.91 28.00 36.54 28.48
  Z
  M 64.3713 45.4613
  A 0.66 0.66 0.0 0 0 63.7124 44.8001
  L 6.2725 44.6999
  A 0.66 0.66 0.0 0 0 5.6114 45.3587
  L 5.6087 46.8787
  A 0.66 0.66 0.0 0 0 6.2676 47.5399
  L 63.7075 47.6401
  A 0.66 0.66 0.0 0 0 64.3686 46.9813
  L 64.3713 45.4613
  Z
  M 40.6060 50.9402
  A 0.44 0.44 0.0 0 0 40.1652 50.5010
  L 29.8052 50.5190
  A 0.44 0.44 0.0 0 0 29.3660 50.9598
  L 29.3740 55.5598
  A 0.44 0.44 0.0 0 0 29.8148 55.9990
  L 40.1748 55.9810
  A 0.44 0.44 0.0 0 0 40.6140 55.5402
  L 40.6060 50.9402
  Z
  M 47.8899 59.4274
  A 0.68 0.68 0.0 0 0 47.2087 58.7486
  L 22.6287 58.7915
  A 0.68 0.68 0.0 0 0 21.9499 59.4726
  L 21.9501 59.5726
  A 0.68 0.68 0.0 0 0 22.6313 60.2514
  L 47.2113 60.2085
  A 0.68 0.68 0.0 0 0 47.8901 59.5274
  L 47.8899 59.4274
  Z"
/>
</svg>
