<?xml version="1.0" encoding="UTF-8" standalone="no"?>
<!DOCTYPE svg PUBLIC "-//W3C//DTD SVG 1.1//EN" "http://www.w3.org/Graphics/SVG/1.1/DTD/svg11.dtd">
<svg xmlns="http://www.w3.org/2000/svg" version="1.1" viewBox="0.00 0.00 79.00 78.00">
<path fill="#ffffff" d="
  M 16.23 41.12
  L 12.12 52.55
  Q 11.91 53.12 11.31 53.14
  L 4.47 53.30
  A 1.38 1.38 0.0 0 1 3.14 51.43
  L 20.64 4.87
  Q 20.86 4.28 21.49 4.28
  L 28.94 4.24
  Q 29.54 4.23 29.76 4.80
  Q 34.83 18.02 39.82 31.22
  C 40.96 34.24 37.15 41.88 35.89 44.99
  A 0.29 0.29 0.0 0 1 35.34 44.95
  L 34.39 41.36
  Q 34.18 40.60 33.39 40.60
  L 16.99 40.59
  Q 16.42 40.59 16.23 41.12
  Z
  M 19.16 32.06
  A 0.35 0.35 0.0 0 0 19.50 32.53
  L 30.96 32.49
  A 0.35 0.35 0.0 0 0 31.29 32.02
  L 25.50 16.31
  A 0.35 0.35 0.0 0 0 24.84 16.31
  L 19.16 32.06
  Z"
/>
<path fill="#ffffff" d="
  M 44.67 55.59
  L 40.65 66.41
  A 1.29 1.29 0.0 0 1 39.44 67.25
  L 32.83 67.25
  A 1.29 1.29 0.0 0 1 31.63 65.51
  L 48.99 19.33
  A 1.29 1.29 0.0 0 1 50.21 18.49
  L 57.20 18.53
  A 1.29 1.29 0.0 0 1 58.40 19.36
  L 75.73 65.51
  A 1.29 1.29 0.0 0 1 74.52 67.25
  L 67.86 67.25
  A 1.29 1.29 0.0 0 1 66.65 66.40
  L 62.73 55.60
  A 1.29 1.29 0.0 0 0 61.52 54.75
  L 45.88 54.75
  A 1.29 1.29 0.0 0 0 44.67 55.59
  Z
  M 47.61 46.28
  A 0.47 0.47 0.0 0 0 48.05 46.92
  L 59.43 46.90
  A 0.47 0.47 0.0 0 0 59.87 46.26
  L 54.15 30.89
  A 0.47 0.47 0.0 0 0 53.27 30.89
  L 47.61 46.28
  Z"
/>
<rect fill="#ffffff" x="-21.96" y="-1.54" transform="translate(53.76,72.21) rotate(0.1)" width="43.92" height="3.08" rx="0.89"/>
</svg>
