<?xml version="1.0" encoding="UTF-8" standalone="no"?>
<!DOCTYPE svg PUBLIC "-//W3C//DTD SVG 1.1//EN" "http://www.w3.org/Graphics/SVG/1.1/DTD/svg11.dtd">
<svg xmlns="http://www.w3.org/2000/svg" version="1.1" viewBox="0.00 0.00 100.00 100.00">
<path fill="#01f0ff" d="
  M 47.32 32.09
  L 32.87 30.43
  Q 32.37 30.37 32.27 30.86
  L 30.92 37.47
  Q 30.81 38.00 30.27 38.00
  L 27.53 38.00
  Q 26.73 38.00 26.88 37.21
  L 28.36 29.78
  Q 28.45 29.32 28.01 29.14
  L 17.14 24.78
  Q 16.71 24.60 16.42 24.97
  Q 12.10 30.65 9.96 37.48
  Q 9.79 38.00 9.25 38.00
  L 6.24 38.00
  A 0.57 0.57 0.0 0 1 5.70 37.24
  Q 13.24 15.05 33.39 7.25
  C 58.61 -2.53 86.64 11.31 94.18 37.40
  Q 94.36 38.00 93.73 38.00
  L 90.82 38.00
  Q 90.21 38.00 90.02 37.42
  Q 87.84 30.68 83.62 25.00
  Q 83.32 24.60 82.86 24.78
  L 71.99 29.13
  Q 71.55 29.31 71.64 29.77
  L 73.14 37.28
  Q 73.28 38.00 72.54 38.00
  L 69.71 38.00
  Q 69.15 38.00 69.04 37.45
  L 67.71 30.76
  Q 67.63 30.36 67.22 30.41
  L 52.55 32.09
  Q 52.00 32.15 52.00 32.71
  L 52.00 37.38
  Q 52.00 38.00 51.38 38.00
  L 48.63 38.00
  Q 48.00 38.00 48.00 37.37
  L 48.00 32.85
  Q 48.00 32.17 47.32 32.09
  Z
  M 47.41 28.10
  A 0.53 0.52 3.4 0 0 48.00 27.58
  L 48.00 8.98
  Q 48.00 8.30 47.35 8.48
  C 40.77 10.27 35.63 19.83 33.86 25.88
  Q 33.67 26.50 34.33 26.58
  L 47.41 28.10
  Z
  M 65.67 26.56
  Q 66.33 26.49 66.14 25.85
  C 64.03 18.91 59.81 11.69 52.92 8.43
  A 0.65 0.64 -77.4 0 0 52.00 9.02
  L 52.00 27.57
  Q 52.00 28.16 52.59 28.09
  L 65.67 26.56
  Z
  M 29.84 24.79
  C 31.80 19.52 34.09 14.65 37.70 10.38
  A 0.25 0.25 0.0 0 0 37.43 9.98
  Q 27.29 13.30 19.77 20.86
  A 0.51 0.51 0.0 0 0 19.95 21.70
  L 29.00 25.17
  Q 29.62 25.40 29.84 24.79
  Z
  M 62.27 10.30
  C 66.09 15.03 67.61 19.43 70.22 24.73
  Q 70.53 25.37 71.19 25.11
  L 79.94 21.70
  Q 80.72 21.39 80.13 20.80
  Q 72.62 13.23 62.49 9.98
  A 0.20 0.20 0.0 0 0 62.27 10.30
  Z"
/>
<path fill="#01f0ff" d="
  M 29.83 42.00
  L 33.45 42.00
  A 0.35 0.35 0.0 0 1 33.78 42.46
  L 28.80 57.76
  A 0.35 0.35 0.0 0 1 28.47 58.00
  L 24.44 58.00
  A 0.35 0.35 0.0 0 1 24.11 57.77
  L 20.28 46.92
  A 0.35 0.35 0.0 0 0 19.62 46.92
  L 15.84 57.77
  A 0.35 0.35 0.0 0 1 15.51 58.00
  L 11.34 58.00
  A 0.35 0.35 0.0 0 1 11.00 57.76
  L 6.13 42.46
  A 0.35 0.35 0.0 0 1 6.46 42.00
  L 10.16 42.00
  A 0.35 0.35 0.0 0 1 10.50 42.26
  L 13.27 52.08
  A 0.35 0.35 0.0 0 0 13.94 52.11
  L 17.41 42.23
  A 0.35 0.35 0.0 0 1 17.74 42.00
  L 22.36 42.00
  A 0.35 0.35 0.0 0 1 22.69 42.24
  L 26.00 52.18
  A 0.35 0.35 0.0 0 0 26.67 52.17
  L 29.50 42.25
  A 0.35 0.35 0.0 0 1 29.83 42.00
  Z"
/>
<path fill="#01f0ff" d="
  M 44.01 52.03
  L 47.40 42.24
  A 0.35 0.35 0.0 0 1 47.73 42.00
  L 52.39 42.00
  A 0.35 0.35 0.0 0 1 52.72 42.24
  L 56.04 52.27
  A 0.35 0.35 0.0 0 0 56.71 52.25
  L 59.50 42.26
  A 0.35 0.35 0.0 0 1 59.84 42.00
  L 63.49 42.00
  A 0.35 0.35 0.0 0 1 63.82 42.46
  L 58.87 57.76
  A 0.35 0.35 0.0 0 1 58.54 58.00
  L 54.50 58.00
  A 0.35 0.35 0.0 0 1 54.17 57.77
  L 50.30 46.90
  A 0.35 0.35 0.0 0 0 49.64 46.90
  L 45.87 57.76
  A 0.35 0.35 0.0 0 1 45.54 58.00
  L 41.40 58.00
  A 0.35 0.35 0.0 0 1 41.06 57.76
  L 36.16 42.46
  A 0.35 0.35 0.0 0 1 36.49 42.00
  L 40.19 42.00
  A 0.35 0.35 0.0 0 1 40.52 42.25
  L 43.34 52.01
  A 0.35 0.35 0.0 0 0 44.01 52.03
  Z"
/>
<path fill="#01f0ff" d="
  M 86.70 52.22
  L 89.55 42.25
  A 0.35 0.35 0.0 0 1 89.88 42.00
  L 93.54 42.00
  A 0.35 0.35 0.0 0 1 93.87 42.46
  L 88.87 57.76
  A 0.35 0.35 0.0 0 1 88.54 58.00
  L 84.50 58.00
  A 0.35 0.35 0.0 0 1 84.17 57.77
  L 80.31 46.91
  A 0.35 0.35 0.0 0 0 79.65 46.92
  L 75.85 57.77
  A 0.35 0.35 0.0 0 1 75.52 58.00
  L 71.32 58.00
  A 0.35 0.35 0.0 0 1 70.98 57.76
  L 66.12 42.46
  A 0.35 0.35 0.0 0 1 66.45 42.00
  L 70.14 42.00
  A 0.35 0.35 0.0 0 1 70.47 42.25
  L 73.28 52.07
  A 0.35 0.35 0.0 0 0 73.94 52.09
  L 77.41 42.23
  A 0.35 0.35 0.0 0 1 77.74 42.00
  L 82.39 42.00
  A 0.35 0.35 0.0 0 1 82.72 42.24
  L 86.03 52.23
  A 0.35 0.35 0.0 0 0 86.70 52.22
  Z"
/>
<path fill="#01f0ff" d="
  M 33.09 69.77
  Q 40.10 68.24 47.27 68.22
  Q 48.00 68.22 48.00 67.50
  L 48.00 62.50
  Q 48.00 62.00 48.50 62.00
  L 51.50 62.00
  Q 51.99 62.00 52.00 62.50
  L 52.01 67.63
  Q 52.01 68.21 52.60 68.21
  Q 59.82 68.23 66.86 69.79
  Q 67.54 69.94 67.68 69.27
  L 69.09 62.53
  Q 69.20 62.00 69.74 62.00
  L 72.50 62.00
  Q 73.28 62.00 73.13 62.77
  L 71.61 70.17
  Q 71.52 70.64 71.96 70.82
  L 82.84 75.24
  Q 83.27 75.41 83.55 75.04
  Q 87.92 69.30 90.05 62.37
  Q 90.16 62.00 90.55 62.00
  L 93.27 62.00
  Q 94.77 62.00 94.24 63.40
  Q 87.12 82.19 71.17 90.65
  C 45.48 104.28 13.93 90.49 5.85 62.59
  Q 5.68 62.00 6.29 62.00
  L 9.19 62.00
  Q 9.79 62.00 9.98 62.57
  Q 12.16 69.32 16.38 75.00
  Q 16.68 75.40 17.14 75.22
  L 28.01 70.83
  Q 28.44 70.66 28.35 70.21
  L 26.89 62.71
  Q 26.75 62.00 27.47 62.00
  L 30.29 62.00
  Q 30.84 62.00 30.95 62.55
  L 32.28 69.24
  Q 32.42 69.92 33.09 69.77
  Z
  M 47.17 71.94
  L 34.36 73.42
  Q 33.63 73.51 33.85 74.21
  C 35.94 80.67 40.32 88.91 47.24 91.54
  Q 48.00 91.83 48.00 91.02
  L 48.00 72.68
  Q 48.00 71.85 47.17 71.94
  Z
  M 52.95 71.98
  A 0.85 0.85 0.0 0 0 52.00 72.82
  L 52.00 90.98
  A 0.65 0.64 77.7 0 0 52.91 91.57
  C 59.83 88.38 63.96 81.17 66.10 74.16
  Q 66.30 73.49 65.61 73.41
  L 52.95 71.98
  Z
  M 37.75 89.61
  C 33.95 85.09 31.99 80.57 29.84 75.19
  Q 29.61 74.62 29.04 74.83
  L 20.17 78.22
  Q 19.23 78.58 19.94 79.29
  Q 27.41 86.75 37.44 90.05
  A 0.28 0.28 0.0 0 0 37.75 89.61
  Z
  M 62.37 89.47
  A 0.30 0.30 0.0 0 0 62.70 89.95
  Q 72.78 86.66 80.15 79.05
  Q 80.64 78.55 79.99 78.30
  L 70.97 74.84
  Q 70.27 74.57 70.04 75.28
  Q 67.58 83.15 62.37 89.47
  Z"
/>
</svg>
