<svg width="151" height="57" viewBox="0 0 151 57" fill="none" xmlns="http://www.w3.org/2000/svg">
<path d="M74.095 43.45C72.515 43.45 71.09 43.175 69.82 42.625C68.56 42.075 67.52 41.29 66.7 40.27C65.89 39.24 65.375 38.02 65.155 36.61L68.905 36.04C69.225 37.32 69.88 38.31 70.87 39.01C71.87 39.71 73.02 40.06 74.32 40.06C75.09 40.06 75.815 39.94 76.495 39.7C77.175 39.46 77.725 39.11 78.145 38.65C78.575 38.19 78.79 37.625 78.79 36.955C78.79 36.655 78.74 36.38 78.64 36.13C78.54 35.87 78.39 35.64 78.19 35.44C78 35.24 77.75 35.06 77.44 34.9C77.14 34.73 76.79 34.585 76.39 34.465L70.81 32.815C70.33 32.675 69.81 32.49 69.25 32.26C68.7 32.02 68.175 31.695 67.675 31.285C67.185 30.865 66.78 30.335 66.46 29.695C66.15 29.045 65.995 28.245 65.995 27.295C65.995 25.905 66.345 24.74 67.045 23.8C67.755 22.85 68.705 22.14 69.895 21.67C71.095 21.2 72.425 20.97 73.885 20.98C75.365 20.99 76.685 21.245 77.845 21.745C79.005 22.235 79.975 22.95 80.755 23.89C81.535 24.83 82.085 25.965 82.405 27.295L78.52 27.97C78.36 27.21 78.05 26.565 77.59 26.035C77.14 25.495 76.585 25.085 75.925 24.805C75.275 24.525 74.58 24.375 73.84 24.355C73.12 24.345 72.45 24.455 71.83 24.685C71.22 24.905 70.725 25.225 70.345 25.645C69.975 26.065 69.79 26.555 69.79 27.115C69.79 27.645 69.95 28.08 70.27 28.42C70.59 28.75 70.985 29.015 71.455 29.215C71.935 29.405 72.42 29.565 72.91 29.695L76.78 30.775C77.31 30.915 77.905 31.105 78.565 31.345C79.225 31.585 79.86 31.92 80.47 32.35C81.08 32.78 81.58 33.345 81.97 34.045C82.37 34.745 82.57 35.635 82.57 36.715C82.57 37.835 82.335 38.82 81.865 39.67C81.405 40.51 80.78 41.21 79.99 41.77C79.2 42.33 78.295 42.75 77.275 43.03C76.265 43.31 75.205 43.45 74.095 43.45ZM90.3468 43.45C89.1768 43.45 88.1868 43.23 87.3768 42.79C86.5668 42.34 85.9518 41.745 85.5318 41.005C85.1218 40.265 84.9168 39.45 84.9168 38.56C84.9168 37.78 85.0468 37.08 85.3068 36.46C85.5668 35.83 85.9668 35.29 86.5068 34.84C87.0468 34.38 87.7468 34.005 88.6068 33.715C89.2568 33.505 90.0168 33.315 90.8868 33.145C91.7668 32.975 92.7168 32.82 93.7368 32.68C94.7668 32.53 95.8418 32.37 96.9618 32.2L95.6718 32.935C95.6818 31.815 95.4318 30.99 94.9218 30.46C94.4118 29.93 93.5518 29.665 92.3418 29.665C91.6118 29.665 90.9068 29.835 90.2268 30.175C89.5468 30.515 89.0718 31.1 88.8018 31.93L85.5018 30.895C85.9018 29.525 86.6618 28.425 87.7818 27.595C88.9118 26.765 90.4318 26.35 92.3418 26.35C93.7818 26.35 95.0468 26.585 96.1368 27.055C97.2368 27.525 98.0518 28.295 98.5818 29.365C98.8718 29.935 99.0468 30.52 99.1068 31.12C99.1668 31.71 99.1968 32.355 99.1968 33.055V43H96.0318V39.49L96.5568 40.06C95.8268 41.23 94.9718 42.09 93.9918 42.64C93.0218 43.18 91.8068 43.45 90.3468 43.45ZM91.0668 40.57C91.8868 40.57 92.5868 40.425 93.1668 40.135C93.7468 39.845 94.2068 39.49 94.5468 39.07C94.8968 38.65 95.1318 38.255 95.2518 37.885C95.4418 37.425 95.5468 36.9 95.5668 36.31C95.5968 35.71 95.6118 35.225 95.6118 34.855L96.7218 35.185C95.6318 35.355 94.6968 35.505 93.9168 35.635C93.1368 35.765 92.4668 35.89 91.9068 36.01C91.3468 36.12 90.8518 36.245 90.4218 36.385C90.0018 36.535 89.6468 36.71 89.3568 36.91C89.0668 37.11 88.8418 37.34 88.6818 37.6C88.5318 37.86 88.4568 38.165 88.4568 38.515C88.4568 38.915 88.5568 39.27 88.7568 39.58C88.9568 39.88 89.2468 40.12 89.6268 40.3C90.0168 40.48 90.4968 40.57 91.0668 40.57ZM106.896 43L101.016 26.8H104.631L108.711 38.545L112.776 26.8H116.406L110.526 43H106.896ZM123.478 43L117.598 26.8H121.213L125.293 38.545L129.358 26.8H132.988L127.108 43H123.478ZM137.664 50.2L140.784 41.635L140.844 44.155L133.779 26.8H137.544L142.554 39.64H141.594L146.469 26.8H150.084L141.054 50.2H137.664Z" fill="white"/>
<path d="M49.2985 45.2785C55.1354 37.6604 56.5692 27.5123 53.2364 18.4954C50.8128 11.9379 46.0202 6.78254 39.7945 3.70264C32.2366 -0.0368382 22.8449 0.10386 15.4253 4.12717C10.0083 7.0642 6.01642 11.3432 3.4497 16.964C-1.5772 27.9726 1.28312 41.6374 10.6464 49.4587C15.6796 53.6629 21.5206 55.7549 28.1694 55.7348C36.3836 55.7096 44.3082 51.7912 49.2985 45.2785Z" stroke="white"/>
<path d="M4.4206 28.012C4.17092 39.8395 12.5461 50.313 24.3338 52.0989C27.9687 52.6498 31.504 52.395 34.9399 51.3345C46.4486 47.7829 52.9947 36.4311 51.2901 24.6067C50.2523 17.4067 45.8045 10.8907 39.4357 7.35864C28.2701 1.16712 14.5956 4.87732 7.97221 15.7216C5.69881 19.4438 4.51494 23.5405 4.4206 28.012Z" stroke="white"/>
<path d="M23.5182 20.911C25.492 22.6466 23.6784 25.8062 22.6748 27.4962C22.1446 28.3886 21.6097 29.2781 21.0702 30.1646C20.6527 30.8504 20.3613 31.359 20.1959 31.6903C19.9097 32.2653 20.3464 32.8964 20.9946 32.7256C21.2321 32.663 21.4126 32.4556 21.5728 32.2718C26.2091 26.9524 30.8537 21.64 35.5068 16.3347C35.5247 16.3141 35.5203 16.3013 35.4938 16.2965C35.4114 16.2829 35.3284 16.2761 35.2449 16.2761C30.2676 16.2783 25.2901 16.2799 20.3122 16.281C19.0663 16.281 19.2078 17.3074 19.9454 17.897C20.9892 18.7298 22.1801 19.7345 23.5182 20.911Z" stroke="white"/>
<path d="M32.072 33.0543C32.1501 31.8629 32.7576 30.6755 33.4066 29.5914C34.1461 28.3552 34.8854 27.1192 35.6244 25.8836C35.7708 25.6372 35.8912 25.3574 35.8098 25.1094C35.6683 24.6756 35.3972 24.4994 34.9965 24.5807C34.7168 24.6377 34.5517 24.8646 34.3646 25.0793C30.1627 29.9129 25.9688 34.7571 21.7831 39.6118C21.7807 39.6144 21.7791 39.6177 21.7785 39.6212C21.778 39.6247 21.7785 39.6283 21.78 39.6315C21.7814 39.6347 21.7838 39.6374 21.7869 39.6393C21.7899 39.6411 21.7934 39.642 21.797 39.6419C26.4587 39.6424 31.1229 39.6422 35.7895 39.6411C36.1056 39.6411 36.3195 39.6218 36.4312 39.5833C36.8809 39.4288 37.0053 38.9205 36.7622 38.5261C36.6711 38.3775 36.5502 38.242 36.3995 38.1194C35.9212 37.7296 34.9675 36.9369 33.5383 35.7414C32.6649 35.0103 31.9923 34.2775 32.072 33.0543Z" stroke="white"/>
<path d="M53.2364 18.4954C56.5692 27.5123 55.1354 37.6604 49.2985 45.2785C44.3082 51.7912 36.3836 55.7096 28.1694 55.7348C21.5206 55.7549 15.6796 53.6629 10.6464 49.4587C1.28312 41.6374 -1.5772 27.9726 3.4497 16.964C6.01642 11.3432 10.0083 7.0642 15.4253 4.12717C22.8449 0.10386 32.2366 -0.0368382 39.7945 3.70264C46.0202 6.78254 50.8128 11.9379 53.2364 18.4954ZM4.42076 28.0117C4.17108 39.8392 12.5463 50.3127 24.334 52.0986C27.9688 52.6495 31.5042 52.3947 34.94 51.3342C46.4488 47.7826 52.9949 36.4308 51.2902 24.6064C50.2525 17.4064 45.8046 10.8904 39.4358 7.35834C28.2703 1.16682 14.5957 4.87701 7.97237 15.7213C5.69897 19.4434 4.5151 23.5402 4.42076 28.0117Z" fill="white"/>
<path d="M23.5182 20.911C22.1801 19.7345 20.9892 18.7298 19.9454 17.897C19.2078 17.3074 19.0663 16.281 20.3122 16.281C25.2901 16.2799 30.2676 16.2783 35.2449 16.2761C35.3284 16.2761 35.4114 16.2829 35.4938 16.2965C35.5203 16.3013 35.5247 16.3141 35.5068 16.3347C30.8537 21.64 26.2091 26.9524 21.5728 32.2718C21.4126 32.4556 21.2321 32.663 20.9946 32.7256C20.3464 32.8964 19.9097 32.2653 20.1959 31.6903C20.3613 31.359 20.6527 30.8504 21.0702 30.1646C21.6097 29.2781 22.1446 28.3886 22.6748 27.4962C23.6784 25.8062 25.492 22.6466 23.5182 20.911Z" fill="white"/>
<path d="M32.072 33.0543C31.9923 34.2775 32.6649 35.0103 33.5383 35.7414C34.9675 36.9369 35.9212 37.7296 36.3995 38.1194C36.5502 38.242 36.6711 38.3775 36.7622 38.5261C37.0053 38.9205 36.8809 39.4288 36.4312 39.5833C36.3195 39.6218 36.1056 39.6411 35.7895 39.6411C31.1229 39.6422 26.4587 39.6424 21.797 39.6419C21.7934 39.642 21.7899 39.6411 21.7869 39.6393C21.7838 39.6374 21.7814 39.6347 21.78 39.6315C21.7785 39.6283 21.778 39.6247 21.7785 39.6212C21.7791 39.6177 21.7807 39.6144 21.7831 39.6118C25.9688 34.7571 30.1627 29.9129 34.3646 25.0793C34.5517 24.8646 34.7168 24.6377 34.9965 24.5807C35.3972 24.4994 35.6683 24.6756 35.8098 25.1094C35.8912 25.3574 35.7708 25.6372 35.6244 25.8836C34.8854 27.1192 34.1461 28.3552 33.4066 29.5914C32.7576 30.6755 32.1501 31.8629 32.072 33.0543Z" fill="white"/>
</svg>
