<svg width="157" height="159" viewBox="0 0 157 159" fill="none" xmlns="http://www.w3.org/2000/svg">
<path d="M139.642 128.23C156.401 106.35 160.518 77.2038 150.949 51.3064C143.99 32.4727 130.23 17.6659 112.355 8.82015C90.6547 -1.91976 63.6896 -1.51566 42.3867 10.0396C26.8336 18.475 15.3722 30.7647 8.00274 46.9081C-6.43033 78.5258 1.78213 117.772 28.6657 140.236C43.1168 152.311 59.8873 158.319 78.9771 158.261C102.561 158.189 125.314 146.935 139.642 128.23Z" stroke="white"/>
<path d="M10.7903 78.6391C10.0733 112.609 34.1199 142.69 67.9644 147.819C78.4008 149.401 88.5512 148.669 98.4162 145.624C131.46 135.423 150.255 102.82 145.36 68.8588C142.381 48.1797 129.61 29.4652 111.324 19.3206C79.2661 1.53807 40.0044 12.1941 20.9875 43.3399C14.4602 54.0305 11.061 65.7966 10.7903 78.6391Z" stroke="white"/>
<path d="M65.6226 58.2445C71.2897 63.2293 66.0826 72.304 63.2011 77.1578C61.6788 79.7208 60.143 82.2756 58.594 84.8217C57.3953 86.7914 56.5586 88.2521 56.0837 89.2036C55.262 90.8551 56.5159 92.6677 58.3769 92.1771C59.0588 91.9973 59.5771 91.4016 60.037 90.8738C73.3486 75.5959 86.6841 60.3382 100.044 45.1009C100.095 45.0418 100.083 45.005 100.007 44.9912C99.77 44.9522 99.5317 44.9326 99.2919 44.9326C85.0013 44.9389 70.71 44.9435 56.4177 44.9467C52.8405 44.9467 53.2467 47.8946 55.3645 49.588C58.3614 51.9799 61.7807 54.8655 65.6226 58.2445Z" stroke="white"/>
<path d="M90.1821 93.1213C90.4063 89.6994 92.1506 86.2891 94.0139 83.1755C96.1372 79.625 98.2598 76.0751 100.382 72.5263C100.802 71.8187 101.148 71.0151 100.914 70.3028C100.508 69.0569 99.7293 68.5508 98.5788 68.7843C97.7757 68.948 97.3017 69.5997 96.7645 70.2163C84.7002 84.0989 72.6588 98.0119 60.6409 111.955C60.6341 111.962 60.6295 111.972 60.6277 111.982C60.6263 111.992 60.6277 112.002 60.632 112.012C60.6361 112.021 60.643 112.029 60.6519 112.034C60.6605 112.039 60.6705 112.042 60.6809 112.041C74.0654 112.043 87.4571 112.042 100.856 112.039C101.763 112.039 102.377 111.984 102.698 111.873C103.989 111.429 104.346 109.97 103.648 108.837C103.387 108.41 103.04 108.021 102.607 107.669C101.234 106.549 98.4955 104.272 94.3921 100.839C91.8844 98.7391 89.9532 96.6344 90.1821 93.1213Z" stroke="white"/>
<path d="M150.949 51.3064C160.518 77.2038 156.401 106.35 139.642 128.23C125.314 146.935 102.561 158.189 78.9771 158.261C59.8873 158.319 43.1168 152.311 28.6657 140.236C1.78213 117.772 -6.43033 78.5258 8.00274 46.9081C15.3722 30.7647 26.8336 18.475 42.3867 10.0396C63.6896 -1.51566 90.6547 -1.91976 112.355 8.82015C130.23 17.6659 143.99 32.4727 150.949 51.3064ZM10.7909 78.6381C10.074 112.608 34.1206 142.689 67.965 147.818C78.4011 149.4 88.5518 148.668 98.4166 145.623C131.46 135.422 150.255 102.819 145.361 68.8578C142.381 48.1787 129.611 29.4642 111.325 19.3197C79.2668 1.53709 40.0047 12.1931 20.9882 43.339C14.4608 54.0292 11.0617 65.7956 10.7909 78.6381Z" fill="white"/>
<path d="M65.6226 58.2445C61.7807 54.8655 58.3614 51.9799 55.3645 49.588C53.2467 47.8946 52.8405 44.9467 56.4177 44.9467C70.71 44.9435 85.0013 44.9389 99.2919 44.9326C99.5317 44.9326 99.77 44.9522 100.007 44.9912C100.083 45.005 100.095 45.0418 100.044 45.1009C86.6841 60.3382 73.3486 75.5959 60.037 90.8738C59.5771 91.4016 59.0588 91.9973 58.3769 92.1771C56.5159 92.6677 55.262 90.8551 56.0837 89.2036C56.5586 88.2521 57.3953 86.7914 58.594 84.8217C60.143 82.2756 61.6788 79.7208 63.2011 77.1578C66.0826 72.304 71.2897 63.2293 65.6226 58.2445Z" fill="white"/>
<path d="M90.1821 93.1213C89.9532 96.6344 91.8844 98.7391 94.3921 100.839C98.4955 104.272 101.234 106.549 102.607 107.669C103.04 108.021 103.387 108.41 103.648 108.837C104.346 109.97 103.989 111.429 102.698 111.873C102.377 111.984 101.763 112.039 100.856 112.039C87.4571 112.042 74.0654 112.043 60.6809 112.041C60.6705 112.042 60.6605 112.039 60.6519 112.034C60.643 112.029 60.6361 112.021 60.632 112.012C60.6277 112.002 60.6263 111.992 60.6277 111.982C60.6295 111.972 60.6341 111.962 60.6409 111.955C72.6588 98.0119 84.7002 84.0989 96.7645 70.2163C97.3017 69.5997 97.7757 68.948 98.5788 68.7843C99.7293 68.5508 100.508 69.0569 100.914 70.3028C101.148 71.0151 100.802 71.8187 100.382 72.5263C98.2598 76.0751 96.1372 79.625 94.0139 83.1755C92.1506 86.2891 90.4063 89.6994 90.1821 93.1213Z" fill="white"/>
</svg>
