<svg width="163" height="86" viewBox="0 0 163 86" fill="none" xmlns="http://www.w3.org/2000/svg">
<path d="M81.095 65.45C79.515 65.45 78.09 65.175 76.82 64.625C75.56 64.075 74.52 63.29 73.7 62.27C72.89 61.24 72.375 60.02 72.155 58.61L75.905 58.04C76.225 59.32 76.88 60.31 77.87 61.01C78.87 61.71 80.02 62.06 81.32 62.06C82.09 62.06 82.815 61.94 83.495 61.7C84.175 61.46 84.725 61.11 85.145 60.65C85.575 60.19 85.79 59.625 85.79 58.955C85.79 58.655 85.74 58.38 85.64 58.13C85.54 57.87 85.39 57.64 85.19 57.44C85 57.24 84.75 57.06 84.44 56.9C84.14 56.73 83.79 56.585 83.39 56.465L77.81 54.815C77.33 54.675 76.81 54.49 76.25 54.26C75.7 54.02 75.175 53.695 74.675 53.285C74.185 52.865 73.78 52.335 73.46 51.695C73.15 51.045 72.995 50.245 72.995 49.295C72.995 47.905 73.345 46.74 74.045 45.8C74.755 44.85 75.705 44.14 76.895 43.67C78.095 43.2 79.425 42.97 80.885 42.98C82.365 42.99 83.685 43.245 84.845 43.745C86.005 44.235 86.975 44.95 87.755 45.89C88.535 46.83 89.085 47.965 89.405 49.295L85.52 49.97C85.36 49.21 85.05 48.565 84.59 48.035C84.14 47.495 83.585 47.085 82.925 46.805C82.275 46.525 81.58 46.375 80.84 46.355C80.12 46.345 79.45 46.455 78.83 46.685C78.22 46.905 77.725 47.225 77.345 47.645C76.975 48.065 76.79 48.555 76.79 49.115C76.79 49.645 76.95 50.08 77.27 50.42C77.59 50.75 77.985 51.015 78.455 51.215C78.935 51.405 79.42 51.565 79.91 51.695L83.78 52.775C84.31 52.915 84.905 53.105 85.565 53.345C86.225 53.585 86.86 53.92 87.47 54.35C88.08 54.78 88.58 55.345 88.97 56.045C89.37 56.745 89.57 57.635 89.57 58.715C89.57 59.835 89.335 60.82 88.865 61.67C88.405 62.51 87.78 63.21 86.99 63.77C86.2 64.33 85.295 64.75 84.275 65.03C83.265 65.31 82.205 65.45 81.095 65.45ZM97.3468 65.45C96.1768 65.45 95.1868 65.23 94.3768 64.79C93.5668 64.34 92.9518 63.745 92.5318 63.005C92.1218 62.265 91.9168 61.45 91.9168 60.56C91.9168 59.78 92.0468 59.08 92.3068 58.46C92.5668 57.83 92.9668 57.29 93.5068 56.84C94.0468 56.38 94.7468 56.005 95.6068 55.715C96.2568 55.505 97.0168 55.315 97.8868 55.145C98.7668 54.975 99.7168 54.82 100.737 54.68C101.767 54.53 102.842 54.37 103.962 54.2L102.672 54.935C102.682 53.815 102.432 52.99 101.922 52.46C101.412 51.93 100.552 51.665 99.3418 51.665C98.6118 51.665 97.9068 51.835 97.2268 52.175C96.5468 52.515 96.0718 53.1 95.8018 53.93L92.5018 52.895C92.9018 51.525 93.6618 50.425 94.7818 49.595C95.9118 48.765 97.4318 48.35 99.3418 48.35C100.782 48.35 102.047 48.585 103.137 49.055C104.237 49.525 105.052 50.295 105.582 51.365C105.872 51.935 106.047 52.52 106.107 53.12C106.167 53.71 106.197 54.355 106.197 55.055V65H103.032V61.49L103.557 62.06C102.827 63.23 101.972 64.09 100.992 64.64C100.022 65.18 98.8068 65.45 97.3468 65.45ZM98.0668 62.57C98.8868 62.57 99.5868 62.425 100.167 62.135C100.747 61.845 101.207 61.49 101.547 61.07C101.897 60.65 102.132 60.255 102.252 59.885C102.442 59.425 102.547 58.9 102.567 58.31C102.597 57.71 102.612 57.225 102.612 56.855L103.722 57.185C102.632 57.355 101.697 57.505 100.917 57.635C100.137 57.765 99.4668 57.89 98.9068 58.01C98.3468 58.12 97.8518 58.245 97.4218 58.385C97.0018 58.535 96.6468 58.71 96.3568 58.91C96.0668 59.11 95.8418 59.34 95.6818 59.6C95.5318 59.86 95.4568 60.165 95.4568 60.515C95.4568 60.915 95.5568 61.27 95.7568 61.58C95.9568 61.88 96.2468 62.12 96.6268 62.3C97.0168 62.48 97.4968 62.57 98.0668 62.57ZM113.896 65L108.016 48.8H111.631L115.711 60.545L119.776 48.8H123.406L117.526 65H113.896ZM130.478 65L124.598 48.8H128.213L132.293 60.545L136.358 48.8H139.988L134.108 65H130.478ZM144.664 72.2L147.784 63.635L147.844 66.155L140.779 48.8H144.544L149.554 61.64H148.594L153.469 48.8H157.084L148.054 72.2H144.664Z" fill="white"/>
<path d="M56.2985 67.2785C62.1354 59.6604 63.5692 49.5123 60.2364 40.4954C57.8128 33.9379 53.0202 28.7825 46.7945 25.7026C39.2366 21.9632 29.8449 22.1039 22.4253 26.1272C17.0083 29.0642 13.0164 33.3432 10.4497 38.964C5.4228 49.9726 8.28312 63.6374 17.6464 71.4587C22.6796 75.6629 28.5206 77.7549 35.1694 77.7348C43.3836 77.7096 51.3082 73.7912 56.2985 67.2785Z" stroke="white"/>
<path d="M11.4205 50.012C11.1708 61.8395 19.546 72.313 31.3337 74.0989C34.9685 74.6498 38.5039 74.395 41.9397 73.3345C53.4485 69.7829 59.9946 58.4311 58.29 46.6067C57.2522 39.4067 52.8044 32.8907 46.4356 29.3586C35.27 23.1671 21.5955 26.8773 14.9721 37.7216C12.6987 41.4438 11.5148 45.5405 11.4205 50.012Z" stroke="white"/>
<path d="M30.5182 42.911C32.492 44.6466 30.6784 47.8062 29.6748 49.4962C29.1446 50.3886 28.6097 51.2781 28.0702 52.1646C27.6527 52.8504 27.3613 53.359 27.1959 53.6903C26.9097 54.2653 27.3464 54.8964 27.9946 54.7256C28.2321 54.663 28.4126 54.4556 28.5728 54.2718C33.2091 48.9524 37.8537 43.64 42.5068 38.3347C42.5247 38.3141 42.5203 38.3013 42.4938 38.2965C42.4114 38.2829 42.3284 38.2761 42.2449 38.2761C37.2676 38.2783 32.2901 38.2799 27.3122 38.281C26.0663 38.281 26.2078 39.3074 26.9454 39.897C27.9892 40.7298 29.1801 41.7345 30.5182 42.911Z" stroke="white"/>
<path d="M39.072 55.0543C39.1501 53.8629 39.7576 52.6755 40.4066 51.5914C41.1461 50.3552 41.8854 49.1192 42.6244 47.8836C42.7708 47.6372 42.8912 47.3574 42.8098 47.1094C42.6683 46.6756 42.3972 46.4994 41.9965 46.5807C41.7168 46.6377 41.5517 46.8646 41.3646 47.0793C37.1627 51.9129 32.9688 56.7571 28.7831 61.6118C28.7807 61.6144 28.7791 61.6177 28.7785 61.6212C28.778 61.6247 28.7785 61.6283 28.78 61.6315C28.7814 61.6347 28.7838 61.6374 28.7869 61.6393C28.7899 61.6411 28.7934 61.642 28.797 61.6419C33.4587 61.6424 38.1229 61.6422 42.7895 61.6411C43.1056 61.6411 43.3195 61.6218 43.4312 61.5833C43.8809 61.4288 44.0053 60.9205 43.7622 60.5261C43.6711 60.3775 43.5502 60.242 43.3995 60.1194C42.9212 59.7296 41.9675 58.9369 40.5383 57.7414C39.6649 57.0103 38.9923 56.2775 39.072 55.0543Z" stroke="white"/>
<path d="M60.2364 40.4954C63.5692 49.5123 62.1354 59.6604 56.2985 67.2785C51.3082 73.7912 43.3836 77.7096 35.1694 77.7348C28.5206 77.7549 22.6796 75.6629 17.6464 71.4587C8.28312 63.6374 5.4228 49.9726 10.4497 38.964C13.0164 33.3432 17.0083 29.0642 22.4253 26.1272C29.8449 22.1039 39.2367 21.9632 46.7945 25.7026C53.0202 28.7825 57.8128 33.9379 60.2364 40.4954ZM11.4208 50.0117C11.1711 61.8392 19.5463 72.3127 31.334 74.0986C34.9688 74.6495 38.5042 74.3947 41.94 73.3342C53.4488 69.7826 59.9949 58.4308 58.2902 46.6064C57.2525 39.4064 52.8046 32.8904 46.4358 29.3583C35.2703 23.1668 21.5957 26.877 14.9724 37.7213C12.699 41.4434 11.5151 45.5402 11.4208 50.0117Z" fill="white"/>
<path d="M30.5182 42.911C29.1801 41.7345 27.9892 40.7298 26.9454 39.897C26.2078 39.3074 26.0663 38.281 27.3122 38.281C32.2901 38.2799 37.2676 38.2783 42.2449 38.2761C42.3284 38.2761 42.4114 38.2829 42.4938 38.2965C42.5203 38.3013 42.5247 38.3141 42.5068 38.3347C37.8537 43.64 33.2091 48.9524 28.5728 54.2718C28.4126 54.4556 28.2321 54.663 27.9946 54.7256C27.3464 54.8964 26.9097 54.2653 27.1959 53.6903C27.3613 53.359 27.6527 52.8504 28.0702 52.1646C28.6097 51.2781 29.1446 50.3886 29.6748 49.4962C30.6784 47.8062 32.492 44.6466 30.5182 42.911Z" fill="white"/>
<path d="M39.072 55.0543C38.9923 56.2775 39.6649 57.0103 40.5383 57.7414C41.9675 58.9369 42.9212 59.7296 43.3995 60.1194C43.5502 60.242 43.6711 60.3775 43.7622 60.5261C44.0054 60.9205 43.8809 61.4288 43.4312 61.5833C43.3195 61.6218 43.1056 61.6411 42.7895 61.6411C38.1229 61.6422 33.4587 61.6424 28.797 61.6419C28.7934 61.642 28.7899 61.6411 28.7869 61.6393C28.7838 61.6374 28.7814 61.6347 28.78 61.6315C28.7785 61.6283 28.778 61.6247 28.7785 61.6212C28.7791 61.6177 28.7807 61.6144 28.7831 61.6118C32.9688 56.7571 37.1627 51.9129 41.3646 47.0793C41.5517 46.8646 41.7168 46.6377 41.9965 46.5807C42.3972 46.4994 42.6683 46.6756 42.8098 47.1094C42.8912 47.3574 42.7708 47.6372 42.6244 47.8836C41.8854 49.1192 41.1461 50.3552 40.4066 51.5914C39.7576 52.6755 39.1501 53.8629 39.072 55.0543Z" fill="white"/>
</svg>
