<svg width="157" height="159" viewBox="0 0 157 159" fill="none" xmlns="http://www.w3.org/2000/svg">
<path d="M139.642 128.23C156.401 106.35 160.518 77.2038 150.949 51.3064C143.99 32.4727 130.23 17.6659 112.355 8.82015C90.6548 -1.91976 63.6897 -1.51566 42.3868 10.0396C26.8337 18.475 15.3723 30.7647 8.00286 46.9081C-6.4302 78.5258 1.78225 117.772 28.6658 140.236C43.1169 152.311 59.8874 158.319 78.9772 158.261C102.562 158.189 125.314 146.935 139.642 128.23Z" stroke="white"/>
<path d="M10.7904 78.6391C10.0735 112.609 34.12 142.69 67.9645 147.819C78.4009 149.401 88.5513 148.669 98.4164 145.624C131.46 135.423 150.255 102.82 145.36 68.8588C142.381 48.1797 129.61 29.4652 111.325 19.3206C79.2663 1.53807 40.0045 12.1941 20.9876 43.3399C14.4603 54.0305 11.0611 65.7966 10.7904 78.6391Z" stroke="white"/>
<path d="M65.6229 58.2445C71.29 63.2293 66.0828 72.304 63.2013 77.1578C61.679 79.7208 60.1432 82.2756 58.5942 84.8217C57.3955 86.7914 56.5589 88.2521 56.084 89.2036C55.2623 90.8551 56.5161 92.6677 58.3772 92.1771C59.0591 91.9973 59.5773 91.4016 60.0373 90.8738C73.3489 75.5959 86.6843 60.3382 100.044 45.1009C100.096 45.0418 100.083 45.005 100.007 44.9912C99.7702 44.9522 99.5319 44.9326 99.2922 44.9326C85.0015 44.9389 70.7103 44.9435 56.4179 44.9467C52.8407 44.9467 53.247 47.8946 55.3648 49.588C58.3617 51.9799 61.781 54.8655 65.6229 58.2445Z" stroke="white"/>
<path d="M90.1822 93.1213C90.4064 89.6994 92.1507 86.2891 94.0141 83.1755C96.1373 79.625 98.2599 76.0751 100.382 72.5263C100.802 71.8187 101.148 71.0151 100.914 70.3028C100.508 69.0569 99.7294 68.5508 98.5789 68.7843C97.7759 68.948 97.3018 69.5997 96.7646 70.2163C84.7003 84.0989 72.6589 98.0119 60.6411 111.955C60.6342 111.962 60.6296 111.972 60.6279 111.982C60.6264 111.992 60.6279 112.002 60.6322 112.012C60.6362 112.021 60.6431 112.029 60.652 112.034C60.6606 112.039 60.6706 112.042 60.681 112.041C74.0655 112.043 87.4572 112.042 100.856 112.039C101.763 112.039 102.377 111.984 102.698 111.873C103.989 111.429 104.347 109.97 103.649 108.837C103.387 108.41 103.04 108.021 102.607 107.669C101.234 106.549 98.4957 104.272 94.3922 100.839C91.8845 98.7391 89.9534 96.6344 90.1822 93.1213Z" stroke="white"/>
<path d="M150.949 51.3064C160.518 77.2038 156.401 106.35 139.642 128.23C125.314 146.935 102.562 158.189 78.9772 158.261C59.8874 158.319 43.1169 152.311 28.6658 140.236C1.78225 117.772 -6.4302 78.5258 8.00286 46.9081C15.3723 30.7647 26.8337 18.475 42.3868 10.0396C63.6897 -1.51566 90.6548 -1.91976 112.355 8.82015C130.23 17.6659 143.99 32.4727 150.949 51.3064ZM10.791 78.6381C10.0741 112.608 34.1207 142.689 67.9651 147.818C78.4012 149.4 88.552 148.668 98.4167 145.623C131.46 135.422 150.255 102.819 145.361 68.8578C142.381 48.1787 129.611 29.4642 111.325 19.3197C79.2669 1.53709 40.0049 12.1931 20.9883 43.339C14.461 54.0292 11.0618 65.7956 10.791 78.6381Z" fill="white"/>
<path d="M65.6229 58.2445C61.781 54.8655 58.3617 51.9799 55.3648 49.588C53.247 47.8946 52.8407 44.9467 56.4179 44.9467C70.7103 44.9435 85.0015 44.9389 99.2922 44.9326C99.5319 44.9326 99.7702 44.9522 100.007 44.9912C100.083 45.005 100.096 45.0418 100.044 45.1009C86.6843 60.3382 73.3489 75.5959 60.0373 90.8738C59.5773 91.4016 59.0591 91.9973 58.3772 92.1771C56.5161 92.6677 55.2623 90.8551 56.084 89.2036C56.5589 88.2521 57.3955 86.7914 58.5942 84.8217C60.1432 82.2756 61.679 79.7208 63.2013 77.1578C66.0828 72.304 71.29 63.2293 65.6229 58.2445Z" fill="white"/>
<path d="M90.1822 93.1213C89.9534 96.6344 91.8845 98.7391 94.3922 100.839C98.4957 104.272 101.234 106.549 102.607 107.669C103.04 108.021 103.387 108.41 103.649 108.837C104.347 109.97 103.989 111.429 102.698 111.873C102.377 111.984 101.763 112.039 100.856 112.039C87.4572 112.042 74.0655 112.043 60.681 112.041C60.6706 112.042 60.6606 112.039 60.652 112.034C60.6431 112.029 60.6362 112.021 60.6322 112.012C60.6279 112.002 60.6264 111.992 60.6279 111.982C60.6296 111.972 60.6342 111.962 60.6411 111.955C72.6589 98.0119 84.7003 84.0989 96.7646 70.2163C97.3018 69.5997 97.7759 68.948 98.5789 68.7843C99.7294 68.5508 100.508 69.0569 100.914 70.3028C101.148 71.0151 100.802 71.8187 100.382 72.5263C98.2599 76.0751 96.1373 79.625 94.0141 83.1755C92.1507 86.2891 90.4064 89.6994 90.1822 93.1213Z" fill="white"/>
</svg>
