<?xml version="1.0" encoding="UTF-8"?>
<!DOCTYPE svg PUBLIC "-//W3C//DTD SVG 1.1//EN" "http://www.w3.org/Graphics/SVG/1.1/DTD/svg11.dtd">
<svg xmlns="http://www.w3.org/2000/svg" version="1.1" width="150px" height="150px" style="shape-rendering:geometricPrecision; text-rendering:geometricPrecision; image-rendering:optimizeQuality; fill-rule:evenodd; clip-rule:evenodd" xmlns:xlink="http://www.w3.org/1999/xlink">
<g><path style="opacity:0.871" fill="#e58a85" d="M 129.5,44.5 C 128.883,44.3893 128.383,44.056 128,43.5C 127.501,39.8484 127.335,36.1817 127.5,32.5C 127.665,29.1501 127.498,25.8168 127,22.5C 125.301,21.5939 123.467,21.2606 121.5,21.5C 118.833,21.5 116.167,21.5 113.5,21.5C 113.5,22.8333 113.5,24.1667 113.5,25.5C 111.201,26.1379 109.034,27.1379 107,28.5C 106.805,29.8193 106.972,31.1526 107.5,32.5C 104.556,30.845 102.223,28.5117 100.5,25.5C 99.5481,23.9547 99.2148,22.288 99.5,20.5C 108.473,19.4507 117.473,19.2841 126.5,20C 127.333,20.8333 128.167,21.6667 129,22.5C 129.5,29.8258 129.666,37.1591 129.5,44.5 Z"/></g>
<g><path style="opacity:0.979" fill="#e9e9e9" d="M 99.5,20.5 C 99.2148,22.288 99.5481,23.9547 100.5,25.5C 102.223,28.5117 104.556,30.845 107.5,32.5C 107.92,34.0936 108.586,35.5936 109.5,37C 108.863,38.7126 107.863,38.8793 106.5,37.5C 103.789,41.5187 100.122,42.5187 95.5,40.5C 80.9568,41.2416 73.9568,48.9083 74.5,63.5C 72.2845,62.956 70.2845,61.956 68.5,60.5C 67.5637,58.5585 66.2303,56.8919 64.5,55.5C 63.3735,57.2695 63.8735,58.6028 66,59.5C 66.7494,60.635 66.5827,61.635 65.5,62.5C 64.3954,60.3886 62.7288,59.0553 60.5,58.5C 60.1667,58.5 59.8333,58.5 59.5,58.5C 66.4611,47.9097 74.1278,37.9097 82.5,28.5C 88.2013,25.8023 93.868,23.1357 99.5,20.5 Z"/></g>
<g><path style="opacity:1" fill="#dd2d2d" d="M 121.5,21.5 C 123.467,21.2606 125.301,21.5939 127,22.5C 127.498,25.8168 127.665,29.1501 127.5,32.5C 123.5,34.8333 119.5,37.1667 115.5,39.5C 115.158,38.6618 114.492,38.3284 113.5,38.5C 112.136,36.8089 110.803,35.1423 109.5,33.5C 111.613,27.9803 115.613,24.9803 121.5,24.5C 121.5,23.5 121.5,22.5 121.5,21.5 Z"/></g>
<g><path style="opacity:1" fill="#f06465" d="M 121.5,21.5 C 121.5,22.5 121.5,23.5 121.5,24.5C 115.613,24.9803 111.613,27.9803 109.5,33.5C 108.833,33.1667 108.167,32.8333 107.5,32.5C 106.972,31.1526 106.805,29.8193 107,28.5C 109.034,27.1379 111.201,26.1379 113.5,25.5C 113.5,24.1667 113.5,22.8333 113.5,21.5C 116.167,21.5 118.833,21.5 121.5,21.5 Z"/></g>
<g><path style="opacity:1" fill="#942c11" d="M 127.5,32.5 C 127.335,36.1817 127.501,39.8484 128,43.5C 128.383,44.056 128.883,44.3893 129.5,44.5C 129.233,47.3121 128.233,49.6455 126.5,51.5C 123.196,47.1944 119.529,43.1944 115.5,39.5C 119.5,37.1667 123.5,34.8333 127.5,32.5 Z"/></g>
<g><path style="opacity:1" fill="#d4d6d7" d="M 107.5,32.5 C 108.167,32.8333 108.833,33.1667 109.5,33.5C 110.803,35.1423 112.136,36.8089 113.5,38.5C 114.677,40.1026 114.511,41.436 113,42.5C 108.808,39.4969 107.975,39.9969 110.5,44C 107.211,46.2088 103.544,47.0421 99.5,46.5C 99.3893,45.8826 99.056,45.3826 98.5,45C 96.1902,44.5034 93.8568,44.3367 91.5,44.5C 90.1266,44.3433 88.7932,44.51 87.5,45C 85.2657,46.7498 82.9324,48.2498 80.5,49.5C 79.0813,55.8771 77.7479,62.3771 76.5,69C 77.3366,70.0113 77.67,71.1779 77.5,72.5C 74.9179,72.0254 72.9179,72.6921 71.5,74.5C 65.5481,81.1186 59.2147,87.4519 52.5,93.5C 51.675,94.3857 50.675,94.719 49.5,94.5C 48.4489,93.7777 47.7822,92.7777 47.5,91.5C 49.371,91.1412 50.871,90.1412 52,88.5C 57.9427,80.7209 64.4427,73.3876 71.5,66.5C 70.4412,64.4664 69.4412,62.4664 68.5,60.5C 70.2845,61.956 72.2845,62.956 74.5,63.5C 73.9568,48.9083 80.9568,41.2416 95.5,40.5C 100.122,42.5187 103.789,41.5187 106.5,37.5C 107.863,38.8793 108.863,38.7126 109.5,37C 108.586,35.5936 107.92,34.0936 107.5,32.5 Z"/></g>
<g><path style="opacity:1" fill="#94d5ed" d="M 91.5,44.5 C 88.8705,48.7966 85.5372,52.4633 81.5,55.5C 80.5481,57.0453 80.2148,58.712 80.5,60.5C 79.6648,57.0063 79.6648,53.3397 80.5,49.5C 82.9324,48.2498 85.2657,46.7498 87.5,45C 88.7932,44.51 90.1266,44.3433 91.5,44.5 Z"/></g>
<g><path style="opacity:1" fill="#a4a2a2" d="M 113.5,38.5 C 114.492,38.3284 115.158,38.6618 115.5,39.5C 119.529,43.1944 123.196,47.1944 126.5,51.5C 124.909,61.7176 119.576,69.0509 110.5,73.5C 112.067,70.7173 113.9,68.0507 116,65.5C 117.658,62.6913 118.825,59.6913 119.5,56.5C 119.471,54.9707 118.804,53.804 117.5,53C 110.867,51.4494 107.867,53.9494 108.5,60.5C 106.801,60.5271 105.467,61.1938 104.5,62.5C 104.665,58.8183 104.499,55.1516 104,51.5C 103.292,50.6195 102.458,49.9528 101.5,49.5C 101.218,48.2223 100.551,47.2223 99.5,46.5C 103.544,47.0421 107.211,46.2088 110.5,44C 107.975,39.9969 108.808,39.4969 113,42.5C 114.511,41.436 114.677,40.1026 113.5,38.5 Z"/></g>
<g><path style="opacity:1" fill="#3691de" d="M 101.5,49.5 C 102.458,49.9528 103.292,50.6195 104,51.5C 104.499,55.1516 104.665,58.8183 104.5,62.5C 103.833,62.5 103.167,62.5 102.5,62.5C 103.643,59.4977 103.643,56.4977 102.5,53.5C 97.0599,57.2299 92.3932,61.7299 88.5,67C 92.2211,67.6781 95.8878,67.5114 99.5,66.5C 99.1788,68.0481 98.1788,68.7148 96.5,68.5C 92.0134,70.1969 88.0134,69.5302 84.5,66.5C 83.7822,64.8632 83.6155,63.1966 84,61.5C 88.8006,57.701 93.3006,53.5343 97.5,49C 98.9285,48.4209 100.262,48.5876 101.5,49.5 Z"/></g>
<g><path style="opacity:0.934" fill="#989899" d="M 110.5,73.5 C 108.107,76.9341 105.107,79.7674 101.5,82C 97.7873,84.1858 94.1207,86.3525 90.5,88.5C 84.843,90.9789 79.843,94.4789 75.5,99C 74.552,99.4828 73.552,99.6495 72.5,99.5C 70.0546,96.0499 69.888,92.3832 72,88.5C 73.9258,84.7402 76.4258,81.4069 79.5,78.5C 80.325,77.6143 81.325,77.281 82.5,77.5C 82.2965,75.6096 82.9632,74.1096 84.5,73C 88.4402,71.9847 92.4402,71.4847 96.5,71.5C 96.5,70.5 96.5,69.5 96.5,68.5C 98.1788,68.7148 99.1788,68.0481 99.5,66.5C 101.912,66.3059 102.912,64.9726 102.5,62.5C 103.167,62.5 103.833,62.5 104.5,62.5C 105.467,61.1938 106.801,60.5271 108.5,60.5C 107.867,53.9494 110.867,51.4494 117.5,53C 118.804,53.804 119.471,54.9707 119.5,56.5C 118.825,59.6913 117.658,62.6913 116,65.5C 113.9,68.0507 112.067,70.7173 110.5,73.5 Z"/></g>
<g><path style="opacity:0.946" fill="#1170d7" d="M 59.5,58.5 C 59.8333,58.5 60.1667,58.5 60.5,58.5C 60.2914,59.9217 59.7914,61.255 59,62.5C 56.4687,63.9227 54.6353,65.9227 53.5,68.5C 52.1266,68.3433 50.7932,68.51 49.5,69C 49.9574,69.414 50.2907,69.914 50.5,70.5C 43.8765,73.639 36.8765,75.3057 29.5,75.5C 28.1667,76.1667 26.8333,76.8333 25.5,77.5C 25.8627,78.1835 26.1961,78.8501 26.5,79.5C 24.6891,79.428 23.3557,78.5947 22.5,77C 24.8047,74.8807 26.4714,72.3807 27.5,69.5C 33.2809,64.91 39.2809,60.41 45.5,56C 50.2703,56.1371 54.937,56.9704 59.5,58.5 Z"/></g>
<g><path style="opacity:1" fill="#52b0e7" d="M 91.5,44.5 C 93.8568,44.3367 96.1902,44.5034 98.5,45C 99.056,45.3826 99.3893,45.8826 99.5,46.5C 100.551,47.2223 101.218,48.2223 101.5,49.5C 100.262,48.5876 98.9285,48.4209 97.5,49C 93.3006,53.5343 88.8006,57.701 84,61.5C 83.6155,63.1966 83.7822,64.8632 84.5,66.5C 82.3703,65.0359 81.037,63.0359 80.5,60.5C 80.2148,58.712 80.5481,57.0453 81.5,55.5C 85.5372,52.4633 88.8705,48.7966 91.5,44.5 Z"/></g>
<g><path style="opacity:0.997" fill="#e5e8eb" d="M 68.5,60.5 C 69.4412,62.4664 70.4412,64.4664 71.5,66.5C 64.4427,73.3876 57.9427,80.7209 52,88.5C 50.871,90.1412 49.371,91.1412 47.5,91.5C 46.596,90.791 46.2627,89.791 46.5,88.5C 44.2776,88.822 42.4443,88.1554 41,86.5C 40.7216,87.4158 40.2216,88.0825 39.5,88.5C 39.5,87.5 39.5,86.5 39.5,85.5C 41.1003,84.748 42.6003,83.748 44,82.5C 47.7461,78.249 50.9127,73.5823 53.5,68.5C 54.6353,65.9227 56.4687,63.9227 59,62.5C 59.7914,61.255 60.2914,59.9217 60.5,58.5C 62.7288,59.0553 64.3954,60.3886 65.5,62.5C 66.5827,61.635 66.7494,60.635 66,59.5C 63.8735,58.6028 63.3735,57.2695 64.5,55.5C 66.2303,56.8919 67.5637,58.5585 68.5,60.5 Z"/></g>
<g><path style="opacity:1" fill="#1a7bdb" d="M 102.5,62.5 C 102.912,64.9726 101.912,66.3059 99.5,66.5C 95.8878,67.5114 92.2211,67.6781 88.5,67C 92.3932,61.7299 97.0599,57.2299 102.5,53.5C 103.643,56.4977 103.643,59.4977 102.5,62.5 Z"/></g>
<g><path style="opacity:1" fill="#1b63b6" d="M 53.5,68.5 C 50.9127,73.5823 47.7461,78.249 44,82.5C 42.6003,83.748 41.1003,84.748 39.5,85.5C 35.1429,83.4948 30.8095,81.4948 26.5,79.5C 26.1961,78.8501 25.8627,78.1835 25.5,77.5C 26.8333,76.8333 28.1667,76.1667 29.5,75.5C 36.8765,75.3057 43.8765,73.639 50.5,70.5C 50.2907,69.914 49.9574,69.414 49.5,69C 50.7932,68.51 52.1266,68.3433 53.5,68.5 Z"/></g>
<g><path style="opacity:0.968" fill="#a8aaab" d="M 80.5,49.5 C 79.6648,53.3397 79.6648,57.0063 80.5,60.5C 81.037,63.0359 82.3703,65.0359 84.5,66.5C 88.0134,69.5302 92.0134,70.1969 96.5,68.5C 96.5,69.5 96.5,70.5 96.5,71.5C 92.4402,71.4847 88.4402,71.9847 84.5,73C 82.9632,74.1096 82.2965,75.6096 82.5,77.5C 81.325,77.281 80.325,77.6143 79.5,78.5C 76.4258,81.4069 73.9258,84.7402 72,88.5C 69.888,92.3832 70.0546,96.0499 72.5,99.5C 68.9208,102.071 65.5874,105.071 62.5,108.5C 60.6074,104.393 57.9408,100.893 54.5,98C 56.6622,94.8206 58.6622,91.654 60.5,88.5C 61.675,88.719 62.675,88.3857 63.5,87.5C 66.7906,84.1752 70.1239,80.8419 73.5,77.5C 74.3857,76.675 74.719,75.675 74.5,74.5C 73.5,74.5 72.5,74.5 71.5,74.5C 72.9179,72.6921 74.9179,72.0254 77.5,72.5C 77.67,71.1779 77.3366,70.0113 76.5,69C 77.7479,62.3771 79.0813,55.8771 80.5,49.5 Z"/></g>
<g><path style="opacity:0.795" fill="#1771d3" d="M 47.5,91.5 C 47.7822,92.7777 48.4489,93.7777 49.5,94.5C 46.8333,95.8333 44.1667,95.8333 41.5,94.5C 40.8333,94.5 40.1667,94.5 39.5,94.5C 37.4551,93.0772 36.4551,91.0772 36.5,88.5C 37.5,88.5 38.5,88.5 39.5,88.5C 40.2216,88.0825 40.7216,87.4158 41,86.5C 42.4443,88.1554 44.2776,88.822 46.5,88.5C 46.2627,89.791 46.596,90.791 47.5,91.5 Z"/></g>
<g><path style="opacity:0.96" fill="#2b5388" d="M 71.5,74.5 C 72.5,74.5 73.5,74.5 74.5,74.5C 74.719,75.675 74.3857,76.675 73.5,77.5C 70.1239,80.8419 66.7906,84.1752 63.5,87.5C 62.675,88.3857 61.675,88.719 60.5,88.5C 58.6622,91.654 56.6622,94.8206 54.5,98C 57.9408,100.893 60.6074,104.393 62.5,108.5C 65.5874,105.071 68.9208,102.071 72.5,99.5C 73.552,99.6495 74.552,99.4828 75.5,99C 79.843,94.4789 84.843,90.9789 90.5,88.5C 91.1213,92.8963 92.1213,97.2296 93.5,101.5C 93.4573,102.416 93.1239,103.083 92.5,103.5C 83.4372,105.853 74.7705,109.187 66.5,113.5C 64.9743,112.895 63.9743,111.729 63.5,110C 62.552,109.517 61.552,109.351 60.5,109.5C 60.5,110.5 60.5,111.5 60.5,112.5C 57.9228,112.545 55.9228,111.545 54.5,109.5C 54.573,107.973 53.9063,106.973 52.5,106.5C 52.6716,105.508 52.3382,104.842 51.5,104.5C 50.2209,103.032 48.5542,102.365 46.5,102.5C 46.913,99.6798 45.913,97.6798 43.5,96.5C 42.8333,96.5 42.1667,96.5 41.5,96.5C 41.5,95.8333 41.5,95.1667 41.5,94.5C 44.1667,95.8333 46.8333,95.8333 49.5,94.5C 50.675,94.719 51.675,94.3857 52.5,93.5C 59.2147,87.4519 65.5481,81.1186 71.5,74.5 Z"/></g>
<g><path style="opacity:1" fill="#f9e18e" d="M 43.5,96.5 C 45.913,97.6798 46.913,99.6798 46.5,102.5C 48.5542,102.365 50.2209,103.032 51.5,104.5C 45.6596,108.499 42.3262,106.999 41.5,100C 41.8618,98.5657 42.5285,97.3991 43.5,96.5 Z"/></g>
<g><path style="opacity:1" fill="#fe9418" d="M 39.5,94.5 C 40.1667,94.5 40.8333,94.5 41.5,94.5C 41.5,95.1667 41.5,95.8333 41.5,96.5C 39.0751,97.4238 37.0751,98.9238 35.5,101C 35.3314,104.126 35.6647,107.293 36.5,110.5C 37.8333,110.5 39.1667,110.5 40.5,110.5C 40.3505,111.552 40.5172,112.552 41,113.5C 42.6948,112.843 44.5281,112.843 46.5,113.5C 49.8966,112.432 51.8966,110.099 52.5,106.5C 53.9063,106.973 54.573,107.973 54.5,109.5C 54.3969,112.636 53.3969,115.302 51.5,117.5C 51.5386,116.244 51.0386,115.244 50,114.5C 47.8298,116.167 45.9965,118.167 44.5,120.5C 41.0472,121.282 37.7138,121.616 34.5,121.5C 31.3542,118.283 29.0209,114.617 27.5,110.5C 26.7962,106.197 28.1295,102.697 31.5,100C 30.244,99.5831 29.5774,98.7498 29.5,97.5C 32.556,95.7507 35.8894,94.7507 39.5,94.5 Z"/></g>
<g><path style="opacity:1" fill="#ffca45" d="M 41.5,96.5 C 42.1667,96.5 42.8333,96.5 43.5,96.5C 42.5285,97.3991 41.8618,98.5657 41.5,100C 42.3262,106.999 45.6596,108.499 51.5,104.5C 52.3382,104.842 52.6716,105.508 52.5,106.5C 51.8966,110.099 49.8966,112.432 46.5,113.5C 44.5281,112.843 42.6948,112.843 41,113.5C 40.5172,112.552 40.3505,111.552 40.5,110.5C 39.1667,110.5 37.8333,110.5 36.5,110.5C 35.6647,107.293 35.3314,104.126 35.5,101C 37.0751,98.9238 39.0751,97.4238 41.5,96.5 Z"/></g>
<g><path style="opacity:0.811" fill="#185dac" d="M 92.5,103.5 C 86.9146,112.254 80.0812,119.92 72,126.5C 70.2821,124.215 68.7821,121.715 67.5,119C 66.7665,117.234 66.4332,115.401 66.5,113.5C 74.7705,109.187 83.4372,105.853 92.5,103.5 Z"/></g>
<g><path style="opacity:1" fill="#f65c0c" d="M 27.5,110.5 C 29.0209,114.617 31.3542,118.283 34.5,121.5C 37.7138,121.616 41.0472,121.282 44.5,120.5C 45.9965,118.167 47.8298,116.167 50,114.5C 51.0386,115.244 51.5386,116.244 51.5,117.5C 49.9467,123.04 46.28,125.373 40.5,124.5C 37.3875,124.151 34.0542,124.151 30.5,124.5C 30.5,123.5 30.5,122.5 30.5,121.5C 27.4659,121.391 26.4659,120.057 27.5,117.5C 26.675,116.614 25.675,116.281 24.5,116.5C 24.0311,113.607 25.0311,111.607 27.5,110.5 Z"/></g>
<g><path style="opacity:0.486" fill="#ec341b" d="M 29.5,97.5 C 29.5774,98.7498 30.244,99.5831 31.5,100C 28.1295,102.697 26.7962,106.197 27.5,110.5C 25.0311,111.607 24.0311,113.607 24.5,116.5C 25.675,116.281 26.675,116.614 27.5,117.5C 26.4659,120.057 27.4659,121.391 30.5,121.5C 30.5,122.5 30.5,123.5 30.5,124.5C 34.0542,124.151 37.3875,124.151 40.5,124.5C 38.801,125.511 37.301,126.845 36,128.5C 33.1154,129.946 30.4488,129.613 28,127.5C 25.6667,128.833 23.3333,128.833 21,127.5C 21.8711,123.055 21.5378,118.721 20,114.5C 20.6322,112.469 21.7988,110.802 23.5,109.5C 24.2592,106.843 24.9258,104.177 25.5,101.5C 27.2156,100.451 28.5489,99.118 29.5,97.5 Z"/></g>
</svg>
