<?xml version="1.0" encoding="UTF-8"?>
<!DOCTYPE svg PUBLIC "-//W3C//DTD SVG 1.1//EN" "http://www.w3.org/Graphics/SVG/1.1/DTD/svg11.dtd">
<svg xmlns="http://www.w3.org/2000/svg" version="1.1" width="150px" height="150px" style="shape-rendering:geometricPrecision; text-rendering:geometricPrecision; image-rendering:optimizeQuality; fill-rule:evenodd; clip-rule:evenodd" xmlns:xlink="http://www.w3.org/1999/xlink">
<g><path style="opacity:0.971" fill="#ee0402" d="M 82.5,13.5 C 81.4019,14.397 81.4019,15.2303 82.5,16C 79.3283,18.0064 76.6617,20.5064 74.5,23.5C 70.3525,24.167 66.3525,24.8337 62.5,25.5C 59.6122,24.9898 57.2789,25.6565 55.5,27.5C 52.9339,27.3444 50.4339,27.6777 48,28.5C 42.3844,31.5762 37.2177,35.2429 32.5,39.5C 25.552,47.2642 20.8854,56.2642 18.5,66.5C 17.6745,70.9819 17.1745,75.6486 17,80.5C 13.3247,84.0687 9.82475,87.7353 6.5,91.5C 1.10621,69.4061 5.60621,49.4061 20,31.5C 37.5358,14.3533 58.3691,8.35327 82.5,13.5 Z"/></g>
<g><path style="opacity:0.908" fill="#d20703" d="M 82.5,13.5 C 91.2641,15.0768 98.9308,18.7435 105.5,24.5C 103.898,28.021 101.565,31.021 98.5,33.5C 97.2736,34.3629 95.9403,34.3629 94.5,33.5C 88.5615,29.2625 81.8949,26.9291 74.5,26.5C 70.7016,25.5166 66.7016,25.1832 62.5,25.5C 66.3525,24.8337 70.3525,24.167 74.5,23.5C 76.6617,20.5064 79.3283,18.0064 82.5,16C 81.4019,15.2303 81.4019,14.397 82.5,13.5 Z"/></g>
<g><path style="opacity:1" fill="#ec827d" d="M 62.5,25.5 C 66.7016,25.1832 70.7016,25.5166 74.5,26.5C 68.1082,26.2487 61.7748,26.582 55.5,27.5C 57.2789,25.6565 59.6122,24.9898 62.5,25.5 Z"/></g>
<g><path style="opacity:1" fill="#ebd7ce" d="M 74.5,26.5 C 81.8949,26.9291 88.5615,29.2625 94.5,33.5C 102.386,39.2599 108.386,46.5932 112.5,55.5C 112.611,56.1174 112.944,56.6174 113.5,57C 108.882,57.994 104.215,58.494 99.5,58.5C 97.5419,55.2693 95.5419,51.936 93.5,48.5C 89.7932,46.1062 86.1265,43.7729 82.5,41.5C 78.9605,40.9973 75.6272,39.9973 72.5,38.5C 75.7852,35.8815 78.7852,32.8815 81.5,29.5C 78.7051,29.0615 76.3717,28.0615 74.5,26.5 Z"/></g>
<g><path style="opacity:0.948" fill="#ba0804" d="M 105.5,24.5 C 112.773,28.7358 118.106,34.7358 121.5,42.5C 120.469,47.0638 118.469,51.2305 115.5,55C 114.552,55.4828 113.552,55.6495 112.5,55.5C 108.386,46.5932 102.386,39.2599 94.5,33.5C 95.9403,34.3629 97.2736,34.3629 98.5,33.5C 101.565,31.021 103.898,28.021 105.5,24.5 Z"/></g>
<g><path style="opacity:0.931" fill="#2487ae" d="M 143.5,46.5 C 136.8,46.83 130.134,46.4967 123.5,45.5C 122.873,44.5832 122.539,43.5832 122.5,42.5C 125.399,35.339 130.732,32.839 138.5,35C 142.907,37.5317 144.574,41.365 143.5,46.5 Z"/></g>
<g><path style="opacity:1" fill="#e90b06" d="M 72.5,38.5 C 75.6272,39.9973 78.9605,40.9973 82.5,41.5C 81.3057,44.7046 79.3057,47.3713 76.5,49.5C 71.1104,49.783 66.1104,50.783 61.5,52.5C 52.1788,54.4878 46.5122,60.1545 44.5,69.5C 42.7499,72.3554 41.9165,75.6887 42,79.5C 39.4687,82.8881 36.302,85.2214 32.5,86.5C 32.5,85.8333 32.5,85.1667 32.5,84.5C 31.2132,77.4926 31.2132,70.4926 32.5,63.5C 36.626,51.2087 44.9593,43.042 57.5,39C 62.4889,38.5007 67.4889,38.3341 72.5,38.5 Z"/></g>
<g><path style="opacity:1" fill="#f2e6df" d="M 74.5,26.5 C 76.3717,28.0615 78.7051,29.0615 81.5,29.5C 78.7852,32.8815 75.7852,35.8815 72.5,38.5C 67.4889,38.3341 62.4889,38.5007 57.5,39C 44.9593,43.042 36.626,51.2087 32.5,63.5C 31.7784,63.9175 31.2784,64.5842 31,65.5C 30.8333,68.6667 30.6667,71.8333 30.5,75C 30.5152,78.5758 31.1818,81.7425 32.5,84.5C 32.5,85.1667 32.5,85.8333 32.5,86.5C 32.7959,88.403 33.4625,90.0697 34.5,91.5C 34.3573,93.2624 34.6906,94.9291 35.5,96.5C 33.8333,98.8333 31.8333,100.833 29.5,102.5C 28.4305,101.09 27.0972,100.09 25.5,99.5C 19.6839,89.4242 17.3506,78.4242 18.5,66.5C 20.8854,56.2642 25.552,47.2642 32.5,39.5C 37.2177,35.2429 42.3844,31.5762 48,28.5C 50.4339,27.6777 52.9339,27.3444 55.5,27.5C 61.7748,26.582 68.1082,26.2487 74.5,26.5 Z"/></g>
<g><path style="opacity:0.927" fill="#2586ac" d="M 143.5,48.5 C 145.442,51.4716 147.109,54.6383 148.5,58C 145.155,68.4993 138.821,70.9993 129.5,65.5C 129.5,65.1667 129.5,64.8333 129.5,64.5C 132.356,60.7074 133.356,56.5407 132.5,52C 136.169,50.7208 139.836,49.5541 143.5,48.5 Z"/></g>
<g><path style="opacity:1" fill="#be1009" d="M 82.5,41.5 C 86.1265,43.7729 89.7932,46.1062 93.5,48.5C 95.5419,51.936 97.5419,55.2693 99.5,58.5C 95.7142,60.1758 91.7142,61.8425 87.5,63.5C 81.695,53.4179 73.0284,49.7512 61.5,52.5C 66.1104,50.783 71.1104,49.783 76.5,49.5C 79.3057,47.3713 81.3057,44.7046 82.5,41.5 Z"/></g>
<g><path style="opacity:1" fill="#eddfd7" d="M 87.5,63.5 C 82.7265,63.1243 78.3931,64.1243 74.5,66.5C 73.8333,66.5 73.1667,66.5 72.5,66.5C 61.2734,63.5816 56.6067,67.7483 58.5,79C 59.3707,80.3638 60.3707,81.5305 61.5,82.5C 61.62,83.5862 62.2867,84.2528 63.5,84.5C 66.1147,85.2692 68.7814,85.6025 71.5,85.5C 73.0378,89.0307 74.0378,92.6973 74.5,96.5C 70.3656,97.4849 66.0323,97.8182 61.5,97.5C 60.609,96.8902 59.609,96.5569 58.5,96.5C 55.3758,94.979 52.3758,93.3124 49.5,91.5C 48.2376,88.8739 46.9043,86.2072 45.5,83.5C 44.5067,78.8804 44.1734,74.2137 44.5,69.5C 46.5122,60.1545 52.1788,54.4878 61.5,52.5C 73.0284,49.7512 81.695,53.4179 87.5,63.5 Z"/></g>
<g><path style="opacity:1" fill="#dfd0c5" d="M 113.5,60.5 C 115.84,69.8082 115.84,79.1416 113.5,88.5C 113.109,92.5404 111.776,96.2071 109.5,99.5C 106.925,102.319 104.592,105.319 102.5,108.5C 101.504,108.586 100.671,108.252 100,107.5C 98.815,104.068 97.6484,100.735 96.5,97.5C 96.5,97.1667 96.5,96.8333 96.5,96.5C 99.057,92.8623 101.057,88.8623 102.5,84.5C 103.222,84.0825 103.722,83.4158 104,82.5C 104.167,79.8333 104.333,77.1667 104.5,74.5C 104.478,71.4098 103.812,68.7432 102.5,66.5C 102.5,66.1667 102.5,65.8333 102.5,65.5C 105.714,63.0394 109.381,61.3727 113.5,60.5 Z"/></g>
<g><path style="opacity:1" fill="#2b728d" d="M 121.5,42.5 C 121.833,42.5 122.167,42.5 122.5,42.5C 122.539,43.5832 122.873,44.5832 123.5,45.5C 130.134,46.4967 136.8,46.83 143.5,46.5C 143.5,47.1667 143.5,47.8333 143.5,48.5C 139.836,49.5541 136.169,50.7208 132.5,52C 133.356,56.5407 132.356,60.7074 129.5,64.5C 125.27,61.7582 120.604,60.4249 115.5,60.5C 114.833,60.5 114.167,60.5 113.5,60.5C 109.381,61.3727 105.714,63.0394 102.5,65.5C 97.9428,66.5486 93.9428,68.5486 90.5,71.5C 86.002,71.9595 81.6687,72.9595 77.5,74.5C 77.1667,74.5 76.8333,74.5 76.5,74.5C 75.5084,74.6716 74.8417,74.3382 74.5,73.5C 74.5,71.1667 74.5,68.8333 74.5,66.5C 78.3931,64.1243 82.7265,63.1243 87.5,63.5C 91.7142,61.8425 95.7142,60.1758 99.5,58.5C 104.215,58.494 108.882,57.994 113.5,57C 112.944,56.6174 112.611,56.1174 112.5,55.5C 113.552,55.6495 114.552,55.4828 115.5,55C 118.469,51.2305 120.469,47.0638 121.5,42.5 Z"/></g>
<g><path style="opacity:1" fill="#d9c8bd" d="M 90.5,71.5 C 90.7685,76.3471 90.1018,81.0138 88.5,85.5C 87.8333,85.5 87.1667,85.5 86.5,85.5C 83.6135,83.5584 80.6135,81.8918 77.5,80.5C 77.5,78.5 77.5,76.5 77.5,74.5C 81.6687,72.9595 86.002,71.9595 90.5,71.5 Z"/></g>
<g><path style="opacity:1" fill="#bd6f43" d="M 72.5,66.5 C 73.1667,66.5 73.8333,66.5 74.5,66.5C 74.5,68.8333 74.5,71.1667 74.5,73.5C 72.5,73.8333 70.5,74.1667 68.5,74.5C 68.6941,72.0882 70.0274,71.0882 72.5,71.5C 72.5,69.8333 72.5,68.1667 72.5,66.5 Z"/></g>
<g><path style="opacity:1" fill="#c4867f" d="M 102.5,66.5 C 103.812,68.7432 104.478,71.4098 104.5,74.5C 104.333,77.1667 104.167,79.8333 104,82.5C 103.722,83.4158 103.222,84.0825 102.5,84.5C 103.726,78.4787 103.726,72.4787 102.5,66.5 Z"/></g>
<g><path style="opacity:1" fill="#8d0907" d="M 102.5,65.5 C 102.5,65.8333 102.5,66.1667 102.5,66.5C 103.726,72.4787 103.726,78.4787 102.5,84.5C 101.057,88.8623 99.057,92.8623 96.5,96.5C 92.5309,94.7635 89.5309,91.9302 87.5,88C 88.2524,87.3292 88.5858,86.4959 88.5,85.5C 90.1018,81.0138 90.7685,76.3471 90.5,71.5C 93.9428,68.5486 97.9428,66.5486 102.5,65.5 Z"/></g>
<g><path style="opacity:1" fill="#ed5e57" d="M 32.5,63.5 C 31.2132,70.4926 31.2132,77.4926 32.5,84.5C 31.1818,81.7425 30.5152,78.5758 30.5,75C 30.6667,71.8333 30.8333,68.6667 31,65.5C 31.2784,64.5842 31.7784,63.9175 32.5,63.5 Z"/></g>
<g><path style="opacity:1" fill="#cd948a" d="M 113.5,60.5 C 114.167,60.5 114.833,60.5 115.5,60.5C 116.443,67.1442 116.609,73.8108 116,80.5C 116.053,83.6752 115.22,86.3419 113.5,88.5C 115.84,79.1416 115.84,69.8082 113.5,60.5 Z"/></g>
<g><path style="opacity:0.964" fill="#8c0303" d="M 115.5,60.5 C 120.604,60.4249 125.27,61.7582 129.5,64.5C 129.5,64.8333 129.5,65.1667 129.5,65.5C 129.678,68.9766 130.345,72.31 131.5,75.5C 130.407,78.7694 129.741,82.1027 129.5,85.5C 122.544,90.9544 116.044,96.9544 110,103.5C 109.51,102.207 109.343,100.873 109.5,99.5C 111.776,96.2071 113.109,92.5404 113.5,88.5C 115.22,86.3419 116.053,83.6752 116,80.5C 116.609,73.8108 116.443,67.1442 115.5,60.5 Z"/></g>
<g><path style="opacity:1" fill="#cc120c" d="M 72.5,66.5 C 72.5,68.1667 72.5,69.8333 72.5,71.5C 70.0274,71.0882 68.6941,72.0882 68.5,74.5C 66.877,77.2153 66.2104,80.2153 66.5,83.5C 64.7085,83.634 63.0418,83.3007 61.5,82.5C 60.3707,81.5305 59.3707,80.3638 58.5,79C 56.6067,67.7483 61.2734,63.5816 72.5,66.5 Z"/></g>
<g><path style="opacity:1" fill="#7f1615" d="M 74.5,73.5 C 74.8417,74.3382 75.5084,74.6716 76.5,74.5C 75.9807,80.6882 72.6473,83.6882 66.5,83.5C 66.2104,80.2153 66.877,77.2153 68.5,74.5C 70.5,74.1667 72.5,73.8333 74.5,73.5 Z"/></g>
<g><path style="opacity:1" fill="#94857e" d="M 76.5,74.5 C 76.8333,74.5 77.1667,74.5 77.5,74.5C 77.5,76.5 77.5,78.5 77.5,80.5C 80.6135,81.8918 83.6135,83.5584 86.5,85.5C 86.5086,87.3084 86.0086,88.9751 85,90.5C 82.4418,92.6616 79.9418,94.6616 77.5,96.5C 76.5,96.5 75.5,96.5 74.5,96.5C 74.0378,92.6973 73.0378,89.0307 71.5,85.5C 68.7814,85.6025 66.1147,85.2692 63.5,84.5C 62.2867,84.2528 61.62,83.5862 61.5,82.5C 63.0418,83.3007 64.7085,83.634 66.5,83.5C 72.6473,83.6882 75.9807,80.6882 76.5,74.5 Z"/></g>
<g><path style="opacity:1" fill="#571011" d="M 86.5,85.5 C 87.1667,85.5 87.8333,85.5 88.5,85.5C 88.5858,86.4959 88.2524,87.3292 87.5,88C 89.5309,91.9302 92.5309,94.7635 96.5,96.5C 96.5,96.8333 96.5,97.1667 96.5,97.5C 92.4925,100.51 88.8258,103.843 85.5,107.5C 84.8333,107.5 84.1667,107.5 83.5,107.5C 83.5792,106.07 83.2458,104.736 82.5,103.5C 80.0201,101.696 78.3535,99.3627 77.5,96.5C 79.9418,94.6616 82.4418,92.6616 85,90.5C 86.0086,88.9751 86.5086,87.3084 86.5,85.5 Z"/></g>
<g><path style="opacity:0.872" fill="#7c0302" d="M 129.5,85.5 C 125.392,109.11 112.226,125.444 90,134.5C 83.6395,136.445 77.1395,137.445 70.5,137.5C 70.3893,136.883 70.056,136.383 69.5,136C 75.0452,131.577 80.3785,126.911 85.5,122C 84.9056,121.536 84.2389,121.369 83.5,121.5C 86.6708,119.828 90.0041,118.161 93.5,116.5C 97.1463,114.518 100.146,111.851 102.5,108.5C 104.592,105.319 106.925,102.319 109.5,99.5C 109.343,100.873 109.51,102.207 110,103.5C 116.044,96.9544 122.544,90.9544 129.5,85.5 Z"/></g>
<g><path style="opacity:1" fill="#bf130a" d="M 44.5,69.5 C 44.1734,74.2137 44.5067,78.8804 45.5,83.5C 46.9043,86.2072 48.2376,88.8739 49.5,91.5C 52.3758,93.3124 55.3758,94.979 58.5,96.5C 58.5774,97.7498 59.244,98.5831 60.5,99C 58.1667,101.333 55.8333,103.667 53.5,106C 52.2068,106.49 50.8734,106.657 49.5,106.5C 46.8522,105.176 44.1855,103.843 41.5,102.5C 41.5,101.5 41.5,100.5 41.5,99.5C 40.5,99.5 39.5,99.5 38.5,99.5C 38.0035,96.3583 36.6702,93.6916 34.5,91.5C 33.4625,90.0697 32.7959,88.403 32.5,86.5C 36.302,85.2214 39.4687,82.8881 42,79.5C 41.9165,75.6887 42.7499,72.3554 44.5,69.5 Z"/></g>
<g><path style="opacity:1" fill="#8d160f" d="M 74.5,96.5 C 75.5,96.5 76.5,96.5 77.5,96.5C 78.3535,99.3627 80.0201,101.696 82.5,103.5C 83.2458,104.736 83.5792,106.07 83.5,107.5C 80.0424,110.114 76.0424,111.114 71.5,110.5C 70.3915,109.71 69.0581,109.21 67.5,109C 70.7008,106.298 73.3675,103.131 75.5,99.5C 70.6833,98.8331 66.0166,98.1665 61.5,97.5C 66.0323,97.8182 70.3656,97.4849 74.5,96.5 Z"/></g>
<g><path style="opacity:1" fill="#9e0403" d="M 58.5,96.5 C 59.609,96.5569 60.609,96.8902 61.5,97.5C 66.0166,98.1665 70.6833,98.8331 75.5,99.5C 73.3675,103.131 70.7008,106.298 67.5,109C 69.0581,109.21 70.3915,109.71 71.5,110.5C 63.5335,111.503 56.2002,110.169 49.5,106.5C 50.8734,106.657 52.2068,106.49 53.5,106C 55.8333,103.667 58.1667,101.333 60.5,99C 59.244,98.5831 58.5774,97.7498 58.5,96.5 Z"/></g>
<g><path style="opacity:1" fill="#90867f" d="M 96.5,97.5 C 97.6484,100.735 98.815,104.068 100,107.5C 100.671,108.252 101.504,108.586 102.5,108.5C 100.146,111.851 97.1463,114.518 93.5,116.5C 93.4142,115.504 93.7476,114.671 94.5,114C 93.552,113.517 92.552,113.351 91.5,113.5C 91.5,112.5 91.5,111.5 91.5,110.5C 89.2845,109.956 87.2845,108.956 85.5,107.5C 88.8258,103.843 92.4925,100.51 96.5,97.5 Z"/></g>
<g><path style="opacity:0.917" fill="#cb0904" d="M 18.5,66.5 C 17.3506,78.4242 19.6839,89.4242 25.5,99.5C 25.7286,101.433 26.5619,103.1 28,104.5C 30.0569,106.728 32.2236,108.728 34.5,110.5C 34.6567,111.873 34.49,113.207 34,114.5C 31.2709,117.399 28.4376,120.066 25.5,122.5C 19.3894,116.951 14.2227,110.617 10,103.5C 8.51949,99.5535 7.35283,95.5535 6.5,91.5C 9.82475,87.7353 13.3247,84.0687 17,80.5C 17.1745,75.6486 17.6745,70.9819 18.5,66.5 Z"/></g>
<g><path style="opacity:1" fill="#e3d0c5" d="M 34.5,91.5 C 36.6702,93.6916 38.0035,96.3583 38.5,99.5C 39.5,99.5 40.5,99.5 41.5,99.5C 41.5,100.5 41.5,101.5 41.5,102.5C 44.1855,103.843 46.8522,105.176 49.5,106.5C 56.2002,110.169 63.5335,111.503 71.5,110.5C 76.0424,111.114 80.0424,110.114 83.5,107.5C 84.1667,107.5 84.8333,107.5 85.5,107.5C 87.2845,108.956 89.2845,109.956 91.5,110.5C 91.5,111.5 91.5,112.5 91.5,113.5C 92.552,113.351 93.552,113.517 94.5,114C 93.7476,114.671 93.4142,115.504 93.5,116.5C 90.0041,118.161 86.6708,119.828 83.5,121.5C 82.8333,121.5 82.1667,121.5 81.5,121.5C 73.5341,122.365 65.5341,122.698 57.5,122.5C 56.0413,122.567 54.7079,122.234 53.5,121.5C 46.1439,119.451 39.8106,115.784 34.5,110.5C 32.2236,108.728 30.0569,106.728 28,104.5C 26.5619,103.1 25.7286,101.433 25.5,99.5C 27.0972,100.09 28.4305,101.09 29.5,102.5C 31.8333,100.833 33.8333,98.8333 35.5,96.5C 34.6906,94.9291 34.3573,93.2624 34.5,91.5 Z"/></g>
<g><path style="opacity:0.94" fill="#ac0302" d="M 34.5,110.5 C 39.8106,115.784 46.1439,119.451 53.5,121.5C 53.5774,122.75 54.244,123.583 55.5,124C 51.3715,126.769 48.0382,130.269 45.5,134.5C 37.9573,131.784 31.2906,127.784 25.5,122.5C 28.4376,120.066 31.2709,117.399 34,114.5C 34.49,113.207 34.6567,111.873 34.5,110.5 Z"/></g>
<g><path style="opacity:0.924" fill="#930000" d="M 53.5,121.5 C 54.7079,122.234 56.0413,122.567 57.5,122.5C 60.1864,123.991 63.1864,124.657 66.5,124.5C 70.8601,124.234 75.1934,123.734 79.5,123C 80.4158,122.722 81.0825,122.222 81.5,121.5C 82.1667,121.5 82.8333,121.5 83.5,121.5C 84.2389,121.369 84.9056,121.536 85.5,122C 80.3785,126.911 75.0452,131.577 69.5,136C 70.056,136.383 70.3893,136.883 70.5,137.5C 61.9553,137.958 53.6219,136.958 45.5,134.5C 48.0382,130.269 51.3715,126.769 55.5,124C 54.244,123.583 53.5774,122.75 53.5,121.5 Z"/></g>
<g><path style="opacity:1" fill="#b75a53" d="M 81.5,121.5 C 81.0825,122.222 80.4158,122.722 79.5,123C 75.1934,123.734 70.8601,124.234 66.5,124.5C 63.1864,124.657 60.1864,123.991 57.5,122.5C 65.5341,122.698 73.5341,122.365 81.5,121.5 Z"/></g>
</svg>
