<?xml version="1.0" encoding="UTF-8"?>
<!DOCTYPE svg PUBLIC "-//W3C//DTD SVG 1.1//EN" "http://www.w3.org/Graphics/SVG/1.1/DTD/svg11.dtd">
<svg xmlns="http://www.w3.org/2000/svg" version="1.1" width="150px" height="150px" style="shape-rendering:geometricPrecision; text-rendering:geometricPrecision; image-rendering:optimizeQuality; fill-rule:evenodd; clip-rule:evenodd" xmlns:xlink="http://www.w3.org/1999/xlink">
<g><path style="opacity:0.784" fill="#8f0000" d="M 90.5,11.5 C 89.2848,15.4678 88.2848,19.4678 87.5,23.5C 80.988,18.1362 78.6546,11.1362 80.5,2.5C 81.8333,2.5 83.1667,2.5 84.5,2.5C 84.3505,3.55198 84.5172,4.55198 85,5.5C 87.0811,7.37459 88.9144,9.37459 90.5,11.5 Z"/></g>
<g><path style="opacity:0.778" fill="#33520a" d="M 119.5,13.5 C 121.167,13.5 122.833,13.5 124.5,13.5C 124.5,16.1667 124.5,18.8333 124.5,21.5C 121.975,22.64 119.308,23.3067 116.5,23.5C 116.5,20.5 116.5,17.5 116.5,14.5C 117.791,14.7373 118.791,14.404 119.5,13.5 Z"/></g>
<g><path style="opacity:1" fill="#7da902" d="M 31.5,20.5 C 29.6974,22.081 28.3641,24.081 27.5,26.5C 24.4494,24.6191 23.7827,21.9524 25.5,18.5C 28.0176,17.4181 30.0176,18.0848 31.5,20.5 Z"/></g>
<g><path style="opacity:0.844" fill="#c90000" d="M 90.5,11.5 C 94.0047,12.7746 97.0047,14.7746 99.5,17.5C 99.7744,22.263 99.441,26.9296 98.5,31.5C 94.8151,28.8086 91.1484,26.1419 87.5,23.5C 88.2848,19.4678 89.2848,15.4678 90.5,11.5 Z"/></g>
<g><path style="opacity:0.606" fill="#f00000" d="M 99.5,17.5 C 102.72,20.0399 106.053,22.5399 109.5,25C 110.252,25.6708 110.586,26.5041 110.5,27.5C 110.845,31.1151 110.178,34.4484 108.5,37.5C 104.888,35.8718 101.555,33.8718 98.5,31.5C 99.441,26.9296 99.7744,22.263 99.5,17.5 Z"/></g>
<g><path style="opacity:0.224" fill="#4a7106" d="M 31.5,20.5 C 32.4967,23.005 32.4967,25.6717 31.5,28.5C 29.5168,28.8432 28.1834,28.1765 27.5,26.5C 28.3641,24.081 29.6974,22.081 31.5,20.5 Z"/></g>
<g><path style="opacity:0.961" fill="#40610a" d="M 56.5,33.5 C 56.33,32.1779 56.6634,31.0113 57.5,30C 55.8724,26.9484 54.539,23.7818 53.5,20.5C 53.5,19.1667 53.5,17.8333 53.5,16.5C 54.8333,16.5 56.1667,16.5 57.5,16.5C 58.6025,20.1008 59.6025,23.7674 60.5,27.5C 60.3559,30.3833 59.0226,32.3833 56.5,33.5 Z"/></g>
<g><path style="opacity:0.849" fill="#8dbf00" d="M 49.5,25.5 C 51.2973,28.6364 52.6307,31.9698 53.5,35.5C 52.3947,37.2231 50.7281,38.2231 48.5,38.5C 45.0355,35.9429 43.7021,32.6095 44.5,28.5C 46.0455,27.3604 47.7121,26.3604 49.5,25.5 Z"/></g>
<g><path style="opacity:0.685" fill="#ff9000" d="M 71.5,20.5 C 73.2572,21.292 74.5905,22.6253 75.5,24.5C 76.7362,25.2458 78.0695,25.5792 79.5,25.5C 77.7263,28.1181 76.7263,31.1181 76.5,34.5C 74.5165,34.6168 72.8498,33.9501 71.5,32.5C 70.4763,33.8532 69.143,34.5198 67.5,34.5C 67.3841,31.1401 67.0508,27.8067 66.5,24.5C 67.8333,24.5 69.1667,24.5 70.5,24.5C 70.4326,23.0413 70.7659,21.7079 71.5,20.5 Z"/></g>
<g><path style="opacity:1" fill="#ffd800" d="M 71.5,24.5 C 72.7079,25.2341 74.0413,25.5674 75.5,25.5C 75.5123,29.4459 73.5123,31.1126 69.5,30.5C 69.5792,29.0695 69.2458,27.7362 68.5,26.5C 69.6016,25.8243 70.6016,25.1577 71.5,24.5 Z"/></g>
<g><path style="opacity:0.304" fill="#6b9504" d="M 53.5,20.5 C 54.539,23.7818 55.8724,26.9484 57.5,30C 56.6634,31.0113 56.33,32.1779 56.5,33.5C 55.7095,34.4013 54.7095,35.0679 53.5,35.5C 52.6307,31.9698 51.2973,28.6364 49.5,25.5C 50.4839,23.5201 51.8173,21.8534 53.5,20.5 Z"/></g>
<g><path style="opacity:0.998" fill="#b30000" d="M 110.5,27.5 C 114.802,30.1812 117.135,34.1812 117.5,39.5C 115.718,40.7196 113.718,41.3862 111.5,41.5C 110.833,40.1667 110.167,40.1667 109.5,41.5C 109.326,43.861 108.993,46.1944 108.5,48.5C 107.5,48.5 106.5,48.5 105.5,48.5C 102.918,48.9746 100.918,48.3079 99.5,46.5C 100.461,43.9453 101.794,41.612 103.5,39.5C 105.527,39.6621 107.527,39.4955 109.5,39C 108.944,38.6174 108.611,38.1174 108.5,37.5C 110.178,34.4484 110.845,31.1151 110.5,27.5 Z"/></g>
<g><path style="opacity:0.515" fill="#669303" d="M 44.5,28.5 C 43.7021,32.6095 45.0355,35.9429 48.5,38.5C 47.3437,40.3873 45.677,41.7206 43.5,42.5C 41.4062,39.903 40.0729,36.903 39.5,33.5C 40.8333,31.5 42.5,29.8333 44.5,28.5 Z"/></g>
<g><path style="opacity:0.978" fill="#ea0000" d="M 91.5,36.5 C 95.8415,36.5532 99.8415,37.5532 103.5,39.5C 101.794,41.612 100.461,43.9453 99.5,46.5C 96.0184,46.1719 92.6851,46.1719 89.5,46.5C 90.6427,43.3161 91.3094,39.9827 91.5,36.5 Z"/></g>
<g><path style="opacity:0.708" fill="#3f6107" d="M 39.5,33.5 C 40.0729,36.903 41.4062,39.903 43.5,42.5C 43.1667,43.1667 42.8333,43.8333 42.5,44.5C 40.4352,44.4828 38.4352,44.1495 36.5,43.5C 35.4138,43.38 34.7472,42.7133 34.5,41.5C 35.8098,38.5046 37.4765,35.8379 39.5,33.5 Z"/></g>
<g><path style="opacity:0.873" fill="#870100" d="M 117.5,39.5 C 116.185,42.3221 115.185,45.3221 114.5,48.5C 111.365,49.7828 108.365,49.7828 105.5,48.5C 106.5,48.5 107.5,48.5 108.5,48.5C 108.993,46.1944 109.326,43.861 109.5,41.5C 110.167,41.5 110.833,41.5 111.5,41.5C 113.718,41.3862 115.718,40.7196 117.5,39.5 Z"/></g>
<g><path style="opacity:0.842" fill="#32530b" d="M 125.5,44.5 C 128.25,44.618 130.25,45.9514 131.5,48.5C 132.325,49.3857 133.325,49.719 134.5,49.5C 134.116,51.9294 133.449,54.2627 132.5,56.5C 124.712,55.8626 122.378,51.8626 125.5,44.5 Z"/></g>
<g><path style="opacity:1" fill="#7dac03" d="M 36.5,43.5 C 38.4352,44.1495 40.4352,44.4828 42.5,44.5C 46.514,45.5109 50.514,46.5109 54.5,47.5C 54.81,50.7131 54.4767,53.7131 53.5,56.5C 48.7815,55.3423 44.1148,54.009 39.5,52.5C 37.302,49.9059 36.302,46.9059 36.5,43.5 Z"/></g>
<g><path style="opacity:0.965" fill="#900000" d="M 91.5,36.5 C 91.3094,39.9827 90.6427,43.3161 89.5,46.5C 88.8333,46.5 88.5,46.8333 88.5,47.5C 88.13,51.1368 87.13,54.4701 85.5,57.5C 84.545,55.7165 83.8783,53.7165 83.5,51.5C 84.0389,47.0144 85.0389,42.681 86.5,38.5C 88.3224,38.1692 89.9891,37.5025 91.5,36.5 Z"/></g>
<g><path style="opacity:0.919" fill="#385a0a" d="M 54.5,47.5 C 59.6532,49.3269 62.6532,52.9936 63.5,58.5C 61.9008,57.438 60.2341,57.438 58.5,58.5C 56.8333,57.8333 55.1667,57.1667 53.5,56.5C 54.4767,53.7131 54.81,50.7131 54.5,47.5 Z"/></g>
<g><path style="opacity:0.717" fill="#32500a" d="M 66.5,52.5 C 69.1667,52.5 71.8333,52.5 74.5,52.5C 75.4811,58.6923 72.8145,61.359 66.5,60.5C 66.5,57.8333 66.5,55.1667 66.5,52.5 Z"/></g>
<g><path style="opacity:0.796" fill="#ffa300" d="M 20.5,47.5 C 24.3705,48.799 28.3705,49.4657 32.5,49.5C 31.1667,53.1667 31.1667,56.8333 32.5,60.5C 29.0941,60.302 26.0941,61.302 23.5,63.5C 21.9668,61.711 20.9668,59.711 20.5,57.5C 17.5,57.8333 16.1667,56.5 16.5,53.5C 20.0681,53.2407 21.4015,51.2407 20.5,47.5 Z"/></g>
<g><path style="opacity:1" fill="#ffe100" d="M 24.5,52.5 C 25.8333,52.5 27.1667,52.5 28.5,52.5C 28.5,54.1667 28.5,55.8333 28.5,57.5C 25.4741,59.0335 23.1408,58.2002 21.5,55C 22.9423,54.6232 23.9423,53.7899 24.5,52.5 Z"/></g>
<g><path style="opacity:0.998" fill="#d80000" d="M 88.5,47.5 C 94.9491,52.8936 97.6158,59.8936 96.5,68.5C 95.1667,68.8333 93.8333,69.1667 92.5,69.5C 90.1667,65.5 87.8333,61.5 85.5,57.5C 87.13,54.4701 88.13,51.1368 88.5,47.5 Z"/></g>
<g><path style="opacity:0.246" fill="#fabc40" d="M 53.5,64.5 C 53.6716,65.4916 53.3382,66.1583 52.5,66.5C 48.8333,66.5 45.1667,66.5 41.5,66.5C 41.5,70.1667 41.5,73.8333 41.5,77.5C 40.0966,74.0915 39.4299,70.4248 39.5,66.5C 39.5774,65.2502 40.244,64.4169 41.5,64C 45.554,63.3064 49.554,63.4731 53.5,64.5 Z"/></g>
<g><path style="opacity:0.969" fill="#80ab03" d="M 63.5,58.5 C 64.2778,59.1556 64.9444,59.9889 65.5,61C 64.1476,62.9644 63.3143,65.1311 63,67.5C 62.0053,68.0659 61.172,68.7326 60.5,69.5C 58.8212,69.2852 57.8212,69.9519 57.5,71.5C 56.1001,72.0998 55.1001,73.0998 54.5,74.5C 53.603,75.5981 52.7697,75.5981 52,74.5C 51.5065,72.8659 51.3398,71.1992 51.5,69.5C 52.404,68.791 52.7373,67.791 52.5,66.5C 53.3382,66.1583 53.6716,65.4916 53.5,64.5C 55.1667,62.5 56.8333,60.5 58.5,58.5C 60.2341,57.438 61.9008,57.438 63.5,58.5 Z"/></g>
<g><path style="opacity:0.88" fill="#35520b" d="M 84.5,72.5 C 82.1386,73.7879 80.6386,75.7879 80,78.5C 79.3292,77.7476 78.4959,77.4142 77.5,77.5C 75.7839,77.3713 74.1172,77.038 72.5,76.5C 72.5,75.1667 71.8333,74.5 70.5,74.5C 71.5389,70.1277 74.2055,67.461 78.5,66.5C 78.5,67.5 78.5,68.5 78.5,69.5C 81.216,69.3862 83.216,70.3862 84.5,72.5 Z"/></g>
<g><path style="opacity:0.521" fill="#f78928" d="M 60.5,69.5 C 64.0644,70.7376 67.3977,72.4042 70.5,74.5C 71.1098,75.391 71.4431,76.391 71.5,77.5C 70.8333,77.5 70.1667,77.5 69.5,77.5C 65.6615,75.322 61.6615,73.322 57.5,71.5C 57.8212,69.9519 58.8212,69.2852 60.5,69.5 Z"/></g>
<g><path style="opacity:0.662" fill="#7a0100" d="M 96.5,68.5 C 97.2606,75.3145 94.5939,79.9812 88.5,82.5C 88.5,79.1667 88.5,75.8333 88.5,72.5C 89.2114,70.7986 90.5447,69.7986 92.5,69.5C 93.8333,69.1667 95.1667,68.8333 96.5,68.5 Z"/></g>
<g><path style="opacity:1" fill="#4d5209" d="M 51.5,69.5 C 51.3398,71.1992 51.5065,72.8659 52,74.5C 52.7697,75.5981 53.603,75.5981 54.5,74.5C 53.9305,77.3345 52.2639,79.0012 49.5,79.5C 49.3359,76.8127 49.5026,74.146 50,71.5C 50.2784,70.5842 50.7784,69.9175 51.5,69.5 Z"/></g>
<g><path style="opacity:0.986" fill="#f80d01" d="M 72.5,76.5 C 74.1172,77.038 75.7839,77.3713 77.5,77.5C 77.8212,79.0481 78.8212,79.7148 80.5,79.5C 80.3253,81.6208 80.6586,83.6208 81.5,85.5C 79.9382,85.7329 78.6049,86.3995 77.5,87.5C 71.9732,88.3708 68.3066,91.3708 66.5,96.5C 65.5,96.5 64.5,96.5 63.5,96.5C 63.2213,91.4053 63.5546,86.4053 64.5,81.5C 66.8263,80.8553 68.493,79.522 69.5,77.5C 70.1667,77.5 70.8333,77.5 71.5,77.5C 72.1667,77.5 72.5,77.1667 72.5,76.5 Z"/></g>
<g><path style="opacity:0.997" fill="#ae0c00" d="M 84.5,72.5 C 85.8333,72.5 87.1667,72.5 88.5,72.5C 88.5,75.8333 88.5,79.1667 88.5,82.5C 86.6541,84.4546 84.3208,85.4546 81.5,85.5C 80.6586,83.6208 80.3253,81.6208 80.5,79.5C 78.8212,79.7148 77.8212,79.0481 77.5,77.5C 78.4959,77.4142 79.3292,77.7476 80,78.5C 80.6386,75.7879 82.1386,73.7879 84.5,72.5 Z"/></g>
<g><path style="opacity:0.996" fill="#ff9200" d="M 121.5,61.5 C 123.167,61.5 124.833,61.5 126.5,61.5C 126.187,64.2469 126.52,66.9135 127.5,69.5C 131.069,70.3469 132.402,72.3469 131.5,75.5C 129.311,76.1735 127.311,77.1735 125.5,78.5C 123.576,87.4795 120.909,87.8128 117.5,79.5C 107.313,80.8622 105.979,78.3622 113.5,72C 111.016,70.1079 109.682,67.6079 109.5,64.5C 112.85,64.665 116.183,64.4983 119.5,64C 120.756,63.5831 121.423,62.7498 121.5,61.5 Z"/></g>
<g><path style="opacity:1" fill="#ffd500" d="M 121.5,65.5 C 122.5,65.5 123.5,65.5 124.5,65.5C 124.814,70.7249 124.147,75.7249 122.5,80.5C 121.5,80.5 120.5,80.5 119.5,80.5C 119.5,79.5 119.5,78.5 119.5,77.5C 117.5,77.5 115.5,77.5 113.5,77.5C 113.472,75.4176 114.139,73.5843 115.5,72C 114.139,70.4157 113.472,68.5824 113.5,66.5C 116.385,66.8064 119.052,66.4731 121.5,65.5 Z"/></g>
<g><path style="opacity:1" fill="#d54d11" d="M 52.5,66.5 C 52.7373,67.791 52.404,68.791 51.5,69.5C 50.7784,69.9175 50.2784,70.5842 50,71.5C 49.5026,74.146 49.3359,76.8127 49.5,79.5C 52.2639,79.0012 53.9305,77.3345 54.5,74.5C 55.1001,73.0998 56.1001,72.0998 57.5,71.5C 61.6615,73.322 65.6615,75.322 69.5,77.5C 68.493,79.522 66.8263,80.8553 64.5,81.5C 60.3051,82.3063 56.1384,83.3063 52,84.5C 49.589,82.8466 48.4223,83.5133 48.5,86.5C 46.278,83.3245 43.9447,80.3245 41.5,77.5C 41.5,73.8333 41.5,70.1667 41.5,66.5C 45.1667,66.5 48.8333,66.5 52.5,66.5 Z"/></g>
<g><path style="opacity:0.869" fill="#ffef6f" d="M 39.5,66.5 C 39.4299,70.4248 40.0966,74.0915 41.5,77.5C 43.9447,80.3245 46.278,83.3245 48.5,86.5C 49.2341,87.7079 49.5674,89.0413 49.5,90.5C 48.1696,89.1679 46.5029,88.3345 44.5,88C 45.6956,87.3457 45.6956,86.8457 44.5,86.5C 39.6841,92.5788 34.0174,97.7455 27.5,102C 26.552,102.483 25.552,102.649 24.5,102.5C 27.997,89.8086 32.997,77.8086 39.5,66.5 Z"/></g>
<g><path style="opacity:1" fill="#f14f0e" d="M 64.5,81.5 C 63.5546,86.4053 63.2213,91.4053 63.5,96.5C 64.5,96.5 65.5,96.5 66.5,96.5C 68.3066,91.3708 71.9732,88.3708 77.5,87.5C 78.0905,89.0972 79.0905,90.4305 80.5,91.5C 74.2888,95.3822 67.6222,98.0489 60.5,99.5C 58.6458,98.759 56.9791,97.759 55.5,96.5C 55.1898,94.8564 54.1898,93.8564 52.5,93.5C 52.1898,91.8564 51.1898,90.8564 49.5,90.5C 49.5674,89.0413 49.2341,87.7079 48.5,86.5C 48.4223,83.5133 49.589,82.8466 52,84.5C 56.1384,83.3063 60.3051,82.3063 64.5,81.5 Z"/></g>
<g><path style="opacity:0.802" fill="#2e4c0b" d="M 106.5,86.5 C 108.124,86.3601 109.29,87.0267 110,88.5C 111.606,95.54 108.772,98.7067 101.5,98C 100.556,95.2809 100.223,92.4475 100.5,89.5C 103.216,89.6138 105.216,88.6138 106.5,86.5 Z"/></g>
<g><path style="opacity:1" fill="#f8580f" d="M 81.5,85.5 C 85.9022,91.0238 89.5688,97.0238 92.5,103.5C 92.1667,103.5 91.8333,103.5 91.5,103.5C 82.8264,101.653 74.4931,102.32 66.5,105.5C 64.5,104.167 62.5,102.833 60.5,101.5C 60.5,100.833 60.5,100.167 60.5,99.5C 67.6222,98.0489 74.2888,95.3822 80.5,91.5C 79.0905,90.4305 78.0905,89.0972 77.5,87.5C 78.6049,86.3995 79.9382,85.7329 81.5,85.5 Z"/></g>
<g><path style="opacity:1" fill="#fed603" d="M 49.5,90.5 C 51.1898,90.8564 52.1898,91.8564 52.5,93.5C 53.822,95.3111 54.322,97.3111 54,99.5C 44.0971,110.532 31.9304,116.866 17.5,118.5C 18.1667,117.833 18.8333,117.167 19.5,116.5C 21.9372,116.244 24.2706,115.577 26.5,114.5C 32.2787,111.23 37.9453,107.73 43.5,104C 46.027,101.473 48.527,98.973 51,96.5C 51.6128,94.5048 51.1128,92.8381 49.5,91.5C 49.5,91.1667 49.5,90.8333 49.5,90.5 Z"/></g>
<g><path style="opacity:1" fill="#54690a" d="M 91.5,103.5 C 88.1033,103.651 85.77,105.318 84.5,108.5C 78.5362,107.693 72.5362,107.36 66.5,107.5C 66.5,106.833 66.5,106.167 66.5,105.5C 74.4931,102.32 82.8264,101.653 91.5,103.5 Z"/></g>
<g><path style="opacity:1" fill="#ffec2e" d="M 49.5,90.5 C 49.5,90.8333 49.5,91.1667 49.5,91.5C 44.0694,95.7618 39.0694,100.595 34.5,106C 32.5,106.333 30.5,106.667 28.5,107C 26.1829,109.157 23.5162,110.657 20.5,111.5C 21.3968,108.253 22.7301,105.253 24.5,102.5C 25.552,102.649 26.552,102.483 27.5,102C 34.0174,97.7455 39.6841,92.5788 44.5,86.5C 45.6956,86.8457 45.6956,87.3457 44.5,88C 46.5029,88.3345 48.1696,89.1679 49.5,90.5 Z"/></g>
<g><path style="opacity:1" fill="#ffe805" d="M 49.5,91.5 C 51.1128,92.8381 51.6128,94.5048 51,96.5C 48.527,98.973 46.027,101.473 43.5,104C 37.9453,107.73 32.2787,111.23 26.5,114.5C 24.2706,115.577 21.9372,116.244 19.5,116.5C 19.6287,114.784 19.962,113.117 20.5,111.5C 23.5162,110.657 26.1829,109.157 28.5,107C 30.5,106.667 32.5,106.333 34.5,106C 39.0694,100.595 44.0694,95.7618 49.5,91.5 Z"/></g>
<g><path style="opacity:0.988" fill="#fead02" d="M 55.5,96.5 C 56.9791,97.759 58.6458,98.759 60.5,99.5C 60.5,100.167 60.5,100.833 60.5,101.5C 60.5106,103.017 61.1772,104.184 62.5,105C 60.8333,106.167 59.1667,107.333 57.5,108.5C 52.4239,116.705 45.0906,121.372 35.5,122.5C 35.5,123.5 35.5,124.5 35.5,125.5C 29.7788,127.461 23.9455,129.128 18,130.5C 16.9701,130.164 16.4701,129.497 16.5,128.5C 16.5,127.167 16.5,125.833 16.5,124.5C 31.4699,123.267 44.3033,117.267 55,106.5C 55.2896,104.956 55.9563,103.623 57,102.5C 57.322,100.311 56.822,98.3111 55.5,96.5 Z"/></g>
<g><path style="opacity:1" fill="#81ae02" d="M 91.5,103.5 C 91.8333,103.5 92.1667,103.5 92.5,103.5C 100.849,105.294 107.849,109.294 113.5,115.5C 110.847,117.155 108.514,119.155 106.5,121.5C 103.71,118.994 100.71,116.66 97.5,114.5C 96.3112,113.571 94.9778,113.238 93.5,113.5C 93.5,112.5 93.5,111.5 93.5,110.5C 91.8333,110.5 90.1667,110.5 88.5,110.5C 87.8166,108.824 86.4832,108.157 84.5,108.5C 85.77,105.318 88.1033,103.651 91.5,103.5 Z"/></g>
<g><path style="opacity:0.035" fill="#ff7e00" d="M 132.5,102.5 C 130.167,102.5 127.833,102.5 125.5,102.5C 125.132,105.533 125.798,108.2 127.5,110.5C 125.833,110.5 124.167,110.5 122.5,110.5C 123.576,107.266 124.243,103.932 124.5,100.5C 126.597,101.353 128.597,101.353 130.5,100.5C 131.713,100.747 132.38,101.414 132.5,102.5 Z"/></g>
<g><path style="opacity:0.345" fill="#ff8e00" d="M 132.5,103.5 C 134.969,104.607 135.969,106.607 135.5,109.5C 132.708,109.452 130.875,110.785 130,113.5C 128.955,112.627 128.122,111.627 127.5,110.5C 131.316,109.91 132.983,107.577 132.5,103.5 Z"/></g>
<g><path style="opacity:1" fill="#f9590f" d="M 88.5,110.5 C 90.1667,110.5 91.8333,110.5 93.5,110.5C 93.5,111.5 93.5,112.5 93.5,113.5C 93.8383,117.151 92.1716,118.817 88.5,118.5C 82.7004,116.386 77.0338,113.553 71.5,110C 77.2037,109.313 82.8704,109.479 88.5,110.5 Z"/></g>
<g><path style="opacity:0.996" fill="#ffc100" d="M 132.5,102.5 C 132.5,102.833 132.5,103.167 132.5,103.5C 132.983,107.577 131.316,109.91 127.5,110.5C 125.798,108.2 125.132,105.533 125.5,102.5C 127.833,102.5 130.167,102.5 132.5,102.5 Z"/></g>
<g><path style="opacity:0.993" fill="#fe8100" d="M 68.5,109.5 C 69.6935,110.272 70.6935,111.272 71.5,112.5C 62.6527,119.176 53.6527,125.676 44.5,132C 36.4803,134.95 28.4803,137.783 20.5,140.5C 19.4763,139.147 18.143,138.48 16.5,138.5C 15.4489,137.778 14.7822,136.778 14.5,135.5C 17.8499,135.665 21.1832,135.498 24.5,135C 38.6209,130.691 51.4542,124.191 63,115.5C 63.4955,113.527 63.6621,111.527 63.5,109.5C 65.1667,109.5 66.8333,109.5 68.5,109.5 Z"/></g>
<g><path style="opacity:0.953" fill="#f57900" d="M 71.5,112.5 C 73.3032,113.046 74.9698,113.88 76.5,115C 73.1744,117.955 69.8411,120.955 66.5,124C 65.552,124.483 64.552,124.649 63.5,124.5C 63.5,126.167 63.5,127.833 63.5,129.5C 63.5299,130.497 63.0299,131.164 62,131.5C 51.8118,135.275 41.6451,139.109 31.5,143C 27.8333,143.667 24.1667,143.667 20.5,143C 18.249,142.252 16.9156,140.752 16.5,138.5C 18.143,138.48 19.4763,139.147 20.5,140.5C 28.4803,137.783 36.4803,134.95 44.5,132C 53.6527,125.676 62.6527,119.176 71.5,112.5 Z"/></g>
<g><path style="opacity:1" fill="#ffc100" d="M 52.5,93.5 C 54.1898,93.8564 55.1898,94.8564 55.5,96.5C 56.822,98.3111 57.322,100.311 57,102.5C 55.9563,103.623 55.2896,104.956 55,106.5C 44.3033,117.267 31.4699,123.267 16.5,124.5C 17.1495,122.565 17.4828,120.565 17.5,118.5C 31.9304,116.866 44.0971,110.532 54,99.5C 54.322,97.3111 53.822,95.3111 52.5,93.5 Z"/></g>
<g><path style="opacity:0.998" fill="#e57309" d="M 66.5,107.5 C 72.5362,107.36 78.5362,107.693 84.5,108.5C 86.4832,108.157 87.8166,108.824 88.5,110.5C 82.8704,109.479 77.2037,109.313 71.5,110C 77.0338,113.553 82.7004,116.386 88.5,118.5C 82.4551,122.196 76.1218,125.53 69.5,128.5C 67.5466,129.156 65.5466,129.489 63.5,129.5C 63.5,127.833 63.5,126.167 63.5,124.5C 64.552,124.649 65.552,124.483 66.5,124C 69.8411,120.955 73.1744,117.955 76.5,115C 74.9698,113.88 73.3032,113.046 71.5,112.5C 70.6935,111.272 69.6935,110.272 68.5,109.5C 67.8333,108.833 67.1667,108.167 66.5,107.5 Z"/></g>
<g><path style="opacity:1" fill="#fe9d01" d="M 60.5,101.5 C 62.5,102.833 64.5,104.167 66.5,105.5C 66.5,106.167 66.5,106.833 66.5,107.5C 64.8008,107.34 63.1341,107.506 61.5,108C 57.483,114.885 51.8163,120.218 44.5,124C 39.9131,123.796 36.2464,125.462 33.5,129C 27.2549,131.279 20.9215,133.112 14.5,134.5C 14.0254,131.918 14.6921,129.918 16.5,128.5C 16.4701,129.497 16.9701,130.164 18,130.5C 23.9455,129.128 29.7788,127.461 35.5,125.5C 35.5,124.5 35.5,123.5 35.5,122.5C 45.0906,121.372 52.4239,116.705 57.5,108.5C 59.1667,107.333 60.8333,106.167 62.5,105C 61.1772,104.184 60.5106,103.017 60.5,101.5 Z"/></g>
<g><path style="opacity:0.192" fill="#4a6d07" d="M 113.5,115.5 C 118.48,119.536 118.814,124.203 114.5,129.5C 112.159,126.492 109.492,123.825 106.5,121.5C 108.514,119.155 110.847,117.155 113.5,115.5 Z"/></g>
<g><path style="opacity:0.976" fill="#fe9000" d="M 66.5,107.5 C 67.1667,108.167 67.8333,108.833 68.5,109.5C 66.8333,109.5 65.1667,109.5 63.5,109.5C 63.6621,111.527 63.4955,113.527 63,115.5C 51.4542,124.191 38.6209,130.691 24.5,135C 21.1832,135.498 17.8499,135.665 14.5,135.5C 14.5,135.167 14.5,134.833 14.5,134.5C 20.9215,133.112 27.2549,131.279 33.5,129C 36.2464,125.462 39.9131,123.796 44.5,124C 51.8163,120.218 57.483,114.885 61.5,108C 63.1341,107.506 64.8008,107.34 66.5,107.5 Z"/></g>
</svg>
