<svg xmlns="http://www.w3.org/2000/svg" viewBox="0 0 79 78"><path fill="#fff" d="M16.23 41.12l-4.11 11.43q-.21.57-.81.59l-6.84.16a1.38 1.38 0 01-1.33-1.87l17.5-46.56q.22-.59.85-.59l7.45-.04q.6-.01.82.56 5.07 13.22 10.06 26.42c1.14 3.02-2.67 10.66-3.93 13.77a.29.29 0 01-.55-.04l-.95-3.59q-.21-.76-1-.76l-16.4-.01q-.57 0-.76.53zm2.93-9.06a.35.35 0 00.34.47l11.46-.04a.35.35 0 00.33-.47L25.5 16.31a.35.35 0 00-.66 0l-5.68 15.75zm25.51 23.53l-4.02 10.82a1.29 1.29 0 01-1.21.84h-6.61a1.29 1.29 0 01-1.2-1.74l17.36-46.18a1.29 1.29 0 011.22-.84l6.99.04a1.29 1.29 0 011.2.83l17.33 46.15a1.29 1.29 0 01-1.21 1.74h-6.66a1.29 1.29 0 01-1.21-.85l-3.92-10.8a1.29 1.29 0 00-1.21-.85H45.88a1.29 1.29 0 00-1.21.84zm2.94-9.31a.47.47 0 00.44.64l11.38-.02a.47.47 0 00.44-.64l-5.72-15.37a.47.47 0 00-.88 0l-5.66 15.39z"/><rect fill="#fff" x="-21.96" y="-1.54" transform="rotate(.1 -41346.392 30838.308)" width="43.92" height="3.08" rx=".89"/></svg>