<svg xmlns="http://www.w3.org/2000/svg" viewBox="0 0 79 78"><path fill="#fff" d="M71.51 39a32.02 32.02 0 01-32.02 32.02A32.02 32.02 0 017.47 39 32.02 32.02 0 0139.49 6.98 32.02 32.02 0 0171.51 39zm-11.25-4.66c1.14-.54 4.05-1.99 3.38-3.55q-.21-.48-.73-.6-10.57-2.41-21.26-4.32-2.39-.42-4.75.2-10.12 2.67-19.86 5.35a1.23 1.23 0 00-.16 2.31l23.11 9.95a1.79 1.76-46.4 001.51-.05q9.36-4.77 18.76-9.29zM19.6 44.12l2.13-.34a.78.78 0 00.65-.9l-.31-1.91a2.38 1.77 80.9 00-2.12-2.07l-.18.03a2.38 1.77 80.9 00-1.37 2.63l.3 1.91a.78.78 0 00.9.65zm20.58 3.21L25.65 41.9a.46.46 0 00-.61.53c.95 4.1 1.53 9.51 5.81 11.47q9.91 4.52 19.82 0c4.2-1.91 4.92-8.7 5.74-12.86q.12-.64-.47-.37L41.3 47.29q-.55.25-1.12.04zm-22.59 6.3l5.36.23a.3.3 0 00.31-.29l.01-.19a7.03 2.92-87.6 00-2.62-7.14l-.12-.01a7.03 2.92-87.6 00-3.21 6.9l-.01.19a.3.3 0 00.28.31z"/></svg>