<svg xmlns="http://www.w3.org/2000/svg" viewBox="0 0 64 64"><path fill="#0065ca" d="M46.38 9h-7.44q-.58 0-.82.53c-1.21 2.75-3.51 3.83-4.23-.02q-.1-.51-.62-.51H25.5q-.5 0-.5.5v1.51q0 1.11-.78.32-.96-.98-2.37-1.08-.61-.04-.74-.64c-.67-2.96.87-4.59 3.86-4.6q11.52-.03 23.03 0c2.31 0 2.96 2.08 2.97 4.16q.05 6.67.02 13.34 0 .6-.59.66l-2.9.29q-.5.05-.5-.45V9.63Q47 9 46.38 9zM25.73 53.97q10.63.09 21.27.01.97-.01 3.43 1.76.37.26.14.66-.86 1.57-2.13 1.57-12.55.06-25.11.02-.61 0-.99-.47l-1.21-1.49q-.35-.43-.92-.45-5.06-.16-9.4-2.73-.45-.27-.55-.79l-3.18-16.6q-.09-.46.18-.84c4.98-7.07 10.98-12.84 12.55-22.1q.08-.52.61-.47c6.19.68 5.69 7.07 5.17 11.77-1.06 9.64-.77 19.85-.48 29.54q.02.61.62.61z"/><rect fill="#0065ca" x="-5.3" y="-2.79" transform="rotate(-3.5 483.126 -811.795)" width="10.6" height="5.58" rx="2.6"/><path fill="#0065ca" d="M57.5 37.29a1.26 1.26 0 01-1.31 1.2l-6.9-.29a5.14 2.64 2.4 01-5.02-2.85l.01-.32a5.14 2.64 2.4 015.25-2.42l6.89.29a1.26 1.26 0 011.21 1.31l-.13 3.08zm-13.3 5.2c.01-3.79 8.76-2.11 10.98-1.89 4.14.41 3.28 6.81-1.5 5.65-2.87-.69-6.52-1.25-8.95-2.79q-.53-.33-.53-.97zm-1.18 5.77c.65-3.6 7.84-.81 9.79-.13 3.94 1.36 1.49 7.28-2.82 4.99q-3.21-1.7-6.38-3.58a1.24 1.23 20.5 01-.59-1.28z"/></svg>