<svg xmlns="http://www.w3.org/2000/svg" viewBox="0 0 70 70"><path fill="#01effd" d="M43.33 51.64q.45 1.79-.12 3.57-.24.78.57.78c1.96-.01 4.84-.46 5.94 1.54q.24.42.64.69 2.29 1.51 1.18 4.23-.22.54-.8.54h-31.5q-.62 0-.83-.59c-1.39-3.93 3.75-7.18 7.49-6.24q.84.21.8-.65l-.21-4.39q-.03-.59-.62-.59L5.4 50.45q-.41 0-.72-.29l-1.53-1.44q-.4-.37-.4-.93v-34.6c0-1.74 1.08-3.42 2.81-3.42q23.47-.04 46.95-.01.52 0 .89-.36c3.27-3.19 9.98-12.65 14.96-5.56q2.41 3.43-.79 7.26-.32.39-.32.88v36.03q0 .48-.36.78l-1.59 1.36q-.3.25-.7.25l-20.42.14q-1.12.01-.85 1.1zM66.429 8.186a1.49 1.49 0 00-.004-2.107l-1.856-1.85a1.49 1.49 0 00-2.107.004l-14.47 14.521a1.49 1.49 0 00.003 2.107l1.856 1.85a1.49 1.49 0 002.107-.004l14.47-14.521zM10.66 36.42l19.95-.11q.54 0 .61-.53c.38-2.97.62-6.2 2.69-8.38 1.66-1.76 3.76-2.41 5.34-4.01q5.02-5.06 10.01-9.68a.71.71 0 00-.48-1.23l-42.24.21q-.77 0-.77.77l-.06 28.02a.52.52 0 00.52.52H63.7a.52.52 0 00.52-.52l.19-25.75q.01-1.44-1.01-.42c-5.93 5.91-13.28 12.09-18.41 19.12q-3.45 4.73-10.22 4.78-12.05.09-24.08.02-.69 0-.69-.69v-1.45q0-.66.66-.67zm35.083-13.946a1.02 1.02 0 00-1.442-.018l-2.577 2.514a1.02 1.02 0 00-.017 1.443l2.57 2.633a1.02 1.02 0 001.442.018l2.577-2.514a1.02 1.02 0 00.017-1.443l-2.57-2.633zM36.54 28.48q-2.47 3.19-2.23 7.37a.43.43 0 00.47.41c2.08-.16 8.68-1 7.78-4.5q-.95-3.68-5.05-3.75-.6-.01-.97.47zm27.831 16.981a.66.66 0 00-.659-.66L6.272 44.7a.66.66 0 00-.66.659l-.003 1.52a.66.66 0 00.659.66l57.44.101a.66.66 0 00.66-.659l.003-1.52zm-23.765 5.48a.44.44 0 00-.44-.44l-10.36.018a.44.44 0 00-.44.44l.008 4.6a.44.44 0 00.44.44l10.36-.018a.44.44 0 00.44-.44l-.008-4.6zm7.284 8.486a.68.68 0 00-.681-.678l-24.58.042a.68.68 0 00-.68.682l.001.1a.68.68 0 00.681.678l24.58-.042a.68.68 0 00.68-.682l-.001-.1z"/></svg>