<svg xmlns="http://www.w3.org/2000/svg" viewBox="0 0 70 70"><path vector-effect="non-scaling-stroke" d="M63.96 23q-2.91.8-3.11-2.53m-51.81-.22q-.42.81-.27 1.7.08.54-.31.92-.89.88-2.42.13m33.273 7.977a1.38 1.38 0 00-.953-1.704l-.211-.06a1.38 1.38 0 00-1.704.952l-5.778 20.418a1.38 1.38 0 00.952 1.704l.212.06a1.38 1.38 0 001.704-.952l5.778-20.418M20.82 40.37l6.41-4.26q.59-.39.38-1.06l-.32-1.01a1.02 1.01-25.4 00-1.53-.54l-9.33 6.19a1.31 1.31 0 00.03 2.2q4.31 2.73 8.43 5.6c1.11.78 2.48.86 2.78-.74a1.22 1.21-67.5 00-.51-1.25l-6.34-4.32q-.6-.4 0-.81m28.37.77c-1.53 1.16-8.91 4.49-6.12 6.79a1.16 1.15 47.6 001.38.07l8.87-6.01a1.44 1.44 0 00.01-2.37q-3.89-2.7-8.42-5.68c-1.15-.76-2.29-.69-2.54.85a1.54 1.54 0 00.68 1.55l6.11 3.97q.6.39.03.83" stroke-width="2" fill="none" stroke="#1a9bb0"/><path fill="#324561" d="M63.96 23q-2.91.8-3.11-2.53 1.79-7.41-5.85-7.44-25.94-.07-40.71.13c-4.41.06-6.5 2.83-5.25 7.09q-.42.81-.27 1.7.08.54-.31.92-.89.88-2.42.13c-.21-6.63-.56-12.69 8.05-12.72q20.53-.07 41.07-.01c9 .03 9.08 5.14 8.8 12.73z"/><path fill="#01f0ff" d="M9.04 20.25l51.81.22q.2 3.33 3.11 2.53.08 13.62.03 27.24c-.02 6.46-1.87 9.47-8.48 9.48q-19.94.06-39.88.02c-5.99-.02-9.61-1.49-9.63-7.99Q5.96 37.37 6.04 23q1.53.75 2.42-.13.39-.38.31-.92-.15-.89.27-1.7zm30.273 10.727a1.38 1.38 0 00-.953-1.704l-.211-.06a1.38 1.38 0 00-1.704.952l-5.778 20.418a1.38 1.38 0 00.952 1.704l.212.06a1.38 1.38 0 001.704-.952l5.778-20.418zM20.82 40.37l6.41-4.26q.59-.39.38-1.06l-.32-1.01a1.02 1.01-25.4 00-1.53-.54l-9.33 6.19a1.31 1.31 0 00.03 2.2q4.31 2.73 8.43 5.6c1.11.78 2.48.86 2.78-.74a1.22 1.21-67.5 00-.51-1.25l-6.34-4.32q-.6-.4 0-.81zm28.37.77c-1.53 1.16-8.91 4.49-6.12 6.79a1.16 1.15 47.6 001.38.07l8.87-6.01a1.44 1.44 0 00.01-2.37q-3.89-2.7-8.42-5.68c-1.15-.76-2.29-.69-2.54.85a1.54 1.54 0 00.68 1.55l6.11 3.97q.6.39.03.83z"/><rect fill="#324561" x="-1.49" y="-11.99" transform="rotate(15.8 -129.448 146.47)" width="2.98" height="23.98" rx="1.38"/><path fill="#324561" d="M20.82 41.18l6.34 4.32a1.22 1.21-67.5 01.51 1.25c-.3 1.6-1.67 1.52-2.78.74q-4.12-2.87-8.43-5.6a1.31 1.31 0 01-.03-2.2l9.33-6.19a1.02 1.01-25.4 011.53.54l.32 1.01q.21.67-.38 1.06l-6.41 4.26q-.6.41 0 .81zm28.34-.87l-6.11-3.97a1.54 1.54 0 01-.68-1.55c.25-1.54 1.39-1.61 2.54-.85q4.53 2.98 8.42 5.68a1.44 1.44 0 01-.01 2.37L44.45 48a1.16 1.15 47.6 01-1.38-.07c-2.79-2.3 4.59-5.63 6.12-6.79q.57-.44-.03-.83z"/></svg>