<svg xmlns="http://www.w3.org/2000/svg" viewBox="0 0 70 70"><path fill="#0065ca" d="M57.62 20.27l-45.58-.03a.42.42 0 00-.42.41q-.19 7.56-.13 15.1c.04 4.85-4.2 4.6-4.21.78q-.05-9.02-.03-18.05c0-5.97 1.53-11.24 8.25-11.24q18.35 0 36.69.02c7.56.01 10.57 2.89 10.55 10.24q-.01 8.38-.18 16.74-.04 2.12-2.24 2.35a1.74 1.74 0 01-1.93-1.71l-.17-14.01q-.01-.6-.6-.6zm-.88-6.59a2.14 2.14 0 00-2.14-2.14H31.38a2.14 2.14 0 00-2.14 2.14v.18A2.14 2.14 0 0031.38 16H54.6a2.14 2.14 0 002.14-2.14v-.18zm-39.34.15a2.11 2.11 0 00-2.11-2.11 2.11 2.11 0 00-2.11 2.11 2.11 2.11 0 002.11 2.11 2.11 2.11 0 002.11-2.11zm7.3-.01a2.13 2.13 0 00-2.13-2.13 2.13 2.13 0 00-2.13 2.13 2.13 2.13 0 002.13 2.13 2.13 2.13 0 002.13-2.13z"/><path fill="#0065ca" d="M25.17 49.53l3.95 1.96q.45.23.86-.07 4.39-3.31 9.19-.47.4.24.8-.02l5.06-3.36q.43-.29.37-.8c-1.26-9.92 11.7-12.02 14.11-3.52 1.93 6.8-5.17 11.25-11.19 7.82q-.44-.25-.86.04l-5.02 3.47q-.34.24-.31.65c.87 11.82-14.68 11.49-14.4.99q.02-.58-.5-.83l-3.71-1.81q-.52-.25-1.01.05C9.06 61.64 5.3 39.45 18.55 41.09q5.99.74 6.16 7.72.01.5.46.72zm30.19-4.37a2.9 2.9 0 00-2.9-2.9 2.9 2.9 0 00-2.9 2.9 2.9 2.9 0 002.9 2.9 2.9 2.9 0 002.9-2.9zm-35.01 2.95a2.89 2.89 0 00-2.89-2.89 2.89 2.89 0 00-2.89 2.89A2.89 2.89 0 0017.46 51a2.89 2.89 0 002.89-2.89zm17.54 8.74a2.92 2.92 0 00-2.92-2.92 2.92 2.92 0 00-2.92 2.92 2.92 2.92 0 002.92 2.92 2.92 2.92 0 002.92-2.92z"/></svg>