<svg xmlns="http://www.w3.org/2000/svg" viewBox="0 0 78 78"><path fill="#fff" d="M2.17 18.84a1.57 1.57 0 01-1.58-1.56L.58 9.11A8.65 8.38-.1 019.21.71l59.46-.1a8.65 8.38-.1 018.67 8.36l.01 8.17a1.57 1.57 0 01-1.56 1.58l-73.62.12zm12.861-9.304a1.39 1.39 0 00-1.333-1.445l-2.957-.119a1.39 1.39 0 00-1.445 1.333l-.027.68a1.39 1.39 0 001.333 1.444l2.957.119a1.39 1.39 0 001.445-1.333l.027-.68zm9.916.338a3.06 1.87 2.5 00-2.975-2.002 3.06 1.87 2.5 00-3.14 1.735 3.06 1.87 2.5 002.976 2.001 3.06 1.87 2.5 003.14-1.735zM68.73 9.72a1.7 1.7 0 00-1.697-1.703l-20.8-.036a1.7 1.7 0 00-1.703 1.697v.1a1.7 1.7 0 001.697 1.703l20.8.036A1.7 1.7 0 0068.73 9.82v-.1zm7.23 12.77a1.38 1.38 0 011.38 1.38v44.18a9.86 9.54 0 01-9.86 9.54H10.52a9.86 9.54 0 01-9.86-9.54V23.87a1.38 1.38 0 011.38-1.38h73.92zm-54.44 24.6a1.16 1.16 0 01.63 1.88c-1.11 1.3-2.14 3.66-.73 5.1 3.55 3.64 6.13-5.11 6.41-7.06q.06-.43.34-.76 2.72-3.1 6.2-.7a2.33 2.33 0 01.36 3.54l-3.61 3.73a1.42 1.41 40.8 00.16 2.11l2.6 1.98q.45.35.57.91 1.37 6.65-4.48 9.62a.29.29 0 00.01.52c15.08 7.27 33.03-6.38 28.37-23.06a1 1 0 00-1.13-.72q-5.45.96-7.2-4.14a.88.88 0 00-1.64-.07c-.86 1.95-3.74 7.78-6.65 5.1q-3.51-3.24-1.81-7.64.18-.48.66-.66c2.38-.88 6.45-1.11 5.9-4.71a1.74 1.73.7 00-1.43-1.46q-19.79-3.43-25.93 15.19-.23.7.49.86l1.91.44z"/><path fill="#fff" d="M55.16 51.11a.27.27 0 01.33.2l.03.15a6.1 6.06 76.8 01-4.51 7.32l-.09.03a6.1 6.06 76.8 01-7.3-4.56l-.03-.15a.27.27 0 01.2-.32l11.37-2.67z"/></svg>