<svg xmlns="http://www.w3.org/2000/svg" viewBox="0 0 100 100"><path fill="#01f0ff" d="M47.32 32.09l-14.45-1.66q-.5-.06-.6.43l-1.35 6.61q-.11.53-.65.53h-2.74q-.8 0-.65-.79l1.48-7.43q.09-.46-.35-.64l-10.87-4.36q-.43-.18-.72.19-4.32 5.68-6.46 12.51-.17.52-.71.52H6.24a.57.57 0 01-.54-.76q7.54-22.19 27.69-29.99c25.22-9.78 53.25 4.06 60.79 30.15q.18.6-.45.6h-2.91q-.61 0-.8-.58-2.18-6.74-6.4-12.42-.3-.4-.76-.22l-10.87 4.35q-.44.18-.35.64l1.5 7.51q.14.72-.6.72h-2.83q-.56 0-.67-.55l-1.33-6.69q-.08-.4-.49-.35l-14.67 1.68q-.55.06-.55.62v4.67q0 .62-.62.62h-2.75q-.63 0-.63-.63v-4.52q0-.68-.68-.76zm.09-3.99a.53.52 3.4 00.59-.52V8.98q0-.68-.65-.5c-6.58 1.79-11.72 11.35-13.49 17.4q-.19.62.47.7l13.08 1.52zm18.26-1.54q.66-.07.47-.71c-2.11-6.94-6.33-14.16-13.22-17.42a.65.64-77.4 00-.92.59v18.55q0 .59.59.52l13.08-1.53zm-35.83-1.77c1.96-5.27 4.25-10.14 7.86-14.41a.25.25 0 00-.27-.4Q27.29 13.3 19.77 20.86a.51.51 0 00.18.84L29 25.17q.62.23.84-.38zM62.27 10.3c3.82 4.73 5.34 9.13 7.95 14.43q.31.64.97.38l8.75-3.41q.78-.31.19-.9-7.51-7.57-17.64-10.82a.2.2 0 00-.22.32zM29.83 42h3.62a.35.35 0 01.33.46l-4.98 15.3a.35.35 0 01-.33.24h-4.03a.35.35 0 01-.33-.23l-3.83-10.85a.35.35 0 00-.66 0l-3.78 10.85a.35.35 0 01-.33.23h-4.17a.35.35 0 01-.34-.24l-4.87-15.3a.35.35 0 01.33-.46h3.7a.35.35 0 01.34.26l2.77 9.82a.35.35 0 00.67.03l3.47-9.88a.35.35 0 01.33-.23h4.62a.35.35 0 01.33.24L26 52.18a.35.35 0 00.67-.01l2.83-9.92a.35.35 0 01.33-.25zm14.18 10.03l3.39-9.79a.35.35 0 01.33-.24h4.66a.35.35 0 01.33.24l3.32 10.03a.35.35 0 00.67-.02l2.79-9.99a.35.35 0 01.34-.26h3.65a.35.35 0 01.33.46l-4.95 15.3a.35.35 0 01-.33.24H54.5a.35.35 0 01-.33-.23L50.3 46.9a.35.35 0 00-.66 0l-3.77 10.86a.35.35 0 01-.33.24H41.4a.35.35 0 01-.34-.24l-4.9-15.3a.35.35 0 01.33-.46h3.7a.35.35 0 01.33.25l2.82 9.76a.35.35 0 00.67.02zm42.69.19l2.85-9.97a.35.35 0 01.33-.25h3.66a.35.35 0 01.33.46l-5 15.3a.35.35 0 01-.33.24H84.5a.35.35 0 01-.33-.23l-3.86-10.86a.35.35 0 00-.66.01l-3.8 10.85a.35.35 0 01-.33.23h-4.2a.35.35 0 01-.34-.24l-4.86-15.3a.35.35 0 01.33-.46h3.69a.35.35 0 01.33.25l2.81 9.82a.35.35 0 00.66.02l3.47-9.86a.35.35 0 01.33-.23h4.65a.35.35 0 01.33.24l3.31 9.99a.35.35 0 00.67-.01zM33.09 69.77q7.01-1.53 14.18-1.55.73 0 .73-.72v-5q0-.5.5-.5h3q.49 0 .5.5l.01 5.13q0 .58.59.58 7.22.02 14.26 1.58.68.15.82-.52l1.41-6.74q.11-.53.65-.53h2.76q.78 0 .63.77l-1.52 7.4q-.09.47.35.65l10.88 4.42q.43.17.71-.2 4.37-5.74 6.5-12.67.11-.37.5-.37h2.72q1.5 0 .97 1.4-7.12 18.79-23.07 27.25c-25.69 13.63-57.24-.16-65.32-28.06q-.17-.59.44-.59h2.9q.6 0 .79.57 2.18 6.75 6.4 12.43.3.4.76.22l10.87-4.39q.43-.17.34-.62l-1.46-7.5q-.14-.71.58-.71h2.82q.55 0 .66.55l1.33 6.69q.14.68.81.53zm14.08 2.17l-12.81 1.48q-.73.09-.51.79c2.09 6.46 6.47 14.7 13.39 17.33q.76.29.76-.52V72.68q0-.83-.83-.74zm5.78.04a.85.85 0 00-.95.84v18.16a.65.64 77.7 00.91.59c6.92-3.19 11.05-10.4 13.19-17.41q.2-.67-.49-.75l-12.66-1.43zm-15.2 17.63c-3.8-4.52-5.76-9.04-7.91-14.42q-.23-.57-.8-.36l-8.87 3.39q-.94.36-.23 1.07 7.47 7.46 17.5 10.76a.28.28 0 00.31-.44zm24.62-.14a.3.3 0 00.33.48q10.08-3.29 17.45-10.9.49-.5-.16-.75l-9.02-3.46q-.7-.27-.93.44-2.46 7.87-7.67 14.19z"/></svg>