<svg width="151" height="57" fill="none" xmlns="http://www.w3.org/2000/svg"><path d="M74.095 43.45c-1.58 0-3.005-.275-4.275-.825-1.26-.55-2.3-1.335-3.12-2.355-.81-1.03-1.325-2.25-1.545-3.66l3.75-.57c.32 1.28.975 2.27 1.965 2.97 1 .7 2.15 1.05 3.45 1.05.77 0 1.495-.12 2.175-.36.68-.24 1.23-.59 1.65-1.05.43-.46.645-1.025.645-1.695 0-.3-.05-.575-.15-.825-.1-.26-.25-.49-.45-.69-.19-.2-.44-.38-.75-.54-.3-.17-.65-.315-1.05-.435l-5.58-1.65c-.48-.14-1-.325-1.56-.555a6.724 6.724 0 01-1.575-.975c-.49-.42-.895-.95-1.215-1.59-.31-.65-.465-1.45-.465-2.4 0-1.39.35-2.555 1.05-3.495.71-.95 1.66-1.66 2.85-2.13 1.2-.47 2.53-.7 3.99-.69 1.48.01 2.8.265 3.96.765a7.522 7.522 0 012.91 2.145c.78.94 1.33 2.075 1.65 3.405l-3.885.675c-.16-.76-.47-1.405-.93-1.935a4.34 4.34 0 00-1.665-1.23 5.603 5.603 0 00-4.095-.12c-.61.22-1.105.54-1.485.96-.37.42-.555.91-.555 1.47 0 .53.16.965.48 1.305.32.33.715.595 1.185.795.48.19.965.35 1.455.48l3.87 1.08c.53.14 1.125.33 1.785.57.66.24 1.295.575 1.905 1.005.61.43 1.11.995 1.5 1.695.4.7.6 1.59.6 2.67 0 1.12-.235 2.105-.705 2.955a6.187 6.187 0 01-1.875 2.1c-.79.56-1.695.98-2.715 1.26-1.01.28-2.07.42-3.18.42zm16.252 0c-1.17 0-2.16-.22-2.97-.66-.81-.45-1.425-1.045-1.845-1.785a4.96 4.96 0 01-.615-2.445c0-.78.13-1.48.39-2.1.26-.63.66-1.17 1.2-1.62.54-.46 1.24-.835 2.1-1.125.65-.21 1.41-.4 2.28-.57.88-.17 1.83-.325 2.85-.465 1.03-.15 2.105-.31 3.225-.48l-1.29.735c.01-1.12-.24-1.945-.75-2.475s-1.37-.795-2.58-.795c-.73 0-1.435.17-2.115.51-.68.34-1.155.925-1.425 1.755l-3.3-1.035c.4-1.37 1.16-2.47 2.28-3.3 1.13-.83 2.65-1.245 4.56-1.245 1.44 0 2.705.235 3.795.705 1.1.47 1.915 1.24 2.445 2.31.29.57.465 1.155.525 1.755.06.59.09 1.235.09 1.935V43h-3.165v-3.51l.525.57c-.73 1.17-1.585 2.03-2.565 2.58-.97.54-2.185.81-3.645.81zm.72-2.88c.82 0 1.52-.145 2.1-.435.58-.29 1.04-.645 1.38-1.065.35-.42.585-.815.705-1.185.19-.46.295-.985.315-1.575.03-.6.045-1.085.045-1.455l1.11.33c-1.09.17-2.025.32-2.805.45-.78.13-1.45.255-2.01.375-.56.11-1.055.235-1.485.375-.42.15-.775.325-1.065.525-.29.2-.515.43-.675.69-.15.26-.225.565-.225.915 0 .4.1.755.3 1.065.2.3.49.54.87.72.39.18.87.27 1.44.27zM106.896 43l-5.88-16.2h3.615l4.08 11.745 4.065-11.745h3.63l-5.88 16.2h-3.63zm16.582 0l-5.88-16.2h3.615l4.08 11.745 4.065-11.745h3.63l-5.88 16.2h-3.63zm14.186 7.2l3.12-8.565.06 2.52-7.065-17.355h3.765l5.01 12.84h-.96l4.875-12.84h3.615l-9.03 23.4h-3.39z" fill="#fff"/><path d="M49.298 45.279c5.837-7.619 7.271-17.767 3.938-26.784-2.423-6.557-7.216-11.712-13.441-14.792-7.558-3.74-16.95-3.6-24.37.424-5.417 2.937-9.409 7.216-11.975 12.837-5.027 11.009-2.167 24.673 7.196 32.495 5.034 4.204 10.875 6.296 17.523 6.276 8.215-.025 16.14-3.944 21.13-10.456z" stroke="#fff"/><path d="M4.42 28.012c-.25 11.828 8.126 22.301 19.914 24.087 3.635.55 7.17.296 10.606-.764 11.509-3.552 18.055-14.904 16.35-26.728-1.038-7.2-5.486-13.716-11.854-17.248-11.166-6.192-24.84-2.482-31.464 8.363-2.273 3.722-3.457 7.819-3.551 12.29z" stroke="#fff"/><path d="M23.518 20.911c1.974 1.736.16 4.895-.843 6.585-.53.893-1.065 1.782-1.605 2.669a23.448 23.448 0 00-.874 1.525c-.286.575.15 1.206.799 1.036.237-.063.418-.27.578-.454a6377.24 6377.24 0 0113.934-15.937c.018-.02.013-.034-.013-.038a1.526 1.526 0 00-.25-.02l-14.932.004c-1.246 0-1.104 1.026-.367 1.616a99.349 99.349 0 013.573 3.014zm8.554 12.143c.078-1.191.686-2.379 1.335-3.463l2.217-3.707c.147-.247.267-.527.186-.775-.142-.433-.413-.61-.814-.528-.28.057-.444.284-.631.498a4726.41 4726.41 0 00-12.582 14.533.019.019 0 00-.005.01.018.018 0 00.009.017.019.019 0 00.01.003h13.992c.317 0 .53-.02.642-.059.45-.154.574-.663.331-1.057a1.612 1.612 0 00-.362-.407c-.479-.39-1.432-1.182-2.862-2.378-.873-.73-1.546-1.463-1.466-2.687z" stroke="#fff"/><path d="M53.236 18.495c3.333 9.017 1.9 19.165-3.938 26.784-4.99 6.512-12.914 10.43-21.129 10.456-6.648.02-12.49-2.072-17.523-6.276C1.283 41.637-1.577 27.973 3.45 16.964c2.566-5.62 6.558-9.9 11.975-12.837 7.42-4.023 16.812-4.164 24.37-.424 6.225 3.08 11.018 8.235 13.441 14.792zM4.421 28.012c-.25 11.827 8.125 22.3 19.913 24.087 3.635.55 7.17.296 10.606-.765 11.509-3.551 18.055-14.903 16.35-26.728-1.038-7.2-5.485-13.716-11.854-17.248-11.166-6.191-24.84-2.481-31.464 8.363-2.273 3.722-3.457 7.82-3.551 12.29z" fill="#fff"/><path d="M23.518 20.911a99.349 99.349 0 00-3.573-3.014c-.737-.59-.879-1.616.367-1.616l14.933-.005c.083 0 .166.007.249.02.026.005.03.018.013.039a6812.296 6812.296 0 00-13.934 15.937c-.16.184-.34.391-.578.454-.649.17-1.085-.46-.8-1.036.166-.331.458-.84.875-1.525.54-.887 1.075-1.776 1.605-2.669 1.003-1.69 2.817-4.85.843-6.585zm8.554 12.143c-.08 1.224.593 1.956 1.466 2.687A365.256 365.256 0 0036.4 38.12c.15.123.271.258.362.407.243.394.119.903-.33 1.057-.113.039-.326.058-.643.058H21.797a.012.012 0 01-.01-.002.017.017 0 01-.007-.008c-.002-.003-.002-.006-.002-.01l.005-.01A4726.41 4726.41 0 0134.365 25.08c.187-.214.352-.441.631-.498.401-.082.672.095.814.528.081.248-.04.528-.186.775l-2.217 3.707c-.65 1.084-1.257 2.272-1.335 3.463z" fill="#fff"/></svg>