<svg width="157" height="159" fill="none" xmlns="http://www.w3.org/2000/svg"><path d="M139.642 128.23c16.759-21.88 20.876-51.026 11.307-76.924-6.959-18.833-20.719-33.64-38.594-42.486-21.7-10.74-48.665-10.336-69.968 1.22-15.553 8.435-27.015 20.725-34.384 36.868-14.433 31.618-6.22 70.864 20.663 93.328 14.45 12.075 31.221 18.083 50.311 18.025 23.585-.072 46.337-11.326 60.665-30.031z" stroke="#fff"/><path d="M10.79 78.64c-.716 33.969 23.33 64.05 57.175 69.179 10.436 1.582 20.586.85 30.451-2.195 33.044-10.201 51.839-42.804 46.944-76.765-2.979-20.68-15.75-39.394-34.035-49.538-32.059-17.783-71.32-7.127-90.337 24.019-6.528 10.69-9.927 22.457-10.198 35.3z" stroke="#fff"/><path d="M65.623 58.245c5.667 4.984.46 14.059-2.422 18.913a843.723 843.723 0 01-4.607 7.664c-1.199 1.97-2.035 3.43-2.51 4.382-.822 1.651.432 3.464 2.293 2.973.682-.18 1.2-.775 1.66-1.303A19574.198 19574.198 0 01100.044 45.1c.052-.06.039-.096-.037-.11a4.392 4.392 0 00-.715-.058c-14.29.006-28.582.01-42.874.014-3.577 0-3.171 2.948-1.053 4.641 2.997 2.392 6.416 5.277 10.258 8.657zm24.559 34.876c.224-3.422 1.969-6.832 3.832-9.945l6.368-10.65c.42-.707.766-1.51.532-2.223-.406-1.246-1.185-1.752-2.335-1.519-.803.164-1.277.816-1.814 1.432a13587.215 13587.215 0 00-36.124 41.739.051.051 0 00.011.079.049.049 0 00.029.007c13.385.002 26.776.001 40.175-.002.907 0 1.521-.055 1.842-.166 1.291-.444 1.649-1.903.951-3.036a4.63 4.63 0 00-1.042-1.168c-1.373-1.12-4.111-3.397-8.215-6.83-2.507-2.1-4.439-4.205-4.21-7.718z" stroke="#fff"/><path d="M150.949 51.306c9.569 25.898 5.452 55.044-11.307 76.924-14.328 18.705-37.08 29.959-60.665 30.031-19.09.058-35.86-5.95-50.311-18.025C1.782 117.772-6.43 78.526 8.003 46.908c7.37-16.143 18.83-28.433 34.384-36.868C63.69-1.516 90.655-1.92 112.355 8.82c17.875 8.846 31.635 23.653 38.594 42.486zM10.791 78.638c-.717 33.97 23.33 64.051 57.174 69.18 10.436 1.582 20.587.85 30.452-2.195 33.043-10.201 51.838-42.804 46.944-76.765-2.98-20.68-15.75-39.394-34.036-49.538-32.058-17.783-71.32-7.127-90.337 24.019-6.527 10.69-9.926 22.457-10.197 35.3z" fill="#fff"/><path d="M65.623 58.245c-3.842-3.38-7.261-6.265-10.258-8.657-2.118-1.693-2.524-4.641 1.053-4.641 14.292-.004 28.583-.008 42.874-.014.24 0 .478.02.715.058.076.014.089.05.037.11a19574.198 19574.198 0 00-40.007 45.773c-.46.528-.978 1.123-1.66 1.303-1.86.49-3.115-1.322-2.293-2.973.475-.952 1.311-2.413 2.51-4.382a813.704 813.704 0 004.607-7.664c2.882-4.854 8.089-13.929 2.422-18.913zm24.559 34.876c-.229 3.513 1.703 5.618 4.21 7.718 4.104 3.433 6.842 5.71 8.215 6.83.433.352.78.741 1.042 1.168.698 1.133.34 2.592-.951 3.036-.321.111-.935.166-1.842.166-13.399.003-26.79.004-40.175.002a.049.049 0 01-.029-.007.047.047 0 01-.02-.022.051.051 0 01.009-.057 13587.215 13587.215 0 0136.124-41.739c.537-.616 1.01-1.268 1.814-1.432 1.15-.233 1.929.273 2.335 1.519.234.712-.112 1.516-.532 2.223l-6.368 10.65c-1.863 3.113-3.608 6.523-3.832 9.945z" fill="#fff"/></svg>