<svg xmlns="http://www.w3.org/2000/svg" width="150" height="150" shape-rendering="geometricPrecision" text-rendering="geometricPrecision" image-rendering="optimizeQuality" fill-rule="evenodd" clip-rule="evenodd"><path fill="#e58a85" d="M129.5 44.5c-.617-.11-1.117-.444-1.5-1a60.93 60.93 0 01-.5-11 50.464 50.464 0 00-.5-10c-1.699-.906-3.533-1.24-5.5-1h-8v4a22.37 22.37 0 00-6.5 3c-.195 1.32-.028 2.653.5 4-2.944-1.655-5.277-3.988-7-7-.952-1.545-1.285-3.212-1-5a137.985 137.985 0 0127-.5l2.5 2.5c.5 7.326.666 14.66.5 22z" opacity=".871"/><path fill="#e9e9e9" d="M99.5 20.5c-.285 1.788.048 3.455 1 5 1.723 3.012 4.056 5.345 7 7a15.424 15.424 0 002 4.5c-.637 1.713-1.637 1.88-3 .5-2.711 4.019-6.378 5.019-11 3-14.543.742-21.543 8.408-21 23a15.063 15.063 0 01-6-3c-.936-1.941-2.27-3.608-4-5-1.127 1.77-.627 3.103 1.5 4 .75 1.135.583 2.135-.5 3-1.105-2.111-2.771-3.445-5-4h-1a259.478 259.478 0 0123-30 4425.001 4425.001 0 0117-8z" opacity=".979"/><path fill="#dd2d2d" d="M121.5 21.5c1.967-.24 3.801.094 5.5 1 .498 3.317.665 6.65.5 10l-12 7c-.342-.838-1.008-1.172-2-1a796.928 796.928 0 01-4-5c2.113-5.52 6.113-8.52 12-9v-3z"/><path fill="#f06465" d="M121.5 21.5v3c-5.887.48-9.887 3.48-12 9l-2-1c-.528-1.347-.695-2.68-.5-4a22.37 22.37 0 016.5-3v-4h8z"/><path fill="#942c11" d="M127.5 32.5a60.93 60.93 0 00.5 11c.383.556.883.89 1.5 1-.267 2.812-1.267 5.145-3 7a93.411 93.411 0 00-11-12l12-7z"/><path fill="#d4d6d7" d="M107.5 32.5l2 1a796.928 796.928 0 004 5c1.177 1.603 1.011 2.936-.5 4-4.192-3.003-5.025-2.503-2.5 1.5-3.289 2.209-6.956 3.042-11 2.5-.11-.617-.444-1.117-1-1.5a24.939 24.939 0 00-7-.5 8.434 8.434 0 00-4 .5 43.865 43.865 0 01-7 4.5 609.502 609.502 0 00-4 19.5c.837 1.011 1.17 2.178 1 3.5-2.582-.475-4.582.192-6 2a255.445 255.445 0 01-19 19c-.825.886-1.825 1.219-3 1-1.051-.722-1.718-1.722-2-3 1.871-.359 3.371-1.359 4.5-3a202.367 202.367 0 0119.5-22 199.631 199.631 0 01-3-6 15.063 15.063 0 006 3c-.543-14.592 6.457-22.258 21-23 4.622 2.019 8.289 1.019 11-3 1.363 1.38 2.363 1.213 3-.5a15.424 15.424 0 01-2-4.5z"/><path fill="#94d5ed" d="M91.5 44.5a39.35 39.35 0 01-10 11c-.952 1.545-1.285 3.212-1 5-.835-3.494-.835-7.16 0-11a43.865 43.865 0 007-4.5 8.434 8.434 0 014-.5z"/><path fill="#a4a2a2" d="M113.5 38.5c.992-.172 1.658.162 2 1a93.411 93.411 0 0111 12c-1.591 10.218-6.924 17.55-16 22a55.157 55.157 0 015.5-8 29.665 29.665 0 003.5-9c-.029-1.53-.696-2.696-2-3.5-6.633-1.55-9.633.95-9 7.5-1.699.027-3.033.694-4 2a60.93 60.93 0 00-.5-11c-.708-.88-1.542-1.547-2.5-2-.282-1.278-.949-2.278-2-3 4.044.542 7.711-.291 11-2.5-2.525-4.003-1.692-4.503 2.5-1.5 1.511-1.064 1.677-2.397.5-4z"/><path fill="#3691de" d="M101.5 49.5c.958.453 1.792 1.12 2.5 2a60.93 60.93 0 01.5 11h-2c1.143-3.002 1.143-6.002 0-9a58.18 58.18 0 00-14 13.5c3.721.678 7.388.511 11-.5-.321 1.548-1.321 2.215-3 2-4.487 1.697-8.487 1.03-12-2-.718-1.637-.885-3.303-.5-5A119.2 119.2 0 0097.5 49c1.428-.58 2.762-.412 4 .5z"/><path fill="#989899" d="M110.5 73.5c-2.393 3.434-5.393 6.267-9 8.5-3.713 2.186-7.38 4.353-11 6.5-5.657 2.479-10.657 5.979-15 10.5a4.932 4.932 0 01-3 .5c-2.445-3.45-2.612-7.117-.5-11a36.678 36.678 0 017.5-10c.825-.886 1.825-1.219 3-1-.204-1.89.463-3.39 2-4.5a47.184 47.184 0 0112-1.5v-3c1.679.215 2.679-.452 3-2 2.412-.194 3.412-1.527 3-4h2c.967-1.306 2.301-1.973 4-2-.633-6.55 2.367-9.05 9-7.5 1.304.804 1.971 1.97 2 3.5a29.665 29.665 0 01-3.5 9 55.157 55.157 0 00-5.5 8z" opacity=".934"/><path fill="#1170d7" d="M59.5 58.5h1a10.123 10.123 0 01-1.5 4c-2.531 1.423-4.365 3.423-5.5 6a8.434 8.434 0 00-4 .5c.457.414.79.914 1 1.5-6.623 3.139-13.623 4.806-21 5l-4 2c.363.683.696 1.35 1 2-1.81-.072-3.144-.905-4-2.5 2.305-2.12 3.971-4.62 5-7.5a414.75 414.75 0 0118-13.5c4.77.137 9.437.97 14 2.5z" opacity=".946"/><path fill="#52b0e7" d="M91.5 44.5c2.357-.163 4.69.003 7 .5.556.383.89.883 1 1.5 1.051.722 1.718 1.722 2 3-1.238-.912-2.572-1.08-4-.5A119.2 119.2 0 0184 61.5c-.385 1.697-.218 3.363.5 5-2.13-1.464-3.463-3.464-4-6-.285-1.788.048-3.455 1-5a39.35 39.35 0 0010-11z"/><path fill="#e5e8eb" d="M68.5 60.5a199.631 199.631 0 003 6 202.367 202.367 0 00-19.5 22c-1.129 1.641-2.629 2.641-4.5 3-.904-.709-1.237-1.709-1-3-2.222.322-4.056-.345-5.5-2-.278.916-.778 1.582-1.5 2v-3c1.6-.752 3.1-1.752 4.5-3a67.195 67.195 0 009.5-14c1.135-2.577 2.969-4.577 5.5-6a10.123 10.123 0 001.5-4c2.229.555 3.895 1.889 5 4 1.083-.865 1.25-1.865.5-3-2.127-.897-2.627-2.23-1.5-4 1.73 1.392 3.064 3.059 4 5z" opacity=".997"/><path fill="#1a7bdb" d="M102.5 62.5c.412 2.473-.588 3.806-3 4-3.612 1.011-7.279 1.178-11 .5a58.18 58.18 0 0114-13.5c1.143 2.998 1.143 5.998 0 9z"/><path fill="#1b63b6" d="M53.5 68.5a67.195 67.195 0 01-9.5 14 18.702 18.702 0 01-4.5 3c-4.357-2.005-8.69-4.005-13-6a44.358 44.358 0 00-1-2l4-2c7.377-.194 14.377-1.861 21-5a3.646 3.646 0 00-1-1.5 8.434 8.434 0 014-.5z"/><path fill="#a8aaab" d="M80.5 49.5c-.835 3.84-.835 7.506 0 11 .537 2.536 1.87 4.536 4 6 3.513 3.03 7.513 3.697 12 2v3c-4.06-.015-8.06.485-12 1.5-1.537 1.11-2.204 2.61-2 4.5-1.175-.219-2.175.114-3 1a36.678 36.678 0 00-7.5 10c-2.112 3.883-1.945 7.55.5 11-3.58 2.571-6.913 5.571-10 9-1.893-4.107-4.56-7.607-8-10.5a161.438 161.438 0 006-9.5c1.175.219 2.175-.114 3-1 3.29-3.325 6.624-6.658 10-10 .886-.825 1.219-1.825 1-3h-3c1.418-1.808 3.418-2.475 6-2 .17-1.322-.163-2.489-1-3.5a609.502 609.502 0 014-19.5z" opacity=".968"/><path fill="#1771d3" d="M47.5 91.5c.282 1.278.949 2.278 2 3-2.667 1.333-5.333 1.333-8 0h-2c-2.045-1.423-3.045-3.423-3-6h3c.722-.418 1.222-1.084 1.5-2 1.444 1.655 3.278 2.322 5.5 2-.237 1.291.096 2.291 1 3z" opacity=".795"/><path fill="#2b5388" d="M71.5 74.5h3c.219 1.175-.114 2.175-1 3-3.376 3.342-6.71 6.675-10 10-.825.886-1.825 1.219-3 1a161.438 161.438 0 01-6 9.5c3.44 2.893 6.107 6.393 8 10.5 3.087-3.429 6.42-6.429 10-9a4.932 4.932 0 003-.5c4.343-4.521 9.343-8.021 15-10.5a77.57 77.57 0 003 13c-.043.916-.376 1.583-1 2a122.768 122.768 0 00-26 10c-1.526-.605-2.526-1.771-3-3.5a4.934 4.934 0 00-3-.5v3c-2.577.045-4.577-.955-6-3 .073-1.527-.594-2.527-2-3 .172-.992-.162-1.658-1-2-1.28-1.468-2.946-2.135-5-2 .413-2.82-.587-4.82-3-6h-2v-2c2.667 1.333 5.333 1.333 8 0 1.175.219 2.175-.114 3-1a255.445 255.445 0 0019-19z" opacity=".96"/><path fill="#f9e18e" d="M43.5 96.5c2.413 1.18 3.413 3.18 3 6 2.054-.135 3.72.532 5 2-5.84 3.999-9.174 2.499-10-4.5.362-1.434 1.029-2.6 2-3.5z"/><path fill="#fe9418" d="M39.5 94.5h2v2a13.364 13.364 0 00-6 4.5c-.169 3.126.165 6.293 1 9.5h4a4.932 4.932 0 00.5 3c1.695-.657 3.528-.657 5.5 0 3.397-1.068 5.397-3.401 6-7 1.406.473 2.073 1.473 2 3-.103 3.136-1.103 5.802-3 8 .039-1.256-.461-2.256-1.5-3a23.505 23.505 0 00-5.5 6c-3.453.782-6.786 1.116-10 1-3.146-3.217-5.48-6.883-7-11-.704-4.303.63-7.803 4-10.5-1.256-.417-1.923-1.25-2-2.5 3.056-1.75 6.39-2.75 10-3z"/><path fill="#ffca45" d="M41.5 96.5h2c-.971.9-1.638 2.066-2 3.5.826 6.999 4.16 8.499 10 4.5.838.342 1.172 1.008 1 2-.603 3.599-2.603 5.932-6 7-1.972-.657-3.805-.657-5.5 0a4.932 4.932 0 01-.5-3h-4c-.835-3.207-1.169-6.374-1-9.5a13.364 13.364 0 016-4.5z"/><path fill="#185dac" d="M92.5 103.5a96.224 96.224 0 01-20.5 23 42.967 42.967 0 01-4.5-7.5 12.988 12.988 0 01-1-5.5 122.768 122.768 0 0126-10z" opacity=".811"/><path fill="#f65c0c" d="M27.5 110.5c1.52 4.117 3.854 7.783 7 11 3.214.116 6.547-.218 10-1a23.505 23.505 0 015.5-6c1.039.744 1.539 1.744 1.5 3-1.553 5.54-5.22 7.873-11 7-3.112-.349-6.446-.349-10 0v-3c-3.034-.109-4.034-1.443-3-4-.825-.886-1.825-1.219-3-1-.469-2.893.531-4.893 3-6z"/><path fill="#ec341b" d="M29.5 97.5c.077 1.25.744 2.083 2 2.5-3.37 2.697-4.704 6.197-4 10.5-2.469 1.107-3.469 3.107-3 6 1.175-.219 2.175.114 3 1-1.034 2.557-.034 3.891 3 4v3c3.554-.349 6.888-.349 10 0-1.699 1.011-3.199 2.345-4.5 4-2.885 1.446-5.551 1.113-8-1-2.333 1.333-4.667 1.333-7 0 .871-4.445.538-8.779-1-13 .632-2.031 1.799-3.698 3.5-5a122.36 122.36 0 002-8c1.716-1.049 3.049-2.382 4-4z" opacity=".486"/></svg>