<svg xmlns="http://www.w3.org/2000/svg" width="150" height="150" shape-rendering="geometricPrecision" text-rendering="geometricPrecision" image-rendering="optimizeQuality" fill-rule="evenodd" clip-rule="evenodd"><path fill="#ee0402" d="M82.5 13.5c-1.098.897-1.098 1.73 0 2.5-3.172 2.006-5.838 4.506-8 7.5a1041.63 1041.63 0 00-12 2c-2.888-.51-5.221.157-7 2a19.524 19.524 0 00-7.5 1 81.493 81.493 0 00-15.5 11c-6.948 7.764-11.615 16.764-14 27-.826 4.482-1.326 9.149-1.5 14a198.274 198.274 0 00-10.5 11c-5.394-22.094-.894-42.094 13.5-60 17.536-17.147 38.37-23.147 62.5-18z" opacity=".971"/><path fill="#d20703" d="M82.5 13.5c8.764 1.577 16.43 5.244 23 11-1.602 3.521-3.935 6.521-7 9-1.226.863-2.56.863-4 0-5.939-4.238-12.605-6.57-20-7-3.798-.983-7.798-1.317-12-1a1041.63 1041.63 0 0112-2c2.162-2.994 4.828-5.494 8-7.5-1.098-.77-1.098-1.603 0-2.5z" opacity=".908"/><path fill="#ec827d" d="M62.5 25.5c4.202-.317 8.202.017 12 1a103.017 103.017 0 00-19 1c1.779-1.843 4.112-2.51 7-2z"/><path fill="#ebd7ce" d="M74.5 26.5c7.395.43 14.061 2.762 20 7 7.886 5.76 13.886 13.093 18 22 .111.617.444 1.117 1 1.5a66.755 66.755 0 01-14 1.5 1342.23 1342.23 0 01-6-10 962.24 962.24 0 00-11-7c-3.54-.503-6.873-1.503-10-3a57.446 57.446 0 009-9c-2.795-.439-5.128-1.439-7-3z"/><path fill="#ba0804" d="M105.5 24.5c7.273 4.236 12.606 10.236 16 18-1.031 4.564-3.031 8.73-6 12.5a4.932 4.932 0 01-3 .5c-4.114-8.907-10.114-16.24-18-22 1.44.863 2.774.863 4 0 3.065-2.479 5.398-5.479 7-9z" opacity=".948"/><path fill="#2487ae" d="M143.5 46.5c-6.7.33-13.366-.003-20-1a5.575 5.575 0 01-1-3c2.899-7.161 8.232-9.661 16-7.5 4.407 2.532 6.074 6.365 5 11.5z" opacity=".931"/><path fill="#e90b06" d="M72.5 38.5c3.127 1.497 6.46 2.497 10 3-1.194 3.205-3.194 5.871-6 8-5.39.283-10.39 1.283-15 3-9.321 1.988-14.988 7.654-17 17-1.75 2.855-2.584 6.189-2.5 10-2.531 3.388-5.698 5.721-9.5 7v-2a57.601 57.601 0 010-21c4.126-12.291 12.46-20.458 25-24.5 4.989-.5 9.989-.666 15-.5z"/><path fill="#f2e6df" d="M74.5 26.5c1.872 1.561 4.205 2.561 7 3a57.446 57.446 0 01-9 9c-5.011-.166-10.011 0-15 .5-12.54 4.042-20.874 12.209-25 24.5-.722.417-1.222 1.084-1.5 2l-.5 9.5c.015 3.576.682 6.743 2 9.5v2c.296 1.903.962 3.57 2 5a9.106 9.106 0 001 5 25.64 25.64 0 01-6 6c-1.07-1.41-2.403-2.41-4-3-5.816-10.076-8.15-21.076-7-33 2.385-10.236 7.052-19.236 14-27a81.493 81.493 0 0115.5-11 19.524 19.524 0 017.5-1 103.017 103.017 0 0119-1z"/><path fill="#2586ac" d="M143.5 48.5a57.523 57.523 0 015 9.5c-3.345 10.5-9.679 13-19 7.5v-1c2.856-3.793 3.856-7.96 3-12.5a208.576 208.576 0 0111-3.5z" opacity=".927"/><path fill="#be1009" d="M82.5 41.5a962.24 962.24 0 0111 7 1342.23 1342.23 0 006 10 309.979 309.979 0 01-12 5c-5.805-10.082-14.472-13.749-26-11 4.61-1.717 9.61-2.717 15-3 2.806-2.129 4.806-4.795 6-8z"/><path fill="#eddfd7" d="M87.5 63.5c-4.773-.376-9.107.624-13 3h-2c-11.227-2.918-15.893 1.248-14 12.5.87 1.364 1.87 2.53 3 3.5.12 1.086.787 1.753 2 2a24.846 24.846 0 008 1 39.273 39.273 0 013 11c-4.134.985-8.468 1.318-13 1a5.728 5.728 0 00-3-1 94.199 94.199 0 01-9-5 294.15 294.15 0 00-4-8 49.873 49.873 0 01-1-14c2.012-9.346 7.679-15.012 17-17 11.528-2.749 20.195.918 26 11z"/><path fill="#dfd0c5" d="M113.5 60.5c2.34 9.308 2.34 18.642 0 28-.391 4.04-1.724 7.707-4 11a71.916 71.916 0 00-7 9c-.996.086-1.829-.248-2.5-1a1225.182 1225.182 0 00-3.5-10v-1c2.557-3.638 4.557-7.638 6-12 .722-.418 1.222-1.084 1.5-2l.5-8c-.022-3.09-.688-5.757-2-8v-1c3.214-2.46 6.881-4.127 11-5z"/><path fill="#2b728d" d="M121.5 42.5h1a5.575 5.575 0 001 3c6.634.997 13.3 1.33 20 1v2a208.576 208.576 0 00-11 3.5c.856 4.54-.144 8.707-3 12.5-4.23-2.742-8.896-4.075-14-4h-2c-4.119.873-7.786 2.54-11 5-4.557 1.049-8.557 3.049-12 6a52.84 52.84 0 00-13 3h-1c-.992.172-1.658-.162-2-1v-7c3.893-2.376 8.227-3.376 13-3a309.979 309.979 0 0012-5 66.755 66.755 0 0014-1.5c-.556-.383-.889-.883-1-1.5a4.932 4.932 0 003-.5c2.969-3.77 4.969-7.936 6-12.5z"/><path fill="#d9c8bd" d="M90.5 71.5c.269 4.847-.398 9.514-2 14h-2a59.91 59.91 0 00-9-5v-6a52.84 52.84 0 0113-3z"/><path fill="#bd6f43" d="M72.5 66.5h2v7l-6 1c.194-2.412 1.527-3.412 4-3v-5z"/><path fill="#c4867f" d="M102.5 66.5c1.312 2.243 1.978 4.91 2 8l-.5 8c-.278.916-.778 1.582-1.5 2 1.226-6.021 1.226-12.021 0-18z"/><path fill="#8d0907" d="M102.5 65.5v1c1.226 5.979 1.226 11.979 0 18-1.443 4.362-3.443 8.362-6 12-3.97-1.737-6.97-4.57-9-8.5.752-.67 1.086-1.504 1-2.5 1.602-4.486 2.269-9.153 2-14 3.443-2.951 7.443-4.951 12-6z"/><path fill="#ed5e57" d="M32.5 63.5a57.601 57.601 0 000 21c-1.318-2.757-1.985-5.924-2-9.5l.5-9.5c.278-.916.778-1.583 1.5-2z"/><path fill="#cd948a" d="M113.5 60.5h2a86.22 86.22 0 01.5 20c.053 3.175-.78 5.842-2.5 8 2.34-9.358 2.34-18.692 0-28z"/><path fill="#8c0303" d="M115.5 60.5c5.104-.075 9.77 1.258 14 4v1c.178 3.477.845 6.81 2 10a40.446 40.446 0 00-2 10 165.535 165.535 0 00-19.5 18 8.43 8.43 0 01-.5-4c2.276-3.293 3.609-6.96 4-11 1.72-2.158 2.553-4.825 2.5-8a86.22 86.22 0 00-.5-20z" opacity=".964"/><path fill="#cc120c" d="M72.5 66.5v5c-2.473-.412-3.806.588-4 3-1.623 2.715-2.29 5.715-2 9-1.791.134-3.458-.2-5-1-1.13-.97-2.13-2.136-3-3.5-1.893-11.252 2.773-15.418 14-12.5z"/><path fill="#7f1615" d="M74.5 73.5c.342.838 1.008 1.172 2 1-.52 6.188-3.853 9.188-10 9-.29-3.285.377-6.285 2-9l6-1z"/><path fill="#94857e" d="M76.5 74.5h1v6a59.91 59.91 0 019 5c.009 1.808-.491 3.475-1.5 5a171.099 171.099 0 01-7.5 6h-3a39.273 39.273 0 00-3-11 24.846 24.846 0 01-8-1c-1.213-.247-1.88-.914-2-2 1.542.8 3.209 1.134 5 1 6.147.188 9.48-2.812 10-9z"/><path fill="#571011" d="M86.5 85.5h2c.086.996-.248 1.83-1 2.5 2.03 3.93 5.03 6.763 9 8.5v1a78.77 78.77 0 00-11 10h-2a6.846 6.846 0 00-1-4c-2.48-1.804-4.147-4.137-5-7a171.099 171.099 0 007.5-6c1.009-1.525 1.509-3.192 1.5-5z"/><path fill="#7c0302" d="M129.5 85.5c-4.108 23.61-17.274 39.944-39.5 49a68.274 68.274 0 01-19.5 3c-.11-.617-.444-1.117-1-1.5a233.255 233.255 0 0016-14 2.429 2.429 0 00-2-.5 268.353 268.353 0 0110-5c3.646-1.982 6.646-4.649 9-8a71.916 71.916 0 017-9 8.43 8.43 0 00.5 4 165.535 165.535 0 0119.5-18z" opacity=".872"/><path fill="#bf130a" d="M44.5 69.5a49.873 49.873 0 001 14 294.15 294.15 0 014 8 94.199 94.199 0 009 5c.077 1.25.744 2.083 2 2.5l-7 7a8.43 8.43 0 01-4 .5l-8-4v-3h-3c-.496-3.142-1.83-5.808-4-8-1.038-1.43-1.704-3.097-2-5 3.802-1.279 6.969-3.612 9.5-7-.084-3.811.75-7.145 2.5-10z"/><path fill="#8d160f" d="M74.5 96.5h3c.853 2.863 2.52 5.196 5 7a6.846 6.846 0 011 4c-3.458 2.614-7.458 3.614-12 3-1.109-.79-2.442-1.29-4-1.5a36.588 36.588 0 008-9.5c-4.817-.667-9.483-1.334-14-2 4.532.318 8.866-.015 13-1z"/><path fill="#9e0403" d="M58.5 96.5a5.728 5.728 0 013 1c4.517.666 9.183 1.333 14 2a36.588 36.588 0 01-8 9.5c1.558.21 2.891.71 4 1.5-7.967 1.003-15.3-.331-22-4a8.43 8.43 0 004-.5l7-7c-1.256-.417-1.923-1.25-2-2.5z"/><path fill="#90867f" d="M96.5 97.5a1240.52 1240.52 0 013.5 10c.671.752 1.504 1.086 2.5 1-2.354 3.351-5.354 6.018-9 8-.086-.996.248-1.829 1-2.5a4.934 4.934 0 00-3-.5v-3a15.063 15.063 0 01-6-3 78.77 78.77 0 0111-10z"/><path fill="#cb0904" d="M18.5 66.5c-1.15 11.924 1.184 22.924 7 33 .229 1.933 1.062 3.6 2.5 5a53.979 53.979 0 006.5 6 8.435 8.435 0 01-.5 4 94.4 94.4 0 01-8.5 8 82.128 82.128 0 01-15.5-19 82.458 82.458 0 01-3.5-12 198.274 198.274 0 0110.5-11c.174-4.851.674-9.518 1.5-14z" opacity=".917"/><path fill="#e3d0c5" d="M34.5 91.5c2.17 2.192 3.504 4.858 4 8h3v3l8 4c6.7 3.669 14.033 5.003 22 4 4.542.614 8.542-.386 12-3h2a15.063 15.063 0 006 3v3a4.934 4.934 0 013 .5c-.752.671-1.086 1.504-1 2.5a268.353 268.353 0 00-10 5h-2a180.808 180.808 0 01-24 1c-1.459.067-2.792-.266-4-1-7.356-2.049-13.69-5.716-19-11a53.979 53.979 0 01-6.5-6c-1.438-1.4-2.271-3.067-2.5-5 1.597.59 2.93 1.59 4 3a25.64 25.64 0 006-6 9.106 9.106 0 01-1-5z"/><path fill="#ac0302" d="M34.5 110.5c5.31 5.284 11.644 8.951 19 11 .077 1.25.744 2.083 2 2.5-4.129 2.769-7.462 6.269-10 10.5-7.543-2.716-14.21-6.716-20-12a94.4 94.4 0 008.5-8 8.435 8.435 0 00.5-4z" opacity=".94"/><path fill="#930000" d="M53.5 121.5c1.208.734 2.541 1.067 4 1 2.686 1.491 5.686 2.157 9 2 4.36-.266 8.693-.766 13-1.5.916-.278 1.582-.778 2-1.5h2a2.429 2.429 0 012 .5 233.255 233.255 0 01-16 14c.556.383.89.883 1 1.5-8.545.458-16.878-.542-25-3 2.538-4.231 5.871-7.731 10-10.5-1.256-.417-1.923-1.25-2-2.5z" opacity=".924"/><path fill="#b75a53" d="M81.5 121.5c-.418.722-1.084 1.222-2 1.5-4.307.734-8.64 1.234-13 1.5-3.314.157-6.314-.509-9-2a180.81 180.81 0 0024-1z"/></svg>