<svg xmlns="http://www.w3.org/2000/svg" width="150" height="150" shape-rendering="geometricPrecision" text-rendering="geometricPrecision" image-rendering="optimizeQuality" fill-rule="evenodd" clip-rule="evenodd"><path fill="#8f0000" d="M90.5 11.5a117.818 117.818 0 00-3 12c-6.512-5.364-8.845-12.364-7-21h4a4.932 4.932 0 00.5 3 41.39 41.39 0 015.5 6z" opacity=".784"/><path fill="#33520a" d="M119.5 13.5h5v8a23.148 23.148 0 01-8 2v-9c1.291.237 2.291-.096 3-1z" opacity=".778"/><path fill="#7da902" d="M31.5 20.5c-1.803 1.581-3.136 3.581-4 6-3.05-1.88-3.717-4.548-2-8 2.518-1.082 4.518-.415 6 2z"/><path fill="#c90000" d="M90.5 11.5c3.505 1.275 6.505 3.275 9 6a53.788 53.788 0 01-1 14 3321.78 3321.78 0 00-11-8 117.818 117.818 0 013-12z" opacity=".844"/><path fill="#f00000" d="M99.5 17.5c3.22 2.54 6.553 5.04 10 7.5.752.67 1.086 1.504 1 2.5.345 3.615-.322 6.948-2 10a49.223 49.223 0 01-10-6 53.788 53.788 0 001-14z" opacity=".606"/><path fill="#4a7106" d="M31.5 20.5c.997 2.505.997 5.172 0 8-1.983.343-3.317-.323-4-2 .864-2.419 2.197-4.419 4-6z" opacity=".224"/><path fill="#40610a" d="M56.5 33.5c-.17-1.322.163-2.489 1-3.5a56.175 56.175 0 01-4-9.5v-4h4c1.102 3.6 2.102 7.267 3 11-.144 2.883-1.477 4.883-4 6z" opacity=".961"/><path fill="#8dbf00" d="M49.5 25.5a38.553 38.553 0 014 10c-1.105 1.723-2.772 2.723-5 3-3.465-2.557-4.798-5.89-4-10a31.19 31.19 0 015-3z" opacity=".849"/><path fill="#ff9000" d="M71.5 20.5c1.757.792 3.09 2.125 4 4a6.845 6.845 0 004 1c-1.774 2.618-2.774 5.618-3 9-1.984.117-3.65-.55-5-2-1.024 1.353-2.357 2.02-4 2a76.94 76.94 0 00-1-10h4c-.067-1.459.266-2.792 1-4z" opacity=".685"/><path fill="#ffd800" d="M71.5 24.5c1.208.734 2.541 1.067 4 1 .012 3.946-1.988 5.613-6 5a6.845 6.845 0 00-1-4 44.293 44.293 0 003-2z"/><path fill="#6b9504" d="M53.5 20.5a56.175 56.175 0 004 9.5c-.837 1.011-1.17 2.178-1 3.5-.79.901-1.79 1.568-3 2a38.553 38.553 0 00-4-10 14.76 14.76 0 014-5z" opacity=".304"/><path fill="#b30000" d="M110.5 27.5c4.302 2.681 6.635 6.681 7 12-1.782 1.22-3.782 1.886-6 2-.667-1.333-1.333-1.333-2 0a51.56 51.56 0 01-1 7h-3c-2.582.475-4.582-.192-6-2a25.168 25.168 0 014-7 18.437 18.437 0 006-.5c-.556-.383-.889-.883-1-1.5 1.678-3.052 2.345-6.385 2-10z" opacity=".998"/><path fill="#669303" d="M44.5 28.5c-.798 4.11.535 7.443 4 10-1.156 1.887-2.823 3.22-5 4-2.094-2.597-3.427-5.597-4-9 1.333-2 3-3.667 5-5z" opacity=".515"/><path fill="#ea0000" d="M91.5 36.5c4.341.053 8.341 1.053 12 3a25.168 25.168 0 00-4 7c-3.482-.328-6.815-.328-10 0a35.09 35.09 0 002-10z" opacity=".978"/><path fill="#3f6107" d="M39.5 33.5c.573 3.403 1.906 6.403 4 9l-1 2a19.242 19.242 0 01-6-1c-1.086-.12-1.753-.787-2-2 1.31-2.995 2.977-5.662 5-8z" opacity=".708"/><path fill="#870100" d="M117.5 39.5a42.37 42.37 0 00-3 9c-3.135 1.283-6.135 1.283-9 0h3a51.56 51.56 0 001-7h2c2.218-.114 4.218-.78 6-2z" opacity=".873"/><path fill="#32530b" d="M125.5 44.5c2.75.118 4.75 1.451 6 4 .825.886 1.825 1.219 3 1a29.752 29.752 0 01-2 7c-7.788-.637-10.122-4.637-7-12z" opacity=".842"/><path fill="#7dac03" d="M36.5 43.5a19.22 19.22 0 006 1c4.014 1.01 8.014 2.01 12 3 .31 3.213-.023 6.213-1 9a193.004 193.004 0 01-14-4c-2.198-2.594-3.198-5.594-3-9z"/><path fill="#900000" d="M91.5 36.5a35.09 35.09 0 01-2 10c-.667 0-1 .333-1 1-.37 3.637-1.37 6.97-3 10-.955-1.783-1.622-3.783-2-6a61.533 61.533 0 013-13c1.822-.33 3.49-.998 5-2z" opacity=".965"/><path fill="#385a0a" d="M54.5 47.5c5.153 1.827 8.153 5.494 9 11-1.6-1.062-3.266-1.062-5 0l-5-2c.977-2.787 1.31-5.787 1-9z" opacity=".919"/><path fill="#32500a" d="M66.5 52.5h8c.981 6.192-1.686 8.859-8 8v-8z" opacity=".717"/><path fill="#ffa300" d="M20.5 47.5a38.482 38.482 0 0012 2c-1.333 3.667-1.333 7.333 0 11-3.406-.198-6.406.802-9 3-1.533-1.789-2.533-3.789-3-6-3 .333-4.333-1-4-4 3.568-.26 4.901-2.26 4-6z" opacity=".796"/><path fill="#ffe100" d="M24.5 52.5h4v5c-3.026 1.533-5.36.7-7-2.5 1.442-.377 2.442-1.21 3-2.5z"/><path fill="#d80000" d="M88.5 47.5c6.45 5.394 9.116 12.394 8 21l-4 1-7-12c1.63-3.03 2.63-6.363 3-10z" opacity=".998"/><path fill="#fabc40" d="M53.5 64.5c.172.992-.162 1.658-1 2h-11v11c-1.403-3.409-2.07-7.075-2-11 .077-1.25.744-2.083 2-2.5a28.222 28.222 0 0112 .5z" opacity=".246"/><path fill="#80ab03" d="M63.5 58.5c.778.656 1.444 1.489 2 2.5a14.72 14.72 0 00-2.5 6.5c-.995.566-1.828 1.233-2.5 2-1.679-.215-2.679.452-3 2-1.4.6-2.4 1.6-3 3-.897 1.098-1.73 1.098-2.5 0-.493-1.634-.66-3.3-.5-5 .904-.709 1.237-1.709 1-3 .838-.342 1.172-1.008 1-2l5-6c1.734-1.062 3.4-1.062 5 0z" opacity=".969"/><path fill="#35520b" d="M84.5 72.5c-2.361 1.288-3.861 3.288-4.5 6-.67-.752-1.504-1.086-2.5-1a20.677 20.677 0 01-5-1c0-1.333-.667-2-2-2 1.039-4.372 3.706-7.039 8-8v3c2.716-.114 4.716.886 6 3z" opacity=".88"/><path fill="#f78928" d="M60.5 69.5a42.95 42.95 0 0110 5c.61.891.943 1.891 1 3h-2a129.707 129.707 0 00-12-6c.321-1.548 1.321-2.215 3-2z" opacity=".521"/><path fill="#7a0100" d="M96.5 68.5c.76 6.814-1.906 11.481-8 14v-10c.711-1.701 2.045-2.701 4-3l4-1z" opacity=".662"/><path fill="#4d5209" d="M51.5 69.5c-.16 1.7.007 3.366.5 5 .77 1.098 1.603 1.098 2.5 0-.57 2.835-2.236 4.501-5 5a32.437 32.437 0 01.5-8c.278-.916.778-1.582 1.5-2z"/><path fill="#f80d01" d="M72.5 76.5a20.69 20.69 0 005 1c.321 1.548 1.321 2.215 3 2-.175 2.12.159 4.12 1 6-1.562.233-2.895.9-4 2-5.527.87-9.193 3.87-11 9h-3a61.278 61.278 0 011-15c2.326-.645 3.993-1.978 5-4h2c.667 0 1-.333 1-1z" opacity=".986"/><path fill="#ae0c00" d="M84.5 72.5h4v10c-1.846 1.955-4.18 2.955-7 3-.841-1.88-1.175-3.88-1-6-1.679.215-2.679-.452-3-2 .996-.086 1.83.248 2.5 1 .639-2.712 2.139-4.712 4.5-6z" opacity=".997"/><path fill="#ff9200" d="M121.5 61.5h5a16.874 16.874 0 001 8c3.569.847 4.902 2.847 4 6a20.058 20.058 0 00-6 3c-1.924 8.98-4.591 9.313-8 1-10.187 1.362-11.521-1.138-4-7.5-2.484-1.892-3.818-4.392-4-7.5 3.35.165 6.683-.002 10-.5 1.256-.417 1.923-1.25 2-2.5z" opacity=".996"/><path fill="#ffd500" d="M121.5 65.5h3c.314 5.225-.353 10.225-2 15h-3v-3h-6c-.028-2.082.639-3.916 2-5.5-1.361-1.584-2.028-3.418-2-5.5 2.885.306 5.552-.027 8-1z"/><path fill="#d54d11" d="M52.5 66.5c.237 1.291-.096 2.291-1 3-.722.418-1.222 1.084-1.5 2a32.437 32.437 0 00-.5 8c2.764-.499 4.43-2.165 5-5 .6-1.4 1.6-2.4 3-3a129.707 129.707 0 0112 6c-1.007 2.022-2.674 3.355-5 4a141.352 141.352 0 00-12.5 3c-2.411-1.653-3.578-.987-3.5 2a110.811 110.811 0 00-7-9v-11h11z"/><path fill="#ffef6f" d="M39.5 66.5c-.07 3.925.597 7.591 2 11a110.811 110.811 0 017 9c.734 1.208 1.067 2.541 1 4-1.33-1.332-2.997-2.165-5-2.5 1.196-.654 1.196-1.154 0-1.5a71.19 71.19 0 01-17 15.5 4.934 4.934 0 01-3 .5c3.497-12.691 8.497-24.691 15-36z" opacity=".869"/><path fill="#f14f0e" d="M64.5 81.5a61.278 61.278 0 00-1 15h3c1.807-5.13 5.473-8.13 11-9 .59 1.597 1.59 2.93 3 4-6.211 3.882-12.878 6.549-20 8a17.906 17.906 0 01-5-3c-.31-1.644-1.31-2.644-3-3-.31-1.644-1.31-2.644-3-3 .067-1.459-.266-2.792-1-4-.078-2.987 1.089-3.653 3.5-2a141.352 141.352 0 0112.5-3z"/><path fill="#2e4c0b" d="M106.5 86.5c1.624-.14 2.79.527 3.5 2 1.606 7.04-1.228 10.207-8.5 9.5-.944-2.72-1.277-5.552-1-8.5 2.716.114 4.716-.886 6-3z" opacity=".802"/><path fill="#f8580f" d="M81.5 85.5a85.003 85.003 0 0111 18h-1c-8.674-1.847-17.007-1.18-25 2l-6-4v-2c7.122-1.451 13.789-4.118 20-8-1.41-1.07-2.41-2.403-3-4 1.105-1.1 2.438-1.767 4-2z"/><path fill="#fed603" d="M49.5 90.5c1.69.356 2.69 1.356 3 3 1.322 1.811 1.822 3.811 1.5 6-9.903 11.032-22.07 17.366-36.5 19l2-2a21.029 21.029 0 007-2 261.515 261.515 0 0017-10.5l7.5-7.5c.613-1.995.113-3.662-1.5-5v-1z"/><path fill="#54690a" d="M91.5 103.5c-3.397.151-5.73 1.818-7 5a114.266 114.266 0 00-18-1v-2c7.993-3.18 16.326-3.847 25-2z"/><path fill="#ffec2e" d="M49.5 90.5v1c-5.43 4.262-10.43 9.095-15 14.5l-6 1c-2.317 2.157-4.984 3.657-8 4.5a32.568 32.568 0 014-9 4.934 4.934 0 003-.5 71.19 71.19 0 0017-15.5c1.196.346 1.196.846 0 1.5 2.003.335 3.67 1.168 5 2.5z"/><path fill="#ffe805" d="M49.5 91.5c1.613 1.338 2.113 3.005 1.5 5l-7.5 7.5a261.515 261.515 0 01-17 10.5 21.029 21.029 0 01-7 2 20.676 20.676 0 011-5c3.016-.843 5.683-2.343 8-4.5l6-1c4.57-5.405 9.57-10.238 15-14.5z"/><path fill="#fead02" d="M55.5 96.5a17.906 17.906 0 005 3v2c.01 1.517.677 2.684 2 3.5l-5 3.5c-5.076 8.205-12.41 12.872-22 14v3a175.951 175.951 0 01-17.5 5c-1.03-.336-1.53-1.003-1.5-2v-4c14.97-1.233 27.803-7.233 38.5-18 .29-1.544.956-2.877 2-4 .322-2.189-.178-4.189-1.5-6z" opacity=".988"/><path fill="#81ae02" d="M91.5 103.5h1c8.349 1.794 15.349 5.794 21 12a30.326 30.326 0 00-7 6 81.706 81.706 0 00-9-7c-1.189-.929-2.522-1.262-4-1v-3h-5c-.683-1.676-2.017-2.343-4-2 1.27-3.182 3.603-4.849 7-5z"/><path fill="#ff7e00" d="M132.5 102.5h-7c-.368 3.033.298 5.7 2 8h-5a41.333 41.333 0 002-10c2.097.853 4.097.853 6 0 1.213.247 1.88.914 2 2z" opacity=".035"/><path fill="#ff8e00" d="M132.5 103.5c2.469 1.107 3.469 3.107 3 6-2.792-.048-4.625 1.285-5.5 4a10.515 10.515 0 01-2.5-3c3.816-.59 5.483-2.923 5-7z" opacity=".345"/><path fill="#f9590f" d="M88.5 110.5h5v3c.338 3.651-1.328 5.317-5 5-5.8-2.114-11.466-4.947-17-8.5a56.723 56.723 0 0117 .5z"/><path fill="#ffc100" d="M132.5 102.5v1c.483 4.077-1.184 6.41-5 7-1.702-2.3-2.368-4.967-2-8h7z" opacity=".996"/><path fill="#fe8100" d="M68.5 109.5a10.177 10.177 0 013 3 796.673 796.673 0 01-27 19.5 1047.56 1047.56 0 01-24 8.5c-1.024-1.353-2.357-2.02-4-2-1.051-.722-1.718-1.722-2-3 3.35.165 6.683-.002 10-.5 14.12-4.309 26.954-10.809 38.5-19.5.495-1.973.662-3.973.5-6h5z" opacity=".993"/><path fill="#f57900" d="M71.5 112.5a16.51 16.51 0 015 2.5 1067.32 1067.32 0 00-10 9 4.934 4.934 0 01-3 .5v5c.03.997-.47 1.664-1.5 2A2862.052 2862.052 0 0031.5 143a30.485 30.485 0 01-11 0c-2.251-.748-3.584-2.248-4-4.5 1.643-.02 2.976.647 4 2 7.98-2.717 15.98-5.55 24-8.5a796.673 796.673 0 0027-19.5z" opacity=".953"/><path fill="#ffc100" d="M52.5 93.5c1.69.356 2.69 1.356 3 3 1.322 1.811 1.822 3.811 1.5 6-1.044 1.123-1.71 2.456-2 4-10.697 10.767-23.53 16.767-38.5 18a19.24 19.24 0 001-6c14.43-1.634 26.597-7.968 36.5-19 .322-2.189-.178-4.189-1.5-6z"/><path fill="#e57309" d="M66.5 107.5c6.036-.14 12.036.193 18 1 1.983-.343 3.317.324 4 2a56.723 56.723 0 00-17-.5c5.534 3.553 11.2 6.386 17 8.5a168.818 168.818 0 01-19 10 19.051 19.051 0 01-6 1v-5a4.934 4.934 0 003-.5 1067.32 1067.32 0 0110-9 16.51 16.51 0 00-5-2.5 10.177 10.177 0 00-3-3l-2-2z" opacity=".998"/><path fill="#fe9d01" d="M60.5 101.5l6 4v2a12.93 12.93 0 00-5 .5c-4.017 6.885-9.684 12.218-17 16-4.587-.204-8.254 1.462-11 5a144.29 144.29 0 01-19 5.5c-.475-2.582.192-4.582 2-6-.03.997.47 1.664 1.5 2a175.951 175.951 0 0017.5-5v-3c9.59-1.128 16.924-5.795 22-14l5-3.5c-1.323-.816-1.99-1.983-2-3.5z"/><path fill="#4a6d07" d="M113.5 115.5c4.98 4.036 5.314 8.703 1 14a45.409 45.409 0 00-8-8 30.326 30.326 0 017-6z" opacity=".192"/><path fill="#fe9000" d="M66.5 107.5l2 2h-5a18.437 18.437 0 01-.5 6c-11.546 8.691-24.38 15.191-38.5 19.5-3.317.498-6.65.665-10 .5v-1a144.29 144.29 0 0019-5.5c2.746-3.538 6.413-5.204 11-5 7.316-3.782 12.983-9.115 17-16a12.93 12.93 0 015-.5z" opacity=".976"/></svg>