<?xml version="1.0" encoding="utf-8"?><svg viewBox="0 0 1828 1070" xmlns="http://www.w3.org/2000/svg" xmlns:xlink="http://www.w3.org/1999/xlink"><style>:root>svg{display:none}:root>svg:target{display:block}</style><svg fill="none" viewBox="0 0 163 86" id="logo" xmlns="http://www.w3.org/2000/svg"><path d="M81.095 65.45c-1.58 0-3.005-.275-4.275-.825-1.26-.55-2.3-1.335-3.12-2.355-.81-1.03-1.325-2.25-1.545-3.66l3.75-.57c.32 1.28.975 2.27 1.965 2.97 1 .7 2.15 1.05 3.45 1.05.77 0 1.495-.12 2.175-.36.68-.24 1.23-.59 1.65-1.05.43-.46.645-1.025.645-1.695 0-.3-.05-.575-.15-.825-.1-.26-.25-.49-.45-.69-.19-.2-.44-.38-.75-.54-.3-.17-.65-.315-1.05-.435l-5.58-1.65c-.48-.14-1-.325-1.56-.555a6.724 6.724 0 01-1.575-.975c-.49-.42-.895-.95-1.215-1.59-.31-.65-.465-1.45-.465-2.4 0-1.39.35-2.555 1.05-3.495.71-.95 1.66-1.66 2.85-2.13 1.2-.47 2.53-.7 3.99-.69 1.48.01 2.8.265 3.96.765a7.522 7.522 0 012.91 2.145c.78.94 1.33 2.075 1.65 3.405l-3.885.675c-.16-.76-.47-1.405-.93-1.935a4.34 4.34 0 00-1.665-1.23 5.603 5.603 0 00-4.095-.12c-.61.22-1.105.54-1.485.96-.37.42-.555.91-.555 1.47 0 .53.16.965.48 1.305.32.33.715.595 1.185.795.48.19.965.35 1.455.48l3.87 1.08c.53.14 1.125.33 1.785.57.66.24 1.295.575 1.905 1.005.61.43 1.11.995 1.5 1.695.4.7.6 1.59.6 2.67 0 1.12-.235 2.105-.705 2.955a6.187 6.187 0 01-1.875 2.1c-.79.56-1.695.98-2.715 1.26-1.01.28-2.07.42-3.18.42zm16.252 0c-1.17 0-2.16-.22-2.97-.66-.81-.45-1.425-1.045-1.845-1.785a4.96 4.96 0 01-.615-2.445c0-.78.13-1.48.39-2.1.26-.63.66-1.17 1.2-1.62.54-.46 1.24-.835 2.1-1.125.65-.21 1.41-.4 2.28-.57.88-.17 1.83-.325 2.85-.465 1.03-.15 2.105-.31 3.225-.48l-1.29.735c.01-1.12-.24-1.945-.75-2.475s-1.37-.795-2.58-.795c-.73 0-1.435.17-2.115.51-.68.34-1.155.925-1.425 1.755l-3.3-1.035c.4-1.37 1.16-2.47 2.28-3.3 1.13-.83 2.65-1.245 4.56-1.245 1.44 0 2.705.235 3.795.705 1.1.47 1.915 1.24 2.445 2.31.29.57.465 1.155.525 1.755.06.59.09 1.235.09 1.935V65h-3.165v-3.51l.525.57c-.73 1.17-1.585 2.03-2.565 2.58-.97.54-2.185.81-3.645.81zm.72-2.88c.82 0 1.52-.145 2.1-.435.58-.29 1.04-.645 1.38-1.065.35-.42.585-.815.705-1.185.19-.46.295-.985.315-1.575.03-.6.045-1.085.045-1.455l1.11.33c-1.09.17-2.025.32-2.805.45-.78.13-1.45.255-2.01.375-.56.11-1.055.235-1.485.375-.42.15-.775.325-1.065.525-.29.2-.515.43-.675.69-.15.26-.225.565-.225.915 0 .4.1.755.3 1.065.2.3.49.54.87.72.39.18.87.27 1.44.27zM113.896 65l-5.88-16.2h3.615l4.08 11.745 4.065-11.745h3.63l-5.88 16.2h-3.63zm16.582 0l-5.88-16.2h3.615l4.08 11.745 4.065-11.745h3.63l-5.88 16.2h-3.63zm14.186 7.2l3.12-8.565.06 2.52-7.065-17.355h3.765l5.01 12.84h-.96l4.875-12.84h3.615l-9.03 23.4h-3.39z" fill="#fff"/><path d="M56.298 67.278c5.837-7.618 7.271-17.766 3.938-26.783-2.423-6.557-7.216-11.712-13.441-14.792-7.558-3.74-16.95-3.6-24.37.424-5.417 2.937-9.409 7.216-11.975 12.837-5.027 11.009-2.167 24.673 7.196 32.495 5.034 4.204 10.875 6.296 17.523 6.276 8.215-.025 16.14-3.944 21.13-10.457z" stroke="#fff"/><path d="M11.42 50.012c-.25 11.828 8.126 22.301 19.914 24.087 3.634.55 7.17.296 10.606-.764 11.509-3.552 18.055-14.904 16.35-26.728-1.038-7.2-5.486-13.716-11.854-17.248-11.166-6.192-24.84-2.482-31.464 8.363-2.273 3.722-3.457 7.819-3.551 12.29z" stroke="#fff"/><path d="M30.518 42.911c1.974 1.736.16 4.895-.843 6.585-.53.893-1.065 1.782-1.605 2.669a23.448 23.448 0 00-.874 1.525c-.286.575.15 1.206.799 1.036.237-.063.418-.27.578-.454 4.636-5.32 9.28-10.632 13.934-15.937.018-.02.013-.034-.013-.038a1.526 1.526 0 00-.25-.02l-14.932.004c-1.246 0-1.104 1.026-.367 1.616a99.349 99.349 0 013.573 3.014zM39.072 55.054c.078-1.191.686-2.379 1.335-3.463l2.217-3.707c.147-.247.267-.527.186-.775-.142-.433-.413-.61-.814-.528-.28.057-.444.284-.631.498a4726.41 4726.41 0 00-12.582 14.533.019.019 0 00-.005.01.018.018 0 00.009.017.019.019 0 00.01.003h13.992c.317 0 .53-.02.642-.059.45-.154.574-.663.331-1.057a1.612 1.612 0 00-.362-.407c-.479-.39-1.432-1.182-2.862-2.378-.873-.73-1.546-1.463-1.466-2.687z" stroke="#fff"/><path d="M60.236 40.495c3.333 9.017 1.9 19.165-3.938 26.783-4.99 6.513-12.914 10.432-21.129 10.457-6.648.02-12.49-2.072-17.523-6.276-9.363-7.822-12.223-21.486-7.196-32.495 2.566-5.62 6.558-9.9 11.975-12.837 7.42-4.023 16.812-4.164 24.37-.424 6.225 3.08 11.018 8.235 13.441 14.792zm-48.815 9.517c-.25 11.827 8.125 22.3 19.913 24.087 3.635.55 7.17.296 10.606-.765 11.509-3.551 18.055-14.903 16.35-26.728-1.038-7.2-5.485-13.716-11.854-17.248-11.166-6.191-24.84-2.481-31.464 8.363-2.273 3.722-3.457 7.82-3.551 12.29z" fill="#fff"/><path d="M30.518 42.911a99.349 99.349 0 00-3.573-3.014c-.737-.59-.879-1.616.367-1.616l14.933-.005c.083 0 .166.007.249.02.026.005.03.018.013.039a6812.296 6812.296 0 00-13.934 15.937c-.16.184-.34.391-.578.454-.649.17-1.085-.46-.8-1.036.166-.331.458-.84.875-1.525.54-.887 1.075-1.776 1.605-2.669 1.003-1.69 2.817-4.85.843-6.585zM39.072 55.054c-.08 1.224.593 1.956 1.466 2.687A365.256 365.256 0 0043.4 60.12c.15.123.271.258.362.407.243.394.119.903-.33 1.057-.113.039-.326.058-.643.058H28.797c-.004.001-.007 0-.01-.002a.017.017 0 01-.007-.008c-.002-.003-.002-.006-.002-.01l.005-.01A4726.41 4726.41 0 0141.365 47.08c.187-.214.352-.441.631-.498.401-.082.672.095.814.528.081.248-.04.528-.186.775l-2.217 3.707c-.65 1.084-1.257 2.272-1.335 3.463z" fill="#fff"/></svg><svg fill="none" viewBox="0 0 157 159" id="logo-two" xmlns="http://www.w3.org/2000/svg"><path d="M139.642 128.23c16.759-21.88 20.876-51.026 11.307-76.924-6.959-18.833-20.719-33.64-38.594-42.486-21.7-10.74-48.665-10.336-69.968 1.22-15.553 8.435-27.015 20.725-34.384 36.868-14.433 31.618-6.22 70.864 20.663 93.328 14.45 12.075 31.221 18.083 50.311 18.025 23.584-.072 46.337-11.326 60.665-30.031z" stroke="#fff"/><path d="M10.79 78.64c-.717 33.969 23.33 64.05 57.174 69.179 10.437 1.582 20.587.85 30.452-2.195 33.044-10.201 51.839-42.804 46.944-76.765-2.979-20.68-15.75-39.394-34.036-49.538-32.058-17.783-71.32-7.127-90.337 24.019-6.527 10.69-9.926 22.457-10.197 35.3z" stroke="#fff"/><path d="M65.623 58.245c5.667 4.984.46 14.059-2.422 18.913a843.723 843.723 0 01-4.607 7.664c-1.199 1.97-2.035 3.43-2.51 4.382-.822 1.651.432 3.464 2.293 2.973.682-.18 1.2-.775 1.66-1.303A19527.601 19527.601 0 01100.044 45.1c.051-.06.039-.096-.037-.11a4.396 4.396 0 00-.715-.058c-14.29.006-28.582.01-42.874.014-3.578 0-3.171 2.948-1.053 4.641 2.996 2.392 6.416 5.277 10.258 8.657zM90.182 93.121c.224-3.422 1.969-6.832 3.832-9.945l6.368-10.65c.42-.707.766-1.51.532-2.223-.406-1.246-1.185-1.752-2.335-1.519-.803.164-1.277.816-1.814 1.432a13601 13601 0 00-36.124 41.739.053.053 0 00-.013.027c-.002.01 0 .02.004.03a.048.048 0 00.02.022.049.049 0 00.029.007 107618 107618 0 0040.175-.002c.907 0 1.521-.055 1.842-.166 1.291-.444 1.648-1.903.95-3.036a4.606 4.606 0 00-1.041-1.168c-1.373-1.12-4.111-3.397-8.215-6.83-2.508-2.1-4.439-4.205-4.21-7.718z" stroke="#fff"/><path d="M150.949 51.306c9.569 25.898 5.452 55.044-11.307 76.924-14.328 18.705-37.081 29.959-60.665 30.031-19.09.058-35.86-5.95-50.311-18.025C1.782 117.772-6.43 78.526 8.003 46.908c7.37-16.143 18.83-28.433 34.384-36.868C63.69-1.516 90.655-1.92 112.355 8.82c17.875 8.846 31.635 23.653 38.594 42.486zM10.791 78.638c-.717 33.97 23.33 64.051 57.174 69.18 10.436 1.582 20.587.85 30.452-2.195 33.043-10.201 51.838-42.804 46.944-76.765-2.98-20.68-15.75-39.394-34.036-49.538-32.058-17.783-71.32-7.127-90.337 24.019-6.527 10.69-9.926 22.457-10.197 35.3z" fill="#fff"/><path d="M65.623 58.245c-3.842-3.38-7.262-6.265-10.259-8.657-2.117-1.693-2.523-4.641 1.054-4.641 14.292-.004 28.583-.008 42.874-.014.24 0 .478.02.715.058.076.014.088.05.037.11a19527.601 19527.601 0 00-40.007 45.773c-.46.528-.978 1.123-1.66 1.303-1.861.49-3.115-1.322-2.293-2.973.475-.952 1.311-2.413 2.51-4.382 1.549-2.546 3.085-5.101 4.607-7.664 2.882-4.854 8.089-13.929 2.422-18.913zM90.182 93.121c-.229 3.513 1.702 5.618 4.21 7.718 4.104 3.433 6.842 5.71 8.215 6.83.433.352.78.741 1.041 1.168.698 1.133.341 2.592-.95 3.036-.321.111-.935.166-1.842.166a107618 107618 0 01-40.175.002.049.049 0 01-.03-.007.048.048 0 01-.019-.022.055.055 0 01-.004-.03.053.053 0 01.013-.027 13601 13601 0 0136.123-41.739c.538-.616 1.012-1.268 1.815-1.432 1.15-.233 1.929.273 2.335 1.519.234.712-.112 1.516-.532 2.223l-6.368 10.65c-1.863 3.113-3.608 6.523-3.832 9.945z" fill="#fff"/></svg><svg fill="none" viewBox="0 0 1828 1070" id="study-back" xmlns="http://www.w3.org/2000/svg"><g filter="url(#cfilter0_f_381_170)"><ellipse cx="432" cy="388" rx="114" ry="106" fill="#01F0FF" fill-opacity=".92"/></g><g filter="url(#cfilter1_f_381_170)"><ellipse cx="202" cy="576" rx="114" ry="106" fill="#01F0FF" fill-opacity=".92"/></g><g filter="url(#cfilter2_f_381_170)"><ellipse cx="701" cy="688" rx="71" ry="66" fill="#01F0FF" fill-opacity=".92"/></g><g filter="url(#cfilter3_f_381_170)"><ellipse cx="1367" cy="388" rx="123" ry="116" fill="#01F0FF" fill-opacity=".92"/></g><g filter="url(#cfilter4_f_381_170)"><ellipse cx="1277" cy="804" rx="123" ry="116" fill="#01F0FF" fill-opacity=".92"/></g><g filter="url(#cfilter5_f_381_170)"><ellipse cx="995" cy="494" rx="71" ry="66" fill="#01F0FF" fill-opacity=".92"/></g><g filter="url(#cfilter6_f_381_170)"><ellipse cx="274" cy="258" rx="116" ry="108" fill="#3F82D0"/></g><g filter="url(#cfilter7_f_381_170)"><ellipse cx="1118" cy="634" rx="52" ry="54" fill="#3F82D0"/></g><g filter="url(#cfilter8_f_381_170)"><ellipse cx="1626" cy="326" rx="52" ry="54" fill="#3F82D0"/></g><g filter="url(#cfilter9_f_381_170)"><ellipse cx="1490" cy="710" rx="52" ry="54" fill="#3F82D0"/></g><g filter="url(#cfilter10_f_381_170)"><ellipse cx="442" cy="634" rx="52" ry="54" fill="#3F82D0"/></g><defs><filter id="cfilter0_f_381_170" x="218" y="182" width="428" height="412" filterUnits="userSpaceOnUse" color-interpolation-filters="sRGB"><feFlood flood-opacity="0" result="BackgroundImageFix"/><feBlend in="SourceGraphic" in2="BackgroundImageFix" result="shape"/><feGaussianBlur stdDeviation="50" result="effect1_foregroundBlur_381_170"/></filter><filter id="cfilter1_f_381_170" x="-62" y="320" width="528" height="512" filterUnits="userSpaceOnUse" color-interpolation-filters="sRGB"><feFlood flood-opacity="0" result="BackgroundImageFix"/><feBlend in="SourceGraphic" in2="BackgroundImageFix" result="shape"/><feGaussianBlur stdDeviation="75" result="effect1_foregroundBlur_381_170"/></filter><filter id="cfilter2_f_381_170" x="480" y="472" width="442" height="432" filterUnits="userSpaceOnUse" color-interpolation-filters="sRGB"><feFlood flood-opacity="0" result="BackgroundImageFix"/><feBlend in="SourceGraphic" in2="BackgroundImageFix" result="shape"/><feGaussianBlur stdDeviation="75" result="effect1_foregroundBlur_381_170"/></filter><filter id="cfilter3_f_381_170" x="1094" y="122" width="546" height="532" filterUnits="userSpaceOnUse" color-interpolation-filters="sRGB"><feFlood flood-opacity="0" result="BackgroundImageFix"/><feBlend in="SourceGraphic" in2="BackgroundImageFix" result="shape"/><feGaussianBlur stdDeviation="75" result="effect1_foregroundBlur_381_170"/></filter><filter id="cfilter4_f_381_170" x="1004" y="538" width="546" height="532" filterUnits="userSpaceOnUse" color-interpolation-filters="sRGB"><feFlood flood-opacity="0" result="BackgroundImageFix"/><feBlend in="SourceGraphic" in2="BackgroundImageFix" result="shape"/><feGaussianBlur stdDeviation="75" result="effect1_foregroundBlur_381_170"/></filter><filter id="cfilter5_f_381_170" x="824" y="328" width="342" height="332" filterUnits="userSpaceOnUse" color-interpolation-filters="sRGB"><feFlood flood-opacity="0" result="BackgroundImageFix"/><feBlend in="SourceGraphic" in2="BackgroundImageFix" result="shape"/><feGaussianBlur stdDeviation="50" result="effect1_foregroundBlur_381_170"/></filter><filter id="cfilter6_f_381_170" x="8" y="0" width="532" height="516" filterUnits="userSpaceOnUse" color-interpolation-filters="sRGB"><feFlood flood-opacity="0" result="BackgroundImageFix"/><feBlend in="SourceGraphic" in2="BackgroundImageFix" result="shape"/><feGaussianBlur stdDeviation="75" result="effect1_foregroundBlur_381_170"/></filter><filter id="cfilter7_f_381_170" x="966" y="480" width="304" height="308" filterUnits="userSpaceOnUse" color-interpolation-filters="sRGB"><feFlood flood-opacity="0" result="BackgroundImageFix"/><feBlend in="SourceGraphic" in2="BackgroundImageFix" result="shape"/><feGaussianBlur stdDeviation="50" result="effect1_foregroundBlur_381_170"/></filter><filter id="cfilter8_f_381_170" x="1424" y="122" width="404" height="408" filterUnits="userSpaceOnUse" color-interpolation-filters="sRGB"><feFlood flood-opacity="0" result="BackgroundImageFix"/><feBlend in="SourceGraphic" in2="BackgroundImageFix" result="shape"/><feGaussianBlur stdDeviation="75" result="effect1_foregroundBlur_381_170"/></filter><filter id="cfilter9_f_381_170" x="1288" y="506" width="404" height="408" filterUnits="userSpaceOnUse" color-interpolation-filters="sRGB"><feFlood flood-opacity="0" result="BackgroundImageFix"/><feBlend in="SourceGraphic" in2="BackgroundImageFix" result="shape"/><feGaussianBlur stdDeviation="75" result="effect1_foregroundBlur_381_170"/></filter><filter id="cfilter10_f_381_170" x="240" y="430" width="404" height="408" filterUnits="userSpaceOnUse" color-interpolation-filters="sRGB"><feFlood flood-opacity="0" result="BackgroundImageFix"/><feBlend in="SourceGraphic" in2="BackgroundImageFix" result="shape"/><feGaussianBlur stdDeviation="75" result="effect1_foregroundBlur_381_170"/></filter></defs></svg><svg fill="none" viewBox="0 0 92 79" id="why-one" xmlns="http://www.w3.org/2000/svg"><path d="M92 12.875c0 20.986-26.804 66-50 66s-42-17.014-42-38c0-20.988 18.804-38 42-38s50-10.987 50 10z" fill="#3F82D0"/></svg><svg fill="none" viewBox="0 0 71 75" id="why-three" xmlns="http://www.w3.org/2000/svg"><path d="M66.416 9.366c0 20.177 12.752 65.529-4.322 65.529S.137 56.461.137 36.285c0-20.177-.504-26.919 16.57-26.919 17.075 0 49.71-20.176 49.71 0z" fill="#3F82D0"/></svg><svg fill="none" viewBox="0 0 93 83" id="why-two" xmlns="http://www.w3.org/2000/svg"><path d="M92.15 12.875C92.15 33.86 43.344 83 20.15 83c-23.197 0-20-21.14-20-42.126 0-20.987 18.803-38 42-38 23.195 0 50-10.986 50 10z" fill="#3F82D0"/></svg></svg>