<svg viewBox="0 0 1828 1070" xmlns="http://www.w3.org/2000/svg" xmlns:xlink="http://www.w3.org/1999/xlink"><style>:root&gt;svg{display:none}:root&gt;svg:target{display:block}</style><svg viewBox="0 0 79 78" id="about-1" xmlns="http://www.w3.org/2000/svg"><path fill="#fff" d="M16.23 41.12l-4.11 11.43q-.21.57-.81.59l-6.84.16a1.38 1.38 0 01-1.33-1.87l17.5-46.56q.22-.59.85-.59l7.45-.04q.6-.01.82.56 5.07 13.22 10.06 26.42c1.14 3.02-2.67 10.66-3.93 13.77a.29.29 0 01-.55-.04l-.95-3.59q-.21-.76-1-.76l-16.4-.01q-.57 0-.76.53zm2.93-9.06a.35.35 0 00.34.47l11.46-.04a.35.35 0 00.33-.47L25.5 16.31a.35.35 0 00-.66 0l-5.68 15.75zm25.51 23.53l-4.02 10.82a1.29 1.29 0 01-1.21.84h-6.61a1.29 1.29 0 01-1.2-1.74l17.36-46.18a1.29 1.29 0 011.22-.84l6.99.04a1.29 1.29 0 011.2.83l17.33 46.15a1.29 1.29 0 01-1.21 1.74h-6.66a1.29 1.29 0 01-1.21-.85l-3.92-10.8a1.29 1.29 0 00-1.21-.85H45.88a1.29 1.29 0 00-1.21.84zm2.94-9.31a.47.47 0 00.44.64l11.38-.02a.47.47 0 00.44-.64l-5.72-15.37a.47.47 0 00-.88 0l-5.66 15.39z"/><rect fill="#fff" x="-21.96" y="-1.54" transform="rotate(.1 -41346.392 30838.308)" width="43.92" height="3.08" rx=".89"/></svg><svg viewBox="0 0 78 78" id="about-2" xmlns="http://www.w3.org/2000/svg"><path fill="#fff" d="M2.17 18.84a1.57 1.57 0 01-1.58-1.56L.58 9.11A8.65 8.38-.1 019.21.71l59.46-.1a8.65 8.38-.1 018.67 8.36l.01 8.17a1.57 1.57 0 01-1.56 1.58l-73.62.12zm12.861-9.304a1.39 1.39 0 00-1.333-1.445l-2.957-.119a1.39 1.39 0 00-1.445 1.333l-.027.68a1.39 1.39 0 001.333 1.444l2.957.119a1.39 1.39 0 001.445-1.333l.027-.68zm9.916.338a3.06 1.87 2.5 00-2.975-2.002 3.06 1.87 2.5 00-3.14 1.735 3.06 1.87 2.5 002.976 2.001 3.06 1.87 2.5 003.14-1.735zM68.73 9.72a1.7 1.7 0 00-1.697-1.703l-20.8-.036a1.7 1.7 0 00-1.703 1.697v.1a1.7 1.7 0 001.697 1.703l20.8.036A1.7 1.7 0 0068.73 9.82v-.1zm7.23 12.77a1.38 1.38 0 011.38 1.38v44.18a9.86 9.54 0 01-9.86 9.54H10.52a9.86 9.54 0 01-9.86-9.54V23.87a1.38 1.38 0 011.38-1.38h73.92zm-54.44 24.6a1.16 1.16 0 01.63 1.88c-1.11 1.3-2.14 3.66-.73 5.1 3.55 3.64 6.13-5.11 6.41-7.06q.06-.43.34-.76 2.72-3.1 6.2-.7a2.33 2.33 0 01.36 3.54l-3.61 3.73a1.42 1.41 40.8 00.16 2.11l2.6 1.98q.45.35.57.91 1.37 6.65-4.48 9.62a.29.29 0 00.01.52c15.08 7.27 33.03-6.38 28.37-23.06a1 1 0 00-1.13-.72q-5.45.96-7.2-4.14a.88.88 0 00-1.64-.07c-.86 1.95-3.74 7.78-6.65 5.1q-3.51-3.24-1.81-7.64.18-.48.66-.66c2.38-.88 6.45-1.11 5.9-4.71a1.74 1.73.7 00-1.43-1.46q-19.79-3.43-25.93 15.19-.23.7.49.86l1.91.44z"/><path fill="#fff" d="M55.16 51.11a.27.27 0 01.33.2l.03.15a6.1 6.06 76.8 01-4.51 7.32l-.09.03a6.1 6.06 76.8 01-7.3-4.56l-.03-.15a.27.27 0 01.2-.32l11.37-2.67z"/></svg><svg viewBox="0 0 79 78" id="about-3" xmlns="http://www.w3.org/2000/svg"><path fill="#fff" d="M71.51 39a32.02 32.02 0 01-32.02 32.02A32.02 32.02 0 017.47 39 32.02 32.02 0 0139.49 6.98 32.02 32.02 0 0171.51 39zm-11.25-4.66c1.14-.54 4.05-1.99 3.38-3.55q-.21-.48-.73-.6-10.57-2.41-21.26-4.32-2.39-.42-4.75.2-10.12 2.67-19.86 5.35a1.23 1.23 0 00-.16 2.31l23.11 9.95a1.79 1.76-46.4 001.51-.05q9.36-4.77 18.76-9.29zM19.6 44.12l2.13-.34a.78.78 0 00.65-.9l-.31-1.91a2.38 1.77 80.9 00-2.12-2.07l-.18.03a2.38 1.77 80.9 00-1.37 2.63l.3 1.91a.78.78 0 00.9.65zm20.58 3.21L25.65 41.9a.46.46 0 00-.61.53c.95 4.1 1.53 9.51 5.81 11.47q9.91 4.52 19.82 0c4.2-1.91 4.92-8.7 5.74-12.86q.12-.64-.47-.37L41.3 47.29q-.55.25-1.12.04zm-22.59 6.3l5.36.23a.3.3 0 00.31-.29l.01-.19a7.03 2.92-87.6 00-2.62-7.14l-.12-.01a7.03 2.92-87.6 00-3.21 6.9l-.01.19a.3.3 0 00.28.31z"/></svg><svg viewBox="0 0 70 70" id="about-services-1" xmlns="http://www.w3.org/2000/svg"><path fill="#01effd" d="M43.33 51.64q.45 1.79-.12 3.57-.24.78.57.78c1.96-.01 4.84-.46 5.94 1.54q.24.42.64.69 2.29 1.51 1.18 4.23-.22.54-.8.54h-31.5q-.62 0-.83-.59c-1.39-3.93 3.75-7.18 7.49-6.24q.84.21.8-.65l-.21-4.39q-.03-.59-.62-.59L5.4 50.45q-.41 0-.72-.29l-1.53-1.44q-.4-.37-.4-.93v-34.6c0-1.74 1.08-3.42 2.81-3.42q23.47-.04 46.95-.01.52 0 .89-.36c3.27-3.19 9.98-12.65 14.96-5.56q2.41 3.43-.79 7.26-.32.39-.32.88v36.03q0 .48-.36.78l-1.59 1.36q-.3.25-.7.25l-20.42.14q-1.12.01-.85 1.1zM66.429 8.186a1.49 1.49 0 00-.004-2.107l-1.856-1.85a1.49 1.49 0 00-2.107.004l-14.47 14.521a1.49 1.49 0 00.003 2.107l1.856 1.85a1.49 1.49 0 002.107-.004l14.47-14.521zM10.66 36.42l19.95-.11q.54 0 .61-.53c.38-2.97.62-6.2 2.69-8.38 1.66-1.76 3.76-2.41 5.34-4.01q5.02-5.06 10.01-9.68a.71.71 0 00-.48-1.23l-42.24.21q-.77 0-.77.77l-.06 28.02a.52.52 0 00.52.52H63.7a.52.52 0 00.52-.52l.19-25.75q.01-1.44-1.01-.42c-5.93 5.91-13.28 12.09-18.41 19.12q-3.45 4.73-10.22 4.78-12.05.09-24.08.02-.69 0-.69-.69v-1.45q0-.66.66-.67zm35.083-13.946a1.02 1.02 0 00-1.442-.018l-2.577 2.514a1.02 1.02 0 00-.017 1.443l2.57 2.633a1.02 1.02 0 001.442.018l2.577-2.514a1.02 1.02 0 00.017-1.443l-2.57-2.633zM36.54 28.48q-2.47 3.19-2.23 7.37a.43.43 0 00.47.41c2.08-.16 8.68-1 7.78-4.5q-.95-3.68-5.05-3.75-.6-.01-.97.47zm27.831 16.981a.66.66 0 00-.659-.66L6.272 44.7a.66.66 0 00-.66.659l-.003 1.52a.66.66 0 00.659.66l57.44.101a.66.66 0 00.66-.659l.003-1.52zm-23.765 5.48a.44.44 0 00-.44-.44l-10.36.018a.44.44 0 00-.44.44l.008 4.6a.44.44 0 00.44.44l10.36-.018a.44.44 0 00.44-.44l-.008-4.6zm7.284 8.486a.68.68 0 00-.681-.678l-24.58.042a.68.68 0 00-.68.682l.001.1a.68.68 0 00.681.678l24.58-.042a.68.68 0 00.68-.682l-.001-.1z"/></svg><svg viewBox="0 0 70 70" id="about-services-2" xmlns="http://www.w3.org/2000/svg"><path fill="#0065ca" d="M57.62 20.27l-45.58-.03a.42.42 0 00-.42.41q-.19 7.56-.13 15.1c.04 4.85-4.2 4.6-4.21.78q-.05-9.02-.03-18.05c0-5.97 1.53-11.24 8.25-11.24q18.35 0 36.69.02c7.56.01 10.57 2.89 10.55 10.24q-.01 8.38-.18 16.74-.04 2.12-2.24 2.35a1.74 1.74 0 01-1.93-1.71l-.17-14.01q-.01-.6-.6-.6zm-.88-6.59a2.14 2.14 0 00-2.14-2.14H31.38a2.14 2.14 0 00-2.14 2.14v.18A2.14 2.14 0 0031.38 16H54.6a2.14 2.14 0 002.14-2.14v-.18zm-39.34.15a2.11 2.11 0 00-2.11-2.11 2.11 2.11 0 00-2.11 2.11 2.11 2.11 0 002.11 2.11 2.11 2.11 0 002.11-2.11zm7.3-.01a2.13 2.13 0 00-2.13-2.13 2.13 2.13 0 00-2.13 2.13 2.13 2.13 0 002.13 2.13 2.13 2.13 0 002.13-2.13z"/><path fill="#0065ca" d="M25.17 49.53l3.95 1.96q.45.23.86-.07 4.39-3.31 9.19-.47.4.24.8-.02l5.06-3.36q.43-.29.37-.8c-1.26-9.92 11.7-12.02 14.11-3.52 1.93 6.8-5.17 11.25-11.19 7.82q-.44-.25-.86.04l-5.02 3.47q-.34.24-.31.65c.87 11.82-14.68 11.49-14.4.99q.02-.58-.5-.83l-3.71-1.81q-.52-.25-1.01.05C9.06 61.64 5.3 39.45 18.55 41.09q5.99.74 6.16 7.72.01.5.46.72zm30.19-4.37a2.9 2.9 0 00-2.9-2.9 2.9 2.9 0 00-2.9 2.9 2.9 2.9 0 002.9 2.9 2.9 2.9 0 002.9-2.9zm-35.01 2.95a2.89 2.89 0 00-2.89-2.89 2.89 2.89 0 00-2.89 2.89A2.89 2.89 0 0017.46 51a2.89 2.89 0 002.89-2.89zm17.54 8.74a2.92 2.92 0 00-2.92-2.92 2.92 2.92 0 00-2.92 2.92 2.92 2.92 0 002.92 2.92 2.92 2.92 0 002.92-2.92z"/></svg><svg viewBox="0 0 70 70" id="about-services-3" xmlns="http://www.w3.org/2000/svg"><path vector-effect="non-scaling-stroke" d="M63.96 23q-2.91.8-3.11-2.53m-51.81-.22q-.42.81-.27 1.7.08.54-.31.92-.89.88-2.42.13m33.273 7.977a1.38 1.38 0 00-.953-1.704l-.211-.06a1.38 1.38 0 00-1.704.952l-5.778 20.418a1.38 1.38 0 00.952 1.704l.212.06a1.38 1.38 0 001.704-.952l5.778-20.418M20.82 40.37l6.41-4.26q.59-.39.38-1.06l-.32-1.01a1.02 1.01-25.4 00-1.53-.54l-9.33 6.19a1.31 1.31 0 00.03 2.2q4.31 2.73 8.43 5.6c1.11.78 2.48.86 2.78-.74a1.22 1.21-67.5 00-.51-1.25l-6.34-4.32q-.6-.4 0-.81m28.37.77c-1.53 1.16-8.91 4.49-6.12 6.79a1.16 1.15 47.6 001.38.07l8.87-6.01a1.44 1.44 0 00.01-2.37q-3.89-2.7-8.42-5.68c-1.15-.76-2.29-.69-2.54.85a1.54 1.54 0 00.68 1.55l6.11 3.97q.6.39.03.83" stroke-width="2" fill="none" stroke="#1a9bb0"/><path fill="#324561" d="M63.96 23q-2.91.8-3.11-2.53 1.79-7.41-5.85-7.44-25.94-.07-40.71.13c-4.41.06-6.5 2.83-5.25 7.09q-.42.81-.27 1.7.08.54-.31.92-.89.88-2.42.13c-.21-6.63-.56-12.69 8.05-12.72q20.53-.07 41.07-.01c9 .03 9.08 5.14 8.8 12.73z"/><path fill="#01f0ff" d="M9.04 20.25l51.81.22q.2 3.33 3.11 2.53.08 13.62.03 27.24c-.02 6.46-1.87 9.47-8.48 9.48q-19.94.06-39.88.02c-5.99-.02-9.61-1.49-9.63-7.99Q5.96 37.37 6.04 23q1.53.75 2.42-.13.39-.38.31-.92-.15-.89.27-1.7zm30.273 10.727a1.38 1.38 0 00-.953-1.704l-.211-.06a1.38 1.38 0 00-1.704.952l-5.778 20.418a1.38 1.38 0 00.952 1.704l.212.06a1.38 1.38 0 001.704-.952l5.778-20.418zM20.82 40.37l6.41-4.26q.59-.39.38-1.06l-.32-1.01a1.02 1.01-25.4 00-1.53-.54l-9.33 6.19a1.31 1.31 0 00.03 2.2q4.31 2.73 8.43 5.6c1.11.78 2.48.86 2.78-.74a1.22 1.21-67.5 00-.51-1.25l-6.34-4.32q-.6-.4 0-.81zm28.37.77c-1.53 1.16-8.91 4.49-6.12 6.79a1.16 1.15 47.6 001.38.07l8.87-6.01a1.44 1.44 0 00.01-2.37q-3.89-2.7-8.42-5.68c-1.15-.76-2.29-.69-2.54.85a1.54 1.54 0 00.68 1.55l6.11 3.97q.6.39.03.83z"/><rect fill="#324561" x="-1.49" y="-11.99" transform="rotate(15.8 -129.448 146.47)" width="2.98" height="23.98" rx="1.38"/><path fill="#324561" d="M20.82 41.18l6.34 4.32a1.22 1.21-67.5 01.51 1.25c-.3 1.6-1.67 1.52-2.78.74q-4.12-2.87-8.43-5.6a1.31 1.31 0 01-.03-2.2l9.33-6.19a1.02 1.01-25.4 011.53.54l.32 1.01q.21.67-.38 1.06l-6.41 4.26q-.6.41 0 .81zm28.34-.87l-6.11-3.97a1.54 1.54 0 01-.68-1.55c.25-1.54 1.39-1.61 2.54-.85q4.53 2.98 8.42 5.68a1.44 1.44 0 01-.01 2.37L44.45 48a1.16 1.15 47.6 01-1.38-.07c-2.79-2.3 4.59-5.63 6.12-6.79q.57-.44-.03-.83z"/></svg><svg viewBox="0 0 64 64" id="about-services-4" xmlns="http://www.w3.org/2000/svg"><path fill="#0065ca" d="M46.38 9h-7.44q-.58 0-.82.53c-1.21 2.75-3.51 3.83-4.23-.02q-.1-.51-.62-.51H25.5q-.5 0-.5.5v1.51q0 1.11-.78.32-.96-.98-2.37-1.08-.61-.04-.74-.64c-.67-2.96.87-4.59 3.86-4.6q11.52-.03 23.03 0c2.31 0 2.96 2.08 2.97 4.16q.05 6.67.02 13.34 0 .6-.59.66l-2.9.29q-.5.05-.5-.45V9.63Q47 9 46.38 9zM25.73 53.97q10.63.09 21.27.01.97-.01 3.43 1.76.37.26.14.66-.86 1.57-2.13 1.57-12.55.06-25.11.02-.61 0-.99-.47l-1.21-1.49q-.35-.43-.92-.45-5.06-.16-9.4-2.73-.45-.27-.55-.79l-3.18-16.6q-.09-.46.18-.84c4.98-7.07 10.98-12.84 12.55-22.1q.08-.52.61-.47c6.19.68 5.69 7.07 5.17 11.77-1.06 9.64-.77 19.85-.48 29.54q.02.61.62.61z"/><rect fill="#0065ca" x="-5.3" y="-2.79" transform="rotate(-3.5 483.126 -811.795)" width="10.6" height="5.58" rx="2.6"/><path fill="#0065ca" d="M57.5 37.29a1.26 1.26 0 01-1.31 1.2l-6.9-.29a5.14 2.64 2.4 01-5.02-2.85l.01-.32a5.14 2.64 2.4 015.25-2.42l6.89.29a1.26 1.26 0 011.21 1.31l-.13 3.08zm-13.3 5.2c.01-3.79 8.76-2.11 10.98-1.89 4.14.41 3.28 6.81-1.5 5.65-2.87-.69-6.52-1.25-8.95-2.79q-.53-.33-.53-.97zm-1.18 5.77c.65-3.6 7.84-.81 9.79-.13 3.94 1.36 1.49 7.28-2.82 4.99q-3.21-1.7-6.38-3.58a1.24 1.23 20.5 01-.59-1.28z"/></svg><svg viewBox="0 0 100 100" id="icon-domen" xmlns="http://www.w3.org/2000/svg"><path fill="#01f0ff" d="M47.32 32.09l-14.45-1.66q-.5-.06-.6.43l-1.35 6.61q-.11.53-.65.53h-2.74q-.8 0-.65-.79l1.48-7.43q.09-.46-.35-.64l-10.87-4.36q-.43-.18-.72.19-4.32 5.68-6.46 12.51-.17.52-.71.52H6.24a.57.57 0 01-.54-.76q7.54-22.19 27.69-29.99c25.22-9.78 53.25 4.06 60.79 30.15q.18.6-.45.6h-2.91q-.61 0-.8-.58-2.18-6.74-6.4-12.42-.3-.4-.76-.22l-10.87 4.35q-.44.18-.35.64l1.5 7.51q.14.72-.6.72h-2.83q-.56 0-.67-.55l-1.33-6.69q-.08-.4-.49-.35l-14.67 1.68q-.55.06-.55.62v4.67q0 .62-.62.62h-2.75q-.63 0-.63-.63v-4.52q0-.68-.68-.76zm.09-3.99a.53.52 3.4 00.59-.52V8.98q0-.68-.65-.5c-6.58 1.79-11.72 11.35-13.49 17.4q-.19.62.47.7l13.08 1.52zm18.26-1.54q.66-.07.47-.71c-2.11-6.94-6.33-14.16-13.22-17.42a.65.64-77.4 00-.92.59v18.55q0 .59.59.52l13.08-1.53zm-35.83-1.77c1.96-5.27 4.25-10.14 7.86-14.41a.25.25 0 00-.27-.4Q27.29 13.3 19.77 20.86a.51.51 0 00.18.84L29 25.17q.62.23.84-.38zM62.27 10.3c3.82 4.73 5.34 9.13 7.95 14.43q.31.64.97.38l8.75-3.41q.78-.31.19-.9-7.51-7.57-17.64-10.82a.2.2 0 00-.22.32zM29.83 42h3.62a.35.35 0 01.33.46l-4.98 15.3a.35.35 0 01-.33.24h-4.03a.35.35 0 01-.33-.23l-3.83-10.85a.35.35 0 00-.66 0l-3.78 10.85a.35.35 0 01-.33.23h-4.17a.35.35 0 01-.34-.24l-4.87-15.3a.35.35 0 01.33-.46h3.7a.35.35 0 01.34.26l2.77 9.82a.35.35 0 00.67.03l3.47-9.88a.35.35 0 01.33-.23h4.62a.35.35 0 01.33.24L26 52.18a.35.35 0 00.67-.01l2.83-9.92a.35.35 0 01.33-.25zm14.18 10.03l3.39-9.79a.35.35 0 01.33-.24h4.66a.35.35 0 01.33.24l3.32 10.03a.35.35 0 00.67-.02l2.79-9.99a.35.35 0 01.34-.26h3.65a.35.35 0 01.33.46l-4.95 15.3a.35.35 0 01-.33.24H54.5a.35.35 0 01-.33-.23L50.3 46.9a.35.35 0 00-.66 0l-3.77 10.86a.35.35 0 01-.33.24H41.4a.35.35 0 01-.34-.24l-4.9-15.3a.35.35 0 01.33-.46h3.7a.35.35 0 01.33.25l2.82 9.76a.35.35 0 00.67.02zm42.69.19l2.85-9.97a.35.35 0 01.33-.25h3.66a.35.35 0 01.33.46l-5 15.3a.35.35 0 01-.33.24H84.5a.35.35 0 01-.33-.23l-3.86-10.86a.35.35 0 00-.66.01l-3.8 10.85a.35.35 0 01-.33.23h-4.2a.35.35 0 01-.34-.24l-4.86-15.3a.35.35 0 01.33-.46h3.69a.35.35 0 01.33.25l2.81 9.82a.35.35 0 00.66.02l3.47-9.86a.35.35 0 01.33-.23h4.65a.35.35 0 01.33.24l3.31 9.99a.35.35 0 00.67-.01zM33.09 69.77q7.01-1.53 14.18-1.55.73 0 .73-.72v-5q0-.5.5-.5h3q.49 0 .5.5l.01 5.13q0 .58.59.58 7.22.02 14.26 1.58.68.15.82-.52l1.41-6.74q.11-.53.65-.53h2.76q.78 0 .63.77l-1.52 7.4q-.09.47.35.65l10.88 4.42q.43.17.71-.2 4.37-5.74 6.5-12.67.11-.37.5-.37h2.72q1.5 0 .97 1.4-7.12 18.79-23.07 27.25c-25.69 13.63-57.24-.16-65.32-28.06q-.17-.59.44-.59h2.9q.6 0 .79.57 2.18 6.75 6.4 12.43.3.4.76.22l10.87-4.39q.43-.17.34-.62l-1.46-7.5q-.14-.71.58-.71h2.82q.55 0 .66.55l1.33 6.69q.14.68.81.53zm14.08 2.17l-12.81 1.48q-.73.09-.51.79c2.09 6.46 6.47 14.7 13.39 17.33q.76.29.76-.52V72.68q0-.83-.83-.74zm5.78.04a.85.85 0 00-.95.84v18.16a.65.64 77.7 00.91.59c6.92-3.19 11.05-10.4 13.19-17.41q.2-.67-.49-.75l-12.66-1.43zm-15.2 17.63c-3.8-4.52-5.76-9.04-7.91-14.42q-.23-.57-.8-.36l-8.87 3.39q-.94.36-.23 1.07 7.47 7.46 17.5 10.76a.28.28 0 00.31-.44zm24.62-.14a.3.3 0 00.33.48q10.08-3.29 17.45-10.9.49-.5-.16-.75l-9.02-3.46q-.7-.27-.93.44-2.46 7.87-7.67 14.19z"/></svg><svg fill="none" viewBox="0 0 151 57" id="logo" xmlns="http://www.w3.org/2000/svg"><path d="M74.095 43.45c-1.58 0-3.005-.275-4.275-.825-1.26-.55-2.3-1.335-3.12-2.355-.81-1.03-1.325-2.25-1.545-3.66l3.75-.57c.32 1.28.975 2.27 1.965 2.97 1 .7 2.15 1.05 3.45 1.05.77 0 1.495-.12 2.175-.36.68-.24 1.23-.59 1.65-1.05.43-.46.645-1.025.645-1.695 0-.3-.05-.575-.15-.825-.1-.26-.25-.49-.45-.69-.19-.2-.44-.38-.75-.54-.3-.17-.65-.315-1.05-.435l-5.58-1.65c-.48-.14-1-.325-1.56-.555a6.724 6.724 0 01-1.575-.975c-.49-.42-.895-.95-1.215-1.59-.31-.65-.465-1.45-.465-2.4 0-1.39.35-2.555 1.05-3.495.71-.95 1.66-1.66 2.85-2.13 1.2-.47 2.53-.7 3.99-.69 1.48.01 2.8.265 3.96.765a7.522 7.522 0 012.91 2.145c.78.94 1.33 2.075 1.65 3.405l-3.885.675c-.16-.76-.47-1.405-.93-1.935a4.34 4.34 0 00-1.665-1.23 5.603 5.603 0 00-4.095-.12c-.61.22-1.105.54-1.485.96-.37.42-.555.91-.555 1.47 0 .53.16.965.48 1.305.32.33.715.595 1.185.795.48.19.965.35 1.455.48l3.87 1.08c.53.14 1.125.33 1.785.57.66.24 1.295.575 1.905 1.005.61.43 1.11.995 1.5 1.695.4.7.6 1.59.6 2.67 0 1.12-.235 2.105-.705 2.955a6.187 6.187 0 01-1.875 2.1c-.79.56-1.695.98-2.715 1.26-1.01.28-2.07.42-3.18.42zm16.252 0c-1.17 0-2.16-.22-2.97-.66-.81-.45-1.425-1.045-1.845-1.785a4.96 4.96 0 01-.615-2.445c0-.78.13-1.48.39-2.1.26-.63.66-1.17 1.2-1.62.54-.46 1.24-.835 2.1-1.125.65-.21 1.41-.4 2.28-.57.88-.17 1.83-.325 2.85-.465 1.03-.15 2.105-.31 3.225-.48l-1.29.735c.01-1.12-.24-1.945-.75-2.475s-1.37-.795-2.58-.795c-.73 0-1.435.17-2.115.51-.68.34-1.155.925-1.425 1.755l-3.3-1.035c.4-1.37 1.16-2.47 2.28-3.3 1.13-.83 2.65-1.245 4.56-1.245 1.44 0 2.705.235 3.795.705 1.1.47 1.915 1.24 2.445 2.31.29.57.465 1.155.525 1.755.06.59.09 1.235.09 1.935V43h-3.165v-3.51l.525.57c-.73 1.17-1.585 2.03-2.565 2.58-.97.54-2.185.81-3.645.81zm.72-2.88c.82 0 1.52-.145 2.1-.435.58-.29 1.04-.645 1.38-1.065.35-.42.585-.815.705-1.185.19-.46.295-.985.315-1.575.03-.6.045-1.085.045-1.455l1.11.33c-1.09.17-2.025.32-2.805.45-.78.13-1.45.255-2.01.375-.56.11-1.055.235-1.485.375-.42.15-.775.325-1.065.525-.29.2-.515.43-.675.69-.15.26-.225.565-.225.915 0 .4.1.755.3 1.065.2.3.49.54.87.72.39.18.87.27 1.44.27zM106.896 43l-5.88-16.2h3.615l4.08 11.745 4.065-11.745h3.63l-5.88 16.2h-3.63zm16.582 0l-5.88-16.2h3.615l4.08 11.745 4.065-11.745h3.63l-5.88 16.2h-3.63zm14.186 7.2l3.12-8.565.06 2.52-7.065-17.355h3.765l5.01 12.84h-.96l4.875-12.84h3.615l-9.03 23.4h-3.39z" fill="#fff"/><path d="M49.298 45.279c5.837-7.619 7.271-17.767 3.938-26.784-2.423-6.557-7.216-11.712-13.441-14.792-7.558-3.74-16.95-3.6-24.37.424-5.417 2.937-9.409 7.216-11.975 12.837-5.027 11.009-2.167 24.673 7.196 32.495 5.034 4.204 10.875 6.296 17.523 6.276 8.215-.025 16.14-3.944 21.13-10.456z" stroke="#fff"/><path d="M4.42 28.012c-.25 11.828 8.126 22.301 19.914 24.087 3.635.55 7.17.296 10.606-.764 11.509-3.552 18.055-14.904 16.35-26.728-1.038-7.2-5.486-13.716-11.854-17.248-11.166-6.192-24.84-2.482-31.464 8.363-2.273 3.722-3.457 7.819-3.551 12.29z" stroke="#fff"/><path d="M23.518 20.911c1.974 1.736.16 4.895-.843 6.585-.53.893-1.065 1.782-1.605 2.669a23.448 23.448 0 00-.874 1.525c-.286.575.15 1.206.799 1.036.237-.063.418-.27.578-.454a6377.24 6377.24 0 0113.934-15.937c.018-.02.013-.034-.013-.038a1.526 1.526 0 00-.25-.02l-14.932.004c-1.246 0-1.104 1.026-.367 1.616a99.349 99.349 0 013.573 3.014zm8.554 12.143c.078-1.191.686-2.379 1.335-3.463l2.217-3.707c.147-.247.267-.527.186-.775-.142-.433-.413-.61-.814-.528-.28.057-.444.284-.631.498a4726.41 4726.41 0 00-12.582 14.533.019.019 0 00-.005.01.018.018 0 00.009.017.019.019 0 00.01.003h13.992c.317 0 .53-.02.642-.059.45-.154.574-.663.331-1.057a1.612 1.612 0 00-.362-.407c-.479-.39-1.432-1.182-2.862-2.378-.873-.73-1.546-1.463-1.466-2.687z" stroke="#fff"/><path d="M53.236 18.495c3.333 9.017 1.9 19.165-3.938 26.784-4.99 6.512-12.914 10.43-21.129 10.456-6.648.02-12.49-2.072-17.523-6.276C1.283 41.637-1.577 27.973 3.45 16.964c2.566-5.62 6.558-9.9 11.975-12.837 7.42-4.023 16.812-4.164 24.37-.424 6.225 3.08 11.018 8.235 13.441 14.792zM4.421 28.012c-.25 11.827 8.125 22.3 19.913 24.087 3.635.55 7.17.296 10.606-.765 11.509-3.551 18.055-14.903 16.35-26.728-1.038-7.2-5.485-13.716-11.854-17.248-11.166-6.191-24.84-2.481-31.464 8.363-2.273 3.722-3.457 7.82-3.551 12.29z" fill="#fff"/><path d="M23.518 20.911a99.349 99.349 0 00-3.573-3.014c-.737-.59-.879-1.616.367-1.616l14.933-.005c.083 0 .166.007.249.02.026.005.03.018.013.039a6812.296 6812.296 0 00-13.934 15.937c-.16.184-.34.391-.578.454-.649.17-1.085-.46-.8-1.036.166-.331.458-.84.875-1.525.54-.887 1.075-1.776 1.605-2.669 1.003-1.69 2.817-4.85.843-6.585zm8.554 12.143c-.08 1.224.593 1.956 1.466 2.687A365.256 365.256 0 0036.4 38.12c.15.123.271.258.362.407.243.394.119.903-.33 1.057-.113.039-.326.058-.643.058H21.797a.012.012 0 01-.01-.002.017.017 0 01-.007-.008c-.002-.003-.002-.006-.002-.01l.005-.01A4726.41 4726.41 0 0134.365 25.08c.187-.214.352-.441.631-.498.401-.082.672.095.814.528.081.248-.04.528-.186.775l-2.217 3.707c-.65 1.084-1.257 2.272-1.335 3.463z" fill="#fff"/></svg><svg fill="none" viewBox="0 0 157 159" id="logo-two" xmlns="http://www.w3.org/2000/svg"><path d="M139.642 128.23c16.759-21.88 20.876-51.026 11.307-76.924-6.959-18.833-20.719-33.64-38.594-42.486-21.7-10.74-48.665-10.336-69.968 1.22-15.553 8.435-27.015 20.725-34.384 36.868-14.433 31.618-6.22 70.864 20.663 93.328 14.45 12.075 31.221 18.083 50.311 18.025 23.585-.072 46.337-11.326 60.665-30.031z" stroke="#fff"/><path d="M10.79 78.64c-.716 33.969 23.33 64.05 57.175 69.179 10.436 1.582 20.586.85 30.451-2.195 33.044-10.201 51.839-42.804 46.944-76.765-2.979-20.68-15.75-39.394-34.035-49.538-32.059-17.783-71.32-7.127-90.337 24.019-6.528 10.69-9.927 22.457-10.198 35.3z" stroke="#fff"/><path d="M65.623 58.245c5.667 4.984.46 14.059-2.422 18.913a843.723 843.723 0 01-4.607 7.664c-1.199 1.97-2.035 3.43-2.51 4.382-.822 1.651.432 3.464 2.293 2.973.682-.18 1.2-.775 1.66-1.303A19574.198 19574.198 0 01100.044 45.1c.052-.06.039-.096-.037-.11a4.392 4.392 0 00-.715-.058c-14.29.006-28.582.01-42.874.014-3.577 0-3.171 2.948-1.053 4.641 2.997 2.392 6.416 5.277 10.258 8.657zm24.559 34.876c.224-3.422 1.969-6.832 3.832-9.945l6.368-10.65c.42-.707.766-1.51.532-2.223-.406-1.246-1.185-1.752-2.335-1.519-.803.164-1.277.816-1.814 1.432a13587.215 13587.215 0 00-36.124 41.739.051.051 0 00.011.079.049.049 0 00.029.007c13.385.002 26.776.001 40.175-.002.907 0 1.521-.055 1.842-.166 1.291-.444 1.649-1.903.951-3.036a4.63 4.63 0 00-1.042-1.168c-1.373-1.12-4.111-3.397-8.215-6.83-2.507-2.1-4.439-4.205-4.21-7.718z" stroke="#fff"/><path d="M150.949 51.306c9.569 25.898 5.452 55.044-11.307 76.924-14.328 18.705-37.08 29.959-60.665 30.031-19.09.058-35.86-5.95-50.311-18.025C1.782 117.772-6.43 78.526 8.003 46.908c7.37-16.143 18.83-28.433 34.384-36.868C63.69-1.516 90.655-1.92 112.355 8.82c17.875 8.846 31.635 23.653 38.594 42.486zM10.791 78.638c-.717 33.97 23.33 64.051 57.174 69.18 10.436 1.582 20.587.85 30.452-2.195 33.043-10.201 51.838-42.804 46.944-76.765-2.98-20.68-15.75-39.394-34.036-49.538-32.058-17.783-71.32-7.127-90.337 24.019-6.527 10.69-9.926 22.457-10.197 35.3z" fill="#fff"/><path d="M65.623 58.245c-3.842-3.38-7.261-6.265-10.258-8.657-2.118-1.693-2.524-4.641 1.053-4.641 14.292-.004 28.583-.008 42.874-.014.24 0 .478.02.715.058.076.014.089.05.037.11a19574.198 19574.198 0 00-40.007 45.773c-.46.528-.978 1.123-1.66 1.303-1.86.49-3.115-1.322-2.293-2.973.475-.952 1.311-2.413 2.51-4.382a813.704 813.704 0 004.607-7.664c2.882-4.854 8.089-13.929 2.422-18.913zm24.559 34.876c-.229 3.513 1.703 5.618 4.21 7.718 4.104 3.433 6.842 5.71 8.215 6.83.433.352.78.741 1.042 1.168.698 1.133.34 2.592-.951 3.036-.321.111-.935.166-1.842.166-13.399.003-26.79.004-40.175.002a.049.049 0 01-.029-.007.047.047 0 01-.02-.022.051.051 0 01.009-.057 13587.215 13587.215 0 0136.124-41.739c.537-.616 1.01-1.268 1.814-1.432 1.15-.233 1.929.273 2.335 1.519.234.712-.112 1.516-.532 2.223l-6.368 10.65c-1.863 3.113-3.608 6.523-3.832 9.945z" fill="#fff"/></svg><svg fill="none" viewBox="0 0 1828 1070" id="study-back" xmlns="http://www.w3.org/2000/svg"><g filter="url(#kfilter0_f_381_170)"><ellipse cx="432" cy="388" rx="114" ry="106" fill="#01F0FF" fill-opacity=".92"/></g><g filter="url(#kfilter1_f_381_170)"><ellipse cx="202" cy="576" rx="114" ry="106" fill="#01F0FF" fill-opacity=".92"/></g><g filter="url(#kfilter2_f_381_170)"><ellipse cx="701" cy="688" rx="71" ry="66" fill="#01F0FF" fill-opacity=".92"/></g><g filter="url(#kfilter3_f_381_170)"><ellipse cx="1367" cy="388" rx="123" ry="116" fill="#01F0FF" fill-opacity=".92"/></g><g filter="url(#kfilter4_f_381_170)"><ellipse cx="1277" cy="804" rx="123" ry="116" fill="#01F0FF" fill-opacity=".92"/></g><g filter="url(#kfilter5_f_381_170)"><ellipse cx="995" cy="494" rx="71" ry="66" fill="#01F0FF" fill-opacity=".92"/></g><g filter="url(#kfilter6_f_381_170)"><ellipse cx="274" cy="258" rx="116" ry="108" fill="#3F82D0"/></g><g filter="url(#kfilter7_f_381_170)"><ellipse cx="1118" cy="634" rx="52" ry="54" fill="#3F82D0"/></g><g filter="url(#kfilter8_f_381_170)"><ellipse cx="1626" cy="326" rx="52" ry="54" fill="#3F82D0"/></g><g filter="url(#kfilter9_f_381_170)"><ellipse cx="1490" cy="710" rx="52" ry="54" fill="#3F82D0"/></g><g filter="url(#kfilter10_f_381_170)"><ellipse cx="442" cy="634" rx="52" ry="54" fill="#3F82D0"/></g><defs><filter id="kfilter0_f_381_170" x="218" y="182" width="428" height="412" filterUnits="userSpaceOnUse" color-interpolation-filters="sRGB"><feFlood flood-opacity="0" result="BackgroundImageFix"/><feBlend in="SourceGraphic" in2="BackgroundImageFix" result="shape"/><feGaussianBlur stdDeviation="50" result="effect1_foregroundBlur_381_170"/></filter><filter id="kfilter1_f_381_170" x="-62" y="320" width="528" height="512" filterUnits="userSpaceOnUse" color-interpolation-filters="sRGB"><feFlood flood-opacity="0" result="BackgroundImageFix"/><feBlend in="SourceGraphic" in2="BackgroundImageFix" result="shape"/><feGaussianBlur stdDeviation="75" result="effect1_foregroundBlur_381_170"/></filter><filter id="kfilter2_f_381_170" x="480" y="472" width="442" height="432" filterUnits="userSpaceOnUse" color-interpolation-filters="sRGB"><feFlood flood-opacity="0" result="BackgroundImageFix"/><feBlend in="SourceGraphic" in2="BackgroundImageFix" result="shape"/><feGaussianBlur stdDeviation="75" result="effect1_foregroundBlur_381_170"/></filter><filter id="kfilter3_f_381_170" x="1094" y="122" width="546" height="532" filterUnits="userSpaceOnUse" color-interpolation-filters="sRGB"><feFlood flood-opacity="0" result="BackgroundImageFix"/><feBlend in="SourceGraphic" in2="BackgroundImageFix" result="shape"/><feGaussianBlur stdDeviation="75" result="effect1_foregroundBlur_381_170"/></filter><filter id="kfilter4_f_381_170" x="1004" y="538" width="546" height="532" filterUnits="userSpaceOnUse" color-interpolation-filters="sRGB"><feFlood flood-opacity="0" result="BackgroundImageFix"/><feBlend in="SourceGraphic" in2="BackgroundImageFix" result="shape"/><feGaussianBlur stdDeviation="75" result="effect1_foregroundBlur_381_170"/></filter><filter id="kfilter5_f_381_170" x="824" y="328" width="342" height="332" filterUnits="userSpaceOnUse" color-interpolation-filters="sRGB"><feFlood flood-opacity="0" result="BackgroundImageFix"/><feBlend in="SourceGraphic" in2="BackgroundImageFix" result="shape"/><feGaussianBlur stdDeviation="50" result="effect1_foregroundBlur_381_170"/></filter><filter id="kfilter6_f_381_170" x="8" y="0" width="532" height="516" filterUnits="userSpaceOnUse" color-interpolation-filters="sRGB"><feFlood flood-opacity="0" result="BackgroundImageFix"/><feBlend in="SourceGraphic" in2="BackgroundImageFix" result="shape"/><feGaussianBlur stdDeviation="75" result="effect1_foregroundBlur_381_170"/></filter><filter id="kfilter7_f_381_170" x="966" y="480" width="304" height="308" filterUnits="userSpaceOnUse" color-interpolation-filters="sRGB"><feFlood flood-opacity="0" result="BackgroundImageFix"/><feBlend in="SourceGraphic" in2="BackgroundImageFix" result="shape"/><feGaussianBlur stdDeviation="50" result="effect1_foregroundBlur_381_170"/></filter><filter id="kfilter8_f_381_170" x="1424" y="122" width="404" height="408" filterUnits="userSpaceOnUse" color-interpolation-filters="sRGB"><feFlood flood-opacity="0" result="BackgroundImageFix"/><feBlend in="SourceGraphic" in2="BackgroundImageFix" result="shape"/><feGaussianBlur stdDeviation="75" result="effect1_foregroundBlur_381_170"/></filter><filter id="kfilter9_f_381_170" x="1288" y="506" width="404" height="408" filterUnits="userSpaceOnUse" color-interpolation-filters="sRGB"><feFlood flood-opacity="0" result="BackgroundImageFix"/><feBlend in="SourceGraphic" in2="BackgroundImageFix" result="shape"/><feGaussianBlur stdDeviation="75" result="effect1_foregroundBlur_381_170"/></filter><filter id="kfilter10_f_381_170" x="240" y="430" width="404" height="408" filterUnits="userSpaceOnUse" color-interpolation-filters="sRGB"><feFlood flood-opacity="0" result="BackgroundImageFix"/><feBlend in="SourceGraphic" in2="BackgroundImageFix" result="shape"/><feGaussianBlur stdDeviation="75" result="effect1_foregroundBlur_381_170"/></filter></defs></svg><svg shape-rendering="geometricPrecision" text-rendering="geometricPrecision" image-rendering="optimizeQuality" fill-rule="evenodd" clip-rule="evenodd" viewBox="0 0 150 150" id="tasks-1" xmlns="http://www.w3.org/2000/svg"><path fill="#e58a85" d="M129.5 44.5c-.617-.11-1.117-.444-1.5-1a60.93 60.93 0 01-.5-11 50.464 50.464 0 00-.5-10c-1.699-.906-3.533-1.24-5.5-1h-8v4a22.37 22.37 0 00-6.5 3c-.195 1.32-.028 2.653.5 4-2.944-1.655-5.277-3.988-7-7-.952-1.545-1.285-3.212-1-5a137.985 137.985 0 0127-.5l2.5 2.5c.5 7.326.666 14.66.5 22z" opacity=".871"/><path fill="#e9e9e9" d="M99.5 20.5c-.285 1.788.048 3.455 1 5 1.723 3.012 4.056 5.345 7 7a15.424 15.424 0 002 4.5c-.637 1.713-1.637 1.88-3 .5-2.711 4.019-6.378 5.019-11 3-14.543.742-21.543 8.408-21 23a15.063 15.063 0 01-6-3c-.936-1.941-2.27-3.608-4-5-1.127 1.77-.627 3.103 1.5 4 .75 1.135.583 2.135-.5 3-1.105-2.111-2.771-3.445-5-4h-1a259.478 259.478 0 0123-30 4425.001 4425.001 0 0117-8z" opacity=".979"/><path fill="#dd2d2d" d="M121.5 21.5c1.967-.24 3.801.094 5.5 1 .498 3.317.665 6.65.5 10l-12 7c-.342-.838-1.008-1.172-2-1a796.928 796.928 0 01-4-5c2.113-5.52 6.113-8.52 12-9v-3z"/><path fill="#f06465" d="M121.5 21.5v3c-5.887.48-9.887 3.48-12 9l-2-1c-.528-1.347-.695-2.68-.5-4a22.37 22.37 0 016.5-3v-4h8z"/><path fill="#942c11" d="M127.5 32.5a60.93 60.93 0 00.5 11c.383.556.883.89 1.5 1-.267 2.812-1.267 5.145-3 7a93.411 93.411 0 00-11-12l12-7z"/><path fill="#d4d6d7" d="M107.5 32.5l2 1a796.928 796.928 0 004 5c1.177 1.603 1.011 2.936-.5 4-4.192-3.003-5.025-2.503-2.5 1.5-3.289 2.209-6.956 3.042-11 2.5-.11-.617-.444-1.117-1-1.5a24.939 24.939 0 00-7-.5 8.434 8.434 0 00-4 .5 43.865 43.865 0 01-7 4.5 609.502 609.502 0 00-4 19.5c.837 1.011 1.17 2.178 1 3.5-2.582-.475-4.582.192-6 2a255.445 255.445 0 01-19 19c-.825.886-1.825 1.219-3 1-1.051-.722-1.718-1.722-2-3 1.871-.359 3.371-1.359 4.5-3a202.367 202.367 0 0119.5-22 199.631 199.631 0 01-3-6 15.063 15.063 0 006 3c-.543-14.592 6.457-22.258 21-23 4.622 2.019 8.289 1.019 11-3 1.363 1.38 2.363 1.213 3-.5a15.424 15.424 0 01-2-4.5z"/><path fill="#94d5ed" d="M91.5 44.5a39.35 39.35 0 01-10 11c-.952 1.545-1.285 3.212-1 5-.835-3.494-.835-7.16 0-11a43.865 43.865 0 007-4.5 8.434 8.434 0 014-.5z"/><path fill="#a4a2a2" d="M113.5 38.5c.992-.172 1.658.162 2 1a93.411 93.411 0 0111 12c-1.591 10.218-6.924 17.55-16 22a55.157 55.157 0 015.5-8 29.665 29.665 0 003.5-9c-.029-1.53-.696-2.696-2-3.5-6.633-1.55-9.633.95-9 7.5-1.699.027-3.033.694-4 2a60.93 60.93 0 00-.5-11c-.708-.88-1.542-1.547-2.5-2-.282-1.278-.949-2.278-2-3 4.044.542 7.711-.291 11-2.5-2.525-4.003-1.692-4.503 2.5-1.5 1.511-1.064 1.677-2.397.5-4z"/><path fill="#3691de" d="M101.5 49.5c.958.453 1.792 1.12 2.5 2a60.93 60.93 0 01.5 11h-2c1.143-3.002 1.143-6.002 0-9a58.18 58.18 0 00-14 13.5c3.721.678 7.388.511 11-.5-.321 1.548-1.321 2.215-3 2-4.487 1.697-8.487 1.03-12-2-.718-1.637-.885-3.303-.5-5A119.2 119.2 0 0097.5 49c1.428-.58 2.762-.412 4 .5z"/><path fill="#989899" d="M110.5 73.5c-2.393 3.434-5.393 6.267-9 8.5-3.713 2.186-7.38 4.353-11 6.5-5.657 2.479-10.657 5.979-15 10.5a4.932 4.932 0 01-3 .5c-2.445-3.45-2.612-7.117-.5-11a36.678 36.678 0 017.5-10c.825-.886 1.825-1.219 3-1-.204-1.89.463-3.39 2-4.5a47.184 47.184 0 0112-1.5v-3c1.679.215 2.679-.452 3-2 2.412-.194 3.412-1.527 3-4h2c.967-1.306 2.301-1.973 4-2-.633-6.55 2.367-9.05 9-7.5 1.304.804 1.971 1.97 2 3.5a29.665 29.665 0 01-3.5 9 55.157 55.157 0 00-5.5 8z" opacity=".934"/><path fill="#1170d7" d="M59.5 58.5h1a10.123 10.123 0 01-1.5 4c-2.531 1.423-4.365 3.423-5.5 6a8.434 8.434 0 00-4 .5c.457.414.79.914 1 1.5-6.623 3.139-13.623 4.806-21 5l-4 2c.363.683.696 1.35 1 2-1.81-.072-3.144-.905-4-2.5 2.305-2.12 3.971-4.62 5-7.5a414.75 414.75 0 0118-13.5c4.77.137 9.437.97 14 2.5z" opacity=".946"/><path fill="#52b0e7" d="M91.5 44.5c2.357-.163 4.69.003 7 .5.556.383.89.883 1 1.5 1.051.722 1.718 1.722 2 3-1.238-.912-2.572-1.08-4-.5A119.2 119.2 0 0184 61.5c-.385 1.697-.218 3.363.5 5-2.13-1.464-3.463-3.464-4-6-.285-1.788.048-3.455 1-5a39.35 39.35 0 0010-11z"/><path fill="#e5e8eb" d="M68.5 60.5a199.631 199.631 0 003 6 202.367 202.367 0 00-19.5 22c-1.129 1.641-2.629 2.641-4.5 3-.904-.709-1.237-1.709-1-3-2.222.322-4.056-.345-5.5-2-.278.916-.778 1.582-1.5 2v-3c1.6-.752 3.1-1.752 4.5-3a67.195 67.195 0 009.5-14c1.135-2.577 2.969-4.577 5.5-6a10.123 10.123 0 001.5-4c2.229.555 3.895 1.889 5 4 1.083-.865 1.25-1.865.5-3-2.127-.897-2.627-2.23-1.5-4 1.73 1.392 3.064 3.059 4 5z" opacity=".997"/><path fill="#1a7bdb" d="M102.5 62.5c.412 2.473-.588 3.806-3 4-3.612 1.011-7.279 1.178-11 .5a58.18 58.18 0 0114-13.5c1.143 2.998 1.143 5.998 0 9z"/><path fill="#1b63b6" d="M53.5 68.5a67.195 67.195 0 01-9.5 14 18.702 18.702 0 01-4.5 3c-4.357-2.005-8.69-4.005-13-6a44.358 44.358 0 00-1-2l4-2c7.377-.194 14.377-1.861 21-5a3.646 3.646 0 00-1-1.5 8.434 8.434 0 014-.5z"/><path fill="#a8aaab" d="M80.5 49.5c-.835 3.84-.835 7.506 0 11 .537 2.536 1.87 4.536 4 6 3.513 3.03 7.513 3.697 12 2v3c-4.06-.015-8.06.485-12 1.5-1.537 1.11-2.204 2.61-2 4.5-1.175-.219-2.175.114-3 1a36.678 36.678 0 00-7.5 10c-2.112 3.883-1.945 7.55.5 11-3.58 2.571-6.913 5.571-10 9-1.893-4.107-4.56-7.607-8-10.5a161.438 161.438 0 006-9.5c1.175.219 2.175-.114 3-1 3.29-3.325 6.624-6.658 10-10 .886-.825 1.219-1.825 1-3h-3c1.418-1.808 3.418-2.475 6-2 .17-1.322-.163-2.489-1-3.5a609.502 609.502 0 014-19.5z" opacity=".968"/><path fill="#1771d3" d="M47.5 91.5c.282 1.278.949 2.278 2 3-2.667 1.333-5.333 1.333-8 0h-2c-2.045-1.423-3.045-3.423-3-6h3c.722-.418 1.222-1.084 1.5-2 1.444 1.655 3.278 2.322 5.5 2-.237 1.291.096 2.291 1 3z" opacity=".795"/><path fill="#2b5388" d="M71.5 74.5h3c.219 1.175-.114 2.175-1 3-3.376 3.342-6.71 6.675-10 10-.825.886-1.825 1.219-3 1a161.438 161.438 0 01-6 9.5c3.44 2.893 6.107 6.393 8 10.5 3.087-3.429 6.42-6.429 10-9a4.932 4.932 0 003-.5c4.343-4.521 9.343-8.021 15-10.5a77.57 77.57 0 003 13c-.043.916-.376 1.583-1 2a122.768 122.768 0 00-26 10c-1.526-.605-2.526-1.771-3-3.5a4.934 4.934 0 00-3-.5v3c-2.577.045-4.577-.955-6-3 .073-1.527-.594-2.527-2-3 .172-.992-.162-1.658-1-2-1.28-1.468-2.946-2.135-5-2 .413-2.82-.587-4.82-3-6h-2v-2c2.667 1.333 5.333 1.333 8 0 1.175.219 2.175-.114 3-1a255.445 255.445 0 0019-19z" opacity=".96"/><path fill="#f9e18e" d="M43.5 96.5c2.413 1.18 3.413 3.18 3 6 2.054-.135 3.72.532 5 2-5.84 3.999-9.174 2.499-10-4.5.362-1.434 1.029-2.6 2-3.5z"/><path fill="#fe9418" d="M39.5 94.5h2v2a13.364 13.364 0 00-6 4.5c-.169 3.126.165 6.293 1 9.5h4a4.932 4.932 0 00.5 3c1.695-.657 3.528-.657 5.5 0 3.397-1.068 5.397-3.401 6-7 1.406.473 2.073 1.473 2 3-.103 3.136-1.103 5.802-3 8 .039-1.256-.461-2.256-1.5-3a23.505 23.505 0 00-5.5 6c-3.453.782-6.786 1.116-10 1-3.146-3.217-5.48-6.883-7-11-.704-4.303.63-7.803 4-10.5-1.256-.417-1.923-1.25-2-2.5 3.056-1.75 6.39-2.75 10-3z"/><path fill="#ffca45" d="M41.5 96.5h2c-.971.9-1.638 2.066-2 3.5.826 6.999 4.16 8.499 10 4.5.838.342 1.172 1.008 1 2-.603 3.599-2.603 5.932-6 7-1.972-.657-3.805-.657-5.5 0a4.932 4.932 0 01-.5-3h-4c-.835-3.207-1.169-6.374-1-9.5a13.364 13.364 0 016-4.5z"/><path fill="#185dac" d="M92.5 103.5a96.224 96.224 0 01-20.5 23 42.967 42.967 0 01-4.5-7.5 12.988 12.988 0 01-1-5.5 122.768 122.768 0 0126-10z" opacity=".811"/><path fill="#f65c0c" d="M27.5 110.5c1.52 4.117 3.854 7.783 7 11 3.214.116 6.547-.218 10-1a23.505 23.505 0 015.5-6c1.039.744 1.539 1.744 1.5 3-1.553 5.54-5.22 7.873-11 7-3.112-.349-6.446-.349-10 0v-3c-3.034-.109-4.034-1.443-3-4-.825-.886-1.825-1.219-3-1-.469-2.893.531-4.893 3-6z"/><path fill="#ec341b" d="M29.5 97.5c.077 1.25.744 2.083 2 2.5-3.37 2.697-4.704 6.197-4 10.5-2.469 1.107-3.469 3.107-3 6 1.175-.219 2.175.114 3 1-1.034 2.557-.034 3.891 3 4v3c3.554-.349 6.888-.349 10 0-1.699 1.011-3.199 2.345-4.5 4-2.885 1.446-5.551 1.113-8-1-2.333 1.333-4.667 1.333-7 0 .871-4.445.538-8.779-1-13 .632-2.031 1.799-3.698 3.5-5a122.36 122.36 0 002-8c1.716-1.049 3.049-2.382 4-4z" opacity=".486"/></svg><svg shape-rendering="geometricPrecision" text-rendering="geometricPrecision" image-rendering="optimizeQuality" fill-rule="evenodd" clip-rule="evenodd" viewBox="0 0 150 150" id="tasks-2" xmlns="http://www.w3.org/2000/svg"><path fill="#ee0402" d="M82.5 13.5c-1.098.897-1.098 1.73 0 2.5-3.172 2.006-5.838 4.506-8 7.5a1041.63 1041.63 0 00-12 2c-2.888-.51-5.221.157-7 2a19.524 19.524 0 00-7.5 1 81.493 81.493 0 00-15.5 11c-6.948 7.764-11.615 16.764-14 27-.826 4.482-1.326 9.149-1.5 14a198.274 198.274 0 00-10.5 11c-5.394-22.094-.894-42.094 13.5-60 17.536-17.147 38.37-23.147 62.5-18z" opacity=".971"/><path fill="#d20703" d="M82.5 13.5c8.764 1.577 16.43 5.244 23 11-1.602 3.521-3.935 6.521-7 9-1.226.863-2.56.863-4 0-5.939-4.238-12.605-6.57-20-7-3.798-.983-7.798-1.317-12-1a1041.63 1041.63 0 0112-2c2.162-2.994 4.828-5.494 8-7.5-1.098-.77-1.098-1.603 0-2.5z" opacity=".908"/><path fill="#ec827d" d="M62.5 25.5c4.202-.317 8.202.017 12 1a103.017 103.017 0 00-19 1c1.779-1.843 4.112-2.51 7-2z"/><path fill="#ebd7ce" d="M74.5 26.5c7.395.43 14.061 2.762 20 7 7.886 5.76 13.886 13.093 18 22 .111.617.444 1.117 1 1.5a66.755 66.755 0 01-14 1.5 1342.23 1342.23 0 01-6-10 962.24 962.24 0 00-11-7c-3.54-.503-6.873-1.503-10-3a57.446 57.446 0 009-9c-2.795-.439-5.128-1.439-7-3z"/><path fill="#ba0804" d="M105.5 24.5c7.273 4.236 12.606 10.236 16 18-1.031 4.564-3.031 8.73-6 12.5a4.932 4.932 0 01-3 .5c-4.114-8.907-10.114-16.24-18-22 1.44.863 2.774.863 4 0 3.065-2.479 5.398-5.479 7-9z" opacity=".948"/><path fill="#2487ae" d="M143.5 46.5c-6.7.33-13.366-.003-20-1a5.575 5.575 0 01-1-3c2.899-7.161 8.232-9.661 16-7.5 4.407 2.532 6.074 6.365 5 11.5z" opacity=".931"/><path fill="#e90b06" d="M72.5 38.5c3.127 1.497 6.46 2.497 10 3-1.194 3.205-3.194 5.871-6 8-5.39.283-10.39 1.283-15 3-9.321 1.988-14.988 7.654-17 17-1.75 2.855-2.584 6.189-2.5 10-2.531 3.388-5.698 5.721-9.5 7v-2a57.601 57.601 0 010-21c4.126-12.291 12.46-20.458 25-24.5 4.989-.5 9.989-.666 15-.5z"/><path fill="#f2e6df" d="M74.5 26.5c1.872 1.561 4.205 2.561 7 3a57.446 57.446 0 01-9 9c-5.011-.166-10.011 0-15 .5-12.54 4.042-20.874 12.209-25 24.5-.722.417-1.222 1.084-1.5 2l-.5 9.5c.015 3.576.682 6.743 2 9.5v2c.296 1.903.962 3.57 2 5a9.106 9.106 0 001 5 25.64 25.64 0 01-6 6c-1.07-1.41-2.403-2.41-4-3-5.816-10.076-8.15-21.076-7-33 2.385-10.236 7.052-19.236 14-27a81.493 81.493 0 0115.5-11 19.524 19.524 0 017.5-1 103.017 103.017 0 0119-1z"/><path fill="#2586ac" d="M143.5 48.5a57.523 57.523 0 015 9.5c-3.345 10.5-9.679 13-19 7.5v-1c2.856-3.793 3.856-7.96 3-12.5a208.576 208.576 0 0111-3.5z" opacity=".927"/><path fill="#be1009" d="M82.5 41.5a962.24 962.24 0 0111 7 1342.23 1342.23 0 006 10 309.979 309.979 0 01-12 5c-5.805-10.082-14.472-13.749-26-11 4.61-1.717 9.61-2.717 15-3 2.806-2.129 4.806-4.795 6-8z"/><path fill="#eddfd7" d="M87.5 63.5c-4.773-.376-9.107.624-13 3h-2c-11.227-2.918-15.893 1.248-14 12.5.87 1.364 1.87 2.53 3 3.5.12 1.086.787 1.753 2 2a24.846 24.846 0 008 1 39.273 39.273 0 013 11c-4.134.985-8.468 1.318-13 1a5.728 5.728 0 00-3-1 94.199 94.199 0 01-9-5 294.15 294.15 0 00-4-8 49.873 49.873 0 01-1-14c2.012-9.346 7.679-15.012 17-17 11.528-2.749 20.195.918 26 11z"/><path fill="#dfd0c5" d="M113.5 60.5c2.34 9.308 2.34 18.642 0 28-.391 4.04-1.724 7.707-4 11a71.916 71.916 0 00-7 9c-.996.086-1.829-.248-2.5-1a1225.182 1225.182 0 00-3.5-10v-1c2.557-3.638 4.557-7.638 6-12 .722-.418 1.222-1.084 1.5-2l.5-8c-.022-3.09-.688-5.757-2-8v-1c3.214-2.46 6.881-4.127 11-5z"/><path fill="#2b728d" d="M121.5 42.5h1a5.575 5.575 0 001 3c6.634.997 13.3 1.33 20 1v2a208.576 208.576 0 00-11 3.5c.856 4.54-.144 8.707-3 12.5-4.23-2.742-8.896-4.075-14-4h-2c-4.119.873-7.786 2.54-11 5-4.557 1.049-8.557 3.049-12 6a52.84 52.84 0 00-13 3h-1c-.992.172-1.658-.162-2-1v-7c3.893-2.376 8.227-3.376 13-3a309.979 309.979 0 0012-5 66.755 66.755 0 0014-1.5c-.556-.383-.889-.883-1-1.5a4.932 4.932 0 003-.5c2.969-3.77 4.969-7.936 6-12.5z"/><path fill="#d9c8bd" d="M90.5 71.5c.269 4.847-.398 9.514-2 14h-2a59.91 59.91 0 00-9-5v-6a52.84 52.84 0 0113-3z"/><path fill="#bd6f43" d="M72.5 66.5h2v7l-6 1c.194-2.412 1.527-3.412 4-3v-5z"/><path fill="#c4867f" d="M102.5 66.5c1.312 2.243 1.978 4.91 2 8l-.5 8c-.278.916-.778 1.582-1.5 2 1.226-6.021 1.226-12.021 0-18z"/><path fill="#8d0907" d="M102.5 65.5v1c1.226 5.979 1.226 11.979 0 18-1.443 4.362-3.443 8.362-6 12-3.97-1.737-6.97-4.57-9-8.5.752-.67 1.086-1.504 1-2.5 1.602-4.486 2.269-9.153 2-14 3.443-2.951 7.443-4.951 12-6z"/><path fill="#ed5e57" d="M32.5 63.5a57.601 57.601 0 000 21c-1.318-2.757-1.985-5.924-2-9.5l.5-9.5c.278-.916.778-1.583 1.5-2z"/><path fill="#cd948a" d="M113.5 60.5h2a86.22 86.22 0 01.5 20c.053 3.175-.78 5.842-2.5 8 2.34-9.358 2.34-18.692 0-28z"/><path fill="#8c0303" d="M115.5 60.5c5.104-.075 9.77 1.258 14 4v1c.178 3.477.845 6.81 2 10a40.446 40.446 0 00-2 10 165.535 165.535 0 00-19.5 18 8.43 8.43 0 01-.5-4c2.276-3.293 3.609-6.96 4-11 1.72-2.158 2.553-4.825 2.5-8a86.22 86.22 0 00-.5-20z" opacity=".964"/><path fill="#cc120c" d="M72.5 66.5v5c-2.473-.412-3.806.588-4 3-1.623 2.715-2.29 5.715-2 9-1.791.134-3.458-.2-5-1-1.13-.97-2.13-2.136-3-3.5-1.893-11.252 2.773-15.418 14-12.5z"/><path fill="#7f1615" d="M74.5 73.5c.342.838 1.008 1.172 2 1-.52 6.188-3.853 9.188-10 9-.29-3.285.377-6.285 2-9l6-1z"/><path fill="#94857e" d="M76.5 74.5h1v6a59.91 59.91 0 019 5c.009 1.808-.491 3.475-1.5 5a171.099 171.099 0 01-7.5 6h-3a39.273 39.273 0 00-3-11 24.846 24.846 0 01-8-1c-1.213-.247-1.88-.914-2-2 1.542.8 3.209 1.134 5 1 6.147.188 9.48-2.812 10-9z"/><path fill="#571011" d="M86.5 85.5h2c.086.996-.248 1.83-1 2.5 2.03 3.93 5.03 6.763 9 8.5v1a78.77 78.77 0 00-11 10h-2a6.846 6.846 0 00-1-4c-2.48-1.804-4.147-4.137-5-7a171.099 171.099 0 007.5-6c1.009-1.525 1.509-3.192 1.5-5z"/><path fill="#7c0302" d="M129.5 85.5c-4.108 23.61-17.274 39.944-39.5 49a68.274 68.274 0 01-19.5 3c-.11-.617-.444-1.117-1-1.5a233.255 233.255 0 0016-14 2.429 2.429 0 00-2-.5 268.353 268.353 0 0110-5c3.646-1.982 6.646-4.649 9-8a71.916 71.916 0 017-9 8.43 8.43 0 00.5 4 165.535 165.535 0 0119.5-18z" opacity=".872"/><path fill="#bf130a" d="M44.5 69.5a49.873 49.873 0 001 14 294.15 294.15 0 014 8 94.199 94.199 0 009 5c.077 1.25.744 2.083 2 2.5l-7 7a8.43 8.43 0 01-4 .5l-8-4v-3h-3c-.496-3.142-1.83-5.808-4-8-1.038-1.43-1.704-3.097-2-5 3.802-1.279 6.969-3.612 9.5-7-.084-3.811.75-7.145 2.5-10z"/><path fill="#8d160f" d="M74.5 96.5h3c.853 2.863 2.52 5.196 5 7a6.846 6.846 0 011 4c-3.458 2.614-7.458 3.614-12 3-1.109-.79-2.442-1.29-4-1.5a36.588 36.588 0 008-9.5c-4.817-.667-9.483-1.334-14-2 4.532.318 8.866-.015 13-1z"/><path fill="#9e0403" d="M58.5 96.5a5.728 5.728 0 013 1c4.517.666 9.183 1.333 14 2a36.588 36.588 0 01-8 9.5c1.558.21 2.891.71 4 1.5-7.967 1.003-15.3-.331-22-4a8.43 8.43 0 004-.5l7-7c-1.256-.417-1.923-1.25-2-2.5z"/><path fill="#90867f" d="M96.5 97.5a1240.52 1240.52 0 013.5 10c.671.752 1.504 1.086 2.5 1-2.354 3.351-5.354 6.018-9 8-.086-.996.248-1.829 1-2.5a4.934 4.934 0 00-3-.5v-3a15.063 15.063 0 01-6-3 78.77 78.77 0 0111-10z"/><path fill="#cb0904" d="M18.5 66.5c-1.15 11.924 1.184 22.924 7 33 .229 1.933 1.062 3.6 2.5 5a53.979 53.979 0 006.5 6 8.435 8.435 0 01-.5 4 94.4 94.4 0 01-8.5 8 82.128 82.128 0 01-15.5-19 82.458 82.458 0 01-3.5-12 198.274 198.274 0 0110.5-11c.174-4.851.674-9.518 1.5-14z" opacity=".917"/><path fill="#e3d0c5" d="M34.5 91.5c2.17 2.192 3.504 4.858 4 8h3v3l8 4c6.7 3.669 14.033 5.003 22 4 4.542.614 8.542-.386 12-3h2a15.063 15.063 0 006 3v3a4.934 4.934 0 013 .5c-.752.671-1.086 1.504-1 2.5a268.353 268.353 0 00-10 5h-2a180.808 180.808 0 01-24 1c-1.459.067-2.792-.266-4-1-7.356-2.049-13.69-5.716-19-11a53.979 53.979 0 01-6.5-6c-1.438-1.4-2.271-3.067-2.5-5 1.597.59 2.93 1.59 4 3a25.64 25.64 0 006-6 9.106 9.106 0 01-1-5z"/><path fill="#ac0302" d="M34.5 110.5c5.31 5.284 11.644 8.951 19 11 .077 1.25.744 2.083 2 2.5-4.129 2.769-7.462 6.269-10 10.5-7.543-2.716-14.21-6.716-20-12a94.4 94.4 0 008.5-8 8.435 8.435 0 00.5-4z" opacity=".94"/><path fill="#930000" d="M53.5 121.5c1.208.734 2.541 1.067 4 1 2.686 1.491 5.686 2.157 9 2 4.36-.266 8.693-.766 13-1.5.916-.278 1.582-.778 2-1.5h2a2.429 2.429 0 012 .5 233.255 233.255 0 01-16 14c.556.383.89.883 1 1.5-8.545.458-16.878-.542-25-3 2.538-4.231 5.871-7.731 10-10.5-1.256-.417-1.923-1.25-2-2.5z" opacity=".924"/><path fill="#b75a53" d="M81.5 121.5c-.418.722-1.084 1.222-2 1.5-4.307.734-8.64 1.234-13 1.5-3.314.157-6.314-.509-9-2a180.81 180.81 0 0024-1z"/></svg><svg shape-rendering="geometricPrecision" text-rendering="geometricPrecision" image-rendering="optimizeQuality" fill-rule="evenodd" clip-rule="evenodd" viewBox="0 0 150 150" id="tasks-3" xmlns="http://www.w3.org/2000/svg"><path fill="#8f0000" d="M90.5 11.5a117.818 117.818 0 00-3 12c-6.512-5.364-8.845-12.364-7-21h4a4.932 4.932 0 00.5 3 41.39 41.39 0 015.5 6z" opacity=".784"/><path fill="#33520a" d="M119.5 13.5h5v8a23.148 23.148 0 01-8 2v-9c1.291.237 2.291-.096 3-1z" opacity=".778"/><path fill="#7da902" d="M31.5 20.5c-1.803 1.581-3.136 3.581-4 6-3.05-1.88-3.717-4.548-2-8 2.518-1.082 4.518-.415 6 2z"/><path fill="#c90000" d="M90.5 11.5c3.505 1.275 6.505 3.275 9 6a53.788 53.788 0 01-1 14 3321.78 3321.78 0 00-11-8 117.818 117.818 0 013-12z" opacity=".844"/><path fill="#f00000" d="M99.5 17.5c3.22 2.54 6.553 5.04 10 7.5.752.67 1.086 1.504 1 2.5.345 3.615-.322 6.948-2 10a49.223 49.223 0 01-10-6 53.788 53.788 0 001-14z" opacity=".606"/><path fill="#4a7106" d="M31.5 20.5c.997 2.505.997 5.172 0 8-1.983.343-3.317-.323-4-2 .864-2.419 2.197-4.419 4-6z" opacity=".224"/><path fill="#40610a" d="M56.5 33.5c-.17-1.322.163-2.489 1-3.5a56.175 56.175 0 01-4-9.5v-4h4c1.102 3.6 2.102 7.267 3 11-.144 2.883-1.477 4.883-4 6z" opacity=".961"/><path fill="#8dbf00" d="M49.5 25.5a38.553 38.553 0 014 10c-1.105 1.723-2.772 2.723-5 3-3.465-2.557-4.798-5.89-4-10a31.19 31.19 0 015-3z" opacity=".849"/><path fill="#ff9000" d="M71.5 20.5c1.757.792 3.09 2.125 4 4a6.845 6.845 0 004 1c-1.774 2.618-2.774 5.618-3 9-1.984.117-3.65-.55-5-2-1.024 1.353-2.357 2.02-4 2a76.94 76.94 0 00-1-10h4c-.067-1.459.266-2.792 1-4z" opacity=".685"/><path fill="#ffd800" d="M71.5 24.5c1.208.734 2.541 1.067 4 1 .012 3.946-1.988 5.613-6 5a6.845 6.845 0 00-1-4 44.293 44.293 0 003-2z"/><path fill="#6b9504" d="M53.5 20.5a56.175 56.175 0 004 9.5c-.837 1.011-1.17 2.178-1 3.5-.79.901-1.79 1.568-3 2a38.553 38.553 0 00-4-10 14.76 14.76 0 014-5z" opacity=".304"/><path fill="#b30000" d="M110.5 27.5c4.302 2.681 6.635 6.681 7 12-1.782 1.22-3.782 1.886-6 2-.667-1.333-1.333-1.333-2 0a51.56 51.56 0 01-1 7h-3c-2.582.475-4.582-.192-6-2a25.168 25.168 0 014-7 18.437 18.437 0 006-.5c-.556-.383-.889-.883-1-1.5 1.678-3.052 2.345-6.385 2-10z" opacity=".998"/><path fill="#669303" d="M44.5 28.5c-.798 4.11.535 7.443 4 10-1.156 1.887-2.823 3.22-5 4-2.094-2.597-3.427-5.597-4-9 1.333-2 3-3.667 5-5z" opacity=".515"/><path fill="#ea0000" d="M91.5 36.5c4.341.053 8.341 1.053 12 3a25.168 25.168 0 00-4 7c-3.482-.328-6.815-.328-10 0a35.09 35.09 0 002-10z" opacity=".978"/><path fill="#3f6107" d="M39.5 33.5c.573 3.403 1.906 6.403 4 9l-1 2a19.242 19.242 0 01-6-1c-1.086-.12-1.753-.787-2-2 1.31-2.995 2.977-5.662 5-8z" opacity=".708"/><path fill="#870100" d="M117.5 39.5a42.37 42.37 0 00-3 9c-3.135 1.283-6.135 1.283-9 0h3a51.56 51.56 0 001-7h2c2.218-.114 4.218-.78 6-2z" opacity=".873"/><path fill="#32530b" d="M125.5 44.5c2.75.118 4.75 1.451 6 4 .825.886 1.825 1.219 3 1a29.752 29.752 0 01-2 7c-7.788-.637-10.122-4.637-7-12z" opacity=".842"/><path fill="#7dac03" d="M36.5 43.5a19.22 19.22 0 006 1c4.014 1.01 8.014 2.01 12 3 .31 3.213-.023 6.213-1 9a193.004 193.004 0 01-14-4c-2.198-2.594-3.198-5.594-3-9z"/><path fill="#900000" d="M91.5 36.5a35.09 35.09 0 01-2 10c-.667 0-1 .333-1 1-.37 3.637-1.37 6.97-3 10-.955-1.783-1.622-3.783-2-6a61.533 61.533 0 013-13c1.822-.33 3.49-.998 5-2z" opacity=".965"/><path fill="#385a0a" d="M54.5 47.5c5.153 1.827 8.153 5.494 9 11-1.6-1.062-3.266-1.062-5 0l-5-2c.977-2.787 1.31-5.787 1-9z" opacity=".919"/><path fill="#32500a" d="M66.5 52.5h8c.981 6.192-1.686 8.859-8 8v-8z" opacity=".717"/><path fill="#ffa300" d="M20.5 47.5a38.482 38.482 0 0012 2c-1.333 3.667-1.333 7.333 0 11-3.406-.198-6.406.802-9 3-1.533-1.789-2.533-3.789-3-6-3 .333-4.333-1-4-4 3.568-.26 4.901-2.26 4-6z" opacity=".796"/><path fill="#ffe100" d="M24.5 52.5h4v5c-3.026 1.533-5.36.7-7-2.5 1.442-.377 2.442-1.21 3-2.5z"/><path fill="#d80000" d="M88.5 47.5c6.45 5.394 9.116 12.394 8 21l-4 1-7-12c1.63-3.03 2.63-6.363 3-10z" opacity=".998"/><path fill="#fabc40" d="M53.5 64.5c.172.992-.162 1.658-1 2h-11v11c-1.403-3.409-2.07-7.075-2-11 .077-1.25.744-2.083 2-2.5a28.222 28.222 0 0112 .5z" opacity=".246"/><path fill="#80ab03" d="M63.5 58.5c.778.656 1.444 1.489 2 2.5a14.72 14.72 0 00-2.5 6.5c-.995.566-1.828 1.233-2.5 2-1.679-.215-2.679.452-3 2-1.4.6-2.4 1.6-3 3-.897 1.098-1.73 1.098-2.5 0-.493-1.634-.66-3.3-.5-5 .904-.709 1.237-1.709 1-3 .838-.342 1.172-1.008 1-2l5-6c1.734-1.062 3.4-1.062 5 0z" opacity=".969"/><path fill="#35520b" d="M84.5 72.5c-2.361 1.288-3.861 3.288-4.5 6-.67-.752-1.504-1.086-2.5-1a20.677 20.677 0 01-5-1c0-1.333-.667-2-2-2 1.039-4.372 3.706-7.039 8-8v3c2.716-.114 4.716.886 6 3z" opacity=".88"/><path fill="#f78928" d="M60.5 69.5a42.95 42.95 0 0110 5c.61.891.943 1.891 1 3h-2a129.707 129.707 0 00-12-6c.321-1.548 1.321-2.215 3-2z" opacity=".521"/><path fill="#7a0100" d="M96.5 68.5c.76 6.814-1.906 11.481-8 14v-10c.711-1.701 2.045-2.701 4-3l4-1z" opacity=".662"/><path fill="#4d5209" d="M51.5 69.5c-.16 1.7.007 3.366.5 5 .77 1.098 1.603 1.098 2.5 0-.57 2.835-2.236 4.501-5 5a32.437 32.437 0 01.5-8c.278-.916.778-1.582 1.5-2z"/><path fill="#f80d01" d="M72.5 76.5a20.69 20.69 0 005 1c.321 1.548 1.321 2.215 3 2-.175 2.12.159 4.12 1 6-1.562.233-2.895.9-4 2-5.527.87-9.193 3.87-11 9h-3a61.278 61.278 0 011-15c2.326-.645 3.993-1.978 5-4h2c.667 0 1-.333 1-1z" opacity=".986"/><path fill="#ae0c00" d="M84.5 72.5h4v10c-1.846 1.955-4.18 2.955-7 3-.841-1.88-1.175-3.88-1-6-1.679.215-2.679-.452-3-2 .996-.086 1.83.248 2.5 1 .639-2.712 2.139-4.712 4.5-6z" opacity=".997"/><path fill="#ff9200" d="M121.5 61.5h5a16.874 16.874 0 001 8c3.569.847 4.902 2.847 4 6a20.058 20.058 0 00-6 3c-1.924 8.98-4.591 9.313-8 1-10.187 1.362-11.521-1.138-4-7.5-2.484-1.892-3.818-4.392-4-7.5 3.35.165 6.683-.002 10-.5 1.256-.417 1.923-1.25 2-2.5z" opacity=".996"/><path fill="#ffd500" d="M121.5 65.5h3c.314 5.225-.353 10.225-2 15h-3v-3h-6c-.028-2.082.639-3.916 2-5.5-1.361-1.584-2.028-3.418-2-5.5 2.885.306 5.552-.027 8-1z"/><path fill="#d54d11" d="M52.5 66.5c.237 1.291-.096 2.291-1 3-.722.418-1.222 1.084-1.5 2a32.437 32.437 0 00-.5 8c2.764-.499 4.43-2.165 5-5 .6-1.4 1.6-2.4 3-3a129.707 129.707 0 0112 6c-1.007 2.022-2.674 3.355-5 4a141.352 141.352 0 00-12.5 3c-2.411-1.653-3.578-.987-3.5 2a110.811 110.811 0 00-7-9v-11h11z"/><path fill="#ffef6f" d="M39.5 66.5c-.07 3.925.597 7.591 2 11a110.811 110.811 0 017 9c.734 1.208 1.067 2.541 1 4-1.33-1.332-2.997-2.165-5-2.5 1.196-.654 1.196-1.154 0-1.5a71.19 71.19 0 01-17 15.5 4.934 4.934 0 01-3 .5c3.497-12.691 8.497-24.691 15-36z" opacity=".869"/><path fill="#f14f0e" d="M64.5 81.5a61.278 61.278 0 00-1 15h3c1.807-5.13 5.473-8.13 11-9 .59 1.597 1.59 2.93 3 4-6.211 3.882-12.878 6.549-20 8a17.906 17.906 0 01-5-3c-.31-1.644-1.31-2.644-3-3-.31-1.644-1.31-2.644-3-3 .067-1.459-.266-2.792-1-4-.078-2.987 1.089-3.653 3.5-2a141.352 141.352 0 0112.5-3z"/><path fill="#2e4c0b" d="M106.5 86.5c1.624-.14 2.79.527 3.5 2 1.606 7.04-1.228 10.207-8.5 9.5-.944-2.72-1.277-5.552-1-8.5 2.716.114 4.716-.886 6-3z" opacity=".802"/><path fill="#f8580f" d="M81.5 85.5a85.003 85.003 0 0111 18h-1c-8.674-1.847-17.007-1.18-25 2l-6-4v-2c7.122-1.451 13.789-4.118 20-8-1.41-1.07-2.41-2.403-3-4 1.105-1.1 2.438-1.767 4-2z"/><path fill="#fed603" d="M49.5 90.5c1.69.356 2.69 1.356 3 3 1.322 1.811 1.822 3.811 1.5 6-9.903 11.032-22.07 17.366-36.5 19l2-2a21.029 21.029 0 007-2 261.515 261.515 0 0017-10.5l7.5-7.5c.613-1.995.113-3.662-1.5-5v-1z"/><path fill="#54690a" d="M91.5 103.5c-3.397.151-5.73 1.818-7 5a114.266 114.266 0 00-18-1v-2c7.993-3.18 16.326-3.847 25-2z"/><path fill="#ffec2e" d="M49.5 90.5v1c-5.43 4.262-10.43 9.095-15 14.5l-6 1c-2.317 2.157-4.984 3.657-8 4.5a32.568 32.568 0 014-9 4.934 4.934 0 003-.5 71.19 71.19 0 0017-15.5c1.196.346 1.196.846 0 1.5 2.003.335 3.67 1.168 5 2.5z"/><path fill="#ffe805" d="M49.5 91.5c1.613 1.338 2.113 3.005 1.5 5l-7.5 7.5a261.515 261.515 0 01-17 10.5 21.029 21.029 0 01-7 2 20.676 20.676 0 011-5c3.016-.843 5.683-2.343 8-4.5l6-1c4.57-5.405 9.57-10.238 15-14.5z"/><path fill="#fead02" d="M55.5 96.5a17.906 17.906 0 005 3v2c.01 1.517.677 2.684 2 3.5l-5 3.5c-5.076 8.205-12.41 12.872-22 14v3a175.951 175.951 0 01-17.5 5c-1.03-.336-1.53-1.003-1.5-2v-4c14.97-1.233 27.803-7.233 38.5-18 .29-1.544.956-2.877 2-4 .322-2.189-.178-4.189-1.5-6z" opacity=".988"/><path fill="#81ae02" d="M91.5 103.5h1c8.349 1.794 15.349 5.794 21 12a30.326 30.326 0 00-7 6 81.706 81.706 0 00-9-7c-1.189-.929-2.522-1.262-4-1v-3h-5c-.683-1.676-2.017-2.343-4-2 1.27-3.182 3.603-4.849 7-5z"/><path fill="#ff7e00" d="M132.5 102.5h-7c-.368 3.033.298 5.7 2 8h-5a41.333 41.333 0 002-10c2.097.853 4.097.853 6 0 1.213.247 1.88.914 2 2z" opacity=".035"/><path fill="#ff8e00" d="M132.5 103.5c2.469 1.107 3.469 3.107 3 6-2.792-.048-4.625 1.285-5.5 4a10.515 10.515 0 01-2.5-3c3.816-.59 5.483-2.923 5-7z" opacity=".345"/><path fill="#f9590f" d="M88.5 110.5h5v3c.338 3.651-1.328 5.317-5 5-5.8-2.114-11.466-4.947-17-8.5a56.723 56.723 0 0117 .5z"/><path fill="#ffc100" d="M132.5 102.5v1c.483 4.077-1.184 6.41-5 7-1.702-2.3-2.368-4.967-2-8h7z" opacity=".996"/><path fill="#fe8100" d="M68.5 109.5a10.177 10.177 0 013 3 796.673 796.673 0 01-27 19.5 1047.56 1047.56 0 01-24 8.5c-1.024-1.353-2.357-2.02-4-2-1.051-.722-1.718-1.722-2-3 3.35.165 6.683-.002 10-.5 14.12-4.309 26.954-10.809 38.5-19.5.495-1.973.662-3.973.5-6h5z" opacity=".993"/><path fill="#f57900" d="M71.5 112.5a16.51 16.51 0 015 2.5 1067.32 1067.32 0 00-10 9 4.934 4.934 0 01-3 .5v5c.03.997-.47 1.664-1.5 2A2862.052 2862.052 0 0031.5 143a30.485 30.485 0 01-11 0c-2.251-.748-3.584-2.248-4-4.5 1.643-.02 2.976.647 4 2 7.98-2.717 15.98-5.55 24-8.5a796.673 796.673 0 0027-19.5z" opacity=".953"/><path fill="#ffc100" d="M52.5 93.5c1.69.356 2.69 1.356 3 3 1.322 1.811 1.822 3.811 1.5 6-1.044 1.123-1.71 2.456-2 4-10.697 10.767-23.53 16.767-38.5 18a19.24 19.24 0 001-6c14.43-1.634 26.597-7.968 36.5-19 .322-2.189-.178-4.189-1.5-6z"/><path fill="#e57309" d="M66.5 107.5c6.036-.14 12.036.193 18 1 1.983-.343 3.317.324 4 2a56.723 56.723 0 00-17-.5c5.534 3.553 11.2 6.386 17 8.5a168.818 168.818 0 01-19 10 19.051 19.051 0 01-6 1v-5a4.934 4.934 0 003-.5 1067.32 1067.32 0 0110-9 16.51 16.51 0 00-5-2.5 10.177 10.177 0 00-3-3l-2-2z" opacity=".998"/><path fill="#fe9d01" d="M60.5 101.5l6 4v2a12.93 12.93 0 00-5 .5c-4.017 6.885-9.684 12.218-17 16-4.587-.204-8.254 1.462-11 5a144.29 144.29 0 01-19 5.5c-.475-2.582.192-4.582 2-6-.03.997.47 1.664 1.5 2a175.951 175.951 0 0017.5-5v-3c9.59-1.128 16.924-5.795 22-14l5-3.5c-1.323-.816-1.99-1.983-2-3.5z"/><path fill="#4a6d07" d="M113.5 115.5c4.98 4.036 5.314 8.703 1 14a45.409 45.409 0 00-8-8 30.326 30.326 0 017-6z" opacity=".192"/><path fill="#fe9000" d="M66.5 107.5l2 2h-5a18.437 18.437 0 01-.5 6c-11.546 8.691-24.38 15.191-38.5 19.5-3.317.498-6.65.665-10 .5v-1a144.29 144.29 0 0019-5.5c2.746-3.538 6.413-5.204 11-5 7.316-3.782 12.983-9.115 17-16a12.93 12.93 0 015-.5z" opacity=".976"/></svg><svg fill="none" viewBox="0 0 92 79" id="why-one" xmlns="http://www.w3.org/2000/svg"><path d="M92 12.875c0 20.986-26.804 66-50 66s-42-17.014-42-38c0-20.988 18.804-38 42-38s50-10.987 50 10z" fill="#3F82D0"/></svg><svg fill="none" viewBox="0 0 71 75" id="why-three" xmlns="http://www.w3.org/2000/svg"><path d="M66.416 9.366c0 20.177 12.752 65.529-4.322 65.529S.137 56.461.137 36.285c0-20.177-.504-26.919 16.57-26.919 17.075 0 49.71-20.176 49.71 0z" fill="#3F82D0"/></svg><svg fill="none" viewBox="0 0 93 83" id="why-two" xmlns="http://www.w3.org/2000/svg"><path d="M92.15 12.875C92.15 33.86 43.344 83 20.15 83c-23.197 0-20-21.14-20-42.126 0-20.987 18.803-38 42-38 23.195 0 50-10.986 50 10z" fill="#3F82D0"/></svg></svg>